// Created by Crowbar 0.74
version 1
nodes
  0 "tag_grenade_launcher" -1
  1 "j_gpapa25_grenade" 0
end
skeleton
  time 0
    0 0.000000 0.000000 0.000000 0.000000 0.000000 0.000000
    1 9.812000 0.000000 -0.802000 0.000000 0.000000 0.000000
end
triangles
  phy
    0 7.504001 -0.483002 -0.802001 -0.412843 0.266750 -0.870865 0 0
    0 9.450996 -0.370000 -1.528001 -0.017437 0.706234 -0.707764 0 0
    0 8.318997 -0.790001 -0.545001 -0.070033 0.057502 -0.995886 0 0
  phy
    0 9.450996 -0.370000 -1.528001 -0.017437 0.706234 -0.707764 0 0
    0 7.504001 -0.483002 -0.802001 -0.412843 0.266750 -0.870865 0 0
    0 7.504000 -0.076000 -1.279002 -0.581960 0.743499 -0.329440 0 0
  phy
    0 9.450996 -0.370000 -1.528001 -0.017437 0.706234 -0.707764 0 0
    0 11.484989 -0.770000 -0.679999 0.120393 -0.142668 -0.982421 0 0
    0 8.318997 -0.790001 -0.545001 -0.070033 0.057502 -0.995886 0 0
  phy
    0 9.450996 -0.370000 -1.528001 -0.017437 0.706234 -0.707764 0 0
    0 8.318999 0.256998 -1.592000 -0.084300 0.785198 0.613481 0 0
    0 11.573000 0.120000 -1.561002 0.136906 0.975933 0.169741 0 0
  phy
    0 8.318999 0.256998 -1.592000 -0.084300 0.785198 0.613481 0 0
    0 9.450996 -0.370000 -1.528001 -0.017437 0.706234 -0.707764 0 0
    0 7.504000 -0.076000 -1.279002 -0.581960 0.743499 -0.329440 0 0
  phy
    0 11.484989 -0.770000 -0.679999 0.120393 -0.142668 -0.982421 0 0
    0 9.450996 -0.370000 -1.528001 -0.017437 0.706234 -0.707764 0 0
    0 12.107996 -0.252003 -1.148999 0.514445 0.666539 -0.539512 0 0
  phy
    0 12.107996 -0.252003 -1.148999 0.514445 0.666539 -0.539512 0 0
    0 9.450996 -0.370000 -1.528001 -0.017437 0.706234 -0.707764 0 0
    0 11.573000 0.120000 -1.561002 0.136906 0.975933 0.169741 0 0
  phy
    0 8.259004 -0.370014 -0.075988 -0.060252 -0.819137 -0.570424 0 0
    0 7.504001 -0.483002 -0.802001 -0.412843 0.266750 -0.870865 0 0
    0 8.318997 -0.790001 -0.545001 -0.070033 0.057502 -0.995886 0 0
  phy
    0 7.504001 -0.483002 -0.802001 -0.412843 0.266750 -0.870865 0 0
    0 8.259004 -0.370014 -0.075988 -0.060252 -0.819137 -0.570424 0 0
    0 7.504001 -0.076000 -0.325002 -0.800004 -0.599990 -0.002275 0 0
  phy
    0 8.259004 -0.370014 -0.075988 -0.060252 -0.819137 -0.570424 0 0
    0 11.484989 -0.770000 -0.679999 0.120393 -0.142668 -0.982421 0 0
    0 11.484997 -0.122002 -0.032000 0.095390 -0.963697 -0.249377 0 0
  phy
    0 11.484989 -0.770000 -0.679999 0.120393 -0.142668 -0.982421 0 0
    0 8.259004 -0.370014 -0.075988 -0.060252 -0.819137 -0.570424 0 0
    0 8.318997 -0.790001 -0.545001 -0.070033 0.057502 -0.995886 0 0
  phy
    0 8.259004 -0.370014 -0.075988 -0.060252 -0.819137 -0.570424 0 0
    0 8.318999 0.256998 -0.012001 -0.089174 -0.913513 0.396915 0 0
    0 7.504001 -0.076000 -0.325002 -0.800004 -0.599990 -0.002275 0 0
  phy
    0 11.484997 -0.122002 -0.032000 0.095390 -0.963697 -0.249377 0 0
    0 8.318999 0.256998 -0.012001 -0.089174 -0.913513 0.396915 0 0
    0 8.259004 -0.370014 -0.075988 -0.060252 -0.819137 -0.570424 0 0
  phy
    0 11.484989 -0.770000 -0.679999 0.120393 -0.142668 -0.982421 0 0
    0 12.107996 -0.252003 -1.148999 0.514445 0.666539 -0.539512 0 0
    0 12.108001 -0.132001 -0.395001 0.928410 -0.371469 -0.008069 0 0
  phy
    0 11.484997 -0.122002 -0.032000 0.095390 -0.963697 -0.249377 0 0
    0 11.484989 -0.770000 -0.679999 0.120393 -0.142668 -0.982421 0 0
    0 12.108001 -0.132001 -0.395001 0.928410 -0.371469 -0.008069 0 0
  phy
    0 7.504000 -0.076000 -1.279002 -0.581960 0.743499 -0.329440 0 0
    0 7.504001 -0.483002 -0.802001 -0.412843 0.266750 -0.870865 0 0
    0 7.504001 -0.076000 -0.325002 -0.800004 -0.599990 -0.002275 0 0
  phy
    0 7.504000 -0.076000 -1.279002 -0.581960 0.743499 -0.329440 0 0
    0 7.504001 -0.076000 -0.325002 -0.800004 -0.599990 -0.002275 0 0
    0 7.504001 0.483000 -0.802000 -0.632394 0.000000 0.774647 0 0
  phy
    0 7.504001 0.483000 -0.802000 -0.632394 0.000000 0.774647 0 0
    0 8.318999 0.789999 -0.545001 -0.058932 -0.080220 0.995033 0 0
    0 8.318999 0.256998 -1.592000 -0.084300 0.785198 0.613481 0 0
  phy
    0 7.504001 0.483000 -0.802000 -0.632394 0.000000 0.774647 0 0
    0 8.318999 0.256998 -1.592000 -0.084300 0.785198 0.613481 0 0
    0 7.504000 -0.076000 -1.279002 -0.581960 0.743499 -0.329440 0 0
  phy
    0 7.504001 -0.076000 -0.325002 -0.800004 -0.599990 -0.002275 0 0
    0 8.318999 0.256998 -0.012001 -0.089174 -0.913513 0.396915 0 0
    0 7.504001 0.483000 -0.802000 -0.632394 0.000000 0.774647 0 0
  phy
    0 7.504001 0.483000 -0.802000 -0.632394 0.000000 0.774647 0 0
    0 8.318999 0.256998 -0.012001 -0.089174 -0.913513 0.396915 0 0
    0 8.318999 0.789999 -0.545001 -0.058932 -0.080220 0.995033 0 0
  phy
    0 11.573000 0.120000 -1.561002 0.136906 0.975933 0.169741 0 0
    0 11.572999 0.730000 -1.039002 0.183082 0.358248 0.915500 0 0
    0 12.107996 -0.252003 -1.148999 0.514445 0.666539 -0.539512 0 0
  phy
    0 11.572999 0.730000 -1.039002 0.183082 0.358248 0.915500 0 0
    0 12.108001 -0.132001 -0.395001 0.928410 -0.371469 -0.008069 0 0
    0 12.107996 -0.252003 -1.148999 0.514445 0.666539 -0.539512 0 0
  phy
    0 8.318999 0.789999 -0.545001 -0.058932 -0.080220 0.995033 0 0
    0 11.572999 0.730000 -1.039002 0.183082 0.358248 0.915500 0 0
    0 8.318999 0.256998 -1.592000 -0.084300 0.785198 0.613481 0 0
  phy
    0 11.573000 0.120000 -1.561002 0.136906 0.975933 0.169741 0 0
    0 8.318999 0.256998 -1.592000 -0.084300 0.785198 0.613481 0 0
    0 11.572999 0.730000 -1.039002 0.183082 0.358248 0.915500 0 0
  phy
    0 11.650000 0.518999 -0.283000 0.134901 -0.665220 0.734360 0 0
    0 8.318999 0.256998 -0.012001 -0.089174 -0.913513 0.396915 0 0
    0 11.484997 -0.122002 -0.032000 0.095390 -0.963697 -0.249377 0 0
  phy
    0 11.484997 -0.122002 -0.032000 0.095390 -0.963697 -0.249377 0 0
    0 12.108001 -0.132001 -0.395001 0.928410 -0.371469 -0.008069 0 0
    0 11.650000 0.518999 -0.283000 0.134901 -0.665220 0.734360 0 0
  phy
    0 11.650000 0.518999 -0.283000 0.134901 -0.665220 0.734360 0 0
    0 11.572999 0.730000 -1.039002 0.183082 0.358248 0.915500 0 0
    0 8.318999 0.789999 -0.545001 -0.058932 -0.080220 0.995033 0 0
  phy
    0 8.318999 0.789999 -0.545001 -0.058932 -0.080220 0.995033 0 0
    0 8.318999 0.256998 -0.012001 -0.089174 -0.913513 0.396915 0 0
    0 11.650000 0.518999 -0.283000 0.134901 -0.665220 0.734360 0 0
  phy
    0 11.650000 0.518999 -0.283000 0.134901 -0.665220 0.734360 0 0
    0 12.108001 -0.132001 -0.395001 0.928410 -0.371469 -0.008069 0 0
    0 11.572999 0.730000 -1.039002 0.183082 0.358248 0.915500 0 0
end
