// Created by Crowbar 0.74
version 1
nodes
  0 "tag_barrel_attach" -1
  1 "j_barrel" 0
  2 "tag_flash_attachment" 1
  3 "tag_silencer" 1
  4 "j_slide" 0
  5 "tag_reflex" 4
end
skeleton
  time 0
    0 0.000000 0.000000 0.000000 0.000000 0.000000 -1.570796
    1 -1.911996 0.003000 0.277999 0.000000 0.000000 0.000000
    2 1.946996 -0.003000 -0.277999 0.000000 0.000000 0.000000
    3 1.946996 -0.003000 -0.281999 0.000000 0.000000 0.000000
    4 -3.829992 0.003000 0.015000 0.000000 0.000000 0.000000
    5 -2.940994 -0.003000 0.380999 0.000000 0.000000 0.000000
end
