// Created by Crowbar 0.74
version 1
nodes
  0 "tag_origin" -1
  1 "tag_sync" 0
  2 "tag_view" 0
  3 "tag_ads" 2
  4 "tag_torso" 3
  5 "j_mainroot" 4
  6 "j_hip_le" 5
  7 "j_hiptwist_le" 6
  8 "j_knee_le" 6
  9 "j_ankle_le" 8
  10 "j_ball_le" 9
  11 "j_kneedq_le" 8
  12 "j_hip_proc_le" 6
  13 "j_hip_ri" 5
  14 "j_hiptwist_ri" 13
  15 "tag_stowed_thigh" 14
  16 "j_knee_ri" 13
  17 "j_ankle_ri" 16
  18 "j_ball_ri" 17
  19 "j_kneedq_ri" 16
  20 "j_hip_proc_ri" 13
  21 "j_spinelower" 5
  22 "j_spineupper" 21
  23 "j_spine4" 22
  24 "j_chest" 23
  25 "j_clavicle_le" 23
  26 "j_shoulder_le" 25
  27 "j_shouldertwist_le" 26
  28 "j_elbow_le" 26
  29 "j_wristfronttwist1_le" 28
  30 "j_proc_wristfronttwist1_le" 29
  31 "tag_wrist_attach_le" 30
  32 "j_wrist_le" 28
  33 "tag_weapon_left" 32
  34 "tag_accessory_left" 32
  35 "j_metaindex_le_1" 32
  36 "j_index_le_1" 35
  37 "j_index_le_2" 36
  38 "j_index_le_3" 37
  39 "j_index_le_4" 38
  40 "j_indexbulge_le_1" 36
  41 "j_proc_index_le_1" 36
  42 "j_metamid_le_1" 32
  43 "j_mid_le_1" 42
  44 "j_mid_le_2" 43
  45 "j_mid_le_3" 44
  46 "j_proc_mid_le_1" 43
  47 "j_metapinky_le_1" 32
  48 "j_pinky_le_1" 47
  49 "j_pinky_le_2" 48
  50 "j_pinky_le_3" 49
  51 "j_proc_pinky_le_1" 48
  52 "j_webbing_le_3" 47
  53 "j_metaring_le_1" 32
  54 "j_ring_le_1" 53
  55 "j_ring_le_2" 54
  56 "j_ring_le_3" 55
  57 "j_proc_ring_le_1" 54
  58 "j_thumb_le_1" 32
  59 "j_thumb_le_2" 58
  60 "j_thumb_le_3" 59
  61 "j_thumb_le_4" 60
  62 "j_webbing_le_2" 58
  63 "j_webbing_le_1" 32
  64 "j_proc_metaindex_le_1" 32
  65 "j_proc_metaindex_le_2" 64
  66 "j_proc_metaknuckle_le_1" 32
  67 "j_proc_knuckle_le_1" 66
  68 "j_proc_idle_knuckle_le_1" 66
  69 "j_proc_orient_knuckle_le_1" 66
  70 "j_proc_metapinky_le_1" 32
  71 "j_proc_metapinky_le_2" 70
  72 "j_shield_le" 28
  73 "j_elbowdq_le" 28
  74 "j_clavicle_ri" 23
  75 "j_shoulder_ri" 74
  76 "j_shouldertwist_ri" 75
  77 "j_elbow_ri" 75
  78 "j_shield_ri" 77
  79 "j_wrist_ri" 77
  80 "j_gun" 79
  81 "tag_weapon_right" 79
  82 "tag_accessory_right" 79
  83 "j_metaindex_ri_1" 79
  84 "j_index_ri_1" 83
  85 "j_index_ri_2" 84
  86 "j_index_ri_3" 85
  87 "j_index_ri_4" 86
  88 "j_indexbulge_ri_1" 84
  89 "j_proc_index_ri_1" 84
  90 "j_metamid_ri_1" 79
  91 "j_mid_ri_1" 90
  92 "j_mid_ri_2" 91
  93 "j_mid_ri_3" 92
  94 "j_proc_mid_ri_1" 91
  95 "j_metapinky_ri_1" 79
  96 "j_pinky_ri_1" 95
  97 "j_pinky_ri_2" 96
  98 "j_pinky_ri_3" 97
  99 "j_proc_pinky_ri_1" 96
  100 "j_webbing_ri_3" 95
  101 "j_metaring_ri_1" 79
  102 "j_ring_ri_1" 101
  103 "j_ring_ri_2" 102
  104 "j_ring_ri_3" 103
  105 "j_proc_ring_ri_1" 102
  106 "j_thumb_ri_1" 79
  107 "j_thumb_ri_2" 106
  108 "j_thumb_ri_3" 107
  109 "j_thumb_ri_4" 108
  110 "j_webbing_ri_2" 106
  111 "j_webbing_ri_1" 79
  112 "tag_knife_attach2" 79
  113 "j_proc_metaindex_ri_1" 79
  114 "j_proc_metaindex_ri_2" 113
  115 "j_proc_metaknuckle_ri_1" 79
  116 "j_proc_knuckle_ri_1" 115
  117 "j_proc_idle_knuckle_ri_1" 115
  118 "j_proc_orient_knuckle_ri_1" 115
  119 "j_proc_metapinky_ri_1" 79
  120 "j_proc_metapinky_ri_2" 119
  121 "j_wristfronttwist1_ri" 77
  122 "j_elbowdq_ri" 77
  123 "j_neck" 23
  124 "j_head" 123
  125 "j_head_end" 124
  126 "j_helmet" 125
  127 "j_visor" 126
  128 "j_visor_inner" 126
  129 "j_nvg" 124
  130 "j_eyeball_le" 124
  131 "j_eyeball_ri" 124
  132 "j_jaw" 124
  133 "tag_carry_attach" 23
  134 "j_proc_spineupper" 22
  135 "j_proc_spinelower" 21
  136 "j_groinprotector" 5
  137 "j_crotch" 5
  138 "tag_weapon" 4
  139 "tag_cambone" 2
  140 "tag_camera" 139
  141 "tag_player" 140
  142 "tag_playerhelmet" 140
  143 "tag_camera_scripted" 0
end
skeleton
  time 0
    0 0.000000 0.000000 0.000000 0.000000 0.000000 -1.570796
    1 0.000000 0.000000 0.000000 0.000000 0.000000 0.000000
    2 -0.106000 0.000000 64.320000 0.000000 0.000000 0.000000
    3 0.000000 0.000000 0.000000 0.000000 0.000000 0.000000
    4 -0.904000 0.000000 -11.806000 0.000000 0.000000 0.000000
    5 0.000000 0.000000 -14.313999 0.000000 -1.570796 1.570857
    6 -0.000004 0.000000 -4.867001 -3.141536 0.008733 -3.128659
    7 1.000084 -0.000035 -0.000006 -0.000001 0.000000 0.000000
    8 17.162518 -0.000502 -0.000089 -0.000002 0.000007 0.119202
    9 17.749378 0.295627 0.000032 0.000003 0.000000 -1.158948
    10 5.413525 0.000327 -0.000001 0.000000 0.000000 -0.518063
    11 0.017891 0.299792 0.000001 0.000002 -0.000002 -0.059575
    12 9.999889 -0.000360 -0.000052 -0.000001 0.000008 -0.000008
    13 -0.000004 0.000000 4.867001 -3.141536 0.008733 -3.128659
    14 1.000088 -0.000035 -0.000005 -0.000001 0.000000 0.000000
    15 12.283571 1.581383 -4.696066 1.462269 -0.086723 0.090179
    16 17.162525 -0.000502 -0.000089 -0.000002 0.000007 0.119202
    17 17.749376 0.295627 0.000031 0.000003 0.000000 -1.158948
    18 5.413524 0.000324 -0.000002 0.000000 0.000000 -0.518063
    19 0.017891 0.299792 0.000000 0.000002 -0.000002 -0.059575
    20 9.499840 0.000157 -0.000048 -0.000001 0.000008 -0.000004
    21 3.532997 -0.000001 0.000000 0.000000 0.000000 0.000000
    22 6.250000 -0.000002 0.000000 0.000000 0.000000 0.000000
    23 4.530998 -0.000001 0.000000 0.000000 0.000000 0.000000
    24 0.000000 0.000000 0.000000 0.000000 0.000000 0.000000
    25 5.036999 -0.021001 -1.943001 -1.156915 1.547415 -1.156995
    26 5.784617 -0.000035 0.000267 -0.074832 0.826787 -0.247854
    27 0.500229 0.000134 -0.000053 0.000003 0.000000 -0.000003
    28 11.530249 -0.000292 0.000206 0.000006 -0.000001 -0.819717
    29 10.600057 -0.000378 -0.000660 0.000000 0.000000 -0.000004
    30 -1.145529 0.000132 0.000683 0.000000 0.000000 0.000002
    31 -0.857690 0.104078 0.104691 0.023540 0.163924 0.013631
    32 11.041277 -0.000389 -0.000679 0.000000 0.000001 0.000000
    33 -18.909931 -8.427563 0.000519 0.812868 -0.123452 -0.568489
    34 -9.580913 -27.862209 -37.184574 0.812846 -0.123467 -0.568474
    35 0.610300 -0.939541 0.070286 -1.655302 -0.140060 -0.175594
    36 2.619614 0.000149 0.000406 0.201606 -0.020144 0.350098
    37 1.867866 -0.000065 -0.000531 0.000009 0.000015 0.463054
    38 0.920006 -0.000298 -0.000404 -0.000010 0.000005 0.632320
    39 0.599495 0.400702 0.000242 0.000000 0.000000 0.000000
    40 1.200456 0.398911 -0.000748 -0.009458 0.016100 0.007121
    41 0.000113 0.099682 -0.000886 -0.120033 -0.021920 -0.209621
    42 0.639947 -0.199156 0.060173 -1.665963 -0.131389 -0.066411
    43 2.659571 0.000111 -0.000841 0.027388 -0.033320 0.477850
    44 2.008785 -0.000095 -0.000246 0.000006 -0.000002 0.978401
    45 1.099689 -0.000430 0.000120 0.000010 0.000008 0.463690
    46 0.000217 0.098995 0.000210 -0.018831 0.010839 -0.239219
    47 0.600185 1.080257 -0.339489 -1.738107 0.020764 0.107409
    48 2.199737 0.000523 0.000134 -0.000005 0.000021 0.628158
    49 1.179325 0.000221 -0.000666 -0.000014 -0.000005 0.743198
    50 0.680126 -0.001230 0.000452 -0.000018 -0.000015 0.546283
    51 -0.000196 0.099623 -0.000027 0.000003 -0.000024 -0.314096
    52 0.599423 0.958694 -0.300690 -0.174554 -0.000006 0.000011
    53 0.609756 0.400162 -0.009403 -1.762270 -0.061630 0.042965
    54 2.560413 -0.000145 0.000027 0.002469 -0.050636 0.521455
    55 1.708748 0.000717 -0.000204 0.000009 0.000008 0.829233
    56 1.020004 -0.000793 -0.000210 -0.000008 -0.000007 0.566724
    57 0.000132 0.100433 0.000322 -0.010910 0.023151 -0.260850
    58 0.629725 -0.690050 -0.229774 0.087264 0.607387 -1.183292
    59 2.099438 0.000478 -0.000408 -0.242425 0.290018 0.541647
    60 1.290003 -0.000225 0.000595 0.000003 0.000000 0.367121
    61 0.599892 0.400182 -0.000034 0.000000 0.000000 0.000000
    62 0.999546 0.000376 -1.210190 0.000001 0.000000 0.000000
    63 2.299664 -2.499996 -0.599480 0.892007 0.221537 -0.527295
    64 0.649933 -0.548302 0.093651 -1.665920 -0.131394 -0.112063
    65 1.899123 0.000420 -0.000446 0.027392 -0.033301 0.477842
    66 0.657073 0.008392 0.040367 -1.665952 -0.131402 -0.000017
    67 1.799665 -0.000237 0.000227 0.027391 -0.033316 0.477847
    68 1.799665 -0.000237 0.000227 0.027391 -0.033316 0.477847
    69 1.799665 -0.000237 0.000227 0.027391 -0.033316 0.477847
    70 0.665774 0.747215 -0.029194 -1.665943 -0.131403 0.094969
    71 1.900310 -0.000145 -0.000513 0.027388 -0.033308 0.477843
    72 3.999437 -0.000549 -0.000340 0.000001 0.000000 -0.000002
    73 0.119204 -0.275763 -0.000145 0.000000 0.000002 0.409858
    74 5.037998 -0.021001 1.943000 1.156396 -1.547408 -1.156475
    75 5.784619 -0.000027 -0.000191 0.074837 -0.826797 -0.247857
    76 0.500221 0.000135 0.000061 0.000001 0.000000 0.000001
    77 11.529516 -0.000327 -0.000843 -0.000002 -0.000013 -0.819715
    78 3.999899 0.000015 0.000969 -0.000002 0.000002 -0.000002
    79 11.041276 -0.000397 0.000534 -0.000002 0.000005 -0.000008
    80 -18.909403 -8.427134 0.000290 2.328717 0.123468 -0.568473
    81 -18.909403 -8.427134 0.000290 2.328717 0.123468 -0.568473
    82 7.228281 7.928244 -3.925652 2.328717 0.123466 -0.568475
    83 0.610311 -0.939537 -0.070293 1.655305 0.140067 -0.175586
    84 2.619615 0.000137 -0.000406 -0.201606 0.020140 0.350096
    85 1.867866 -0.000061 0.000527 -0.000005 0.000005 0.463053
    86 0.919388 0.000412 0.000088 -0.000002 0.000001 0.632322
    87 0.600403 0.399640 -0.000466 0.000000 0.000016 -3.141592
    88 1.200060 0.399929 -0.000152 0.009457 -0.016085 0.007124
    89 0.000594 0.100346 0.000324 0.120029 0.021927 -0.209621
    90 0.639946 -0.199152 -0.060184 1.665965 0.131396 -0.066409
    91 2.659899 0.000774 0.000153 -0.027382 0.033311 0.477846
    92 2.008777 -0.000889 -0.000383 0.000001 0.000001 0.978405
    93 1.100357 0.000000 0.000465 -0.000002 0.000006 0.463687
    94 0.000223 0.098999 -0.000206 0.018822 -0.010833 -0.239219
    95 0.600177 1.080261 0.339474 1.738108 -0.020761 0.107422
    96 2.199738 0.000526 -0.000124 0.000003 -0.000001 0.628153
    97 1.180094 0.000378 0.000076 -0.000002 0.000000 0.743197
    98 0.679459 -0.000818 0.000181 0.000005 -0.000010 0.546288
    99 -0.000193 0.099623 0.000027 0.000003 -0.000001 -0.314096
    100 0.599964 0.959274 0.300076 0.174555 0.000000 0.000006
    101 0.610217 0.400732 0.010078 1.762274 0.061637 0.042970
    102 2.560411 -0.000156 -0.000032 -0.002470 0.050634 0.521453
    103 1.708748 0.000721 0.000200 -0.000003 0.000005 0.829230
    104 1.019806 -0.000022 -0.000397 0.000001 -0.000004 0.566725
    105 -0.000580 0.100140 0.000311 0.010908 -0.023132 -0.260849
    106 0.630196 -0.689476 0.230446 -0.087273 -0.607379 -1.183280
    107 2.099335 -0.000096 -0.000389 0.242421 -0.290023 0.541650
    108 1.290602 0.000356 -0.000042 -0.000004 -0.000016 0.367116
    109 0.599895 0.400183 0.000027 0.000000 -0.000014 -3.141592
    110 0.999437 -0.000203 1.209389 0.000000 0.000000 0.000000
    111 2.300147 -2.499416 0.600132 -0.892006 -0.221508 -0.527307
    112 2.762360 0.116945 1.523960 1.629483 0.064141 1.743802
    113 0.650396 -0.547731 -0.092979 1.665918 0.131404 -0.112060
    114 1.899437 -0.000320 -0.000156 -0.027387 0.033313 0.477843
    115 0.657072 0.008402 -0.040379 1.665950 0.131412 -0.000011
    116 1.799662 -0.000240 -0.000233 -0.027385 0.033311 0.477847
    117 1.799662 -0.000240 -0.000233 -0.027385 0.033311 0.477847
    118 1.799662 -0.000240 -0.000233 -0.027385 0.033311 0.477847
    119 0.665773 0.747219 0.029190 1.665946 0.131407 0.094978
    120 1.900726 0.000526 -0.000072 -0.027389 0.033314 0.477841
    121 10.600053 -0.000391 0.000515 -0.000002 0.000005 -0.000004
    122 0.119665 -0.275198 0.000820 0.000005 0.000004 0.409858
    123 8.823002 -0.000002 0.000000 0.000000 -0.000004 -0.294105
    124 3.116970 -0.000431 -0.000014 0.000001 0.000004 0.294105
    125 6.233002 -0.000002 0.000000 0.000000 0.000000 0.000000
    126 1.598000 0.000000 0.000000 0.000000 0.000000 0.000000
    127 -4.481010 -0.201999 0.000000 0.000000 0.000000 0.000000
    128 -5.517006 -0.290999 -0.001000 0.000000 0.000000 0.000000
    129 6.241997 -6.380003 0.000000 0.000000 0.000000 0.000000
    130 3.512001 -3.547000 -1.066000 0.000000 1.570796 0.000000
    131 3.456001 -3.517002 1.169000 0.000000 1.570796 0.000000
    132 -0.171997 -0.106000 -0.902000 1.570714 1.029173 -3.134550
    133 9.904995 -5.486003 -6.443001 1.570796 0.000000 3.141592
    134 -0.000004 0.000000 0.000000 0.000000 0.000000 0.000000
    135 0.000000 0.000000 0.000000 0.000000 0.000000 0.000000
    136 3.999989 -6.500003 0.000000 0.000000 0.000006 0.000982
    137 -6.500004 0.000001 0.000000 0.000000 1.570796 0.000000
    138 14.188001 0.000000 0.141998 0.000000 0.000000 0.000000
    139 0.000000 0.000000 0.000000 0.000000 0.000000 0.000000
    140 0.000000 0.000000 0.000000 0.000000 0.000000 0.000000
    141 0.106000 0.000000 -64.320000 0.000000 0.000000 0.000000
    142 0.000000 0.000000 0.000000 0.000000 0.000000 0.000000
    143 -0.106000 0.000000 64.320000 0.000000 0.000000 0.000000
end
