// Created by Crowbar 0.74
version 1
nodes
  0 "ValveBiped.Bip01_R_Hand" -1
  1 "tag_pistol_offset" 0
  2 "tag_reflex" 1
  3 "ValveBiped.Anim_Attachment_RH" -1
  4 "j_hammer" 1
  5 "tag_barrel_attach" 1
  6 "tag_brass" 1
  7 "tag_grip_hide" 1
  8 "tag_laser_attach" 1
  9 "tag_mag_attach" 1
  10 "tag_rail_attach" 1
  11 "tag_stock_attach" 1
  12 "j_trigger" 11
  13 "tag_trigger_hide" 12
  14 "j_magrel" 1
  15 "j_safety" 1
  16 "j_sliderelease" 1
end
skeleton
  time 0
    0 0.000000 0.000000 0.000000 0.000000 0.000000 -1.570796
    1 -0.193726 1.783203 0.142456 -1.570793 -1.570791 0.000000
    2 -0.600000 0.000000 1.600000 0.000000 0.000000 0.000000
    3 0.000000 0.000000 0.000000 0.000000 0.000000 -1.570796
    4 -1.142998 -0.001000 0.274000 0.000000 -0.000002 1.570755
    5 1.342997 -0.000002 1.043998 0.000000 0.000001 0.000000
    6 2.039996 -0.297001 1.310998 0.000000 0.000002 -1.570755
    7 -0.653999 0.000003 -1.549997 0.000003 0.000001 0.000000
    8 3.524992 0.000000 -0.140000 0.000000 0.000001 0.000000
    9 1.850996 0.000001 -0.471998 0.000000 0.000001 0.000000
    10 2.439994 -0.000001 0.838998 0.000000 0.000001 0.000000
    11 -0.898999 0.000002 -1.088997 0.000000 0.000000 -0.000006
    12 2.025996 -0.000990 0.681000 0.000000 -0.000002 1.570761
    13 0.000000 0.000000 0.000000 -0.000002 0.000000 -1.570755
    14 0.711998 0.440000 -0.805998 0.000000 -0.000001 1.570755
    15 -1.474997 0.000000 0.073000 0.000000 -0.000002 1.570755
    16 1.889996 0.409999 0.285000 1.570757 0.000000 0.000000
end
