// Created by Crowbar 0.74
version 1
nodes
  0 "tag_origin" -1
  1 "tag_sync" 0
  2 "tag_view" 0
  3 "tag_ads" 2
  4 "tag_torso" 3
  5 "j_mainroot" 4
  6 "j_hip_le" 5
  7 "j_hiptwist_le" 6
  8 "j_knee_le" 6
  9 "j_ankle_le" 8
  10 "j_ball_le" 9
  11 "j_kneedq_le" 8
  12 "j_hip_proc_le" 6
  13 "j_hip_ri" 5
  14 "j_hiptwist_ri" 13
  15 "tag_stowed_thigh" 14
  16 "j_knee_ri" 13
  17 "j_ankle_ri" 16
  18 "j_ball_ri" 17
  19 "j_kneedq_ri" 16
  20 "j_hip_proc_ri" 13
  21 "j_spinelower" 5
  22 "j_spineupper" 21
  23 "j_spine4" 22
  24 "j_chest" 23
  25 "j_clavicle_le" 23
  26 "j_shoulder_le" 25
  27 "j_shouldertwist_le" 26
  28 "j_elbow_le" 26
  29 "j_wristfronttwist1_le" 28
  30 "j_proc_wristfronttwist1_le" 29
  31 "tag_wrist_attach_le" 30
  32 "j_wrist_le" 28
  33 "tag_weapon_left" 32
  34 "tag_accessory_left" 32
  35 "j_metaindex_le_1" 32
  36 "j_index_le_1" 35
  37 "j_index_le_2" 36
  38 "j_index_le_3" 37
  39 "j_index_le_4" 38
  40 "j_indexbulge_le_1" 36
  41 "j_proc_index_le_1" 36
  42 "j_metamid_le_1" 32
  43 "j_mid_le_1" 42
  44 "j_mid_le_2" 43
  45 "j_mid_le_3" 44
  46 "j_proc_mid_le_1" 43
  47 "j_metapinky_le_1" 32
  48 "j_pinky_le_1" 47
  49 "j_pinky_le_2" 48
  50 "j_pinky_le_3" 49
  51 "j_proc_pinky_le_1" 48
  52 "j_webbing_le_3" 47
  53 "j_metaring_le_1" 32
  54 "j_ring_le_1" 53
  55 "j_ring_le_2" 54
  56 "j_ring_le_3" 55
  57 "j_proc_ring_le_1" 54
  58 "j_thumb_le_1" 32
  59 "j_thumb_le_2" 58
  60 "j_thumb_le_3" 59
  61 "j_thumb_le_4" 60
  62 "j_webbing_le_2" 58
  63 "j_webbing_le_1" 32
  64 "j_proc_knuckle_le_1" 32
  65 "j_proc_metaindex_le_1" 32
  66 "j_proc_metaindex_le_2" 65
  67 "j_proc_metaknuckle_le_1" 32
  68 "j_proc_idle_knuckle_le_1" 67
  69 "j_proc_orient_knuckle_le_1" 67
  70 "j_proc_metapinky_le_1" 32
  71 "j_proc_metapinky_le_2" 70
  72 "j_shield_le" 28
  73 "j_elbowdq_le" 28
  74 "j_teres_le" 25
  75 "j_clavicle_ri" 23
  76 "j_shoulder_ri" 75
  77 "j_shouldertwist_ri" 76
  78 "j_elbow_ri" 76
  79 "j_shield_ri" 78
  80 "j_wrist_ri" 78
  81 "j_gun" 80
  82 "tag_weapon_right" 80
  83 "tag_accessory_right" 80
  84 "j_metaindex_ri_1" 80
  85 "j_index_ri_1" 84
  86 "j_index_ri_2" 85
  87 "j_index_ri_3" 86
  88 "j_index_ri_4" 87
  89 "j_indexbulge_ri_1" 85
  90 "j_proc_index_ri_1" 85
  91 "j_metamid_ri_1" 80
  92 "j_mid_ri_1" 91
  93 "j_mid_ri_2" 92
  94 "j_mid_ri_3" 93
  95 "j_proc_mid_ri_1" 92
  96 "j_metapinky_ri_1" 80
  97 "j_pinky_ri_1" 96
  98 "j_pinky_ri_2" 97
  99 "j_pinky_ri_3" 98
  100 "j_proc_pinky_ri_1" 97
  101 "j_webbing_ri_3" 96
  102 "j_metaring_ri_1" 80
  103 "j_ring_ri_1" 102
  104 "j_ring_ri_2" 103
  105 "j_ring_ri_3" 104
  106 "j_proc_ring_ri_1" 103
  107 "j_thumb_ri_1" 80
  108 "j_thumb_ri_2" 107
  109 "j_thumb_ri_3" 108
  110 "j_thumb_ri_4" 109
  111 "j_webbing_ri_2" 107
  112 "j_webbing_ri_1" 80
  113 "tag_knife_attach2" 80
  114 "j_proc_knuckle_ri_1" 80
  115 "j_proc_metaindex_ri_1" 80
  116 "j_proc_metaindex_ri_2" 115
  117 "j_proc_metaknuckle_ri_1" 80
  118 "j_proc_idle_knuckle_ri_1" 117
  119 "j_proc_orient_knuckle_ri_1" 117
  120 "j_proc_metapinky_ri_1" 80
  121 "j_proc_metapinky_ri_2" 120
  122 "j_wristfronttwist1_ri" 78
  123 "j_elbowdq_ri" 78
  124 "j_teres_ri" 75
  125 "j_neck" 23
  126 "j_head" 125
  127 "j_head_end" 126
  128 "j_helmet" 127
  129 "j_visor" 128
  130 "j_visor_inner" 128
  131 "j_nvg" 126
  132 "j_eyeball_le" 126
  133 "j_eyeball_ri" 126
  134 "j_jaw" 126
  135 "j_proc_spine4" 23
  136 "tag_carry_attach" 135
  137 "j_proc_spineupper" 22
  138 "j_proc_spinelower" 21
  139 "j_groinprotector" 5
  140 "j_crotch" 5
  141 "tag_weapon" 4
  142 "tag_cambone" 2
  143 "tag_camera" 142
  144 "tag_player" 143
  145 "tag_playerhelmet" 143
  146 "tag_camera_scripted" 0
end
skeleton
  time 0
    0 0.000000 0.000000 0.000000 0.000000 0.000000 -1.570796
    1 0.000000 0.000000 0.000000 0.000000 0.000000 0.000000
    2 -0.106000 0.000000 64.320000 0.000000 0.000000 0.000000
    3 0.000000 0.000000 0.000000 0.000000 0.000000 0.000000
    4 -0.904000 0.000000 -11.806000 0.000000 0.000000 0.000000
    5 0.000000 0.000000 -14.313999 0.000000 -1.570796 1.570857
    6 0.000000 0.000000 -4.867001 -3.141536 0.008715 -3.128641
    7 1.000084 -0.000017 0.000013 0.000000 0.000000 -0.000001
    8 17.162535 -0.000194 0.000220 -0.000002 -0.000011 0.119245
    9 17.749380 0.295191 0.000035 0.000002 -0.000001 -1.158980
    10 5.413528 0.000366 0.000000 -0.000001 0.000000 -0.518052
    11 0.017889 0.299793 0.000000 0.000002 -0.000005 -0.059598
    12 9.999891 -0.000181 0.000127 0.000000 -0.000016 0.000012
    13 0.000000 0.000000 4.867001 -3.141536 0.008715 -3.128641
    14 1.000092 -0.000017 0.000012 0.000000 0.000000 -0.000001
    15 12.283621 1.581610 -4.695846 1.462268 -0.086735 0.090198
    16 17.162540 -0.000194 0.000218 -0.000002 -0.000011 0.119245
    17 17.749380 0.295190 0.000036 0.000002 -0.000001 -1.158979
    18 5.413527 0.000361 -0.000001 -0.000001 0.000000 -0.518053
    19 0.017889 0.299792 0.000000 0.000002 -0.000005 -0.059598
    20 9.499844 0.000328 0.000121 0.000000 -0.000016 0.000028
    21 3.533001 -0.000001 0.000000 0.000000 0.000000 0.000000
    22 6.250000 -0.000002 0.000000 0.000000 0.000000 0.000000
    23 4.531002 -0.000001 0.000000 0.000000 0.000000 0.000000
    24 0.000000 0.000000 0.000000 0.000000 0.000000 0.000000
    25 5.036999 -0.021001 -1.943001 -1.156971 1.547416 -1.157049
    26 5.784616 -0.000036 0.000275 -0.074806 0.826774 -0.247834
    27 0.500221 0.000129 -0.000057 0.000002 0.000000 -0.000002
    28 11.530247 -0.000421 0.000061 -0.000008 -0.000001 -0.819729
    29 10.600061 -0.000372 -0.000660 0.000000 0.000001 -0.000004
    30 5.651674 19.507771 -44.898491 0.812899 -0.123369 -0.568546
    31 -0.244615 0.021804 0.107395 0.023394 0.097197 0.012075
    32 11.041281 -0.000389 -0.000675 -0.000001 0.000001 -0.000004
    33 -18.909893 -8.427635 0.000526 0.812867 -0.123463 -0.568474
    34 -9.580784 -27.862274 -37.184555 0.812853 -0.123462 -0.568475
    35 0.610309 -0.939529 0.070290 -1.655311 -0.140055 -0.175586
    36 2.619615 0.000134 0.000397 0.201617 -0.020124 0.350089
    37 1.867865 -0.000046 -0.000502 -0.000007 -0.000008 0.463065
    38 0.920012 -0.000294 -0.000411 -0.000008 -0.000007 0.632326
    39 0.599503 0.400699 0.000232 0.000000 0.000000 0.000000
    40 1.200450 0.398918 -0.000729 -0.009468 0.016061 0.007138
    41 0.000111 0.099686 -0.000889 -0.120043 -0.021934 -0.209613
    42 0.639947 -0.199152 0.060181 -1.665968 -0.131394 -0.066420
    43 2.659568 0.000114 -0.000803 0.027385 -0.033346 0.477857
    44 2.008792 -0.000107 -0.000267 0.000021 0.000018 0.978389
    45 1.099678 -0.000419 0.000139 0.000005 0.000007 0.463692
    46 0.000225 0.098991 0.000210 -0.018827 0.010858 -0.239227
    47 0.600177 1.080265 -0.339481 -1.738111 0.020767 0.107413
    48 2.199737 0.000515 0.000128 0.000001 0.000011 0.628159
    49 1.179323 0.000221 -0.000677 -0.000016 -0.000014 0.743203
    50 0.680134 -0.001232 0.000439 0.000005 0.000005 0.546273
    51 -0.000195 0.099625 -0.000029 0.000000 -0.000028 -0.314098
    52 0.599433 0.958698 -0.300690 -0.174553 -0.000008 0.000012
    53 0.609756 0.400169 -0.009396 -1.762278 -0.061628 0.042965
    54 2.560414 -0.000168 0.000032 0.002482 -0.050631 0.521448
    55 1.708748 0.000729 -0.000187 -0.000007 0.000003 0.829237
    56 1.020000 -0.000793 -0.000206 -0.000005 -0.000006 0.566723
    57 0.000130 0.100445 0.000319 -0.010908 0.023152 -0.260854
    58 0.629727 -0.690044 -0.229763 0.087260 0.607383 -1.183286
    59 2.099438 0.000475 -0.000420 -0.242425 0.290017 0.541645
    60 1.290001 -0.000224 0.000595 0.000011 -0.000001 0.367122
    61 0.599888 0.400182 -0.000034 0.000000 0.000000 0.000000
    62 0.999544 0.000380 -1.210197 0.000000 0.000000 0.000000
    63 2.299671 -2.499985 -0.599468 0.891990 0.221536 -0.527293
    64 2.441182 0.008648 0.276375 -1.631656 0.347414 -0.011165
    65 6.507309 18.151739 -45.009392 -0.838286 -0.131073 -0.742268
    66 1.899125 0.000427 -0.000434 0.027387 -0.033311 0.477847
    67 6.702020 18.527365 -44.643608 -0.836681 -0.212982 -0.666083
    68 1.799667 -0.000217 0.000236 0.027388 -0.033312 0.477859
    69 1.799667 -0.000217 0.000236 0.027388 -0.033312 0.477859
    70 6.959244 19.025633 -44.157463 -0.840341 -0.282330 -0.600356
    71 1.900314 -0.000131 -0.000512 0.027387 -0.033312 0.477852
    72 3.999440 -0.000544 -0.000340 -0.000001 0.000001 -0.000002
    73 0.119207 -0.275759 -0.000137 -0.000005 0.000005 0.409856
    74 5.999828 -0.000379 -3.999950 0.000002 -0.000002 -0.000002
    75 5.037998 -0.021001 1.943000 1.156335 -1.547408 -1.156413
    76 5.784618 -0.000027 -0.000179 0.074814 -0.826818 -0.247846
    77 0.500225 0.000131 0.000057 0.000004 0.000000 0.000004
    78 11.529520 -0.000419 -0.001060 -0.000004 0.000008 -0.819721
    79 3.999903 0.000017 0.000965 -0.000004 0.000008 -0.000006
    80 11.041283 -0.000418 0.000519 -0.000004 0.000008 -0.000008
    81 -18.909428 -8.427099 0.000259 2.328716 0.123469 -0.568472
    82 -18.909428 -8.427099 0.000259 2.328716 0.123469 -0.568472
    83 7.228305 7.928228 -3.925648 2.328721 0.123468 -0.568474
    84 0.610309 -0.939537 -0.070297 1.655296 0.140068 -0.175588
    85 2.619617 0.000149 -0.000404 -0.201608 0.020138 0.350093
    86 1.867866 -0.000050 0.000530 0.000008 -0.000005 0.463063
    87 0.919382 0.000404 0.000090 0.000003 -0.000001 0.632327
    88 0.600395 0.399632 -0.000470 0.000000 -0.000007 -3.141592
    89 1.200060 0.399944 -0.000148 0.009476 -0.016090 0.007134
    90 0.000596 0.100349 0.000324 0.120048 0.021924 -0.209608
    91 0.639943 -0.199154 -0.060184 1.665964 0.131397 -0.066410
    92 2.659901 0.000778 0.000164 -0.027380 0.033309 0.477852
    93 2.008772 -0.000893 -0.000389 -0.000003 0.000008 0.978392
    94 1.100353 0.000012 0.000467 0.000009 -0.000011 0.463701
    95 0.000219 0.098995 -0.000208 0.018813 -0.010833 -0.239224
    96 0.600178 1.080261 0.339474 1.738109 -0.020762 0.107421
    97 2.199737 0.000526 -0.000120 0.000001 -0.000001 0.628156
    98 1.180098 0.000376 0.000076 0.000006 -0.000007 0.743202
    99 0.679455 -0.000820 0.000172 -0.000003 0.000004 0.546279
    100 -0.000193 0.099627 0.000029 0.000003 -0.000001 -0.314097
    101 0.599958 0.959270 0.300079 0.174558 0.000000 0.000009
    102 0.610215 0.400728 0.010078 1.762281 0.061632 0.042969
    103 2.560414 -0.000164 -0.000029 -0.002482 0.050638 0.521447
    104 1.708752 0.000729 0.000200 0.000000 0.000000 0.829233
    105 1.019806 -0.000023 -0.000397 0.000002 -0.000005 0.566726
    106 -0.000580 0.100147 0.000311 0.010920 -0.023132 -0.260843
    107 0.630194 -0.689478 0.230450 -0.087270 -0.607390 -1.183278
    108 2.099339 -0.000103 -0.000408 0.242431 -0.290007 0.541638
    109 1.290607 0.000372 -0.000046 -0.000010 -0.000028 0.367128
    110 0.599894 0.400180 0.000019 0.000000 -0.000027 3.141593
    111 0.999453 -0.000196 1.209385 0.000000 0.000000 0.000000
    112 2.300143 -2.499420 0.600140 -0.892011 -0.221592 -0.527212
    113 2.762361 0.116943 1.523964 1.629484 0.064149 1.743800
    114 2.441185 0.008648 -0.276382 1.631660 -0.347406 -0.011166
    115 6.918246 18.946123 44.347847 -2.260795 0.112080 -0.395146
    116 1.899439 -0.000313 -0.000155 -0.027380 0.033308 0.477853
    117 6.735638 18.563826 44.711983 -2.281095 0.032715 -0.473091
    118 1.799664 -0.000238 -0.000235 -0.027389 0.033313 0.477853
    119 1.799664 -0.000238 -0.000235 -0.027389 0.033313 0.477853
    120 6.493041 18.056202 45.195969 -2.293472 -0.035616 -0.537900
    121 1.900730 0.000547 -0.000075 -0.027384 0.033310 0.477846
    122 10.600063 -0.000404 0.000500 -0.000005 0.000014 -0.000008
    123 0.119667 -0.275192 0.000824 0.000005 0.000014 0.409852
    124 5.999763 -0.000369 4.000053 -0.000002 -0.000002 0.000000
    125 8.823002 -0.000002 0.000000 0.000000 -0.000013 -0.294114
    126 3.116974 -0.000404 -0.000040 0.000004 0.000012 0.294114
    127 6.233009 -0.000002 0.000000 0.000000 0.000000 0.000000
    128 1.598007 -0.000001 0.000000 0.000000 0.000000 0.000000
    129 -4.481003 -0.201999 0.000000 0.000000 0.000000 0.000000
    130 -5.516998 -0.290998 -0.001000 0.000000 0.000000 0.000000
    131 6.242004 -6.380003 0.000000 0.000000 0.000000 0.000000
    132 3.512009 -3.547002 -1.066000 0.000000 1.570796 0.000000
    133 3.456009 -3.517003 1.169000 0.000000 1.570796 0.000000
    134 -0.171989 -0.106000 -0.902000 1.570713 1.029179 -3.134551
    135 0.000000 0.000000 0.000000 0.000000 0.000000 0.000000
    136 9.904995 -5.486003 -6.443003 1.570796 0.000000 3.141592
    137 -47.983006 -1.010002 0.000063 -1.570796 -0.000061 -1.570796
    138 0.000000 0.000000 0.000000 0.000000 0.000000 0.000000
    139 3.999992 -6.500003 0.000000 0.000000 0.000014 0.000990
    140 -6.500000 0.000001 0.000000 0.000000 1.570796 0.000000
    141 14.188001 0.000000 0.141998 0.000000 0.000000 0.000000
    142 0.000000 0.000000 0.000000 0.000000 0.000000 0.000000
    143 0.000000 0.000000 0.000000 0.000000 0.000000 0.000000
    144 0.106000 0.000000 -64.320000 0.000000 0.000000 0.000000
    145 0.000000 0.000000 0.000000 0.000000 0.000000 0.000000
    146 -0.106000 0.000000 64.320000 0.000000 0.000000 0.000000
end
