// Created by Crowbar 0.74
version 1
nodes
  0 "tag_origin" -1
  1 "tag_sync" 0
  2 "tag_view" 0
  3 "tag_ads" 2
  4 "tag_torso" 3
  5 "j_mainroot" 4
  6 "j_hip_le" 5
  7 "j_hiptwist_le" 6
  8 "j_knee_le" 6
  9 "j_ankle_le" 8
  10 "j_ball_le" 9
  11 "j_kneedq_le" 8
  12 "j_hip_proc_le" 6
  13 "j_hip_ri" 5
  14 "j_hiptwist_ri" 13
  15 "tag_stowed_thigh" 14
  16 "j_knee_ri" 13
  17 "j_ankle_ri" 16
  18 "j_ball_ri" 17
  19 "j_kneedq_ri" 16
  20 "j_hip_proc_ri" 13
  21 "j_spinelower" 5
  22 "j_spineupper" 21
  23 "j_spine4" 22
  24 "j_chest" 23
  25 "j_clavicle_le" 23
  26 "j_shoulder_le" 25
  27 "j_shouldertwist_le" 26
  28 "j_elbow_le" 26
  29 "j_wristfronttwist1_le" 28
  30 "j_proc_wristfronttwist1_le" 29
  31 "tag_wrist_attach_le" 30
  32 "j_wrist_le" 28
  33 "tag_weapon_left" 32
  34 "tag_accessory_left" 32
  35 "j_metaindex_le_1" 32
  36 "j_index_le_1" 35
  37 "j_index_le_2" 36
  38 "j_index_le_3" 37
  39 "j_index_le_4" 38
  40 "j_indexbulge_le_1" 36
  41 "j_proc_index_le_1" 36
  42 "j_metamid_le_1" 32
  43 "j_mid_le_1" 42
  44 "j_mid_le_2" 43
  45 "j_mid_le_3" 44
  46 "j_proc_mid_le_1" 43
  47 "j_metapinky_le_1" 32
  48 "j_pinky_le_1" 47
  49 "j_pinky_le_2" 48
  50 "j_pinky_le_3" 49
  51 "j_proc_pinky_le_1" 48
  52 "j_webbing_le_3" 47
  53 "j_metaring_le_1" 32
  54 "j_ring_le_1" 53
  55 "j_ring_le_2" 54
  56 "j_ring_le_3" 55
  57 "j_proc_ring_le_1" 54
  58 "j_thumb_le_1" 32
  59 "j_thumb_le_2" 58
  60 "j_thumb_le_3" 59
  61 "j_thumb_le_4" 60
  62 "j_webbing_le_2" 58
  63 "j_webbing_le_1" 32
  64 "j_proc_metaindex_le_1" 32
  65 "j_proc_metaindex_le_2" 64
  66 "j_proc_metaknuckle_le_1" 32
  67 "j_proc_knuckle_le_1" 66
  68 "j_proc_idle_knuckle_le_1" 66
  69 "j_proc_orient_knuckle_le_1" 66
  70 "j_proc_metapinky_le_1" 32
  71 "j_proc_metapinky_le_2" 70
  72 "j_shield_le" 28
  73 "j_elbowdq_le" 28
  74 "j_clavicle_ri" 23
  75 "j_shoulder_ri" 74
  76 "j_shouldertwist_ri" 75
  77 "j_elbow_ri" 75
  78 "j_shield_ri" 77
  79 "j_wrist_ri" 77
  80 "j_gun" 79
  81 "tag_weapon_right" 79
  82 "tag_accessory_right" 79
  83 "j_metaindex_ri_1" 79
  84 "j_index_ri_1" 83
  85 "j_index_ri_2" 84
  86 "j_index_ri_3" 85
  87 "j_index_ri_4" 86
  88 "j_indexbulge_ri_1" 84
  89 "j_proc_index_ri_1" 84
  90 "j_metamid_ri_1" 79
  91 "j_mid_ri_1" 90
  92 "j_mid_ri_2" 91
  93 "j_mid_ri_3" 92
  94 "j_proc_mid_ri_1" 91
  95 "j_metapinky_ri_1" 79
  96 "j_pinky_ri_1" 95
  97 "j_pinky_ri_2" 96
  98 "j_pinky_ri_3" 97
  99 "j_proc_pinky_ri_1" 96
  100 "j_webbing_ri_3" 95
  101 "j_metaring_ri_1" 79
  102 "j_ring_ri_1" 101
  103 "j_ring_ri_2" 102
  104 "j_ring_ri_3" 103
  105 "j_proc_ring_ri_1" 102
  106 "j_thumb_ri_1" 79
  107 "j_thumb_ri_2" 106
  108 "j_thumb_ri_3" 107
  109 "j_thumb_ri_4" 108
  110 "j_webbing_ri_2" 106
  111 "j_webbing_ri_1" 79
  112 "tag_knife_attach2" 79
  113 "j_proc_metaindex_ri_1" 79
  114 "j_proc_metaindex_ri_2" 113
  115 "j_proc_metaknuckle_ri_1" 79
  116 "j_proc_knuckle_ri_1" 115
  117 "j_proc_idle_knuckle_ri_1" 115
  118 "j_proc_orient_knuckle_ri_1" 115
  119 "j_proc_metapinky_ri_1" 79
  120 "j_proc_metapinky_ri_2" 119
  121 "j_wristfronttwist1_ri" 77
  122 "j_elbowdq_ri" 77
  123 "j_neck" 23
  124 "j_head" 123
  125 "j_head_end" 124
  126 "j_helmet" 125
  127 "j_visor" 126
  128 "j_visor_inner" 126
  129 "j_nvg" 124
  130 "j_eyeball_le" 124
  131 "j_eyeball_ri" 124
  132 "j_jaw" 124
  133 "tag_carry_attach" 23
  134 "j_proc_spineupper" 22
  135 "j_proc_spinelower" 21
  136 "j_groinprotector" 5
  137 "j_crotch" 5
  138 "tag_weapon" 4
  139 "tag_cambone" 2
  140 "tag_camera" 139
  141 "tag_player" 140
  142 "tag_playerhelmet" 140
  143 "tag_camera_scripted" 0
end
skeleton
  time 0
    0 0.000000 0.000000 0.000000 0.000000 0.000000 -1.570796
    1 0.000000 0.000000 0.000000 0.000000 0.000000 0.000000
    2 -0.106000 0.000000 64.320000 0.000000 0.000000 0.000000
    3 0.000000 0.000000 0.000000 0.000000 0.000000 0.000000
    4 -0.904000 0.000000 -11.806000 0.000000 0.000000 0.000000
    5 0.000000 0.000000 -14.313999 0.000000 -1.570796 1.570857
    6 0.000004 0.000000 -4.867001 -3.141536 0.008734 -3.128659
    7 1.000088 -0.000035 -0.000006 -0.000001 0.000000 0.000000
    8 17.162523 -0.000501 -0.000092 -0.000002 0.000007 0.119210
    9 17.749374 0.295484 0.000032 0.000003 0.000000 -1.158962
    10 5.413527 0.000361 0.000000 0.000000 -0.000001 -0.518053
    11 0.017893 0.299792 0.000001 0.000000 -0.000002 -0.059583
    12 9.999886 -0.000360 -0.000053 -0.000001 0.000008 -0.000008
    13 -0.000004 0.000000 4.867001 -3.141536 0.008734 -3.128659
    14 1.000092 -0.000035 -0.000005 -0.000001 0.000000 0.000000
    15 12.283562 1.581383 -4.696069 1.462268 -0.086727 0.090180
    16 17.162527 -0.000501 -0.000091 -0.000002 0.000007 0.119210
    17 17.749374 0.295484 0.000031 0.000003 0.000000 -1.158961
    18 5.413526 0.000355 0.000000 0.000000 0.000000 -0.518057
    19 0.017895 0.299792 0.000000 0.000000 -0.000002 -0.059583
    20 9.499840 0.000158 -0.000050 -0.000001 0.000008 -0.000004
    21 3.533001 0.000000 0.000000 0.000000 0.000000 0.000000
    22 6.249996 0.000001 0.000000 0.000000 0.000000 0.000000
    23 4.530998 0.000001 0.000000 0.000000 0.000000 0.000000
    24 0.000000 0.000000 0.000000 0.000000 0.000000 0.000000
    25 5.036999 -0.020999 -1.943001 -1.156924 1.547415 -1.157004
    26 5.784618 -0.000032 0.000271 -0.074832 0.826786 -0.247855
    27 0.500225 0.000135 -0.000061 0.000001 0.000000 -0.000001
    28 11.530245 -0.000278 0.000202 0.000006 -0.000002 -0.819718
    29 10.600058 -0.000368 -0.000660 -0.000001 0.000000 0.000000
    30 -1.145525 0.000132 0.000679 0.000000 0.000000 0.000000
    31 -0.857694 0.104074 0.104694 0.023540 0.163924 0.013631
    32 11.041279 -0.000376 -0.000671 0.000001 0.000000 0.000000
    33 -18.909910 -8.427591 0.000542 0.812869 -0.123463 -0.568477
    34 -9.580861 -27.862328 -37.184494 0.812850 -0.123465 -0.568475
    35 0.610304 -0.939545 0.070286 -1.655305 -0.140060 -0.175591
    36 2.619613 0.000141 0.000401 0.201606 -0.020144 0.350098
    37 1.867863 -0.000076 -0.000534 0.000010 0.000014 0.463053
    38 0.920006 -0.000298 -0.000411 -0.000009 0.000006 0.632321
    39 0.599503 0.400702 0.000239 0.000000 0.000000 0.000000
    40 1.200456 0.398907 -0.000751 -0.009458 0.016100 0.007120
    41 0.000109 0.099682 -0.000891 -0.120033 -0.021920 -0.209621
    42 0.639945 -0.199160 0.060177 -1.665965 -0.131389 -0.066409
    43 2.659567 0.000099 -0.000843 0.027386 -0.033310 0.477847
    44 2.008786 -0.000092 -0.000231 -0.000001 -0.000009 0.978404
    45 1.099686 -0.000427 0.000126 0.000009 0.000008 0.463690
    46 0.000217 0.098999 0.000206 -0.018826 0.010830 -0.239216
    47 0.600182 1.080254 -0.339485 -1.738123 0.020776 0.107413
    48 2.199740 0.000507 0.000126 0.000009 0.000017 0.628147
    49 1.179327 0.000223 -0.000668 -0.000017 -0.000008 0.743197
    50 0.680138 -0.001225 0.000446 -0.000011 -0.000011 0.546283
    51 -0.000195 0.099623 -0.000031 0.000003 -0.000025 -0.314097
    52 0.599440 0.958698 -0.300678 -0.174541 -0.000003 -0.000001
    53 0.609756 0.400158 -0.009407 -1.762273 -0.061630 0.042968
    54 2.560412 -0.000149 0.000027 0.002469 -0.050635 0.521455
    55 1.708752 0.000713 -0.000206 0.000009 0.000007 0.829233
    56 1.020000 -0.000793 -0.000212 -0.000008 -0.000007 0.566724
    57 0.000135 0.100430 0.000322 -0.010910 0.023150 -0.260850
    58 0.629725 -0.690052 -0.229774 0.087263 0.607385 -1.183291
    59 2.099441 0.000482 -0.000416 -0.242425 0.290019 0.541649
    60 1.290001 -0.000230 0.000595 0.000002 0.000000 0.367119
    61 0.599890 0.400181 -0.000031 -0.000010 0.000002 -0.000013
    62 0.999547 0.000378 -1.210201 0.000000 0.000000 0.000000
    63 2.299668 -2.499996 -0.599476 0.892005 0.221533 -0.527292
    64 0.649933 -0.548302 0.093651 -1.665922 -0.131394 -0.112060
    65 1.899121 0.000420 -0.000444 0.027391 -0.033300 0.477843
    66 0.657072 0.008394 0.040367 -1.665954 -0.131402 -0.000015
    67 1.799664 -0.000248 0.000229 0.027391 -0.033315 0.477846
    68 1.799664 -0.000248 0.000229 0.027391 -0.033315 0.477846
    69 1.799664 -0.000248 0.000229 0.027391 -0.033315 0.477846
    70 0.665775 0.747211 -0.029194 -1.665946 -0.131402 0.094972
    71 1.900311 -0.000149 -0.000513 0.027388 -0.033308 0.477844
    72 3.999436 -0.000544 -0.000343 0.000000 0.000000 -0.000001
    73 0.119204 -0.275764 -0.000149 -0.000001 0.000002 0.409860
    74 5.037998 -0.020999 1.943000 1.156391 -1.547409 -1.156471
    75 5.784617 -0.000029 -0.000195 0.074837 -0.826797 -0.247856
    76 0.500225 0.000134 0.000069 0.000000 0.000000 -0.000001
    77 11.529512 -0.000346 -0.000839 -0.000004 -0.000010 -0.819719
    78 3.999897 0.000027 0.000988 -0.000001 -0.000002 0.000000
    79 11.041273 -0.000383 0.000580 -0.000001 0.000002 0.000004
    80 -18.909479 -8.426928 0.000271 2.328717 0.123468 -0.568483
    81 -18.909479 -8.426928 0.000271 2.328717 0.123468 -0.568483
    82 7.228364 7.928167 -3.925648 2.328718 0.123468 -0.568483
    83 0.610299 -0.939539 -0.070297 1.655305 0.140066 -0.175597
    84 2.619614 0.000137 -0.000410 -0.201606 0.020140 0.350095
    85 1.867864 -0.000061 0.000525 -0.000005 0.000005 0.463053
    86 0.919382 0.000416 0.000089 -0.000001 0.000001 0.632323
    87 0.600407 0.399634 -0.000463 0.000000 0.000015 3.141592
    88 1.200063 0.399933 -0.000154 0.009457 -0.016086 0.007125
    89 0.000598 0.100349 0.000321 0.120029 0.021927 -0.209620
    90 0.639941 -0.199160 -0.060184 1.665965 0.131395 -0.066419
    91 2.659898 0.000778 0.000160 -0.027382 0.033312 0.477846
    92 2.008776 -0.000893 -0.000381 0.000001 0.000001 0.978405
    93 1.100365 0.000004 0.000462 -0.000002 0.000007 0.463687
    94 0.000223 0.098995 -0.000202 0.018821 -0.010834 -0.239219
    95 0.600187 1.080257 0.339474 1.738108 -0.020762 0.107412
    96 2.199739 0.000530 -0.000128 0.000003 -0.000002 0.628153
    97 1.180096 0.000378 0.000080 -0.000001 -0.000001 0.743197
    98 0.679455 -0.000811 0.000181 0.000003 -0.000007 0.546287
    99 -0.000200 0.099623 0.000031 0.000004 -0.000001 -0.314096
    100 0.599962 0.959274 0.300074 0.174555 0.000000 0.000005
    101 0.610218 0.400728 0.010075 1.762273 0.061636 0.042960
    102 2.560413 -0.000156 -0.000032 -0.002471 0.050634 0.521454
    103 1.708748 0.000717 0.000200 -0.000002 0.000004 0.829229
    104 1.019814 -0.000018 -0.000393 0.000001 -0.000004 0.566725
    105 -0.000582 0.100140 0.000309 0.010909 -0.023132 -0.260850
    106 0.630186 -0.689482 0.230442 -0.087272 -0.607380 -1.183290
    107 2.099332 -0.000097 -0.000378 0.242425 -0.290022 0.541645
    108 1.290602 0.000366 -0.000038 -0.000003 -0.000014 0.367119
    109 0.599894 0.400186 0.000023 0.000000 -0.000015 3.141593
    110 0.999439 -0.000201 1.209393 0.000000 0.000000 0.000000
    111 2.300119 -2.499434 0.600136 -0.892004 -0.221510 -0.527317
    112 2.762361 0.116920 1.523960 1.629480 0.064142 1.743792
    113 0.650387 -0.547737 -0.092979 1.665917 0.131403 -0.112070
    114 1.899436 -0.000324 -0.000154 -0.027387 0.033313 0.477842
    115 0.657068 0.008390 -0.040386 1.665950 0.131410 -0.000021
    116 1.799662 -0.000252 -0.000233 -0.027385 0.033311 0.477848
    117 1.799662 -0.000252 -0.000233 -0.027385 0.033311 0.477848
    118 1.799662 -0.000252 -0.000233 -0.027385 0.033311 0.477848
    119 0.665782 0.747219 0.029179 1.665944 0.131412 0.094970
    120 1.900724 0.000546 -0.000071 -0.027388 0.033312 0.477847
    121 10.600054 -0.000370 0.000565 0.000000 0.000002 0.000000
    122 0.119667 -0.275192 0.000835 0.000005 0.000000 0.409860
    123 8.823002 0.000001 0.000000 0.000000 -0.000004 -0.294105
    124 3.116970 -0.000429 -0.000013 0.000001 0.000004 0.294105
    125 6.233002 -0.000002 0.000000 0.000000 0.000000 0.000000
    126 1.598000 0.000000 0.000000 0.000000 0.000000 -0.000001
    127 -4.481003 -0.202001 0.000000 0.000000 0.000000 0.000000
    128 -5.516998 -0.291001 -0.001000 0.000000 0.000000 0.000000
    129 6.241989 -6.380002 0.000000 0.000000 0.000000 -0.000002
    130 3.512001 -3.547001 -1.066000 0.000000 1.570796 -0.000001
    131 3.456001 -3.517001 1.169000 0.000000 1.570796 -0.000001
    132 -0.171997 -0.106000 -0.902000 1.570713 1.029175 -3.134551
    133 9.904999 -5.486001 -6.443002 1.570796 0.000000 -3.141592
    134 -0.000004 0.000000 0.000000 0.000000 0.000000 0.000000
    135 -0.000004 0.000000 0.000000 0.000000 0.000000 0.000000
    136 3.999992 -6.500001 0.000000 0.000000 0.000005 0.000982
    137 -6.500000 -0.000001 0.000000 0.000000 1.570796 0.000000
    138 14.188001 0.000000 0.141998 0.000000 0.000000 0.000000
    139 0.000000 0.000000 0.000000 0.000000 0.000000 0.000000
    140 0.000000 0.000000 0.000000 0.000000 0.000000 0.000000
    141 0.106000 0.000000 -64.320000 0.000000 0.000000 0.000000
    142 0.000000 0.000000 0.000000 0.000000 0.000000 0.000000
    143 -0.106000 0.000000 64.320000 0.000000 0.000000 0.000000
end
