// Created by Crowbar 0.74
version 1
nodes
  0 "tag_origin" -1
  1 "tag_sync" 0
  2 "tag_view" 0
  3 "tag_ads" 2
  4 "tag_torso" 3
  5 "j_mainroot" 4
  6 "j_hip_le" 5
  7 "j_hiptwist_le" 6
  8 "j_knee_le" 6
  9 "j_ankle_le" 8
  10 "j_ball_le" 9
  11 "j_kneedq_le" 8
  12 "j_hip_proc_le" 6
  13 "j_hip_ri" 5
  14 "j_hiptwist_ri" 13
  15 "tag_stowed_thigh" 14
  16 "j_knee_ri" 13
  17 "j_ankle_ri" 16
  18 "j_ball_ri" 17
  19 "j_kneedq_ri" 16
  20 "j_hip_proc_ri" 13
  21 "j_spinelower" 5
  22 "j_spineupper" 21
  23 "j_spine4" 22
  24 "j_chest" 23
  25 "j_clavicle_le" 23
  26 "j_shoulder_le" 25
  27 "j_shouldertwist_le" 26
  28 "j_elbow_le" 26
  29 "j_wristfronttwist1_le" 28
  30 "j_proc_wristfronttwist1_le" 29
  31 "tag_wrist_attach_le" 30
  32 "j_wrist_le" 28
  33 "tag_weapon_left" 32
  34 "tag_accessory_left" 32
  35 "j_metaindex_le_1" 32
  36 "j_index_le_1" 35
  37 "j_index_le_2" 36
  38 "j_index_le_3" 37
  39 "j_index_le_4" 38
  40 "j_indexbulge_le_1" 36
  41 "j_proc_index_le_1" 36
  42 "j_metamid_le_1" 32
  43 "j_mid_le_1" 42
  44 "j_mid_le_2" 43
  45 "j_mid_le_3" 44
  46 "j_proc_mid_le_1" 43
  47 "j_metapinky_le_1" 32
  48 "j_pinky_le_1" 47
  49 "j_pinky_le_2" 48
  50 "j_pinky_le_3" 49
  51 "j_proc_pinky_le_1" 48
  52 "j_webbing_le_3" 47
  53 "j_metaring_le_1" 32
  54 "j_ring_le_1" 53
  55 "j_ring_le_2" 54
  56 "j_ring_le_3" 55
  57 "j_proc_ring_le_1" 54
  58 "j_thumb_le_1" 32
  59 "j_thumb_le_2" 58
  60 "j_thumb_le_3" 59
  61 "j_thumb_le_4" 60
  62 "j_webbing_le_2" 58
  63 "j_webbing_le_1" 32
  64 "j_proc_metaindex_le_1" 32
  65 "j_proc_metaindex_le_2" 64
  66 "j_proc_metaknuckle_le_1" 32
  67 "j_proc_knuckle_le_1" 66
  68 "j_proc_idle_knuckle_le_1" 66
  69 "j_proc_orient_knuckle_le_1" 66
  70 "j_proc_metapinky_le_1" 32
  71 "j_proc_metapinky_le_2" 70
  72 "j_shield_le" 28
  73 "j_elbowdq_le" 28
  74 "j_teres_le" 25
  75 "j_clavicle_ri" 23
  76 "j_shoulder_ri" 75
  77 "j_shouldertwist_ri" 76
  78 "j_elbow_ri" 76
  79 "j_shield_ri" 78
  80 "j_wrist_ri" 78
  81 "j_gun" 80
  82 "tag_weapon_right" 80
  83 "tag_accessory_right" 80
  84 "j_metaindex_ri_1" 80
  85 "j_index_ri_1" 84
  86 "j_index_ri_2" 85
  87 "j_index_ri_3" 86
  88 "j_index_ri_4" 87
  89 "j_indexbulge_ri_1" 85
  90 "j_proc_index_ri_1" 85
  91 "j_metamid_ri_1" 80
  92 "j_mid_ri_1" 91
  93 "j_mid_ri_2" 92
  94 "j_mid_ri_3" 93
  95 "j_proc_mid_ri_1" 92
  96 "j_metapinky_ri_1" 80
  97 "j_pinky_ri_1" 96
  98 "j_pinky_ri_2" 97
  99 "j_pinky_ri_3" 98
  100 "j_proc_pinky_ri_1" 97
  101 "j_webbing_ri_3" 96
  102 "j_metaring_ri_1" 80
  103 "j_ring_ri_1" 102
  104 "j_ring_ri_2" 103
  105 "j_ring_ri_3" 104
  106 "j_proc_ring_ri_1" 103
  107 "j_thumb_ri_1" 80
  108 "j_thumb_ri_2" 107
  109 "j_thumb_ri_3" 108
  110 "j_thumb_ri_4" 109
  111 "j_webbing_ri_2" 107
  112 "j_webbing_ri_1" 80
  113 "tag_knife_attach2" 80
  114 "j_proc_metaindex_ri_1" 80
  115 "j_proc_metaindex_ri_2" 114
  116 "j_proc_metaknuckle_ri_1" 80
  117 "j_proc_knuckle_ri_1" 116
  118 "j_proc_idle_knuckle_ri_1" 116
  119 "j_proc_orient_knuckle_ri_1" 116
  120 "j_proc_metapinky_ri_1" 80
  121 "j_proc_metapinky_ri_2" 120
  122 "j_wristfronttwist1_ri" 78
  123 "j_elbowdq_ri" 78
  124 "j_teres_ri" 75
  125 "j_neck" 23
  126 "j_head" 125
  127 "j_head_end" 126
  128 "j_helmet" 127
  129 "j_visor" 128
  130 "j_visor_inner" 128
  131 "j_nvg" 126
  132 "j_eyeball_le" 126
  133 "j_eyeball_ri" 126
  134 "j_jaw" 126
  135 "tag_carry_attach" 23
  136 "j_proc_spineupper" 22
  137 "j_proc_spinelower" 21
  138 "j_groinprotector" 5
  139 "j_crotch" 5
  140 "tag_weapon" 4
  141 "tag_cambone" 2
  142 "tag_camera" 141
  143 "tag_player" 142
  144 "tag_playerhelmet" 142
  145 "tag_camera_scripted" 0
end
skeleton
  time 0
    0 0.000000 0.000000 0.000000 0.000000 0.000000 -1.570796
    1 0.000000 0.000000 0.000000 0.000000 0.000000 0.000000
    2 -0.113420 0.000000 68.822403 0.000000 0.000000 0.000000
    3 0.000000 0.000000 0.000000 0.000000 0.000000 0.000000
    4 -0.967280 0.000000 -12.632420 0.000000 0.000000 0.000000
    5 0.000000 0.000000 -15.315979 0.000000 -1.570796 1.570857
    6 0.000000 0.000000 -5.207691 -3.141536 0.008734 -3.128659
    7 1.070091 -0.000038 -0.000006 -0.000001 0.000000 0.000000
    8 18.363895 -0.000548 -0.000116 0.000001 0.000008 0.119210
    9 18.991829 0.316155 0.000027 0.000001 -0.000001 -1.158957
    10 5.792473 0.000351 0.000001 0.000000 0.000000 -0.518060
    11 0.019140 0.320777 0.000000 0.000000 -0.000002 -0.059583
    12 10.699877 -0.000392 -0.000067 -0.000001 0.000008 -0.000008
    13 0.000000 0.000000 5.207691 -3.141536 0.008734 -3.128659
    14 1.070095 -0.000037 -0.000006 -0.000001 0.000000 0.000000
    15 13.143406 1.692077 -5.024804 1.462269 -0.086723 0.090179
    16 18.363897 -0.000548 -0.000116 0.000001 0.000008 0.119210
    17 18.991831 0.316156 0.000026 0.000001 -0.000001 -1.158957
    18 5.792474 0.000351 0.000001 0.000000 0.000000 -0.518060
    19 0.019142 0.320778 -0.000001 0.000000 -0.000002 -0.059583
    20 10.164825 0.000163 -0.000063 -0.000001 0.000008 -0.000004
    21 3.780312 -0.000001 0.000000 0.000000 0.000000 0.000000
    22 6.687500 -0.000002 0.000000 0.000000 0.000000 0.000000
    23 4.848171 -0.000001 0.000000 0.000000 0.000000 0.000000
    24 0.000000 0.000000 0.000000 0.000000 0.000000 0.000000
    25 5.389587 -0.022471 -2.079011 -1.156924 1.547415 -1.157004
    26 6.189539 -0.000034 0.000298 -0.074832 0.826786 -0.247857
    27 0.535244 0.000145 -0.000057 -0.000003 0.000000 0.000003
    28 12.337360 -0.000278 0.000225 0.000004 -0.000003 -0.819717
    29 11.342063 -0.000378 -0.000694 0.000000 0.000000 0.000000
    30 -1.225715 0.000141 0.000725 0.000000 0.000000 0.000001
    31 -0.917731 0.111364 0.112011 0.023540 0.163924 0.013631
    32 11.814168 -0.000393 -0.000713 0.000001 0.000000 0.000000
    33 -10.251489 -29.812637 -39.787460 0.812883 -0.123456 -0.568483
    34 -10.251489 -29.812637 -39.787460 0.812883 -0.123456 -0.568483
    35 0.653027 -1.005306 0.075207 -1.655304 -0.140060 -0.175591
    36 2.802986 0.000156 0.000435 0.201606 -0.020145 0.350098
    37 1.998610 -0.000076 -0.000570 0.000010 0.000014 0.463053
    38 0.984411 -0.000320 -0.000441 -0.000009 0.000007 0.632320
    39 0.641457 0.428749 0.000259 0.000000 0.000000 0.000000
    40 1.284485 0.426830 -0.000801 -0.009458 0.016100 0.007120
    41 0.000116 0.106655 -0.000948 -0.120033 -0.021920 -0.209621
    42 0.684745 -0.213093 0.064384 -1.665965 -0.131389 -0.066408
    43 2.845737 0.000114 -0.000895 0.027386 -0.033310 0.477847
    44 2.149404 -0.000099 -0.000246 0.000000 -0.000009 0.978404
    45 1.176666 -0.000461 0.000130 0.000010 0.000008 0.463690
    46 0.000235 0.105927 0.000219 -0.018826 0.010830 -0.239216
    47 0.642196 1.155878 -0.363251 -1.738112 0.020767 0.107412
    48 2.353720 0.000561 0.000145 -0.000001 0.000020 0.628155
    49 1.261873 0.000242 -0.000710 -0.000016 -0.000008 0.743197
    50 0.727741 -0.001310 0.000479 -0.000011 -0.000011 0.546283
    51 -0.000212 0.106600 -0.000032 0.000003 -0.000025 -0.314097
    52 0.641391 1.025806 -0.321733 -0.174550 -0.000006 0.000008
    53 0.652440 0.428179 -0.010059 -1.762272 -0.061631 0.042968
    54 2.739640 -0.000168 0.000031 0.002469 -0.050636 0.521456
    55 1.828365 0.000767 -0.000223 0.000009 0.000007 0.829232
    56 1.091393 -0.000848 -0.000225 -0.000007 -0.000007 0.566725
    57 0.000143 0.107464 0.000343 -0.010910 0.023149 -0.260851
    58 0.673808 -0.738346 -0.245853 0.087263 0.607387 -1.183290
    59 2.246403 0.000512 -0.000435 -0.242426 0.290018 0.541647
    60 1.380302 -0.000243 0.000637 0.000002 -0.000001 0.367120
    61 0.641884 0.428195 -0.000034 0.000002 0.000000 0.000001
    62 1.069517 0.000404 -1.294903 -0.000001 0.000000 0.000000
    63 2.460646 -2.674988 -0.641434 0.892005 0.221534 -0.527291
    64 0.695426 -0.586678 0.100204 -1.665921 -0.131394 -0.112060
    65 2.032062 0.000450 -0.000477 0.027392 -0.033302 0.477843
    66 0.703070 0.008987 0.043198 -1.665954 -0.131402 -0.000014
    67 1.925635 -0.000263 0.000242 0.027391 -0.033317 0.477846
    68 1.925635 -0.000263 0.000242 0.027391 -0.033317 0.477846
    69 1.925635 -0.000263 0.000242 0.027391 -0.033317 0.477846
    70 0.712379 0.799526 -0.031239 -1.665945 -0.131402 0.094972
    71 2.033334 -0.000160 -0.000549 0.027388 -0.033309 0.477843
    72 4.279402 -0.000574 -0.000359 0.000001 0.000000 0.000000
    73 0.127554 -0.295065 -0.000160 0.000000 0.000002 0.409860
    74 6.419810 -0.000409 -4.279953 0.000000 0.000000 0.000000
    75 5.390659 -0.022471 2.079010 1.156387 -1.547409 -1.156466
    76 6.189540 -0.000032 -0.000206 0.074837 -0.826796 -0.247856
    77 0.535244 0.000142 0.000065 0.000000 0.000000 0.000000
    78 12.336586 -0.000369 -0.000900 -0.000004 -0.000010 -0.819722
    79 4.279892 0.000042 0.001049 -0.000001 -0.000001 0.000001
    80 11.814166 -0.000368 0.000614 -0.000001 0.000001 0.000004
    81 -20.233122 -9.016895 0.000294 2.328722 0.123468 -0.568479
    82 -20.233122 -9.016895 0.000294 2.328722 0.123468 -0.568479
    83 7.734316 8.483166 -4.200443 2.328719 0.123468 -0.568479
    84 0.653023 -1.005306 -0.075218 1.655306 0.140066 -0.175593
    85 2.802985 0.000141 -0.000435 -0.201607 0.020140 0.350096
    86 1.998614 -0.000069 0.000563 -0.000005 0.000005 0.463053
    87 0.983738 0.000439 0.000097 -0.000002 0.000001 0.632323
    88 0.642433 0.427612 -0.000498 0.000000 0.000016 3.141592
    89 1.284069 0.427925 -0.000162 0.009457 -0.016085 0.007123
    90 0.000636 0.107368 0.000349 0.120029 0.021927 -0.209622
    91 0.684739 -0.213095 -0.064400 1.665966 0.131395 -0.066416
    92 2.846095 0.000835 0.000168 -0.027382 0.033311 0.477848
    93 2.149386 -0.000954 -0.000404 0.000001 0.000001 0.978403
    94 1.177380 0.000002 0.000494 -0.000002 0.000007 0.463687
    95 0.000238 0.105927 -0.000221 0.018821 -0.010834 -0.239220
    96 0.642197 1.155878 0.363235 1.738108 -0.020762 0.107416
    97 2.353719 0.000572 -0.000130 0.000003 -0.000002 0.628153
    98 1.262707 0.000404 0.000086 -0.000002 -0.000001 0.743197
    99 0.727024 -0.000871 0.000193 0.000003 -0.000008 0.546287
    100 -0.000206 0.106598 0.000032 0.000004 -0.000001 -0.314096
    101 0.641959 1.026428 0.321081 0.174555 0.000000 0.000006
    102 0.652934 0.428780 0.010780 1.762273 0.061636 0.042964
    103 2.739641 -0.000164 -0.000034 -0.002471 0.050634 0.521454
    104 1.828360 0.000774 0.000212 -0.000003 0.000004 0.829230
    105 1.091190 -0.000025 -0.000423 0.000000 -0.000004 0.566725
    106 -0.000624 0.107155 0.000330 0.010909 -0.023132 -0.260850
    107 0.674303 -0.737745 0.246578 -0.087272 -0.607380 -1.183286
    108 2.246285 -0.000101 -0.000412 0.242425 -0.290022 0.541646
    109 1.380947 0.000385 -0.000050 -0.000005 -0.000013 0.367119
    110 0.641880 0.428195 0.000027 0.000000 -0.000014 -3.141592
    111 1.069399 -0.000216 1.294044 0.000000 0.000000 0.000000
    112 2.461135 -2.674387 0.642143 -0.892004 -0.221510 -0.527314
    113 2.955727 0.125120 1.630642 1.629481 0.064142 1.743796
    114 0.695915 -0.586075 -0.099491 1.665917 0.131403 -0.112066
    115 2.032395 -0.000336 -0.000162 -0.027387 0.033313 0.477843
    116 0.703064 0.008982 -0.043209 1.665950 0.131411 -0.000017
    117 1.925638 -0.000259 -0.000256 -0.027385 0.033311 0.477848
    118 1.925638 -0.000259 -0.000256 -0.027385 0.033311 0.477848
    119 1.925638 -0.000259 -0.000256 -0.027385 0.033311 0.477848
    120 0.712381 0.799522 0.031227 1.665944 0.131413 0.094973
    121 2.033778 0.000587 -0.000076 -0.027388 0.033312 0.477848
    122 11.342060 -0.000353 0.000595 -0.000002 0.000002 0.000004
    123 0.128042 -0.294460 0.000874 0.000005 0.000001 0.409864
    124 6.419749 -0.000404 4.280045 0.000000 0.000000 0.000000
    125 9.440613 -0.000002 0.000000 0.000000 -0.000004 -0.294105
    126 3.335159 -0.000463 -0.000014 0.000001 0.000004 0.294105
    127 6.669319 -0.000003 0.000000 0.000000 0.000000 0.000000
    128 1.709869 -0.000001 0.000000 0.000000 0.000000 0.000000
    129 -4.794670 -0.216138 0.000000 0.000000 0.000000 0.000000
    130 -5.903191 -0.311368 -0.001070 0.000000 0.000000 0.000000
    131 6.678940 -6.826605 0.000000 0.000000 0.000000 0.000000
    132 3.757851 -3.795292 -1.140620 0.000000 1.570796 0.000000
    133 3.697929 -3.763192 1.250830 0.000000 1.570796 -0.000001
    134 -0.184029 -0.113420 -0.965140 1.570713 1.029175 -3.134551
    135 10.598351 -5.870023 -6.894012 1.570796 0.000000 3.141592
    136 0.000000 0.000000 0.000000 0.000000 0.000000 0.000000
    137 0.000000 0.000000 0.000000 0.000000 0.000000 0.000000
    138 4.279995 -6.955003 0.000000 0.000000 0.000006 0.000982
    139 -6.955002 0.000001 0.000000 0.000000 1.570796 0.000000
    140 15.181162 0.000000 0.151939 0.000000 0.000000 0.000000
    141 0.000000 0.000000 0.000000 0.000000 0.000000 0.000000
    142 0.000000 0.000000 0.000000 0.000000 0.000000 0.000000
    143 0.113420 0.000000 -68.822403 0.000000 0.000000 0.000000
    144 0.000000 0.000000 0.000000 0.000000 0.000000 0.000000
    145 -0.113420 0.000000 68.822403 0.000000 0.000000 0.000000
end
