// Created by Crowbar 0.74
version 1
nodes
  0 "tag_mag_attach" -1
  1 "j_mag1" 0
  2 "j_bullet_01" 1
  3 "j_bullet_02" 1
  4 "j_bullet_04" 1
  5 "j_mag2" 0
end
skeleton
  time 0
    0 0.000000 0.000000 0.000000 0.000000 0.000000 -1.570796
    1 -0.279999 0.000000 2.917994 0.000000 0.000000 0.000000
    2 0.213999 -0.019000 1.450997 1.570796 0.000000 3.141592
    3 0.160000 -0.132000 1.122998 1.570796 0.000000 3.141592
    4 0.130000 -0.146000 0.547999 1.570796 0.000000 3.141592
    5 -0.279999 0.000000 2.917994 0.000000 0.000000 0.000000
end
