// Created by Crowbar 0.74
version 1
nodes
  0 "tag_mag_attach" -1
  1 "j_mag1" 0
  2 "j_bullet01" 1
  3 "j_bullet02" 1
  4 "j_bullet03" 1
  5 "j_bullet04" 1
  6 "j_mag2" 0
end
skeleton
  time 0
    0 0.000000 0.000000 0.000000 0.000000 0.000000 -1.570796
    1 -7.903000 -0.295000 0.602000 -0.244328 0.000000 0.000000
    2 0.057001 0.157245 0.510197 0.000002 0.000000 0.000000
    3 0.063001 -0.177576 0.319533 0.000000 0.000000 0.000000
    4 0.065001 0.153365 0.128932 0.000000 0.000000 0.000000
    5 0.076001 -0.178546 -0.061006 0.000000 0.000000 0.000000
    6 -7.903000 -0.295000 0.602000 -0.244328 0.000000 0.000000
end
