// Created by Crowbar 0.74
version 1
nodes
  0 "tag_origin" -1
  1 "tag_sync" 0
  2 "tag_view" 0
  3 "tag_ads" 2
  4 "tag_torso" 3
  5 "j_mainroot" 4
  6 "j_hip_le" 5
  7 "j_hiptwist_le" 6
  8 "j_knee_le" 6
  9 "j_ankle_le" 8
  10 "j_ball_le" 9
  11 "j_kneedq_le" 8
  12 "j_hip_proc_le" 6
  13 "j_hip_ri" 5
  14 "j_hiptwist_ri" 13
  15 "tag_stowed_thigh" 14
  16 "j_knee_ri" 13
  17 "j_ankle_ri" 16
  18 "j_ball_ri" 17
  19 "j_kneedq_ri" 16
  20 "j_hip_proc_ri" 13
  21 "j_spinelower" 5
  22 "j_spineupper" 21
  23 "j_spine4" 22
  24 "j_chest" 23
  25 "j_clavicle_le" 23
  26 "j_shoulder_le" 25
  27 "j_shouldertwist_le" 26
  28 "j_elbow_le" 26
  29 "j_wristfronttwist1_le" 28
  30 "j_proc_wristfronttwist1_le" 29
  31 "tag_wrist_attach_le" 30
  32 "j_wrist_le" 28
  33 "tag_weapon_left" 32
  34 "tag_accessory_left" 32
  35 "j_metaindex_le_1" 32
  36 "j_index_le_1" 35
  37 "j_index_le_2" 36
  38 "j_index_le_3" 37
  39 "j_index_le_4" 38
  40 "j_indexbulge_le_1" 36
  41 "j_proc_index_le_1" 36
  42 "j_metamid_le_1" 32
  43 "j_mid_le_1" 42
  44 "j_mid_le_2" 43
  45 "j_mid_le_3" 44
  46 "j_proc_mid_le_1" 43
  47 "j_metapinky_le_1" 32
  48 "j_pinky_le_1" 47
  49 "j_pinky_le_2" 48
  50 "j_pinky_le_3" 49
  51 "j_proc_pinky_le_1" 48
  52 "j_webbing_le_3" 47
  53 "j_metaring_le_1" 32
  54 "j_ring_le_1" 53
  55 "j_ring_le_2" 54
  56 "j_ring_le_3" 55
  57 "j_proc_ring_le_1" 54
  58 "j_thumb_le_1" 32
  59 "j_thumb_le_2" 58
  60 "j_thumb_le_3" 59
  61 "j_thumb_le_4" 60
  62 "j_webbing_le_2" 58
  63 "j_webbing_le_1" 32
  64 "j_proc_knuckle_le_1" 32
  65 "j_shield_le" 28
  66 "j_elbowdq_le" 28
  67 "j_teres_le" 25
  68 "j_clavicle_ri" 23
  69 "j_shoulder_ri" 68
  70 "j_shouldertwist_ri" 69
  71 "j_elbow_ri" 69
  72 "j_shield_ri" 71
  73 "j_wrist_ri" 71
  74 "j_gun" 73
  75 "tag_weapon_right" 73
  76 "tag_accessory_right" 73
  77 "j_metaindex_ri_1" 73
  78 "j_index_ri_1" 77
  79 "j_index_ri_2" 78
  80 "j_index_ri_3" 79
  81 "j_index_ri_4" 80
  82 "j_indexbulge_ri_1" 78
  83 "j_proc_index_ri_1" 78
  84 "j_metamid_ri_1" 73
  85 "j_mid_ri_1" 84
  86 "j_mid_ri_2" 85
  87 "j_mid_ri_3" 86
  88 "j_proc_mid_ri_1" 85
  89 "j_metapinky_ri_1" 73
  90 "j_pinky_ri_1" 89
  91 "j_pinky_ri_2" 90
  92 "j_pinky_ri_3" 91
  93 "j_proc_pinky_ri_1" 90
  94 "j_webbing_ri_3" 89
  95 "j_metaring_ri_1" 73
  96 "j_ring_ri_1" 95
  97 "j_ring_ri_2" 96
  98 "j_ring_ri_3" 97
  99 "j_proc_ring_ri_1" 96
  100 "j_thumb_ri_1" 73
  101 "j_thumb_ri_2" 100
  102 "j_thumb_ri_3" 101
  103 "j_thumb_ri_4" 102
  104 "j_webbing_ri_2" 100
  105 "j_webbing_ri_1" 73
  106 "tag_knife_attach2" 73
  107 "j_proc_knuckle_ri_1" 73
  108 "j_wristfronttwist1_ri" 71
  109 "j_elbowdq_ri" 71
  110 "j_teres_ri" 68
  111 "j_neck" 23
  112 "j_head" 111
  113 "j_head_end" 112
  114 "j_helmet" 113
  115 "j_visor" 114
  116 "j_visor_inner" 114
  117 "j_nvg" 112
  118 "j_eyeball_le" 112
  119 "j_eyeball_ri" 112
  120 "j_jaw" 112
  121 "j_proc_spine4" 23
  122 "tag_carry_attach" 121
  123 "j_proc_spinelower" 21
  124 "j_groinprotector" 5
  125 "j_crotch" 5
  126 "tag_weapon" 4
  127 "tag_cambone" 2
  128 "tag_camera" 127
  129 "tag_player" 128
  130 "tag_playerhelmet" 128
  131 "tag_camera_scripted" 0
end
skeleton
  time 0
    0 0.000000 0.000000 0.000000 0.000000 0.000000 -1.570796
    1 0.000000 0.000000 0.000000 0.000000 0.000000 0.000000
    2 -0.113420 0.000000 68.822403 0.000000 0.000000 0.000000
    3 0.000000 0.000000 0.000000 0.000000 0.000000 0.000000
    4 -0.967280 0.000000 -12.632420 0.000000 0.000000 0.000000
    5 0.000000 0.000000 -15.315979 0.000000 -1.570796 1.570857
    6 0.000000 0.000000 -5.207691 -3.141536 0.008715 -3.128641
    7 1.070095 -0.000018 0.000015 0.000000 0.000000 -0.000001
    8 18.363909 -0.000208 0.000234 -0.000002 -0.000010 0.119236
    9 18.991840 0.316008 0.000041 0.000002 -0.000001 -1.158973
    10 5.792474 0.000403 -0.000001 -0.000001 0.000000 -0.518051
    11 0.019142 0.320778 0.000001 0.000002 -0.000005 -0.059590
    12 10.699883 -0.000194 0.000136 0.000000 -0.000015 0.000012
    13 0.000000 0.000000 5.207691 -3.141536 0.008715 -3.128641
    14 1.070103 -0.000018 0.000013 0.000000 0.000000 -0.000001
    15 13.143475 1.692323 -5.024556 1.462268 -0.086735 0.090198
    16 18.363916 -0.000207 0.000233 -0.000002 -0.000010 0.119237
    17 18.991842 0.316007 0.000040 0.000002 -0.000001 -1.158973
    18 5.792475 0.000400 -0.000002 -0.000001 0.000000 -0.518052
    19 0.019144 0.320777 0.000000 0.000002 -0.000005 -0.059590
    20 10.164837 0.000351 0.000130 0.000000 -0.000015 0.000020
    21 3.780312 -0.000001 0.000000 0.000000 0.000000 0.000000
    22 6.687500 -0.000002 0.000000 0.000000 0.000000 0.000000
    23 4.848171 -0.000001 0.000000 0.000000 0.000000 0.000000
    24 0.000000 0.000000 0.000000 0.000000 0.000000 0.000000
    25 5.389587 -0.022471 -2.079011 -1.156980 1.547416 -1.157058
    26 6.189540 -0.000035 0.000294 -0.074806 0.826774 -0.247832
    27 0.535244 0.000137 -0.000069 0.000003 0.000000 -0.000003
    28 12.337362 -0.000461 0.000065 -0.000010 0.000001 -0.819732
    29 11.342066 -0.000368 -0.000698 0.000003 0.000000 0.000000
    30 6.047316 20.873281 -48.041409 0.812912 -0.123371 -0.568546
    31 -0.261738 0.023336 0.114916 0.023380 0.097197 0.012072
    32 11.814168 -0.000385 -0.000717 0.000002 0.000000 0.000000
    33 -20.233589 -9.017540 0.000557 0.812870 -0.123465 -0.568474
    34 -10.251468 -29.812632 -39.787476 0.812860 -0.123462 -0.568476
    35 0.653028 -1.005304 0.075211 -1.655311 -0.140056 -0.175587
    36 2.802986 0.000137 0.000431 0.201617 -0.020124 0.350088
    37 1.998614 -0.000053 -0.000534 -0.000009 -0.000004 0.463063
    38 0.984406 -0.000317 -0.000439 -0.000008 -0.000010 0.632329
    39 0.641457 0.428751 0.000246 0.000000 0.000000 0.000000
    40 1.284480 0.426846 -0.000782 -0.009468 0.016061 0.007140
    41 0.000115 0.106655 -0.000950 -0.120043 -0.021934 -0.209611
    42 0.684748 -0.213093 0.064388 -1.665968 -0.131393 -0.066422
    43 2.845740 0.000122 -0.000854 0.027384 -0.033345 0.477857
    44 2.149401 -0.000118 -0.000292 0.000020 0.000017 0.978388
    45 1.176670 -0.000449 0.000145 0.000003 0.000004 0.463693
    46 0.000237 0.105919 0.000216 -0.018826 0.010858 -0.239229
    47 0.642193 1.155880 -0.363243 -1.738111 0.020767 0.107412
    48 2.353717 0.000565 0.000145 0.000000 0.000011 0.628159
    49 1.261877 0.000237 -0.000721 -0.000016 -0.000015 0.743202
    50 0.727745 -0.001322 0.000473 0.000005 0.000005 0.546274
    51 -0.000208 0.106598 -0.000031 0.000001 -0.000028 -0.314098
    52 0.641389 1.025818 -0.321732 -0.174553 -0.000008 0.000012
    53 0.652439 0.428179 -0.010056 -1.762278 -0.061627 0.042964
    54 2.739645 -0.000175 0.000038 0.002481 -0.050631 0.521448
    55 1.828362 0.000774 -0.000198 -0.000007 0.000003 0.829236
    56 1.091396 -0.000846 -0.000217 -0.000006 -0.000006 0.566723
    57 0.000145 0.107468 0.000341 -0.010907 0.023152 -0.260854
    58 0.673809 -0.738350 -0.245850 0.087261 0.607385 -1.183290
    59 2.246397 0.000520 -0.000439 -0.242428 0.290017 0.541646
    60 1.380306 -0.000238 0.000637 0.000011 -0.000001 0.367122
    61 0.641876 0.428192 -0.000034 0.000000 0.000000 0.000000
    62 1.069514 0.000410 -1.294907 0.000000 0.000000 0.000000
    63 2.460649 -2.674986 -0.641438 0.891990 0.221533 -0.527292
    64 2.612067 0.009251 0.295723 -1.631658 0.347416 -0.011159
    65 4.279401 -0.000574 -0.000362 0.000003 0.000001 -0.000002
    66 0.127550 -0.295065 -0.000156 -0.000003 0.000003 0.409859
    67 6.419815 -0.000402 -4.279949 0.000002 -0.000002 -0.000004
    68 5.390659 -0.022471 2.079010 1.156326 -1.547408 -1.156404
    69 6.189541 -0.000032 -0.000195 0.074814 -0.826818 -0.247846
    70 0.535244 0.000139 0.000057 0.000003 0.000000 0.000003
    71 12.336586 -0.000452 -0.001137 -0.000006 0.000014 -0.819726
    72 4.279894 0.000032 0.001053 -0.000003 0.000006 -0.000005
    73 11.814166 -0.000399 0.000614 -0.000002 0.000002 -0.000004
    74 -20.233074 -9.016993 0.000282 2.328719 0.123470 -0.568472
    75 -20.233074 -9.016993 0.000282 2.328719 0.123470 -0.568472
    76 7.734282 8.483202 -4.200443 2.328719 0.123467 -0.568474
    77 0.653029 -1.005302 -0.075218 1.655294 0.140068 -0.175588
    78 2.802988 0.000156 -0.000433 -0.201607 0.020137 0.350092
    79 1.998614 -0.000046 0.000568 0.000009 -0.000005 0.463064
    80 0.983738 0.000431 0.000092 0.000003 -0.000001 0.632327
    81 0.642429 0.427605 -0.000504 0.000000 -0.000007 3.141592
    82 1.284064 0.427940 -0.000156 0.009477 -0.016090 0.007135
    83 0.000637 0.107380 0.000349 0.120048 0.021924 -0.209607
    84 0.684740 -0.213093 -0.064400 1.665964 0.131397 -0.066410
    85 2.846092 0.000843 0.000175 -0.027380 0.033309 0.477852
    86 2.149387 -0.000961 -0.000414 -0.000003 0.000008 0.978392
    87 1.177383 0.000013 0.000505 0.000008 -0.000009 0.463701
    88 0.000233 0.105927 -0.000223 0.018813 -0.010833 -0.239224
    89 0.642191 1.155882 0.363239 1.738108 -0.020762 0.107421
    90 2.353721 0.000561 -0.000132 0.000002 -0.000001 0.628156
    91 1.262707 0.000402 0.000086 0.000006 -0.000006 0.743202
    92 0.727016 -0.000878 0.000189 -0.000005 0.000007 0.546278
    93 -0.000204 0.106598 0.000031 0.000003 -0.000001 -0.314097
    94 0.641958 1.026421 0.321077 0.174557 0.000000 0.000009
    95 0.652932 0.428783 0.010784 1.762276 0.061635 0.042969
    96 2.739644 -0.000164 -0.000031 -0.002478 0.050636 0.521450
    97 1.828356 0.000771 0.000214 0.000001 0.000000 0.829233
    98 1.091198 -0.000022 -0.000423 -0.000001 -0.000002 0.566724
    99 -0.000624 0.107147 0.000330 0.010920 -0.023132 -0.260843
    100 0.674308 -0.737738 0.246578 -0.087270 -0.607386 -1.183280
    101 2.246291 -0.000103 -0.000431 0.242430 -0.290013 0.541640
    102 1.380943 0.000394 -0.000046 -0.000009 -0.000028 0.367128
    103 0.641886 0.428190 0.000019 0.000000 -0.000028 -3.141592
    104 1.069410 -0.000214 1.294037 0.000000 0.000000 0.000000
    105 2.461153 -2.674376 0.642151 -0.892011 -0.221592 -0.527212
    106 2.955726 0.125132 1.630646 1.629483 0.064150 1.743800
    107 2.612064 0.009254 -0.295731 1.631665 -0.347410 -0.011167
    108 11.342059 -0.000389 0.000595 -0.000002 0.000009 -0.000004
    109 0.128046 -0.294458 0.000877 0.000005 0.000009 0.409856
    110 6.419744 -0.000398 4.280056 0.000000 -0.000002 0.000000
    111 9.440613 -0.000002 0.000000 0.000000 -0.000012 -0.294113
    112 3.335159 -0.000435 -0.000041 0.000004 0.000012 0.294113
    113 6.669319 0.000000 0.000000 0.000000 0.000000 0.000000
    114 1.709869 0.000000 0.000000 0.000000 0.000000 0.000001
    115 -4.794670 -0.216138 0.000000 0.000000 0.000000 0.000000
    116 -5.903191 -0.311368 -0.001070 0.000000 0.000000 0.000000
    117 6.678947 -6.826600 0.000000 0.000000 0.000000 0.000000
    118 3.757851 -3.795289 -1.140620 0.000000 1.570796 0.000000
    119 3.697929 -3.763190 1.250830 0.000000 1.570796 0.000001
    120 -0.184029 -0.113420 -0.965140 1.570713 1.029180 -3.134551
    121 0.000000 0.000000 0.000000 0.000000 0.000000 0.000000
    122 10.598351 -5.870023 -6.894012 1.570796 0.000000 3.141592
    123 0.000000 0.000000 0.000000 0.000000 0.000000 0.000000
    124 4.279995 -6.955003 0.000000 0.000000 0.000014 0.000990
    125 -6.955002 0.000001 0.000000 0.000000 1.570796 0.000000
    126 15.181162 0.000000 0.151939 0.000000 0.000000 0.000000
    127 0.000000 0.000000 0.000000 0.000000 0.000000 0.000000
    128 0.000000 0.000000 0.000000 0.000000 0.000000 0.000000
    129 0.113420 0.000000 -68.822403 0.000000 0.000000 0.000000
    130 0.000000 0.000000 0.000000 0.000000 0.000000 0.000000
    131 -0.113420 0.000000 68.822403 0.000000 0.000000 0.000000
end
