// Created by Crowbar 0.74
version 1
nodes
  0 "ValveBiped.Bip01_R_Hand" -1
  1 "tag_pistol_offset" 0
  2 "tag_holo" 1
  3 "tag_acog_2" 1
  4 "j_hammer" 1
  5 "tag_barrel_attach" 1
  6 "tag_brass" 1
  7 "tag_folding_grip" 1
  8 "tag_laser_attach" 1
  9 "tag_mag_attach" 1
  10 "tag_pistolgrip_attach" 1
  11 "tag_reflex" 1
  12 "tag_scope" 1
  13 "tag_stock_attach" 1
  14 "j_trigger" 13
  15 "tag_trigger_hide" 14
  16 "j_magrelease" 1
  17 "j_safety" 1
  18 "j_slidestop" 1
  19 "j_gun" -1
  20 "tag_rail" 1
end
skeleton
  time 0
    0 0.000000 0.000000 0.000000 -1.570792 -1.570790 -1.570796
    1 -9.101563 0.000000 1.345703 0.000000 0.000000 0.000000
    2 1.414063 0.000000 2.341797 0.000000 0.000000 0.000000
    3 1.194336 0.000004 2.341797 0.000000 0.000000 0.000000
    4 -0.576000 -0.004000 0.701999 0.000000 0.000000 0.000000
    5 0.414998 0.000000 0.937998 0.000000 0.000000 0.000000
    6 1.086997 -0.554999 1.709997 0.000000 0.000000 -1.570755
    7 4.654990 0.000000 0.242000 0.000000 0.000000 0.000000
    8 4.367990 0.000000 0.177000 0.000000 0.000000 0.000000
    9 0.537998 0.000000 -3.214993 0.000000 0.000000 0.000000
    10 -0.126001 0.000000 -1.241997 0.000000 0.000000 0.000000
    11 1.572996 0.000000 2.342995 0.000000 0.000000 0.000000
    12 1.201997 0.000000 2.375995 0.000000 0.000000 0.000000
    13 -1.451998 0.000000 -3.396993 0.000000 0.000000 0.000000
    14 3.501993 0.017000 3.580993 0.000000 0.000000 0.000000
    15 0.000000 0.000000 0.000000 0.000000 0.000000 0.000000
    16 0.745997 0.090000 -0.642999 0.000000 0.000000 0.000000
    17 -0.716001 0.604999 0.624999 0.000000 0.000000 0.000000
    18 2.751994 0.107000 0.669999 0.000000 0.000000 0.000000
    19 0.000000 0.000000 0.000000 0.000000 0.000000 -1.570796
    20 3.184993 0.000000 1.365997 0.000000 0.000000 0.000000
end
