// Created by Crowbar 0.74
version 1
nodes
  0 "tag_origin" -1
  1 "tag_sync" 0
  2 "tag_view" 0
  3 "tag_ads" 2
  4 "tag_torso" 3
  5 "j_mainroot" 4
  6 "j_hip_le" 5
  7 "j_hiptwist_le" 6
  8 "j_knee_le" 6
  9 "j_ankle_le" 8
  10 "j_ball_le" 9
  11 "j_kneedq_le" 8
  12 "j_hip_proc_le" 6
  13 "j_hip_ri" 5
  14 "j_hiptwist_ri" 13
  15 "tag_stowed_thigh" 14
  16 "j_knee_ri" 13
  17 "j_ankle_ri" 16
  18 "j_ball_ri" 17
  19 "j_kneedq_ri" 16
  20 "j_hip_proc_ri" 13
  21 "j_spinelower" 5
  22 "j_spineupper" 21
  23 "j_spine4" 22
  24 "j_chest" 23
  25 "j_clavicle_le" 23
  26 "j_shoulder_le" 25
  27 "j_shouldertwist_le" 26
  28 "j_elbow_le" 26
  29 "j_wristfronttwist1_le" 28
  30 "j_proc_wristfronttwist1_le" 29
  31 "tag_wrist_attach_le" 30
  32 "j_wrist_le" 28
  33 "tag_weapon_left" 32
  34 "tag_accessory_left" 32
  35 "j_metaindex_le_1" 32
  36 "j_index_le_1" 35
  37 "j_index_le_2" 36
  38 "j_index_le_3" 37
  39 "j_index_le_4" 38
  40 "j_indexbulge_le_1" 36
  41 "j_proc_index_le_1" 36
  42 "j_metamid_le_1" 32
  43 "j_mid_le_1" 42
  44 "j_mid_le_2" 43
  45 "j_mid_le_3" 44
  46 "j_proc_mid_le_1" 43
  47 "j_metapinky_le_1" 32
  48 "j_pinky_le_1" 47
  49 "j_pinky_le_2" 48
  50 "j_pinky_le_3" 49
  51 "j_proc_pinky_le_1" 48
  52 "j_webbing_le_3" 47
  53 "j_metaring_le_1" 32
  54 "j_ring_le_1" 53
  55 "j_ring_le_2" 54
  56 "j_ring_le_3" 55
  57 "j_proc_ring_le_1" 54
  58 "j_thumb_le_1" 32
  59 "j_thumb_le_2" 58
  60 "j_thumb_le_3" 59
  61 "j_thumb_le_4" 60
  62 "j_webbing_le_2" 58
  63 "j_webbing_le_1" 32
  64 "j_proc_knuckle_le_1" 32
  65 "j_proc_metaindex_le_1" 32
  66 "j_proc_metaindex_le_2" 65
  67 "j_proc_metaknuckle_le_1" 32
  68 "j_proc_idle_knuckle_le_1" 67
  69 "j_proc_orient_knuckle_le_1" 67
  70 "j_proc_metapinky_le_1" 32
  71 "j_proc_metapinky_le_2" 70
  72 "j_shield_le" 28
  73 "j_elbowdq_le" 28
  74 "j_teres_le" 25
  75 "j_clavicle_ri" 23
  76 "j_shoulder_ri" 75
  77 "j_shouldertwist_ri" 76
  78 "j_elbow_ri" 76
  79 "j_shield_ri" 78
  80 "j_wrist_ri" 78
  81 "j_gun" 80
  82 "tag_weapon_right" 80
  83 "tag_accessory_right" 80
  84 "j_metaindex_ri_1" 80
  85 "j_index_ri_1" 84
  86 "j_index_ri_2" 85
  87 "j_index_ri_3" 86
  88 "j_index_ri_4" 87
  89 "j_indexbulge_ri_1" 85
  90 "j_proc_index_ri_1" 85
  91 "j_metamid_ri_1" 80
  92 "j_mid_ri_1" 91
  93 "j_mid_ri_2" 92
  94 "j_mid_ri_3" 93
  95 "j_proc_mid_ri_1" 92
  96 "j_metapinky_ri_1" 80
  97 "j_pinky_ri_1" 96
  98 "j_pinky_ri_2" 97
  99 "j_pinky_ri_3" 98
  100 "j_proc_pinky_ri_1" 97
  101 "j_webbing_ri_3" 96
  102 "j_metaring_ri_1" 80
  103 "j_ring_ri_1" 102
  104 "j_ring_ri_2" 103
  105 "j_ring_ri_3" 104
  106 "j_proc_ring_ri_1" 103
  107 "j_thumb_ri_1" 80
  108 "j_thumb_ri_2" 107
  109 "j_thumb_ri_3" 108
  110 "j_thumb_ri_4" 109
  111 "j_webbing_ri_2" 107
  112 "j_webbing_ri_1" 80
  113 "tag_knife_attach2" 80
  114 "j_proc_knuckle_ri_1" 80
  115 "j_proc_metaindex_ri_1" 80
  116 "j_proc_metaindex_ri_2" 115
  117 "j_proc_metaknuckle_ri_1" 80
  118 "j_proc_idle_knuckle_ri_1" 117
  119 "j_proc_orient_knuckle_ri_1" 117
  120 "j_proc_metapinky_ri_1" 80
  121 "j_proc_metapinky_ri_2" 120
  122 "j_wristfronttwist1_ri" 78
  123 "j_elbowdq_ri" 78
  124 "j_teres_ri" 75
  125 "j_neck" 23
  126 "j_head" 125
  127 "j_head_end" 126
  128 "j_helmet" 127
  129 "j_visor" 128
  130 "j_visor_inner" 128
  131 "j_nvg" 126
  132 "j_eyeball_le" 126
  133 "j_eyeball_ri" 126
  134 "j_jaw" 126
  135 "j_proc_spine4" 23
  136 "tag_carry_attach" 135
  137 "j_proc_spineupper" 22
  138 "j_proc_spinelower" 21
  139 "j_groinprotector" 5
  140 "j_crotch" 5
  141 "tag_weapon" 4
  142 "tag_cambone" 2
  143 "tag_camera" 142
  144 "tag_player" 143
  145 "tag_playerhelmet" 143
  146 "tag_camera_scripted" 0
end
skeleton
  time 0
    0 0.000000 0.000000 0.000000 0.000000 0.000000 -1.570796
    1 0.000000 0.000000 0.000000 0.000000 0.000000 0.000000
    2 -0.106000 0.000000 64.320000 0.000000 0.000000 0.000000
    3 0.000000 0.000000 0.000000 0.000000 0.000000 0.000000
    4 -0.904000 0.000000 -11.806000 0.000000 0.000000 0.000000
    5 0.000000 0.000000 -14.313999 0.000000 -1.570796 1.570857
    6 0.000000 0.000000 -4.867001 -3.141536 0.008715 -3.128641
    7 1.000084 -0.000017 0.000013 0.000000 0.000000 -0.000001
    8 17.162540 -0.000194 0.000220 -0.000002 -0.000011 0.119253
    9 17.749382 0.295044 0.000032 0.000002 -0.000001 -1.158987
    10 5.413527 0.000365 -0.000002 -0.000001 0.000000 -0.518050
    11 0.017891 0.299792 0.000000 0.000001 -0.000005 -0.059606
    12 9.999893 -0.000181 0.000128 0.000000 -0.000016 0.000012
    13 0.000000 0.000000 4.867001 -3.141536 0.008715 -3.128641
    14 1.000092 -0.000017 0.000012 0.000000 0.000000 -0.000001
    15 12.283621 1.581611 -4.695846 1.462267 -0.086735 0.090198
    16 17.162546 -0.000194 0.000217 -0.000002 -0.000011 0.119253
    17 17.749382 0.295044 0.000033 0.000002 -0.000001 -1.158987
    18 5.413527 0.000360 -0.000002 -0.000001 0.000000 -0.518053
    19 0.017891 0.299792 0.000001 0.000001 -0.000005 -0.059606
    20 9.499846 0.000328 0.000122 0.000000 -0.000016 0.000037
    21 3.533001 -0.000001 0.000000 0.000000 0.000000 0.000000
    22 6.250000 -0.000002 0.000000 0.000000 0.000000 0.000000
    23 4.531002 -0.000001 0.000000 0.000000 0.000000 0.000000
    24 0.000000 0.000000 0.000000 0.000000 0.000000 0.000000
    25 5.036999 -0.021001 -1.943001 -1.156963 1.547417 -1.157040
    26 5.784616 -0.000039 0.000275 -0.074806 0.826774 -0.247834
    27 0.500229 0.000128 -0.000057 0.000002 0.000000 -0.000002
    28 11.530251 -0.000426 0.000057 -0.000006 -0.000001 -0.819728
    29 10.600060 -0.000383 -0.000652 -0.000002 0.000001 -0.000004
    30 5.651685 19.507776 -44.898495 0.812891 -0.123378 -0.568538
    31 -0.244618 0.021805 0.107394 0.023401 0.097197 0.012063
    32 11.041281 -0.000401 -0.000671 -0.000002 0.000001 -0.000004
    33 -18.909895 -8.427622 0.000534 0.812870 -0.123463 -0.568475
    34 -9.580802 -27.862299 -37.184532 0.812855 -0.123465 -0.568473
    35 0.610310 -0.939533 0.070290 -1.655311 -0.140055 -0.175587
    36 2.619617 0.000134 0.000393 0.201617 -0.020124 0.350088
    37 1.867864 -0.000046 -0.000498 -0.000008 -0.000008 0.463064
    38 0.920006 -0.000298 -0.000416 -0.000008 -0.000007 0.632327
    39 0.599510 0.400700 0.000237 0.000000 0.000000 0.000000
    40 1.200449 0.398926 -0.000730 -0.009468 0.016061 0.007139
    41 0.000108 0.099682 -0.000890 -0.120043 -0.021934 -0.209612
    42 0.639950 -0.199150 0.060177 -1.665968 -0.131394 -0.066421
    43 2.659571 0.000122 -0.000797 0.027385 -0.033346 0.477856
    44 2.008790 -0.000103 -0.000271 0.000021 0.000018 0.978389
    45 1.099682 -0.000419 0.000139 0.000005 0.000007 0.463692
    46 0.000221 0.098995 0.000206 -0.018827 0.010858 -0.239227
    47 0.600181 1.080263 -0.339489 -1.738112 0.020767 0.107413
    48 2.199736 0.000519 0.000130 0.000001 0.000011 0.628158
    49 1.179323 0.000221 -0.000675 -0.000016 -0.000014 0.743204
    50 0.680130 -0.001229 0.000443 0.000005 0.000005 0.546274
    51 -0.000195 0.099627 -0.000029 0.000001 -0.000028 -0.314097
    52 0.599426 0.958698 -0.300690 -0.174553 -0.000008 0.000012
    53 0.609757 0.400167 -0.009399 -1.762279 -0.061627 0.042964
    54 2.560413 -0.000156 0.000034 0.002482 -0.050631 0.521450
    55 1.708752 0.000721 -0.000183 -0.000006 0.000004 0.829235
    56 1.020000 -0.000792 -0.000204 -0.000006 -0.000006 0.566723
    57 0.000134 0.100437 0.000322 -0.010908 0.023152 -0.260856
    58 0.629731 -0.690044 -0.229771 0.087260 0.607383 -1.183286
    59 2.099436 0.000479 -0.000420 -0.242425 0.290017 0.541644
    60 1.290012 -0.000221 0.000591 0.000011 -0.000001 0.367122
    61 0.599888 0.400183 -0.000034 0.000000 0.000000 0.000001
    62 0.999544 0.000381 -1.210197 0.000000 0.000000 0.000000
    63 2.299674 -2.499987 -0.599472 0.891988 0.221535 -0.527294
    64 2.441188 0.008646 0.276371 -1.631657 0.347414 -0.011166
    65 6.507327 18.151707 -45.009403 -0.838302 -0.131076 -0.742271
    66 1.899125 0.000437 -0.000437 0.027400 -0.033318 0.477849
    67 6.702032 18.527327 -44.643631 -0.836672 -0.212982 -0.666084
    68 1.799667 -0.000219 0.000238 0.027380 -0.033308 0.477858
    69 1.799667 -0.000219 0.000238 0.027380 -0.033308 0.477858
    70 6.959258 19.025600 -44.157486 -0.840351 -0.282329 -0.600355
    71 1.900314 -0.000131 -0.000514 0.027395 -0.033316 0.477850
    72 3.999439 -0.000553 -0.000340 -0.000003 0.000001 -0.000003
    73 0.119205 -0.275763 -0.000141 -0.000007 0.000006 0.409855
    74 5.999828 -0.000382 -3.999954 0.000002 -0.000002 -0.000002
    75 5.037998 -0.021001 1.943000 1.156344 -1.547408 -1.156421
    76 5.784617 -0.000024 -0.000179 0.074814 -0.826818 -0.247846
    77 0.500229 0.000131 0.000050 0.000004 0.000000 0.000004
    78 11.529518 -0.000415 -0.001060 -0.000004 0.000006 -0.819722
    79 3.999897 0.000011 0.000946 -0.000005 0.000011 -0.000005
    80 11.041276 -0.000410 0.000481 -0.000005 0.000011 -0.000012
    81 -18.909374 -8.427197 0.000248 2.328716 0.123468 -0.568468
    82 -18.909374 -8.427197 0.000248 2.328716 0.123468 -0.568468
    83 7.228264 7.928273 -3.925644 2.328719 0.123466 -0.568470
    84 0.610313 -0.939531 -0.070301 1.655297 0.140068 -0.175583
    85 2.619613 0.000145 -0.000402 -0.201608 0.020138 0.350093
    86 1.867860 -0.000053 0.000534 0.000008 -0.000005 0.463063
    87 0.919384 0.000404 0.000086 0.000003 -0.000001 0.632326
    88 0.600403 0.399632 -0.000473 0.000000 -0.000007 -3.141592
    89 1.200058 0.399940 -0.000144 0.009476 -0.016090 0.007135
    90 0.000591 0.100346 0.000328 0.120048 0.021924 -0.209608
    91 0.639945 -0.199152 -0.060192 1.665966 0.131397 -0.066404
    92 2.659896 0.000786 0.000168 -0.027380 0.033309 0.477852
    93 2.008772 -0.000893 -0.000389 -0.000004 0.000009 0.978392
    94 1.100357 0.000014 0.000469 0.000010 -0.000011 0.463701
    95 0.000221 0.098999 -0.000210 0.018812 -0.010833 -0.239224
    96 0.600175 1.080267 0.339470 1.738109 -0.020762 0.107426
    97 2.199739 0.000534 -0.000118 0.000001 -0.000002 0.628155
    98 1.180092 0.000378 0.000084 0.000007 -0.000007 0.743203
    99 0.679451 -0.000817 0.000177 -0.000003 0.000004 0.546279
    100 -0.000196 0.099625 0.000034 0.000004 -0.000001 -0.314096
    101 0.599961 0.959282 0.300079 0.174558 0.000000 0.000009
    102 0.610216 0.400736 0.010071 1.762282 0.061632 0.042974
    103 2.560413 -0.000164 -0.000027 -0.002482 0.050639 0.521447
    104 1.708752 0.000725 0.000200 0.000001 0.000000 0.829234
    105 1.019810 -0.000020 -0.000391 0.000002 -0.000004 0.566725
    106 -0.000580 0.100143 0.000309 0.010920 -0.023132 -0.260843
    107 0.630198 -0.689474 0.230446 -0.087269 -0.607394 -1.183269
    108 2.099337 -0.000111 -0.000423 0.242431 -0.290002 0.541636
    109 1.290607 0.000368 -0.000046 -0.000009 -0.000028 0.367127
    110 0.599894 0.400180 0.000015 0.000000 -0.000028 -3.141593
    111 0.999458 -0.000197 1.209373 0.000000 0.000000 0.000000
    112 2.300158 -2.499407 0.600132 -0.892010 -0.221591 -0.527207
    113 2.762361 0.116957 1.523964 1.629483 0.064148 1.743806
    114 2.441186 0.008663 -0.276386 1.631656 -0.347407 -0.011160
    115 6.918145 18.946112 44.347878 -2.260784 0.112082 -0.395141
    116 1.899438 -0.000312 -0.000154 -0.027388 0.033313 0.477851
    117 6.735541 18.563816 44.712017 -2.281094 0.032723 -0.473092
    118 1.799661 -0.000252 -0.000235 -0.027389 0.033313 0.477842
    119 1.799661 -0.000252 -0.000235 -0.027389 0.033313 0.477842
    120 6.492944 18.056187 45.196003 -2.293456 -0.035617 -0.537893
    121 1.900729 0.000552 -0.000071 -0.027398 0.033317 0.477848
    122 10.600054 -0.000399 0.000462 -0.000003 0.000017 -0.000004
    123 0.119663 -0.275200 0.000813 0.000006 0.000017 0.409853
    124 5.999763 -0.000366 4.000057 -0.000002 -0.000002 0.000002
    125 8.823002 -0.000002 0.000000 0.000000 -0.000013 -0.294114
    126 3.116974 -0.000404 -0.000040 0.000004 0.000012 0.294114
    127 6.233002 -0.000002 0.000000 0.000000 0.000000 0.000000
    128 1.598000 0.000000 0.000000 0.000000 0.000000 0.000000
    129 -4.481003 -0.201999 0.000000 0.000000 0.000000 0.000000
    130 -5.516998 -0.290999 -0.001000 0.000000 0.000000 0.000000
    131 6.241997 -6.380002 0.000000 0.000000 0.000000 0.000000
    132 3.512001 -3.547001 -1.066000 0.000000 1.570796 0.000000
    133 3.456001 -3.517002 1.169000 0.000000 1.570796 0.000000
    134 -0.171997 -0.106000 -0.902000 1.570713 1.029179 -3.134551
    135 0.000000 0.000000 0.000000 0.000000 0.000000 0.000000
    136 9.904995 -5.486003 -6.443003 1.570796 0.000000 3.141592
    137 -47.983006 -1.010002 0.000063 -1.570796 -0.000061 -1.570796
    138 0.000000 0.000000 0.000000 0.000000 0.000000 0.000000
    139 3.999992 -6.500003 0.000000 0.000000 0.000014 0.000990
    140 -6.500000 0.000001 0.000000 0.000000 1.570796 0.000000
    141 14.188001 0.000000 0.141998 0.000000 0.000000 0.000000
    142 0.000000 0.000000 0.000000 0.000000 0.000000 0.000000
    143 0.000000 0.000000 0.000000 0.000000 0.000000 0.000000
    144 0.106000 0.000000 -64.320000 0.000000 0.000000 0.000000
    145 0.000000 0.000000 0.000000 0.000000 0.000000 0.000000
    146 -0.106000 0.000000 64.320000 0.000000 0.000000 0.000000
end
