// Created by Crowbar 0.74
version 1
nodes
  0 "tag_barrel_attach" -1
  1 "j_barrel" 0
  2 "j_slide" 0
  3 "tag_flash_attachment" 1
  4 "tag_silencer" 1
  5 "tag_sight_on" 2
end
skeleton
  time 0
    0 0.000000 0.000000 0.000000 0.000000 0.000000 -1.570796
    1 -3.182000 -0.021000 -0.127000 0.000000 0.000000 0.000000
    2 -3.395000 0.000000 -0.111000 0.000000 0.000000 0.000000
    3 4.038000 0.021000 0.000000 0.000000 0.000000 0.000000
    4 3.654000 0.021000 0.000000 0.000000 0.000000 0.000000
    5 -0.141000 0.000000 0.514000 0.000000 0.000000 0.000000
end
