// Created by Crowbar 0.74
version 1
nodes
  0 "tag_hybrid" -1
  1 "j_hybrid_scope" 0
  2 "tag_reticle_attach" 1
  3 "j_magnifier_lever" 0
  4 "tag_glass_ads2" 0
  5 "tag_glass_hip2" 0
  6 "tag_reticle_attach2" 0
end
skeleton
  time 0
    0 0.000000 0.000000 0.000000 0.000000 0.000000 -1.570796
    1 1.086000 -0.661000 -0.149000 0.000000 0.000000 0.000000
    2 -2.112000 0.642000 1.495000 0.000000 0.000000 0.000000
    3 1.067000 0.589000 0.076000 0.000000 0.000000 0.000000
    4 0.000000 -0.019000 0.000000 0.000000 0.000000 0.000000
    5 0.000000 -0.019000 0.000000 0.000000 0.000000 0.000000
    6 3.300000 -0.019000 1.346000 0.000000 0.000000 0.000000
end
