// Created by Crowbar 0.74
version 1
nodes
  0 "ValveBiped.Bip01_R_Hand" -1
  1 "tag_pistol_offset" 0
  2 "j_hammer" 1
  3 "j_trigger" 1
  4 "tag_barrel_attach" 1
  5 "j_slide" 4
  6 "tag_reflex" 5
  7 "tag_sight_on" 5
  8 "tag_brass" 1
  9 "tag_laser_show" 1
  10 "tag_laser_attach" 9
  11 "tag_mag_attach" 1
  12 "tag_pistolgrip_attach" 1
  13 "tag_stock_attach" 1
  14 "j_gun" -1
end
skeleton
  time 0
    0 0.000000 0.000000 0.000000 0.000000 0.000000 -1.570796
    1 -0.600098 1.969727 -0.656250 -1.570792 -1.570790 0.000000
    2 -0.348999 0.000000 0.342999 0.000000 0.000000 0.000000
    3 2.394995 0.000000 0.034000 0.000000 0.000000 0.000000
    4 1.148998 0.000000 0.626999 0.000000 0.000000 0.000000
    5 1.107998 0.000000 0.153000 0.000000 0.000000 0.000000
    6 -2.457995 0.000000 0.450000 0.000000 0.000000 0.000000
    7 0.283000 0.000000 0.659998 0.000000 0.000000 0.000000
    8 1.511997 -0.417999 1.094998 0.000000 0.000000 -1.570755
    9 4.229991 0.000000 0.042000 0.000000 0.000000 0.000000
    10 0.240000 0.000000 -0.662999 0.000000 0.000000 0.000000
    11 1.060998 0.000000 -3.633993 0.000000 0.000000 0.000000
    12 0.194000 0.000000 -2.057996 0.000000 0.000000 0.000000
    13 -0.774998 0.000000 -2.394995 0.000000 0.000000 0.000000
    14 0.000000 0.000000 0.000000 0.000000 0.000000 -1.570796
end
