// Created by Crowbar 0.74
version 1
nodes
  0 "ValveBiped.Bip01_R_Hand" -1
  1 "tag_pistol_offset" 0
  2 "tag_stock_attach" 1
  3 "tag_barrel_attach" 1
  4 "tag_brass" 1
  5 "tag_laser_attach" 1
  6 "tag_mag_attach" 1
  7 "tag_reflex" 1
  8 "tag_scope" 1
  9 "j_trigger" 2
  10 "tag_trigger_hide" 9
  11 "j_magrel" 1
  12 "j_slidelock" 1
  13 "j_hammer" 1
  14 "tag_acog_2" 1
  15 "tag_holo" 1
  16 "ValveBiped.Anim_Attachment_RH" -1
  17 "tag_align_gun" 1
end
skeleton
  time 0
    0 0.000000 0.000000 0.000000 0.000000 0.000000 -1.570796
    1 -0.459473 1.625000 -0.035034 -1.570793 -1.570791 0.000000
    2 -0.242999 0.000001 -1.740997 0.000000 0.000000 0.000001
    3 4.059992 0.000000 0.733998 0.000000 0.000000 0.000000
    4 0.518999 -0.509000 1.733996 0.000000 0.000001 -1.570756
    5 5.792989 0.000000 0.083000 0.000000 0.000000 0.000000
    6 0.503999 0.000001 -3.543993 0.000000 0.000000 0.000000
    7 4.103993 -0.000001 2.042996 0.000000 0.000000 0.000000
    8 4.396992 -0.000001 2.097996 0.000000 0.000000 0.000000
    9 1.718997 -0.000002 2.121995 0.000000 0.000001 0.000000
    10 2.920993 -0.000002 1.661998 0.000000 0.000000 0.000000
    11 0.990999 0.378000 -0.799998 0.000000 0.000000 0.000000
    12 1.464997 0.576999 0.336999 0.000000 0.000000 0.000000
    13 -1.322997 0.000000 0.598999 0.000000 0.000000 0.000000
    14 4.103992 0.000000 2.042996 0.000000 0.000000 0.000000
    15 4.396992 0.000000 2.097996 0.000000 0.000000 0.000000
    16 0.000000 0.000000 0.000000 0.000000 0.000000 -1.570796
    17 -0.569999 -0.000001 2.329995 0.000000 0.000000 0.000000
end
