// Created by Crowbar 0.74
version 1
nodes
  0 "ValveBiped.Bip01_R_Hand" -1
  1 "tag_pistol_offset" 0
  2 "j_cylinder" 1
  3 "j_hammer" 1
  4 "tag_align_gun" 1
  5 "tag_barrel_attach" 1
  6 "tag_brass" 1
  7 "tag_frontend_show" 1
  8 "tag_mag_attach" 1
  9 "tag_pistolgrip_attach" 1
  10 "tag_reflex" 1
  11 "tag_scope" 1
  12 "tag_sight_on" 1
  13 "tag_stock_attach" 1
  14 "j_trigger" 13
  15 "tag_trigger_hide" 14
  16 "j_b_top" 1
  17 "j_b_01" 16
  18 "j_b_02" 16
  19 "j_b_03" 16
  20 "j_b_04" 16
  21 "j_b_05" 16
  22 "j_b_06" 16
  23 "j_cylinder_ejector" 1
  24 "j_cylinder_hinge" 1
  25 "j_cylinder_rel" 1
  26 "j_gun" -1
  27 "tag_stock_hide" 1
  28 "tag_rail" 1
end
skeleton
  time 0
    0 0.000000 0.000000 0.000000 0.000000 0.000000 -1.570796
    1 -1.072254 1.936601 1.112132 0.000000 -1.570796 -1.570796
    2 1.929995 0.000000 0.856999 0.000000 0.000000 0.000000
    3 0.005000 0.000000 0.459999 0.000000 0.000000 0.000000
    4 0.754997 0.000000 2.075996 0.000000 0.000000 0.000000
    5 3.515992 0.000001 1.323999 0.000000 0.000000 0.000000
    6 1.123997 0.000000 0.917999 0.000000 0.000001 -3.141592
    7 2.209995 0.000000 0.917999 0.000000 0.000001 -3.141592
    8 8.911983 0.000004 -1.392992 0.000000 0.000000 0.000000
    9 -1.206998 0.000000 -1.777997 0.000000 -0.000001 0.000000
    10 0.917997 0.000000 2.174996 0.000000 0.000000 0.000000
    11 0.917997 0.000000 2.222996 0.000000 0.000000 0.000000
    12 8.911983 0.000004 -1.392992 0.000000 0.000000 0.000000
    13 -0.965999 0.000000 0.494998 0.000000 -0.000001 0.000000
    14 2.297995 0.000001 -0.919998 0.000000 0.000001 0.000000
    15 0.000000 0.000000 0.000000 0.000000 0.000000 0.000000
    16 1.721996 0.000000 0.856999 0.000000 0.000000 0.000000
    17 0.000000 0.000000 0.465999 0.000000 0.000000 0.000000
    18 0.000000 0.402999 0.233000 0.000000 0.000000 0.000000
    19 0.000000 0.402999 -0.231999 0.000000 0.000000 0.000000
    20 0.000000 0.000000 -0.464999 0.000000 0.000000 0.000000
    21 0.000000 -0.402999 -0.231999 0.000000 0.000000 0.000000
    22 0.000000 -0.402999 0.233000 0.000000 0.000000 0.000000
    23 3.745991 -0.003999 0.840001 0.000000 0.000000 0.000000
    24 2.975995 0.206001 -0.110998 0.000000 0.000000 0.000000
    25 0.466999 0.293999 0.804999 0.000000 0.000000 0.000000
    26 0.000000 0.000000 0.000000 0.000000 0.000000 -1.570796
    27 -0.966001 0.000000 0.495000 0.000000 0.000000 0.000000
    28 8.911999 0.000000 -1.393000 0.000000 0.000000 0.000000
end
