// Created by Crowbar 0.74
version 1
nodes
  0 "pcylinder5" -1
end
skeleton
  time 0
    0 0.000000 0.000000 0.000000 0.000000 0.000000 0.000000
end
triangles
mtl_fx_shell
  0 0.136510 -0.433486 -0.136511 -0.001336 -0.999997 -0.001744 0.238281 0.038086 1 0 1.000000
  0 -0.136510 -0.433486 -0.136510 -0.001336 -0.999997 -0.001744 0.238281 0.184570 1 0 1.000000
  0 0.000000 -0.433486 -0.193055 -0.001336 -0.999997 -0.001744 0.223145 0.111328 1 0 1.000000
mtl_fx_shell
  0 0.193055 -0.433486 0.000000 -0.001426 -0.999997 -0.001744 0.275146 0.007324 1 0 1.000000
  0 -0.136510 -0.433486 -0.136510 -0.001336 -0.999997 -0.001744 0.238281 0.184570 1 0 1.000000
  0 0.136510 -0.433486 -0.136511 -0.001336 -0.999997 -0.001744 0.238281 0.038086 1 0 1.000000
mtl_fx_shell
  0 0.136511 -0.433486 0.136510 -0.001336 -0.999997 -0.001744 0.312012 0.038086 1 0 1.000000
  0 -0.136510 -0.433486 -0.136510 -0.001336 -0.999997 -0.001744 0.238281 0.184570 1 0 1.000000
  0 0.193055 -0.433486 0.000000 -0.001426 -0.999997 -0.001744 0.275146 0.007324 1 0 1.000000
mtl_fx_shell
  0 0.000000 -0.433486 0.193055 -0.001426 -0.999997 -0.001744 0.327148 0.111328 1 0 1.000000
  0 -0.136510 -0.433486 -0.136510 -0.001336 -0.999997 -0.001744 0.238281 0.184570 1 0 1.000000
  0 0.136511 -0.433486 0.136510 -0.001336 -0.999997 -0.001744 0.312012 0.038086 1 0 1.000000
mtl_fx_shell
  0 -0.136510 -0.433486 0.136510 -0.001426 -0.999997 -0.001744 0.312012 0.184570 1 0 1.000000
  0 -0.136510 -0.433486 -0.136510 -0.001336 -0.999997 -0.001744 0.238281 0.184570 1 0 1.000000
  0 0.000000 -0.433486 0.193055 -0.001426 -0.999997 -0.001744 0.327148 0.111328 1 0 1.000000
mtl_fx_shell
  0 -0.193055 -0.433486 0.000000 -0.001426 -0.999997 -0.001744 0.275146 0.215332 1 0 1.000000
  0 -0.136510 -0.433486 -0.136510 -0.001336 -0.999997 -0.001744 0.238281 0.184570 1 0 1.000000
  0 -0.136510 -0.433486 0.136510 -0.001426 -0.999997 -0.001744 0.312012 0.184570 1 0 1.000000
mtl_fx_shell
  0 -0.202967 0.433486 0.000000 0.006915 0.999966 -0.004511 0.114075 0.012207 1 0 1.000000
  0 0.000000 0.433486 -0.202967 0.006915 0.999966 -0.004511 0.016159 0.209473 1 0 1.000000
  0 -0.143520 0.433486 -0.143520 0.006915 0.999966 -0.004511 0.044830 0.069824 1 0 1.000000
mtl_fx_shell
  0 -0.143520 0.433486 0.143520 -0.004112 0.999991 0.001023 0.183228 0.069824 1 0 1.000000
  0 0.000000 0.433486 -0.202967 0.006915 0.999966 -0.004511 0.016159 0.209473 1 0 1.000000
  0 -0.202967 0.433486 0.000000 0.006915 0.999966 -0.004511 0.114075 0.012207 1 0 1.000000
mtl_fx_shell
  0 0.000000 0.433486 0.202967 0.006915 0.999966 -0.004511 0.211914 0.209473 1 0 1.000000
  0 0.000000 0.433486 -0.202967 0.006915 0.999966 -0.004511 0.016159 0.209473 1 0 1.000000
  0 -0.143520 0.433486 0.143520 -0.004112 0.999991 0.001023 0.183228 0.069824 1 0 1.000000
mtl_fx_shell
  0 0.143520 0.433486 0.143520 0.006915 0.999966 -0.004511 0.183228 0.348633 1 0 1.000000
  0 0.000000 0.433486 -0.202967 0.006915 0.999966 -0.004511 0.016159 0.209473 1 0 1.000000
  0 0.000000 0.433486 0.202967 0.006915 0.999966 -0.004511 0.211914 0.209473 1 0 1.000000
mtl_fx_shell
  0 0.202967 0.433486 0.000000 -0.004112 0.999991 0.001023 0.114075 0.406738 1 0 1.000000
  0 0.000000 0.433486 -0.202967 0.006915 0.999966 -0.004511 0.016159 0.209473 1 0 1.000000
  0 0.143520 0.433486 0.143520 0.006915 0.999966 -0.004511 0.183228 0.348633 1 0 1.000000
mtl_fx_shell
  0 0.143520 0.433486 -0.143520 -0.004112 0.999991 0.001023 0.044830 0.348633 1 0 1.000000
  0 0.000000 0.433486 -0.202967 0.006915 0.999966 -0.004511 0.016159 0.209473 1 0 1.000000
  0 0.202967 0.433486 0.000000 -0.004112 0.999991 0.001023 0.114075 0.406738 1 0 1.000000
mtl_fx_shell
  0 -0.143520 0.433486 -0.143520 -0.710372 -0.008380 -0.703776 0.995117 0.128418 1 0 1.000000
  0 -0.193055 -0.433486 0.000000 -0.999883 -0.015200 -0.001759 0.418457 0.005371 1 0 1.000000
  0 -0.202967 0.433486 0.000000 -0.999943 -0.009697 -0.004542 0.995117 0.005371 1 0 1.000000
mtl_fx_shell
  0 -0.143520 0.433486 -0.143520 -0.710372 -0.008380 -0.703776 0.995117 0.128418 1 0 1.000000
  0 -0.136510 -0.433486 -0.136510 -0.708870 -0.012599 -0.705227 0.418457 0.128418 1 0 1.000000
  0 -0.193055 -0.433486 0.000000 -0.999883 -0.015200 -0.001759 0.418457 0.005371 1 0 1.000000
mtl_fx_shell
  0 0.000000 0.433486 -0.202967 -0.004869 -0.008809 -0.999949 0.995117 0.251465 1 0 1.000000
  0 -0.136510 -0.433486 -0.136510 -0.708870 -0.012599 -0.705227 0.418457 0.128418 1 0 1.000000
  0 -0.143520 0.433486 -0.143520 -0.710372 -0.008380 -0.703776 0.995117 0.128418 1 0 1.000000
mtl_fx_shell
  0 0.000000 0.433486 -0.202967 -0.004869 -0.008809 -0.999949 0.995117 0.251465 1 0 1.000000
  0 0.000000 -0.433486 -0.193055 -0.004903 -0.008790 -0.999949 0.418457 0.251465 1 0 1.000000
  0 -0.136510 -0.433486 -0.136510 -0.708870 -0.012599 -0.705227 0.418457 0.128418 1 0 1.000000
mtl_fx_shell
  0 0.143520 0.433486 -0.143520 0.704383 -0.010608 -0.709741 0.995117 0.374023 1 0 1.000000
  0 0.000000 -0.433486 -0.193055 -0.004903 -0.008790 -0.999949 0.418457 0.251465 1 0 1.000000
  0 0.000000 0.433486 -0.202967 -0.004869 -0.008809 -0.999949 0.995117 0.251465 1 0 1.000000
mtl_fx_shell
  0 0.143520 0.433486 -0.143520 0.704383 -0.010608 -0.709741 0.995117 0.374023 1 0 1.000000
  0 0.136510 -0.433486 -0.136511 0.704359 -0.012091 -0.709741 0.418457 0.374023 1 0 1.000000
  0 0.000000 -0.433486 -0.193055 -0.004903 -0.008790 -0.999949 0.418457 0.251465 1 0 1.000000
mtl_fx_shell
  0 0.202967 0.433486 0.000000 0.999833 -0.017904 0.003768 0.995117 0.497070 1 0 1.000000
  0 0.136510 -0.433486 -0.136511 0.704359 -0.012091 -0.709741 0.418457 0.374023 1 0 1.000000
  0 0.143520 0.433486 -0.143520 0.704383 -0.010608 -0.709741 0.995117 0.374023 1 0 1.000000
mtl_fx_shell
  0 0.202967 0.433486 0.000000 0.999833 -0.017904 0.003768 0.995117 0.497070 1 0 1.000000
  0 0.193055 -0.433486 0.000000 0.999867 -0.014724 -0.006940 0.418457 0.497070 1 0 1.000000
  0 0.136510 -0.433486 -0.136511 0.704359 -0.012091 -0.709741 0.418457 0.374023 1 0 1.000000
mtl_fx_shell
  0 0.143520 0.433486 0.143520 0.704789 -0.014095 0.709277 0.995117 0.619873 1 0 1.000000
  0 0.193055 -0.433486 0.000000 0.999867 -0.014724 -0.006940 0.418457 0.497070 1 0 1.000000
  0 0.202967 0.433486 0.000000 0.999833 -0.017904 0.003768 0.995117 0.497070 1 0 1.000000
mtl_fx_shell
  0 0.143520 0.433486 0.143520 0.704789 -0.014095 0.709277 0.995117 0.619873 1 0 1.000000
  0 0.136511 -0.433486 0.136510 0.706337 -0.012622 0.707763 0.418457 0.619873 1 0 1.000000
  0 0.193055 -0.433486 0.000000 0.999867 -0.014724 -0.006940 0.418457 0.497070 1 0 1.000000
mtl_fx_shell
  0 0.000000 0.433486 0.202967 -0.002001 -0.011722 0.999929 0.995117 0.742676 1 0 1.000000
  0 0.136511 -0.433486 0.136510 0.706337 -0.012622 0.707763 0.418457 0.619873 1 0 1.000000
  0 0.143520 0.433486 0.143520 0.704789 -0.014095 0.709277 0.995117 0.619873 1 0 1.000000
mtl_fx_shell
  0 0.000000 0.433486 0.202967 -0.002001 -0.011722 0.999929 0.995117 0.742676 1 0 1.000000
  0 0.000000 -0.433486 0.193055 -0.001909 -0.011738 0.999929 0.418457 0.742676 1 0 1.000000
  0 0.136511 -0.433486 0.136510 0.706337 -0.012622 0.707763 0.418457 0.619873 1 0 1.000000
mtl_fx_shell
  0 -0.143520 0.433486 0.143520 -0.709337 -0.012000 0.704767 0.995117 0.865601 1 0 1.000000
  0 0.000000 -0.433486 0.193055 -0.001909 -0.011738 0.999929 0.418457 0.742676 1 0 1.000000
  0 0.000000 0.433486 0.202967 -0.002001 -0.011722 0.999929 0.995117 0.742676 1 0 1.000000
mtl_fx_shell
  0 -0.143520 0.433486 0.143520 -0.709337 -0.012000 0.704767 0.995117 0.865601 1 0 1.000000
  0 -0.136510 -0.433486 0.136510 -0.707796 -0.013498 0.706288 0.418457 0.865601 1 0 1.000000
  0 0.000000 -0.433486 0.193055 -0.001909 -0.011738 0.999929 0.418457 0.742676 1 0 1.000000
mtl_fx_shell
  0 -0.202967 0.433486 0.000000 -0.999944 -0.009700 0.004113 0.995117 0.988396 1 0 1.000000
  0 -0.136510 -0.433486 0.136510 -0.707796 -0.013498 0.706288 0.418457 0.865601 1 0 1.000000
  0 -0.143520 0.433486 0.143520 -0.709337 -0.012000 0.704767 0.995117 0.865601 1 0 1.000000
mtl_fx_shell
  0 -0.202967 0.433486 0.000000 -0.999944 -0.009700 0.004113 0.995117 0.988396 1 0 1.000000
  0 -0.193055 -0.433486 0.000000 -0.999943 -0.009697 -0.004542 0.418457 0.988396 1 0 1.000000
  0 -0.136510 -0.433486 0.136510 -0.707796 -0.013498 0.706288 0.418457 0.865601 1 0 1.000000
end
