// Created by Crowbar 0.74
version 1
nodes
  0 "tag_origin" -1
end
skeleton
  time 0
    0 0.000000 0.000000 0.000000 0.000000 0.000000 0.000000
end
triangles
vfx_shell_ar
  0 0.068999 -1.003000 -0.103000 0.552141 -0.084717 -0.829436 0.238159 0.107422 1 0 1.000000
  0 0.077999 -0.823000 -0.116001 0.545719 -0.177938 -0.818858 0.302734 0.075195 1 0 1.000000
  0 0.122000 -1.003000 -0.024001 0.976431 -0.087179 -0.197440 0.244751 0.176758 1 0 1.000000
vfx_shell_ar
  0 0.139999 1.003000 0.139999 0.621997 -0.011845 0.782930 0.988281 0.261719 1 0 1.000000
  0 0.157000 -0.623001 0.104000 0.823224 -0.042123 0.566152 0.388916 0.225586 1 0 1.000000
  0 0.182999 1.003000 0.075999 0.955851 -0.013871 0.293525 0.986816 0.205078 1 0 1.000000
vfx_shell_ar
  0 0.182999 1.003000 0.075999 0.955851 -0.013871 0.293525 0.986816 0.205078 1 0 1.000000
  0 0.157000 -0.623001 0.104000 0.823224 -0.042123 0.566152 0.388916 0.225586 1 0 1.000000
  0 0.198000 1.003000 0.000000 0.994579 -0.012406 0.103243 0.985352 0.150391 1 0 1.000000
vfx_shell_ar
  0 0.157000 -0.623001 0.104000 0.823224 -0.042123 0.566152 0.388916 0.225586 1 0 1.000000
  0 0.184999 -0.623001 -0.037000 0.979828 -0.042282 -0.195319 0.385254 0.125000 1 0 1.000000
  0 0.198000 1.003000 0.000000 0.994579 -0.012406 0.103243 0.985352 0.150391 1 0 1.000000
vfx_shell_ar
  0 0.198000 1.003000 0.000000 0.994579 -0.012406 0.103243 0.985352 0.150391 1 0 1.000000
  0 0.184999 -0.623001 -0.037000 0.979828 -0.042282 -0.195319 0.385254 0.125000 1 0 1.000000
  0 0.182999 1.003000 -0.076000 0.880607 -0.010095 -0.473740 0.982910 0.093750 1 0 1.000000
vfx_shell_ar
  0 0.182999 1.003000 -0.076000 0.880607 -0.010095 -0.473740 0.982910 0.093750 1 0 1.000000
  0 0.184999 -0.623001 -0.037000 0.979828 -0.042282 -0.195319 0.385254 0.125000 1 0 1.000000
  0 0.139999 1.003000 -0.140000 0.772027 -0.009760 -0.635515 0.981445 0.036133 1 0 1.000000
vfx_shell_ar
  0 0.139999 1.003000 -0.140000 0.772027 -0.009760 -0.635515 0.981445 0.036133 1 0 1.000000
  0 0.184999 -0.623001 -0.037000 0.979828 -0.042282 -0.195319 0.385254 0.125000 1 0 1.000000
  0 0.104999 -0.623001 -0.157001 0.553689 -0.040153 -0.831755 0.378662 0.022949 1 0 1.000000
vfx_shell_ar
  0 0.104999 -0.623001 -0.157001 0.553689 -0.040153 -0.831755 0.378662 0.022949 1 0 1.000000
  0 0.184999 -0.623001 -0.037000 0.979828 -0.042282 -0.195319 0.385254 0.125000 1 0 1.000000
  0 0.077999 -0.823000 -0.116001 0.545719 -0.177938 -0.818858 0.302734 0.075195 1 0 1.000000
vfx_shell_ar
  0 0.184999 -0.623001 -0.037000 0.979828 -0.042282 -0.195319 0.385254 0.125000 1 0 1.000000
  0 0.136999 -0.823000 -0.027001 0.964764 -0.179726 -0.192168 0.310791 0.154297 1 0 1.000000
  0 0.077999 -0.823000 -0.116001 0.545719 -0.177938 -0.818858 0.302734 0.075195 1 0 1.000000
vfx_shell_ar
  0 0.077999 -0.823000 -0.116001 0.545719 -0.177938 -0.818858 0.302734 0.075195 1 0 1.000000
  0 0.136999 -0.823000 -0.027001 0.964764 -0.179726 -0.192168 0.310791 0.154297 1 0 1.000000
  0 0.122000 -1.003000 -0.024001 0.976431 -0.087179 -0.197440 0.244751 0.176758 1 0 1.000000
vfx_shell_ar
  0 0.122000 -1.003000 -0.024001 0.976431 -0.087179 -0.197440 0.244751 0.176758 1 0 1.000000
  0 0.136999 -0.823000 -0.027001 0.964764 -0.179726 -0.192168 0.310791 0.154297 1 0 1.000000
  0 0.102999 -1.003000 0.068999 0.826516 -0.080414 0.557140 0.248169 0.248535 1 0 1.000000
vfx_shell_ar
  0 0.136999 -0.823000 -0.027001 0.964764 -0.179726 -0.192168 0.310791 0.154297 1 0 1.000000
  0 0.116000 -0.823000 0.077999 0.814508 -0.176522 0.552645 0.314209 0.237793 1 0 1.000000
  0 0.102999 -1.003000 0.068999 0.826516 -0.080414 0.557140 0.248169 0.248535 1 0 1.000000
vfx_shell_ar
  0 0.102999 -1.003000 0.068999 0.826516 -0.080414 0.557140 0.248169 0.248535 1 0 1.000000
  0 0.116000 -0.823000 0.077999 0.814508 -0.176522 0.552645 0.314209 0.237793 1 0 1.000000
  0 0.024000 -1.003000 0.122000 0.192270 -0.085964 0.977570 0.248779 0.323242 1 0 1.000000
vfx_shell_ar
  0 0.116000 -0.823000 0.077999 0.814508 -0.176522 0.552645 0.314209 0.237793 1 0 1.000000
  0 0.027000 -0.823000 0.136999 0.183026 -0.164156 0.969306 0.314941 0.321777 1 0 1.000000
  0 0.024000 -1.003000 0.122000 0.192270 -0.085964 0.977570 0.248779 0.323242 1 0 1.000000
vfx_shell_ar
  0 0.024000 -1.003000 0.122000 0.192270 -0.085964 0.977570 0.248779 0.323242 1 0 1.000000
  0 0.027000 -0.823000 0.136999 0.183026 -0.164156 0.969306 0.314941 0.321777 1 0 1.000000
  0 -0.069000 -1.003000 0.102999 -0.555921 -0.083581 0.827022 0.247559 0.398926 1 0 1.000000
vfx_shell_ar
  0 0.027000 -0.823000 0.136999 0.183026 -0.164156 0.969306 0.314941 0.321777 1 0 1.000000
  0 -0.078000 -0.823000 0.116000 -0.550638 -0.156093 0.820020 0.313721 0.405762 1 0 1.000000
  0 -0.069000 -1.003000 0.102999 -0.555921 -0.083581 0.827022 0.247559 0.398926 1 0 1.000000
vfx_shell_ar
  0 -0.069000 -1.003000 0.102999 -0.555921 -0.083581 0.827022 0.247559 0.398926 1 0 1.000000
  0 -0.078000 -0.823000 0.116000 -0.550638 -0.156093 0.820020 0.313721 0.405762 1 0 1.000000
  0 -0.122001 -1.003000 0.024000 -0.978082 -0.081327 0.191680 0.244751 0.474121 1 0 1.000000
vfx_shell_ar
  0 -0.078000 -0.823000 0.116000 -0.550638 -0.156093 0.820020 0.313721 0.405762 1 0 1.000000
  0 -0.137000 -0.823000 0.027000 -0.969124 -0.157806 0.189463 0.310547 0.489258 1 0 1.000000
  0 -0.122001 -1.003000 0.024000 -0.978082 -0.081327 0.191680 0.244751 0.474121 1 0 1.000000
vfx_shell_ar
  0 -0.122001 -1.003000 0.024000 -0.978082 -0.081327 0.191680 0.244751 0.474121 1 0 1.000000
  0 -0.137000 -0.823000 0.027000 -0.969124 -0.157806 0.189463 0.310547 0.489258 1 0 1.000000
  0 -0.103000 -1.003000 -0.069000 -0.831630 -0.082971 -0.549097 0.240234 0.548096 1 0 1.000000
vfx_shell_ar
  0 0.157000 -0.623001 0.104000 0.823224 -0.042123 0.566152 0.388916 0.225586 1 0 1.000000
  0 0.136999 -0.823000 -0.027001 0.964764 -0.179726 -0.192168 0.310791 0.154297 1 0 1.000000
  0 0.184999 -0.623001 -0.037000 0.979828 -0.042282 -0.195319 0.385254 0.125000 1 0 1.000000
vfx_shell_ar
  0 0.157000 -0.623001 0.104000 0.823224 -0.042123 0.566152 0.388916 0.225586 1 0 1.000000
  0 0.116000 -0.823000 0.077999 0.814508 -0.176522 0.552645 0.314209 0.237793 1 0 1.000000
  0 0.136999 -0.823000 -0.027001 0.964764 -0.179726 -0.192168 0.310791 0.154297 1 0 1.000000
vfx_shell_ar
  0 0.036999 -0.624000 0.179000 0.178362 -0.040413 0.983135 0.389404 0.320313 1 0 1.000000
  0 0.116000 -0.823000 0.077999 0.814508 -0.176522 0.552645 0.314209 0.237793 1 0 1.000000
  0 0.157000 -0.623001 0.104000 0.823224 -0.042123 0.566152 0.388916 0.225586 1 0 1.000000
vfx_shell_ar
  0 0.036999 -0.624000 0.179000 0.178362 -0.040413 0.983135 0.389404 0.320313 1 0 1.000000
  0 0.027000 -0.823000 0.136999 0.183026 -0.164156 0.969306 0.314941 0.321777 1 0 1.000000
  0 0.116000 -0.823000 0.077999 0.814508 -0.176522 0.552645 0.314209 0.237793 1 0 1.000000
vfx_shell_ar
  0 -0.100001 -0.624000 0.150000 -0.561732 -0.039076 0.826396 0.387939 0.414551 1 0 1.000000
  0 0.027000 -0.823000 0.136999 0.183026 -0.164156 0.969306 0.314941 0.321777 1 0 1.000000
  0 0.036999 -0.624000 0.179000 0.178362 -0.040413 0.983135 0.389404 0.320313 1 0 1.000000
vfx_shell_ar
  0 -0.100001 -0.624000 0.150000 -0.561732 -0.039076 0.826396 0.387939 0.414551 1 0 1.000000
  0 -0.078000 -0.823000 0.116000 -0.550638 -0.156093 0.820020 0.313721 0.405762 1 0 1.000000
  0 0.027000 -0.823000 0.136999 0.183026 -0.164156 0.969306 0.314941 0.321777 1 0 1.000000
vfx_shell_ar
  0 -0.177001 -0.624000 0.034999 -0.981318 -0.039239 0.188347 0.384521 0.506592 1 0 1.000000
  0 -0.078000 -0.823000 0.116000 -0.550638 -0.156093 0.820020 0.313721 0.405762 1 0 1.000000
  0 -0.100001 -0.624000 0.150000 -0.561732 -0.039076 0.826396 0.387939 0.414551 1 0 1.000000
vfx_shell_ar
  0 -0.177001 -0.624000 0.034999 -0.981318 -0.039239 0.188347 0.384521 0.506592 1 0 1.000000
  0 -0.137000 -0.823000 0.027000 -0.969124 -0.157806 0.189463 0.310547 0.489258 1 0 1.000000
  0 -0.078000 -0.823000 0.116000 -0.550638 -0.156093 0.820020 0.313721 0.405762 1 0 1.000000
vfx_shell_ar
  0 -0.177001 -0.624000 0.034999 -0.981318 -0.039239 0.188347 0.384521 0.506592 1 0 1.000000
  0 -0.116001 -0.823000 -0.078000 -0.824163 -0.159972 -0.543290 0.305420 0.572021 1 0 1.000000
  0 -0.137000 -0.823000 0.027000 -0.969124 -0.157806 0.189463 0.310547 0.489258 1 0 1.000000
vfx_shell_ar
  0 -0.150001 -0.624000 -0.101000 -0.833802 -0.040427 -0.550581 0.378662 0.599854 1 0 1.000000
  0 -0.116001 -0.823000 -0.078000 -0.824163 -0.159972 -0.543290 0.305420 0.572021 1 0 1.000000
  0 -0.177001 -0.624000 0.034999 -0.981318 -0.039239 0.188347 0.384521 0.506592 1 0 1.000000
vfx_shell_ar
  0 -0.150001 -0.624000 -0.101000 -0.833802 -0.040427 -0.550581 0.378662 0.599854 1 0 1.000000
  0 -0.027001 -0.823000 -0.137000 -0.200805 -0.169267 -0.964897 0.298096 0.653809 1 0 1.000000
  0 -0.116001 -0.823000 -0.078000 -0.824163 -0.159972 -0.543290 0.305420 0.572021 1 0 1.000000
vfx_shell_ar
  0 -0.150001 -0.624000 -0.101000 -0.833802 -0.040427 -0.550581 0.378662 0.599854 1 0 1.000000
  0 -0.035000 -0.624000 -0.183000 -0.210624 -0.038341 -0.976815 0.370605 0.696289 1 0 1.000000
  0 -0.027001 -0.823000 -0.137000 -0.200805 -0.169267 -0.964897 0.298096 0.653809 1 0 1.000000
vfx_shell_ar
  0 -0.137000 -0.823000 0.027000 -0.969124 -0.157806 0.189463 0.310547 0.489258 1 0 1.000000
  0 -0.116001 -0.823000 -0.078000 -0.824163 -0.159972 -0.543290 0.305420 0.572021 1 0 1.000000
  0 -0.103000 -1.003000 -0.069000 -0.831630 -0.082971 -0.549097 0.240234 0.548096 1 0 1.000000
vfx_shell_ar
  0 -0.103000 -1.003000 -0.069000 -0.831630 -0.082971 -0.549097 0.240234 0.548096 1 0 1.000000
  0 -0.116001 -0.823000 -0.078000 -0.824163 -0.159972 -0.543290 0.305420 0.572021 1 0 1.000000
  0 -0.024001 -1.003000 -0.122001 -0.196257 -0.085443 -0.976823 0.233521 0.619141 1 0 1.000000
vfx_shell_ar
  0 -0.116001 -0.823000 -0.078000 -0.824163 -0.159972 -0.543290 0.305420 0.572021 1 0 1.000000
  0 -0.027001 -0.823000 -0.137000 -0.200805 -0.169267 -0.964897 0.298096 0.653809 1 0 1.000000
  0 -0.024001 -1.003000 -0.122001 -0.196257 -0.085443 -0.976823 0.233521 0.619141 1 0 1.000000
vfx_shell_ar
  0 -0.024001 -1.003000 -0.122001 -0.196257 -0.085443 -0.976823 0.233521 0.619141 1 0 1.000000
  0 -0.027001 -0.823000 -0.137000 -0.200805 -0.169267 -0.964897 0.298096 0.653809 1 0 1.000000
  0 0.068999 -1.003000 -0.103000 0.551136 -0.082515 -0.830326 0.223511 0.686768 1 0 1.000000
vfx_shell_ar
  0 0.068999 -1.003000 -0.103000 0.551136 -0.082515 -0.830326 0.223511 0.686768 1 0 1.000000
  0 -0.027001 -0.823000 -0.137000 -0.200805 -0.169267 -0.964897 0.298096 0.653809 1 0 1.000000
  0 0.077999 -0.823000 -0.116001 0.543036 -0.175689 -0.821124 0.286621 0.730957 1 0 1.000000
vfx_shell_ar
  0 -0.027001 -0.823000 -0.137000 -0.200805 -0.169267 -0.964897 0.298096 0.653809 1 0 1.000000
  0 -0.035000 -0.624000 -0.183000 -0.210624 -0.038341 -0.976815 0.370605 0.696289 1 0 1.000000
  0 0.077999 -0.823000 -0.116001 0.543036 -0.175689 -0.821124 0.286621 0.730957 1 0 1.000000
vfx_shell_ar
  0 0.077999 -0.823000 -0.116001 0.543036 -0.175689 -0.821124 0.286621 0.730957 1 0 1.000000
  0 -0.035000 -0.624000 -0.183000 -0.210624 -0.038341 -0.976815 0.370605 0.696289 1 0 1.000000
  0 0.104999 -0.623001 -0.157001 0.555084 -0.039796 -0.830842 0.359619 0.795532 1 0 1.000000
vfx_shell_ar
  0 0.104999 -0.623001 -0.157001 0.555084 -0.039796 -0.830842 0.359619 0.795532 1 0 1.000000
  0 0.075999 1.003000 -0.183000 0.282636 -0.007672 -0.959197 0.958008 0.911682 1 0 1.000000
  0 0.139999 1.003000 -0.140000 0.772145 -0.010468 -0.635360 0.953613 0.968109 1 0 1.000000
vfx_shell_ar
  0 0.104999 -0.623001 -0.157001 0.555084 -0.039796 -0.830842 0.359619 0.795532 1 0 1.000000
  0 0.000000 1.003000 -0.198001 0.089687 -0.011804 -0.995900 0.963379 0.854858 1 0 1.000000
  0 0.075999 1.003000 -0.183000 0.282636 -0.007672 -0.959197 0.958008 0.911682 1 0 1.000000
vfx_shell_ar
  0 0.104999 -0.623001 -0.157001 0.555084 -0.039796 -0.830842 0.359619 0.795532 1 0 1.000000
  0 -0.035000 -0.624000 -0.183000 -0.210624 -0.038341 -0.976815 0.370605 0.696289 1 0 1.000000
  0 0.000000 1.003000 -0.198001 0.089687 -0.011804 -0.995900 0.963379 0.854858 1 0 1.000000
vfx_shell_ar
  0 -0.035000 -0.624000 -0.183000 -0.210624 -0.038341 -0.976815 0.370605 0.696289 1 0 1.000000
  0 -0.076000 1.003000 -0.183000 -0.487593 -0.010057 -0.873013 0.968262 0.797485 1 0 1.000000
  0 0.000000 1.003000 -0.198001 0.089687 -0.011804 -0.995900 0.963379 0.854858 1 0 1.000000
vfx_shell_ar
  0 -0.150001 -0.624000 -0.101000 -0.833802 -0.040427 -0.550581 0.378662 0.599854 1 0 1.000000
  0 -0.076000 1.003000 -0.183000 -0.487593 -0.010057 -0.873013 0.968262 0.797485 1 0 1.000000
  0 -0.035000 -0.624000 -0.183000 -0.210624 -0.038341 -0.976815 0.370605 0.696289 1 0 1.000000
vfx_shell_ar
  0 -0.150001 -0.624000 -0.101000 -0.833802 -0.040427 -0.550581 0.378662 0.599854 1 0 1.000000
  0 -0.140000 1.003000 -0.140000 -0.648807 -0.015048 -0.760804 0.973145 0.739258 1 0 1.000000
  0 -0.076000 1.003000 -0.183000 -0.487593 -0.010057 -0.873013 0.968262 0.797485 1 0 1.000000
vfx_shell_ar
  0 -0.183000 1.003000 -0.076000 -0.957389 -0.013044 -0.288507 0.977051 0.680420 1 0 1.000000
  0 -0.140000 1.003000 -0.140000 -0.648807 -0.015048 -0.760804 0.973145 0.739258 1 0 1.000000
  0 -0.150001 -0.624000 -0.101000 -0.833802 -0.040427 -0.550581 0.378662 0.599854 1 0 1.000000
vfx_shell_ar
  0 -0.183000 1.003000 -0.076000 -0.957389 -0.013044 -0.288507 0.977051 0.680420 1 0 1.000000
  0 -0.150001 -0.624000 -0.101000 -0.833802 -0.040427 -0.550581 0.378662 0.599854 1 0 1.000000
  0 -0.177001 -0.624000 0.034999 -0.981318 -0.039239 0.188347 0.384521 0.506592 1 0 1.000000
vfx_shell_ar
  0 -0.183000 1.003000 -0.076000 -0.957389 -0.013044 -0.288507 0.977051 0.680420 1 0 1.000000
  0 -0.177001 -0.624000 0.034999 -0.981318 -0.039239 0.188347 0.384521 0.506592 1 0 1.000000
  0 -0.198001 1.003000 0.000000 -0.995602 -0.014379 -0.092569 0.980469 0.621094 1 0 1.000000
vfx_shell_ar
  0 -0.198001 1.003000 0.000000 -0.995602 -0.014379 -0.092569 0.980469 0.621094 1 0 1.000000
  0 -0.177001 -0.624000 0.034999 -0.981318 -0.039239 0.188347 0.384521 0.506592 1 0 1.000000
  0 -0.183000 1.003000 0.075999 -0.884570 -0.013534 0.466211 0.983398 0.561523 1 0 1.000000
vfx_shell_ar
  0 -0.183000 1.003000 0.075999 -0.884570 -0.013534 0.466211 0.983398 0.561523 1 0 1.000000
  0 -0.177001 -0.624000 0.034999 -0.981318 -0.039239 0.188347 0.384521 0.506592 1 0 1.000000
  0 -0.100001 -0.624000 0.150000 -0.561732 -0.039076 0.826396 0.387939 0.414551 1 0 1.000000
vfx_shell_ar
  0 -0.183000 1.003000 0.075999 -0.884570 -0.013534 0.466211 0.983398 0.561523 1 0 1.000000
  0 -0.100001 -0.624000 0.150000 -0.561732 -0.039076 0.826396 0.387939 0.414551 1 0 1.000000
  0 -0.140000 1.003000 0.139999 -0.772864 -0.013720 0.634424 0.985840 0.501709 1 0 1.000000
vfx_shell_ar
  0 -0.140000 1.003000 0.139999 -0.772864 -0.013720 0.634424 0.985840 0.501709 1 0 1.000000
  0 -0.100001 -0.624000 0.150000 -0.561732 -0.039076 0.826396 0.387939 0.414551 1 0 1.000000
  0 -0.076000 1.003000 0.182999 -0.299840 -0.013403 0.953895 0.987305 0.441406 1 0 1.000000
vfx_shell_ar
  0 -0.076000 1.003000 0.182999 -0.299840 -0.013403 0.953895 0.987305 0.441406 1 0 1.000000
  0 -0.100001 -0.624000 0.150000 -0.561732 -0.039076 0.826396 0.387939 0.414551 1 0 1.000000
  0 0.000000 1.003000 0.198000 -0.103686 -0.014148 0.994509 0.988281 0.381836 1 0 1.000000
vfx_shell_ar
  0 -0.100001 -0.624000 0.150000 -0.561732 -0.039076 0.826396 0.387939 0.414551 1 0 1.000000
  0 0.036999 -0.624000 0.179000 0.178362 -0.040413 0.983135 0.389404 0.320313 1 0 1.000000
  0 0.000000 1.003000 0.198000 -0.103686 -0.014148 0.994509 0.988281 0.381836 1 0 1.000000
vfx_shell_ar
  0 0.000000 1.003000 0.198000 -0.103686 -0.014148 0.994509 0.988281 0.381836 1 0 1.000000
  0 0.036999 -0.624000 0.179000 0.178362 -0.040413 0.983135 0.389404 0.320313 1 0 1.000000
  0 0.075999 1.003000 0.182999 0.454199 -0.012925 0.890807 0.988770 0.321777 1 0 1.000000
vfx_shell_ar
  0 0.075999 1.003000 0.182999 0.454199 -0.012925 0.890807 0.988770 0.321777 1 0 1.000000
  0 0.036999 -0.624000 0.179000 0.178362 -0.040413 0.983135 0.389404 0.320313 1 0 1.000000
  0 0.157000 -0.623001 0.104000 0.823224 -0.042123 0.566152 0.388916 0.225586 1 0 1.000000
vfx_shell_ar
  0 0.075999 1.003000 0.182999 0.454199 -0.012925 0.890807 0.988770 0.321777 1 0 1.000000
  0 0.157000 -0.623001 0.104000 0.823224 -0.042123 0.566152 0.388916 0.225586 1 0 1.000000
  0 0.139999 1.003000 0.139999 0.621997 -0.011845 0.782930 0.988281 0.261719 1 0 1.000000
vfx_shell_ar
  0 -0.069000 -1.003000 0.102999 -0.001074 -0.999999 0.000930 0.068604 0.608643 1 0 1.000000
  0 0.102999 -1.003000 0.068999 -0.001074 -0.999999 0.000930 0.011101 0.859741 1 0 1.000000
  0 0.024000 -1.003000 0.122000 -0.001486 -0.999996 -0.002548 0.013901 0.710449 1 0 1.000000
vfx_shell_ar
  0 -0.122001 -1.003000 0.024000 -0.001460 -0.999995 -0.002624 0.143311 0.614014 1 0 1.000000
  0 0.102999 -1.003000 0.068999 -0.001074 -0.999999 0.000930 0.011101 0.859741 1 0 1.000000
  0 -0.069000 -1.003000 0.102999 -0.001074 -0.999999 0.000930 0.068604 0.608643 1 0 1.000000
vfx_shell_ar
  0 -0.122001 -1.003000 0.024000 -0.001460 -0.999995 -0.002624 0.143311 0.614014 1 0 1.000000
  0 0.122000 -1.003000 -0.024001 -0.001460 -0.999995 -0.002624 0.062012 0.969299 1 0 1.000000
  0 0.102999 -1.003000 0.068999 -0.001074 -0.999999 0.000930 0.011101 0.859741 1 0 1.000000
vfx_shell_ar
  0 -0.103000 -1.003000 -0.069000 0.001123 -0.999999 0.000930 0.194214 0.723633 1 0 1.000000
  0 0.122000 -1.003000 -0.024001 -0.001460 -0.999995 -0.002624 0.062012 0.969299 1 0 1.000000
  0 -0.122001 -1.003000 0.024000 -0.001460 -0.999995 -0.002624 0.143311 0.614014 1 0 1.000000
vfx_shell_ar
  0 -0.103000 -1.003000 -0.069000 0.001123 -0.999999 0.000930 0.194214 0.723633 1 0 1.000000
  0 0.068999 -1.003000 -0.103000 -0.001074 -0.999999 0.000930 0.136719 0.974899 1 0 1.000000
  0 0.122000 -1.003000 -0.024001 -0.001460 -0.999995 -0.002624 0.062012 0.969299 1 0 1.000000
vfx_shell_ar
  0 -0.024001 -1.003000 -0.122001 -0.001486 -0.999996 -0.002548 0.191406 0.873047 1 0 1.000000
  0 0.068999 -1.003000 -0.103000 -0.001074 -0.999999 0.000930 0.136719 0.974899 1 0 1.000000
  0 -0.103000 -1.003000 -0.069000 0.001123 -0.999999 0.000930 0.194214 0.723633 1 0 1.000000
vfx_shell_ar
  0 0.075999 1.003000 0.182999 -0.000384 0.999997 -0.002172 0.070923 0.053223 1 0 1.000000
  0 -0.076000 1.003000 0.182999 0.002753 0.999996 -0.000062 0.017700 0.183594 1 0 1.000000
  0 0.000000 1.003000 0.198000 0.001136 0.999999 0.001108 0.037506 0.107422 1 0 1.000000
vfx_shell_ar
  0 0.075999 1.003000 0.182999 -0.000384 0.999997 -0.002172 0.070923 0.053223 1 0 1.000000
  0 -0.140000 1.003000 0.139999 -0.000287 0.999998 -0.001935 0.013100 0.269043 1 0 1.000000
  0 -0.076000 1.003000 0.182999 0.002753 0.999996 -0.000062 0.017700 0.183594 1 0 1.000000
vfx_shell_ar
  0 0.139999 1.003000 0.139999 0.001157 0.999993 -0.003418 0.111877 0.027344 1 0 1.000000
  0 -0.140000 1.003000 0.139999 -0.000287 0.999998 -0.001935 0.013100 0.269043 1 0 1.000000
  0 0.075999 1.003000 0.182999 -0.000384 0.999997 -0.002172 0.070923 0.053223 1 0 1.000000
vfx_shell_ar
  0 0.139999 1.003000 0.139999 0.001157 0.999993 -0.003418 0.111877 0.027344 1 0 1.000000
  0 -0.183000 1.003000 0.075999 0.002753 0.999996 -0.000062 0.026093 0.351074 1 0 1.000000
  0 -0.140000 1.003000 0.139999 -0.000287 0.999998 -0.001935 0.013100 0.269043 1 0 1.000000
vfx_shell_ar
  0 0.182999 1.003000 0.075999 0.002753 0.999996 -0.000062 0.154663 0.036133 1 0 1.000000
  0 -0.183000 1.003000 0.075999 0.002753 0.999996 -0.000062 0.026093 0.351074 1 0 1.000000
  0 0.139999 1.003000 0.139999 0.001157 0.999993 -0.003418 0.111877 0.027344 1 0 1.000000
vfx_shell_ar
  0 0.198000 1.003000 0.000000 -0.000206 0.999998 -0.001736 0.192749 0.076172 1 0 1.000000
  0 -0.183000 1.003000 0.075999 0.002753 0.999996 -0.000062 0.026093 0.351074 1 0 1.000000
  0 0.182999 1.003000 0.075999 0.002753 0.999996 -0.000062 0.154663 0.036133 1 0 1.000000
vfx_shell_ar
  0 0.198000 1.003000 0.000000 -0.000206 0.999998 -0.001736 0.192749 0.076172 1 0 1.000000
  0 -0.198001 1.003000 0.000000 -0.000206 0.999998 -0.001736 0.053101 0.417969 1 0 1.000000
  0 -0.183000 1.003000 0.075999 0.002753 0.999996 -0.000062 0.026093 0.351074 1 0 1.000000
vfx_shell_ar
  0 0.182999 1.003000 -0.076000 -0.000206 0.999998 -0.001736 0.219849 0.142578 1 0 1.000000
  0 -0.198001 1.003000 0.000000 -0.000206 0.999998 -0.001736 0.053101 0.417969 1 0 1.000000
  0 0.198000 1.003000 0.000000 -0.000206 0.999998 -0.001736 0.192749 0.076172 1 0 1.000000
vfx_shell_ar
  0 0.182999 1.003000 -0.076000 -0.000206 0.999998 -0.001736 0.219849 0.142578 1 0 1.000000
  0 -0.183000 1.003000 -0.076000 0.002753 0.999996 -0.000062 0.091309 0.457520 1 0 1.000000
  0 -0.198001 1.003000 0.000000 -0.000206 0.999998 -0.001736 0.053101 0.417969 1 0 1.000000
vfx_shell_ar
  0 0.139999 1.003000 -0.140000 -0.000287 0.999998 -0.001935 0.232666 0.224609 1 0 1.000000
  0 -0.183000 1.003000 -0.076000 0.002753 0.999996 -0.000062 0.091309 0.457520 1 0 1.000000
  0 0.182999 1.003000 -0.076000 -0.000206 0.999998 -0.001736 0.219849 0.142578 1 0 1.000000
vfx_shell_ar
  0 0.139999 1.003000 -0.140000 -0.000287 0.999998 -0.001935 0.232666 0.224609 1 0 1.000000
  0 -0.140000 1.003000 -0.140000 0.002838 0.999996 0.000114 0.134033 0.466797 1 0 1.000000
  0 -0.183000 1.003000 -0.076000 0.002753 0.999996 -0.000062 0.091309 0.457520 1 0 1.000000
vfx_shell_ar
  0 0.139999 1.003000 -0.140000 -0.000287 0.999998 -0.001935 0.232666 0.224609 1 0 1.000000
  0 -0.076000 1.003000 -0.183000 0.002537 0.999997 -0.000528 0.175049 0.440918 1 0 1.000000
  0 -0.140000 1.003000 -0.140000 0.002838 0.999996 0.000114 0.134033 0.466797 1 0 1.000000
vfx_shell_ar
  0 0.075999 1.003000 -0.183000 0.002753 0.999996 -0.000062 0.228271 0.310547 1 0 1.000000
  0 -0.076000 1.003000 -0.183000 0.002537 0.999997 -0.000528 0.175049 0.440918 1 0 1.000000
  0 0.139999 1.003000 -0.140000 -0.000287 0.999998 -0.001935 0.232666 0.224609 1 0 1.000000
vfx_shell_ar
  0 0.000000 1.003000 -0.198001 -0.001898 0.999998 -0.000819 0.208374 0.386719 1 0 1.000000
  0 -0.076000 1.003000 -0.183000 0.002537 0.999997 -0.000528 0.175049 0.440918 1 0 1.000000
  0 0.075999 1.003000 -0.183000 0.002753 0.999996 -0.000062 0.228271 0.310547 1 0 1.000000
end
