// Created by Crowbar 0.74
version 1
nodes
  0 "average5" -1
end
skeleton
  time 0
    0 0.000000 0.000000 0.000000 0.000000 0.000000 0.000000
end
triangles
mtl_fx_shell
  0 -0.000001 -1.156276 -0.171717 -0.002965 -0.999988 0.003745 0.275635 0.010254 1 0 1.000000
  0 -0.171933 -1.156276 -0.000001 -0.002944 -0.999988 0.003882 0.224976 0.110840 1 0 1.000000
  0 -0.121250 -1.156276 -0.121291 -0.002982 -0.999989 0.003485 0.241333 0.041504 1 0 1.000000
mtl_fx_shell
  0 0.121249 -1.156276 -0.121291 -0.004880 -0.999980 0.003905 0.309814 0.041504 1 0 1.000000
  0 -0.171933 -1.156276 -0.000001 -0.002944 -0.999988 0.003882 0.224976 0.110840 1 0 1.000000
  0 -0.000001 -1.156276 -0.171717 -0.002965 -0.999988 0.003745 0.275635 0.010254 1 0 1.000000
mtl_fx_shell
  0 0.121249 -1.156276 -0.121291 -0.004880 -0.999980 0.003905 0.309814 0.041504 1 0 1.000000
  0 -0.121250 -1.156276 0.121290 -0.002934 -0.999996 -0.000001 0.241333 0.180176 1 0 1.000000
  0 -0.171933 -1.156276 -0.000001 -0.002944 -0.999988 0.003882 0.224976 0.110840 1 0 1.000000
mtl_fx_shell
  0 0.171932 -1.156276 -0.000001 -0.002934 -0.999996 -0.000001 0.326172 0.110840 1 0 1.000000
  0 -0.121250 -1.156276 0.121290 -0.002934 -0.999996 -0.000001 0.241333 0.180176 1 0 1.000000
  0 0.121249 -1.156276 -0.121291 -0.004880 -0.999980 0.003905 0.309814 0.041504 1 0 1.000000
mtl_fx_shell
  0 0.121249 -1.156276 0.121290 -0.002934 -0.999996 -0.000001 0.309814 0.180176 1 0 1.000000
  0 -0.121250 -1.156276 0.121290 -0.002934 -0.999996 -0.000001 0.241333 0.180176 1 0 1.000000
  0 0.171932 -1.156276 -0.000001 -0.002934 -0.999996 -0.000001 0.326172 0.110840 1 0 1.000000
mtl_fx_shell
  0 -0.000001 -1.156276 0.171716 -0.002934 -0.999996 -0.000001 0.275635 0.211426 1 0 1.000000
  0 -0.121250 -1.156276 0.121290 -0.002934 -0.999996 -0.000001 0.241333 0.180176 1 0 1.000000
  0 0.121249 -1.156276 0.121290 -0.002934 -0.999996 -0.000001 0.309814 0.180176 1 0 1.000000
mtl_fx_shell
  0 -0.176963 1.156276 0.177021 -0.004869 0.999981 0.003882 0.181641 0.345215 1 0 1.000000
  0 -0.176963 1.156276 -0.177023 -0.000974 0.999992 0.003905 0.181641 0.071777 1 0 1.000000
  0 -0.250935 1.156276 -0.000001 -0.002934 0.999996 -0.000001 0.213501 0.208496 1 0 1.000000
mtl_fx_shell
  0 -0.000001 1.156276 0.250617 -0.004869 0.999981 0.003882 0.114075 0.407227 1 0 1.000000
  0 -0.176963 1.156276 -0.177023 -0.000974 0.999992 0.003905 0.181641 0.071777 1 0 1.000000
  0 -0.176963 1.156276 0.177021 -0.004869 0.999981 0.003882 0.181641 0.345215 1 0 1.000000
mtl_fx_shell
  0 0.176963 1.156276 0.177021 -0.002955 0.999988 0.003829 0.046570 0.345215 1 0 1.000000
  0 -0.176963 1.156276 -0.177023 -0.000974 0.999992 0.003905 0.181641 0.071777 1 0 1.000000
  0 -0.000001 1.156276 0.250617 -0.004869 0.999981 0.003882 0.114075 0.407227 1 0 1.000000
mtl_fx_shell
  0 0.250934 1.156276 -0.000001 -0.002934 0.999996 -0.000001 0.014702 0.208496 1 0 1.000000
  0 -0.176963 1.156276 -0.177023 -0.000974 0.999992 0.003905 0.181641 0.071777 1 0 1.000000
  0 0.176963 1.156276 0.177021 -0.002955 0.999988 0.003829 0.046570 0.345215 1 0 1.000000
mtl_fx_shell
  0 0.176963 1.156276 -0.177023 -0.002934 0.999996 -0.000001 0.046570 0.071777 1 0 1.000000
  0 -0.176963 1.156276 -0.177023 -0.000974 0.999992 0.003905 0.181641 0.071777 1 0 1.000000
  0 0.250934 1.156276 -0.000001 -0.002934 0.999996 -0.000001 0.014702 0.208496 1 0 1.000000
mtl_fx_shell
  0 -0.000001 1.156276 -0.250618 -0.002934 0.999996 -0.000001 0.114075 0.009277 1 0 1.000000
  0 -0.176963 1.156276 -0.177023 -0.000974 0.999992 0.003905 0.181641 0.071777 1 0 1.000000
  0 0.176963 1.156276 -0.177023 -0.002934 0.999996 -0.000001 0.046570 0.071777 1 0 1.000000
mtl_fx_shell
  0 -0.000001 -0.531797 -0.237360 -0.001263 -0.239808 -0.970819 0.411621 0.231445 1 0 1.000000
  0 -0.121250 -0.797758 -0.121291 -0.688517 -0.238726 -0.684803 0.330322 0.157715 1 0 1.000000
  0 -0.167602 -0.531797 -0.167659 -0.689957 -0.236146 -0.684247 0.411621 0.157715 1 0 1.000000
mtl_fx_shell
  0 -0.000001 -0.531797 -0.237360 -0.001263 -0.239808 -0.970819 0.411621 0.231445 1 0 1.000000
  0 -0.000001 -0.797758 -0.171717 -0.001263 -0.239808 -0.970819 0.330322 0.229492 1 0 1.000000
  0 -0.121250 -0.797758 -0.121291 -0.688517 -0.238726 -0.684803 0.330322 0.157715 1 0 1.000000
mtl_fx_shell
  0 -0.000001 -0.531797 -0.237360 -0.001263 -0.239808 -0.970819 0.411621 0.231445 1 0 1.000000
  0 0.121249 -0.797758 -0.121291 0.684388 -0.238971 -0.688844 0.330322 0.336914 1 0 1.000000
  0 -0.000001 -0.797758 -0.171717 -0.001263 -0.239808 -0.970819 0.330322 0.229492 1 0 1.000000
mtl_fx_shell
  0 0.167602 -0.531797 -0.167659 0.683288 -0.239278 -0.689829 0.411621 0.340820 1 0 1.000000
  0 0.121249 -0.797758 -0.121291 0.684388 -0.238971 -0.688844 0.330322 0.336914 1 0 1.000000
  0 -0.000001 -0.531797 -0.237360 -0.001263 -0.239808 -0.970819 0.411621 0.231445 1 0 1.000000
mtl_fx_shell
  0 0.167602 -0.531797 -0.167659 0.683288 -0.239278 -0.689829 0.411621 0.340820 1 0 1.000000
  0 0.171932 -0.797758 -0.000001 0.970290 -0.241909 0.004051 0.330322 0.445313 1 0 1.000000
  0 0.121249 -0.797758 -0.121291 0.684388 -0.238971 -0.688844 0.330322 0.336914 1 0 1.000000
mtl_fx_shell
  0 0.237658 -0.531797 -0.000001 0.970290 -0.241909 0.004051 0.411621 0.446777 1 0 1.000000
  0 0.171932 -0.797758 -0.000001 0.970290 -0.241909 0.004051 0.330322 0.445313 1 0 1.000000
  0 0.167602 -0.531797 -0.167659 0.683288 -0.239278 -0.689829 0.411621 0.340820 1 0 1.000000
mtl_fx_shell
  0 0.167602 -0.531797 0.167658 0.684694 -0.240666 0.687949 0.411621 0.552490 1 0 1.000000
  0 0.171932 -0.797758 -0.000001 0.970290 -0.241909 0.004051 0.330322 0.445313 1 0 1.000000
  0 0.237658 -0.531797 -0.000001 0.970290 -0.241909 0.004051 0.411621 0.446777 1 0 1.000000
mtl_fx_shell
  0 0.167602 -0.531797 0.167658 0.684694 -0.240666 0.687949 0.411621 0.552490 1 0 1.000000
  0 0.121249 -0.797758 0.121290 0.683625 -0.242581 0.688339 0.330322 0.552002 1 0 1.000000
  0 0.171932 -0.797758 -0.000001 0.970290 -0.241909 0.004051 0.330322 0.445313 1 0 1.000000
mtl_fx_shell
  0 -0.000001 -0.531797 0.237359 -0.002997 -0.240626 0.970613 0.411621 0.657227 1 0 1.000000
  0 0.121249 -0.797758 0.121290 0.683625 -0.242581 0.688339 0.330322 0.552002 1 0 1.000000
  0 0.167602 -0.531797 0.167658 0.684694 -0.240666 0.687949 0.411621 0.552490 1 0 1.000000
mtl_fx_shell
  0 -0.000001 -0.531797 0.237359 -0.002997 -0.240626 0.970613 0.411621 0.657227 1 0 1.000000
  0 -0.000001 -0.797758 0.171716 -0.002997 -0.240626 0.970613 0.330322 0.656738 1 0 1.000000
  0 0.121249 -0.797758 0.121290 0.683625 -0.242581 0.688339 0.330322 0.552002 1 0 1.000000
mtl_fx_shell
  0 -0.000001 -0.531797 0.237359 -0.002997 -0.240626 0.970613 0.411621 0.657227 1 0 1.000000
  0 -0.121250 -0.797758 0.121290 -0.687820 -0.239031 0.685396 0.330322 0.759766 1 0 1.000000
  0 -0.000001 -0.797758 0.171716 -0.002997 -0.240626 0.970613 0.330322 0.656738 1 0 1.000000
mtl_fx_shell
  0 -0.167602 -0.531797 0.167658 -0.687019 -0.239427 0.686061 0.411621 0.760254 1 0 1.000000
  0 -0.121250 -0.797758 0.121290 -0.687820 -0.239031 0.685396 0.330322 0.759766 1 0 1.000000
  0 -0.000001 -0.531797 0.237359 -0.002997 -0.240626 0.970613 0.411621 0.657227 1 0 1.000000
mtl_fx_shell
  0 -0.167602 -0.531797 0.167658 -0.687019 -0.239427 0.686061 0.411621 0.760254 1 0 1.000000
  0 -0.171933 -0.797758 -0.000001 -0.970273 -0.241958 -0.005168 0.330322 0.860352 1 0 1.000000
  0 -0.121250 -0.797758 0.121290 -0.687820 -0.239031 0.685396 0.330322 0.759766 1 0 1.000000
mtl_fx_shell
  0 -0.237659 -0.531797 -0.000001 -0.970285 -0.241956 -0.002088 0.411621 0.859863 1 0 1.000000
  0 -0.171933 -0.797758 -0.000001 -0.970273 -0.241958 -0.005168 0.330322 0.860352 1 0 1.000000
  0 -0.167602 -0.531797 0.167658 -0.687019 -0.239427 0.686061 0.411621 0.760254 1 0 1.000000
mtl_fx_shell
  0 -0.167602 -0.531797 -0.167659 -0.688024 -0.239571 -0.685002 0.411621 0.959290 1 0 1.000000
  0 -0.171933 -0.797758 -0.000001 -0.970273 -0.241958 -0.005168 0.330322 0.860352 1 0 1.000000
  0 -0.237659 -0.531797 -0.000001 -0.970285 -0.241956 -0.002088 0.411621 0.859863 1 0 1.000000
mtl_fx_shell
  0 -0.167602 -0.531797 -0.167659 -0.688024 -0.239571 -0.685002 0.411621 0.959290 1 0 1.000000
  0 -0.121250 -0.797758 -0.121291 -0.689957 -0.236146 -0.684247 0.330322 0.959412 1 0 1.000000
  0 -0.171933 -0.797758 -0.000001 -0.970273 -0.241958 -0.005168 0.330322 0.860352 1 0 1.000000
mtl_fx_shell
  0 -0.000001 -0.797758 -0.171717 -0.002933 0.000985 -0.999995 0.322510 0.416992 1 0 1.000000
  0 -0.121250 -1.156276 -0.121291 -0.710405 0.000656 -0.703793 0.200806 0.358887 1 0 1.000000
  0 -0.121250 -0.797758 -0.121291 -0.710405 0.000656 -0.703793 0.322510 0.358887 1 0 1.000000
mtl_fx_shell
  0 -0.000001 -0.797758 -0.171717 -0.002933 0.000985 -0.999995 0.322510 0.416992 1 0 1.000000
  0 -0.000001 -1.156276 -0.171717 -0.002933 0.000985 -0.999995 0.200806 0.416992 1 0 1.000000
  0 -0.121250 -1.156276 -0.121291 -0.710405 0.000656 -0.703793 0.200806 0.358887 1 0 1.000000
mtl_fx_shell
  0 -0.000001 -0.797758 -0.171717 -0.002933 0.000985 -0.999995 0.322510 0.416992 1 0 1.000000
  0 0.121249 -1.156276 -0.121291 0.705918 0.000217 -0.708294 0.200806 0.500000 1 0 1.000000
  0 -0.000001 -1.156276 -0.171717 -0.002933 0.000985 -0.999995 0.200806 0.416992 1 0 1.000000
mtl_fx_shell
  0 0.121249 -0.797758 -0.121291 0.705917 0.000900 -0.708294 0.322510 0.500000 1 0 1.000000
  0 0.121249 -1.156276 -0.121291 0.705918 0.000217 -0.708294 0.200806 0.500000 1 0 1.000000
  0 -0.000001 -0.797758 -0.171717 -0.002933 0.000985 -0.999995 0.322510 0.416992 1 0 1.000000
mtl_fx_shell
  0 0.121249 -0.797758 -0.121291 0.705917 0.000900 -0.708294 0.322510 0.500000 1 0 1.000000
  0 0.171932 -1.156276 -0.000001 0.999998 -0.001427 0.001023 0.200806 0.575439 1 0 1.000000
  0 0.121249 -1.156276 -0.121291 0.705918 0.000217 -0.708294 0.200806 0.500000 1 0 1.000000
mtl_fx_shell
  0 0.171932 -0.797758 -0.000001 0.999998 -0.001427 0.001023 0.322510 0.575439 1 0 1.000000
  0 0.171932 -1.156276 -0.000001 0.999998 -0.001427 0.001023 0.200806 0.575439 1 0 1.000000
  0 0.121249 -0.797758 -0.121291 0.705917 0.000900 -0.708294 0.322510 0.500000 1 0 1.000000
mtl_fx_shell
  0 0.121249 -0.797758 0.121290 0.706378 -0.001797 0.707832 0.322510 0.650879 1 0 1.000000
  0 0.171932 -1.156276 -0.000001 0.999998 -0.001427 0.001023 0.200806 0.575439 1 0 1.000000
  0 0.171932 -0.797758 -0.000001 0.999998 -0.001427 0.001023 0.322510 0.575439 1 0 1.000000
mtl_fx_shell
  0 0.121249 -0.797758 0.121290 0.706378 -0.001797 0.707832 0.322510 0.650879 1 0 1.000000
  0 0.121249 -1.156276 0.121290 0.706378 -0.001797 0.707832 0.200806 0.650879 1 0 1.000000
  0 0.171932 -1.156276 -0.000001 0.999998 -0.001427 0.001023 0.200806 0.575439 1 0 1.000000
mtl_fx_shell
  0 -0.000001 -0.797758 0.171716 -0.001955 0.000008 0.999998 0.322510 0.733887 1 0 1.000000
  0 0.121249 -1.156276 0.121290 0.706378 -0.001797 0.707832 0.200806 0.650879 1 0 1.000000
  0 0.121249 -0.797758 0.121290 0.706378 -0.001797 0.707832 0.322510 0.650879 1 0 1.000000
mtl_fx_shell
  0 -0.000001 -0.797758 0.171716 -0.001955 0.000008 0.999998 0.322510 0.733887 1 0 1.000000
  0 -0.000001 -1.156276 0.171716 -0.001955 0.000008 0.999998 0.200806 0.733887 1 0 1.000000
  0 0.121249 -1.156276 0.121290 0.706378 -0.001797 0.707832 0.200806 0.650879 1 0 1.000000
mtl_fx_shell
  0 -0.000001 -0.797758 0.171716 -0.001955 0.000008 0.999998 0.322510 0.733887 1 0 1.000000
  0 -0.121250 -1.156276 0.121290 -0.709370 0.001184 0.704836 0.200806 0.817139 1 0 1.000000
  0 -0.000001 -1.156276 0.171716 -0.001955 0.000008 0.999998 0.200806 0.733887 1 0 1.000000
mtl_fx_shell
  0 -0.121250 -0.797758 0.121290 -0.709370 0.001184 0.704836 0.322510 0.817139 1 0 1.000000
  0 -0.121250 -1.156276 0.121290 -0.709370 0.001184 0.704836 0.200806 0.817139 1 0 1.000000
  0 -0.000001 -0.797758 0.171716 -0.001955 0.000008 0.999998 0.322510 0.733887 1 0 1.000000
mtl_fx_shell
  0 -0.121250 -0.797758 0.121290 -0.709370 0.001184 0.704836 0.322510 0.817139 1 0 1.000000
  0 -0.171933 -1.156276 -0.000001 -0.999989 -0.001345 -0.004511 0.200806 0.892578 1 0 1.000000
  0 -0.121250 -1.156276 0.121290 -0.709370 0.001184 0.704836 0.200806 0.817139 1 0 1.000000
mtl_fx_shell
  0 -0.171933 -0.797758 -0.000001 -0.999989 -0.001345 -0.004511 0.322510 0.892578 1 0 1.000000
  0 -0.171933 -1.156276 -0.000001 -0.999989 -0.001345 -0.004511 0.200806 0.892578 1 0 1.000000
  0 -0.121250 -0.797758 0.121290 -0.709370 0.001184 0.704836 0.322510 0.817139 1 0 1.000000
mtl_fx_shell
  0 -0.121250 -0.797758 -0.121291 -0.710402 0.001844 -0.703793 0.322510 0.967957 1 0 1.000000
  0 -0.171933 -1.156276 -0.000001 -0.999989 -0.001345 -0.004511 0.200806 0.892578 1 0 1.000000
  0 -0.171933 -0.797758 -0.000001 -0.999989 -0.001345 -0.004511 0.322510 0.892578 1 0 1.000000
mtl_fx_shell
  0 -0.121250 -0.797758 -0.121291 -0.710402 0.001844 -0.703793 0.322510 0.967957 1 0 1.000000
  0 -0.121250 -1.156276 -0.121291 -0.710402 0.001844 -0.703793 0.200806 0.967957 1 0 1.000000
  0 -0.171933 -1.156276 -0.000001 -0.999989 -0.001345 -0.004511 0.200806 0.892578 1 0 1.000000
mtl_fx_shell
  0 -0.176963 1.156276 -0.177023 -0.710391 -0.006569 -0.703776 0.995117 0.007324 1 0 1.000000
  0 -0.000001 -0.531797 -0.237360 -0.002944 -0.006839 -0.999972 0.418945 0.090820 1 0 1.000000
  0 -0.167602 -0.531797 -0.167659 -0.710388 -0.006878 -0.703776 0.418945 0.007813 1 0 1.000000
mtl_fx_shell
  0 -0.000001 1.156276 -0.250618 -0.002944 -0.006839 -0.999972 0.995117 0.089355 1 0 1.000000
  0 -0.000001 -0.531797 -0.237360 -0.002944 -0.006839 -0.999972 0.418945 0.090820 1 0 1.000000
  0 -0.176963 1.156276 -0.177023 -0.710391 -0.006569 -0.703776 0.995117 0.007324 1 0 1.000000
mtl_fx_shell
  0 0.176963 1.156276 -0.177023 0.705895 -0.008499 -0.708265 0.995117 0.212402 1 0 1.000000
  0 -0.000001 -0.531797 -0.237360 -0.002944 -0.006839 -0.999972 0.418945 0.090820 1 0 1.000000
  0 -0.000001 1.156276 -0.250618 -0.002944 -0.006839 -0.999972 0.995117 0.089355 1 0 1.000000
mtl_fx_shell
  0 0.176963 1.156276 -0.177023 0.705895 -0.008499 -0.708265 0.995117 0.212402 1 0 1.000000
  0 0.167602 -0.531797 -0.167659 0.702887 -0.006969 -0.711268 0.418945 0.214355 1 0 1.000000
  0 -0.000001 -0.531797 -0.237360 -0.002944 -0.006839 -0.999972 0.418945 0.090820 1 0 1.000000
mtl_fx_shell
  0 0.250934 1.156276 -0.000001 0.999948 -0.009266 -0.004188 0.995117 0.334473 1 0 1.000000
  0 0.167602 -0.531797 -0.167659 0.702887 -0.006969 -0.711268 0.418945 0.214355 1 0 1.000000
  0 0.176963 1.156276 -0.177023 0.705895 -0.008499 -0.708265 0.995117 0.212402 1 0 1.000000
mtl_fx_shell
  0 0.250934 1.156276 -0.000001 0.999948 -0.009266 -0.004188 0.995117 0.334473 1 0 1.000000
  0 0.237658 -0.531797 -0.000001 0.999948 -0.009266 -0.004188 0.418945 0.336914 1 0 1.000000
  0 0.167602 -0.531797 -0.167659 0.702887 -0.006969 -0.711268 0.418945 0.214355 1 0 1.000000
mtl_fx_shell
  0 0.250934 1.156276 -0.000001 0.999948 -0.009266 -0.004188 0.995117 0.334473 1 0 1.000000
  0 0.167602 -0.531797 0.167658 0.704859 -0.007518 0.709308 0.418945 0.458984 1 0 1.000000
  0 0.237658 -0.531797 -0.000001 0.999948 -0.009266 -0.004188 0.418945 0.336914 1 0 1.000000
mtl_fx_shell
  0 0.176963 1.156276 0.177021 0.704896 -0.006947 0.709277 0.995117 0.456543 1 0 1.000000
  0 0.167602 -0.531797 0.167658 0.704859 -0.007518 0.709308 0.418945 0.458984 1 0 1.000000
  0 0.250934 1.156276 -0.000001 0.999948 -0.009266 -0.004188 0.995117 0.334473 1 0 1.000000
mtl_fx_shell
  0 0.176963 1.156276 0.177021 0.704896 -0.006947 0.709277 0.995117 0.456543 1 0 1.000000
  0 -0.000001 -0.531797 0.237359 -0.001925 -0.007828 0.999967 0.418945 0.581055 1 0 1.000000
  0 0.167602 -0.531797 0.167658 0.704859 -0.007518 0.709308 0.418945 0.458984 1 0 1.000000
mtl_fx_shell
  0 -0.000001 1.156276 0.250617 -0.001925 -0.007828 0.999967 0.995117 0.578613 1 0 1.000000
  0 -0.000001 -0.531797 0.237359 -0.001925 -0.007828 0.999967 0.418945 0.581055 1 0 1.000000
  0 0.176963 1.156276 0.177021 0.704896 -0.006947 0.709277 0.995117 0.456543 1 0 1.000000
mtl_fx_shell
  0 -0.176963 1.156276 0.177021 -0.707860 -0.006906 0.706319 0.995117 0.701172 1 0 1.000000
  0 -0.000001 -0.531797 0.237359 -0.001925 -0.007828 0.999967 0.418945 0.581055 1 0 1.000000
  0 -0.000001 1.156276 0.250617 -0.001925 -0.007828 0.999967 0.995117 0.578613 1 0 1.000000
mtl_fx_shell
  0 -0.176963 1.156276 0.177021 -0.707860 -0.006906 0.706319 0.995117 0.701172 1 0 1.000000
  0 -0.167602 -0.531797 0.167658 -0.707825 -0.009893 0.706319 0.418945 0.703369 1 0 1.000000
  0 -0.000001 -0.531797 0.237359 -0.001925 -0.007828 0.999967 0.418945 0.581055 1 0 1.000000
mtl_fx_shell
  0 -0.250935 1.156276 -0.000001 -0.999951 -0.009706 -0.001759 0.995117 0.824097 1 0 1.000000
  0 -0.167602 -0.531797 0.167658 -0.707825 -0.009893 0.706319 0.418945 0.703369 1 0 1.000000
  0 -0.176963 1.156276 0.177021 -0.707860 -0.006906 0.706319 0.995117 0.701172 1 0 1.000000
mtl_fx_shell
  0 -0.250935 1.156276 -0.000001 -0.999951 -0.009706 -0.001759 0.995117 0.824097 1 0 1.000000
  0 -0.237659 -0.531797 -0.000001 -0.999966 -0.006950 -0.004519 0.418945 0.825806 1 0 1.000000
  0 -0.167602 -0.531797 0.167658 -0.707825 -0.009893 0.706319 0.418945 0.703369 1 0 1.000000
mtl_fx_shell
  0 -0.250935 1.156276 -0.000001 -0.999951 -0.009706 -0.001759 0.995117 0.824097 1 0 1.000000
  0 -0.167602 -0.531797 -0.167659 -0.708899 -0.005388 -0.705290 0.418945 0.949768 1 0 1.000000
  0 -0.237659 -0.531797 -0.000001 -0.999966 -0.006950 -0.004519 0.418945 0.825806 1 0 1.000000
mtl_fx_shell
  0 -0.250935 1.156276 -0.000001 -0.999951 -0.009706 -0.001759 0.995117 0.824097 1 0 1.000000
  0 -0.176963 1.156276 -0.177023 -0.708899 -0.005388 -0.705290 0.995117 0.949341 1 0 1.000000
  0 -0.167602 -0.531797 -0.167659 -0.708899 -0.005388 -0.705290 0.418945 0.949768 1 0 1.000000
end
