// Created by Crowbar 0.74
version 1
nodes
  0 "tag_origin" -1
  1 "tag_sync" 0
  2 "tag_view" 0
  3 "tag_ads" 2
  4 "tag_torso" 3
  5 "j_mainroot" 4
  6 "j_hip_le" 5
  7 "j_hiptwist_le" 6
  8 "j_knee_le" 6
  9 "j_ankle_le" 8
  10 "j_ball_le" 9
  11 "j_kneedq_le" 8
  12 "j_hip_proc_le" 6
  13 "j_hip_ri" 5
  14 "j_hiptwist_ri" 13
  15 "tag_stowed_thigh" 14
  16 "j_knee_ri" 13
  17 "j_ankle_ri" 16
  18 "j_ball_ri" 17
  19 "j_kneedq_ri" 16
  20 "j_hip_proc_ri" 13
  21 "j_spinelower" 5
  22 "j_spineupper" 21
  23 "j_spine4" 22
  24 "j_chest" 23
  25 "j_clavicle_le" 23
  26 "j_shoulder_le" 25
  27 "j_shouldertwist_le" 26
  28 "j_elbow_le" 26
  29 "j_wristfronttwist1_le" 28
  30 "j_wrist_le" 28
  31 "tag_weapon_left" 30
  32 "tag_accessory_left" 30
  33 "j_metaindex_le_1" 30
  34 "j_index_le_1" 33
  35 "j_index_le_2" 34
  36 "j_index_le_3" 35
  37 "j_index_le_4" 36
  38 "j_indexbulge_le_1" 34
  39 "j_proc_index_le_1" 34
  40 "j_metamid_le_1" 30
  41 "j_mid_le_1" 40
  42 "j_mid_le_2" 41
  43 "j_mid_le_3" 42
  44 "j_proc_mid_le_1" 41
  45 "j_metapinky_le_1" 30
  46 "j_pinky_le_1" 45
  47 "j_pinky_le_2" 46
  48 "j_pinky_le_3" 47
  49 "j_proc_pinky_le_1" 46
  50 "j_webbing_le_3" 45
  51 "j_metaring_le_1" 30
  52 "j_ring_le_1" 51
  53 "j_ring_le_2" 52
  54 "j_ring_le_3" 53
  55 "j_proc_ring_le_1" 52
  56 "j_thumb_le_1" 30
  57 "j_thumb_le_2" 56
  58 "j_thumb_le_3" 57
  59 "j_thumb_le_4" 58
  60 "j_webbing_le_2" 56
  61 "j_webbing_le_1" 30
  62 "j_proc_knuckle_le_1" 30
  63 "j_shield_le" 28
  64 "j_elbowdq_le" 28
  65 "j_teres_le" 25
  66 "j_clavicle_ri" 23
  67 "j_shoulder_ri" 66
  68 "j_shouldertwist_ri" 67
  69 "j_elbow_ri" 67
  70 "j_shield_ri" 69
  71 "j_wrist_ri" 69
  72 "j_gun" 71
  73 "tag_weapon_right" 71
  74 "tag_accessory_right" 71
  75 "j_metaindex_ri_1" 71
  76 "j_index_ri_1" 75
  77 "j_index_ri_2" 76
  78 "j_index_ri_3" 77
  79 "j_index_ri_4" 78
  80 "j_indexbulge_ri_1" 76
  81 "j_proc_index_ri_1" 76
  82 "j_metamid_ri_1" 71
  83 "j_mid_ri_1" 82
  84 "j_mid_ri_2" 83
  85 "j_mid_ri_3" 84
  86 "j_proc_mid_ri_1" 83
  87 "j_metapinky_ri_1" 71
  88 "j_pinky_ri_1" 87
  89 "j_pinky_ri_2" 88
  90 "j_pinky_ri_3" 89
  91 "j_proc_pinky_ri_1" 88
  92 "j_webbing_ri_3" 87
  93 "j_metaring_ri_1" 71
  94 "j_ring_ri_1" 93
  95 "j_ring_ri_2" 94
  96 "j_ring_ri_3" 95
  97 "j_proc_ring_ri_1" 94
  98 "j_thumb_ri_1" 71
  99 "j_thumb_ri_2" 98
  100 "j_thumb_ri_3" 99
  101 "j_thumb_ri_4" 100
  102 "j_webbing_ri_2" 98
  103 "j_webbing_ri_1" 71
  104 "tag_knife_attach2" 71
  105 "j_proc_knuckle_ri_1" 71
  106 "j_wristfronttwist1_ri" 69
  107 "j_elbowdq_ri" 69
  108 "j_teres_ri" 66
  109 "j_neck" 23
  110 "j_head" 109
  111 "j_head_end" 110
  112 "j_helmet" 111
  113 "j_visor" 112
  114 "j_visor_inner" 112
  115 "j_nvg" 110
  116 "j_eyeball_le" 110
  117 "j_eyeball_ri" 110
  118 "j_jaw" 110
  119 "j_proc_spine4" 23
  120 "tag_carry_attach" 119
  121 "j_proc_spinelower" 21
  122 "j_groinprotector" 5
  123 "j_crotch" 5
  124 "tag_weapon" 4
  125 "tag_cambone" 2
  126 "tag_camera" 125
  127 "tag_player" 126
  128 "tag_playerhelmet" 126
  129 "tag_camera_scripted" 0
end
skeleton
  time 0
    0 0.000000 0.000000 0.000000 0.000000 0.000000 -1.570796
    1 0.000000 0.000000 0.000000 0.000000 0.000000 0.000000
    2 -0.106000 0.000000 64.320000 0.000000 0.000000 0.000000
    3 0.000000 0.000000 0.000000 0.000000 0.000000 0.000000
    4 -0.904000 0.000000 -11.806000 0.000000 0.000000 0.000000
    5 0.000000 0.000000 -14.313999 0.000000 -1.570796 1.570857
    6 0.000000 0.000000 -4.867001 -3.141536 0.008722 -3.128648
    7 1.000088 -0.000024 0.000006 -0.000001 0.000000 0.000000
    8 17.162523 -0.000313 0.000100 -0.000002 -0.000004 0.119230
    9 17.749374 0.295333 0.000025 0.000002 -0.000001 -1.158968
    10 5.413526 0.000345 -0.000001 -0.000001 0.000000 -0.518057
    11 0.017889 0.299792 0.000001 0.000000 -0.000001 -0.059593
    12 9.999889 -0.000250 0.000058 -0.000001 -0.000008 0.000008
    13 0.000000 0.000000 4.867001 -3.141536 0.008722 -3.128648
    14 1.000088 -0.000024 0.000006 -0.000001 0.000000 0.000000
    15 12.283598 1.581519 -4.695930 1.462268 -0.086734 0.090191
    16 17.162525 -0.000313 0.000100 -0.000002 -0.000004 0.119230
    17 17.749374 0.295332 0.000025 0.000002 -0.000001 -1.158968
    18 5.413526 0.000345 -0.000002 -0.000001 0.000000 -0.518057
    19 0.017891 0.299792 0.000000 0.000000 -0.000001 -0.059593
    20 9.499838 0.000263 0.000055 -0.000001 -0.000008 0.000008
    21 3.533001 -0.000001 0.000000 0.000000 0.000000 0.000000
    22 6.250000 -0.000002 0.000000 0.000000 0.000000 0.000000
    23 4.531002 -0.000001 0.000000 0.000000 0.000000 0.000000
    24 0.000000 0.000000 0.000000 0.000000 0.000000 0.000000
    25 5.036999 -0.021001 -1.943001 -1.156911 1.547415 -1.156991
    26 5.784616 -0.000034 0.000271 -0.074821 0.826781 -0.247844
    27 0.500225 0.000129 -0.000053 0.000001 0.000000 -0.000001
    28 11.530251 -0.000362 0.000134 -0.000008 0.000002 -0.819731
    29 10.600056 -0.000294 -0.000629 0.000004 0.000000 0.000004
    30 11.041275 -0.000303 -0.000648 0.000004 0.000000 0.000000
    31 -18.909849 -8.427700 0.000465 0.812874 -0.123461 -0.568473
    32 -9.580589 -27.862175 -37.184662 0.812872 -0.123457 -0.568476
    33 0.610312 -0.939533 0.070286 -1.655303 -0.140060 -0.175586
    34 2.619613 0.000137 0.000404 0.201614 -0.020132 0.350093
    35 1.867867 -0.000057 -0.000508 -0.000010 0.000001 0.463058
    36 0.920008 -0.000294 -0.000409 -0.000005 -0.000008 0.632329
    37 0.599499 0.400697 0.000239 0.000000 0.000000 0.000000
    38 1.200453 0.398918 -0.000737 -0.009469 0.016069 0.007134
    39 0.000111 0.099678 -0.000890 -0.120043 -0.021932 -0.209615
    40 0.639951 -0.199150 0.060177 -1.665962 -0.131394 -0.066412
    41 2.659571 0.000122 -0.000813 0.027385 -0.033327 0.477854
    42 2.008787 -0.000095 -0.000246 0.000009 0.000007 0.978393
    43 1.099686 -0.000421 0.000135 0.000001 0.000000 0.463697
    44 0.000221 0.098995 0.000204 -0.018823 0.010852 -0.239227
    45 0.600179 1.080265 -0.339481 -1.738108 0.020764 0.107417
    46 2.199735 0.000526 0.000135 -0.000002 0.000015 0.628156
    47 1.179323 0.000223 -0.000669 -0.000015 -0.000010 0.743200
    48 0.680126 -0.001228 0.000443 0.000001 0.000003 0.546275
    49 -0.000193 0.099627 -0.000029 0.000002 -0.000026 -0.314096
    50 0.599428 0.958706 -0.300686 -0.174552 -0.000005 0.000008
    51 0.609755 0.400169 -0.009396 -1.762271 -0.061629 0.042976
    52 2.560414 -0.000156 0.000021 0.002481 -0.050619 0.521449
    53 1.708750 0.000721 -0.000177 -0.000007 0.000005 0.829235
    54 1.020000 -0.000790 -0.000204 -0.000008 -0.000007 0.566726
    55 0.000134 0.100437 0.000317 -0.010910 0.023136 -0.260849
    56 0.629734 -0.690041 -0.229767 0.087268 0.607390 -1.183283
    57 2.099436 0.000484 -0.000416 -0.242432 0.290017 0.541644
    58 1.290009 -0.000220 0.000603 0.000005 -0.000001 0.367117
    59 0.599886 0.400185 -0.000031 0.000000 0.000000 0.000000
    60 0.999548 0.000375 -1.210194 0.000000 0.000000 0.000000
    61 2.299686 -2.499969 -0.599476 0.892000 0.221535 -0.527287
    62 2.441183 0.008656 0.276379 -1.631655 0.347415 -0.011153
    63 3.999436 -0.000515 -0.000336 0.000004 0.000000 0.000001
    64 0.119209 -0.275759 -0.000149 -0.000002 0.000001 0.409863
    65 5.999822 -0.000384 -3.999962 0.000000 0.000000 -0.000002
    66 5.037998 -0.021001 1.943000 1.156393 -1.547409 -1.156472
    67 5.784617 -0.000031 -0.000198 0.074826 -0.826806 -0.247850
    68 0.500233 0.000132 0.000050 -0.000001 0.000000 0.000000
    69 11.529512 -0.000400 -0.000957 0.000000 0.000010 -0.819731
    70 3.999904 0.000057 0.001026 -0.000004 0.000001 0.000000
    71 11.041277 -0.000294 0.000675 -0.000004 0.000001 0.000000
    72 -18.909389 -8.427151 0.000134 2.328716 0.123458 -0.568471
    73 -18.909389 -8.427151 0.000134 2.328716 0.123458 -0.568471
    74 7.228312 7.928246 -3.925613 2.328722 0.123457 -0.568472
    75 0.610311 -0.939529 -0.070286 1.655301 0.140057 -0.175585
    76 2.619613 0.000137 -0.000401 -0.201611 0.020139 0.350094
    77 1.867860 -0.000057 0.000526 0.000002 -0.000001 0.463058
    78 0.919388 0.000408 0.000086 0.000004 -0.000003 0.632328
    79 0.600410 0.399631 -0.000471 0.000000 -0.000003 -3.141593
    80 1.200058 0.399933 -0.000147 0.009471 -0.016088 0.007130
    81 0.000593 0.100349 0.000326 0.120042 0.021926 -0.209614
    82 0.639947 -0.199144 -0.060177 1.665964 0.131388 -0.066407
    83 2.659902 0.000782 0.000158 -0.027384 0.033311 0.477849
    84 2.008776 -0.000881 -0.000387 -0.000002 0.000005 0.978398
    85 1.100361 0.000010 0.000471 0.000002 -0.000001 0.463695
    86 0.000225 0.099007 -0.000212 0.018818 -0.010833 -0.239220
    87 0.600173 1.080271 0.339478 1.738104 -0.020771 0.107424
    88 2.199738 0.000530 -0.000126 0.000003 -0.000001 0.628154
    89 1.180096 0.000380 0.000074 0.000002 -0.000003 0.743199
    90 0.679455 -0.000814 0.000175 -0.000005 0.000004 0.546281
    91 -0.000193 0.099625 0.000029 0.000003 -0.000001 -0.314096
    92 0.599961 0.959278 0.300072 0.174555 0.000000 0.000006
    93 0.610213 0.400740 0.010082 1.762270 0.061630 0.042973
    94 2.560411 -0.000145 -0.000032 -0.002476 0.050635 0.521453
    95 1.708742 0.000729 0.000200 -0.000001 0.000001 0.829232
    96 1.019810 -0.000021 -0.000393 -0.000001 -0.000003 0.566727
    97 -0.000584 0.100143 0.000313 0.010913 -0.023132 -0.260847
    98 0.630195 -0.689468 0.230461 -0.087265 -0.607383 -1.183285
    99 2.099334 -0.000099 -0.000389 0.242430 -0.290028 0.541642
    100 1.290598 0.000365 -0.000050 -0.000005 0.000000 0.367119
    101 0.599899 0.400182 0.000023 0.000000 -0.000005 -3.141592
    102 0.999435 -0.000205 1.209385 0.000000 0.000000 0.000000
    103 2.300144 -2.499401 0.600170 -0.892009 -0.221579 -0.527237
    104 2.762345 0.116964 1.523991 1.629479 0.064156 1.743803
    105 2.441185 0.008663 -0.276363 1.631661 -0.347419 -0.011163
    106 10.600058 -0.000284 0.000664 -0.000004 0.000001 0.000004
    107 0.119669 -0.275192 0.000828 -0.000001 0.000006 0.409862
    108 5.999769 -0.000379 4.000038 0.000002 0.000000 0.000000
    109 8.823002 -0.000002 0.000000 0.000000 -0.000005 -0.294106
    110 3.116970 -0.000427 -0.000017 0.000002 0.000005 0.294106
    111 6.233002 0.000002 0.000000 0.000000 0.000000 0.000000
    112 1.598000 0.000001 0.000000 0.000000 0.000000 0.000001
    113 -4.481003 -0.201999 0.000000 0.000000 0.000000 0.000000
    114 -5.516998 -0.290999 -0.001000 0.000000 0.000000 0.000000
    115 6.241997 -6.380000 0.000000 0.000000 0.000000 0.000000
    116 3.512001 -3.547000 -1.066000 0.000000 1.570796 0.000001
    117 3.456001 -3.517000 1.169000 0.000000 1.570796 0.000000
    118 -0.171997 -0.106000 -0.902000 1.570713 1.029180 -3.134550
    119 0.000000 0.000000 0.000000 0.000000 0.000000 0.000000
    120 9.904995 -5.486003 -6.443002 1.570796 0.000000 3.141592
    121 0.000000 0.000000 0.000000 0.000000 0.000000 0.000000
    122 3.999992 -6.500003 0.000000 0.000000 0.000007 0.000983
    123 -6.500000 0.000001 0.000000 0.000000 1.570796 0.000000
    124 14.188001 0.000000 0.141998 0.000000 0.000000 0.000000
    125 0.000000 0.000000 0.000000 0.000000 0.000000 0.000000
    126 0.000000 0.000000 0.000000 0.000000 0.000000 0.000000
    127 0.106000 0.000000 -64.320000 0.000000 0.000000 0.000000
    128 0.000000 0.000000 0.000000 0.000000 0.000000 0.000000
    129 -0.106000 0.000000 64.320000 0.000000 0.000000 0.000000
end
