// Created by Crowbar 0.74
version 1
nodes
  0 "tag_mag_attach" -1
  1 "j_mag1" 0
  2 "j_mag2" 0
  3 "j_bullet1" 1
  4 "j_bullet10" 1
  5 "j_bullet2" 1
  6 "j_bullet3" 1
  7 "j_bullet4" 1
  8 "j_bullet5" 1
  9 "j_bullet6" 1
  10 "j_bullet7" 1
  11 "j_bullet8" 1
  12 "j_bullet9" 1
end
skeleton
  time 0
    0 0.000000 0.000000 0.000000 0.000000 0.000000 -1.570796
    1 -0.271999 0.000000 2.687995 0.000000 0.000000 0.000000
    2 -0.271999 0.000000 2.687995 0.000000 0.000000 0.000000
    3 0.229999 0.064000 1.466997 0.000000 0.000000 0.000000
    4 -0.183000 -0.064000 -1.792997 0.000000 0.000000 0.000000
    5 0.180999 -0.064000 1.095998 0.000000 0.000000 0.000000
    6 0.139000 0.064000 0.743999 0.000000 0.000000 0.000000
    7 0.094000 -0.064000 0.373999 0.000000 0.000000 0.000000
    8 0.046000 0.064000 0.022000 0.000000 0.000000 0.000000
    9 -0.002001 -0.064000 -0.348999 0.000000 0.000000 0.000000
    10 -0.046000 0.064000 -0.700999 0.000000 0.000000 0.000000
    11 -0.092000 -0.064000 -1.070998 0.000000 0.000000 0.000000
    12 -0.138000 0.064000 -1.422997 0.000000 0.000000 0.000000
end
