// Created by Crowbar 0.74
version 1
nodes
  0 "tag_origin" -1
  1 "tag_view" 0
  2 "tag_ads" 1
  3 "tag_torso" 2
  4 "j_mainroot" 3
  5 "j_spinelower" 4
  6 "j_spineupper" 5
  7 "j_clavicle_le" 6
  8 "j_clavicle_ri" 6
  9 "j_shoulder_le" 7
  10 "j_teres_le" 7
  11 "j_shoulder_ri" 8
  12 "j_teres_ri" 8
  13 "j_shouldertwist_le" 9
  14 "j_elbow_le" 9
  15 "ValveBiped.Bip01_L_UpperArm" 9
  16 "j_shouldertwist_ri" 11
  17 "j_elbow_ri" 11
  18 "ValveBiped.Bip01_R_UpperArm" 11
  19 "j_wristfronttwist1_le" 14
  20 "j_elbowdq_le" 14
  21 "j_wrist_le" 14
  22 "ValveBiped.Bip01_L_Forearm" 14
  23 "j_wristfronttwist1_ri" 17
  24 "j_elbowdq_ri" 17
  25 "j_wrist_ri" 17
  26 "ValveBiped.Bip01_R_Forearm" 17
  27 "j_metaindex_le_1" 21
  28 "j_metamid_le_1" 21
  29 "j_metapinky_le_1" 21
  30 "j_metaring_le_1" 21
  31 "j_thumb_le_1" 21
  32 "ValveBiped.Bip01_L_Hand" 21
  33 "j_metaindex_ri_1" 25
  34 "j_metamid_ri_1" 25
  35 "j_metapinky_ri_1" 25
  36 "j_metaring_ri_1" 25
  37 "j_thumb_ri_1" 25
  38 "ValveBiped.Bip01_R_Hand" 25
  39 "j_index_le_1" 27
  40 "j_mid_le_1" 28
  41 "j_pinky_le_1" 29
  42 "j_webbing_le_3" 29
  43 "j_ring_le_1" 30
  44 "j_thumb_le_2" 31
  45 "j_webbing_le_2" 31
  46 "ValveBiped.Bip01_L_Finger0" 31
  47 "j_index_ri_1" 33
  48 "j_mid_ri_1" 34
  49 "j_pinky_ri_1" 35
  50 "j_webbing_ri_3" 35
  51 "j_ring_ri_1" 36
  52 "j_thumb_ri_2" 37
  53 "j_webbing_ri_2" 37
  54 "ValveBiped.Bip01_R_Finger0" 37
  55 "j_index_le_2" 39
  56 "j_indexbulge_le_1" 39
  57 "j_proc_index_le_1" 39
  58 "ValveBiped.Bip01_L_Finger1" 39
  59 "j_mid_le_2" 40
  60 "j_proc_mid_le_1" 40
  61 "ValveBiped.Bip01_L_Finger2" 40
  62 "j_pinky_le_2" 41
  63 "j_proc_pinky_le_1" 41
  64 "ValveBiped.Bip01_L_Finger4" 41
  65 "j_ring_le_2" 43
  66 "j_proc_ring_le_1" 43
  67 "ValveBiped.Bip01_L_Finger3" 43
  68 "j_thumb_le_3" 44
  69 "ValveBiped.Bip01_L_Finger01" 44
  70 "j_index_ri_2" 47
  71 "j_indexbulge_ri_1" 47
  72 "j_proc_index_ri_1" 47
  73 "ValveBiped.Bip01_R_Finger1" 47
  74 "j_mid_ri_2" 48
  75 "j_proc_mid_ri_1" 48
  76 "ValveBiped.Bip01_R_Finger2" 48
  77 "j_pinky_ri_2" 49
  78 "j_proc_pinky_ri_1" 49
  79 "ValveBiped.Bip01_R_Finger4" 49
  80 "j_ring_ri_2" 51
  81 "j_proc_ring_ri_1" 51
  82 "ValveBiped.Bip01_R_Finger3" 51
  83 "j_thumb_ri_3" 52
  84 "ValveBiped.Bip01_R_Finger01" 52
  85 "j_index_le_3" 55
  86 "ValveBiped.Bip01_L_Finger11" 55
  87 "j_mid_le_3" 59
  88 "ValveBiped.Bip01_L_Finger21" 59
  89 "j_pinky_le_3" 62
  90 "ValveBiped.Bip01_L_Finger41" 62
  91 "j_ring_le_3" 65
  92 "ValveBiped.Bip01_L_Finger31" 65
  93 "ValveBiped.Bip01_L_Finger02" 68
  94 "j_index_ri_3" 70
  95 "ValveBiped.Bip01_R_Finger11" 70
  96 "j_mid_ri_3" 74
  97 "ValveBiped.Bip01_R_Finger21" 74
  98 "j_pinky_ri_3" 77
  99 "ValveBiped.Bip01_R_Finger41" 77
  100 "j_ring_ri_3" 80
  101 "ValveBiped.Bip01_R_Finger31" 80
  102 "ValveBiped.Bip01_R_Finger02" 83
  103 "ValveBiped.Bip01_L_Finger12" 85
  104 "ValveBiped.Bip01_L_Finger22" 87
  105 "ValveBiped.Bip01_L_Finger42" 89
  106 "ValveBiped.Bip01_L_Finger32" 91
  107 "ValveBiped.Bip01_R_Finger12" 94
  108 "ValveBiped.Bip01_R_Finger22" 96
  109 "ValveBiped.Bip01_R_Finger42" 98
  110 "ValveBiped.Bip01_R_Finger32" 100
  111 "ValveBiped.Anim_Attachment_RH" -1
  112 "tag_pistol_offset" 111
  113 "j_gun" -1
  114 "tag_align_gun" 112
  115 "tag_barrel_attach" 112
  116 "j_barrel" 115
  117 "tag_flash" 116
  118 "j_slide" 115
  119 "tag_reflex" 118
  120 "tag_scope" 118
  121 "tag_sight_on" 118
  122 "tag_brass" 112
  123 "tag_laser_attach" 112
  124 "tag_mag_attach" 112
  125 "j_mag1" 124
  126 "j_bullet" 125
  127 "j_mag2" 124
  128 "tag_stock_attach" 112
  129 "j_trigger" 128
  130 "tag_trigger_hide" 129
  131 "j_golf21_magrel" 112
  132 "tag_sync" 0
  133 "tag_camera_scripted" 0
  134 "tag_cambone" 1
  135 "tag_camera" 134
  136 "tag_weapon" 3
  137 "tag_player" 135
  138 "tag_playerhelmet" 135
  139 "j_hip_le" 4
  140 "j_hip_ri" 4
  141 "j_groinprotector" 4
  142 "j_crotch" 4
  143 "j_hiptwist_le" 139
  144 "j_knee_le" 139
  145 "j_hip_proc_le" 139
  146 "j_hiptwist_ri" 140
  147 "j_knee_ri" 140
  148 "j_hip_proc_ri" 140
  149 "j_proc_spinelower" 5
  150 "j_ankle_le" 144
  151 "j_kneedq_le" 144
  152 "tag_stowed_thigh" 146
  153 "j_ankle_ri" 147
  154 "j_kneedq_ri" 147
  155 "j_neck" 6
  156 "j_spine4" 6
  157 "j_proc_spineupper" 6
  158 "j_ball_le" 150
  159 "j_ball_ri" 153
  160 "tag_carry_attach" 7
  161 "j_head" 155
  162 "j_chest" 156
  163 "j_eyeball_le" 161
  164 "j_eyeball_ri" 161
  165 "j_head_end" 161
  166 "j_jaw" 161
  167 "j_nvg" 161
  168 "j_shield_le" 14
  169 "j_shield_ri" 17
  170 "j_helmet" 165
  171 "j_proc_wristfronttwist1_le" 19
  172 "j_webbing_le_1" 21
  173 "tag_weapon_left" 21
  174 "tag_accessory_left" 21
  175 "j_proc_metaindex_le_1" 21
  176 "j_proc_metaknuckle_le_1" 21
  177 "j_proc_metapinky_le_1" 21
  178 "j_webbing_ri_1" 25
  179 "tag_weapon_right" 25
  180 "tag_knife_attach2" 25
  181 "tag_accessory_right" 25
  182 "j_proc_metaindex_ri_1" 25
  183 "j_proc_metaknuckle_ri_1" 25
  184 "j_proc_metapinky_ri_1" 25
  185 "j_visor" 170
  186 "j_visor_inner" 170
  187 "tag_wrist_attach_le" 171
  188 "j_proc_metaindex_le_2" 175
  189 "j_proc_knuckle_le_1" 176
  190 "j_proc_idle_knuckle_le_1" 176
  191 "j_proc_orient_knuckle_le_1" 176
  192 "j_proc_metapinky_le_2" 177
  193 "j_proc_metaindex_ri_2" 182
  194 "j_proc_knuckle_ri_1" 183
  195 "j_proc_idle_knuckle_ri_1" 183
  196 "j_proc_orient_knuckle_ri_1" 183
  197 "j_proc_metapinky_ri_2" 184
  198 "j_thumb_le_4" 68
  199 "j_thumb_ri_4" 83
  200 "j_index_le_4" 85
  201 "j_index_ri_4" 94
end
skeleton
  time 0
    0 0.000000 0.000000 0.000000 0.000000 0.000000 -1.570796
    1 0.000000 0.000000 0.000000 0.000000 0.000000 0.000000
    2 0.000000 0.000000 0.000000 0.000000 0.000000 0.000000
    3 0.000000 0.000000 0.000000 0.000000 0.000000 0.000000
    4 0.000000 0.000000 0.000000 0.000000 0.000000 0.000000
    5 0.000000 0.000000 0.000000 0.000000 0.000000 0.000000
    6 0.000000 0.000000 0.000000 0.000000 0.000000 0.000000
    7 -0.041260 -2.984375 0.966797 0.000000 0.000000 0.000000
    8 0.617676 -5.250000 3.921875 0.023411 -0.003054 -0.295630
    9 0.000000 0.000000 0.000000 -0.401490 0.221843 0.290784
    10 0.000000 0.000000 0.000000 0.000000 0.000000 0.000000
    11 0.000000 0.000000 0.000000 -0.206205 0.044737 0.302909
    12 0.000000 0.000000 0.000000 0.000000 0.000000 0.000000
    13 0.000000 0.000000 0.000000 0.295885 -0.000057 -0.000008
    14 0.000000 0.000000 0.000000 0.000000 0.000000 -0.713015
    15 0.000000 0.000000 0.000000 0.000000 0.000000 0.000000
    16 0.000000 0.000000 0.000000 0.250110 0.000000 0.000000
    17 0.000000 0.000000 0.000000 -0.000020 0.000054 -0.704443
    18 0.000000 0.000000 0.000000 0.000000 0.000000 0.000000
    19 0.000000 0.000000 0.000000 0.243652 0.000000 0.000000
    20 0.221924 -0.109924 0.000046 0.000000 0.000000 0.356507
    21 0.000000 0.000000 0.000000 0.431339 -0.630974 0.004618
    22 0.000000 0.000000 0.000000 0.000000 0.000000 0.000000
    23 0.000000 0.000000 0.000000 0.186067 -0.000061 -0.000006
    24 0.130005 -0.014168 -0.000053 0.000000 0.000000 0.352290
    25 0.000000 0.000000 0.000000 -0.109459 0.024623 0.433485
    26 0.000000 0.000000 0.000000 0.000000 0.000000 0.000000
    27 0.000000 0.000000 0.000000 -0.000118 -0.000059 0.000000
    28 0.000000 0.000000 0.000000 0.000000 0.000000 0.000000
    29 0.000000 0.000000 0.000000 -0.000059 -0.000059 0.000061
    30 0.000000 0.000000 0.000000 -0.000057 0.000057 0.000000
    31 0.000000 0.000000 0.000000 -0.000059 0.000000 0.000000
    32 0.000000 0.000000 0.000000 0.000000 0.000000 0.000000
    33 0.000000 0.000000 0.000000 0.000000 -0.000057 0.000000
    34 0.000000 0.000000 0.000000 0.000000 -0.000057 -0.000057
    35 0.000000 0.000000 0.000000 0.000000 0.000000 -0.000057
    36 0.000000 0.000000 0.000000 0.000000 0.000000 -0.000057
    37 0.000000 0.000000 0.000000 0.000000 0.000000 0.000000
    38 0.000000 0.000000 0.000000 0.000000 0.000000 0.000000
    39 0.000000 0.000000 0.000000 0.000000 -0.000057 -0.000120
    40 0.000000 0.000000 0.000000 0.000000 0.000059 0.000057
    41 0.000000 0.000000 0.000000 0.000057 0.000061 0.000000
    42 0.000000 0.000000 0.000000 0.000000 0.000000 0.000000
    43 0.000000 0.000000 0.000000 -0.000118 0.000000 0.000000
    44 0.000000 0.000000 0.000000 0.000000 -0.000057 0.000000
    45 0.000000 0.000000 0.000000 0.000000 0.000000 0.000000
    46 0.000000 0.000000 0.000000 0.000000 0.000000 0.000000
    47 0.000000 0.000000 0.000000 0.002462 -0.156733 0.112210
    48 0.000000 0.000000 0.000000 0.000057 0.000057 0.000000
    49 0.000000 0.000000 0.000000 0.000000 0.000000 -0.000061
    50 0.000000 0.000000 0.000000 0.000000 0.000000 0.000000
    51 0.000000 0.000000 0.000000 0.000000 0.000000 0.000057
    52 0.000000 0.000000 0.000000 0.000000 0.000000 0.000000
    53 0.000000 0.000000 0.000000 0.000000 0.000000 0.000000
    54 0.000000 0.000000 0.000000 0.000000 0.000000 0.000000
    55 0.000000 0.000000 0.000000 0.000000 0.000000 0.000057
    56 0.000000 0.000000 0.000000 0.000000 0.000000 0.000000
    57 0.000000 0.000000 0.000000 0.000000 0.000000 0.000000
    58 0.000000 0.000000 0.000000 0.000000 0.000000 0.000000
    59 0.000000 0.000000 0.000000 0.000000 0.000000 -0.000059
    60 0.000000 0.000000 0.000000 0.000000 0.000000 0.000000
    61 0.000000 0.000000 0.000000 0.000000 0.000000 0.000000
    62 0.000000 0.000000 0.000000 -0.000057 0.000057 0.000000
    63 0.000000 0.000000 0.000000 0.000000 0.000000 0.000000
    64 0.000000 0.000000 0.000000 0.000000 0.000000 0.000000
    65 0.000000 0.000000 0.000000 0.000000 0.000000 0.000000
    66 0.000000 0.000000 0.000000 0.000000 0.000000 0.000000
    67 0.000000 0.000000 0.000000 0.000000 0.000000 0.000000
    68 0.000000 0.000000 0.000000 0.000000 0.000000 0.000000
    69 0.000000 0.000000 0.000000 0.000000 0.000000 0.000000
    70 0.000000 0.000000 0.000000 0.028209 0.053123 -0.553003
    71 0.000000 0.000000 0.000000 0.000000 0.000000 0.000000
    72 0.000000 0.000000 0.000000 0.000000 0.000000 0.000000
    73 0.000000 0.000000 0.000000 0.000000 0.000000 0.000000
    74 0.000000 0.000000 0.000000 0.000000 0.000059 0.000000
    75 0.000000 0.000000 0.000000 0.000000 0.000000 0.000000
    76 0.000000 0.000000 0.000000 0.000000 0.000000 0.000000
    77 0.000000 0.000000 0.000000 0.000000 0.000000 0.000057
    78 0.000000 0.000000 0.000000 0.000000 0.000000 0.000000
    79 0.000000 0.000000 0.000000 0.000000 0.000000 0.000000
    80 0.000000 0.000000 0.000000 0.000000 0.000000 -0.000061
    81 0.000000 0.000000 0.000000 0.000000 0.000000 0.000000
    82 0.000000 0.000000 0.000000 0.000000 0.000000 0.000000
    83 0.000000 0.000000 0.000000 0.000000 0.000000 -0.000061
    84 0.000000 0.000000 0.000000 0.000000 0.000000 0.000000
    85 0.000000 0.000000 0.000000 0.000000 0.000000 0.000000
    86 0.000000 0.000000 0.000000 0.000000 0.000000 0.000000
    87 0.000000 0.000000 0.000000 0.000000 0.000061 0.000000
    88 0.000000 0.000000 0.000000 0.000000 0.000000 0.000000
    89 0.000000 0.000000 0.000000 0.000057 -0.000057 0.000000
    90 0.000000 0.000000 0.000000 0.000000 0.000000 0.000000
    91 0.000000 0.000000 0.000000 -0.000057 0.000000 0.000057
    92 0.000000 0.000000 0.000000 0.000000 0.000000 0.000000
    93 0.000000 0.000000 0.000000 0.000000 0.000000 0.000000
    94 0.000000 0.000000 0.000000 0.023298 0.055455 -0.615931
    95 0.000000 0.000000 0.000000 0.000000 0.000000 0.000000
    96 0.000000 0.000000 0.000000 0.000000 -0.000057 -0.000061
    97 0.000000 0.000000 0.000000 0.000000 0.000000 0.000000
    98 0.000000 0.000000 0.000000 0.000000 0.000059 0.000000
    99 0.000000 0.000000 0.000000 0.000000 0.000000 0.000000
    100 0.000000 0.000000 0.000000 -0.000057 0.000000 0.000057
    101 0.000000 0.000000 0.000000 0.000000 0.000000 0.000000
    102 0.000000 0.000000 0.000000 0.000000 0.000000 0.000000
    103 0.000000 0.000000 0.000000 0.000000 0.000000 0.000000
    104 0.000000 0.000000 0.000000 0.000000 0.000000 0.000000
    105 0.000000 0.000000 0.000000 0.000000 0.000000 0.000000
    106 0.000000 0.000000 0.000000 0.000000 0.000000 0.000000
    107 0.000000 0.000000 0.000000 0.000000 0.000000 0.000000
    108 0.000000 0.000000 0.000000 0.000000 0.000000 0.000000
    109 0.000000 0.000000 0.000000 0.000000 0.000000 0.000000
    110 0.000000 0.000000 0.000000 0.000000 0.000000 0.000000
    111 0.000000 0.000000 0.000000 0.000000 0.000000 -1.570796
    112 0.009850 1.688477 -1.422852 0.002608 -0.013961 0.296056
    113 -8.257813 3.589844 7.187500 -0.255315 -0.093225 -1.271086
    114 0.000000 0.000000 0.000000 0.000000 0.000000 0.000000
    115 0.000000 0.000000 0.000000 0.000000 0.000000 0.000000
    116 0.000000 0.000000 0.000000 0.000000 0.000000 0.000000
    117 0.000000 0.000000 0.000000 0.000000 0.000000 0.000000
    118 0.000000 0.000000 0.000000 0.000000 0.000000 0.000000
    119 0.000000 0.000000 0.000000 0.000000 0.000000 0.000000
    120 0.000000 0.000000 0.000000 0.000000 0.000000 0.000000
    121 0.000000 0.000000 0.000000 0.000000 0.000000 0.000000
    122 0.000000 0.000000 0.000000 0.000000 0.000000 0.000000
    123 0.000000 0.000000 0.000000 0.000000 0.000000 0.000000
    124 0.000000 0.000000 0.000000 0.000000 0.000000 0.000000
    125 0.000000 0.000000 0.000000 0.000000 0.000000 0.000000
    126 0.000000 0.000000 0.000000 0.000000 0.000000 0.000000
    127 0.000000 0.000000 0.000000 0.000000 0.000000 0.000000
    128 0.000000 0.000000 0.000000 0.000000 0.000000 0.000000
    129 0.000000 0.000000 0.000000 0.000000 0.000000 0.000000
    130 0.000000 0.000000 0.000000 0.000000 0.000000 0.000000
    131 0.000000 0.000000 0.000000 0.000000 0.000000 0.000000
    132 0.000000 0.000000 0.000000 0.000000 0.000000 0.000000
    133 0.000000 0.000000 0.000000 0.000000 0.000000 0.000000
    134 0.000000 0.000000 0.000000 0.000000 0.000000 0.000000
    135 0.000000 0.000000 0.000000 -0.002377 0.000000 0.000000
    136 -0.357422 4.257813 -1.299805 0.002608 -0.013961 0.296056
    137 0.000000 0.000000 0.000000 0.000000 0.000000 0.000000
    138 0.000000 0.000000 0.000000 0.000000 0.000000 0.000000
    139 0.000000 0.000000 0.000000 0.000000 0.000000 0.000000
    140 0.000000 0.000000 0.000000 0.000000 0.000000 0.000000
    141 0.000000 0.000000 0.000000 0.000000 0.000000 0.000000
    142 0.000000 0.000000 0.000000 0.000000 0.000000 0.000000
    143 0.000000 0.000000 0.000000 0.000000 0.000000 0.000000
    144 0.000000 0.000000 0.000000 0.000000 0.000000 0.000000
    145 0.000000 0.000000 0.000000 0.000000 0.000000 0.000000
    146 0.000000 0.000000 0.000000 0.000000 0.000000 0.000000
    147 0.000000 0.000000 0.000000 0.000000 0.000000 0.000000
    148 0.000000 0.000000 0.000000 0.000000 0.000000 0.000000
    149 0.000000 0.000000 0.000000 0.000000 0.000000 0.000000
    150 0.000000 0.000000 0.000000 0.000000 0.000000 0.000000
    151 0.000000 0.000000 0.000000 0.000000 0.000000 0.000000
    152 0.000000 0.000000 0.000000 0.000000 0.000000 0.000000
    153 0.000000 0.000000 0.000000 0.000000 0.000000 0.000000
    154 0.000000 0.000000 0.000000 0.000000 0.000000 0.000000
    155 0.000000 0.000000 0.000000 0.000000 0.000000 0.000000
    156 0.000000 0.000000 0.000000 0.000000 0.000000 0.000000
    157 0.000000 0.000000 0.000000 0.000000 0.000000 0.000000
    158 0.000000 0.000000 0.000000 0.000000 0.000000 0.000000
    159 0.000000 0.000000 0.000000 0.000000 0.000000 0.000000
    160 0.000000 0.000000 0.000000 0.000000 0.000000 0.000000
    161 0.000000 0.000000 0.000000 0.000000 0.000000 0.000000
    162 0.000000 0.000000 0.000000 0.000000 0.000000 0.000000
    163 0.000000 0.000000 0.000000 0.000000 0.000000 0.000000
    164 0.000000 0.000000 0.000000 0.000000 0.000000 0.000000
    165 0.000000 0.000000 0.000000 0.000000 0.000000 0.000000
    166 0.000000 0.000000 0.000000 0.000000 0.000000 0.000000
    167 0.000000 0.000000 0.000000 0.000000 0.002377 0.000000
    168 0.000000 0.000000 0.000000 0.121842 0.000000 0.000000
    169 0.000000 0.000000 0.000000 0.092988 0.000000 0.000000
    170 0.000000 0.000000 0.000000 0.000000 0.000000 0.000000
    171 0.000000 0.000000 0.000000 0.000000 0.000000 0.000000
    172 0.000000 0.000000 0.000000 -0.000118 0.000000 0.000000
    173 0.000000 0.000000 0.000000 -0.000057 0.000059 -0.000059
    174 0.000000 0.000000 0.000000 0.000000 0.000000 0.000000
    175 0.000000 0.000000 0.000000 0.000000 0.000000 0.000000
    176 0.000000 0.000000 0.000000 0.000000 0.000000 0.000000
    177 0.000000 0.000000 0.000000 0.000000 0.000000 0.000000
    178 0.000000 0.000000 0.000000 -0.000059 0.000057 0.000000
    179 0.000000 0.000000 0.000000 0.000000 0.000000 -0.000057
    180 0.000000 0.000000 0.000000 0.000000 0.000000 0.000000
    181 0.000000 0.000000 0.000000 0.000000 0.000000 0.000000
    182 0.000000 0.000000 0.000000 0.000000 0.000000 0.000000
    183 0.000000 0.000000 0.000000 0.000000 0.000000 0.000000
    184 0.000000 0.000000 0.000000 0.000000 0.000000 0.000000
    185 0.000000 0.000000 0.000000 0.000000 0.000000 0.000000
    186 0.000000 0.000000 0.000000 0.000000 0.000000 0.000000
    187 0.000000 0.000000 0.000000 0.000000 0.000000 0.000000
    188 0.000000 0.000000 0.000000 0.000000 0.000000 0.000000
    189 0.000000 0.000000 0.000000 0.000000 0.000000 0.000000
    190 0.000000 0.000000 0.000000 0.000000 0.000000 0.000000
    191 0.000000 0.000000 0.000000 0.000000 0.000000 0.000000
    192 0.000000 0.000000 0.000000 0.000000 0.000000 0.000000
    193 0.000000 0.000000 0.000000 0.000000 0.000000 0.000000
    194 0.000000 0.000000 0.000000 0.000000 0.000000 0.000000
    195 0.000000 0.000000 0.000000 0.000000 0.000000 0.000000
    196 0.000000 0.000000 0.000000 0.000000 0.000000 0.000000
    197 0.000000 0.000000 0.000000 0.000000 0.000000 0.000000
    198 0.000000 0.000000 0.000000 0.000000 0.000000 0.000000
    199 0.000000 0.000000 0.000000 0.000000 0.000000 0.000000
    200 0.000000 0.000000 0.000000 0.000000 0.000000 0.000000
    201 0.000000 0.000000 0.000000 0.000000 0.000000 0.000000
  time 1
    0 0.000000 0.000000 0.000000 0.000000 0.000000 -1.570796
    1 0.000000 0.000000 0.000000 0.000000 0.000000 0.000000
    2 0.000000 0.000000 0.000000 0.000000 0.000000 0.000000
    3 0.000000 0.000000 0.000000 0.000000 0.000000 0.000000
    4 0.000000 0.000000 0.000000 0.000000 0.000000 0.000000
    5 0.000000 0.000000 0.000000 0.000000 0.000000 0.000000
    6 0.000000 0.000000 0.000000 0.000000 0.000000 0.000000
    7 -0.041260 -2.984375 0.966797 0.000000 0.000000 0.000000
    8 0.617676 -5.250000 3.921875 0.023411 -0.003054 -0.295630
    9 0.000000 0.000000 0.000000 -0.401490 0.221843 0.290784
    10 0.000000 0.000000 0.000000 0.000000 0.000000 0.000000
    11 0.000000 0.000000 0.000000 -0.206205 0.044737 0.302909
    12 0.000000 0.000000 0.000000 0.000000 0.000000 0.000000
    13 0.000000 0.000000 0.000000 0.295885 -0.000057 -0.000008
    14 0.000000 0.000000 0.000000 0.000000 0.000000 -0.713015
    15 0.000000 0.000000 0.000000 0.000000 0.000000 0.000000
    16 0.000000 0.000000 0.000000 0.250110 0.000000 0.000000
    17 0.000000 0.000000 0.000000 -0.000020 0.000054 -0.704443
    18 0.000000 0.000000 0.000000 0.000000 0.000000 0.000000
    19 0.000000 0.000000 0.000000 0.243652 0.000000 0.000000
    20 0.221924 -0.109924 0.000046 0.000000 0.000000 0.356507
    21 0.000000 0.000000 0.000000 0.431339 -0.630974 0.004618
    22 0.000000 0.000000 0.000000 0.000000 0.000000 0.000000
    23 0.000000 0.000000 0.000000 0.186067 -0.000061 -0.000006
    24 0.130005 -0.014168 -0.000053 0.000000 0.000000 0.352290
    25 0.000000 0.000000 0.000000 -0.109459 0.024623 0.433485
    26 0.000000 0.000000 0.000000 0.000000 0.000000 0.000000
    27 0.000000 0.000000 0.000000 -0.000118 -0.000059 0.000000
    28 0.000000 0.000000 0.000000 0.000000 0.000000 0.000000
    29 0.000000 0.000000 0.000000 -0.000059 -0.000059 0.000061
    30 0.000000 0.000000 0.000000 -0.000057 0.000057 0.000000
    31 0.000000 0.000000 0.000000 -0.000059 0.000000 0.000000
    32 0.000000 0.000000 0.000000 0.000000 0.000000 0.000000
    33 0.000000 0.000000 0.000000 0.000000 -0.000057 0.000000
    34 0.000000 0.000000 0.000000 0.000000 -0.000057 -0.000057
    35 0.000000 0.000000 0.000000 0.000000 0.000000 -0.000057
    36 0.000000 0.000000 0.000000 0.000000 0.000000 -0.000057
    37 0.000000 0.000000 0.000000 0.000000 0.000000 0.000000
    38 0.000000 0.000000 0.000000 0.000000 0.000000 0.000000
    39 0.000000 0.000000 0.000000 0.000000 -0.000057 -0.000120
    40 0.000000 0.000000 0.000000 0.000000 0.000059 0.000057
    41 0.000000 0.000000 0.000000 0.000057 0.000061 0.000000
    42 0.000000 0.000000 0.000000 0.000000 0.000000 0.000000
    43 0.000000 0.000000 0.000000 -0.000118 0.000000 0.000000
    44 0.000000 0.000000 0.000000 0.000000 -0.000057 0.000000
    45 0.000000 0.000000 0.000000 0.000000 0.000000 0.000000
    46 0.000000 0.000000 0.000000 0.000000 0.000000 0.000000
    47 0.000000 0.000000 0.000000 0.002462 -0.156733 0.112210
    48 0.000000 0.000000 0.000000 0.000057 0.000057 0.000000
    49 0.000000 0.000000 0.000000 0.000000 0.000000 -0.000061
    50 0.000000 0.000000 0.000000 0.000000 0.000000 0.000000
    51 0.000000 0.000000 0.000000 0.000000 0.000000 0.000057
    52 0.000000 0.000000 0.000000 0.000000 0.000000 0.000000
    53 0.000000 0.000000 0.000000 0.000000 0.000000 0.000000
    54 0.000000 0.000000 0.000000 0.000000 0.000000 0.000000
    55 0.000000 0.000000 0.000000 0.000000 0.000000 0.000057
    56 0.000000 0.000000 0.000000 0.000000 0.000000 0.000000
    57 0.000000 0.000000 0.000000 0.000000 0.000000 0.000000
    58 0.000000 0.000000 0.000000 0.000000 0.000000 0.000000
    59 0.000000 0.000000 0.000000 0.000000 0.000000 -0.000059
    60 0.000000 0.000000 0.000000 0.000000 0.000000 0.000000
    61 0.000000 0.000000 0.000000 0.000000 0.000000 0.000000
    62 0.000000 0.000000 0.000000 -0.000057 0.000057 0.000000
    63 0.000000 0.000000 0.000000 0.000000 0.000000 0.000000
    64 0.000000 0.000000 0.000000 0.000000 0.000000 0.000000
    65 0.000000 0.000000 0.000000 0.000000 0.000000 0.000000
    66 0.000000 0.000000 0.000000 0.000000 0.000000 0.000000
    67 0.000000 0.000000 0.000000 0.000000 0.000000 0.000000
    68 0.000000 0.000000 0.000000 0.000000 0.000000 0.000000
    69 0.000000 0.000000 0.000000 0.000000 0.000000 0.000000
    70 0.000000 0.000000 0.000000 0.028209 0.053123 -0.553003
    71 0.000000 0.000000 0.000000 0.000000 0.000000 0.000000
    72 0.000000 0.000000 0.000000 0.000000 0.000000 0.000000
    73 0.000000 0.000000 0.000000 0.000000 0.000000 0.000000
    74 0.000000 0.000000 0.000000 0.000000 0.000059 0.000000
    75 0.000000 0.000000 0.000000 0.000000 0.000000 0.000000
    76 0.000000 0.000000 0.000000 0.000000 0.000000 0.000000
    77 0.000000 0.000000 0.000000 0.000000 0.000000 0.000057
    78 0.000000 0.000000 0.000000 0.000000 0.000000 0.000000
    79 0.000000 0.000000 0.000000 0.000000 0.000000 0.000000
    80 0.000000 0.000000 0.000000 0.000000 0.000000 -0.000061
    81 0.000000 0.000000 0.000000 0.000000 0.000000 0.000000
    82 0.000000 0.000000 0.000000 0.000000 0.000000 0.000000
    83 0.000000 0.000000 0.000000 0.000000 0.000000 -0.000061
    84 0.000000 0.000000 0.000000 0.000000 0.000000 0.000000
    85 0.000000 0.000000 0.000000 0.000000 0.000000 0.000000
    86 0.000000 0.000000 0.000000 0.000000 0.000000 0.000000
    87 0.000000 0.000000 0.000000 0.000000 0.000061 0.000000
    88 0.000000 0.000000 0.000000 0.000000 0.000000 0.000000
    89 0.000000 0.000000 0.000000 0.000057 -0.000057 0.000000
    90 0.000000 0.000000 0.000000 0.000000 0.000000 0.000000
    91 0.000000 0.000000 0.000000 -0.000057 0.000000 0.000057
    92 0.000000 0.000000 0.000000 0.000000 0.000000 0.000000
    93 0.000000 0.000000 0.000000 0.000000 0.000000 0.000000
    94 0.000000 0.000000 0.000000 0.023298 0.055455 -0.615931
    95 0.000000 0.000000 0.000000 0.000000 0.000000 0.000000
    96 0.000000 0.000000 0.000000 0.000000 -0.000057 -0.000061
    97 0.000000 0.000000 0.000000 0.000000 0.000000 0.000000
    98 0.000000 0.000000 0.000000 0.000000 0.000059 0.000000
    99 0.000000 0.000000 0.000000 0.000000 0.000000 0.000000
    100 0.000000 0.000000 0.000000 -0.000057 0.000000 0.000057
    101 0.000000 0.000000 0.000000 0.000000 0.000000 0.000000
    102 0.000000 0.000000 0.000000 0.000000 0.000000 0.000000
    103 0.000000 0.000000 0.000000 0.000000 0.000000 0.000000
    104 0.000000 0.000000 0.000000 0.000000 0.000000 0.000000
    105 0.000000 0.000000 0.000000 0.000000 0.000000 0.000000
    106 0.000000 0.000000 0.000000 0.000000 0.000000 0.000000
    107 0.000000 0.000000 0.000000 0.000000 0.000000 0.000000
    108 0.000000 0.000000 0.000000 0.000000 0.000000 0.000000
    109 0.000000 0.000000 0.000000 0.000000 0.000000 0.000000
    110 0.000000 0.000000 0.000000 0.000000 0.000000 0.000000
    111 0.000000 0.000000 0.000000 0.000000 0.000000 -1.570796
    112 0.009850 1.688477 -1.422852 0.002608 -0.013961 0.296056
    113 -8.257813 3.589844 7.187500 -0.255315 -0.093225 -1.271086
    114 0.000000 0.000000 0.000000 0.000000 0.000000 0.000000
    115 0.000000 0.000000 0.000000 0.000000 0.000000 0.000000
    116 0.000000 0.000000 0.000000 0.000000 0.000000 0.000000
    117 0.000000 0.000000 0.000000 0.000000 0.000000 0.000000
    118 0.000000 0.000000 0.000000 0.000000 0.000000 0.000000
    119 0.000000 0.000000 0.000000 0.000000 0.000000 0.000000
    120 0.000000 0.000000 0.000000 0.000000 0.000000 0.000000
    121 0.000000 0.000000 0.000000 0.000000 0.000000 0.000000
    122 0.000000 0.000000 0.000000 0.000000 0.000000 0.000000
    123 0.000000 0.000000 0.000000 0.000000 0.000000 0.000000
    124 0.000000 0.000000 0.000000 0.000000 0.000000 0.000000
    125 0.000000 0.000000 0.000000 0.000000 0.000000 0.000000
    126 0.000000 0.000000 0.000000 0.000000 0.000000 0.000000
    127 0.000000 0.000000 0.000000 0.000000 0.000000 0.000000
    128 0.000000 0.000000 0.000000 0.000000 0.000000 0.000000
    129 0.000000 0.000000 0.000000 0.000000 0.000000 0.000000
    130 0.000000 0.000000 0.000000 0.000000 0.000000 0.000000
    131 0.000000 0.000000 0.000000 0.000000 0.000000 0.000000
    132 0.000000 0.000000 0.000000 0.000000 0.000000 0.000000
    133 0.000000 0.000000 0.000000 0.000000 0.000000 0.000000
    134 0.000000 0.000000 0.000000 0.000000 0.000000 0.000000
    135 0.000000 0.000000 0.000000 -0.002377 0.000000 0.000000
    136 -0.357422 4.257813 -1.299805 0.002608 -0.013961 0.296056
    137 0.000000 0.000000 0.000000 0.000000 0.000000 0.000000
    138 0.000000 0.000000 0.000000 0.000000 0.000000 0.000000
    139 0.000000 0.000000 0.000000 0.000000 0.000000 0.000000
    140 0.000000 0.000000 0.000000 0.000000 0.000000 0.000000
    141 0.000000 0.000000 0.000000 0.000000 0.000000 0.000000
    142 0.000000 0.000000 0.000000 0.000000 0.000000 0.000000
    143 0.000000 0.000000 0.000000 0.000000 0.000000 0.000000
    144 0.000000 0.000000 0.000000 0.000000 0.000000 0.000000
    145 0.000000 0.000000 0.000000 0.000000 0.000000 0.000000
    146 0.000000 0.000000 0.000000 0.000000 0.000000 0.000000
    147 0.000000 0.000000 0.000000 0.000000 0.000000 0.000000
    148 0.000000 0.000000 0.000000 0.000000 0.000000 0.000000
    149 0.000000 0.000000 0.000000 0.000000 0.000000 0.000000
    150 0.000000 0.000000 0.000000 0.000000 0.000000 0.000000
    151 0.000000 0.000000 0.000000 0.000000 0.000000 0.000000
    152 0.000000 0.000000 0.000000 0.000000 0.000000 0.000000
    153 0.000000 0.000000 0.000000 0.000000 0.000000 0.000000
    154 0.000000 0.000000 0.000000 0.000000 0.000000 0.000000
    155 0.000000 0.000000 0.000000 0.000000 0.000000 0.000000
    156 0.000000 0.000000 0.000000 0.000000 0.000000 0.000000
    157 0.000000 0.000000 0.000000 0.000000 0.000000 0.000000
    158 0.000000 0.000000 0.000000 0.000000 0.000000 0.000000
    159 0.000000 0.000000 0.000000 0.000000 0.000000 0.000000
    160 0.000000 0.000000 0.000000 0.000000 0.000000 0.000000
    161 0.000000 0.000000 0.000000 0.000000 0.000000 0.000000
    162 0.000000 0.000000 0.000000 0.000000 0.000000 0.000000
    163 0.000000 0.000000 0.000000 0.000000 0.000000 0.000000
    164 0.000000 0.000000 0.000000 0.000000 0.000000 0.000000
    165 0.000000 0.000000 0.000000 0.000000 0.000000 0.000000
    166 0.000000 0.000000 0.000000 0.000000 0.000000 0.000000
    167 0.000000 0.000000 0.000000 0.000000 0.002377 0.000000
    168 0.000000 0.000000 0.000000 0.121842 0.000000 0.000000
    169 0.000000 0.000000 0.000000 0.092988 0.000000 0.000000
    170 0.000000 0.000000 0.000000 0.000000 0.000000 0.000000
    171 0.000000 0.000000 0.000000 0.000000 0.000000 0.000000
    172 0.000000 0.000000 0.000000 -0.000118 0.000000 0.000000
    173 0.000000 0.000000 0.000000 -0.000057 0.000059 -0.000059
    174 0.000000 0.000000 0.000000 0.000000 0.000000 0.000000
    175 0.000000 0.000000 0.000000 0.000000 0.000000 0.000000
    176 0.000000 0.000000 0.000000 0.000000 0.000000 0.000000
    177 0.000000 0.000000 0.000000 0.000000 0.000000 0.000000
    178 0.000000 0.000000 0.000000 -0.000059 0.000057 0.000000
    179 0.000000 0.000000 0.000000 0.000000 0.000000 -0.000057
    180 0.000000 0.000000 0.000000 0.000000 0.000000 0.000000
    181 0.000000 0.000000 0.000000 0.000000 0.000000 0.000000
    182 0.000000 0.000000 0.000000 0.000000 0.000000 0.000000
    183 0.000000 0.000000 0.000000 0.000000 0.000000 0.000000
    184 0.000000 0.000000 0.000000 0.000000 0.000000 0.000000
    185 0.000000 0.000000 0.000000 0.000000 0.000000 0.000000
    186 0.000000 0.000000 0.000000 0.000000 0.000000 0.000000
    187 0.000000 0.000000 0.000000 0.000000 0.000000 0.000000
    188 0.000000 0.000000 0.000000 0.000000 0.000000 0.000000
    189 0.000000 0.000000 0.000000 0.000000 0.000000 0.000000
    190 0.000000 0.000000 0.000000 0.000000 0.000000 0.000000
    191 0.000000 0.000000 0.000000 0.000000 0.000000 0.000000
    192 0.000000 0.000000 0.000000 0.000000 0.000000 0.000000
    193 0.000000 0.000000 0.000000 0.000000 0.000000 0.000000
    194 0.000000 0.000000 0.000000 0.000000 0.000000 0.000000
    195 0.000000 0.000000 0.000000 0.000000 0.000000 0.000000
    196 0.000000 0.000000 0.000000 0.000000 0.000000 0.000000
    197 0.000000 0.000000 0.000000 0.000000 0.000000 0.000000
    198 0.000000 0.000000 0.000000 0.000000 0.000000 0.000000
    199 0.000000 0.000000 0.000000 0.000000 0.000000 0.000000
    200 0.000000 0.000000 0.000000 0.000000 0.000000 0.000000
    201 0.000000 0.000000 0.000000 0.000000 0.000000 0.000000
end
