// Created by Crowbar 0.74
version 1
nodes
  0 "tag_mag_attach" -1
  1 "j_mag1" 0
  2 "j_mag2" 0
  3 "j_bullet_01" 1
  4 "j_bullet_02" 1
  5 "j_bullet_03" 1
  6 "j_bullet_04" 1
  7 "tag_origin" -1
  8 "tag_view" 7
  9 "tag_ads" 8
  10 "tag_torso" 9
  11 "tag_weapon" 10
  12 "j_gun" 11
  13 "tag_sling" 12
  14 "j_basespring" 1
  15 "j_bullet_05" 1
  16 "j_bullet_06" 1
  17 "j_bullet_07" 1
  18 "j_bullet_08" 1
  19 "j_bullet_09" 1
  20 "j_bullet_10" 1
  21 "j_bullet_11" 1
  22 "j_bullet_12" 1
  23 "j_bullet_13" 1
  24 "j_bullet_14" 1
  25 "j_bullet_15" 1
  26 "j_bullet_16" 1
  27 "j_bullet_17" 1
  28 "j_bullet_18" 1
  29 "j_bullet_19" 1
  30 "j_bullet_20" 1
  31 "j_bullet_21" 1
  32 "j_bullet_22" 1
  33 "j_bullet_23" 1
  34 "j_bullet_24" 1
  35 "j_bullet_25" 1
  36 "j_bullet_26" 1
  37 "j_bullet_27" 1
  38 "j_bullet_28" 1
  39 "j_bullet_29" 1
  40 "j_bullet_30" 1
  41 "j_mag_follower" 14
end
skeleton
  time 0
    0 0.000000 -10.054688 50.375000 0.000000 0.000000 -1.570796
    1 -1.323000 0.000000 0.184000 0.000000 0.000000 0.000000
    2 -1.323000 0.000000 0.184000 0.000000 0.000000 0.000000
    3 0.007473 -0.126953 1.541992 0.000000 0.000000 0.000000
    4 0.000209 0.120972 1.709961 0.000000 0.000000 0.000000
    5 0.007145 -0.127075 1.541992 0.000000 0.000000 0.000000
    6 0.008278 0.118835 1.380859 0.000000 0.000000 0.000000
    7 0.000000 0.000000 0.000000 0.000000 0.000000 -1.570796
    8 -0.106000 0.000000 64.320000 0.000000 0.000000 0.000000
    9 0.000000 0.000000 0.000000 0.000000 0.000000 0.000000
    10 -0.904000 0.000000 -11.806000 0.000000 0.000000 0.000000
    11 14.188001 0.000000 0.141998 0.000000 0.000000 0.000000
    12 14.609375 -8.445313 -12.507813 2.328708 0.123457 -0.568475
    13 -26.968750 11.085938 -1.753906 -2.448589 0.480614 -0.338788
    14 0.674000 -0.016000 -4.770000 3.141593 -1.280959 3.141593
    15 0.010931 -0.156082 1.219293 0.000000 0.000000 0.000000
    16 0.006973 0.114980 1.043284 0.000000 0.000000 0.000000
    17 0.013147 -0.156076 0.882284 0.000000 0.000000 0.000000
    18 0.011894 0.124113 0.711288 0.000000 0.000000 0.000000
    19 0.011850 -0.156116 0.548284 0.000000 0.000000 0.000000
    20 0.009906 0.125014 0.385284 0.000000 0.000000 0.000000
    21 0.014855 -0.156100 0.218284 0.000000 0.000000 0.000000
    22 0.012971 0.118108 0.050288 0.000000 0.000000 0.000000
    23 0.033799 -0.155943 -0.113708 0.000000 0.000000 0.000000
    24 0.027133 0.117976 -0.288712 0.000000 0.000000 0.000000
    25 0.052955 -0.155952 -0.445712 0.000000 0.000000 0.000000
    26 0.050934 0.117975 -0.620712 0.000000 0.000000 0.000000
    27 0.049113 -0.155989 -0.779709 0.000000 0.000000 0.000000
    28 0.046953 0.117968 -0.954705 0.000000 0.000000 0.000000
    29 0.082930 -0.156007 -1.106705 0.000000 0.000000 0.000000
    30 0.081171 0.117968 -1.281709 0.000000 0.000000 0.000000
    31 0.122830 -0.156094 -1.437709 0.000000 0.000000 0.000000
    32 0.121957 0.117988 -1.612705 0.000000 0.000000 0.000000
    33 0.157932 -0.155872 -1.772709 0.000000 0.000000 0.000000
    34 0.155880 0.117969 -1.946712 0.000000 0.000000 0.000000
    35 0.208129 -0.155954 -2.097709 0.000000 0.000000 0.000000
    36 0.206131 0.118021 -2.272815 0.000000 0.000000 0.000000
    37 0.264029 -0.156109 -2.423709 0.000000 0.000000 0.000000
    38 0.261799 0.118021 -2.598712 0.000000 0.000000 0.000000
    39 0.324799 -0.155906 -2.753811 0.000000 0.000000 0.000000
    40 0.322798 0.117988 -2.928808 0.000000 0.000000 0.000000
    41 1.497441 -0.000052 -0.011369 0.000000 0.000000 0.000000
end
