// Created by Crowbar 0.74
version 1
nodes
  0 "tag_barrel_attach" -1
  1 "j_slide" 0
  2 "tag_flash_attachment" 0
  3 "tag_silencer" 0
  4 "j_safety" 1
  5 "tag_sight_on" 0
  6 "tag_sight_on2" 1
end
skeleton
  time 0
    0 0.000000 0.000000 0.000000 0.000000 0.000000 -1.570796
    1 0.000000 0.000000 0.000000 0.000000 0.000000 0.000000
    2 7.960000 0.000000 0.881000 0.000000 0.000000 0.000000
    3 7.967000 0.000000 0.881000 0.000000 0.000000 0.000000
    4 -4.745000 0.000000 0.792000 0.000000 0.000000 0.000000
    5 3.016000 0.000000 1.430000 0.000000 0.000000 0.000000
    6 -2.446000 -0.025000 1.124000 0.000000 0.000000 0.000000
end
