// Created by Crowbar 0.74
version 1
nodes
  0 "tag_grenade_launcher" -1
  1 "tag_barrel_hide" 0
  2 "tag_flash_alt" 0
  3 "j_gpapa25_chamber" 0
  4 "j_gpapa25_grenade" 0
  5 "j_gpapa25_grenade_empty" 0
  6 "j_gpapa25_safety" 0
  7 "j_gpapa25_shelleject" 0
  8 "j_gpapa25_trigger" 0
  9 "j_gpapa25_ironsight_front" 1
  10 "j_gpapa25_ironsight_rear" 1
  11 "j_gpapa25_sightknob" 1
end
skeleton
  time 0
    0 0.000000 0.000000 0.000000 0.000000 0.000000 -1.570796
    1 0.000000 0.000000 0.000000 0.000000 0.000000 0.000000
    2 12.114000 0.000000 -0.802000 0.000000 0.000000 0.000000
    3 9.619000 0.000000 -0.802000 0.000000 0.000000 0.000000
    4 9.812000 0.000000 -0.802000 0.000000 0.000000 0.000000
    5 9.812000 0.000000 -0.802000 0.000000 0.000000 0.000000
    6 6.343000 0.466000 -0.384000 0.000000 0.000000 0.000000
    7 6.663000 0.848000 -0.863000 0.000000 0.000000 0.000000
    8 4.198000 0.000000 -0.787000 0.000000 0.000000 0.000000
    9 11.179000 1.236000 0.820000 0.103592 0.184673 0.515085
    10 7.153000 1.978000 1.780000 0.000250 -0.211460 3.139234
    11 10.551000 1.374000 0.955000 0.000000 0.211460 0.000000
end
