// Created by Crowbar 0.74
version 1
nodes
  0 "tag_mag_attach" -1
  1 "j_mag1" 0
  2 "j_mag2" 0
  3 "j_bullet" 0
  4 "j_bullet2" 0
  5 "j_bullet_grp2" 0
end
skeleton
  time 0
    0 0.000000 0.000000 0.000000 0.000000 0.000000 -1.570796
    1 -1.606997 0.000000 0.564999 0.000000 0.314170 0.000000
    2 -1.606997 0.000000 0.564999 0.000000 0.314170 0.000000
    3 -1.532997 0.000000 1.130998 -0.262465 -0.000015 1.570754
    4 -1.532997 0.000000 1.130998 -0.262465 -0.000015 1.570754
    5 -1.592997 0.000000 0.615999 0.000000 0.000000 0.000000
end
