// Created by Crowbar 0.74
version 1
nodes
  0 "tag_barrel_attach" -1
  1 "tag_flash_attachment" 0
  2 "tag_silencer" 0
  3 "j_slide" 0
  4 "j_safety" 3
  5 "tag_sight_on" 0
  6 "tag_sight_on2" 3
end
skeleton
  time 0
    0 0.000000 0.000000 0.000000 0.000000 0.000000 -1.570796
    1 3.957000 0.000000 0.809000 0.000000 0.000000 0.000000
    2 3.961000 0.000000 0.809000 0.000000 0.000000 0.000000
    3 0.000000 0.000000 0.000000 0.000000 0.000000 0.000000
    4 -4.745000 0.000000 0.792000 0.000000 0.000000 0.000000
    5 3.016000 0.000000 1.430000 0.000000 0.000000 0.000000
    6 -2.446000 -0.025000 1.124000 0.000000 0.000000 0.000000
end
