// Created by Crowbar 0.74
version 1
nodes
  0 "tag_mag_attach" -1
  1 "j_loose_round" 0
  2 "j_mag1" 0
  3 "j_mag2" 0
  4 "j_loose_bullet" 1
  5 "j_bullet_01" 2
  6 "j_bullet_02" 2
  7 "j_bullet_03" 2
  8 "j_bullet_04" 2
end
skeleton
  time 0
    0 0.000000 0.000000 0.000000 0.000000 0.000000 -1.570796
    1 0.000000 0.000000 0.000000 0.000000 0.000000 0.000000
    2 -1.323000 0.000000 0.184000 0.000000 0.000000 0.000000
    3 -1.323000 0.000000 0.184000 0.000000 0.000000 0.000000
    4 -22.857000 -0.070000 2.287000 0.000000 0.000000 0.000000
    5 0.000000 -0.127000 1.693000 0.000000 0.000000 0.000000
    6 0.000000 0.121000 1.531000 0.000000 0.000000 0.000000
    7 0.007000 -0.127000 1.363000 0.000000 0.000000 0.000000
    8 0.008000 0.119000 1.202000 0.000000 0.000000 0.000000
end
