// Created by Crowbar 0.74
version 1
nodes
  0 "tag_mag_attach" -1
  1 "j_mag1" 0
  2 "j_mag2" 0
  3 "j_bullet" 0
  4 "j_bullet2" 0
  5 "j_bullet_grp2" 0
  6 "j_bullet_grp3" 0
  7 "j_bullet_grp4" 0
  8 "j_bullet_grp5" 0
end
skeleton
  time 0
    0 0.000000 0.000000 0.000000 0.000000 0.000000 -1.570796
    1 -1.606997 0.000000 0.564999 0.000000 0.314170 0.000000
    2 -1.606997 0.000000 0.564999 0.000000 0.314170 0.000000
    3 -1.532997 0.000000 1.130998 -0.262475 -0.000005 1.570751
    4 -1.532997 0.000000 1.130998 -0.262475 -0.000005 1.570751
    5 -1.592997 0.000000 0.615999 0.000000 0.000000 0.000000
    6 -1.792997 0.000000 0.163000 0.000000 0.000000 0.000000
    7 -1.929996 0.000000 -0.285999 0.000000 0.000000 0.000000
    8 -2.040996 0.000000 -0.769998 0.000000 0.000000 0.000000
end
