// Created by Crowbar 0.74
version 1
nodes
  0 "tag_origin" -1
  1 "tag_sync" 0
  2 "tag_view" 0
  3 "tag_camera_scripted" 0
  4 "tag_ads" 2
  5 "tag_cambone" 2
  6 "tag_torso" 4
  7 "tag_camera" 5
  8 "j_mainroot" 6
  9 "tag_weapon" 6
  10 "tag_player" 7
  11 "tag_playerhelmet" 7
  12 "j_hip_le" 8
  13 "j_hip_ri" 8
  14 "j_spinelower" 8
  15 "j_groinprotector" 8
  16 "j_crotch" 8
  17 "j_hiptwist_le" 12
  18 "j_knee_le" 12
  19 "j_hip_proc_le" 12
  20 "j_hiptwist_ri" 13
  21 "j_knee_ri" 13
  22 "j_hip_proc_ri" 13
  23 "j_spineupper" 14
  24 "j_proc_spinelower" 14
  25 "j_ankle_le" 18
  26 "j_kneedq_le" 18
  27 "tag_stowed_thigh" 20
  28 "j_ankle_ri" 21
  29 "j_kneedq_ri" 21
  30 "j_spine4" 23
  31 "j_proc_spineupper" 23
  32 "j_ball_le" 25
  33 "j_ball_ri" 28
  34 "j_chest" 30
  35 "j_clavicle_le" 30
  36 "j_clavicle_ri" 30
  37 "j_neck" 30
  38 "tag_carry_attach" 30
  39 "j_shoulder_le" 35
  40 "j_shoulder_ri" 36
  41 "j_head" 37
  42 "j_shouldertwist_le" 39
  43 "j_elbow_le" 39
  44 "j_shouldertwist_ri" 40
  45 "j_elbow_ri" 40
  46 "j_head_end" 41
  47 "j_nvg" 41
  48 "j_eyeball_le" 41
  49 "j_eyeball_ri" 41
  50 "j_jaw" 41
  51 "j_wristfronttwist1_le" 43
  52 "j_wrist_le" 43
  53 "j_shield_le" 43
  54 "j_elbowdq_le" 43
  55 "j_shield_ri" 45
  56 "j_wrist_ri" 45
  57 "j_wristfronttwist1_ri" 45
  58 "j_elbowdq_ri" 45
  59 "j_helmet" 46
  60 "j_proc_wristfronttwist1_le" 51
  61 "tag_weapon_left" 52
  62 "tag_accessory_left" 52
  63 "j_metaindex_le_1" 52
  64 "j_metamid_le_1" 52
  65 "j_metapinky_le_1" 52
  66 "j_metaring_le_1" 52
  67 "j_thumb_le_1" 52
  68 "j_webbing_le_1" 52
  69 "j_proc_metaindex_le_1" 52
  70 "j_proc_metaknuckle_le_1" 52
  71 "j_proc_metapinky_le_1" 52
  72 "j_gun" 56
  73 "tag_weapon_right" 56
  74 "tag_accessory_right" 56
  75 "j_metaindex_ri_1" 56
  76 "j_metamid_ri_1" 56
  77 "j_metapinky_ri_1" 56
  78 "j_metaring_ri_1" 56
  79 "j_thumb_ri_1" 56
  80 "j_webbing_ri_1" 56
  81 "tag_knife_attach2" 56
  82 "j_proc_metaindex_ri_1" 56
  83 "j_proc_metaknuckle_ri_1" 56
  84 "j_proc_metapinky_ri_1" 56
  85 "j_visor" 59
  86 "j_visor_inner" 59
  87 "tag_wrist_attach_le" 60
  88 "j_index_le_1" 63
  89 "j_mid_le_1" 64
  90 "j_pinky_le_1" 65
  91 "j_webbing_le_3" 65
  92 "j_ring_le_1" 66
  93 "j_thumb_le_2" 67
  94 "j_webbing_le_2" 67
  95 "j_proc_metaindex_le_2" 69
  96 "j_proc_knuckle_le_1" 70
  97 "j_proc_idle_knuckle_le_1" 70
  98 "j_proc_orient_knuckle_le_1" 70
  99 "j_proc_metapinky_le_2" 71
  100 "j_index_ri_1" 75
  101 "j_mid_ri_1" 76
  102 "j_pinky_ri_1" 77
  103 "j_webbing_ri_3" 77
  104 "j_ring_ri_1" 78
  105 "j_thumb_ri_2" 79
  106 "j_webbing_ri_2" 79
  107 "j_proc_metaindex_ri_2" 82
  108 "j_proc_knuckle_ri_1" 83
  109 "j_proc_idle_knuckle_ri_1" 83
  110 "j_proc_orient_knuckle_ri_1" 83
  111 "j_proc_metapinky_ri_2" 84
  112 "j_index_le_2" 88
  113 "j_indexbulge_le_1" 88
  114 "j_proc_index_le_1" 88
  115 "j_mid_le_2" 89
  116 "j_proc_mid_le_1" 89
  117 "j_pinky_le_2" 90
  118 "j_proc_pinky_le_1" 90
  119 "j_ring_le_2" 92
  120 "j_proc_ring_le_1" 92
  121 "j_thumb_le_3" 93
  122 "j_index_ri_2" 100
  123 "j_indexbulge_ri_1" 100
  124 "j_proc_index_ri_1" 100
  125 "j_mid_ri_2" 101
  126 "j_proc_mid_ri_1" 101
  127 "j_pinky_ri_2" 102
  128 "j_proc_pinky_ri_1" 102
  129 "j_ring_ri_2" 104
  130 "j_proc_ring_ri_1" 104
  131 "j_thumb_ri_3" 105
  132 "j_index_le_3" 112
  133 "j_mid_le_3" 115
  134 "j_pinky_le_3" 117
  135 "j_ring_le_3" 119
  136 "j_thumb_le_4" 121
  137 "j_index_ri_3" 122
  138 "j_mid_ri_3" 125
  139 "j_pinky_ri_3" 127
  140 "j_ring_ri_3" 129
  141 "j_thumb_ri_4" 131
  142 "j_index_le_4" 132
  143 "j_index_ri_4" 137
end
skeleton
  time 0
    0 0.000000 0.000000 0.000000 0.000000 0.000000 -1.570796
    1 0.000000 0.000000 0.000000 0.000000 0.000000 0.000000
    2 -0.113420 0.000000 68.822403 0.000000 0.000000 0.000000
    3 -0.113420 0.000000 68.822403 0.000000 0.000000 0.000000
    4 0.000000 0.000000 0.000000 0.000000 0.000000 0.000000
    5 0.000000 0.000000 0.000000 0.000000 0.000000 0.000000
    6 -0.967280 0.000000 -12.632420 0.000000 0.000000 0.000000
    7 0.000000 0.000000 0.000000 0.000000 0.000000 0.000000
    8 0.000000 0.000000 -15.315983 0.000000 -1.570796 1.570857
    9 15.181162 0.000000 0.151939 0.000000 0.000000 0.000000
    10 0.113420 0.000000 -68.822403 0.000000 0.000000 0.000000
    11 0.000000 0.000000 0.000000 0.000000 0.000000 0.000000
    12 0.000000 0.000000 -5.207690 -3.141537 0.008728 -3.128653
    13 0.000000 0.000000 5.207690 -3.141537 0.008728 -3.128653
    14 3.780312 0.000000 0.000000 0.000000 0.000000 0.000000
    15 4.279999 -6.955000 0.000000 0.000000 0.000000 0.000977
    16 -6.955002 0.000000 0.000000 0.000000 1.570796 0.000000
    17 1.070095 -0.000031 0.000000 0.000000 0.000000 0.000000
    18 18.363899 -0.000432 0.000000 0.000000 0.000000 0.119214
    19 10.699881 -0.000324 0.000000 0.000000 0.000000 0.000000
    20 1.070095 -0.000031 0.000000 0.000000 0.000000 0.000000
    21 18.363897 -0.000432 0.000000 0.000000 0.000000 0.119214
    22 10.164827 0.000227 0.000000 0.000000 0.000000 0.000000
    23 6.687500 0.000000 0.000000 0.000000 0.000000 0.000000
    24 0.000000 0.000000 0.000000 0.000000 0.000000 0.000000
    25 18.991831 0.316201 0.000000 0.000000 0.000000 -1.158958
    26 0.019140 0.320777 0.000000 0.000000 0.000000 -0.059582
    27 13.143427 1.692158 -5.024720 1.462269 -0.086726 0.090185
    28 18.991831 0.316201 0.000000 0.000000 0.000000 -1.158958
    29 0.019142 0.320777 0.000000 0.000000 0.000000 -0.059582
    30 4.848167 0.000000 0.000000 0.000000 0.000000 0.000000
    31 0.000000 0.000000 0.000000 0.000000 0.000000 0.000000
    32 5.792470 0.000372 0.000000 0.000000 0.000000 -0.518055
    33 5.792470 0.000371 0.000000 0.000000 0.000000 -0.518055
    34 0.000000 0.000000 0.000000 0.000000 0.000000 0.000000
    35 5.389587 -0.022470 -2.079010 -1.156652 1.547412 -1.156738
    36 5.390659 -0.022470 2.079010 1.156652 -1.547412 -1.156738
    37 9.440613 0.000000 0.000000 0.000000 0.000000 -0.294101
    38 10.598351 -5.870020 -6.894010 1.570796 0.000000 -3.141592
    39 6.189539 -0.000033 0.000244 -0.074842 0.826790 -0.247862
    40 6.189540 -0.000033 -0.000248 0.074842 -0.826790 -0.247862
    41 3.335159 -0.000473 0.000000 0.000000 0.000000 0.294101
    42 0.535244 0.000143 -0.000065 0.000000 0.000000 0.000000
    43 12.337358 -0.000310 0.000198 0.000000 0.000000 -0.819722
    44 0.535244 0.000143 0.000061 0.000000 0.000000 0.000000
    45 12.336578 -0.000363 -0.000923 0.000000 0.000000 -0.819722
    46 6.669312 0.000000 0.000000 0.000000 0.000000 0.000000
    47 6.678932 -6.826601 0.000000 0.000000 0.000000 0.000000
    48 3.757843 -3.795290 -1.140620 0.000000 1.570796 0.000000
    49 3.697922 -3.763190 1.250830 0.000000 1.570796 0.000000
    50 -0.184036 -0.113420 -0.965140 1.570713 1.029176 -3.134550
    51 11.342057 -0.000357 -0.000675 0.000000 0.000000 0.000000
    52 11.814166 -0.000366 -0.000690 0.000000 0.000000 0.000000
    53 4.279400 -0.000568 -0.000355 0.000000 0.000000 0.000000
    54 0.127552 -0.295065 -0.000153 0.000000 0.000000 0.409862
    55 4.279893 0.000042 0.001083 0.000000 0.000000 0.000000
    56 11.814165 -0.000366 0.000694 0.000000 0.000000 0.000000
    57 11.342056 -0.000353 0.000675 0.000000 0.000000 0.000000
    58 0.128046 -0.294460 0.000881 0.000000 0.000000 0.409862
    59 1.709862 0.000000 0.000000 0.000000 0.000000 0.000000
    60 -1.225715 0.000139 0.000721 0.000000 0.000000 0.000000
    61 -20.233570 -9.017578 0.000496 0.812879 -0.123459 -0.568477
    62 -10.251336 -29.812450 -39.787609 0.812879 -0.123459 -0.568477
    63 0.653032 -1.005302 0.075203 -1.655296 -0.140062 -0.175589
    64 0.684745 -0.213093 0.064388 -1.665960 -0.131392 -0.066411
    65 0.642193 1.155880 -0.363243 -1.738109 0.020770 0.107420
    66 0.652437 0.428177 -0.010056 -1.762270 -0.061631 0.042968
    67 0.673811 -0.738346 -0.245857 0.087267 0.607389 -1.183284
    68 2.460655 -2.674978 -0.641445 0.892008 0.221536 -0.527289
    69 0.695427 -0.586676 0.100204 -1.665913 -0.131399 -0.112062
    70 0.703069 0.008989 0.043194 -1.665945 -0.131407 -0.000013
    71 0.712379 0.799526 -0.031231 -1.665935 -0.131408 0.094976
    72 -20.233072 -9.016972 0.000229 2.328713 0.123459 -0.568477
    73 -20.233072 -9.016972 0.000229 2.328713 0.123459 -0.568477
    74 7.734301 8.483179 -4.200443 2.328713 0.123459 -0.568477
    75 0.653028 -1.005302 -0.075211 1.655296 0.140062 -0.175589
    76 0.684740 -0.213093 -0.064396 1.665960 0.131392 -0.066411
    77 0.642189 1.155884 0.363232 1.738109 -0.020770 0.107420
    78 0.652931 0.428785 0.010780 1.762270 0.061631 0.042968
    79 0.674305 -0.737736 0.246586 -0.087267 -0.607389 -1.183284
    80 2.461146 -2.674372 0.642166 -0.892008 -0.221536 -0.527289
    81 2.955716 0.125137 1.630653 1.629482 0.064153 1.743800
    82 0.695918 -0.586071 -0.099487 1.665913 0.131399 -0.112062
    83 0.703065 0.008987 -0.043209 1.665945 0.131407 -0.000013
    84 0.712379 0.799528 0.031227 1.665935 0.131408 0.094976
    85 -4.794670 -0.216140 0.000000 0.000000 0.000000 0.000000
    86 -5.903191 -0.311370 -0.001070 0.000000 0.000000 0.000000
    87 -0.917732 0.111355 0.112015 0.023536 0.163924 0.013632
    88 2.802986 0.000156 0.000431 0.201604 -0.020138 0.350097
    89 2.845738 0.000122 -0.000887 0.027386 -0.033311 0.477848
    90 2.353716 0.000549 0.000126 0.000000 0.000000 0.628156
    91 0.641392 1.025803 -0.321739 -0.174545 0.000000 0.000000
    92 2.739641 -0.000168 0.000032 0.002475 -0.050635 0.521453
    93 2.246399 0.000514 -0.000443 -0.242426 0.290018 0.541645
    94 1.069516 0.000405 -1.294910 0.000000 0.000000 0.000000
    95 2.032059 0.000450 -0.000471 0.027386 -0.033311 0.477848
    96 1.925635 -0.000256 0.000248 0.027386 -0.033311 0.477848
    97 1.925635 -0.000256 0.000248 0.027386 -0.033311 0.477848
    98 1.925635 -0.000256 0.000248 0.027386 -0.033311 0.477848
    99 2.033331 -0.000153 -0.000553 0.027386 -0.033311 0.477848
    100 2.802985 0.000153 -0.000433 -0.201604 0.020138 0.350097
    101 2.846090 0.000839 0.000174 -0.027386 0.033311 0.477848
    102 2.353716 0.000561 -0.000130 0.000000 0.000000 0.628156
    103 0.641960 1.026424 0.321075 0.174545 0.000000 0.000000
    104 2.739640 -0.000160 -0.000034 -0.002475 0.050635 0.521453
    105 2.246289 -0.000104 -0.000423 0.242426 -0.290018 0.541645
    106 1.069403 -0.000212 1.294041 0.000000 0.000000 0.000000
    107 2.032397 -0.000336 -0.000162 -0.027386 0.033311 0.477848
    108 1.925636 -0.000256 -0.000250 -0.027386 0.033311 0.477848
    109 3.089199 -1.289528 -1.174606 -0.027386 0.033311 0.477848
    110 1.925636 -0.000256 -0.000250 -0.027386 0.033311 0.477848
    111 2.033779 0.000584 -0.000078 -0.027386 0.033311 0.477848
    112 1.998614 -0.000069 -0.000561 0.000000 0.000000 0.463059
    113 1.284485 0.426838 -0.000795 -0.009465 0.016087 0.007127
    114 0.000121 0.106659 -0.000948 -0.120035 -0.021926 -0.209617
    115 2.149404 -0.000095 -0.000237 0.000000 0.000000 0.978400
    116 0.000237 0.105923 0.000221 -0.018823 0.010833 -0.239219
    117 1.261877 0.000235 -0.000742 0.000000 0.000000 0.743195
    118 -0.000210 0.106600 -0.000036 0.000000 0.000000 -0.314102
    119 1.828360 0.000771 -0.000217 0.000000 0.000000 0.829235
    120 0.000147 0.107471 0.000343 -0.010915 0.023132 -0.260845
    121 1.380306 -0.000240 0.000637 0.000000 0.000000 0.367115
    122 1.998614 -0.000065 0.000561 0.000000 0.000000 0.463059
    123 1.284064 0.427925 -0.000164 0.009465 -0.016087 0.007127
    124 0.000637 0.107376 0.000345 0.120035 0.021926 -0.209617
    125 2.149386 -0.000946 -0.000406 0.000000 0.000000 0.978400
    126 0.000237 0.105934 -0.000221 0.018823 -0.010833 -0.239219
    127 1.262699 0.000397 0.000080 0.000000 0.000000 0.743195
    128 -0.000206 0.106598 0.000032 0.000000 0.000000 -0.314102
    129 1.828362 0.000774 0.000212 0.000000 0.000000 0.829235
    130 -0.000624 0.107151 0.000334 0.010915 -0.023132 -0.260845
    131 1.380947 0.000389 -0.000053 0.000000 0.000000 0.367115
    132 0.984409 -0.000313 -0.000448 0.000000 0.000000 0.632325
    133 1.176666 -0.000454 0.000145 0.000000 0.000000 0.463695
    134 0.727741 -0.001312 0.000473 0.000000 0.000000 0.546278
    135 1.091396 -0.000851 -0.000227 0.000000 0.000000 0.566719
    136 0.641874 0.428198 -0.000034 0.000000 0.000000 0.000000
    137 0.983744 0.000431 0.000092 0.000000 0.000000 0.632325
    138 1.177383 0.000010 0.000500 0.000000 0.000000 0.463695
    139 0.727020 -0.000874 0.000187 0.000000 0.000000 0.546278
    140 1.091190 -0.000028 -0.000423 0.000000 0.000000 0.566719
    141 0.641880 0.428200 0.000034 0.000000 0.000000 -3.141592
    142 0.641460 0.428747 0.000250 0.000000 0.000000 0.000000
    143 0.642433 0.427605 -0.000502 0.000000 0.000000 -3.141592
end
