// Created by Crowbar 0.74
version 1
nodes
  0 "tag_hybrid" -1
  1 "j_magnifier" 0
  2 "tag_reticle_attach" 1
  3 "tag_glass_ads2" 0
  4 "tag_glass_hip2" 0
  5 "tag_reticle_attach2" 0
end
skeleton
  time 0
    0 0.000000 0.000000 0.000000 0.000000 0.000000 -1.570796
    1 -0.001000 -0.189000 0.239000 0.000000 0.000000 0.000000
    2 -1.357000 0.189000 0.866000 0.000000 0.000000 0.000000
    3 0.000000 0.000000 0.000000 0.000000 0.000000 0.000000
    4 0.000000 0.000000 0.000000 0.000000 0.000000 0.000000
    5 1.270000 0.000000 1.105000 0.000000 0.000000 0.000000
end
