// Created by Crowbar 0.74
version 1
nodes
  0 "tag_origin" -1
  1 "tag_sync" 0
  2 "tag_view" 0
  3 "tag_ads" 2
  4 "tag_torso" 3
  5 "j_mainroot" 4
  6 "j_hip_le" 5
  7 "j_hiptwist_le" 6
  8 "j_knee_le" 6
  9 "j_ankle_le" 8
  10 "j_ball_le" 9
  11 "j_kneedq_le" 8
  12 "j_hip_proc_le" 6
  13 "j_hip_ri" 5
  14 "j_hiptwist_ri" 13
  15 "tag_stowed_thigh" 14
  16 "j_knee_ri" 13
  17 "j_ankle_ri" 16
  18 "j_ball_ri" 17
  19 "j_kneedq_ri" 16
  20 "j_hip_proc_ri" 13
  21 "j_spinelower" 5
  22 "j_spineupper" 21
  23 "j_spine4" 22
  24 "j_chest" 23
  25 "j_clavicle_le" 23
  26 "j_shoulder_le" 25
  27 "j_shouldertwist_le" 26
  28 "j_elbow_le" 26
  29 "j_wristfronttwist1_le" 28
  30 "j_proc_wristfronttwist1_le" 29
  31 "tag_wrist_attach_le" 30
  32 "j_wrist_le" 28
  33 "tag_weapon_left" 32
  34 "tag_accessory_left" 32
  35 "j_metaindex_le_1" 32
  36 "j_index_le_1" 35
  37 "j_index_le_2" 36
  38 "j_index_le_3" 37
  39 "j_index_le_4" 38
  40 "j_indexbulge_le_1" 36
  41 "j_proc_index_le_1" 36
  42 "j_metamid_le_1" 32
  43 "j_mid_le_1" 42
  44 "j_mid_le_2" 43
  45 "j_mid_le_3" 44
  46 "j_proc_mid_le_1" 43
  47 "j_metapinky_le_1" 32
  48 "j_pinky_le_1" 47
  49 "j_pinky_le_2" 48
  50 "j_pinky_le_3" 49
  51 "j_proc_pinky_le_1" 48
  52 "j_webbing_le_3" 47
  53 "j_metaring_le_1" 32
  54 "j_ring_le_1" 53
  55 "j_ring_le_2" 54
  56 "j_ring_le_3" 55
  57 "j_proc_ring_le_1" 54
  58 "j_thumb_le_1" 32
  59 "j_thumb_le_2" 58
  60 "j_thumb_le_3" 59
  61 "j_thumb_le_4" 60
  62 "j_webbing_le_2" 58
  63 "j_webbing_le_1" 32
  64 "j_proc_knuckle_le_1" 32
  65 "j_proc_metaindex_le_1" 32
  66 "j_proc_metaindex_le_2" 65
  67 "j_proc_metaknuckle_le_1" 32
  68 "j_proc_idle_knuckle_le_1" 67
  69 "j_proc_orient_knuckle_le_1" 67
  70 "j_proc_metapinky_le_1" 32
  71 "j_proc_metapinky_le_2" 70
  72 "j_shield_le" 28
  73 "j_elbowdq_le" 28
  74 "j_teres_le" 25
  75 "j_clavicle_ri" 23
  76 "j_shoulder_ri" 75
  77 "j_shouldertwist_ri" 76
  78 "j_elbow_ri" 76
  79 "j_shield_ri" 78
  80 "j_wrist_ri" 78
  81 "j_gun" 80
  82 "tag_weapon_right" 80
  83 "tag_accessory_right" 80
  84 "j_metaindex_ri_1" 80
  85 "j_index_ri_1" 84
  86 "j_index_ri_2" 85
  87 "j_index_ri_3" 86
  88 "j_index_ri_4" 87
  89 "j_indexbulge_ri_1" 85
  90 "j_proc_index_ri_1" 85
  91 "j_metamid_ri_1" 80
  92 "j_mid_ri_1" 91
  93 "j_mid_ri_2" 92
  94 "j_mid_ri_3" 93
  95 "j_proc_mid_ri_1" 92
  96 "j_metapinky_ri_1" 80
  97 "j_pinky_ri_1" 96
  98 "j_pinky_ri_2" 97
  99 "j_pinky_ri_3" 98
  100 "j_proc_pinky_ri_1" 97
  101 "j_webbing_ri_3" 96
  102 "j_metaring_ri_1" 80
  103 "j_ring_ri_1" 102
  104 "j_ring_ri_2" 103
  105 "j_ring_ri_3" 104
  106 "j_proc_ring_ri_1" 103
  107 "j_thumb_ri_1" 80
  108 "j_thumb_ri_2" 107
  109 "j_thumb_ri_3" 108
  110 "j_thumb_ri_4" 109
  111 "j_webbing_ri_2" 107
  112 "j_webbing_ri_1" 80
  113 "tag_knife_attach2" 80
  114 "j_proc_knuckle_ri_1" 80
  115 "j_proc_metaindex_ri_1" 80
  116 "j_proc_metaindex_ri_2" 115
  117 "j_proc_metaknuckle_ri_1" 80
  118 "j_proc_idle_knuckle_ri_1" 117
  119 "j_proc_orient_knuckle_ri_1" 117
  120 "j_proc_metapinky_ri_1" 80
  121 "j_proc_metapinky_ri_2" 120
  122 "j_wristfronttwist1_ri" 78
  123 "j_elbowdq_ri" 78
  124 "j_teres_ri" 75
  125 "j_neck" 23
  126 "j_head" 125
  127 "j_head_end" 126
  128 "j_helmet" 127
  129 "j_visor" 128
  130 "j_visor_inner" 128
  131 "j_nvg" 126
  132 "j_eyeball_le" 126
  133 "j_eyeball_ri" 126
  134 "j_jaw" 126
  135 "j_proc_spine4" 23
  136 "tag_carry_attach" 135
  137 "j_proc_spineupper" 22
  138 "j_proc_spinelower" 21
  139 "j_groinprotector" 5
  140 "j_crotch" 5
  141 "tag_weapon" 4
  142 "tag_cambone" 2
  143 "tag_camera" 142
  144 "tag_player" 143
  145 "tag_playerhelmet" 143
  146 "tag_camera_scripted" 0
end
skeleton
  time 0
    0 0.000000 0.000000 0.000000 0.000000 0.000000 -1.570796
    1 0.000000 0.000000 0.000000 0.000000 0.000000 0.000000
    2 -0.106000 0.000000 64.320000 0.000000 0.000000 0.000000
    3 0.000000 0.000000 0.000000 0.000000 0.000000 0.000000
    4 -0.904000 0.000000 -11.806000 0.000000 0.000000 0.000000
    5 0.000000 0.000000 -14.313999 0.000000 -1.570796 1.570857
    6 0.000000 0.000000 -4.867001 -3.141536 0.008715 -3.128641
    7 1.000084 -0.000017 0.000013 0.000000 0.000000 -0.000001
    8 17.162552 -0.000194 0.000219 -0.000002 -0.000011 0.119269
    9 17.749397 0.294755 0.000031 0.000002 -0.000002 -1.159004
    10 5.413528 0.000368 -0.000007 -0.000001 0.000001 -0.518047
    11 0.017891 0.299792 0.000001 0.000001 -0.000005 -0.059622
    12 9.999897 -0.000181 0.000129 0.000000 -0.000016 -0.000004
    13 0.000000 0.000000 4.867001 -3.141536 0.008715 -3.128641
    14 1.000092 -0.000017 0.000012 0.000000 0.000000 -0.000001
    15 12.283625 1.581611 -4.695848 1.462268 -0.086735 0.090198
    16 17.162558 -0.000194 0.000217 -0.000002 -0.000011 0.119269
    17 17.749397 0.294755 0.000031 0.000002 -0.000002 -1.159003
    18 5.413527 0.000363 -0.000005 -0.000001 0.000000 -0.518054
    19 0.017893 0.299792 0.000000 0.000001 -0.000005 -0.059622
    20 9.499849 0.000328 0.000122 0.000000 -0.000016 0.000037
    21 3.533001 -0.000001 0.000000 0.000000 0.000000 0.000000
    22 6.250000 -0.000002 0.000000 0.000000 0.000000 0.000000
    23 4.531002 -0.000001 0.000000 0.000000 0.000000 0.000000
    24 0.000000 0.000000 0.000000 0.000000 0.000000 0.000000
    25 5.036999 -0.021001 -1.943002 -1.156945 1.547418 -1.157023
    26 5.784615 -0.000045 0.000275 -0.074806 0.826774 -0.247834
    27 0.500233 0.000128 -0.000057 0.000003 0.000000 -0.000002
    28 11.530254 -0.000433 0.000065 -0.000008 0.000001 -0.819730
    29 10.600061 -0.000372 -0.000652 0.000000 0.000000 0.000000
    30 5.651738 19.507776 -44.898487 0.812899 -0.123373 -0.568546
    31 -0.244616 0.021806 0.107395 0.023394 0.097196 0.012069
    32 11.041286 -0.000385 -0.000675 0.000001 0.000000 0.000004
    33 -18.909960 -8.427494 0.000546 0.812867 -0.123462 -0.568483
    34 -9.581006 -27.862247 -37.184502 0.812846 -0.123464 -0.568481
    35 0.610299 -0.939541 0.070293 -1.655312 -0.140056 -0.175593
    36 2.619614 0.000130 0.000389 0.201618 -0.020124 0.350089
    37 1.867864 -0.000053 -0.000498 -0.000008 -0.000008 0.463065
    38 0.920006 -0.000298 -0.000413 -0.000008 -0.000007 0.632326
    39 0.599499 0.400698 0.000232 0.000000 0.000001 0.000000
    40 1.200450 0.398918 -0.000726 -0.009469 0.016060 0.007138
    41 0.000113 0.099682 -0.000883 -0.120043 -0.021935 -0.209613
    42 0.639944 -0.199156 0.060177 -1.665969 -0.131393 -0.066428
    43 2.659571 0.000118 -0.000805 0.027385 -0.033346 0.477856
    44 2.008787 -0.000099 -0.000277 0.000021 0.000018 0.978389
    45 1.099693 -0.000422 0.000139 0.000005 0.000007 0.463692
    46 0.000219 0.098999 0.000196 -0.018826 0.010859 -0.239227
    47 0.600186 1.080257 -0.339485 -1.738112 0.020767 0.107406
    48 2.199738 0.000519 0.000137 0.000001 0.000011 0.628159
    49 1.179325 0.000221 -0.000681 -0.000016 -0.000014 0.743203
    50 0.680134 -0.001235 0.000444 0.000005 0.000005 0.546273
    51 -0.000195 0.099625 -0.000032 0.000000 -0.000029 -0.314098
    52 0.599428 0.958698 -0.300682 -0.174553 -0.000009 0.000012
    53 0.609757 0.400164 -0.009396 -1.762279 -0.061627 0.042958
    54 2.560414 -0.000156 0.000040 0.002482 -0.050630 0.521449
    55 1.708748 0.000725 -0.000179 -0.000006 0.000004 0.829236
    56 1.019997 -0.000797 -0.000202 -0.000006 -0.000006 0.566723
    57 0.000139 0.100441 0.000324 -0.010907 0.023152 -0.260855
    58 0.629721 -0.690052 -0.229763 0.087260 0.607382 -1.183294
    59 2.099433 0.000475 -0.000427 -0.242425 0.290018 0.541645
    60 1.290009 -0.000224 0.000591 0.000011 -0.000001 0.367121
    61 0.599886 0.400182 -0.000031 0.000000 0.000000 0.000001
    62 0.999546 0.000376 -1.210205 0.000000 0.000001 0.000000
    63 2.299652 -2.500000 -0.599468 0.891989 0.221535 -0.527300
    64 2.441182 0.008629 0.276375 -1.631657 0.347414 -0.011173
    65 6.507452 18.151636 -45.009403 -0.838299 -0.131081 -0.742282
    66 1.899127 0.000448 -0.000437 0.027398 -0.033317 0.477857
    67 6.702158 18.527260 -44.643631 -0.836679 -0.212981 -0.666089
    68 1.799667 -0.000222 0.000236 0.027385 -0.033310 0.477857
    69 1.799667 -0.000222 0.000236 0.027385 -0.033310 0.477857
    70 6.959385 19.025522 -44.157486 -0.840338 -0.282330 -0.600362
    71 1.900313 -0.000128 -0.000511 0.027383 -0.033310 0.477850
    72 3.999441 -0.000544 -0.000336 0.000000 0.000000 -0.000002
    73 0.119209 -0.275763 -0.000145 -0.000004 0.000004 0.409856
    74 5.999827 -0.000388 -3.999954 0.000000 0.000000 -0.000004
    75 5.037998 -0.021001 1.943000 1.156361 -1.547407 -1.156439
    76 5.784616 -0.000018 -0.000179 0.074814 -0.826818 -0.247853
    77 0.500225 0.000135 0.000050 0.000009 0.000000 0.000009
    78 11.529520 -0.000357 -0.001068 -0.000002 0.000009 -0.819715
    79 3.999903 0.000010 0.000946 -0.000004 0.000011 -0.000008
    80 11.041279 -0.000427 0.000477 -0.000004 0.000011 -0.000016
    81 -18.909355 -8.427238 0.000252 2.328714 0.123465 -0.568469
    82 -18.909355 -8.427238 0.000252 2.328714 0.123465 -0.568469
    83 7.228251 7.928292 -3.925644 2.328721 0.123464 -0.568470
    84 0.610320 -0.939526 -0.070297 1.655297 0.140068 -0.175580
    85 2.619613 0.000149 -0.000395 -0.201608 0.020138 0.350093
    86 1.867864 -0.000061 0.000534 0.000008 -0.000005 0.463063
    87 0.919382 0.000404 0.000089 0.000003 -0.000001 0.632327
    88 0.600395 0.399632 -0.000473 0.000000 -0.000007 -3.141592
    89 1.200061 0.399933 -0.000144 0.009476 -0.016090 0.007134
    90 0.000595 0.100342 0.000330 0.120048 0.021924 -0.209608
    91 0.639949 -0.199144 -0.060188 1.665966 0.131397 -0.066402
    92 2.659896 0.000782 0.000166 -0.027380 0.033309 0.477851
    93 2.008771 -0.000893 -0.000383 -0.000003 0.000008 0.978393
    94 1.100353 0.000013 0.000469 0.000009 -0.000011 0.463701
    95 0.000221 0.099003 -0.000204 0.018813 -0.010832 -0.239223
    96 0.600176 1.080267 0.339470 1.738110 -0.020762 0.107428
    97 2.199738 0.000534 -0.000122 0.000001 -0.000001 0.628156
    98 1.180096 0.000378 0.000082 0.000006 -0.000007 0.743202
    99 0.679459 -0.000816 0.000179 -0.000003 0.000004 0.546279
    100 -0.000191 0.099628 0.000029 0.000004 -0.000001 -0.314097
    101 0.599961 0.959274 0.300076 0.174557 0.000000 0.000010
    102 0.610219 0.400740 0.010075 1.762282 0.061632 0.042977
    103 2.560415 -0.000164 -0.000029 -0.002482 0.050639 0.521447
    104 1.708748 0.000721 0.000200 0.000000 0.000000 0.829234
    105 1.019810 -0.000023 -0.000395 0.000002 -0.000005 0.566725
    106 -0.000584 0.100136 0.000309 0.010920 -0.023132 -0.260843
    107 0.630204 -0.689468 0.230450 -0.087269 -0.607393 -1.183267
    108 2.099338 -0.000108 -0.000427 0.242431 -0.290002 0.541635
    109 1.290604 0.000364 -0.000042 -0.000009 -0.000030 0.367128
    110 0.599899 0.400182 0.000011 0.000000 -0.000029 -3.141592
    111 0.999458 -0.000194 1.209370 0.000000 0.000000 -0.000001
    112 2.300166 -2.499401 0.600132 -0.892009 -0.221591 -0.527205
    113 2.762363 0.116968 1.523964 1.629484 0.064146 1.743808
    114 2.441193 0.008671 -0.276386 1.631656 -0.347406 -0.011158
    115 6.918118 18.946102 44.347878 -2.260787 0.112085 -0.395140
    116 1.899438 -0.000316 -0.000155 -0.027385 0.033312 0.477850
    117 6.735516 18.563797 44.712013 -2.281086 0.032725 -0.473090
    118 1.799661 -0.000255 -0.000233 -0.027395 0.033317 0.477841
    119 1.799661 -0.000255 -0.000233 -0.027395 0.033317 0.477841
    120 6.492920 18.056168 45.195995 -2.293457 -0.035613 -0.537894
    121 1.900729 0.000541 -0.000072 -0.027396 0.033317 0.477842
    122 10.600060 -0.000412 0.000462 -0.000002 0.000018 -0.000004
    123 0.119667 -0.275194 0.000820 0.000008 0.000017 0.409851
    124 5.999763 -0.000360 4.000057 0.000000 0.000000 0.000004
    125 8.823002 -0.000002 0.000000 0.000000 -0.000013 -0.294114
    126 3.116974 -0.000406 -0.000040 0.000004 0.000012 0.294114
    127 6.233002 -0.000001 0.000000 0.000000 0.000000 0.000000
    128 1.598000 0.000000 0.000000 0.000000 0.000000 0.000000
    129 -4.481003 -0.201999 0.000000 0.000000 0.000000 0.000000
    130 -5.516998 -0.290999 -0.001000 0.000000 0.000000 0.000000
    131 6.241997 -6.380001 0.000000 0.000000 0.000000 0.000000
    132 3.512001 -3.547001 -1.066000 0.000000 1.570796 0.000000
    133 3.456001 -3.517003 1.169001 0.000000 1.570796 0.000000
    134 -0.171997 -0.106000 -0.902000 1.570713 1.029179 -3.134552
    135 0.000000 0.000000 0.000000 0.000000 0.000000 0.000000
    136 9.904995 -5.486003 -6.443004 1.570796 0.000000 3.141592
    137 -47.983006 -1.010002 0.000063 -1.570796 -0.000061 -1.570796
    138 0.000000 0.000000 0.000000 0.000000 0.000000 0.000000
    139 3.999992 -6.500003 0.000000 0.000000 0.000014 0.000990
    140 -6.500000 0.000001 0.000000 0.000000 1.570796 0.000000
    141 14.188001 0.000000 0.141998 0.000000 0.000000 0.000000
    142 0.000000 0.000000 0.000000 0.000000 0.000000 0.000000
    143 0.000000 0.000000 0.000000 0.000000 0.000000 0.000000
    144 0.106000 0.000000 -64.320000 0.000000 0.000000 0.000000
    145 0.000000 0.000000 0.000000 0.000000 0.000000 0.000000
    146 -0.106000 0.000000 64.320000 0.000000 0.000000 0.000000
end
