// Created by Crowbar 0.74
version 1
nodes
  0 "tag_origin" -1
  1 "tag_sync" 0
  2 "tag_view" 0
  3 "tag_ads" 2
  4 "tag_torso" 3
  5 "j_mainroot" 4
  6 "j_hip_le" 5
  7 "j_hiptwist_le" 6
  8 "j_knee_le" 6
  9 "j_ankle_le" 8
  10 "j_ball_le" 9
  11 "j_kneedq_le" 8
  12 "j_hip_proc_le" 6
  13 "j_hip_ri" 5
  14 "j_hiptwist_ri" 13
  15 "tag_stowed_thigh" 14
  16 "j_knee_ri" 13
  17 "j_ankle_ri" 16
  18 "j_ball_ri" 17
  19 "j_kneedq_ri" 16
  20 "j_hip_proc_ri" 13
  21 "j_spinelower" 5
  22 "j_spineupper" 21
  23 "j_spine4" 22
  24 "j_chest" 23
  25 "j_clavicle_le" 23
  26 "j_shoulder_le" 25
  27 "j_shouldertwist_le" 26
  28 "j_elbow_le" 26
  29 "j_wristfronttwist1_le" 28
  30 "j_proc_wristfronttwist1_le" 29
  31 "tag_wrist_attach_le" 30
  32 "j_wrist_le" 28
  33 "tag_weapon_left" 32
  34 "tag_accessory_left" 32
  35 "j_metaindex_le_1" 32
  36 "j_index_le_1" 35
  37 "j_index_le_2" 36
  38 "j_index_le_3" 37
  39 "j_index_le_4" 38
  40 "j_indexbulge_le_1" 36
  41 "j_proc_index_le_1" 36
  42 "j_metamid_le_1" 32
  43 "j_mid_le_1" 42
  44 "j_mid_le_2" 43
  45 "j_mid_le_3" 44
  46 "j_proc_mid_le_1" 43
  47 "j_metapinky_le_1" 32
  48 "j_pinky_le_1" 47
  49 "j_pinky_le_2" 48
  50 "j_pinky_le_3" 49
  51 "j_proc_pinky_le_1" 48
  52 "j_webbing_le_3" 47
  53 "j_metaring_le_1" 32
  54 "j_ring_le_1" 53
  55 "j_ring_le_2" 54
  56 "j_ring_le_3" 55
  57 "j_proc_ring_le_1" 54
  58 "j_thumb_le_1" 32
  59 "j_thumb_le_2" 58
  60 "j_thumb_le_3" 59
  61 "j_thumb_le_4" 60
  62 "j_webbing_le_2" 58
  63 "j_webbing_le_1" 32
  64 "j_proc_knuckle_le_1" 32
  65 "j_proc_metaindex_le_1" 32
  66 "j_proc_metaindex_le_2" 65
  67 "j_proc_metaknuckle_le_1" 32
  68 "j_proc_idle_knuckle_le_1" 67
  69 "j_proc_orient_knuckle_le_1" 67
  70 "j_proc_metapinky_le_1" 32
  71 "j_proc_metapinky_le_2" 70
  72 "j_shield_le" 28
  73 "j_elbowdq_le" 28
  74 "j_teres_le" 25
  75 "j_clavicle_ri" 23
  76 "j_shoulder_ri" 75
  77 "j_shouldertwist_ri" 76
  78 "j_elbow_ri" 76
  79 "j_shield_ri" 78
  80 "j_wrist_ri" 78
  81 "j_gun" 80
  82 "tag_weapon_right" 80
  83 "tag_accessory_right" 80
  84 "j_metaindex_ri_1" 80
  85 "j_index_ri_1" 84
  86 "j_index_ri_2" 85
  87 "j_index_ri_3" 86
  88 "j_index_ri_4" 87
  89 "j_indexbulge_ri_1" 85
  90 "j_proc_index_ri_1" 85
  91 "j_metamid_ri_1" 80
  92 "j_mid_ri_1" 91
  93 "j_mid_ri_2" 92
  94 "j_mid_ri_3" 93
  95 "j_proc_mid_ri_1" 92
  96 "j_metapinky_ri_1" 80
  97 "j_pinky_ri_1" 96
  98 "j_pinky_ri_2" 97
  99 "j_pinky_ri_3" 98
  100 "j_proc_pinky_ri_1" 97
  101 "j_webbing_ri_3" 96
  102 "j_metaring_ri_1" 80
  103 "j_ring_ri_1" 102
  104 "j_ring_ri_2" 103
  105 "j_ring_ri_3" 104
  106 "j_proc_ring_ri_1" 103
  107 "j_thumb_ri_1" 80
  108 "j_thumb_ri_2" 107
  109 "j_thumb_ri_3" 108
  110 "j_thumb_ri_4" 109
  111 "j_webbing_ri_2" 107
  112 "j_webbing_ri_1" 80
  113 "tag_knife_attach2" 80
  114 "j_proc_knuckle_ri_1" 80
  115 "j_proc_metaindex_ri_1" 80
  116 "j_proc_metaindex_ri_2" 115
  117 "j_proc_metaknuckle_ri_1" 80
  118 "j_proc_idle_knuckle_ri_1" 117
  119 "j_proc_orient_knuckle_ri_1" 117
  120 "j_proc_metapinky_ri_1" 80
  121 "j_proc_metapinky_ri_2" 120
  122 "j_wristfronttwist1_ri" 78
  123 "j_elbowdq_ri" 78
  124 "j_teres_ri" 75
  125 "j_neck" 23
  126 "j_head" 125
  127 "j_head_end" 126
  128 "j_helmet" 127
  129 "j_visor" 128
  130 "j_visor_inner" 128
  131 "j_nvg" 126
  132 "j_eyeball_le" 126
  133 "j_eyeball_ri" 126
  134 "j_jaw" 126
  135 "j_proc_spine4" 23
  136 "tag_carry_attach" 135
  137 "j_proc_spineupper" 22
  138 "j_proc_spinelower" 21
  139 "j_groinprotector" 5
  140 "j_crotch" 5
  141 "tag_weapon" 4
  142 "tag_cambone" 2
  143 "tag_camera" 142
  144 "tag_player" 143
  145 "tag_playerhelmet" 143
  146 "tag_camera_scripted" 0
end
skeleton
  time 0
    0 0.000000 0.000000 0.000000 0.000000 0.000000 -1.570796
    1 0.000000 0.000000 0.000000 0.000000 0.000000 0.000000
    2 -0.117660 0.000000 71.395203 0.000000 0.000000 0.000000
    3 0.000000 0.000000 0.000000 0.000000 0.000000 0.000000
    4 -1.003440 0.000000 -13.104660 0.000000 0.000000 0.000000
    5 0.000000 0.000000 -15.888538 0.000000 -1.570796 1.570857
    6 0.000000 0.000000 -5.402371 -3.141536 0.008715 -3.128641
    7 1.110104 -0.000019 0.000015 0.000000 0.000000 -0.000001
    8 19.050428 -0.000215 0.000244 -0.000002 -0.000011 0.119261
    9 19.701820 0.327340 0.000036 0.000002 -0.000001 -1.158995
    10 6.009016 0.000399 -0.000004 -0.000001 0.000000 -0.518050
    11 0.019857 0.332770 0.000000 0.000001 -0.000005 -0.059614
    12 11.099890 -0.000201 0.000142 0.000000 -0.000016 0.000004
    13 0.000000 0.000000 5.402371 -3.141536 0.008715 -3.128641
    14 1.110104 -0.000019 0.000014 0.000000 0.000000 -0.000001
    15 13.634825 1.755587 -5.212392 1.462268 -0.086735 0.090198
    16 19.050430 -0.000216 0.000243 -0.000002 -0.000011 0.119261
    17 19.701824 0.327340 0.000036 0.000002 -0.000002 -1.158994
    18 6.009015 0.000393 -0.000004 -0.000001 0.000000 -0.518055
    19 0.019859 0.332769 0.000000 0.000001 -0.000005 -0.059614
    20 10.544832 0.000364 0.000135 0.000000 -0.000016 0.000037
    21 3.921631 -0.000001 0.000000 0.000000 0.000000 0.000000
    22 6.937500 -0.000002 0.000000 0.000000 0.000000 0.000000
    23 5.029411 -0.000001 0.000000 0.000000 0.000000 0.000000
    24 0.000000 0.000000 0.000000 0.000000 0.000000 0.000000
    25 5.591068 -0.023311 -2.156732 -1.156954 1.547417 -1.157032
    26 6.420922 -0.000047 0.000309 -0.074806 0.826774 -0.247836
    27 0.555252 0.000143 -0.000076 0.000001 0.000000 -0.000001
    28 12.798573 -0.000459 0.000061 -0.000010 -0.000001 -0.819728
    29 11.766069 -0.000425 -0.000732 0.000002 0.000001 0.000000
    30 6.273440 21.653561 -49.837341 0.812888 -0.123375 -0.568545
    31 -0.271524 0.024201 0.119206 0.023404 0.097196 0.012068
    32 12.255824 -0.000439 -0.000755 0.000003 0.000001 0.000000
    33 -20.990017 -9.354584 0.000610 0.812867 -0.123460 -0.568482
    34 -10.634796 -30.927185 -41.274773 0.812852 -0.123462 -0.568480
    35 0.677435 -1.042889 0.078026 -1.655313 -0.140056 -0.175590
    36 2.907772 0.000141 0.000441 0.201617 -0.020124 0.350090
    37 2.073331 -0.000057 -0.000555 -0.000008 -0.000008 0.463065
    38 1.021215 -0.000332 -0.000462 -0.000008 -0.000007 0.632326
    39 0.665451 0.444773 0.000259 0.000000 0.000000 0.000000
    40 1.332503 0.442802 -0.000807 -0.009468 0.016061 0.007138
    41 0.000122 0.110645 -0.000988 -0.120043 -0.021934 -0.209613
    42 0.710343 -0.221062 0.066799 -1.665970 -0.131394 -0.066424
    43 2.952123 0.000126 -0.000889 0.027385 -0.033346 0.477858
    44 2.229753 -0.000114 -0.000303 0.000021 0.000018 0.978387
    45 1.220657 -0.000466 0.000158 0.000005 0.000007 0.463692
    46 0.000244 0.109886 0.000223 -0.018826 0.010859 -0.239229
    47 0.666203 1.199089 -0.376827 -1.738113 0.020767 0.107409
    48 2.441706 0.000580 0.000147 0.000000 0.000012 0.628158
    49 1.309052 0.000248 -0.000751 -0.000016 -0.000015 0.743204
    50 0.754944 -0.001369 0.000490 0.000005 0.000005 0.546273
    51 -0.000214 0.110584 -0.000031 0.000001 -0.000029 -0.314097
    52 0.665366 1.064152 -0.333763 -0.174554 -0.000009 0.000012
    53 0.676831 0.444183 -0.010429 -1.762281 -0.061627 0.042961
    54 2.842060 -0.000183 0.000036 0.002482 -0.050631 0.521449
    55 1.896717 0.000805 -0.000202 -0.000006 0.000003 0.829235
    56 1.132206 -0.000883 -0.000227 -0.000006 -0.000006 0.566723
    57 0.000153 0.111488 0.000359 -0.010907 0.023152 -0.260855
    58 0.698996 -0.765949 -0.255039 0.087259 0.607381 -1.183291
    59 2.330373 0.000528 -0.000462 -0.242425 0.290018 0.541645
    60 1.431904 -0.000250 0.000664 0.000011 -0.000001 0.367122
    61 0.665871 0.444201 -0.000038 0.000000 0.000000 0.000000
    62 1.109494 0.000423 -1.343315 -0.000001 0.000000 0.000000
    63 2.552627 -2.774994 -0.665405 0.891988 0.221534 -0.527298
    64 2.709714 0.009588 0.306782 -1.631658 0.347414 -0.011170
    65 7.223198 20.148266 -49.960468 -0.838306 -0.131079 -0.742275
    66 2.108029 0.000493 -0.000486 0.027403 -0.033319 0.477851
    67 7.439326 20.565214 -49.554462 -0.836670 -0.212983 -0.666087
    68 1.997631 -0.000244 0.000264 0.027376 -0.033306 0.477859
    69 1.997631 -0.000244 0.000264 0.027376 -0.033306 0.477859
    70 7.724848 21.118290 -49.014835 -0.840354 -0.282324 -0.600351
    71 2.109347 -0.000162 -0.000571 0.027394 -0.033316 0.477841
    72 4.439383 -0.000608 -0.000381 0.000001 0.000001 -0.000002
    73 0.132318 -0.306097 -0.000160 -0.000004 0.000004 0.409856
    74 6.659807 -0.000427 -4.439945 0.000000 0.000000 -0.000002
    75 5.592178 -0.023311 2.156730 1.156352 -1.547407 -1.156430
    76 6.420924 -0.000023 -0.000202 0.074814 -0.826818 -0.247851
    77 0.555252 0.000149 0.000061 0.000007 0.000000 0.000007
    78 12.797770 -0.000419 -0.001175 -0.000004 0.000008 -0.819718
    79 4.439888 0.000015 0.001057 -0.000001 0.000011 -0.000006
    80 12.255816 -0.000458 0.000534 -0.000003 0.000011 -0.000008
    81 -20.989449 -9.354082 0.000286 2.328720 0.123464 -0.568477
    82 -20.989449 -9.354082 0.000286 2.328720 0.123464 -0.568477
    83 8.023413 8.800345 -4.357460 2.328721 0.123464 -0.568476
    84 0.677445 -1.042881 -0.078033 1.655296 0.140068 -0.175587
    85 2.907768 0.000160 -0.000452 -0.201607 0.020138 0.350093
    86 2.073328 -0.000057 0.000586 0.000008 -0.000005 0.463062
    87 1.020512 0.000450 0.000101 0.000003 -0.000001 0.632327
    88 0.666443 0.443592 -0.000528 0.000000 -0.000007 -3.141592
    89 1.332067 0.443935 -0.000164 0.009476 -0.016090 0.007134
    90 0.000661 0.111393 0.000360 0.120048 0.021924 -0.209608
    91 0.710338 -0.221056 -0.066811 1.665966 0.131397 -0.066409
    92 2.952487 0.000870 0.000181 -0.027380 0.033309 0.477852
    93 2.229742 -0.000988 -0.000423 -0.000003 0.000008 0.978392
    94 1.221397 0.000012 0.000519 0.000010 -0.000011 0.463701
    95 0.000250 0.109890 -0.000225 0.018813 -0.010833 -0.239223
    96 0.666200 1.199097 0.376820 1.738110 -0.020762 0.107421
    97 2.441710 0.000587 -0.000135 0.000001 -0.000001 0.628156
    98 1.309906 0.000416 0.000086 0.000006 -0.000007 0.743203
    99 0.754189 -0.000908 0.000195 -0.000003 0.000004 0.546279
    100 -0.000214 0.110580 0.000029 0.000003 -0.000001 -0.314096
    101 0.665956 1.064793 0.333084 0.174558 0.000000 0.000010
    102 0.677344 0.444817 0.011185 1.762282 0.061632 0.042970
    103 2.842062 -0.000175 -0.000032 -0.002482 0.050639 0.521447
    104 1.896709 0.000813 0.000229 0.000000 0.000000 0.829233
    105 1.131989 -0.000022 -0.000435 0.000002 -0.000005 0.566725
    106 -0.000645 0.111160 0.000351 0.010920 -0.023132 -0.260843
    107 0.699517 -0.765316 0.255802 -0.087269 -0.607394 -1.183274
    108 2.330263 -0.000117 -0.000469 0.242431 -0.290002 0.541636
    109 1.432571 0.000404 -0.000053 -0.000009 -0.000029 0.367127
    110 0.665880 0.444204 0.000019 0.000000 -0.000028 -3.141592
    111 1.109396 -0.000216 1.342400 0.000000 0.000000 0.000000
    112 2.553162 -2.774355 0.666145 -0.892010 -0.221592 -0.527212
    113 3.066222 0.129812 1.691605 1.629483 0.064148 1.743801
    114 2.709721 0.009605 -0.306786 1.631656 -0.347406 -0.011165
    115 7.679253 21.030136 49.226143 -2.260786 0.112083 -0.395146
    116 2.108376 -0.000344 -0.000171 -0.027387 0.033312 0.477851
    117 7.476557 20.605783 49.630337 -2.281087 0.032727 -0.473100
    118 1.997622 -0.000293 -0.000259 -0.027395 0.033317 0.477837
    119 1.997622 -0.000293 -0.000259 -0.027395 0.033317 0.477837
    120 7.207273 20.042316 50.167553 -2.293458 -0.035622 -0.537893
    121 2.109811 0.000623 -0.000080 -0.027396 0.033316 0.477854
    122 11.766064 -0.000446 0.000523 -0.000003 0.000017 -0.000004
    123 0.132828 -0.305466 0.000908 0.000008 0.000016 0.409852
    124 6.659736 -0.000403 4.440060 0.000000 0.000000 0.000004
    125 9.793530 -0.000002 0.000000 0.000000 -0.000013 -0.294114
    126 3.459846 -0.000450 -0.000044 0.000004 0.000012 0.294114
    127 6.918633 -0.000001 0.000000 0.000000 0.000000 0.000000
    128 1.773781 0.000000 0.000000 0.000000 0.000000 0.000000
    129 -4.973915 -0.224219 0.000000 0.000000 0.000000 0.000000
    130 -6.123871 -0.323009 -0.001110 0.000000 0.000000 0.000000
    131 6.928612 -7.081801 0.000000 0.000000 0.000000 0.000000
    132 3.898323 -3.937171 -1.183260 0.000000 1.570796 0.000000
    133 3.836159 -3.903872 1.297590 0.000000 1.570796 0.000000
    134 -0.190918 -0.117660 -1.001220 1.570713 1.029179 -3.134551
    135 0.000000 0.000000 0.000000 0.000000 0.000000 0.000000
    136 10.994549 -6.089463 -7.151734 1.570796 0.000000 3.141592
    137 -53.261135 -1.121102 0.000070 -1.570796 -0.000061 -1.570796
    138 0.000000 0.000000 0.000000 0.000000 0.000000 0.000000
    139 4.439999 -7.215003 0.000000 0.000000 0.000014 0.000990
    140 -7.215000 0.000001 0.000000 0.000000 1.570796 0.000000
    141 15.748681 0.000000 0.157619 0.000000 0.000000 0.000000
    142 0.000000 0.000000 0.000000 0.000000 0.000000 0.000000
    143 0.000000 0.000000 0.000000 0.000000 0.000000 0.000000
    144 0.117660 0.000000 -71.395203 0.000000 0.000000 0.000000
    145 0.000000 0.000000 0.000000 0.000000 0.000000 0.000000
    146 -0.117660 0.000000 71.395203 0.000000 0.000000 0.000000
end
