// Created by Crowbar 0.74
version 1
nodes
  0 "tag_mag_attach" -1
  1 "j_mag1" 0
  2 "j_b_loader" 1
  3 "j_b_loader_top" 1
  4 "j_b_loader_01" 3
  5 "j_b_loader_02" 3
  6 "j_b_loader_03" 3
  7 "j_b_loader_04" 3
  8 "j_b_loader_05" 3
  9 "j_b_loader_06" 3
end
skeleton
  time 0
    0 0.000000 0.000000 0.000000 0.000000 0.000000 -1.570796
    1 -14.255000 0.000000 2.250000 0.000000 0.000000 0.000000
    2 0.000000 0.000000 0.000000 0.000000 0.000000 0.000000
    3 0.000000 0.000000 0.000000 0.000000 0.000000 0.000000
    4 0.452000 0.000000 0.465000 0.000000 0.000000 0.000000
    5 0.452000 -0.403000 0.233000 0.000000 0.000000 0.000000
    6 0.452000 -0.403000 -0.233000 0.000000 0.000000 0.000000
    7 0.452000 0.000000 -0.465000 0.000000 0.000000 0.000000
    8 0.452000 0.403000 -0.233000 0.000000 0.000000 0.000000
    9 0.452000 0.403000 0.233000 0.000000 0.000000 0.000000
end
