// Created by Crowbar 0.74
version 1
nodes
  0 "tag_origin" -1
  1 "tag_sync" 0
  2 "tag_view" 0
  3 "tag_ads" 2
  4 "tag_torso" 3
  5 "j_mainroot" 4
  6 "j_hip_le" 5
  7 "j_hiptwist_le" 6
  8 "j_knee_le" 6
  9 "j_ankle_le" 8
  10 "j_ball_le" 9
  11 "j_kneedq_le" 8
  12 "j_hip_proc_le" 6
  13 "j_hip_ri" 5
  14 "j_hiptwist_ri" 13
  15 "tag_stowed_thigh" 14
  16 "j_knee_ri" 13
  17 "j_ankle_ri" 16
  18 "j_ball_ri" 17
  19 "j_kneedq_ri" 16
  20 "j_hip_proc_ri" 13
  21 "j_spinelower" 5
  22 "j_spineupper" 21
  23 "j_spine4" 22
  24 "j_chest" 23
  25 "j_clavicle_le" 23
  26 "j_shoulder_le" 25
  27 "j_shouldertwist_le" 26
  28 "j_elbow_le" 26
  29 "j_wristfronttwist1_le" 28
  30 "j_proc_wristfronttwist1_le" 29
  31 "tag_wrist_attach_le" 30
  32 "j_wrist_le" 28
  33 "tag_weapon_left" 32
  34 "tag_accessory_left" 32
  35 "j_metaindex_le_1" 32
  36 "j_index_le_1" 35
  37 "j_index_le_2" 36
  38 "j_index_le_3" 37
  39 "j_index_le_4" 38
  40 "j_indexbulge_le_1" 36
  41 "j_proc_index_le_1" 36
  42 "j_metamid_le_1" 32
  43 "j_mid_le_1" 42
  44 "j_mid_le_2" 43
  45 "j_mid_le_3" 44
  46 "j_proc_mid_le_1" 43
  47 "j_metapinky_le_1" 32
  48 "j_pinky_le_1" 47
  49 "j_pinky_le_2" 48
  50 "j_pinky_le_3" 49
  51 "j_proc_pinky_le_1" 48
  52 "j_webbing_le_3" 47
  53 "j_metaring_le_1" 32
  54 "j_ring_le_1" 53
  55 "j_ring_le_2" 54
  56 "j_ring_le_3" 55
  57 "j_proc_ring_le_1" 54
  58 "j_thumb_le_1" 32
  59 "j_thumb_le_2" 58
  60 "j_thumb_le_3" 59
  61 "j_thumb_le_4" 60
  62 "j_webbing_le_2" 58
  63 "j_webbing_le_1" 32
  64 "j_proc_knuckle_le_1" 32
  65 "j_proc_metaindex_le_1" 32
  66 "j_proc_metaindex_le_2" 65
  67 "j_proc_metaknuckle_le_1" 32
  68 "j_proc_idle_knuckle_le_1" 67
  69 "j_proc_orient_knuckle_le_1" 67
  70 "j_proc_metapinky_le_1" 32
  71 "j_proc_metapinky_le_2" 70
  72 "j_shield_le" 28
  73 "j_elbowdq_le" 28
  74 "j_teres_le" 25
  75 "j_clavicle_ri" 23
  76 "j_shoulder_ri" 75
  77 "j_shouldertwist_ri" 76
  78 "j_elbow_ri" 76
  79 "j_shield_ri" 78
  80 "j_wrist_ri" 78
  81 "j_gun" 80
  82 "tag_weapon_right" 80
  83 "tag_accessory_right" 80
  84 "j_metaindex_ri_1" 80
  85 "j_index_ri_1" 84
  86 "j_index_ri_2" 85
  87 "j_index_ri_3" 86
  88 "j_index_ri_4" 87
  89 "j_indexbulge_ri_1" 85
  90 "j_proc_index_ri_1" 85
  91 "j_metamid_ri_1" 80
  92 "j_mid_ri_1" 91
  93 "j_mid_ri_2" 92
  94 "j_mid_ri_3" 93
  95 "j_proc_mid_ri_1" 92
  96 "j_metapinky_ri_1" 80
  97 "j_pinky_ri_1" 96
  98 "j_pinky_ri_2" 97
  99 "j_pinky_ri_3" 98
  100 "j_proc_pinky_ri_1" 97
  101 "j_webbing_ri_3" 96
  102 "j_metaring_ri_1" 80
  103 "j_ring_ri_1" 102
  104 "j_ring_ri_2" 103
  105 "j_ring_ri_3" 104
  106 "j_proc_ring_ri_1" 103
  107 "j_thumb_ri_1" 80
  108 "j_thumb_ri_2" 107
  109 "j_thumb_ri_3" 108
  110 "j_thumb_ri_4" 109
  111 "j_webbing_ri_2" 107
  112 "j_webbing_ri_1" 80
  113 "tag_knife_attach2" 80
  114 "j_proc_knuckle_ri_1" 80
  115 "j_proc_metaindex_ri_1" 80
  116 "j_proc_metaindex_ri_2" 115
  117 "j_proc_metaknuckle_ri_1" 80
  118 "j_proc_idle_knuckle_ri_1" 117
  119 "j_proc_orient_knuckle_ri_1" 117
  120 "j_proc_metapinky_ri_1" 80
  121 "j_proc_metapinky_ri_2" 120
  122 "j_wristfronttwist1_ri" 78
  123 "j_elbowdq_ri" 78
  124 "j_teres_ri" 75
  125 "j_neck" 23
  126 "j_head" 125
  127 "j_head_end" 126
  128 "j_helmet" 127
  129 "j_visor" 128
  130 "j_visor_inner" 128
  131 "j_nvg" 126
  132 "j_eyeball_le" 126
  133 "j_eyeball_ri" 126
  134 "j_jaw" 126
  135 "j_proc_spine4" 23
  136 "tag_carry_attach" 135
  137 "j_proc_spineupper" 22
  138 "j_proc_spinelower" 21
  139 "j_groinprotector" 5
  140 "j_crotch" 5
  141 "tag_weapon" 4
  142 "tag_cambone" 2
  143 "tag_camera" 142
  144 "tag_player" 143
  145 "tag_playerhelmet" 143
  146 "tag_camera_scripted" 0
end
skeleton
  time 0
    0 0.000000 0.000000 0.000000 0.000000 0.000000 -1.570796
    1 0.000000 0.000000 0.000000 0.000000 0.000000 0.000000
    2 -0.117660 0.000000 71.395203 0.000000 0.000000 0.000000
    3 0.000000 0.000000 0.000000 0.000000 0.000000 0.000000
    4 -1.003440 0.000000 -13.104660 0.000000 0.000000 0.000000
    5 0.000000 0.000000 -15.888538 0.000000 -1.570796 1.570857
    6 0.000000 0.000000 -5.402370 -3.141536 0.008715 -3.128641
    7 1.110104 -0.000019 0.000015 0.000000 0.000000 0.000000
    8 19.050465 -0.000213 0.000242 -0.000002 -0.000011 0.119310
    9 19.701839 0.326376 0.000026 0.000001 -0.000002 -1.159049
    10 6.009017 0.000431 -0.000005 -0.000001 0.000000 -0.518048
    11 0.019865 0.332770 -0.000002 0.000001 -0.000004 -0.059663
    12 11.099899 -0.000200 0.000144 0.000000 -0.000016 -0.000024
    13 0.000000 0.000000 5.402370 -3.141536 0.008715 -3.128641
    14 1.110100 -0.000019 0.000015 0.000000 0.000000 0.000000
    15 13.634834 1.755582 -5.212397 1.462268 -0.086739 0.090198
    16 19.050463 -0.000213 0.000244 -0.000002 -0.000011 0.119310
    17 19.701839 0.326376 0.000026 0.000001 -0.000002 -1.159049
    18 6.009016 0.000432 -0.000004 -0.000001 0.000000 -0.518050
    19 0.019867 0.332770 -0.000002 0.000001 -0.000004 -0.059663
    20 10.544836 0.000365 0.000137 0.000000 -0.000016 0.000037
    21 3.921631 -0.000001 0.000000 0.000000 0.000000 0.000000
    22 6.937500 -0.000002 0.000000 0.000000 0.000000 0.000000
    23 5.029408 -0.000002 0.000000 0.000000 0.000000 0.000000
    24 0.000000 0.000000 0.000000 0.000000 0.000000 0.000000
    25 5.591068 -0.023312 -2.156734 -1.156901 1.547420 -1.156979
    26 6.420921 -0.000067 0.000309 -0.074806 0.826774 -0.247840
    27 0.555241 0.000142 -0.000069 0.000000 0.000000 0.000000
    28 12.798563 -0.000449 0.000072 -0.000008 -0.000001 -0.819730
    29 11.766069 -0.000380 -0.000717 -0.000002 -0.000001 0.000008
    30 6.273520 21.653597 -49.837292 0.812876 -0.123366 -0.568558
    31 -0.271522 0.024190 0.119203 0.023419 0.097196 0.012081
    32 12.255820 -0.000393 -0.000736 -0.000001 -0.000001 0.000000
    33 -20.989985 -9.354652 0.000603 0.812870 -0.123458 -0.568480
    34 -10.634724 -30.927162 -41.274815 0.812858 -0.123459 -0.568478
    35 0.677439 -1.042879 0.078022 -1.655311 -0.140055 -0.175587
    36 2.907771 0.000137 0.000441 0.201617 -0.020122 0.350088
    37 2.073324 -0.000053 -0.000551 -0.000008 -0.000008 0.463065
    38 1.021214 -0.000332 -0.000458 -0.000008 -0.000008 0.632326
    39 0.665451 0.444777 0.000259 0.000000 0.000001 0.000000
    40 1.332499 0.442799 -0.000811 -0.009468 0.016059 0.007139
    41 0.000121 0.110641 -0.000988 -0.120043 -0.021935 -0.209612
    42 0.710340 -0.221058 0.066799 -1.665969 -0.131393 -0.066421
    43 2.952123 0.000122 -0.000893 0.027384 -0.033347 0.477857
    44 2.229752 -0.000118 -0.000299 0.000022 0.000018 0.978387
    45 1.220654 -0.000468 0.000158 0.000005 0.000007 0.463691
    46 0.000244 0.109882 0.000229 -0.018827 0.010860 -0.239229
    47 0.666198 1.199093 -0.376831 -1.738112 0.020768 0.107412
    48 2.441704 0.000580 0.000153 0.000000 0.000011 0.628159
    49 1.309050 0.000248 -0.000750 -0.000016 -0.000014 0.743203
    50 0.754948 -0.001370 0.000488 0.000005 0.000005 0.546273
    51 -0.000217 0.110588 -0.000034 0.000001 -0.000031 -0.314098
    52 0.665362 1.064163 -0.333759 -0.174553 -0.000010 0.000012
    53 0.676824 0.444187 -0.010437 -1.762279 -0.061627 0.042964
    54 2.842059 -0.000183 0.000034 0.002482 -0.050631 0.521449
    55 1.896709 0.000805 -0.000202 -0.000006 0.000004 0.829235
    56 1.132198 -0.000879 -0.000229 -0.000006 -0.000006 0.566724
    57 0.000153 0.111485 0.000360 -0.010907 0.023152 -0.260855
    58 0.698999 -0.765951 -0.255047 0.087259 0.607382 -1.183287
    59 2.330375 0.000532 -0.000462 -0.242425 0.290019 0.541644
    60 1.431904 -0.000250 0.000664 0.000011 -0.000001 0.367122
    61 0.665876 0.444200 -0.000038 0.000000 0.000000 0.000000
    62 1.109495 0.000420 -1.343319 0.000000 0.000001 0.000000
    63 2.552631 -2.774979 -0.665409 0.891989 0.221534 -0.527293
    64 2.709710 0.009602 0.306770 -1.631656 0.347415 -0.011164
    65 7.223102 20.148354 -49.960419 -0.838290 -0.131068 -0.742263
    66 2.108025 0.000456 -0.000483 0.027389 -0.033312 0.477839
    67 7.439230 20.565296 -49.554409 -0.836663 -0.212964 -0.666067
    68 1.997626 -0.000292 0.000266 0.027368 -0.033302 0.477837
    69 1.997626 -0.000292 0.000266 0.027368 -0.033302 0.477837
    70 7.724741 21.118368 -49.014793 -0.840331 -0.282345 -0.600369
    71 2.109354 -0.000095 -0.000567 0.027380 -0.033309 0.477870
    72 4.439383 -0.000589 -0.000378 -0.000002 -0.000001 0.000001
    73 0.132322 -0.306093 -0.000156 -0.000006 0.000004 0.409859
    74 6.659804 -0.000447 -4.439941 -0.000001 0.000000 -0.000010
    75 5.592178 -0.023312 2.156730 1.156405 -1.547404 -1.156482
    76 6.420923 -0.000004 -0.000202 0.074814 -0.826817 -0.247863
    77 0.555260 0.000153 0.000053 0.000019 0.000000 0.000018
    78 12.797771 -0.000282 -0.001179 0.000010 0.000010 -0.819705
    79 4.439888 -0.000002 0.001030 -0.000009 0.000017 -0.000009
    80 12.255811 -0.000496 0.000469 -0.000009 0.000011 -0.000008
    81 -20.989471 -9.354052 0.000408 2.328708 0.123464 -0.568484
    82 -20.989471 -9.354052 0.000408 2.328708 0.123464 -0.568484
    83 8.023410 8.800330 -4.357506 2.328715 0.123471 -0.568477
    84 0.677444 -1.042885 -0.078033 1.655295 0.140074 -0.175589
    85 2.907770 0.000156 -0.000443 -0.201608 0.020138 0.350093
    86 2.073329 -0.000061 0.000593 0.000008 -0.000006 0.463062
    87 1.020515 0.000450 0.000097 0.000003 -0.000001 0.632327
    88 0.666443 0.443592 -0.000526 0.000000 -0.000007 3.141592
    89 1.332067 0.443932 -0.000160 0.009476 -0.016090 0.007134
    90 0.000662 0.111389 0.000359 0.120048 0.021924 -0.209608
    91 0.710340 -0.221060 -0.066811 1.665965 0.131403 -0.066410
    92 2.952485 0.000866 0.000183 -0.027381 0.033308 0.477852
    93 2.229736 -0.000996 -0.000429 -0.000003 0.000008 0.978392
    94 1.221401 0.000015 0.000523 0.000010 -0.000011 0.463701
    95 0.000244 0.109890 -0.000229 0.018813 -0.010832 -0.239224
    96 0.666209 1.199089 0.376812 1.738110 -0.020756 0.107419
    97 2.441710 0.000587 -0.000135 0.000001 0.000000 0.628155
    98 1.309906 0.000416 0.000088 0.000005 -0.000008 0.743203
    99 0.754200 -0.000909 0.000198 -0.000003 0.000004 0.546279
    100 -0.000214 0.110584 0.000031 0.000003 -0.000002 -0.314096
    101 0.665956 1.064796 0.333080 0.174558 0.000000 0.000010
    102 0.677347 0.444815 0.011185 1.762282 0.061638 0.042968
    103 2.842063 -0.000187 -0.000029 -0.002482 0.050638 0.521448
    104 1.896706 0.000801 0.000233 0.000000 0.000000 0.829233
    105 1.131985 -0.000027 -0.000443 0.000002 -0.000005 0.566725
    106 -0.000648 0.111156 0.000351 0.010920 -0.023132 -0.260844
    107 0.699521 -0.765320 0.255802 -0.087276 -0.607392 -1.183272
    108 2.330266 -0.000124 -0.000469 0.242431 -0.290002 0.541635
    109 1.432571 0.000410 -0.000050 -0.000009 -0.000032 0.367127
    110 0.665884 0.444201 0.000019 0.000000 -0.000031 -3.141592
    111 1.109401 -0.000214 1.342403 0.000000 -0.000001 0.000000
    112 2.553158 -2.774364 0.666138 -0.892011 -0.221586 -0.527214
    113 3.066236 0.129805 1.691589 1.629489 0.064147 1.743799
    114 2.709719 0.009590 -0.306797 1.631656 -0.347401 -0.011166
    115 7.679585 21.030134 49.226074 -2.260805 0.112084 -0.395145
    116 2.108377 -0.000340 -0.000177 -0.027371 0.033305 0.477860
    117 7.476897 20.605783 49.630268 -2.281088 0.032725 -0.473096
    118 1.997625 -0.000269 -0.000259 -0.027396 0.033317 0.477847
    119 1.997625 -0.000269 -0.000259 -0.027396 0.033317 0.477847
    120 7.207609 20.042316 50.167484 -2.293456 -0.035629 -0.537884
    121 2.109816 0.000662 -0.000080 -0.027400 0.033319 0.477870
    122 11.766058 -0.000475 0.000458 -0.000008 0.000023 -0.000004
    123 0.132824 -0.305471 0.000912 0.000005 0.000023 0.409850
    124 6.659737 -0.000382 4.440063 0.000002 0.000000 0.000006
    125 9.793533 -0.000003 0.000000 0.000000 -0.000013 -0.294114
    126 3.459846 -0.000452 -0.000044 0.000004 0.000012 0.294114
    127 6.918633 -0.000003 0.000000 0.000000 0.000000 0.000000
    128 1.773781 -0.000001 0.000000 0.000000 0.000000 0.000000
    129 -4.973915 -0.224218 0.000000 0.000000 0.000000 0.000000
    130 -6.123871 -0.323007 -0.001110 0.000000 0.000000 0.000000
    131 6.928612 -7.081802 0.000000 0.000000 0.000000 0.000000
    132 3.898323 -3.937171 -1.183259 0.000000 1.570796 0.000000
    133 3.836159 -3.903874 1.297591 0.000000 1.570796 0.000000
    134 -0.190918 -0.117660 -1.001220 1.570712 1.029179 -3.134553
    135 0.000000 0.000000 0.000000 0.000000 0.000000 0.000000
    136 10.994545 -6.089464 -7.151735 1.570796 0.000000 3.141592
    137 -53.261131 -1.121096 0.000070 -1.570796 -0.000061 -1.570796
    138 0.000000 0.000000 0.000000 0.000000 0.000000 0.000000
    139 4.439999 -7.215002 0.000000 0.000000 0.000014 0.000990
    140 -7.215000 0.000001 0.000000 0.000000 1.570796 0.000000
    141 15.748681 0.000000 0.157619 0.000000 0.000000 0.000000
    142 0.000000 0.000000 0.000000 0.000000 0.000000 0.000000
    143 0.000000 0.000000 0.000000 0.000000 0.000000 0.000000
    144 0.117660 0.000000 -71.395203 0.000000 0.000000 0.000000
    145 0.000000 0.000000 0.000000 0.000000 0.000000 0.000000
    146 -0.117660 0.000000 71.395203 0.000000 0.000000 0.000000
end
