// Created by Crowbar 0.74
version 1
nodes
  0 "tag_holo" -1
  1 "tag_lense" 0
  2 "tag_reticle_attach" 0
end
skeleton
  time 0
    0 0.000000 0.000000 0.000000 0.000000 0.000000 0.000000
    1 -0.229174 -0.018014 1.101837 0.000000 0.000000 0.000000
    2 -0.229174 -0.018014 1.101837 0.000000 0.000000 0.000000
end
triangles
reticle_ui_stencil
  1 -0.173132 -0.247188 1.498138 -0.999996 0.002924 -0.000001 0.932129 0.250488 1 1 1.000000
  1 -0.173132 -0.018014 1.559184 -0.999996 0.002972 -0.000001 0.999023 0.500000 1 1 1.000000
  1 -0.173132 -0.018014 1.101836 -0.999996 0.002876 -0.000001 0.500000 0.500000 1 1 1.000000
reticle_ui_stencil
  1 -0.173132 -0.018014 1.559184 -0.999996 0.002972 -0.000001 0.999023 0.500000 1 1 1.000000
  1 -0.173132 0.211160 1.498138 -0.999996 0.002924 -0.000001 0.932129 0.749512 1 1 1.000000
  1 -0.173132 -0.018014 1.101836 -0.999996 0.002876 -0.000001 0.500000 0.500000 1 1 1.000000
reticle_ui_stencil
  1 -0.173132 0.211160 1.498138 -0.999996 0.002924 -0.000001 0.932129 0.749512 1 1 1.000000
  1 -0.173132 0.379288 1.331011 -0.999996 0.002924 -0.000001 0.749512 0.932190 1 1 1.000000
  1 -0.173132 -0.018014 1.101836 -0.999996 0.002876 -0.000001 0.500000 0.500000 1 1 1.000000
reticle_ui_stencil
  1 -0.173132 0.379288 1.331011 -0.999996 0.002924 -0.000001 0.749512 0.932190 1 1 1.000000
  1 -0.173132 0.440334 1.101836 -0.999996 0.002924 -0.000001 0.500000 0.999000 1 1 1.000000
  1 -0.173132 -0.018014 1.101836 -0.999996 0.002876 -0.000001 0.500000 0.500000 1 1 1.000000
reticle_ui_stencil
  1 -0.173132 0.440334 1.101836 -0.999996 0.002924 -0.000001 0.500000 0.999000 1 1 1.000000
  1 -0.173132 0.379288 0.872662 -0.999996 0.002924 -0.000001 0.250488 0.932190 1 1 1.000000
  1 -0.173132 -0.018014 1.101836 -0.999996 0.002876 -0.000001 0.500000 0.500000 1 1 1.000000
reticle_ui_stencil
  1 -0.173132 0.379288 0.872662 -0.999996 0.002924 -0.000001 0.250488 0.932190 1 1 1.000000
  1 -0.173132 0.211160 0.704535 -0.999996 0.002924 -0.000001 0.067810 0.749512 1 1 1.000000
  1 -0.173132 -0.018014 1.101836 -0.999996 0.002876 -0.000001 0.500000 0.500000 1 1 1.000000
reticle_ui_stencil
  1 -0.173132 0.211160 0.704535 -0.999996 0.002924 -0.000001 0.067810 0.749512 1 1 1.000000
  1 -0.173132 -0.018014 0.643489 -0.999996 0.002972 -0.000001 0.001000 0.500000 1 1 1.000000
  1 -0.173132 -0.018014 1.101836 -0.999996 0.002876 -0.000001 0.500000 0.500000 1 1 1.000000
reticle_ui_stencil
  1 -0.173132 -0.018014 0.643489 -0.999996 0.002972 -0.000001 0.001000 0.500000 1 1 1.000000
  1 -0.173132 -0.247188 0.704535 -0.999996 0.002972 -0.000001 0.067810 0.250488 1 1 1.000000
  1 -0.173132 -0.018014 1.101836 -0.999996 0.002876 -0.000001 0.500000 0.500000 1 1 1.000000
reticle_ui_stencil
  1 -0.173132 -0.247188 0.704535 -0.999996 0.002972 -0.000001 0.067810 0.250488 1 1 1.000000
  1 -0.173132 -0.414315 0.872662 -0.999996 0.002924 -0.000001 0.250488 0.067871 1 1 1.000000
  1 -0.173132 -0.018014 1.101836 -0.999996 0.002876 -0.000001 0.500000 0.500000 1 1 1.000000
reticle_ui_stencil
  1 -0.173132 -0.414315 0.872662 -0.999996 0.002924 -0.000001 0.250488 0.067871 1 1 1.000000
  1 -0.173132 -0.476362 1.101836 -0.999996 0.002924 -0.000001 0.500000 0.000977 1 1 1.000000
  1 -0.173132 -0.018014 1.101836 -0.999996 0.002876 -0.000001 0.500000 0.500000 1 1 1.000000
reticle_ui_stencil
  1 -0.173132 -0.018014 1.101836 -0.999996 0.002876 -0.000001 0.500000 0.500000 1 1 1.000000
  1 -0.173132 -0.476362 1.101836 -0.999996 0.002924 -0.000001 0.500000 0.000977 1 1 1.000000
  1 -0.173132 -0.414315 1.331011 -0.999996 0.002924 -0.000001 0.749512 0.067871 1 1 1.000000
reticle_ui_stencil
  1 -0.173132 -0.247188 1.498138 -0.999996 0.002924 -0.000001 0.932129 0.250488 1 1 1.000000
  1 -0.173132 -0.018014 1.101836 -0.999996 0.002876 -0.000001 0.500000 0.500000 1 1 1.000000
  1 -0.173132 -0.414315 1.331011 -0.999996 0.002924 -0.000001 0.749512 0.067871 1 1 1.000000
vm_depth_mask_start
  1 -0.171130 -0.247188 1.498138 -0.999996 0.002924 -0.000001 0.932129 0.250488 1 1 1.000000
  1 -0.171130 -0.018014 1.559184 -0.999996 0.002972 -0.000001 0.999023 0.500000 1 1 1.000000
  1 -0.171130 -0.018014 1.101836 -0.999996 0.002876 -0.000001 0.500000 0.500000 1 1 1.000000
vm_depth_mask_start
  1 -0.171130 -0.018014 1.559184 -0.999996 0.002972 -0.000001 0.999023 0.500000 1 1 1.000000
  1 -0.171130 0.211160 1.498138 -0.999996 0.002924 -0.000001 0.932129 0.749512 1 1 1.000000
  1 -0.171130 -0.018014 1.101836 -0.999996 0.002876 -0.000001 0.500000 0.500000 1 1 1.000000
vm_depth_mask_start
  1 -0.171130 0.211160 1.498138 -0.999996 0.002924 -0.000001 0.932129 0.749512 1 1 1.000000
  1 -0.171130 0.379288 1.331011 -0.999996 0.002924 -0.000001 0.749512 0.932190 1 1 1.000000
  1 -0.171130 -0.018014 1.101836 -0.999996 0.002876 -0.000001 0.500000 0.500000 1 1 1.000000
vm_depth_mask_start
  1 -0.171130 0.379288 1.331011 -0.999996 0.002924 -0.000001 0.749512 0.932190 1 1 1.000000
  1 -0.171130 0.440334 1.101836 -0.999996 0.002924 -0.000001 0.500000 0.999000 1 1 1.000000
  1 -0.171130 -0.018014 1.101836 -0.999996 0.002876 -0.000001 0.500000 0.500000 1 1 1.000000
vm_depth_mask_start
  1 -0.171130 0.440334 1.101836 -0.999996 0.002924 -0.000001 0.500000 0.999000 1 1 1.000000
  1 -0.171130 0.379288 0.872662 -0.999996 0.002924 -0.000001 0.250488 0.932190 1 1 1.000000
  1 -0.171130 -0.018014 1.101836 -0.999996 0.002876 -0.000001 0.500000 0.500000 1 1 1.000000
vm_depth_mask_start
  1 -0.171130 0.379288 0.872662 -0.999996 0.002924 -0.000001 0.250488 0.932190 1 1 1.000000
  1 -0.171130 0.211160 0.704535 -0.999996 0.002924 -0.000001 0.067810 0.749512 1 1 1.000000
  1 -0.171130 -0.018014 1.101836 -0.999996 0.002876 -0.000001 0.500000 0.500000 1 1 1.000000
vm_depth_mask_start
  1 -0.171130 0.211160 0.704535 -0.999996 0.002924 -0.000001 0.067810 0.749512 1 1 1.000000
  1 -0.171130 -0.018014 0.643489 -0.999996 0.002972 -0.000001 0.001000 0.500000 1 1 1.000000
  1 -0.171130 -0.018014 1.101836 -0.999996 0.002876 -0.000001 0.500000 0.500000 1 1 1.000000
vm_depth_mask_start
  1 -0.171130 -0.018014 0.643489 -0.999996 0.002972 -0.000001 0.001000 0.500000 1 1 1.000000
  1 -0.171130 -0.247188 0.704535 -0.999996 0.002972 -0.000001 0.067810 0.250488 1 1 1.000000
  1 -0.171130 -0.018014 1.101836 -0.999996 0.002876 -0.000001 0.500000 0.500000 1 1 1.000000
vm_depth_mask_start
  1 -0.171130 -0.247188 0.704535 -0.999996 0.002972 -0.000001 0.067810 0.250488 1 1 1.000000
  1 -0.171130 -0.414315 0.872662 -0.999996 0.002924 -0.000001 0.250488 0.067871 1 1 1.000000
  1 -0.171130 -0.018014 1.101836 -0.999996 0.002876 -0.000001 0.500000 0.500000 1 1 1.000000
vm_depth_mask_start
  1 -0.171130 -0.414315 0.872662 -0.999996 0.002924 -0.000001 0.250488 0.067871 1 1 1.000000
  1 -0.171130 -0.476362 1.101836 -0.999996 0.002924 -0.000001 0.500000 0.000977 1 1 1.000000
  1 -0.171130 -0.018014 1.101836 -0.999996 0.002876 -0.000001 0.500000 0.500000 1 1 1.000000
vm_depth_mask_start
  1 -0.171130 -0.018014 1.101836 -0.999996 0.002876 -0.000001 0.500000 0.500000 1 1 1.000000
  1 -0.171130 -0.476362 1.101836 -0.999996 0.002924 -0.000001 0.500000 0.000977 1 1 1.000000
  1 -0.171130 -0.414315 1.331011 -0.999996 0.002924 -0.000001 0.749512 0.067871 1 1 1.000000
vm_depth_mask_start
  1 -0.171130 -0.247188 1.498138 -0.999996 0.002924 -0.000001 0.932129 0.250488 1 1 1.000000
  1 -0.171130 -0.018014 1.101836 -0.999996 0.002876 -0.000001 0.500000 0.500000 1 1 1.000000
  1 -0.171130 -0.414315 1.331011 -0.999996 0.002924 -0.000001 0.749512 0.067871 1 1 1.000000
vm_depth_mask_end
  1 -0.171130 -0.247188 1.498138 -0.999996 0.002924 -0.000001 0.932129 0.250488 1 1 1.000000
  1 -0.171130 -0.018014 1.559184 -0.999996 0.002972 -0.000001 0.999023 0.500000 1 1 1.000000
  1 -0.171130 -0.018014 1.101836 -0.999996 0.002876 -0.000001 0.500000 0.500000 1 1 1.000000
vm_depth_mask_end
  1 -0.171130 -0.018014 1.559184 -0.999996 0.002972 -0.000001 0.999023 0.500000 1 1 1.000000
  1 -0.171130 0.211160 1.498138 -0.999996 0.002924 -0.000001 0.932129 0.749512 1 1 1.000000
  1 -0.171130 -0.018014 1.101836 -0.999996 0.002876 -0.000001 0.500000 0.500000 1 1 1.000000
vm_depth_mask_end
  1 -0.171130 0.211160 1.498138 -0.999996 0.002924 -0.000001 0.932129 0.749512 1 1 1.000000
  1 -0.171130 0.379288 1.331011 -0.999996 0.002924 -0.000001 0.749512 0.932190 1 1 1.000000
  1 -0.171130 -0.018014 1.101836 -0.999996 0.002876 -0.000001 0.500000 0.500000 1 1 1.000000
vm_depth_mask_end
  1 -0.171130 0.379288 1.331011 -0.999996 0.002924 -0.000001 0.749512 0.932190 1 1 1.000000
  1 -0.171130 0.440334 1.101836 -0.999996 0.002924 -0.000001 0.500000 0.999000 1 1 1.000000
  1 -0.171130 -0.018014 1.101836 -0.999996 0.002876 -0.000001 0.500000 0.500000 1 1 1.000000
vm_depth_mask_end
  1 -0.171130 0.440334 1.101836 -0.999996 0.002924 -0.000001 0.500000 0.999000 1 1 1.000000
  1 -0.171130 0.379288 0.872662 -0.999996 0.002924 -0.000001 0.250488 0.932190 1 1 1.000000
  1 -0.171130 -0.018014 1.101836 -0.999996 0.002876 -0.000001 0.500000 0.500000 1 1 1.000000
vm_depth_mask_end
  1 -0.171130 0.379288 0.872662 -0.999996 0.002924 -0.000001 0.250488 0.932190 1 1 1.000000
  1 -0.171130 0.211160 0.704535 -0.999996 0.002924 -0.000001 0.067810 0.749512 1 1 1.000000
  1 -0.171130 -0.018014 1.101836 -0.999996 0.002876 -0.000001 0.500000 0.500000 1 1 1.000000
vm_depth_mask_end
  1 -0.171130 0.211160 0.704535 -0.999996 0.002924 -0.000001 0.067810 0.749512 1 1 1.000000
  1 -0.171130 -0.018014 0.643489 -0.999996 0.002972 -0.000001 0.001000 0.500000 1 1 1.000000
  1 -0.171130 -0.018014 1.101836 -0.999996 0.002876 -0.000001 0.500000 0.500000 1 1 1.000000
vm_depth_mask_end
  1 -0.171130 -0.018014 0.643489 -0.999996 0.002972 -0.000001 0.001000 0.500000 1 1 1.000000
  1 -0.171130 -0.247188 0.704535 -0.999996 0.002972 -0.000001 0.067810 0.250488 1 1 1.000000
  1 -0.171130 -0.018014 1.101836 -0.999996 0.002876 -0.000001 0.500000 0.500000 1 1 1.000000
vm_depth_mask_end
  1 -0.171130 -0.247188 0.704535 -0.999996 0.002972 -0.000001 0.067810 0.250488 1 1 1.000000
  1 -0.171130 -0.414315 0.872662 -0.999996 0.002924 -0.000001 0.250488 0.067871 1 1 1.000000
  1 -0.171130 -0.018014 1.101836 -0.999996 0.002876 -0.000001 0.500000 0.500000 1 1 1.000000
vm_depth_mask_end
  1 -0.171130 -0.414315 0.872662 -0.999996 0.002924 -0.000001 0.250488 0.067871 1 1 1.000000
  1 -0.171130 -0.476362 1.101836 -0.999996 0.002924 -0.000001 0.500000 0.000977 1 1 1.000000
  1 -0.171130 -0.018014 1.101836 -0.999996 0.002876 -0.000001 0.500000 0.500000 1 1 1.000000
vm_depth_mask_end
  1 -0.171130 -0.018014 1.101836 -0.999996 0.002876 -0.000001 0.500000 0.500000 1 1 1.000000
  1 -0.171130 -0.476362 1.101836 -0.999996 0.002924 -0.000001 0.500000 0.000977 1 1 1.000000
  1 -0.171130 -0.414315 1.331011 -0.999996 0.002924 -0.000001 0.749512 0.067871 1 1 1.000000
vm_depth_mask_end
  1 -0.171130 -0.247188 1.498138 -0.999996 0.002924 -0.000001 0.932129 0.250488 1 1 1.000000
  1 -0.171130 -0.018014 1.101836 -0.999996 0.002876 -0.000001 0.500000 0.500000 1 1 1.000000
  1 -0.171130 -0.414315 1.331011 -0.999996 0.002924 -0.000001 0.749512 0.067871 1 1 1.000000
ads_scope_lens_1
  1 -0.150114 -0.340258 1.424081 -0.814200 -0.407693 0.413358 0.842285 0.842285 1 1 1.000000
  1 -0.208158 -0.255194 1.339017 -0.958623 -0.178691 0.221609 0.751465 0.751465 1 1 1.000000
  1 -0.150114 -0.370282 1.391056 -0.812477 -0.449824 0.370862 0.874023 0.807129 1 1 1.000000
ads_scope_lens_1
  1 -0.150114 -0.307234 1.454104 -0.814052 -0.365388 0.451454 0.807129 0.874268 1 1 1.000000
  1 -0.208158 -0.255194 1.339017 -0.958623 -0.178691 0.221609 0.751465 0.751465 1 1 1.000000
  1 -0.150114 -0.340258 1.424081 -0.814200 -0.407693 0.413358 0.842285 0.842285 1 1 1.000000
ads_scope_lens_1
  1 -0.150114 -0.307234 1.454104 -0.814052 -0.365388 0.451454 0.807129 0.874268 1 1 1.000000
  1 -0.208158 -0.204155 1.380048 -0.958053 -0.157992 0.239107 0.697754 0.795776 1 1 1.000000
  1 -0.208158 -0.255194 1.339017 -0.958623 -0.178691 0.221609 0.751465 0.751465 1 1 1.000000
ads_scope_lens_1
  1 -0.150114 -0.271206 1.481124 -0.813395 -0.321536 0.484771 0.769043 0.902527 1 1 1.000000
  1 -0.208158 -0.204155 1.380048 -0.958053 -0.157992 0.239107 0.697754 0.795776 1 1 1.000000
  1 -0.150114 -0.307234 1.454104 -0.814052 -0.365388 0.451454 0.807129 0.874268 1 1 1.000000
ads_scope_lens_1
  1 -0.150114 -0.233177 1.504142 -0.813140 -0.271554 0.514842 0.728027 0.926941 1 1 1.000000
  1 -0.208158 -0.204155 1.380048 -0.958053 -0.157992 0.239107 0.697754 0.795776 1 1 1.000000
  1 -0.150114 -0.271206 1.481124 -0.813395 -0.321536 0.484771 0.769043 0.902527 1 1 1.000000
ads_scope_lens_1
  1 -0.150114 -0.233177 1.504142 -0.813140 -0.271554 0.514842 0.728027 0.926941 1 1 1.000000
  1 -0.208158 -0.146111 1.411071 -0.957871 -0.078511 0.276259 0.636230 0.828613 1 1 1.000000
  1 -0.208158 -0.204155 1.380048 -0.958053 -0.157992 0.239107 0.697754 0.795776 1 1 1.000000
ads_scope_lens_1
  1 -0.150114 -0.192146 1.523156 -0.812825 -0.219890 0.539410 0.685059 0.947266 1 1 1.000000
  1 -0.208158 -0.146111 1.411071 -0.957871 -0.078511 0.276259 0.636230 0.828613 1 1 1.000000
  1 -0.150114 -0.233177 1.504142 -0.813140 -0.271554 0.514842 0.728027 0.926941 1 1 1.000000
ads_scope_lens_1
  1 -0.150114 -0.150114 1.538168 -0.813944 -0.164611 0.557134 0.640625 0.963257 1 1 1.000000
  1 -0.208158 -0.146111 1.411071 -0.957871 -0.078511 0.276259 0.636230 0.828613 1 1 1.000000
  1 -0.150114 -0.192146 1.523156 -0.812825 -0.219890 0.539410 0.685059 0.947266 1 1 1.000000
ads_scope_lens_1
  1 -0.150114 -0.150114 1.538168 -0.813944 -0.164611 0.557134 0.640625 0.963257 1 1 1.000000
  1 -0.208158 -0.083063 1.430086 -0.958256 -0.051339 0.281266 0.569336 0.848877 1 1 1.000000
  1 -0.208158 -0.146111 1.411071 -0.957871 -0.078511 0.276259 0.636230 0.828613 1 1 1.000000
ads_scope_lens_1
  1 -0.150114 -0.107081 1.549176 -0.813354 -0.109645 0.571344 0.594238 0.974808 1 1 1.000000
  1 -0.208158 -0.083063 1.430086 -0.958256 -0.051339 0.281266 0.569336 0.848877 1 1 1.000000
  1 -0.150114 -0.150114 1.538168 -0.813944 -0.164611 0.557134 0.640625 0.963257 1 1 1.000000
ads_scope_lens_1
  1 -0.150114 -0.062047 1.556181 -0.812372 -0.052988 0.580727 0.547363 0.981781 1 1 1.000000
  1 -0.208158 -0.083063 1.430086 -0.958256 -0.051339 0.281266 0.569336 0.848877 1 1 1.000000
  1 -0.150114 -0.107081 1.549176 -0.813354 -0.109645 0.571344 0.594238 0.974808 1 1 1.000000
ads_scope_lens_1
  1 -0.150114 -0.062047 1.556181 -0.812372 -0.052988 0.580727 0.547363 0.981781 1 1 1.000000
  1 -0.208158 -0.018014 1.437091 -0.957864 0.022247 0.286359 0.500000 0.855713 1 1 1.000000
  1 -0.208158 -0.083063 1.430086 -0.958256 -0.051339 0.281266 0.569336 0.848877 1 1 1.000000
ads_scope_lens_1
  1 -0.150114 -0.018014 1.558183 -0.811028 0.001912 0.585005 0.500000 0.984116 1 1 1.000000
  1 -0.208158 -0.018014 1.437091 -0.957864 0.022247 0.286359 0.500000 0.855713 1 1 1.000000
  1 -0.150114 -0.062047 1.556181 -0.812372 -0.052988 0.580727 0.547363 0.981781 1 1 1.000000
ads_scope_lens_1
  1 -0.150114 0.027021 1.556181 -0.812367 0.052982 0.580734 0.452637 0.981781 1 1 1.000000
  1 -0.208158 -0.018014 1.437091 -0.957864 0.022247 0.286359 0.500000 0.855713 1 1 1.000000
  1 -0.150114 -0.018014 1.558183 -0.811028 0.001912 0.585005 0.500000 0.984116 1 1 1.000000
ads_scope_lens_1
  1 -0.150114 0.027021 1.556181 -0.812367 0.052982 0.580734 0.452637 0.981781 1 1 1.000000
  1 -0.208158 0.048036 1.430086 -0.958255 0.051340 0.281267 0.430664 0.848877 1 1 1.000000
  1 -0.208158 -0.018014 1.437091 -0.957864 0.022247 0.286359 0.500000 0.855713 1 1 1.000000
ads_scope_lens_1
  1 -0.150114 0.071054 1.549176 -0.813361 0.109631 0.571336 0.405518 0.974808 1 1 1.000000
  1 -0.208158 0.048036 1.430086 -0.958255 0.051340 0.281267 0.430664 0.848877 1 1 1.000000
  1 -0.150114 0.027021 1.556181 -0.812367 0.052982 0.580734 0.452637 0.981781 1 1 1.000000
ads_scope_lens_1
  1 -0.150114 0.115087 1.538168 -0.812435 0.166621 0.558737 0.359375 0.963257 1 1 1.000000
  1 -0.208158 0.048036 1.430086 -0.958255 0.051340 0.281267 0.430664 0.848877 1 1 1.000000
  1 -0.150114 0.071054 1.549176 -0.813361 0.109631 0.571336 0.405518 0.974808 1 1 1.000000
ads_scope_lens_1
  1 -0.150114 0.115087 1.538168 -0.812435 0.166621 0.558737 0.359375 0.963257 1 1 1.000000
  1 -0.208158 0.110083 1.411071 -0.958919 0.129627 0.252330 0.364014 0.828613 1 1 1.000000
  1 -0.208158 0.048036 1.430086 -0.958255 0.051340 0.281267 0.430664 0.848877 1 1 1.000000
ads_scope_lens_1
  1 -0.208158 -0.146111 1.411071 -0.957871 -0.078511 0.276259 0.636230 0.828613 1 1 1.000000
  1 -0.229174 -0.092070 1.279972 -0.999998 -0.001347 0.001032 0.578613 0.689209 1 1 1.000000
  1 -0.208158 -0.204155 1.380048 -0.958053 -0.157992 0.239107 0.697754 0.795776 1 1 1.000000
ads_scope_lens_1
  1 -0.208158 -0.083063 1.430086 -0.958256 -0.051339 0.281266 0.569336 0.848877 1 1 1.000000
  1 -0.229174 -0.092070 1.279972 -0.999998 -0.001347 0.001032 0.578613 0.689209 1 1 1.000000
  1 -0.208158 -0.146111 1.411071 -0.957871 -0.078511 0.276259 0.636230 0.828613 1 1 1.000000
ads_scope_lens_1
  1 -0.208158 -0.083063 1.430086 -0.958256 -0.051339 0.281266 0.569336 0.848877 1 1 1.000000
  1 -0.229174 -0.018014 1.294984 -0.999975 -0.006890 -0.001744 0.500000 0.704834 1 1 1.000000
  1 -0.229174 -0.092070 1.279972 -0.999998 -0.001347 0.001032 0.578613 0.689209 1 1 1.000000
ads_scope_lens_1
  1 -0.208158 -0.018014 1.437091 -0.957864 0.022247 0.286359 0.500000 0.855713 1 1 1.000000
  1 -0.229174 -0.018014 1.294984 -0.999975 -0.006890 -0.001744 0.500000 0.704834 1 1 1.000000
  1 -0.208158 -0.083063 1.430086 -0.958256 -0.051339 0.281266 0.569336 0.848877 1 1 1.000000
ads_scope_lens_1
  1 -0.208158 0.048036 1.430086 -0.958255 0.051340 0.281267 0.430664 0.848877 1 1 1.000000
  1 -0.229174 -0.018014 1.294984 -0.999975 -0.006890 -0.001744 0.500000 0.704834 1 1 1.000000
  1 -0.208158 -0.018014 1.437091 -0.957864 0.022247 0.286359 0.500000 0.855713 1 1 1.000000
ads_scope_lens_1
  1 -0.208158 0.048036 1.430086 -0.958255 0.051340 0.281267 0.430664 0.848877 1 1 1.000000
  1 -0.229174 0.056043 1.279972 -0.999999 0.001345 0.001026 0.421631 0.689209 1 1 1.000000
  1 -0.229174 -0.018014 1.294984 -0.999975 -0.006890 -0.001744 0.500000 0.704834 1 1 1.000000
ads_scope_lens_1
  1 -0.208158 0.110083 1.411071 -0.958919 0.129627 0.252330 0.364014 0.828613 1 1 1.000000
  1 -0.229174 0.056043 1.279972 -0.999999 0.001345 0.001026 0.421631 0.689209 1 1 1.000000
  1 -0.208158 0.048036 1.430086 -0.958255 0.051340 0.281267 0.430664 0.848877 1 1 1.000000
ads_scope_lens_1
  1 -0.208158 0.168127 1.380048 -0.958043 0.158014 0.239136 0.302490 0.795776 1 1 1.000000
  1 -0.229174 0.056043 1.279972 -0.999999 0.001345 0.001026 0.421631 0.689209 1 1 1.000000
  1 -0.208158 0.110083 1.411071 -0.958919 0.129627 0.252330 0.364014 0.828613 1 1 1.000000
ads_scope_lens_1
  1 -0.208158 0.168127 1.380048 -0.958043 0.158014 0.239136 0.302490 0.795776 1 1 1.000000
  1 -0.229174 0.119090 1.237940 -0.999976 -0.006887 0.001008 0.355225 0.644775 1 1 1.000000
  1 -0.229174 0.056043 1.279972 -0.999999 0.001345 0.001026 0.421631 0.689209 1 1 1.000000
ads_scope_lens_1
  1 -0.208158 0.219166 1.339017 -0.959386 0.216624 0.180699 0.248535 0.751465 1 1 1.000000
  1 -0.229174 0.119090 1.237940 -0.999976 -0.006887 0.001008 0.355225 0.644775 1 1 1.000000
  1 -0.208158 0.168127 1.380048 -0.958043 0.158014 0.239136 0.302490 0.795776 1 1 1.000000
ads_scope_lens_1
  1 -0.208158 0.261198 1.287978 -0.959812 0.232064 0.157817 0.204224 0.697510 1 1 1.000000
  1 -0.229174 0.119090 1.237940 -0.999976 -0.006887 0.001008 0.355225 0.644775 1 1 1.000000
  1 -0.208158 0.219166 1.339017 -0.959386 0.216624 0.180699 0.248535 0.751465 1 1 1.000000
ads_scope_lens_1
  1 -0.208158 0.261198 1.287978 -0.959812 0.232064 0.157817 0.204224 0.697510 1 1 1.000000
  1 -0.229174 0.160121 1.175893 -0.999975 -0.006887 -0.001734 0.310791 0.578369 1 1 1.000000
  1 -0.229174 0.119090 1.237940 -0.999976 -0.006887 0.001008 0.355225 0.644775 1 1 1.000000
ads_scope_lens_1
  1 -0.208158 0.292222 1.229934 -0.959046 0.270698 0.083382 0.171387 0.635986 1 1 1.000000
  1 -0.229174 0.160121 1.175893 -0.999975 -0.006887 -0.001734 0.310791 0.578369 1 1 1.000000
  1 -0.208158 0.261198 1.287978 -0.959812 0.232064 0.157817 0.204224 0.697510 1 1 1.000000
ads_scope_lens_1
  1 -0.208158 0.311236 1.166886 -0.958692 0.278978 0.055511 0.151123 0.569336 1 1 1.000000
  1 -0.229174 0.160121 1.175893 -0.999975 -0.006887 -0.001734 0.310791 0.578369 1 1 1.000000
  1 -0.208158 0.292222 1.229934 -0.959046 0.270698 0.083382 0.171387 0.635986 1 1 1.000000
ads_scope_lens_1
  1 -0.208158 0.311236 1.166886 -0.958692 0.278978 0.055511 0.151123 0.569336 1 1 1.000000
  1 -0.229174 0.175133 1.101837 -0.999975 0.006896 -0.001745 0.295166 0.500000 1 1 1.000000
  1 -0.229174 0.160121 1.175893 -0.999975 -0.006887 -0.001734 0.310791 0.578369 1 1 1.000000
ads_scope_lens_1
  1 -0.208158 0.317241 1.101837 -0.959034 0.282085 -0.026098 0.144409 0.500000 1 1 1.000000
  1 -0.229174 0.175133 1.101837 -0.999975 0.006896 -0.001745 0.295166 0.500000 1 1 1.000000
  1 -0.208158 0.311236 1.166886 -0.958692 0.278978 0.055511 0.151123 0.569336 1 1 1.000000
ads_scope_lens_1
  1 -0.208158 0.311236 1.036787 -0.959448 0.276723 -0.053700 0.151123 0.430664 1 1 1.000000
  1 -0.229174 0.175133 1.101837 -0.999975 0.006896 -0.001745 0.295166 0.500000 1 1 1.000000
  1 -0.208158 0.317241 1.101837 -0.959034 0.282085 -0.026098 0.144409 0.500000 1 1 1.000000
ads_scope_lens_1
  1 -0.208158 0.311236 1.036787 -0.959448 0.276723 -0.053700 0.151123 0.430664 1 1 1.000000
  1 -0.229174 0.160121 1.027780 -0.999975 0.006894 -0.001743 0.310791 0.421387 1 1 1.000000
  1 -0.229174 0.175133 1.101837 -0.999975 0.006896 -0.001745 0.295166 0.500000 1 1 1.000000
ads_scope_lens_1
  1 -0.150114 0.157119 1.523156 -0.812823 0.219882 0.539418 0.314697 0.947266 1 1 1.000000
  1 -0.208158 0.110083 1.411071 -0.958919 0.129627 0.252330 0.364014 0.828613 1 1 1.000000
  1 -0.150114 0.115087 1.538168 -0.812435 0.166621 0.558737 0.359375 0.963257 1 1 1.000000
ads_scope_lens_1
  1 -0.150114 0.197149 1.504142 -0.813147 0.271543 0.514837 0.271729 0.926941 1 1 1.000000
  1 -0.208158 0.110083 1.411071 -0.958919 0.129627 0.252330 0.364014 0.828613 1 1 1.000000
  1 -0.150114 0.157119 1.523156 -0.812823 0.219882 0.539418 0.314697 0.947266 1 1 1.000000
ads_scope_lens_1
  1 -0.150114 0.197149 1.504142 -0.813147 0.271543 0.514837 0.271729 0.926941 1 1 1.000000
  1 -0.208158 0.168127 1.380048 -0.958043 0.158014 0.239136 0.302490 0.795776 1 1 1.000000
  1 -0.208158 0.110083 1.411071 -0.958919 0.129627 0.252330 0.364014 0.828613 1 1 1.000000
ads_scope_lens_1
  1 -0.150114 0.235178 1.481124 -0.813395 0.321536 0.484772 0.231079 0.902527 1 1 1.000000
  1 -0.208158 0.168127 1.380048 -0.958043 0.158014 0.239136 0.302490 0.795776 1 1 1.000000
  1 -0.150114 0.197149 1.504142 -0.813147 0.271543 0.514837 0.271729 0.926941 1 1 1.000000
ads_scope_lens_1
  1 -0.150114 0.271206 1.454104 -0.812422 0.367192 0.452924 0.192871 0.874268 1 1 1.000000
  1 -0.208158 0.168127 1.380048 -0.958043 0.158014 0.239136 0.302490 0.795776 1 1 1.000000
  1 -0.150114 0.235178 1.481124 -0.813395 0.321536 0.484772 0.231079 0.902527 1 1 1.000000
ads_scope_lens_1
  1 -0.150114 0.271206 1.454104 -0.812422 0.367192 0.452924 0.192871 0.874268 1 1 1.000000
  1 -0.208158 0.219166 1.339017 -0.959386 0.216624 0.180699 0.248535 0.751465 1 1 1.000000
  1 -0.208158 0.168127 1.380048 -0.958043 0.158014 0.239136 0.302490 0.795776 1 1 1.000000
ads_scope_lens_1
  1 -0.150114 0.305232 1.424081 -0.814185 0.407706 0.413375 0.157715 0.842285 1 1 1.000000
  1 -0.208158 0.219166 1.339017 -0.959386 0.216624 0.180699 0.248535 0.751465 1 1 1.000000
  1 -0.150114 0.271206 1.454104 -0.812422 0.367192 0.452924 0.192871 0.874268 1 1 1.000000
ads_scope_lens_1
  1 -0.150114 0.335254 1.391056 -0.812467 0.449839 0.370866 0.125732 0.807129 1 1 1.000000
  1 -0.208158 0.219166 1.339017 -0.959386 0.216624 0.180699 0.248535 0.751465 1 1 1.000000
  1 -0.150114 0.305232 1.424081 -0.814185 0.407706 0.413375 0.157715 0.842285 1 1 1.000000
ads_scope_lens_1
  1 -0.150114 0.335254 1.391056 -0.812467 0.449839 0.370866 0.125732 0.807129 1 1 1.000000
  1 -0.208158 0.261198 1.287978 -0.959812 0.232064 0.157817 0.204224 0.697510 1 1 1.000000
  1 -0.208158 0.219166 1.339017 -0.959386 0.216624 0.180699 0.248535 0.751465 1 1 1.000000
ads_scope_lens_1
  1 -0.150114 0.361274 1.355029 -0.814249 0.481195 0.324732 0.097473 0.768921 1 1 1.000000
  1 -0.208158 0.261198 1.287978 -0.959812 0.232064 0.157817 0.204224 0.697510 1 1 1.000000
  1 -0.150114 0.335254 1.391056 -0.812467 0.449839 0.370866 0.125732 0.807129 1 1 1.000000
ads_scope_lens_1
  1 -0.150114 0.384292 1.317000 -0.813663 0.511209 0.276799 0.073059 0.728271 1 1 1.000000
  1 -0.208158 0.261198 1.287978 -0.959812 0.232064 0.157817 0.204224 0.697510 1 1 1.000000
  1 -0.150114 0.361274 1.355029 -0.814249 0.481195 0.324732 0.097473 0.768921 1 1 1.000000
ads_scope_lens_1
  1 -0.150114 0.384292 1.317000 -0.813663 0.511209 0.276799 0.073059 0.728271 1 1 1.000000
  1 -0.208158 0.292222 1.229934 -0.959046 0.270698 0.083382 0.171387 0.635986 1 1 1.000000
  1 -0.208158 0.261198 1.287978 -0.959812 0.232064 0.157817 0.204224 0.697510 1 1 1.000000
ads_scope_lens_1
  1 -0.150114 0.403306 1.275969 -0.814827 0.535327 0.222445 0.052734 0.685303 1 1 1.000000
  1 -0.208158 0.292222 1.229934 -0.959046 0.270698 0.083382 0.171387 0.635986 1 1 1.000000
  1 -0.150114 0.384292 1.317000 -0.813663 0.511209 0.276799 0.073059 0.728271 1 1 1.000000
ads_scope_lens_1
  1 -0.150114 0.418317 1.233937 -0.813579 0.556301 0.169171 0.036743 0.640625 1 1 1.000000
  1 -0.208158 0.292222 1.229934 -0.959046 0.270698 0.083382 0.171387 0.635986 1 1 1.000000
  1 -0.150114 0.403306 1.275969 -0.814827 0.535327 0.222445 0.052734 0.685303 1 1 1.000000
ads_scope_lens_1
  1 -0.150114 0.418317 1.233937 -0.813579 0.556301 0.169171 0.036743 0.640625 1 1 1.000000
  1 -0.208158 0.311236 1.166886 -0.958692 0.278978 0.055511 0.151123 0.569336 1 1 1.000000
  1 -0.208158 0.292222 1.229934 -0.959046 0.270698 0.083382 0.171387 0.635986 1 1 1.000000
ads_scope_lens_1
  1 -0.150114 0.429326 1.190904 -0.813336 0.570167 0.115733 0.025192 0.594482 1 1 1.000000
  1 -0.208158 0.311236 1.166886 -0.958692 0.278978 0.055511 0.151123 0.569336 1 1 1.000000
  1 -0.150114 0.418317 1.233937 -0.813579 0.556301 0.169171 0.036743 0.640625 1 1 1.000000
ads_scope_lens_1
  1 -0.150114 0.436331 1.146871 -0.813301 0.579020 0.057245 0.018219 0.547363 1 1 1.000000
  1 -0.208158 0.311236 1.166886 -0.958692 0.278978 0.055511 0.151123 0.569336 1 1 1.000000
  1 -0.150114 0.429326 1.190904 -0.813336 0.570167 0.115733 0.025192 0.594482 1 1 1.000000
ads_scope_lens_1
  1 -0.150114 0.436331 1.146871 -0.813301 0.579020 0.057245 0.018219 0.547363 1 1 1.000000
  1 -0.208158 0.317241 1.101837 -0.959034 0.282085 -0.026098 0.144409 0.500000 1 1 1.000000
  1 -0.208158 0.311236 1.166886 -0.958692 0.278978 0.055511 0.151123 0.569336 1 1 1.000000
ads_scope_lens_1
  1 -0.150114 0.438332 1.101837 -0.814524 0.580129 0.001034 0.015884 0.500000 1 1 1.000000
  1 -0.208158 0.317241 1.101837 -0.959034 0.282085 -0.026098 0.144409 0.500000 1 1 1.000000
  1 -0.150114 0.436331 1.146871 -0.813301 0.579020 0.057245 0.018219 0.547363 1 1 1.000000
ads_scope_lens_1
  1 -0.150114 0.436331 1.056802 -0.815952 0.575567 -0.054264 0.018219 0.452637 1 1 1.000000
  1 -0.208158 0.317241 1.101837 -0.959034 0.282085 -0.026098 0.144409 0.500000 1 1 1.000000
  1 -0.150114 0.438332 1.101837 -0.814524 0.580129 0.001034 0.015884 0.500000 1 1 1.000000
ads_scope_lens_1
  1 -0.150114 0.436331 1.056802 -0.815952 0.575567 -0.054264 0.018219 0.452637 1 1 1.000000
  1 -0.208158 0.311236 1.036787 -0.959448 0.276723 -0.053700 0.151123 0.430664 1 1 1.000000
  1 -0.208158 0.317241 1.101837 -0.959034 0.282085 -0.026098 0.144409 0.500000 1 1 1.000000
ads_scope_lens_1
  1 -0.150114 0.429326 1.012769 -0.814661 0.568514 -0.114537 0.025192 0.405762 1 1 1.000000
  1 -0.208158 0.311236 1.036787 -0.959448 0.276723 -0.053700 0.151123 0.430664 1 1 1.000000
  1 -0.150114 0.436331 1.056802 -0.815952 0.575567 -0.054264 0.018219 0.452637 1 1 1.000000
ads_scope_lens_1
  1 -0.150114 0.418317 0.969736 -0.813410 0.556404 -0.169643 0.036743 0.359375 1 1 1.000000
  1 -0.208158 0.311236 1.036787 -0.959448 0.276723 -0.053700 0.151123 0.430664 1 1 1.000000
  1 -0.150114 0.429326 1.012769 -0.814661 0.568514 -0.114537 0.025192 0.405762 1 1 1.000000
ads_scope_lens_1
  1 -0.150114 0.418317 0.969736 -0.813410 0.556404 -0.169643 0.036743 0.359375 1 1 1.000000
  1 -0.208158 0.292222 0.973740 -0.959693 0.247958 -0.132307 0.171387 0.363770 1 1 1.000000
  1 -0.208158 0.311236 1.036787 -0.959448 0.276723 -0.053700 0.151123 0.430664 1 1 1.000000
ads_scope_lens_1
  1 -0.150114 0.403306 0.927704 -0.813533 0.537093 -0.222922 0.052734 0.314941 1 1 1.000000
  1 -0.208158 0.292222 0.973740 -0.959693 0.247958 -0.132307 0.171387 0.363770 1 1 1.000000
  1 -0.150114 0.418317 0.969736 -0.813410 0.556404 -0.169643 0.036743 0.359375 1 1 1.000000
ads_scope_lens_1
  1 -0.150114 0.384292 0.886673 -0.812364 0.513016 -0.277272 0.073059 0.271973 1 1 1.000000
  1 -0.208158 0.292222 0.973740 -0.959693 0.247958 -0.132307 0.171387 0.363770 1 1 1.000000
  1 -0.150114 0.403306 0.927704 -0.813533 0.537093 -0.222922 0.052734 0.314941 1 1 1.000000
ads_scope_lens_1
  1 -0.150114 0.384292 0.886673 -0.812364 0.513016 -0.277272 0.073059 0.271973 1 1 1.000000
  1 -0.208158 0.261198 0.915695 -0.958621 0.236617 -0.158297 0.204224 0.302246 1 1 1.000000
  1 -0.208158 0.292222 0.973740 -0.959693 0.247958 -0.132307 0.171387 0.363770 1 1 1.000000
ads_scope_lens_1
  1 -0.150114 0.361274 0.848644 -0.814602 0.481301 -0.323686 0.097473 0.230957 1 1 1.000000
  1 -0.208158 0.261198 0.915695 -0.958621 0.236617 -0.158297 0.204224 0.302246 1 1 1.000000
  1 -0.150114 0.384292 0.886673 -0.812364 0.513016 -0.277272 0.073059 0.271973 1 1 1.000000
ads_scope_lens_1
  1 -0.150114 0.335254 0.812617 -0.812131 0.450062 -0.371332 0.125732 0.192871 1 1 1.000000
  1 -0.208158 0.261198 0.915695 -0.958621 0.236617 -0.158297 0.204224 0.302246 1 1 1.000000
  1 -0.150114 0.361274 0.848644 -0.814602 0.481301 -0.323686 0.097473 0.230957 1 1 1.000000
ads_scope_lens_1
  1 -0.150114 0.335254 0.812617 -0.812131 0.450062 -0.371332 0.125732 0.192871 1 1 1.000000
  1 -0.208158 0.219166 0.864657 -0.959934 0.176554 -0.217613 0.248535 0.248535 1 1 1.000000
  1 -0.208158 0.261198 0.915695 -0.958621 0.236617 -0.158297 0.204224 0.302246 1 1 1.000000
ads_scope_lens_1
  1 -0.150114 0.305232 0.779592 -0.813005 0.409586 -0.413839 0.157715 0.157715 1 1 1.000000
  1 -0.208158 0.219166 0.864657 -0.959934 0.176554 -0.217613 0.248535 0.248535 1 1 1.000000
  1 -0.150114 0.335254 0.812617 -0.812131 0.450062 -0.371332 0.125732 0.192871 1 1 1.000000
ads_scope_lens_1
  1 -0.150114 0.271206 0.749569 -0.812956 0.367281 -0.451893 0.192871 0.125977 1 1 1.000000
  1 -0.208158 0.219166 0.864657 -0.959934 0.176554 -0.217613 0.248535 0.248535 1 1 1.000000
  1 -0.150114 0.305232 0.779592 -0.813005 0.409586 -0.413839 0.157715 0.157715 1 1 1.000000
ads_scope_lens_1
  1 -0.150114 0.271206 0.749569 -0.812956 0.367281 -0.451893 0.192871 0.125977 1 1 1.000000
  1 -0.208158 0.168127 0.823625 -0.959734 0.153645 -0.235167 0.302490 0.204102 1 1 1.000000
  1 -0.208158 0.219166 0.864657 -0.959934 0.176554 -0.217613 0.248535 0.248535 1 1 1.000000
ads_scope_lens_1
  1 -0.150114 0.235178 0.722549 -0.812972 0.321892 -0.485245 0.231079 0.097656 1 1 1.000000
  1 -0.208158 0.168127 0.823625 -0.959734 0.153645 -0.235167 0.302490 0.204102 1 1 1.000000
  1 -0.150114 0.271206 0.749569 -0.812956 0.367281 -0.451893 0.192871 0.125977 1 1 1.000000
ads_scope_lens_1
  1 -0.150114 0.197149 0.699531 -0.813787 0.271634 -0.513776 0.271729 0.073242 1 1 1.000000
  1 -0.208158 0.168127 0.823625 -0.959734 0.153645 -0.235167 0.302490 0.204102 1 1 1.000000
  1 -0.150114 0.235178 0.722549 -0.812972 0.321892 -0.485245 0.231079 0.097656 1 1 1.000000
ads_scope_lens_1
  1 -0.150114 0.197149 0.699531 -0.813787 0.271634 -0.513776 0.271729 0.073242 1 1 1.000000
  1 -0.208158 0.110083 0.792601 -0.958377 0.078628 -0.274466 0.364014 0.171387 1 1 1.000000
  1 -0.208158 0.168127 0.823625 -0.959734 0.153645 -0.235167 0.302490 0.204102 1 1 1.000000
ads_scope_lens_1
  1 -0.208158 0.292222 0.973740 -0.959693 0.247958 -0.132307 0.171387 0.363770 1 1 1.000000
  1 -0.229174 0.160121 1.027780 -0.999975 0.006894 -0.001743 0.310791 0.421387 1 1 1.000000
  1 -0.208158 0.311236 1.036787 -0.959448 0.276723 -0.053700 0.151123 0.430664 1 1 1.000000
ads_scope_lens_1
  1 -0.208158 0.261198 0.915695 -0.958621 0.236617 -0.158297 0.204224 0.302246 1 1 1.000000
  1 -0.229174 0.160121 1.027780 -0.999975 0.006894 -0.001743 0.310791 0.421387 1 1 1.000000
  1 -0.208158 0.292222 0.973740 -0.959693 0.247958 -0.132307 0.171387 0.363770 1 1 1.000000
ads_scope_lens_1
  1 -0.208158 0.261198 0.915695 -0.958621 0.236617 -0.158297 0.204224 0.302246 1 1 1.000000
  1 -0.229174 0.119090 0.965733 -0.999976 0.006876 0.001033 0.355225 0.354980 1 1 1.000000
  1 -0.229174 0.160121 1.027780 -0.999975 0.006894 -0.001743 0.310791 0.421387 1 1 1.000000
ads_scope_lens_1
  1 -0.208158 0.219166 0.864657 -0.959934 0.176554 -0.217613 0.248535 0.248535 1 1 1.000000
  1 -0.229174 0.119090 0.965733 -0.999976 0.006876 0.001033 0.355225 0.354980 1 1 1.000000
  1 -0.208158 0.261198 0.915695 -0.958621 0.236617 -0.158297 0.204224 0.302246 1 1 1.000000
ads_scope_lens_1
  1 -0.208158 0.168127 0.823625 -0.959734 0.153645 -0.235167 0.302490 0.204102 1 1 1.000000
  1 -0.229174 0.119090 0.965733 -0.999976 0.006876 0.001033 0.355225 0.354980 1 1 1.000000
  1 -0.208158 0.219166 0.864657 -0.959934 0.176554 -0.217613 0.248535 0.248535 1 1 1.000000
ads_scope_lens_1
  1 -0.208158 0.168127 0.823625 -0.959734 0.153645 -0.235167 0.302490 0.204102 1 1 1.000000
  1 -0.229174 0.056043 0.923701 -0.999999 -0.001351 0.001017 0.421631 0.310547 1 1 1.000000
  1 -0.229174 0.119090 0.965733 -0.999976 0.006876 0.001033 0.355225 0.354980 1 1 1.000000
ads_scope_lens_1
  1 -0.208158 0.110083 0.792601 -0.958377 0.078628 -0.274466 0.364014 0.171387 1 1 1.000000
  1 -0.229174 0.056043 0.923701 -0.999999 -0.001351 0.001017 0.421631 0.310547 1 1 1.000000
  1 -0.208158 0.168127 0.823625 -0.959734 0.153645 -0.235167 0.302490 0.204102 1 1 1.000000
ads_scope_lens_1
  1 -0.208158 0.048036 0.773587 -0.957979 0.053866 -0.281736 0.430664 0.151367 1 1 1.000000
  1 -0.229174 0.056043 0.923701 -0.999999 -0.001351 0.001017 0.421631 0.310547 1 1 1.000000
  1 -0.208158 0.110083 0.792601 -0.958377 0.078628 -0.274466 0.364014 0.171387 1 1 1.000000
ads_scope_lens_1
  1 -0.208158 0.048036 0.773587 -0.957979 0.053866 -0.281736 0.430664 0.151367 1 1 1.000000
  1 -0.229174 -0.018014 0.908690 -0.999975 0.006888 -0.001742 0.500000 0.295410 1 1 1.000000
  1 -0.229174 0.056043 0.923701 -0.999999 -0.001351 0.001017 0.421631 0.310547 1 1 1.000000
ads_scope_lens_1
  1 -0.208158 -0.018014 0.766582 -0.958372 -0.024893 -0.284436 0.500000 0.144531 1 1 1.000000
  1 -0.229174 -0.018014 0.908690 -0.999975 0.006888 -0.001742 0.500000 0.295410 1 1 1.000000
  1 -0.208158 0.048036 0.773587 -0.957979 0.053866 -0.281736 0.430664 0.151367 1 1 1.000000
ads_scope_lens_1
  1 -0.208158 -0.083063 0.773587 -0.958014 -0.053241 -0.281735 0.569336 0.151367 1 1 1.000000
  1 -0.229174 -0.018014 0.908690 -0.999975 0.006888 -0.001742 0.500000 0.295410 1 1 1.000000
  1 -0.208158 -0.018014 0.766582 -0.958372 -0.024893 -0.284436 0.500000 0.144531 1 1 1.000000
ads_scope_lens_1
  1 -0.208158 -0.083063 0.773587 -0.958014 -0.053241 -0.281735 0.569336 0.151367 1 1 1.000000
  1 -0.229174 -0.092070 0.923701 -0.999999 0.001339 0.001010 0.578613 0.310547 1 1 1.000000
  1 -0.229174 -0.018014 0.908690 -0.999975 0.006888 -0.001742 0.500000 0.295410 1 1 1.000000
ads_scope_lens_1
  1 -0.208158 -0.146111 0.792601 -0.958555 -0.131451 -0.252770 0.636230 0.171387 1 1 1.000000
  1 -0.229174 -0.092070 0.923701 -0.999999 0.001339 0.001010 0.578613 0.310547 1 1 1.000000
  1 -0.208158 -0.083063 0.773587 -0.958014 -0.053241 -0.281735 0.569336 0.151367 1 1 1.000000
ads_scope_lens_1
  1 -0.208158 -0.204155 0.823625 -0.958010 -0.157579 -0.239553 0.697754 0.204102 1 1 1.000000
  1 -0.229174 -0.092070 0.923701 -0.999999 0.001339 0.001010 0.578613 0.310547 1 1 1.000000
  1 -0.208158 -0.146111 0.792601 -0.958555 -0.131451 -0.252770 0.636230 0.171387 1 1 1.000000
ads_scope_lens_1
  1 -0.208158 -0.204155 0.823625 -0.958010 -0.157579 -0.239553 0.697754 0.204102 1 1 1.000000
  1 -0.229174 -0.154117 0.965733 -0.999976 -0.006893 0.001007 0.645020 0.354980 1 1 1.000000
  1 -0.229174 -0.092070 0.923701 -0.999999 0.001339 0.001010 0.578613 0.310547 1 1 1.000000
ads_scope_lens_1
  1 -0.208158 -0.255194 0.864657 -0.958502 -0.217848 -0.183891 0.751465 0.248535 1 1 1.000000
  1 -0.229174 -0.154117 0.965733 -0.999976 -0.006893 0.001007 0.645020 0.354980 1 1 1.000000
  1 -0.208158 -0.204155 0.823625 -0.958010 -0.157579 -0.239553 0.697754 0.204102 1 1 1.000000
ads_scope_lens_1
  1 -0.208158 -0.296225 0.915695 -0.958760 -0.236099 -0.158227 0.795898 0.302246 1 1 1.000000
  1 -0.229174 -0.154117 0.965733 -0.999976 -0.006893 0.001007 0.645020 0.354980 1 1 1.000000
  1 -0.208158 -0.255194 0.864657 -0.958502 -0.217848 -0.183891 0.751465 0.248535 1 1 1.000000
ads_scope_lens_1
  1 -0.208158 -0.296225 0.915695 -0.958760 -0.236099 -0.158227 0.795898 0.302246 1 1 1.000000
  1 -0.229174 -0.196149 1.027780 -0.999975 -0.006887 -0.001736 0.689453 0.421387 1 1 1.000000
  1 -0.229174 -0.154117 0.965733 -0.999976 -0.006893 0.001007 0.645020 0.354980 1 1 1.000000
ads_scope_lens_1
  1 -0.150114 0.157119 0.680516 -0.813522 0.219976 -0.538323 0.314697 0.052734 1 1 1.000000
  1 -0.208158 0.110083 0.792601 -0.958377 0.078628 -0.274466 0.364014 0.171387 1 1 1.000000
  1 -0.150114 0.197149 0.699531 -0.813787 0.271634 -0.513776 0.271729 0.073242 1 1 1.000000
ads_scope_lens_1
  1 -0.150114 0.115087 0.665505 -0.814692 0.164700 -0.556013 0.359375 0.036621 1 1 1.000000
  1 -0.208158 0.110083 0.792601 -0.958377 0.078628 -0.274466 0.364014 0.171387 1 1 1.000000
  1 -0.150114 0.157119 0.680516 -0.813522 0.219976 -0.538323 0.314697 0.052734 1 1 1.000000
ads_scope_lens_1
  1 -0.150114 0.115087 0.665505 -0.814692 0.164700 -0.556013 0.359375 0.036621 1 1 1.000000
  1 -0.208158 0.048036 0.773587 -0.957979 0.053866 -0.281736 0.430664 0.151367 1 1 1.000000
  1 -0.208158 0.110083 0.792601 -0.958377 0.078628 -0.274466 0.364014 0.171387 1 1 1.000000
ads_scope_lens_1
  1 -0.150114 0.071054 0.654497 -0.814171 0.109723 -0.570163 0.405518 0.025391 1 1 1.000000
  1 -0.208158 0.048036 0.773587 -0.957979 0.053866 -0.281736 0.430664 0.151367 1 1 1.000000
  1 -0.150114 0.115087 0.665505 -0.814692 0.164700 -0.556013 0.359375 0.036621 1 1 1.000000
ads_scope_lens_1
  1 -0.150114 0.027021 0.647492 -0.813239 0.053066 -0.579506 0.452637 0.018066 1 1 1.000000
  1 -0.208158 0.048036 0.773587 -0.957979 0.053866 -0.281736 0.430664 0.151367 1 1 1.000000
  1 -0.150114 0.071054 0.654497 -0.814171 0.109723 -0.570163 0.405518 0.025391 1 1 1.000000
ads_scope_lens_1
  1 -0.150114 0.027021 0.647492 -0.813239 0.053066 -0.579506 0.452637 0.018066 1 1 1.000000
  1 -0.208158 -0.018014 0.766582 -0.958372 -0.024893 -0.284436 0.500000 0.144531 1 1 1.000000
  1 -0.208158 0.048036 0.773587 -0.957979 0.053866 -0.281736 0.430664 0.151367 1 1 1.000000
ads_scope_lens_1
  1 -0.150114 -0.018014 0.645490 -0.811956 0.001083 -0.583717 0.500000 0.016113 1 1 1.000000
  1 -0.208158 -0.018014 0.766582 -0.958372 -0.024893 -0.284436 0.500000 0.144531 1 1 1.000000
  1 -0.150114 0.027021 0.647492 -0.813239 0.053066 -0.579506 0.452637 0.018066 1 1 1.000000
ads_scope_lens_1
  1 -0.150114 -0.062047 0.647492 -0.811933 -0.054282 -0.581221 0.547363 0.018066 1 1 1.000000
  1 -0.208158 -0.018014 0.766582 -0.958372 -0.024893 -0.284436 0.500000 0.144531 1 1 1.000000
  1 -0.150114 -0.018014 0.645490 -0.811956 0.001083 -0.583717 0.500000 0.016113 1 1 1.000000
ads_scope_lens_1
  1 -0.150114 -0.062047 0.647492 -0.811933 -0.054282 -0.581221 0.547363 0.018066 1 1 1.000000
  1 -0.208158 -0.083063 0.773587 -0.958014 -0.053241 -0.281735 0.569336 0.151367 1 1 1.000000
  1 -0.208158 -0.018014 0.766582 -0.958372 -0.024893 -0.284436 0.500000 0.144531 1 1 1.000000
ads_scope_lens_1
  1 -0.150114 -0.107081 0.654497 -0.812856 -0.110886 -0.571812 0.594238 0.025391 1 1 1.000000
  1 -0.208158 -0.083063 0.773587 -0.958014 -0.053241 -0.281735 0.569336 0.151367 1 1 1.000000
  1 -0.150114 -0.062047 0.647492 -0.811933 -0.054282 -0.581221 0.547363 0.018066 1 1 1.000000
ads_scope_lens_1
  1 -0.150114 -0.150114 0.665505 -0.813372 -0.165803 -0.557616 0.640625 0.036621 1 1 1.000000
  1 -0.208158 -0.083063 0.773587 -0.958014 -0.053241 -0.281735 0.569336 0.151367 1 1 1.000000
  1 -0.150114 -0.107081 0.654497 -0.812856 -0.110886 -0.571812 0.594238 0.025391 1 1 1.000000
ads_scope_lens_1
  1 -0.150114 -0.150114 0.665505 -0.813372 -0.165803 -0.557616 0.640625 0.036621 1 1 1.000000
  1 -0.208158 -0.146111 0.792601 -0.958555 -0.131451 -0.252770 0.636230 0.171387 1 1 1.000000
  1 -0.208158 -0.083063 0.773587 -0.958014 -0.053241 -0.281735 0.569336 0.151367 1 1 1.000000
ads_scope_lens_1
  1 -0.150114 -0.192146 0.680516 -0.811108 -0.219766 -0.542040 0.685059 0.052734 1 1 1.000000
  1 -0.208158 -0.146111 0.792601 -0.958555 -0.131451 -0.252770 0.636230 0.171387 1 1 1.000000
  1 -0.150114 -0.150114 0.665505 -0.813372 -0.165803 -0.557616 0.640625 0.036621 1 1 1.000000
ads_scope_lens_1
  1 -0.150114 -0.233177 0.699531 -0.811981 -0.269813 -0.517579 0.728027 0.073242 1 1 1.000000
  1 -0.208158 -0.146111 0.792601 -0.958555 -0.131451 -0.252770 0.636230 0.171387 1 1 1.000000
  1 -0.150114 -0.192146 0.680516 -0.811108 -0.219766 -0.542040 0.685059 0.052734 1 1 1.000000
ads_scope_lens_1
  1 -0.150114 -0.233177 0.699531 -0.811981 -0.269813 -0.517579 0.728027 0.073242 1 1 1.000000
  1 -0.208158 -0.204155 0.823625 -0.958010 -0.157579 -0.239553 0.697754 0.204102 1 1 1.000000
  1 -0.208158 -0.146111 0.792601 -0.958555 -0.131451 -0.252770 0.636230 0.171387 1 1 1.000000
ads_scope_lens_1
  1 -0.150114 -0.271206 0.722549 -0.813290 -0.321069 -0.485257 0.769043 0.097656 1 1 1.000000
  1 -0.208158 -0.204155 0.823625 -0.958010 -0.157579 -0.239553 0.697754 0.204102 1 1 1.000000
  1 -0.150114 -0.233177 0.699531 -0.811981 -0.269813 -0.517579 0.728027 0.073242 1 1 1.000000
ads_scope_lens_1
  1 -0.150114 -0.307234 0.749569 -0.812447 -0.365364 -0.454356 0.807129 0.125977 1 1 1.000000
  1 -0.208158 -0.204155 0.823625 -0.958010 -0.157579 -0.239553 0.697754 0.204102 1 1 1.000000
  1 -0.150114 -0.271206 0.722549 -0.813290 -0.321069 -0.485257 0.769043 0.097656 1 1 1.000000
ads_scope_lens_1
  1 -0.150114 -0.307234 0.749569 -0.812447 -0.365364 -0.454356 0.807129 0.125977 1 1 1.000000
  1 -0.208158 -0.255194 0.864657 -0.958502 -0.217848 -0.183891 0.751465 0.248535 1 1 1.000000
  1 -0.208158 -0.204155 0.823625 -0.958010 -0.157579 -0.239553 0.697754 0.204102 1 1 1.000000
ads_scope_lens_1
  1 -0.150114 -0.340258 0.779592 -0.812583 -0.410449 -0.413811 0.842285 0.157715 1 1 1.000000
  1 -0.208158 -0.255194 0.864657 -0.958502 -0.217848 -0.183891 0.751465 0.248535 1 1 1.000000
  1 -0.150114 -0.307234 0.749569 -0.812447 -0.365364 -0.454356 0.807129 0.125977 1 1 1.000000
ads_scope_lens_1
  1 -0.150114 -0.370282 0.812617 -0.812535 -0.449380 -0.371274 0.874023 0.192871 1 1 1.000000
  1 -0.208158 -0.255194 0.864657 -0.958502 -0.217848 -0.183891 0.751465 0.248535 1 1 1.000000
  1 -0.150114 -0.340258 0.779592 -0.812583 -0.410449 -0.413811 0.842285 0.157715 1 1 1.000000
ads_scope_lens_1
  1 -0.150114 -0.370282 0.812617 -0.812535 -0.449380 -0.371274 0.874023 0.192871 1 1 1.000000
  1 -0.208158 -0.296225 0.915695 -0.958760 -0.236099 -0.158227 0.795898 0.302246 1 1 1.000000
  1 -0.208158 -0.255194 0.864657 -0.958502 -0.217848 -0.183891 0.751465 0.248535 1 1 1.000000
ads_scope_lens_1
  1 -0.150114 -0.397302 0.848644 -0.812784 -0.481489 -0.327949 0.902344 0.230957 1 1 1.000000
  1 -0.208158 -0.296225 0.915695 -0.958760 -0.236099 -0.158227 0.795898 0.302246 1 1 1.000000
  1 -0.150114 -0.370282 0.812617 -0.812535 -0.449380 -0.371274 0.874023 0.192871 1 1 1.000000
ads_scope_lens_1
  1 -0.150114 -0.420320 0.886673 -0.812784 -0.512403 -0.277175 0.926758 0.271973 1 1 1.000000
  1 -0.208158 -0.296225 0.915695 -0.958760 -0.236099 -0.158227 0.795898 0.302246 1 1 1.000000
  1 -0.150114 -0.397302 0.848644 -0.812784 -0.481489 -0.327949 0.902344 0.230957 1 1 1.000000
ads_scope_lens_1
  1 -0.150114 -0.420320 0.886673 -0.812784 -0.512403 -0.277175 0.926758 0.271973 1 1 1.000000
  1 -0.208158 -0.327249 0.973740 -0.958311 -0.272244 -0.086741 0.828613 0.363770 1 1 1.000000
  1 -0.208158 -0.296225 0.915695 -0.958760 -0.236099 -0.158227 0.795898 0.302246 1 1 1.000000
ads_scope_lens_1
  1 -0.208158 -0.327249 0.973740 -0.958311 -0.272244 -0.086741 0.828613 0.363770 1 1 1.000000
  1 -0.229174 -0.196149 1.027780 -0.999975 -0.006887 -0.001736 0.689453 0.421387 1 1 1.000000
  1 -0.208158 -0.296225 0.915695 -0.958760 -0.236099 -0.158227 0.795898 0.302246 1 1 1.000000
ads_scope_lens_1
  1 -0.208158 -0.327249 0.973740 -0.958311 -0.272244 -0.086741 0.828613 0.363770 1 1 1.000000
  1 -0.208158 -0.346263 1.036787 -0.958798 -0.278542 -0.055857 0.848633 0.430664 1 1 1.000000
  1 -0.229174 -0.196149 1.027780 -0.999975 -0.006887 -0.001736 0.689453 0.421387 1 1 1.000000
ads_scope_lens_1
  1 -0.208158 -0.346263 1.036787 -0.958798 -0.278542 -0.055857 0.848633 0.430664 1 1 1.000000
  1 -0.229174 -0.211161 1.101837 -0.999975 -0.006889 -0.001742 0.704590 0.500000 1 1 1.000000
  1 -0.229174 -0.196149 1.027780 -0.999975 -0.006887 -0.001736 0.689453 0.421387 1 1 1.000000
ads_scope_lens_1
  1 -0.208158 -0.353269 1.101837 -0.958761 -0.284214 -0.000312 0.855469 0.500000 1 1 1.000000
  1 -0.229174 -0.211161 1.101837 -0.999975 -0.006889 -0.001742 0.704590 0.500000 1 1 1.000000
  1 -0.208158 -0.346263 1.036787 -0.958798 -0.278542 -0.055857 0.848633 0.430664 1 1 1.000000
ads_scope_lens_1
  1 -0.208158 -0.346263 1.166886 -0.959364 -0.276505 0.056260 0.848633 0.569336 1 1 1.000000
  1 -0.229174 -0.211161 1.101837 -0.999975 -0.006889 -0.001742 0.704590 0.500000 1 1 1.000000
  1 -0.208158 -0.353269 1.101837 -0.958761 -0.284214 -0.000312 0.855469 0.500000 1 1 1.000000
ads_scope_lens_1
  1 -0.208158 -0.346263 1.166886 -0.959364 -0.276505 0.056260 0.848633 0.569336 1 1 1.000000
  1 -0.229174 -0.196149 1.175893 -0.999975 0.006902 -0.001754 0.689453 0.578369 1 1 1.000000
  1 -0.229174 -0.211161 1.101837 -0.999975 -0.006889 -0.001742 0.704590 0.500000 1 1 1.000000
ads_scope_lens_1
  1 -0.208158 -0.327249 1.229934 -0.957991 -0.252338 0.136305 0.828613 0.635986 1 1 1.000000
  1 -0.229174 -0.196149 1.175893 -0.999975 0.006902 -0.001754 0.689453 0.578369 1 1 1.000000
  1 -0.208158 -0.346263 1.166886 -0.959364 -0.276505 0.056260 0.848633 0.569336 1 1 1.000000
ads_scope_lens_1
  1 -0.208158 -0.296225 1.287978 -0.959811 -0.232068 0.157819 0.795898 0.697510 1 1 1.000000
  1 -0.229174 -0.196149 1.175893 -0.999975 0.006902 -0.001754 0.689453 0.578369 1 1 1.000000
  1 -0.208158 -0.327249 1.229934 -0.957991 -0.252338 0.136305 0.828613 0.635986 1 1 1.000000
ads_scope_lens_1
  1 -0.208158 -0.296225 1.287978 -0.959811 -0.232068 0.157819 0.795898 0.697510 1 1 1.000000
  1 -0.229174 -0.154117 1.237940 -0.999976 0.006868 0.001032 0.645020 0.644775 1 1 1.000000
  1 -0.229174 -0.196149 1.175893 -0.999975 0.006902 -0.001754 0.689453 0.578369 1 1 1.000000
ads_scope_lens_1
  1 -0.208158 -0.255194 1.339017 -0.958623 -0.178691 0.221609 0.751465 0.751465 1 1 1.000000
  1 -0.229174 -0.154117 1.237940 -0.999976 0.006868 0.001032 0.645020 0.644775 1 1 1.000000
  1 -0.208158 -0.296225 1.287978 -0.959811 -0.232068 0.157819 0.795898 0.697510 1 1 1.000000
ads_scope_lens_1
  1 -0.208158 -0.204155 1.380048 -0.958053 -0.157992 0.239107 0.697754 0.795776 1 1 1.000000
  1 -0.229174 -0.154117 1.237940 -0.999976 0.006868 0.001032 0.645020 0.644775 1 1 1.000000
  1 -0.208158 -0.255194 1.339017 -0.958623 -0.178691 0.221609 0.751465 0.751465 1 1 1.000000
ads_scope_lens_1
  1 -0.208158 -0.204155 1.380048 -0.958053 -0.157992 0.239107 0.697754 0.795776 1 1 1.000000
  1 -0.229174 -0.092070 1.279972 -0.999998 -0.001347 0.001032 0.578613 0.689209 1 1 1.000000
  1 -0.229174 -0.154117 1.237940 -0.999976 0.006868 0.001032 0.645020 0.644775 1 1 1.000000
ads_scope_lens_1
  1 -0.150114 -0.439334 0.927704 -0.813960 -0.536506 -0.222778 0.947266 0.314941 1 1 1.000000
  1 -0.208158 -0.327249 0.973740 -0.958311 -0.272244 -0.086741 0.828613 0.363770 1 1 1.000000
  1 -0.150114 -0.420320 0.886673 -0.812784 -0.512403 -0.277175 0.926758 0.271973 1 1 1.000000
ads_scope_lens_1
  1 -0.150114 -0.439334 0.927704 -0.813960 -0.536506 -0.222778 0.947266 0.314941 1 1 1.000000
  1 -0.150114 -0.454345 0.969736 -0.812311 -0.557569 -0.171077 0.963379 0.359375 1 1 1.000000
  1 -0.208158 -0.327249 0.973740 -0.958311 -0.272244 -0.086741 0.828613 0.363770 1 1 1.000000
ads_scope_lens_1
  1 -0.150114 -0.454345 0.969736 -0.812311 -0.557569 -0.171077 0.963379 0.359375 1 1 1.000000
  1 -0.208158 -0.346263 1.036787 -0.958798 -0.278542 -0.055857 0.848633 0.430664 1 1 1.000000
  1 -0.208158 -0.327249 0.973740 -0.958311 -0.272244 -0.086741 0.828613 0.363770 1 1 1.000000
ads_scope_lens_1
  1 -0.150114 -0.465354 1.012769 -0.813845 -0.570045 -0.112714 0.974609 0.405762 1 1 1.000000
  1 -0.208158 -0.346263 1.036787 -0.958798 -0.278542 -0.055857 0.848633 0.430664 1 1 1.000000
  1 -0.150114 -0.454345 0.969736 -0.812311 -0.557569 -0.171077 0.963379 0.359375 1 1 1.000000
ads_scope_lens_1
  1 -0.150114 -0.471358 1.056802 -0.812258 -0.580115 -0.060853 0.981934 0.452637 1 1 1.000000
  1 -0.208158 -0.346263 1.036787 -0.958798 -0.278542 -0.055857 0.848633 0.430664 1 1 1.000000
  1 -0.150114 -0.465354 1.012769 -0.813845 -0.570045 -0.112714 0.974609 0.405762 1 1 1.000000
ads_scope_lens_1
  1 -0.150114 -0.471358 1.056802 -0.812258 -0.580115 -0.060853 0.981934 0.452637 1 1 1.000000
  1 -0.208158 -0.353269 1.101837 -0.958761 -0.284214 -0.000312 0.855469 0.500000 1 1 1.000000
  1 -0.208158 -0.346263 1.036787 -0.958798 -0.278542 -0.055857 0.848633 0.430664 1 1 1.000000
ads_scope_lens_1
  1 -0.150114 -0.474360 1.101837 -0.812326 -0.583175 -0.005734 0.983887 0.500000 1 1 1.000000
  1 -0.208158 -0.353269 1.101837 -0.958761 -0.284214 -0.000312 0.855469 0.500000 1 1 1.000000
  1 -0.150114 -0.471358 1.056802 -0.812258 -0.580115 -0.060853 0.981934 0.452637 1 1 1.000000
ads_scope_lens_1
  1 -0.150114 -0.471358 1.146871 -0.814655 -0.577283 0.055508 0.981934 0.547363 1 1 1.000000
  1 -0.208158 -0.353269 1.101837 -0.958761 -0.284214 -0.000312 0.855469 0.500000 1 1 1.000000
  1 -0.150114 -0.474360 1.101837 -0.812326 -0.583175 -0.005734 0.983887 0.500000 1 1 1.000000
ads_scope_lens_1
  1 -0.150114 -0.471358 1.146871 -0.814655 -0.577283 0.055508 0.981934 0.547363 1 1 1.000000
  1 -0.208158 -0.346263 1.166886 -0.959364 -0.276505 0.056260 0.848633 0.569336 1 1 1.000000
  1 -0.208158 -0.353269 1.101837 -0.958761 -0.284214 -0.000312 0.855469 0.500000 1 1 1.000000
ads_scope_lens_1
  1 -0.150114 -0.465354 1.190904 -0.813563 -0.570499 0.112455 0.974609 0.594482 1 1 1.000000
  1 -0.208158 -0.346263 1.166886 -0.959364 -0.276505 0.056260 0.848633 0.569336 1 1 1.000000
  1 -0.150114 -0.471358 1.146871 -0.814655 -0.577283 0.055508 0.981934 0.547363 1 1 1.000000
ads_scope_lens_1
  1 -0.150114 -0.454345 1.233937 -0.812085 -0.557992 0.170772 0.963379 0.640625 1 1 1.000000
  1 -0.208158 -0.346263 1.166886 -0.959364 -0.276505 0.056260 0.848633 0.569336 1 1 1.000000
  1 -0.150114 -0.465354 1.190904 -0.813563 -0.570499 0.112455 0.974609 0.594482 1 1 1.000000
ads_scope_lens_1
  1 -0.150114 -0.454345 1.233937 -0.812085 -0.557992 0.170772 0.963379 0.640625 1 1 1.000000
  1 -0.208158 -0.327249 1.229934 -0.957991 -0.252338 0.136305 0.828613 0.635986 1 1 1.000000
  1 -0.208158 -0.346263 1.166886 -0.959364 -0.276505 0.056260 0.848633 0.569336 1 1 1.000000
ads_scope_lens_1
  1 -0.150114 -0.439334 1.275969 -0.814831 -0.535321 0.222446 0.947266 0.685303 1 1 1.000000
  1 -0.208158 -0.327249 1.229934 -0.957991 -0.252338 0.136305 0.828613 0.635986 1 1 1.000000
  1 -0.150114 -0.454345 1.233937 -0.812085 -0.557992 0.170772 0.963379 0.640625 1 1 1.000000
ads_scope_lens_1
  1 -0.150114 -0.420320 1.317000 -0.813659 -0.511215 0.276801 0.926758 0.728271 1 1 1.000000
  1 -0.208158 -0.327249 1.229934 -0.957991 -0.252338 0.136305 0.828613 0.635986 1 1 1.000000
  1 -0.150114 -0.439334 1.275969 -0.814831 -0.535321 0.222446 0.947266 0.685303 1 1 1.000000
ads_scope_lens_1
  1 -0.150114 -0.420320 1.317000 -0.813659 -0.511215 0.276801 0.926758 0.728271 1 1 1.000000
  1 -0.208158 -0.296225 1.287978 -0.959811 -0.232068 0.157819 0.795898 0.697510 1 1 1.000000
  1 -0.208158 -0.327249 1.229934 -0.957991 -0.252338 0.136305 0.828613 0.635986 1 1 1.000000
ads_scope_lens_1
  1 -0.150114 -0.397302 1.355029 -0.814239 -0.481212 0.324730 0.902344 0.768921 1 1 1.000000
  1 -0.208158 -0.296225 1.287978 -0.959811 -0.232068 0.157819 0.795898 0.697510 1 1 1.000000
  1 -0.150114 -0.420320 1.317000 -0.813659 -0.511215 0.276801 0.926758 0.728271 1 1 1.000000
ads_scope_lens_1
  1 -0.150114 -0.370282 1.391056 -0.812477 -0.449824 0.370862 0.874023 0.807129 1 1 1.000000
  1 -0.208158 -0.296225 1.287978 -0.959811 -0.232068 0.157819 0.795898 0.697510 1 1 1.000000
  1 -0.150114 -0.397302 1.355029 -0.814239 -0.481212 0.324730 0.902344 0.768921 1 1 1.000000
ads_scope_lens_1
  1 -0.150114 -0.370282 1.391056 -0.812477 -0.449824 0.370862 0.874023 0.807129 1 1 1.000000
  1 -0.208158 -0.255194 1.339017 -0.958623 -0.178691 0.221609 0.751465 0.751465 1 1 1.000000
  1 -0.208158 -0.296225 1.287978 -0.959811 -0.232068 0.157819 0.795898 0.697510 1 1 1.000000
ads_scope_lens_1
  1 -0.229174 -0.018014 1.101837 -0.999975 0.006878 -0.001741 0.500000 0.500000 1 1 1.000000
  1 -0.229174 -0.154117 0.965733 -0.999976 -0.006893 0.001007 0.645020 0.354980 1 1 1.000000
  1 -0.229174 -0.196149 1.027780 -0.999975 -0.006887 -0.001736 0.689453 0.421387 1 1 1.000000
ads_scope_lens_1
  1 -0.229174 -0.211161 1.101837 -0.999975 -0.006889 -0.001742 0.704590 0.500000 1 1 1.000000
  1 -0.229174 -0.018014 1.101837 -0.999975 0.006878 -0.001741 0.500000 0.500000 1 1 1.000000
  1 -0.229174 -0.196149 1.027780 -0.999975 -0.006887 -0.001736 0.689453 0.421387 1 1 1.000000
ads_scope_lens_1
  1 -0.229174 -0.211161 1.101837 -0.999975 -0.006889 -0.001742 0.704590 0.500000 1 1 1.000000
  1 -0.229174 -0.196149 1.175893 -0.999975 0.006902 -0.001754 0.689453 0.578369 1 1 1.000000
  1 -0.229174 -0.018014 1.101837 -0.999975 0.006878 -0.001741 0.500000 0.500000 1 1 1.000000
ads_scope_lens_1
  1 -0.229174 -0.196149 1.175893 -0.999975 0.006902 -0.001754 0.689453 0.578369 1 1 1.000000
  1 -0.229174 -0.154117 1.237940 -0.999976 0.006868 0.001032 0.645020 0.644775 1 1 1.000000
  1 -0.229174 -0.018014 1.101837 -0.999975 0.006878 -0.001741 0.500000 0.500000 1 1 1.000000
ads_scope_lens_1
  1 -0.229174 -0.154117 1.237940 -0.999976 0.006868 0.001032 0.645020 0.644775 1 1 1.000000
  1 -0.229174 -0.092070 1.279972 -0.999998 -0.001347 0.001032 0.578613 0.689209 1 1 1.000000
  1 -0.229174 -0.018014 1.101837 -0.999975 0.006878 -0.001741 0.500000 0.500000 1 1 1.000000
ads_scope_lens_1
  1 -0.229174 -0.092070 1.279972 -0.999998 -0.001347 0.001032 0.578613 0.689209 1 1 1.000000
  1 -0.229174 -0.018014 1.294984 -0.999975 -0.006890 -0.001744 0.500000 0.704834 1 1 1.000000
  1 -0.229174 -0.018014 1.101837 -0.999975 0.006878 -0.001741 0.500000 0.500000 1 1 1.000000
ads_scope_lens_1
  1 -0.229174 -0.018014 1.294984 -0.999975 -0.006890 -0.001744 0.500000 0.704834 1 1 1.000000
  1 -0.229174 0.056043 1.279972 -0.999999 0.001345 0.001026 0.421631 0.689209 1 1 1.000000
  1 -0.229174 -0.018014 1.101837 -0.999975 0.006878 -0.001741 0.500000 0.500000 1 1 1.000000
ads_scope_lens_1
  1 -0.229174 0.056043 1.279972 -0.999999 0.001345 0.001026 0.421631 0.689209 1 1 1.000000
  1 -0.229174 0.119090 1.237940 -0.999976 -0.006887 0.001008 0.355225 0.644775 1 1 1.000000
  1 -0.229174 -0.018014 1.101837 -0.999975 0.006878 -0.001741 0.500000 0.500000 1 1 1.000000
ads_scope_lens_1
  1 -0.229174 0.119090 1.237940 -0.999976 -0.006887 0.001008 0.355225 0.644775 1 1 1.000000
  1 -0.229174 0.160121 1.175893 -0.999975 -0.006887 -0.001734 0.310791 0.578369 1 1 1.000000
  1 -0.229174 -0.018014 1.101837 -0.999975 0.006878 -0.001741 0.500000 0.500000 1 1 1.000000
ads_scope_lens_1
  1 -0.229174 0.160121 1.175893 -0.999975 -0.006887 -0.001734 0.310791 0.578369 1 1 1.000000
  1 -0.229174 0.175133 1.101837 -0.999975 0.006896 -0.001745 0.295166 0.500000 1 1 1.000000
  1 -0.229174 -0.018014 1.101837 -0.999975 0.006878 -0.001741 0.500000 0.500000 1 1 1.000000
ads_scope_lens_1
  1 -0.229174 0.175133 1.101837 -0.999975 0.006896 -0.001745 0.295166 0.500000 1 1 1.000000
  1 -0.229174 0.160121 1.027780 -0.999975 0.006894 -0.001743 0.310791 0.421387 1 1 1.000000
  1 -0.229174 -0.018014 1.101837 -0.999975 0.006878 -0.001741 0.500000 0.500000 1 1 1.000000
ads_scope_lens_1
  1 -0.229174 0.160121 1.027780 -0.999975 0.006894 -0.001743 0.310791 0.421387 1 1 1.000000
  1 -0.229174 0.119090 0.965733 -0.999976 0.006876 0.001033 0.355225 0.354980 1 1 1.000000
  1 -0.229174 -0.018014 1.101837 -0.999975 0.006878 -0.001741 0.500000 0.500000 1 1 1.000000
ads_scope_lens_1
  1 -0.229174 0.119090 0.965733 -0.999976 0.006876 0.001033 0.355225 0.354980 1 1 1.000000
  1 -0.229174 0.056043 0.923701 -0.999999 -0.001351 0.001017 0.421631 0.310547 1 1 1.000000
  1 -0.229174 -0.018014 1.101837 -0.999975 0.006878 -0.001741 0.500000 0.500000 1 1 1.000000
ads_scope_lens_1
  1 -0.229174 0.056043 0.923701 -0.999999 -0.001351 0.001017 0.421631 0.310547 1 1 1.000000
  1 -0.229174 -0.018014 0.908690 -0.999975 0.006888 -0.001742 0.500000 0.295410 1 1 1.000000
  1 -0.229174 -0.018014 1.101837 -0.999975 0.006878 -0.001741 0.500000 0.500000 1 1 1.000000
ads_scope_lens_1
  1 -0.229174 -0.018014 0.908690 -0.999975 0.006888 -0.001742 0.500000 0.295410 1 1 1.000000
  1 -0.229174 -0.092070 0.923701 -0.999999 0.001339 0.001010 0.578613 0.310547 1 1 1.000000
  1 -0.229174 -0.018014 1.101837 -0.999975 0.006878 -0.001741 0.500000 0.500000 1 1 1.000000
ads_scope_lens_1
  1 -0.229174 -0.092070 0.923701 -0.999999 0.001339 0.001010 0.578613 0.310547 1 1 1.000000
  1 -0.229174 -0.154117 0.965733 -0.999976 -0.006893 0.001007 0.645020 0.354980 1 1 1.000000
  1 -0.229174 -0.018014 1.101837 -0.999975 0.006878 -0.001741 0.500000 0.500000 1 1 1.000000
end
