// Created by Crowbar 0.74
version 1
nodes
  0 "tag_scope" -1
  1 "j_scope_lens_cover" 0
  2 "tag_reticle_attach" 0
  3 "tag_lense_hide" 0
  4 "tag_lense" 0
end
skeleton
  time 0
    0 0.000000 0.000000 0.000000 0.000000 0.000000 0.000000
    1 -3.422000 -0.771000 1.701000 1.048561 0.000000 0.000000
    2 -3.191000 0.001000 1.248000 0.000000 0.000000 0.000000
    3 -3.191000 0.001000 1.248000 0.000000 0.000000 0.000000
    4 -3.191000 0.001000 1.248000 0.000000 0.000000 0.000000
end
triangles
attachment_vm_scope_vz_lens
  3 -3.062000 0.675000 1.266000 -0.973795 0.227317 0.007131 0.000000 0.513428 1 3 1.000000
  3 -3.144000 0.330000 1.257000 -0.982616 0.185546 0.006213 0.255859 0.506592 1 3 1.000000
  3 -3.062000 0.669000 1.338999 -0.973890 0.224678 0.032513 0.004398 0.567627 1 3 1.000000
attachment_vm_scope_vz_lens
  3 -3.062000 0.673000 1.192999 -0.973654 0.227227 -0.019114 0.001470 0.459473 1 3 1.000000
  3 -3.144000 0.330000 1.257000 -0.982616 0.185546 0.006213 0.255859 0.506592 1 3 1.000000
  3 -3.062000 0.675000 1.266000 -0.973795 0.227317 0.007131 0.000000 0.513428 1 3 1.000000
attachment_vm_scope_vz_lens
  3 -3.144000 0.329000 1.221000 -0.983029 0.183012 -0.012652 0.256592 0.479980 1 3 1.000000
  3 -3.144000 0.330000 1.257000 -0.982616 0.185546 0.006213 0.255859 0.506592 1 3 1.000000
  3 -3.062000 0.673000 1.192999 -0.973654 0.227227 -0.019114 0.001470 0.459473 1 3 1.000000
attachment_vm_scope_vz_lens
  3 -3.062000 0.663000 1.121000 -0.973532 0.224313 -0.043804 0.008781 0.405762 1 3 1.000000
  3 -3.144000 0.329000 1.221000 -0.983029 0.183012 -0.012652 0.256592 0.479980 1 3 1.000000
  3 -3.062000 0.673000 1.192999 -0.973654 0.227227 -0.019114 0.001470 0.459473 1 3 1.000000
attachment_vm_scope_vz_lens
  3 -3.144000 0.193000 0.979999 -0.983002 0.105233 -0.150440 0.357422 0.301758 1 3 1.000000
  3 -3.144000 0.221000 1.001999 -0.982086 0.124112 -0.141785 0.336914 0.318359 1 3 1.000000
  3 -3.062000 0.394000 0.700000 -0.972941 0.132275 -0.189446 0.208252 0.093750 1 3 1.000000
attachment_vm_scope_vz_lens
  3 -3.062000 0.394000 0.700000 -0.972941 0.132275 -0.189446 0.208252 0.093750 1 3 1.000000
  3 -3.144000 0.221000 1.001999 -0.982086 0.124112 -0.141785 0.336914 0.318359 1 3 1.000000
  3 -3.062000 0.450999 0.746000 -0.973509 0.151915 -0.170886 0.166016 0.127930 1 3 1.000000
attachment_vm_scope_vz_lens
  3 -3.062000 0.450999 0.746000 -0.973509 0.151915 -0.170886 0.166016 0.127930 1 3 1.000000
  3 -3.144000 0.221000 1.001999 -0.982086 0.124112 -0.141785 0.336914 0.318359 1 3 1.000000
  3 -3.062000 0.502999 0.797000 -0.974283 0.166589 -0.151726 0.127686 0.166016 1 3 1.000000
attachment_vm_scope_vz_lens
  3 -3.144000 0.221000 1.001999 -0.982086 0.124112 -0.141785 0.336914 0.318359 1 3 1.000000
  3 -3.144000 0.246000 1.028000 -0.982120 0.137953 -0.128094 0.318115 0.336914 1 3 1.000000
  3 -3.062000 0.502999 0.797000 -0.974283 0.166589 -0.151726 0.127686 0.166016 1 3 1.000000
attachment_vm_scope_vz_lens
  3 -3.144000 0.246000 1.028000 -0.982120 0.137953 -0.128094 0.318115 0.336914 1 3 1.000000
  3 -3.144000 0.268000 1.055000 -0.982094 0.151917 -0.111409 0.301514 0.357422 1 3 1.000000
  3 -3.062000 0.502999 0.797000 -0.974283 0.166589 -0.151726 0.127686 0.166016 1 3 1.000000
attachment_vm_scope_vz_lens
  3 -3.158000 0.001000 1.248000 -0.999974 -0.006947 -0.001758 0.500000 0.500000 1 3 1.000000
  3 -3.144000 0.268000 1.055000 -0.982094 0.151917 -0.111409 0.301514 0.357422 1 3 1.000000
  3 -3.144000 0.246000 1.028000 -0.982120 0.137953 -0.128094 0.318115 0.336914 1 3 1.000000
attachment_vm_scope_vz_lens
  3 -3.158000 0.001000 1.248000 -0.999974 -0.006947 -0.001758 0.500000 0.500000 1 3 1.000000
  3 -3.144000 0.288000 1.086000 -0.982686 0.160537 -0.092501 0.287354 0.379883 1 3 1.000000
  3 -3.144000 0.268000 1.055000 -0.982094 0.151917 -0.111409 0.301514 0.357422 1 3 1.000000
attachment_vm_scope_vz_lens
  3 -3.144000 0.304000 1.117000 -0.982892 0.169088 -0.073029 0.275635 0.403320 1 3 1.000000
  3 -3.144000 0.288000 1.086000 -0.982686 0.160537 -0.092501 0.287354 0.379883 1 3 1.000000
  3 -3.158000 0.001000 1.248000 -0.999974 -0.006947 -0.001758 0.500000 0.500000 1 3 1.000000
attachment_vm_scope_vz_lens
  3 -3.144000 0.288000 1.086000 -0.982686 0.160537 -0.092501 0.287354 0.379883 1 3 1.000000
  3 -3.144000 0.304000 1.117000 -0.982892 0.169088 -0.073029 0.275635 0.403320 1 3 1.000000
  3 -3.062000 0.588000 0.916000 -0.973155 0.199241 -0.115208 0.064575 0.253906 1 3 1.000000
attachment_vm_scope_vz_lens
  3 -3.062000 0.588000 0.916000 -0.973155 0.199241 -0.115208 0.064575 0.253906 1 3 1.000000
  3 -3.144000 0.304000 1.117000 -0.982892 0.169088 -0.073029 0.275635 0.403320 1 3 1.000000
  3 -3.062000 0.620000 0.981000 -0.973406 0.210023 -0.091491 0.040527 0.302246 1 3 1.000000
attachment_vm_scope_vz_lens
  3 -3.144000 0.304000 1.117000 -0.982892 0.169088 -0.073029 0.275635 0.403320 1 3 1.000000
  3 -3.062000 0.646000 1.050000 -0.974583 0.213983 -0.066327 0.021851 0.353027 1 3 1.000000
  3 -3.062000 0.620000 0.981000 -0.973406 0.210023 -0.091491 0.040527 0.302246 1 3 1.000000
attachment_vm_scope_vz_lens
  3 -3.144000 0.304000 1.117000 -0.982892 0.169088 -0.073029 0.275635 0.403320 1 3 1.000000
  3 -3.144000 0.316000 1.150999 -0.983264 0.174877 -0.051087 0.266357 0.428223 1 3 1.000000
  3 -3.062000 0.646000 1.050000 -0.974583 0.213983 -0.066327 0.021851 0.353027 1 3 1.000000
attachment_vm_scope_vz_lens
  3 -3.062000 0.646000 1.050000 -0.974583 0.213983 -0.066327 0.021851 0.353027 1 3 1.000000
  3 -3.144000 0.316000 1.150999 -0.983264 0.174877 -0.051087 0.266357 0.428223 1 3 1.000000
  3 -3.062000 0.663000 1.121000 -0.973532 0.224313 -0.043804 0.008781 0.405762 1 3 1.000000
attachment_vm_scope_vz_lens
  3 -3.144000 0.316000 1.150999 -0.983264 0.174877 -0.051087 0.266357 0.428223 1 3 1.000000
  3 -3.144000 0.324000 1.186000 -0.982569 0.182682 -0.034420 0.260010 0.454102 1 3 1.000000
  3 -3.062000 0.663000 1.121000 -0.973532 0.224313 -0.043804 0.008781 0.405762 1 3 1.000000
attachment_vm_scope_vz_lens
  3 -3.144000 0.324000 1.186000 -0.982569 0.182682 -0.034420 0.260010 0.454102 1 3 1.000000
  3 -3.144000 0.329000 1.221000 -0.983029 0.183012 -0.012652 0.256592 0.479980 1 3 1.000000
  3 -3.062000 0.663000 1.121000 -0.973532 0.224313 -0.043804 0.008781 0.405762 1 3 1.000000
attachment_vm_scope_vz_lens
  3 -3.158000 0.001000 1.248000 -0.999974 -0.006947 -0.001758 0.500000 0.500000 1 3 1.000000
  3 -3.144000 0.329000 1.221000 -0.983029 0.183012 -0.012652 0.256592 0.479980 1 3 1.000000
  3 -3.144000 0.324000 1.186000 -0.982569 0.182682 -0.034420 0.260010 0.454102 1 3 1.000000
attachment_vm_scope_vz_lens
  3 -3.158000 0.001000 1.248000 -0.999974 -0.006947 -0.001758 0.500000 0.500000 1 3 1.000000
  3 -3.144000 0.330000 1.257000 -0.982616 0.185546 0.006213 0.255859 0.506592 1 3 1.000000
  3 -3.144000 0.329000 1.221000 -0.983029 0.183012 -0.012652 0.256592 0.479980 1 3 1.000000
attachment_vm_scope_vz_lens
  3 -3.158000 0.001000 1.248000 -0.999974 -0.006947 -0.001758 0.500000 0.500000 1 3 1.000000
  3 -3.144000 0.326999 1.292000 -0.982809 0.182846 0.025583 0.257813 0.532959 1 3 1.000000
  3 -3.144000 0.330000 1.257000 -0.982616 0.185546 0.006213 0.255859 0.506592 1 3 1.000000
attachment_vm_scope_vz_lens
  3 -3.158000 0.001000 1.248000 -0.999974 -0.006947 -0.001758 0.500000 0.500000 1 3 1.000000
  3 -3.144000 0.221000 1.001999 -0.982086 0.124112 -0.141785 0.336914 0.318359 1 3 1.000000
  3 -3.144000 0.193000 0.979999 -0.983002 0.105233 -0.150440 0.357422 0.301758 1 3 1.000000
attachment_vm_scope_vz_lens
  3 -3.158000 0.001000 1.248000 -0.999974 -0.006947 -0.001758 0.500000 0.500000 1 3 1.000000
  3 -3.144000 0.246000 1.028000 -0.982120 0.137953 -0.128094 0.318115 0.336914 1 3 1.000000
  3 -3.144000 0.221000 1.001999 -0.982086 0.124112 -0.141785 0.336914 0.318359 1 3 1.000000
attachment_vm_scope_vz_lens
  3 -3.158000 0.001000 1.248000 -0.999974 -0.006947 -0.001758 0.500000 0.500000 1 3 1.000000
  3 -3.144000 0.316000 1.150999 -0.983264 0.174877 -0.051087 0.266357 0.428223 1 3 1.000000
  3 -3.144000 0.304000 1.117000 -0.982892 0.169088 -0.073029 0.275635 0.403320 1 3 1.000000
attachment_vm_scope_vz_lens
  3 -3.158000 0.001000 1.248000 -0.999974 -0.006947 -0.001758 0.500000 0.500000 1 3 1.000000
  3 -3.144000 0.324000 1.186000 -0.982569 0.182682 -0.034420 0.260010 0.454102 1 3 1.000000
  3 -3.144000 0.316000 1.150999 -0.983264 0.174877 -0.051087 0.266357 0.428223 1 3 1.000000
attachment_vm_scope_vz_lens
  3 -3.062000 0.502999 0.797000 -0.974283 0.166589 -0.151726 0.127686 0.166016 1 3 1.000000
  3 -3.144000 0.268000 1.055000 -0.982094 0.151917 -0.111409 0.301514 0.357422 1 3 1.000000
  3 -3.062000 0.549000 0.854000 -0.974147 0.182499 -0.133160 0.093750 0.208008 1 3 1.000000
attachment_vm_scope_vz_lens
  3 -3.062000 0.549000 0.854000 -0.974147 0.182499 -0.133160 0.093750 0.208008 1 3 1.000000
  3 -3.144000 0.268000 1.055000 -0.982094 0.151917 -0.111409 0.301514 0.357422 1 3 1.000000
  3 -3.062000 0.588000 0.916000 -0.973155 0.199241 -0.115208 0.064575 0.253906 1 3 1.000000
attachment_vm_scope_vz_lens
  3 -3.144000 0.268000 1.055000 -0.982094 0.151917 -0.111409 0.301514 0.357422 1 3 1.000000
  3 -3.144000 0.288000 1.086000 -0.982686 0.160537 -0.092501 0.287354 0.379883 1 3 1.000000
  3 -3.062000 0.588000 0.916000 -0.973155 0.199241 -0.115208 0.064575 0.253906 1 3 1.000000
attachment_vm_scope_vz_lens
  3 -3.158000 0.001000 1.248000 -0.999974 -0.006947 -0.001758 0.500000 0.500000 1 3 1.000000
  3 -3.144000 0.321000 1.326999 -0.982643 0.180025 0.044767 0.262939 0.559082 1 3 1.000000
  3 -3.144000 0.326999 1.292000 -0.982809 0.182846 0.025583 0.257813 0.532959 1 3 1.000000
attachment_vm_scope_vz_lens
  3 -3.158000 0.001000 1.248000 -0.999974 -0.006947 -0.001758 0.500000 0.500000 1 3 1.000000
  3 -3.144000 0.309999 1.361000 -0.982585 0.174356 0.064240 0.270752 0.584229 1 3 1.000000
  3 -3.144000 0.321000 1.326999 -0.982643 0.180025 0.044767 0.262939 0.559082 1 3 1.000000
attachment_vm_scope_vz_lens
  3 -3.158000 0.001000 1.248000 -0.999974 -0.006947 -0.001758 0.500000 0.500000 1 3 1.000000
  3 -3.144000 -0.191001 1.515000 -0.981814 -0.109519 0.155071 0.642578 0.698486 1 3 1.000000
  3 -3.144000 -0.161001 1.534000 -0.982190 -0.088554 0.165712 0.620117 0.712646 1 3 1.000000
attachment_vm_scope_vz_lens
  3 -3.158000 0.001000 1.248000 -0.999974 -0.006947 -0.001758 0.500000 0.500000 1 3 1.000000
  3 -3.144000 -0.205000 0.991000 -0.981973 -0.115616 -0.149538 0.652832 0.309570 1 3 1.000000
  3 -3.144000 -0.232000 1.015000 -0.981905 -0.131520 -0.136257 0.672852 0.327148 1 3 1.000000
attachment_vm_scope_vz_lens
  3 -3.158000 0.001000 1.248000 -0.999974 -0.006947 -0.001758 0.500000 0.500000 1 3 1.000000
  3 -3.144000 -0.232000 1.015000 -0.981905 -0.131520 -0.136257 0.672852 0.327148 1 3 1.000000
  3 -3.144000 -0.256000 1.041000 -0.982708 -0.143245 -0.117330 0.690430 0.347168 1 3 1.000000
attachment_vm_scope_vz_lens
  3 -3.158000 0.001000 1.248000 -0.999974 -0.006947 -0.001758 0.500000 0.500000 1 3 1.000000
  3 -3.144000 0.063000 0.924000 -0.982722 0.028891 -0.182819 0.453857 0.260254 1 3 1.000000
  3 -3.144000 0.028000 0.919000 -0.982095 0.012090 -0.187996 0.480225 0.256348 1 3 1.000000
attachment_vm_scope_vz_lens
  3 -3.158000 0.001000 1.248000 -0.999974 -0.006947 -0.001758 0.500000 0.500000 1 3 1.000000
  3 -3.144000 0.098000 0.932999 -0.982823 0.050474 -0.177516 0.428223 0.266602 1 3 1.000000
  3 -3.144000 0.063000 0.924000 -0.982722 0.028891 -0.182819 0.453857 0.260254 1 3 1.000000
attachment_vm_scope_vz_lens
  3 -3.158000 0.001000 1.248000 -0.999974 -0.006947 -0.001758 0.500000 0.500000 1 3 1.000000
  3 -3.144000 0.234000 1.480999 -0.982871 0.127116 0.133438 0.327148 0.672852 1 3 1.000000
  3 -3.144000 0.258000 1.454000 -0.982404 0.144004 0.118931 0.309570 0.653076 1 3 1.000000
attachment_vm_scope_vz_lens
  3 -3.158000 0.001000 1.248000 -0.999974 -0.006947 -0.001758 0.500000 0.500000 1 3 1.000000
  3 -3.144000 0.207000 1.504000 -0.982277 0.113183 0.149405 0.346924 0.690430 1 3 1.000000
  3 -3.144000 0.234000 1.480999 -0.982871 0.127116 0.133438 0.327148 0.672852 1 3 1.000000
attachment_vm_scope_vz_lens
  3 -3.144000 0.330000 1.257000 -0.982616 0.185546 0.006213 0.255859 0.506592 1 3 1.000000
  3 -3.144000 0.326999 1.292000 -0.982809 0.182846 0.025583 0.257813 0.532959 1 3 1.000000
  3 -3.062000 0.669000 1.338999 -0.973890 0.224678 0.032513 0.004398 0.567627 1 3 1.000000
attachment_vm_scope_vz_lens
  3 -3.144000 0.326999 1.292000 -0.982809 0.182846 0.025583 0.257813 0.532959 1 3 1.000000
  3 -3.144000 0.321000 1.326999 -0.982643 0.180025 0.044767 0.262939 0.559082 1 3 1.000000
  3 -3.062000 0.669000 1.338999 -0.973890 0.224678 0.032513 0.004398 0.567627 1 3 1.000000
attachment_vm_scope_vz_lens
  3 -3.062000 0.669000 1.338999 -0.973890 0.224678 0.032513 0.004398 0.567627 1 3 1.000000
  3 -3.144000 0.321000 1.326999 -0.982643 0.180025 0.044767 0.262939 0.559082 1 3 1.000000
  3 -3.062000 0.655000 1.410000 -0.973586 0.221683 0.054650 0.014603 0.620605 1 3 1.000000
attachment_vm_scope_vz_lens
  3 -3.062000 0.655000 1.410000 -0.973586 0.221683 0.054650 0.014603 0.620605 1 3 1.000000
  3 -3.144000 0.321000 1.326999 -0.982643 0.180025 0.044767 0.262939 0.559082 1 3 1.000000
  3 -3.062000 0.634000 1.480000 -0.973749 0.213334 0.079385 0.030502 0.672607 1 3 1.000000
attachment_vm_scope_vz_lens
  3 -3.144000 0.321000 1.326999 -0.982643 0.180025 0.044767 0.262939 0.559082 1 3 1.000000
  3 -3.144000 0.309999 1.361000 -0.982585 0.174356 0.064240 0.270752 0.584229 1 3 1.000000
  3 -3.062000 0.634000 1.480000 -0.973749 0.213334 0.079385 0.030502 0.672607 1 3 1.000000
attachment_vm_scope_vz_lens
  3 -3.144000 0.309999 1.361000 -0.982585 0.174356 0.064240 0.270752 0.584229 1 3 1.000000
  3 -3.144000 0.296000 1.393999 -0.982982 0.163629 0.083494 0.281250 0.608643 1 3 1.000000
  3 -3.062000 0.634000 1.480000 -0.973749 0.213334 0.079385 0.030502 0.672607 1 3 1.000000
attachment_vm_scope_vz_lens
  3 -3.158000 0.001000 1.248000 -0.999974 -0.006947 -0.001758 0.500000 0.500000 1 3 1.000000
  3 -3.144000 0.296000 1.393999 -0.982982 0.163629 0.083494 0.281250 0.608643 1 3 1.000000
  3 -3.144000 0.309999 1.361000 -0.982585 0.174356 0.064240 0.270752 0.584229 1 3 1.000000
attachment_vm_scope_vz_lens
  3 -3.158000 0.001000 1.248000 -0.999974 -0.006947 -0.001758 0.500000 0.500000 1 3 1.000000
  3 -3.144000 0.279000 1.425000 -0.982564 0.154829 0.102935 0.294189 0.631592 1 3 1.000000
  3 -3.144000 0.296000 1.393999 -0.982982 0.163629 0.083494 0.281250 0.608643 1 3 1.000000
attachment_vm_scope_vz_lens
  3 -3.158000 0.001000 1.248000 -0.999974 -0.006947 -0.001758 0.500000 0.500000 1 3 1.000000
  3 -3.144000 0.258000 1.454000 -0.982404 0.144004 0.118931 0.309570 0.653076 1 3 1.000000
  3 -3.144000 0.279000 1.425000 -0.982564 0.154829 0.102935 0.294189 0.631592 1 3 1.000000
attachment_vm_scope_vz_lens
  3 -3.144000 0.279000 1.425000 -0.982564 0.154829 0.102935 0.294189 0.631592 1 3 1.000000
  3 -3.144000 0.258000 1.454000 -0.982404 0.144004 0.118931 0.309570 0.653076 1 3 1.000000
  3 -3.062000 0.569000 1.611000 -0.974234 0.188541 0.123772 0.078552 0.769409 1 3 1.000000
attachment_vm_scope_vz_lens
  3 -3.062000 0.569000 1.611000 -0.974234 0.188541 0.123772 0.078552 0.769409 1 3 1.000000
  3 -3.144000 0.258000 1.454000 -0.982404 0.144004 0.118931 0.309570 0.653076 1 3 1.000000
  3 -3.062000 0.527000 1.670000 -0.974221 0.174569 0.142895 0.110168 0.813354 1 3 1.000000
attachment_vm_scope_vz_lens
  3 -3.144000 0.258000 1.454000 -0.982404 0.144004 0.118931 0.309570 0.653076 1 3 1.000000
  3 -3.144000 0.234000 1.480999 -0.982871 0.127116 0.133438 0.327148 0.672852 1 3 1.000000
  3 -3.062000 0.527000 1.670000 -0.974221 0.174569 0.142895 0.110168 0.813354 1 3 1.000000
attachment_vm_scope_vz_lens
  3 -3.062000 0.527000 1.670000 -0.974221 0.174569 0.142895 0.110168 0.813354 1 3 1.000000
  3 -3.144000 0.234000 1.480999 -0.982871 0.127116 0.133438 0.327148 0.672852 1 3 1.000000
  3 -3.062000 0.478000 1.725000 -0.973724 0.160405 0.161655 0.146362 0.853638 1 3 1.000000
attachment_vm_scope_vz_lens
  3 -3.062000 0.478000 1.725000 -0.973724 0.160405 0.161655 0.146362 0.853638 1 3 1.000000
  3 -3.144000 0.234000 1.480999 -0.982871 0.127116 0.133438 0.327148 0.672852 1 3 1.000000
  3 -3.062000 0.423000 1.772999 -0.973084 0.142083 0.181440 0.186646 0.889832 1 3 1.000000
attachment_vm_scope_vz_lens
  3 -3.144000 0.234000 1.480999 -0.982871 0.127116 0.133438 0.327148 0.672852 1 3 1.000000
  3 -3.144000 0.207000 1.504000 -0.982277 0.113183 0.149405 0.346924 0.690430 1 3 1.000000
  3 -3.062000 0.423000 1.772999 -0.973084 0.142083 0.181440 0.186646 0.889832 1 3 1.000000
attachment_vm_scope_vz_lens
  3 -3.144000 0.207000 1.504000 -0.982277 0.113183 0.149405 0.346924 0.690430 1 3 1.000000
  3 -3.144000 0.178000 1.524999 -0.982701 0.097501 0.157456 0.368408 0.705811 1 3 1.000000
  3 -3.062000 0.423000 1.772999 -0.973084 0.142083 0.181440 0.186646 0.889832 1 3 1.000000
attachment_vm_scope_vz_lens
  3 -3.158000 0.001000 1.248000 -0.999974 -0.006947 -0.001758 0.500000 0.500000 1 3 1.000000
  3 -3.144000 0.178000 1.524999 -0.982701 0.097501 0.157456 0.368408 0.705811 1 3 1.000000
  3 -3.144000 0.207000 1.504000 -0.982277 0.113183 0.149405 0.346924 0.690430 1 3 1.000000
attachment_vm_scope_vz_lens
  3 -3.158000 0.001000 1.248000 -0.999974 -0.006947 -0.001758 0.500000 0.500000 1 3 1.000000
  3 -3.144000 0.147000 1.543000 -0.981793 0.082831 0.170943 0.391357 0.718750 1 3 1.000000
  3 -3.144000 0.178000 1.524999 -0.982701 0.097501 0.157456 0.368408 0.705811 1 3 1.000000
attachment_vm_scope_vz_lens
  3 -3.062000 0.634000 1.480000 -0.973749 0.213334 0.079385 0.030502 0.672607 1 3 1.000000
  3 -3.144000 0.296000 1.393999 -0.982982 0.163629 0.083494 0.281250 0.608643 1 3 1.000000
  3 -3.062000 0.605000 1.547000 -0.974049 0.202322 0.101462 0.051910 0.722168 1 3 1.000000
attachment_vm_scope_vz_lens
  3 -3.144000 0.296000 1.393999 -0.982982 0.163629 0.083494 0.281250 0.608643 1 3 1.000000
  3 -3.144000 0.279000 1.425000 -0.982564 0.154829 0.102935 0.294189 0.631592 1 3 1.000000
  3 -3.062000 0.605000 1.547000 -0.974049 0.202322 0.101462 0.051910 0.722168 1 3 1.000000
attachment_vm_scope_vz_lens
  3 -3.062000 0.605000 1.547000 -0.974049 0.202322 0.101462 0.051910 0.722168 1 3 1.000000
  3 -3.144000 0.279000 1.425000 -0.982564 0.154829 0.102935 0.294189 0.631592 1 3 1.000000
  3 -3.062000 0.569000 1.611000 -0.974234 0.188541 0.123772 0.078552 0.769409 1 3 1.000000
attachment_vm_scope_vz_lens
  3 -3.062000 0.423000 1.772999 -0.973084 0.142083 0.181440 0.186646 0.889832 1 3 1.000000
  3 -3.144000 0.178000 1.524999 -0.982701 0.097501 0.157456 0.368408 0.705811 1 3 1.000000
  3 -3.062000 0.364000 1.816000 -0.973654 0.119319 0.194320 0.230591 0.921448 1 3 1.000000
attachment_vm_scope_vz_lens
  3 -3.144000 0.178000 1.524999 -0.982701 0.097501 0.157456 0.368408 0.705811 1 3 1.000000
  3 -3.144000 0.147000 1.543000 -0.981793 0.082831 0.170943 0.391357 0.718750 1 3 1.000000
  3 -3.062000 0.364000 1.816000 -0.973654 0.119319 0.194320 0.230591 0.921448 1 3 1.000000
attachment_vm_scope_vz_lens
  3 -3.062000 0.364000 1.816000 -0.973654 0.119319 0.194320 0.230591 0.921448 1 3 1.000000
  3 -3.144000 0.147000 1.543000 -0.981793 0.082831 0.170943 0.391357 0.718750 1 3 1.000000
  3 -3.062000 0.301000 1.852000 -0.973096 0.099831 0.207648 0.277832 0.948090 1 3 1.000000
attachment_vm_scope_vz_lens
  3 -3.158000 0.001000 1.248000 -0.999974 -0.006947 -0.001758 0.500000 0.500000 1 3 1.000000
  3 -3.144000 0.115000 1.557000 -0.982365 0.060561 0.176895 0.415771 0.729248 1 3 1.000000
  3 -3.144000 0.147000 1.543000 -0.981793 0.082831 0.170943 0.391357 0.718750 1 3 1.000000
attachment_vm_scope_vz_lens
  3 -3.144000 0.147000 1.543000 -0.981793 0.082831 0.170943 0.391357 0.718750 1 3 1.000000
  3 -3.144000 0.115000 1.557000 -0.982365 0.060561 0.176895 0.415771 0.729248 1 3 1.000000
  3 -3.062000 0.301000 1.852000 -0.973096 0.099831 0.207648 0.277832 0.948090 1 3 1.000000
attachment_vm_scope_vz_lens
  3 -3.062000 0.301000 1.852000 -0.973096 0.099831 0.207648 0.277832 0.948090 1 3 1.000000
  3 -3.144000 0.115000 1.557000 -0.982365 0.060561 0.176895 0.415771 0.729248 1 3 1.000000
  3 -3.062000 0.234000 1.881000 -0.972963 0.074666 0.218560 0.327637 0.969498 1 3 1.000000
attachment_vm_scope_vz_lens
  3 -3.062000 0.234000 1.881000 -0.972963 0.074666 0.218560 0.327637 0.969498 1 3 1.000000
  3 -3.144000 0.115000 1.557000 -0.982365 0.060561 0.176895 0.415771 0.729248 1 3 1.000000
  3 -3.062000 0.164000 1.901999 -0.973154 0.052131 0.224174 0.379395 0.985397 1 3 1.000000
attachment_vm_scope_vz_lens
  3 -3.144000 0.115000 1.557000 -0.982365 0.060561 0.176895 0.415771 0.729248 1 3 1.000000
  3 -3.144000 0.080000 1.567000 -0.982364 0.042040 0.182191 0.440918 0.737061 1 3 1.000000
  3 -3.062000 0.164000 1.901999 -0.973154 0.052131 0.224174 0.379395 0.985397 1 3 1.000000
attachment_vm_scope_vz_lens
  3 -3.144000 0.080000 1.567000 -0.982364 0.042040 0.182191 0.440918 0.737061 1 3 1.000000
  3 -3.144000 0.045000 1.574000 -0.982062 0.020372 0.187454 0.467041 0.742188 1 3 1.000000
  3 -3.062000 0.164000 1.901999 -0.973154 0.052131 0.224174 0.379395 0.985397 1 3 1.000000
attachment_vm_scope_vz_lens
  3 -3.158000 0.001000 1.248000 -0.999974 -0.006947 -0.001758 0.500000 0.500000 1 3 1.000000
  3 -3.144000 0.045000 1.574000 -0.982062 0.020372 0.187454 0.467041 0.742188 1 3 1.000000
  3 -3.144000 0.080000 1.567000 -0.982364 0.042040 0.182191 0.440918 0.737061 1 3 1.000000
attachment_vm_scope_vz_lens
  3 -3.158000 0.001000 1.248000 -0.999974 -0.006947 -0.001758 0.500000 0.500000 1 3 1.000000
  3 -3.144000 0.009999 1.577000 -0.982248 -0.001572 0.187580 0.493408 0.744141 1 3 1.000000
  3 -3.144000 0.045000 1.574000 -0.982062 0.020372 0.187454 0.467041 0.742188 1 3 1.000000
attachment_vm_scope_vz_lens
  3 -3.158000 0.001000 1.248000 -0.999974 -0.006947 -0.001758 0.500000 0.500000 1 3 1.000000
  3 -3.144000 -0.026000 1.576000 -0.982208 -0.009423 0.187557 0.520020 0.743408 1 3 1.000000
  3 -3.144000 0.009999 1.577000 -0.982248 -0.001572 0.187580 0.493408 0.744141 1 3 1.000000
attachment_vm_scope_vz_lens
  3 -3.158000 0.001000 1.248000 -0.999974 -0.006947 -0.001758 0.500000 0.500000 1 3 1.000000
  3 -3.144000 -0.061000 1.571000 -0.982272 -0.030717 0.184927 0.545898 0.739990 1 3 1.000000
  3 -3.144000 -0.026000 1.576000 -0.982208 -0.009423 0.187557 0.520020 0.743408 1 3 1.000000
attachment_vm_scope_vz_lens
  3 -3.158000 0.001000 1.248000 -0.999974 -0.006947 -0.001758 0.500000 0.500000 1 3 1.000000
  3 -3.144000 0.080000 1.567000 -0.982364 0.042040 0.182191 0.440918 0.737061 1 3 1.000000
  3 -3.144000 0.115000 1.557000 -0.982365 0.060561 0.176895 0.415771 0.729248 1 3 1.000000
attachment_vm_scope_vz_lens
  3 -3.158000 0.001000 1.248000 -0.999974 -0.006947 -0.001758 0.500000 0.500000 1 3 1.000000
  3 -3.144000 -0.286000 1.410000 -0.982513 -0.160469 0.094439 0.712891 0.620361 1 3 1.000000
  3 -3.144000 -0.267000 1.440000 -0.982164 -0.151813 0.110933 0.698242 0.642578 1 3 1.000000
attachment_vm_scope_vz_lens
  3 -3.158000 0.001000 1.248000 -0.999974 -0.006947 -0.001758 0.500000 0.500000 1 3 1.000000
  3 -3.144000 -0.079000 0.927999 -0.981739 -0.043614 -0.185168 0.559082 0.262695 1 3 1.000000
  3 -3.144000 -0.113000 0.937999 -0.982302 -0.061172 -0.177032 0.584473 0.270508 1 3 1.000000
attachment_vm_scope_vz_lens
  3 -3.158000 0.001000 1.248000 -0.999974 -0.006947 -0.001758 0.500000 0.500000 1 3 1.000000
  3 -3.144000 -0.327000 1.274000 -0.982546 -0.185481 0.014170 0.743652 0.519775 1 3 1.000000
  3 -3.144000 -0.323000 1.309999 -0.982495 -0.182695 0.036427 0.739746 0.546143 1 3 1.000000
attachment_vm_scope_vz_lens
  3 -3.158000 0.001000 1.248000 -0.999974 -0.006947 -0.001758 0.500000 0.500000 1 3 1.000000
  3 -3.144000 -0.267000 1.440000 -0.982164 -0.151813 0.110933 0.698242 0.642578 1 3 1.000000
  3 -3.144000 -0.244000 1.468000 -0.982842 -0.135772 0.124851 0.681641 0.663086 1 3 1.000000
attachment_vm_scope_vz_lens
  3 -3.144000 -0.244000 1.468000 -0.982842 -0.135772 0.124851 0.681641 0.663086 1 3 1.000000
  3 -3.144000 -0.267000 1.440000 -0.982164 -0.151813 0.110933 0.698242 0.642578 1 3 1.000000
  3 -3.062000 -0.501001 1.698000 -0.972863 -0.170592 0.156317 0.872070 0.833984 1 3 1.000000
attachment_vm_scope_vz_lens
  3 -3.062000 -0.501001 1.698000 -0.972863 -0.170592 0.156317 0.872070 0.833984 1 3 1.000000
  3 -3.144000 -0.267000 1.440000 -0.982164 -0.151813 0.110933 0.698242 0.642578 1 3 1.000000
  3 -3.062000 -0.547000 1.641000 -0.973446 -0.185192 0.134562 0.906250 0.791748 1 3 1.000000
attachment_vm_scope_vz_lens
  3 -3.062000 -0.547000 1.641000 -0.973446 -0.185192 0.134562 0.906250 0.791748 1 3 1.000000
  3 -3.144000 -0.267000 1.440000 -0.982164 -0.151813 0.110933 0.698242 0.642578 1 3 1.000000
  3 -3.062000 -0.586000 1.579999 -0.973236 -0.198816 0.115259 0.935547 0.746094 1 3 1.000000
attachment_vm_scope_vz_lens
  3 -3.144000 -0.267000 1.440000 -0.982164 -0.151813 0.110933 0.698242 0.642578 1 3 1.000000
  3 -3.144000 -0.286000 1.410000 -0.982513 -0.160469 0.094439 0.712891 0.620361 1 3 1.000000
  3 -3.062000 -0.586000 1.579999 -0.973236 -0.198816 0.115259 0.935547 0.746094 1 3 1.000000
attachment_vm_scope_vz_lens
  3 -3.144000 -0.286000 1.410000 -0.982513 -0.160469 0.094439 0.712891 0.620361 1 3 1.000000
  3 -3.144000 -0.302000 1.378000 -0.982331 -0.171323 0.075327 0.724609 0.596436 1 3 1.000000
  3 -3.062000 -0.586000 1.579999 -0.973236 -0.198816 0.115259 0.935547 0.746094 1 3 1.000000
attachment_vm_scope_vz_lens
  3 -3.158000 0.001000 1.248000 -0.999974 -0.006947 -0.001758 0.500000 0.500000 1 3 1.000000
  3 -3.144000 -0.302000 1.378000 -0.982331 -0.171323 0.075327 0.724609 0.596436 1 3 1.000000
  3 -3.144000 -0.286000 1.410000 -0.982513 -0.160469 0.094439 0.712891 0.620361 1 3 1.000000
attachment_vm_scope_vz_lens
  3 -3.158000 0.001000 1.248000 -0.999974 -0.006947 -0.001758 0.500000 0.500000 1 3 1.000000
  3 -3.144000 -0.314000 1.343999 -0.982595 -0.177126 0.055981 0.733398 0.571777 1 3 1.000000
  3 -3.144000 -0.302000 1.378000 -0.982331 -0.171323 0.075327 0.724609 0.596436 1 3 1.000000
attachment_vm_scope_vz_lens
  3 -3.158000 0.001000 1.248000 -0.999974 -0.006947 -0.001758 0.500000 0.500000 1 3 1.000000
  3 -3.144000 -0.323000 1.309999 -0.982495 -0.182695 0.036427 0.739746 0.546143 1 3 1.000000
  3 -3.144000 -0.314000 1.343999 -0.982595 -0.177126 0.055981 0.733398 0.571777 1 3 1.000000
attachment_vm_scope_vz_lens
  3 -3.144000 -0.314000 1.343999 -0.982595 -0.177126 0.055981 0.733398 0.571777 1 3 1.000000
  3 -3.144000 -0.323000 1.309999 -0.982495 -0.182695 0.036427 0.739746 0.546143 1 3 1.000000
  3 -3.062000 -0.644000 1.445999 -0.973935 -0.216325 0.068222 0.978027 0.646729 1 3 1.000000
attachment_vm_scope_vz_lens
  3 -3.062000 -0.644000 1.445999 -0.973935 -0.216325 0.068222 0.978027 0.646729 1 3 1.000000
  3 -3.144000 -0.323000 1.309999 -0.982495 -0.182695 0.036427 0.739746 0.546143 1 3 1.000000
  3 -3.062000 -0.661000 1.375000 -0.973519 -0.224469 0.043288 0.991211 0.594238 1 3 1.000000
attachment_vm_scope_vz_lens
  3 -3.062000 -0.661000 1.375000 -0.973519 -0.224469 0.043288 0.991211 0.594238 1 3 1.000000
  3 -3.144000 -0.323000 1.309999 -0.982495 -0.182695 0.036427 0.739746 0.546143 1 3 1.000000
  3 -3.062000 -0.671000 1.302000 -0.973650 -0.227334 0.018020 0.998535 0.540527 1 3 1.000000
attachment_vm_scope_vz_lens
  3 -3.144000 -0.323000 1.309999 -0.982495 -0.182695 0.036427 0.739746 0.546143 1 3 1.000000
  3 -3.144000 -0.327000 1.274000 -0.982546 -0.185481 0.014170 0.743652 0.519775 1 3 1.000000
  3 -3.062000 -0.671000 1.302000 -0.973650 -0.227334 0.018020 0.998535 0.540527 1 3 1.000000
attachment_vm_scope_vz_lens
  3 -3.144000 -0.327000 1.274000 -0.982546 -0.185481 0.014170 0.743652 0.519775 1 3 1.000000
  3 -3.144000 -0.328000 1.239000 -0.982211 -0.187537 -0.009562 0.744141 0.493164 1 3 1.000000
  3 -3.062000 -0.671000 1.302000 -0.973650 -0.227334 0.018020 0.998535 0.540527 1 3 1.000000
attachment_vm_scope_vz_lens
  3 -3.158000 0.001000 1.248000 -0.999974 -0.006947 -0.001758 0.500000 0.500000 1 3 1.000000
  3 -3.144000 -0.328000 1.239000 -0.982211 -0.187537 -0.009562 0.744141 0.493164 1 3 1.000000
  3 -3.144000 -0.327000 1.274000 -0.982546 -0.185481 0.014170 0.743652 0.519775 1 3 1.000000
attachment_vm_scope_vz_lens
  3 -3.158000 0.001000 1.248000 -0.999974 -0.006947 -0.001758 0.500000 0.500000 1 3 1.000000
  3 -3.144000 -0.325000 1.202999 -0.982354 -0.184782 -0.028905 0.742188 0.466797 1 3 1.000000
  3 -3.144000 -0.328000 1.239000 -0.982211 -0.187537 -0.009562 0.744141 0.493164 1 3 1.000000
attachment_vm_scope_vz_lens
  3 -3.158000 0.001000 1.248000 -0.999974 -0.006947 -0.001758 0.500000 0.500000 1 3 1.000000
  3 -3.144000 -0.319000 1.167999 -0.982141 -0.181897 -0.048076 0.737305 0.440918 1 3 1.000000
  3 -3.144000 -0.325000 1.202999 -0.982354 -0.184782 -0.028905 0.742188 0.466797 1 3 1.000000
attachment_vm_scope_vz_lens
  3 -3.144000 -0.325000 1.202999 -0.982354 -0.184782 -0.028905 0.742188 0.466797 1 3 1.000000
  3 -3.144000 -0.319000 1.167999 -0.982141 -0.181897 -0.048076 0.737305 0.440918 1 3 1.000000
  3 -3.062000 -0.667001 1.157000 -0.973353 -0.226584 -0.035260 0.995605 0.432617 1 3 1.000000
attachment_vm_scope_vz_lens
  3 -3.062000 -0.586000 1.579999 -0.973236 -0.198816 0.115259 0.935547 0.746094 1 3 1.000000
  3 -3.144000 -0.302000 1.378000 -0.982331 -0.171323 0.075327 0.724609 0.596436 1 3 1.000000
  3 -3.062000 -0.619000 1.514000 -0.974453 -0.205561 0.090474 0.959473 0.697754 1 3 1.000000
attachment_vm_scope_vz_lens
  3 -3.062000 -0.619000 1.514000 -0.974453 -0.205561 0.090474 0.959473 0.697754 1 3 1.000000
  3 -3.144000 -0.302000 1.378000 -0.982331 -0.171323 0.075327 0.724609 0.596436 1 3 1.000000
  3 -3.062000 -0.644000 1.445999 -0.973935 -0.216325 0.068222 0.978027 0.646729 1 3 1.000000
attachment_vm_scope_vz_lens
  3 -3.144000 -0.302000 1.378000 -0.982331 -0.171323 0.075327 0.724609 0.596436 1 3 1.000000
  3 -3.144000 -0.314000 1.343999 -0.982595 -0.177126 0.055981 0.733398 0.571777 1 3 1.000000
  3 -3.062000 -0.644000 1.445999 -0.973935 -0.216325 0.068222 0.978027 0.646729 1 3 1.000000
attachment_vm_scope_vz_lens
  3 -3.062000 -0.671000 1.302000 -0.973650 -0.227334 0.018020 0.998535 0.540527 1 3 1.000000
  3 -3.144000 -0.328000 1.239000 -0.982211 -0.187537 -0.009562 0.744141 0.493164 1 3 1.000000
  3 -3.062000 -0.673000 1.229000 -0.973898 -0.226929 -0.005007 1.000000 0.486328 1 3 1.000000
attachment_vm_scope_vz_lens
  3 -3.062000 -0.673000 1.229000 -0.973898 -0.226929 -0.005007 1.000000 0.486328 1 3 1.000000
  3 -3.144000 -0.328000 1.239000 -0.982211 -0.187537 -0.009562 0.744141 0.493164 1 3 1.000000
  3 -3.062000 -0.667001 1.157000 -0.973353 -0.226584 -0.035260 0.995605 0.432617 1 3 1.000000
attachment_vm_scope_vz_lens
  3 -3.144000 -0.328000 1.239000 -0.982211 -0.187537 -0.009562 0.744141 0.493164 1 3 1.000000
  3 -3.144000 -0.325000 1.202999 -0.982354 -0.184782 -0.028905 0.742188 0.466797 1 3 1.000000
  3 -3.062000 -0.667001 1.157000 -0.973353 -0.226584 -0.035260 0.995605 0.432617 1 3 1.000000
attachment_vm_scope_vz_lens
  3 -3.158000 0.001000 1.248000 -0.999974 -0.006947 -0.001758 0.500000 0.500000 1 3 1.000000
  3 -3.144000 -0.308000 1.134000 -0.982634 -0.173939 -0.064618 0.729492 0.415527 1 3 1.000000
  3 -3.144000 -0.319000 1.167999 -0.982141 -0.181897 -0.048076 0.737305 0.440918 1 3 1.000000
attachment_vm_scope_vz_lens
  3 -3.062000 -0.392001 1.795000 -0.973369 -0.129694 0.189032 0.791992 0.906250 1 3 1.000000
  3 -3.144000 -0.219000 1.493000 -0.982166 -0.124006 0.141326 0.663086 0.681885 1 3 1.000000
  3 -3.062000 -0.449001 1.750000 -0.973238 -0.151254 0.173001 0.833984 0.872314 1 3 1.000000
attachment_vm_scope_vz_lens
  3 -3.144000 -0.219000 1.493000 -0.982166 -0.124006 0.141326 0.663086 0.681885 1 3 1.000000
  3 -3.144000 -0.244000 1.468000 -0.982842 -0.135772 0.124851 0.681641 0.663086 1 3 1.000000
  3 -3.062000 -0.449001 1.750000 -0.973238 -0.151254 0.173001 0.833984 0.872314 1 3 1.000000
attachment_vm_scope_vz_lens
  3 -3.062000 -0.449001 1.750000 -0.973238 -0.151254 0.173001 0.833984 0.872314 1 3 1.000000
  3 -3.144000 -0.244000 1.468000 -0.982842 -0.135772 0.124851 0.681641 0.663086 1 3 1.000000
  3 -3.062000 -0.501001 1.698000 -0.972863 -0.170592 0.156317 0.872070 0.833984 1 3 1.000000
attachment_vm_scope_vz_lens
  3 -3.062000 -0.667001 1.157000 -0.973353 -0.226584 -0.035260 0.995605 0.432617 1 3 1.000000
  3 -3.144000 -0.319000 1.167999 -0.982141 -0.181897 -0.048076 0.737305 0.440918 1 3 1.000000
  3 -3.062000 -0.654000 1.085000 -0.973406 -0.221020 -0.060248 0.985352 0.379395 1 3 1.000000
attachment_vm_scope_vz_lens
  3 -3.062000 -0.654000 1.085000 -0.973406 -0.221020 -0.060248 0.985352 0.379395 1 3 1.000000
  3 -3.144000 -0.319000 1.167999 -0.982141 -0.181897 -0.048076 0.737305 0.440918 1 3 1.000000
  3 -3.062000 -0.632001 1.015000 -0.973121 -0.214907 -0.082763 0.969727 0.327637 1 3 1.000000
attachment_vm_scope_vz_lens
  3 -3.144000 -0.319000 1.167999 -0.982141 -0.181897 -0.048076 0.737305 0.440918 1 3 1.000000
  3 -3.144000 -0.308000 1.134000 -0.982634 -0.173939 -0.064618 0.729492 0.415527 1 3 1.000000
  3 -3.062000 -0.632001 1.015000 -0.973121 -0.214907 -0.082763 0.969727 0.327637 1 3 1.000000
attachment_vm_scope_vz_lens
  3 -3.144000 -0.308000 1.134000 -0.982634 -0.173939 -0.064618 0.729492 0.415527 1 3 1.000000
  3 -3.144000 -0.294000 1.100999 -0.982407 -0.165388 -0.086734 0.718750 0.391602 1 3 1.000000
  3 -3.062000 -0.632001 1.015000 -0.973121 -0.214907 -0.082763 0.969727 0.327637 1 3 1.000000
attachment_vm_scope_vz_lens
  3 -3.158000 0.001000 1.248000 -0.999974 -0.006947 -0.001758 0.500000 0.500000 1 3 1.000000
  3 -3.144000 -0.294000 1.100999 -0.982407 -0.165388 -0.086734 0.718750 0.391602 1 3 1.000000
  3 -3.144000 -0.308000 1.134000 -0.982634 -0.173939 -0.064618 0.729492 0.415527 1 3 1.000000
attachment_vm_scope_vz_lens
  3 -3.158000 0.001000 1.248000 -0.999974 -0.006947 -0.001758 0.500000 0.500000 1 3 1.000000
  3 -3.144000 -0.277000 1.070000 -0.981959 -0.156496 -0.106135 0.706055 0.368652 1 3 1.000000
  3 -3.144000 -0.294000 1.100999 -0.982407 -0.165388 -0.086734 0.718750 0.391602 1 3 1.000000
attachment_vm_scope_vz_lens
  3 -3.158000 0.001000 1.248000 -0.999974 -0.006947 -0.001758 0.500000 0.500000 1 3 1.000000
  3 -3.144000 -0.256000 1.041000 -0.982708 -0.143245 -0.117330 0.690430 0.347168 1 3 1.000000
  3 -3.144000 -0.277000 1.070000 -0.981959 -0.156496 -0.106135 0.706055 0.368652 1 3 1.000000
attachment_vm_scope_vz_lens
  3 -3.144000 -0.277000 1.070000 -0.981959 -0.156496 -0.106135 0.706055 0.368652 1 3 1.000000
  3 -3.144000 -0.256000 1.041000 -0.982708 -0.143245 -0.117330 0.690430 0.347168 1 3 1.000000
  3 -3.062000 -0.567000 0.884000 -0.973830 -0.190368 -0.124161 0.921387 0.230469 1 3 1.000000
attachment_vm_scope_vz_lens
  3 -3.062000 -0.567000 0.884000 -0.973830 -0.190368 -0.124161 0.921387 0.230469 1 3 1.000000
  3 -3.144000 -0.256000 1.041000 -0.982708 -0.143245 -0.117330 0.690430 0.347168 1 3 1.000000
  3 -3.062000 -0.525000 0.825000 -0.973808 -0.176519 -0.143313 0.889648 0.186523 1 3 1.000000
attachment_vm_scope_vz_lens
  3 -3.062000 -0.525000 0.825000 -0.973808 -0.176519 -0.143313 0.889648 0.186523 1 3 1.000000
  3 -3.144000 -0.256000 1.041000 -0.982708 -0.143245 -0.117330 0.690430 0.347168 1 3 1.000000
  3 -3.062000 -0.476001 0.771000 -0.972942 -0.161357 -0.165369 0.853516 0.146484 1 3 1.000000
attachment_vm_scope_vz_lens
  3 -3.144000 -0.256000 1.041000 -0.982708 -0.143245 -0.117330 0.690430 0.347168 1 3 1.000000
  3 -3.144000 -0.232000 1.015000 -0.981905 -0.131520 -0.136257 0.672852 0.327148 1 3 1.000000
  3 -3.062000 -0.476001 0.771000 -0.972942 -0.161357 -0.165369 0.853516 0.146484 1 3 1.000000
attachment_vm_scope_vz_lens
  3 -3.062000 -0.476001 0.771000 -0.972942 -0.161357 -0.165369 0.853516 0.146484 1 3 1.000000
  3 -3.144000 -0.232000 1.015000 -0.981905 -0.131520 -0.136257 0.672852 0.327148 1 3 1.000000
  3 -3.062000 -0.422000 0.721999 -0.972597 -0.142415 -0.183776 0.813477 0.110352 1 3 1.000000
attachment_vm_scope_vz_lens
  3 -3.144000 -0.232000 1.015000 -0.981905 -0.131520 -0.136257 0.672852 0.327148 1 3 1.000000
  3 -3.144000 -0.205000 0.991000 -0.981973 -0.115616 -0.149538 0.652832 0.309570 1 3 1.000000
  3 -3.062000 -0.422000 0.721999 -0.972597 -0.142415 -0.183776 0.813477 0.110352 1 3 1.000000
attachment_vm_scope_vz_lens
  3 -3.144000 -0.205000 0.991000 -0.981973 -0.115616 -0.149538 0.652832 0.309570 1 3 1.000000
  3 -3.144000 -0.176001 0.969999 -0.982037 -0.098664 -0.160838 0.631348 0.293945 1 3 1.000000
  3 -3.062000 -0.422000 0.721999 -0.972597 -0.142415 -0.183776 0.813477 0.110352 1 3 1.000000
attachment_vm_scope_vz_lens
  3 -3.158000 0.001000 1.248000 -0.999974 -0.006947 -0.001758 0.500000 0.500000 1 3 1.000000
  3 -3.144000 -0.176001 0.969999 -0.982037 -0.098664 -0.160838 0.631348 0.293945 1 3 1.000000
  3 -3.144000 -0.205000 0.991000 -0.981973 -0.115616 -0.149538 0.652832 0.309570 1 3 1.000000
attachment_vm_scope_vz_lens
  3 -3.158000 0.001000 1.248000 -0.999974 -0.006947 -0.001758 0.500000 0.500000 1 3 1.000000
  3 -3.144000 -0.145000 0.953000 -0.982369 -0.079988 -0.168975 0.608398 0.281250 1 3 1.000000
  3 -3.144000 -0.176001 0.969999 -0.982037 -0.098664 -0.160838 0.631348 0.293945 1 3 1.000000
attachment_vm_scope_vz_lens
  3 -3.158000 0.001000 1.248000 -0.999974 -0.006947 -0.001758 0.500000 0.500000 1 3 1.000000
  3 -3.144000 -0.113000 0.937999 -0.982302 -0.061172 -0.177032 0.584473 0.270508 1 3 1.000000
  3 -3.144000 -0.145000 0.953000 -0.982369 -0.079988 -0.168975 0.608398 0.281250 1 3 1.000000
attachment_vm_scope_vz_lens
  3 -3.144000 -0.145000 0.953000 -0.982369 -0.079988 -0.168975 0.608398 0.281250 1 3 1.000000
  3 -3.144000 -0.113000 0.937999 -0.982302 -0.061172 -0.177032 0.584473 0.270508 1 3 1.000000
  3 -3.062000 -0.299000 0.643000 -0.973079 -0.097518 -0.208822 0.722168 0.051758 1 3 1.000000
attachment_vm_scope_vz_lens
  3 -3.062000 -0.422000 0.721999 -0.972597 -0.142415 -0.183776 0.813477 0.110352 1 3 1.000000
  3 -3.144000 -0.176001 0.969999 -0.982037 -0.098664 -0.160838 0.631348 0.293945 1 3 1.000000
  3 -3.062000 -0.362001 0.679000 -0.972861 -0.120674 -0.197434 0.769531 0.078613 1 3 1.000000
attachment_vm_scope_vz_lens
  3 -3.062000 -0.362001 0.679000 -0.972861 -0.120674 -0.197434 0.769531 0.078613 1 3 1.000000
  3 -3.144000 -0.176001 0.969999 -0.982037 -0.098664 -0.160838 0.631348 0.293945 1 3 1.000000
  3 -3.062000 -0.299000 0.643000 -0.973079 -0.097518 -0.208822 0.722168 0.051758 1 3 1.000000
attachment_vm_scope_vz_lens
  3 -3.144000 -0.176001 0.969999 -0.982037 -0.098664 -0.160838 0.631348 0.293945 1 3 1.000000
  3 -3.144000 -0.145000 0.953000 -0.982369 -0.079988 -0.168975 0.608398 0.281250 1 3 1.000000
  3 -3.062000 -0.299000 0.643000 -0.973079 -0.097518 -0.208822 0.722168 0.051758 1 3 1.000000
attachment_vm_scope_vz_lens
  3 -3.062000 -0.632001 1.015000 -0.973121 -0.214907 -0.082763 0.969727 0.327637 1 3 1.000000
  3 -3.144000 -0.294000 1.100999 -0.982407 -0.165388 -0.086734 0.718750 0.391602 1 3 1.000000
  3 -3.062000 -0.603000 0.948000 -0.973364 -0.203925 -0.104769 0.948242 0.277832 1 3 1.000000
attachment_vm_scope_vz_lens
  3 -3.144000 -0.294000 1.100999 -0.982407 -0.165388 -0.086734 0.718750 0.391602 1 3 1.000000
  3 -3.144000 -0.277000 1.070000 -0.981959 -0.156496 -0.106135 0.706055 0.368652 1 3 1.000000
  3 -3.062000 -0.603000 0.948000 -0.973364 -0.203925 -0.104769 0.948242 0.277832 1 3 1.000000
attachment_vm_scope_vz_lens
  3 -3.062000 -0.603000 0.948000 -0.973364 -0.203925 -0.104769 0.948242 0.277832 1 3 1.000000
  3 -3.144000 -0.277000 1.070000 -0.981959 -0.156496 -0.106135 0.706055 0.368652 1 3 1.000000
  3 -3.062000 -0.567000 0.884000 -0.973830 -0.190368 -0.124161 0.921387 0.230469 1 3 1.000000
attachment_vm_scope_vz_lens
  3 -3.062000 -0.299000 0.643000 -0.973079 -0.097518 -0.208822 0.722168 0.051758 1 3 1.000000
  3 -3.144000 -0.113000 0.937999 -0.982302 -0.061172 -0.177032 0.584473 0.270508 1 3 1.000000
  3 -3.062000 -0.232000 0.615000 -0.972713 -0.078096 -0.218472 0.672363 0.030273 1 3 1.000000
attachment_vm_scope_vz_lens
  3 -3.062000 -0.232000 0.615000 -0.972713 -0.078096 -0.218472 0.672363 0.030273 1 3 1.000000
  3 -3.144000 -0.113000 0.937999 -0.982302 -0.061172 -0.177032 0.584473 0.270508 1 3 1.000000
  3 -3.062000 -0.162000 0.592999 -0.972515 -0.051691 -0.227028 0.620605 0.014648 1 3 1.000000
attachment_vm_scope_vz_lens
  3 -3.144000 -0.113000 0.937999 -0.982302 -0.061172 -0.177032 0.584473 0.270508 1 3 1.000000
  3 -3.144000 -0.079000 0.927999 -0.981739 -0.043614 -0.185168 0.559082 0.262695 1 3 1.000000
  3 -3.062000 -0.162000 0.592999 -0.972515 -0.051691 -0.227028 0.620605 0.014648 1 3 1.000000
attachment_vm_scope_vz_lens
  3 -3.144000 -0.079000 0.927999 -0.981739 -0.043614 -0.185168 0.559082 0.262695 1 3 1.000000
  3 -3.144000 -0.044000 0.921000 -0.981460 -0.021996 -0.190402 0.533203 0.257813 1 3 1.000000
  3 -3.062000 -0.162000 0.592999 -0.972515 -0.051691 -0.227028 0.620605 0.014648 1 3 1.000000
attachment_vm_scope_vz_lens
  3 -3.158000 0.001000 1.248000 -0.999974 -0.006947 -0.001758 0.500000 0.500000 1 3 1.000000
  3 -3.144000 -0.044000 0.921000 -0.981460 -0.021996 -0.190402 0.533203 0.257813 1 3 1.000000
  3 -3.144000 -0.079000 0.927999 -0.981739 -0.043614 -0.185168 0.559082 0.262695 1 3 1.000000
attachment_vm_scope_vz_lens
  3 -3.158000 0.001000 1.248000 -0.999974 -0.006947 -0.001758 0.500000 0.500000 1 3 1.000000
  3 -3.144000 -0.008000 0.918000 -0.981677 -0.000070 -0.190554 0.506836 0.255859 1 3 1.000000
  3 -3.144000 -0.044000 0.921000 -0.981460 -0.021996 -0.190402 0.533203 0.257813 1 3 1.000000
attachment_vm_scope_vz_lens
  3 -3.158000 0.001000 1.248000 -0.999974 -0.006947 -0.001758 0.500000 0.500000 1 3 1.000000
  3 -3.144000 0.028000 0.919000 -0.982095 0.012090 -0.187996 0.480225 0.256348 1 3 1.000000
  3 -3.144000 -0.008000 0.918000 -0.981677 -0.000070 -0.190554 0.506836 0.255859 1 3 1.000000
attachment_vm_scope_vz_lens
  3 -3.144000 -0.008000 0.918000 -0.981677 -0.000070 -0.190554 0.506836 0.255859 1 3 1.000000
  3 -3.144000 0.028000 0.919000 -0.982095 0.012090 -0.187996 0.480225 0.256348 1 3 1.000000
  3 -3.062000 0.056000 0.575000 -0.973711 0.013304 -0.227398 0.459473 0.001465 1 3 1.000000
attachment_vm_scope_vz_lens
  3 -3.062000 0.056000 0.575000 -0.973711 0.013304 -0.227398 0.459473 0.001465 1 3 1.000000
  3 -3.144000 0.028000 0.919000 -0.982095 0.012090 -0.187996 0.480225 0.256348 1 3 1.000000
  3 -3.062000 0.128000 0.585000 -0.973707 0.037965 -0.224617 0.405762 0.008789 1 3 1.000000
attachment_vm_scope_vz_lens
  3 -3.144000 0.028000 0.919000 -0.982095 0.012090 -0.187996 0.480225 0.256348 1 3 1.000000
  3 -3.144000 0.063000 0.924000 -0.982722 0.028891 -0.182819 0.453857 0.260254 1 3 1.000000
  3 -3.062000 0.128000 0.585000 -0.973707 0.037965 -0.224617 0.405762 0.008789 1 3 1.000000
attachment_vm_scope_vz_lens
  3 -3.062000 0.128000 0.585000 -0.973707 0.037965 -0.224617 0.405762 0.008789 1 3 1.000000
  3 -3.144000 0.063000 0.924000 -0.982722 0.028891 -0.182819 0.453857 0.260254 1 3 1.000000
  3 -3.062000 0.199000 0.602999 -0.972986 0.064882 -0.221559 0.353271 0.021973 1 3 1.000000
attachment_vm_scope_vz_lens
  3 -3.144000 0.063000 0.924000 -0.982722 0.028891 -0.182819 0.453857 0.260254 1 3 1.000000
  3 -3.144000 0.098000 0.932999 -0.982823 0.050474 -0.177516 0.428223 0.266602 1 3 1.000000
  3 -3.062000 0.199000 0.602999 -0.972986 0.064882 -0.221559 0.353271 0.021973 1 3 1.000000
attachment_vm_scope_vz_lens
  3 -3.144000 0.098000 0.932999 -0.982823 0.050474 -0.177516 0.428223 0.266602 1 3 1.000000
  3 -3.144000 0.131000 0.944999 -0.982647 0.069417 -0.172005 0.403564 0.275391 1 3 1.000000
  3 -3.062000 0.199000 0.602999 -0.972986 0.064882 -0.221559 0.353271 0.021973 1 3 1.000000
attachment_vm_scope_vz_lens
  3 -3.158000 0.001000 1.248000 -0.999974 -0.006947 -0.001758 0.500000 0.500000 1 3 1.000000
  3 -3.144000 0.131000 0.944999 -0.982647 0.069417 -0.172005 0.403564 0.275391 1 3 1.000000
  3 -3.144000 0.098000 0.932999 -0.982823 0.050474 -0.177516 0.428223 0.266602 1 3 1.000000
attachment_vm_scope_vz_lens
  3 -3.158000 0.001000 1.248000 -0.999974 -0.006947 -0.001758 0.500000 0.500000 1 3 1.000000
  3 -3.144000 0.163000 0.961000 -0.982285 0.091076 -0.163770 0.379639 0.287109 1 3 1.000000
  3 -3.144000 0.131000 0.944999 -0.982647 0.069417 -0.172005 0.403564 0.275391 1 3 1.000000
attachment_vm_scope_vz_lens
  3 -3.158000 0.001000 1.248000 -0.999974 -0.006947 -0.001758 0.500000 0.500000 1 3 1.000000
  3 -3.144000 0.193000 0.979999 -0.983002 0.105233 -0.150440 0.357422 0.301758 1 3 1.000000
  3 -3.144000 0.163000 0.961000 -0.982285 0.091076 -0.163770 0.379639 0.287109 1 3 1.000000
attachment_vm_scope_vz_lens
  3 -3.144000 0.163000 0.961000 -0.982285 0.091076 -0.163770 0.379639 0.287109 1 3 1.000000
  3 -3.144000 0.193000 0.979999 -0.983002 0.105233 -0.150440 0.357422 0.301758 1 3 1.000000
  3 -3.062000 0.333000 0.661000 -0.974169 0.108556 -0.198015 0.253906 0.064453 1 3 1.000000
attachment_vm_scope_vz_lens
  3 -3.062000 0.333000 0.661000 -0.974169 0.108556 -0.198015 0.253906 0.064453 1 3 1.000000
  3 -3.144000 0.193000 0.979999 -0.983002 0.105233 -0.150440 0.357422 0.301758 1 3 1.000000
  3 -3.062000 0.394000 0.700000 -0.972941 0.132275 -0.189446 0.208252 0.093750 1 3 1.000000
attachment_vm_scope_vz_lens
  3 -3.062000 0.199000 0.602999 -0.972986 0.064882 -0.221559 0.353271 0.021973 1 3 1.000000
  3 -3.144000 0.131000 0.944999 -0.982647 0.069417 -0.172005 0.403564 0.275391 1 3 1.000000
  3 -3.062000 0.267000 0.627999 -0.974134 0.086406 -0.208798 0.302246 0.040527 1 3 1.000000
attachment_vm_scope_vz_lens
  3 -3.062000 0.267000 0.627999 -0.974134 0.086406 -0.208798 0.302246 0.040527 1 3 1.000000
  3 -3.144000 0.131000 0.944999 -0.982647 0.069417 -0.172005 0.403564 0.275391 1 3 1.000000
  3 -3.062000 0.333000 0.661000 -0.974169 0.108556 -0.198015 0.253906 0.064453 1 3 1.000000
attachment_vm_scope_vz_lens
  3 -3.144000 0.131000 0.944999 -0.982647 0.069417 -0.172005 0.403564 0.275391 1 3 1.000000
  3 -3.144000 0.163000 0.961000 -0.982285 0.091076 -0.163770 0.379639 0.287109 1 3 1.000000
  3 -3.062000 0.333000 0.661000 -0.974169 0.108556 -0.198015 0.253906 0.064453 1 3 1.000000
attachment_vm_scope_vz_lens
  3 -3.062000 -0.017000 0.573000 -0.972642 -0.003687 -0.232279 0.513672 0.000000 1 3 1.000000
  3 -3.144000 -0.008000 0.918000 -0.981677 -0.000070 -0.190554 0.506836 0.255859 1 3 1.000000
  3 -3.062000 0.056000 0.575000 -0.973711 0.013304 -0.227398 0.459473 0.001465 1 3 1.000000
attachment_vm_scope_vz_lens
  3 -3.062000 -0.090000 0.579000 -0.972275 -0.027842 -0.232175 0.567383 0.004395 1 3 1.000000
  3 -3.144000 -0.008000 0.918000 -0.981677 -0.000070 -0.190554 0.506836 0.255859 1 3 1.000000
  3 -3.062000 -0.017000 0.573000 -0.972642 -0.003687 -0.232279 0.513672 0.000000 1 3 1.000000
attachment_vm_scope_vz_lens
  3 -3.144000 -0.044000 0.921000 -0.981460 -0.021996 -0.190402 0.533203 0.257813 1 3 1.000000
  3 -3.144000 -0.008000 0.918000 -0.981677 -0.000070 -0.190554 0.506836 0.255859 1 3 1.000000
  3 -3.062000 -0.090000 0.579000 -0.972275 -0.027842 -0.232175 0.567383 0.004395 1 3 1.000000
attachment_vm_scope_vz_lens
  3 -3.062000 -0.162000 0.592999 -0.972515 -0.051691 -0.227028 0.620605 0.014648 1 3 1.000000
  3 -3.144000 -0.044000 0.921000 -0.981460 -0.021996 -0.190402 0.533203 0.257813 1 3 1.000000
  3 -3.062000 -0.090000 0.579000 -0.972275 -0.027842 -0.232175 0.567383 0.004395 1 3 1.000000
attachment_vm_scope_vz_lens
  3 -3.062000 0.164000 1.901999 -0.973154 0.052131 0.224174 0.379395 0.985397 1 3 1.000000
  3 -3.144000 0.045000 1.574000 -0.982062 0.020372 0.187454 0.467041 0.742188 1 3 1.000000
  3 -3.062000 0.092000 1.916000 -0.972949 0.028770 0.229222 0.432373 0.995602 1 3 1.000000
attachment_vm_scope_vz_lens
  3 -3.144000 0.045000 1.574000 -0.982062 0.020372 0.187454 0.467041 0.742188 1 3 1.000000
  3 -3.144000 0.009999 1.577000 -0.982248 -0.001572 0.187580 0.493408 0.744141 1 3 1.000000
  3 -3.062000 0.092000 1.916000 -0.972949 0.028770 0.229222 0.432373 0.995602 1 3 1.000000
attachment_vm_scope_vz_lens
  3 -3.062000 0.092000 1.916000 -0.972949 0.028770 0.229222 0.432373 0.995602 1 3 1.000000
  3 -3.144000 0.009999 1.577000 -0.982248 -0.001572 0.187580 0.493408 0.744141 1 3 1.000000
  3 -3.062000 0.019000 1.922000 -0.972753 0.001548 0.231839 0.486572 1.000000 1 3 1.000000
attachment_vm_scope_vz_lens
  3 -3.062000 0.019000 1.922000 -0.972753 0.001548 0.231839 0.486572 1.000000 1 3 1.000000
  3 -3.144000 0.009999 1.577000 -0.982248 -0.001572 0.187580 0.493408 0.744141 1 3 1.000000
  3 -3.062000 -0.054000 1.920000 -0.973254 -0.013217 0.229349 0.540527 0.998530 1 3 1.000000
attachment_vm_scope_vz_lens
  3 -3.144000 0.009999 1.577000 -0.982248 -0.001572 0.187580 0.493408 0.744141 1 3 1.000000
  3 -3.144000 -0.026000 1.576000 -0.982208 -0.009423 0.187557 0.520020 0.743408 1 3 1.000000
  3 -3.062000 -0.054000 1.920000 -0.973254 -0.013217 0.229349 0.540527 0.998530 1 3 1.000000
attachment_vm_scope_vz_lens
  3 -3.062000 -0.054000 1.920000 -0.973254 -0.013217 0.229349 0.540527 0.998530 1 3 1.000000
  3 -3.144000 -0.026000 1.576000 -0.982208 -0.009423 0.187557 0.520020 0.743408 1 3 1.000000
  3 -3.062000 -0.126000 1.910000 -0.973166 -0.040280 0.226549 0.594238 0.991219 1 3 1.000000
attachment_vm_scope_vz_lens
  3 -3.144000 -0.026000 1.576000 -0.982208 -0.009423 0.187557 0.520020 0.743408 1 3 1.000000
  3 -3.144000 -0.061000 1.571000 -0.982272 -0.030717 0.184927 0.545898 0.739990 1 3 1.000000
  3 -3.062000 -0.126000 1.910000 -0.973166 -0.040280 0.226549 0.594238 0.991219 1 3 1.000000
attachment_vm_scope_vz_lens
  3 -3.144000 -0.061000 1.571000 -0.982272 -0.030717 0.184927 0.545898 0.739990 1 3 1.000000
  3 -3.144000 -0.096000 1.563000 -0.982472 -0.050349 0.179484 0.571777 0.733643 1 3 1.000000
  3 -3.062000 -0.126000 1.910000 -0.973166 -0.040280 0.226549 0.594238 0.991219 1 3 1.000000
attachment_vm_scope_vz_lens
  3 -3.158000 0.001000 1.248000 -0.999974 -0.006947 -0.001758 0.500000 0.500000 1 3 1.000000
  3 -3.144000 -0.096000 1.563000 -0.982472 -0.050349 0.179484 0.571777 0.733643 1 3 1.000000
  3 -3.144000 -0.061000 1.571000 -0.982272 -0.030717 0.184927 0.545898 0.739990 1 3 1.000000
attachment_vm_scope_vz_lens
  3 -3.158000 0.001000 1.248000 -0.999974 -0.006947 -0.001758 0.500000 0.500000 1 3 1.000000
  3 -3.144000 -0.129001 1.549999 -0.982303 -0.069790 0.173809 0.596680 0.724365 1 3 1.000000
  3 -3.144000 -0.096000 1.563000 -0.982472 -0.050349 0.179484 0.571777 0.733643 1 3 1.000000
attachment_vm_scope_vz_lens
  3 -3.158000 0.001000 1.248000 -0.999974 -0.006947 -0.001758 0.500000 0.500000 1 3 1.000000
  3 -3.144000 -0.161001 1.534000 -0.982190 -0.088554 0.165712 0.620117 0.712646 1 3 1.000000
  3 -3.144000 -0.129001 1.549999 -0.982303 -0.069790 0.173809 0.596680 0.724365 1 3 1.000000
attachment_vm_scope_vz_lens
  3 -3.144000 -0.129001 1.549999 -0.982303 -0.069790 0.173809 0.596680 0.724365 1 3 1.000000
  3 -3.144000 -0.161001 1.534000 -0.982190 -0.088554 0.165712 0.620117 0.712646 1 3 1.000000
  3 -3.062000 -0.266000 1.867000 -0.973001 -0.089318 0.212819 0.697754 0.959473 1 3 1.000000
attachment_vm_scope_vz_lens
  3 -3.062000 -0.266000 1.867000 -0.973001 -0.089318 0.212819 0.697754 0.959473 1 3 1.000000
  3 -3.144000 -0.161001 1.534000 -0.982190 -0.088554 0.165712 0.620117 0.712646 1 3 1.000000
  3 -3.062000 -0.331000 1.835000 -0.973544 -0.110756 0.199862 0.746094 0.935425 1 3 1.000000
attachment_vm_scope_vz_lens
  3 -3.062000 -0.331000 1.835000 -0.973544 -0.110756 0.199862 0.746094 0.935425 1 3 1.000000
  3 -3.144000 -0.161001 1.534000 -0.982190 -0.088554 0.165712 0.620117 0.712646 1 3 1.000000
  3 -3.062000 -0.392001 1.795000 -0.973369 -0.129694 0.189032 0.791992 0.906250 1 3 1.000000
attachment_vm_scope_vz_lens
  3 -3.144000 -0.161001 1.534000 -0.982190 -0.088554 0.165712 0.620117 0.712646 1 3 1.000000
  3 -3.144000 -0.191001 1.515000 -0.981814 -0.109519 0.155071 0.642578 0.698486 1 3 1.000000
  3 -3.062000 -0.392001 1.795000 -0.973369 -0.129694 0.189032 0.791992 0.906250 1 3 1.000000
attachment_vm_scope_vz_lens
  3 -3.144000 -0.191001 1.515000 -0.981814 -0.109519 0.155071 0.642578 0.698486 1 3 1.000000
  3 -3.144000 -0.219000 1.493000 -0.982166 -0.124006 0.141326 0.663086 0.681885 1 3 1.000000
  3 -3.062000 -0.392001 1.795000 -0.973369 -0.129694 0.189032 0.791992 0.906250 1 3 1.000000
attachment_vm_scope_vz_lens
  3 -3.158000 0.001000 1.248000 -0.999974 -0.006947 -0.001758 0.500000 0.500000 1 3 1.000000
  3 -3.144000 -0.219000 1.493000 -0.982166 -0.124006 0.141326 0.663086 0.681885 1 3 1.000000
  3 -3.144000 -0.191001 1.515000 -0.981814 -0.109519 0.155071 0.642578 0.698486 1 3 1.000000
attachment_vm_scope_vz_lens
  3 -3.158000 0.001000 1.248000 -0.999974 -0.006947 -0.001758 0.500000 0.500000 1 3 1.000000
  3 -3.144000 -0.244000 1.468000 -0.982842 -0.135772 0.124851 0.681641 0.663086 1 3 1.000000
  3 -3.144000 -0.219000 1.493000 -0.982166 -0.124006 0.141326 0.663086 0.681885 1 3 1.000000
attachment_vm_scope_vz_lens
  3 -3.062000 -0.126000 1.910000 -0.973166 -0.040280 0.226549 0.594238 0.991219 1 3 1.000000
  3 -3.144000 -0.096000 1.563000 -0.982472 -0.050349 0.179484 0.571777 0.733643 1 3 1.000000
  3 -3.062000 -0.197000 1.891999 -0.973107 -0.063529 0.221421 0.646973 0.978149 1 3 1.000000
attachment_vm_scope_vz_lens
  3 -3.062000 -0.197000 1.891999 -0.973107 -0.063529 0.221421 0.646973 0.978149 1 3 1.000000
  3 -3.144000 -0.096000 1.563000 -0.982472 -0.050349 0.179484 0.571777 0.733643 1 3 1.000000
  3 -3.062000 -0.266000 1.867000 -0.973001 -0.089318 0.212819 0.697754 0.959473 1 3 1.000000
attachment_vm_scope_vz_lens
  3 -3.144000 -0.096000 1.563000 -0.982472 -0.050349 0.179484 0.571777 0.733643 1 3 1.000000
  3 -3.144000 -0.129001 1.549999 -0.982303 -0.069790 0.173809 0.596680 0.724365 1 3 1.000000
  3 -3.062000 -0.266000 1.867000 -0.973001 -0.089318 0.212819 0.697754 0.959473 1 3 1.000000
end
