// Created by Crowbar 0.74
version 1
nodes
  0 "tag_thermal" -1
  1 "tag_reticle_attach" 0
  2 "tag_lense_hide" 0
  3 "tag_lense" 0
end
skeleton
  time 0
    0 0.000000 0.000000 0.000000 0.000000 0.000000 0.000000
    1 -0.971000 0.000000 1.370000 0.000000 0.000000 0.000000
    2 -0.971000 0.000000 1.370000 0.000000 0.000000 0.000000
    3 -0.971000 0.000000 1.370000 0.000000 0.000000 0.000000
end
triangles
attachment_vm_thermal_east_lens
  2 -0.981000 0.379000 1.747000 -0.999988 -0.004890 -0.000009 0.158959 0.841576 1 2 1.000000
  2 -0.981000 0.001000 1.370000 -0.999996 -0.002780 -0.000001 0.500512 0.501732 1 2 1.000000
  2 -0.981000 0.340000 1.782000 -0.999996 -0.002828 -0.000001 0.194115 0.873436 1 2 1.000000
attachment_vm_thermal_east_lens
  2 -0.981000 0.001000 1.370000 -0.999996 -0.002780 -0.000001 0.500512 0.501732 1 2 1.000000
  2 -0.981000 0.298000 1.814000 -0.999996 -0.002828 -0.000001 0.231957 0.902001 1 2 1.000000
  2 -0.981000 0.340000 1.782000 -0.999996 -0.002828 -0.000001 0.194115 0.873436 1 2 1.000000
attachment_vm_thermal_east_lens
  2 -0.981000 0.253000 1.841000 -1.000000 -0.000001 0.000000 0.272728 0.926354 1 2 1.000000
  2 -0.981000 0.298000 1.814000 -0.999996 -0.002828 -0.000001 0.231957 0.902001 1 2 1.000000
  2 -0.981000 0.001000 1.370000 -0.999996 -0.002780 -0.000001 0.500512 0.501732 1 2 1.000000
attachment_vm_thermal_east_lens
  2 -0.981000 0.253000 1.841000 -1.000000 -0.000001 0.000000 0.272728 0.926354 1 2 1.000000
  2 -0.981000 0.001000 1.370000 -0.999996 -0.002780 -0.000001 0.500512 0.501732 1 2 1.000000
  2 -0.981000 0.206000 1.864000 -0.999996 -0.002829 -0.000001 0.315697 0.947014 1 2 1.000000
attachment_vm_thermal_east_lens
  2 -0.981000 0.206000 1.864000 -0.999996 -0.002829 -0.000001 0.315697 0.947014 1 2 1.000000
  2 -0.981000 0.001000 1.370000 -0.999996 -0.002780 -0.000001 0.500512 0.501732 1 2 1.000000
  2 -0.981000 0.156000 1.881000 -0.999996 -0.002828 -0.000001 0.360619 0.962944 1 2 1.000000
attachment_vm_thermal_east_lens
  2 -0.981000 0.156000 1.881000 -0.999996 -0.002828 -0.000001 0.360619 0.962944 1 2 1.000000
  2 -0.981000 0.001000 1.370000 -0.999996 -0.002780 -0.000001 0.500512 0.501732 1 2 1.000000
  2 -0.981000 0.105000 1.894000 -0.999996 -0.002828 -0.000001 0.406762 0.974739 1 2 1.000000
attachment_vm_thermal_east_lens
  2 -0.981000 0.105000 1.894000 -0.999996 -0.002828 -0.000001 0.406762 0.974739 1 2 1.000000
  2 -0.981000 0.001000 1.370000 -0.999996 -0.002780 -0.000001 0.500512 0.501732 1 2 1.000000
  2 -0.981000 0.052000 1.902000 -0.999996 -0.002828 -0.000001 0.453881 0.981469 1 2 1.000000
attachment_vm_thermal_east_lens
  2 -0.981000 0.052000 1.902000 -0.999996 -0.002828 -0.000001 0.453881 0.981469 1 2 1.000000
  2 -0.981000 0.001000 1.370000 -0.999996 -0.002780 -0.000001 0.500512 0.501732 1 2 1.000000
  2 -0.981000 0.000000 1.904999 -0.999996 -0.002828 -0.000001 0.501732 0.983849 1 2 1.000000
attachment_vm_thermal_east_lens
  2 -0.981000 0.000000 1.904999 -0.999996 -0.002828 -0.000001 0.501732 0.983849 1 2 1.000000
  2 -0.981000 0.001000 1.370000 -0.999996 -0.002780 -0.000001 0.500512 0.501732 1 2 1.000000
  2 -0.981000 -0.053000 1.901000 -0.999996 -0.002828 -0.000001 0.549096 0.981057 1 2 1.000000
attachment_vm_thermal_east_lens
  2 -0.981000 -0.053000 1.901000 -0.999996 -0.002828 -0.000001 0.549096 0.981057 1 2 1.000000
  2 -0.981000 0.001000 1.370000 -0.999996 -0.002780 -0.000001 0.500512 0.501732 1 2 1.000000
  2 -0.981000 -0.105000 1.894000 -0.999996 -0.002828 -0.000001 0.595971 0.973961 1 2 1.000000
attachment_vm_thermal_east_lens
  2 -0.981000 -0.105000 1.894000 -0.999996 -0.002828 -0.000001 0.595971 0.973961 1 2 1.000000
  2 -0.981000 0.001000 1.370000 -0.999996 -0.002780 -0.000001 0.500512 0.501732 1 2 1.000000
  2 -0.981000 -0.156000 1.880000 -0.999996 -0.002829 -0.000001 0.642357 0.961846 1 2 1.000000
attachment_vm_thermal_east_lens
  2 -0.981000 -0.156000 1.880000 -0.999996 -0.002829 -0.000001 0.642357 0.961846 1 2 1.000000
  2 -0.981000 0.001000 1.370000 -0.999996 -0.002780 -0.000001 0.500512 0.501732 1 2 1.000000
  2 -0.981000 -0.206000 1.862000 -0.999996 -0.002828 -0.000001 0.686791 0.945610 1 2 1.000000
attachment_vm_thermal_east_lens
  2 -0.981000 -0.206000 1.862000 -0.999996 -0.002828 -0.000001 0.686791 0.945610 1 2 1.000000
  2 -0.981000 0.001000 1.370000 -0.999996 -0.002780 -0.000001 0.500512 0.501732 1 2 1.000000
  2 -0.981000 -0.253000 1.839000 -0.999996 -0.002827 -0.000001 0.729271 0.924767 1 2 1.000000
attachment_vm_thermal_east_lens
  2 -0.981000 -0.253000 1.839000 -0.999996 -0.002827 -0.000001 0.729271 0.924767 1 2 1.000000
  2 -0.981000 0.001000 1.370000 -0.999996 -0.002780 -0.000001 0.500512 0.501732 1 2 1.000000
  2 -0.981000 -0.298000 1.812000 -1.000000 0.000000 0.000000 0.769799 0.900170 1 2 1.000000
attachment_vm_thermal_east_lens
  2 -0.981000 -0.298000 1.812000 -1.000000 0.000000 0.000000 0.769799 0.900170 1 2 1.000000
  2 -0.981000 0.001000 1.370000 -0.999996 -0.002780 -0.000001 0.500512 0.501732 1 2 1.000000
  2 -0.981000 -0.340000 1.780000 -0.999996 -0.002828 -0.000001 0.807396 0.871483 1 2 1.000000
attachment_vm_thermal_east_lens
  2 -0.981000 -0.340000 1.780000 -0.999996 -0.002828 -0.000001 0.807396 0.871483 1 2 1.000000
  2 -0.981000 0.001000 1.370000 -0.999996 -0.002780 -0.000001 0.500512 0.501732 1 2 1.000000
  2 -0.981000 -0.378000 1.745000 -0.999996 -0.002828 -0.000001 0.842064 0.839623 1 2 1.000000
attachment_vm_thermal_east_lens
  2 -0.981000 -0.378000 1.745000 -0.999996 -0.002828 -0.000001 0.842064 0.839623 1 2 1.000000
  2 -0.981000 0.001000 1.370000 -0.999996 -0.002780 -0.000001 0.500512 0.501732 1 2 1.000000
  2 -0.981000 -0.413000 1.705000 -0.999988 -0.004890 -0.000009 0.873314 0.804345 1 2 1.000000
attachment_vm_thermal_east_lens
  2 -0.981000 -0.413000 1.705000 -0.999988 -0.004890 -0.000009 0.873314 0.804345 1 2 1.000000
  2 -0.981000 0.001000 1.370000 -0.999996 -0.002780 -0.000001 0.500512 0.501732 1 2 1.000000
  2 -0.981000 -0.443000 1.664000 -0.999996 -0.002828 -0.000001 0.901146 0.766503 1 2 1.000000
attachment_vm_thermal_east_lens
  2 -0.981000 -0.443000 1.664000 -0.999996 -0.002828 -0.000001 0.901146 0.766503 1 2 1.000000
  2 -0.981000 0.001000 1.370000 -0.999996 -0.002780 -0.000001 0.500512 0.501732 1 2 1.000000
  2 -0.981000 -0.470000 1.619000 -0.999996 -0.002828 -0.000009 0.924584 0.726098 1 2 1.000000
attachment_vm_thermal_east_lens
  2 -0.981000 -0.470000 1.619000 -0.999996 -0.002828 -0.000009 0.924584 0.726098 1 2 1.000000
  2 -0.981000 0.001000 1.370000 -0.999996 -0.002780 -0.000001 0.500512 0.501732 1 2 1.000000
  2 -0.981000 -0.492000 1.572000 -1.000000 0.000001 0.000000 0.944115 0.683617 1 2 1.000000
attachment_vm_thermal_east_lens
  2 -0.981000 -0.492000 1.572000 -1.000000 0.000001 0.000000 0.944115 0.683617 1 2 1.000000
  2 -0.981000 0.001000 1.370000 -0.999996 -0.002780 -0.000001 0.500512 0.501732 1 2 1.000000
  2 -0.981000 -0.508000 1.523000 -1.000000 0.000001 0.000000 0.959252 0.639428 1 2 1.000000
attachment_vm_thermal_east_lens
  2 -0.981000 -0.508000 1.523000 -1.000000 0.000001 0.000000 0.959252 0.639428 1 2 1.000000
  2 -0.981000 0.001000 1.370000 -0.999996 -0.002780 -0.000001 0.500512 0.501732 1 2 1.000000
  2 -0.981000 -0.520000 1.473000 -0.999988 -0.004890 -0.000009 0.969994 0.594262 1 2 1.000000
attachment_vm_thermal_east_lens
  2 -0.981000 -0.520000 1.473000 -0.999988 -0.004890 -0.000009 0.969994 0.594262 1 2 1.000000
  2 -0.981000 0.001000 1.370000 -0.999996 -0.002780 -0.000001 0.500512 0.501732 1 2 1.000000
  2 -0.981000 -0.527000 1.421000 -0.999996 -0.002828 -0.000001 0.976342 0.548119 1 2 1.000000
attachment_vm_thermal_east_lens
  2 -0.981000 -0.527000 1.421000 -0.999996 -0.002828 -0.000001 0.976342 0.548119 1 2 1.000000
  2 -0.981000 0.001000 1.370000 -0.999996 -0.002780 -0.000001 0.500512 0.501732 1 2 1.000000
  2 -0.981000 -0.530000 1.370000 -0.999988 -0.004890 -0.000009 0.979271 0.501732 1 2 1.000000
attachment_vm_thermal_east_lens
  2 -0.981000 -0.530000 1.370000 -0.999988 -0.004890 -0.000009 0.979271 0.501732 1 2 1.000000
  2 -0.981000 0.001000 1.370000 -0.999996 -0.002780 -0.000001 0.500512 0.501732 1 2 1.000000
  2 -0.981000 -0.527000 1.318000 -0.999988 -0.004890 -0.000009 0.976830 0.455346 1 2 1.000000
attachment_vm_thermal_east_lens
  2 -0.981000 -0.527000 1.318000 -0.999988 -0.004890 -0.000009 0.976830 0.455346 1 2 1.000000
  2 -0.981000 0.001000 1.370000 -0.999996 -0.002780 -0.000001 0.500512 0.501732 1 2 1.000000
  2 -0.981000 -0.520000 1.267000 -0.999988 -0.004890 -0.000001 0.970482 0.408959 1 2 1.000000
attachment_vm_thermal_east_lens
  2 -0.981000 -0.520000 1.267000 -0.999988 -0.004890 -0.000001 0.970482 0.408959 1 2 1.000000
  2 -0.981000 0.001000 1.370000 -0.999996 -0.002780 -0.000001 0.500512 0.501732 1 2 1.000000
  2 -0.981000 -0.508000 1.217000 -1.000000 0.000001 0.000000 0.959252 0.364037 1 2 1.000000
attachment_vm_thermal_east_lens
  2 -0.981000 -0.508000 1.217000 -1.000000 0.000001 0.000000 0.959252 0.364037 1 2 1.000000
  2 -0.981000 0.001000 1.370000 -0.999996 -0.002780 -0.000001 0.500512 0.501732 1 2 1.000000
  2 -0.981000 -0.491000 1.168000 -0.999988 -0.004889 -0.000009 0.944115 0.320092 1 2 1.000000
attachment_vm_thermal_east_lens
  2 -0.981000 -0.491000 1.168000 -0.999988 -0.004889 -0.000009 0.944115 0.320092 1 2 1.000000
  2 -0.981000 0.001000 1.370000 -0.999996 -0.002780 -0.000001 0.500512 0.501732 1 2 1.000000
  2 -0.981000 -0.469000 1.121000 -0.999996 -0.002828 -0.000001 0.924096 0.277611 1 2 1.000000
attachment_vm_thermal_east_lens
  2 -0.981000 -0.469000 1.121000 -0.999996 -0.002828 -0.000001 0.924096 0.277611 1 2 1.000000
  2 -0.981000 0.001000 1.370000 -0.999996 -0.002780 -0.000001 0.500512 0.501732 1 2 1.000000
  2 -0.981000 -0.443000 1.075999 -0.999988 -0.004891 -0.000009 0.900658 0.237084 1 2 1.000000
attachment_vm_thermal_east_lens
  2 -0.981000 -0.443000 1.075999 -0.999988 -0.004891 -0.000009 0.900658 0.237084 1 2 1.000000
  2 -0.981000 0.001000 1.370000 -0.999996 -0.002780 -0.000001 0.500512 0.501732 1 2 1.000000
  2 -0.981000 -0.412000 1.034000 -0.999996 -0.002829 -0.000001 0.873314 0.198998 1 2 1.000000
attachment_vm_thermal_east_lens
  2 -0.981000 -0.412000 1.034000 -0.999996 -0.002829 -0.000001 0.873314 0.198998 1 2 1.000000
  2 -0.981000 0.001000 1.370000 -0.999996 -0.002780 -0.000001 0.500512 0.501732 1 2 1.000000
  2 -0.981000 -0.378000 0.995000 -0.999996 -0.002828 -0.000009 0.842064 0.163842 1 2 1.000000
attachment_vm_thermal_east_lens
  2 -0.981000 -0.378000 0.995000 -0.999996 -0.002828 -0.000009 0.842064 0.163842 1 2 1.000000
  2 -0.981000 0.001000 1.370000 -0.999996 -0.002780 -0.000001 0.500512 0.501732 1 2 1.000000
  2 -0.981000 -0.340000 0.960000 -0.999996 -0.002828 -0.000001 0.807396 0.131615 1 2 1.000000
attachment_vm_thermal_east_lens
  2 -0.981000 -0.340000 0.960000 -0.999996 -0.002828 -0.000001 0.807396 0.131615 1 2 1.000000
  2 -0.981000 0.001000 1.370000 -0.999996 -0.002780 -0.000001 0.500512 0.501732 1 2 1.000000
  2 -0.981000 -0.298000 0.928000 -0.999988 -0.004890 -0.000009 0.769799 0.102806 1 2 1.000000
attachment_vm_thermal_east_lens
  2 -0.981000 -0.298000 0.928000 -0.999988 -0.004890 -0.000009 0.769799 0.102806 1 2 1.000000
  2 -0.981000 0.001000 1.370000 -0.999996 -0.002780 -0.000001 0.500512 0.501732 1 2 1.000000
  2 -0.981000 -0.253000 0.900000 -0.999996 -0.002828 -0.000001 0.729271 0.078392 1 2 1.000000
attachment_vm_thermal_east_lens
  2 -0.981000 -0.253000 0.900000 -0.999996 -0.002828 -0.000001 0.729271 0.078392 1 2 1.000000
  2 -0.981000 0.001000 1.370000 -0.999996 -0.002780 -0.000001 0.500512 0.501732 1 2 1.000000
  2 -0.981000 -0.206000 0.877000 -0.999996 -0.002828 -0.000001 0.686791 0.057396 1 2 1.000000
attachment_vm_thermal_east_lens
  2 -0.981000 -0.206000 0.877000 -0.999996 -0.002828 -0.000001 0.686791 0.057396 1 2 1.000000
  2 -0.981000 0.001000 1.370000 -0.999996 -0.002780 -0.000001 0.500512 0.501732 1 2 1.000000
  2 -0.981000 -0.156000 0.858999 -0.999996 -0.002828 -0.000001 0.642357 0.040795 1 2 1.000000
attachment_vm_thermal_east_lens
  2 -0.981000 -0.156000 0.858999 -0.999996 -0.002828 -0.000001 0.642357 0.040795 1 2 1.000000
  2 -0.981000 0.001000 1.370000 -0.999996 -0.002780 -0.000001 0.500512 0.501732 1 2 1.000000
  2 -0.981000 -0.105000 0.846000 -0.999996 -0.002828 -0.000001 0.595971 0.029076 1 2 1.000000
attachment_vm_thermal_east_lens
  2 -0.981000 -0.105000 0.846000 -0.999996 -0.002828 -0.000001 0.595971 0.029076 1 2 1.000000
  2 -0.981000 0.001000 1.370000 -0.999996 -0.002780 -0.000001 0.500512 0.501732 1 2 1.000000
  2 -0.981000 -0.053000 0.838000 -0.999996 -0.002828 -0.000001 0.549096 0.021752 1 2 1.000000
attachment_vm_thermal_east_lens
  2 -0.981000 -0.053000 0.838000 -0.999996 -0.002828 -0.000001 0.549096 0.021752 1 2 1.000000
  2 -0.981000 0.001000 1.370000 -0.999996 -0.002780 -0.000001 0.500512 0.501732 1 2 1.000000
  2 -0.981000 0.000000 0.835000 -0.999996 -0.002826 -0.000001 0.501244 0.019310 1 2 1.000000
attachment_vm_thermal_east_lens
  2 -0.981000 0.000000 0.835000 -0.999996 -0.002826 -0.000001 0.501244 0.019310 1 2 1.000000
  2 -0.981000 0.001000 1.370000 -0.999996 -0.002780 -0.000001 0.500512 0.501732 1 2 1.000000
  2 -0.981000 0.053000 0.837000 -0.999996 -0.002826 -0.000001 0.453637 0.021752 1 2 1.000000
attachment_vm_thermal_east_lens
  2 -0.981000 0.053000 0.837000 -0.999996 -0.002826 -0.000001 0.453637 0.021752 1 2 1.000000
  2 -0.981000 0.001000 1.370000 -0.999996 -0.002780 -0.000001 0.500512 0.501732 1 2 1.000000
  2 -0.981000 0.105000 0.845000 -0.999996 -0.002828 -0.000001 0.406517 0.028099 1 2 1.000000
attachment_vm_thermal_east_lens
  2 -0.981000 0.105000 0.845000 -0.999996 -0.002828 -0.000001 0.406517 0.028099 1 2 1.000000
  2 -0.981000 0.001000 1.370000 -0.999996 -0.002780 -0.000001 0.500512 0.501732 1 2 1.000000
  2 -0.981000 0.156000 0.858000 -0.999996 -0.002828 -0.000001 0.360131 0.040306 1 2 1.000000
attachment_vm_thermal_east_lens
  2 -0.981000 0.156000 0.858000 -0.999996 -0.002828 -0.000001 0.360131 0.040306 1 2 1.000000
  2 -0.981000 0.001000 1.370000 -0.999996 -0.002780 -0.000001 0.500512 0.501732 1 2 1.000000
  2 -0.981000 0.206000 0.876000 -1.000000 -0.000001 0.000000 0.315209 0.055931 1 2 1.000000
attachment_vm_thermal_east_lens
  2 -0.981000 0.206000 0.876000 -1.000000 -0.000001 0.000000 0.315209 0.055931 1 2 1.000000
  2 -0.981000 0.001000 1.370000 -0.999996 -0.002780 -0.000001 0.500512 0.501732 1 2 1.000000
  2 -0.981000 0.254000 0.899000 -0.999996 -0.002829 -0.000001 0.272484 0.076928 1 2 1.000000
attachment_vm_thermal_east_lens
  2 -0.981000 0.254000 0.899000 -0.999996 -0.002829 -0.000001 0.272484 0.076928 1 2 1.000000
  2 -0.981000 0.001000 1.370000 -0.999996 -0.002780 -0.000001 0.500512 0.501732 1 2 1.000000
  2 -0.981000 0.299000 0.926000 -0.999996 -0.002828 -0.000001 0.231591 0.101342 1 2 1.000000
attachment_vm_thermal_east_lens
  2 -0.981000 0.299000 0.926000 -0.999996 -0.002828 -0.000001 0.231591 0.101342 1 2 1.000000
  2 -0.981000 0.001000 1.370000 -0.999996 -0.002780 -0.000001 0.500512 0.501732 1 2 1.000000
  2 -0.981000 0.341000 0.958000 -0.999996 -0.002828 -0.000001 0.193871 0.130150 1 2 1.000000
attachment_vm_thermal_east_lens
  2 -0.981000 0.341000 0.958000 -0.999996 -0.002828 -0.000001 0.193871 0.130150 1 2 1.000000
  2 -0.981000 0.001000 1.370000 -0.999996 -0.002780 -0.000001 0.500512 0.501732 1 2 1.000000
  2 -0.981000 0.380000 0.993000 -1.000000 -0.000336 -0.000003 0.158837 0.161889 1 2 1.000000
attachment_vm_thermal_east_lens
  2 -0.981000 0.380000 0.993000 -1.000000 -0.000336 -0.000003 0.158837 0.161889 1 2 1.000000
  2 -0.981000 0.001000 1.370000 -0.999996 -0.002780 -0.000001 0.500512 0.501732 1 2 1.000000
  2 -0.981000 0.414000 1.031999 -1.000000 0.000000 0.000000 0.127465 0.197533 1 2 1.000000
attachment_vm_thermal_east_lens
  2 -0.981000 0.414000 1.031999 -1.000000 0.000000 0.000000 0.127465 0.197533 1 2 1.000000
  2 -0.981000 0.001000 1.370000 -0.999996 -0.002780 -0.000001 0.500512 0.501732 1 2 1.000000
  2 -0.981000 0.445000 1.075000 -0.999988 -0.004889 -0.000001 0.099511 0.235619 1 2 1.000000
attachment_vm_thermal_east_lens
  2 -0.981000 0.445000 1.075000 -0.999988 -0.004889 -0.000001 0.099511 0.235619 1 2 1.000000
  2 -0.981000 0.001000 1.370000 -0.999996 -0.002780 -0.000001 0.500512 0.501732 1 2 1.000000
  2 -0.981000 0.472000 1.120000 -0.999988 -0.004889 -0.000001 0.075768 0.276146 1 2 1.000000
attachment_vm_thermal_east_lens
  2 -0.981000 0.472000 1.120000 -0.999988 -0.004889 -0.000001 0.075768 0.276146 1 2 1.000000
  2 -0.981000 0.001000 1.370000 -0.999996 -0.002780 -0.000001 0.500512 0.501732 1 2 1.000000
  2 -0.981000 0.494000 1.167000 -0.999988 -0.004890 -0.000009 0.055718 0.318627 1 2 1.000000
attachment_vm_thermal_east_lens
  2 -0.981000 0.494000 1.167000 -0.999988 -0.004890 -0.000009 0.055718 0.318627 1 2 1.000000
  2 -0.981000 0.001000 1.370000 -0.999996 -0.002780 -0.000001 0.500512 0.501732 1 2 1.000000
  2 -0.981000 0.511000 1.216000 -1.000000 0.000000 0.000000 0.040337 0.363060 1 2 1.000000
attachment_vm_thermal_east_lens
  2 -0.981000 0.511000 1.216000 -1.000000 0.000000 0.000000 0.040337 0.363060 1 2 1.000000
  2 -0.981000 0.001000 1.370000 -0.999996 -0.002780 -0.000001 0.500512 0.501732 1 2 1.000000
  2 -0.981000 0.524000 1.267000 -0.999996 -0.002828 -0.000001 0.028939 0.408471 1 2 1.000000
attachment_vm_thermal_east_lens
  2 -0.981000 0.524000 1.267000 -0.999996 -0.002828 -0.000001 0.028939 0.408471 1 2 1.000000
  2 -0.981000 0.001000 1.370000 -0.999996 -0.002780 -0.000001 0.500512 0.501732 1 2 1.000000
  2 -0.981000 0.531000 1.318000 -0.999996 -0.002828 -0.000023 0.022423 0.454857 1 2 1.000000
attachment_vm_thermal_east_lens
  2 -0.981000 0.531000 1.318000 -0.999996 -0.002828 -0.000023 0.022423 0.454857 1 2 1.000000
  2 -0.981000 0.001000 1.370000 -0.999996 -0.002780 -0.000001 0.500512 0.501732 1 2 1.000000
  2 -0.981000 0.533000 1.370000 -1.000000 0.000000 0.000000 0.020058 0.501976 1 2 1.000000
attachment_vm_thermal_east_lens
  2 -0.981000 0.533000 1.370000 -1.000000 0.000000 0.000000 0.020058 0.501976 1 2 1.000000
  2 -0.981000 0.001000 1.370000 -0.999996 -0.002780 -0.000001 0.500512 0.501732 1 2 1.000000
  2 -0.981000 0.531000 1.422000 -1.000000 -0.000336 0.000000 0.022698 0.548607 1 2 1.000000
attachment_vm_thermal_east_lens
  2 -0.981000 0.531000 1.422000 -1.000000 -0.000336 0.000000 0.022698 0.548607 1 2 1.000000
  2 -0.981000 0.001000 1.370000 -0.999996 -0.002780 -0.000001 0.500512 0.501732 1 2 1.000000
  2 -0.981000 0.523000 1.473000 -0.999988 -0.004890 -0.000009 0.029274 0.594994 1 2 1.000000
attachment_vm_thermal_east_lens
  2 -0.981000 0.523000 1.473000 -0.999988 -0.004890 -0.000009 0.029274 0.594994 1 2 1.000000
  2 -0.981000 0.001000 1.370000 -0.999996 -0.002780 -0.000001 0.500512 0.501732 1 2 1.000000
  2 -0.981000 0.511000 1.524000 -0.999996 -0.002828 -0.000001 0.040398 0.640648 1 2 1.000000
attachment_vm_thermal_east_lens
  2 -0.981000 0.511000 1.524000 -0.999996 -0.002828 -0.000001 0.040398 0.640648 1 2 1.000000
  2 -0.981000 0.001000 1.370000 -0.999996 -0.002780 -0.000001 0.500512 0.501732 1 2 1.000000
  2 -0.981000 0.494000 1.573000 -0.999996 -0.002828 -0.000001 0.055504 0.685082 1 2 1.000000
attachment_vm_thermal_east_lens
  2 -0.981000 0.494000 1.573000 -0.999996 -0.002828 -0.000001 0.055504 0.685082 1 2 1.000000
  2 -0.981000 0.001000 1.370000 -0.999996 -0.002780 -0.000001 0.500512 0.501732 1 2 1.000000
  2 -0.981000 0.472000 1.621000 -0.999996 -0.002828 -0.000001 0.075585 0.727562 1 2 1.000000
attachment_vm_thermal_east_lens
  2 -0.981000 0.472000 1.621000 -0.999996 -0.002828 -0.000001 0.075585 0.727562 1 2 1.000000
  2 -0.981000 0.001000 1.370000 -0.999996 -0.002780 -0.000001 0.500512 0.501732 1 2 1.000000
  2 -0.981000 0.445000 1.666000 -0.999988 -0.004890 -0.000009 0.099511 0.768334 1 2 1.000000
attachment_vm_thermal_east_lens
  2 -0.981000 0.445000 1.666000 -0.999988 -0.004890 -0.000009 0.099511 0.768334 1 2 1.000000
  2 -0.981000 0.001000 1.370000 -0.999996 -0.002780 -0.000001 0.500512 0.501732 1 2 1.000000
  2 -0.981000 0.414000 1.707999 -0.999996 -0.002828 -0.000001 0.127587 0.806298 1 2 1.000000
attachment_vm_thermal_east_lens
  2 -0.981000 0.414000 1.707999 -0.999996 -0.002828 -0.000001 0.127587 0.806298 1 2 1.000000
  2 -0.981000 0.001000 1.370000 -0.999996 -0.002780 -0.000001 0.500512 0.501732 1 2 1.000000
  2 -0.981000 0.379000 1.747000 -0.999988 -0.004890 -0.000009 0.158959 0.841576 1 2 1.000000
end
