// Created by Crowbar 0.74
version 1
nodes
  0 "tag_thermal" -1
  1 "tag_reticle_attach" 0
  2 "tag_lense_hide" 0
  3 "tag_lense" 0
end
skeleton
  time 0
    0 0.000000 0.000000 0.000000 0.000000 0.000000 0.000000
    1 -0.971000 0.000000 1.370000 0.000000 0.000000 0.000000
    2 -0.971000 0.000000 1.370000 0.000000 0.000000 0.000000
    3 -0.971000 0.000000 1.370000 0.000000 0.000000 0.000000
end
triangles
ads_scope_lens_1
  3 -1.001000 0.204000 1.723000 -0.984786 0.081967 0.153222 0.824829 0.687500 1 3 1.000000
  3 -0.974000 0.272000 1.841000 -0.980684 0.095270 0.170826 0.932983 0.750000 1 3 1.000000
  3 -0.974000 0.385000 1.754000 -0.981571 0.131929 0.138250 0.853638 0.853638 1 3 1.000000
ads_scope_lens_1
  3 -1.001000 0.204000 1.723000 -0.984786 0.081967 0.153222 0.824829 0.687500 1 3 1.000000
  3 -0.974000 0.141000 1.895000 -0.981338 0.044083 0.187169 0.983002 0.629395 1 3 1.000000
  3 -0.974000 0.272000 1.841000 -0.980684 0.095270 0.170826 0.932983 0.750000 1 3 1.000000
ads_scope_lens_1
  3 -1.001000 0.000000 1.778000 -0.984549 0.006221 0.175001 0.875000 0.500000 1 3 1.000000
  3 -0.974000 -0.140000 1.895000 -0.981235 -0.046939 0.187014 0.983002 0.370605 1 3 1.000000
  3 -0.974000 0.000000 1.914000 -0.980791 -0.002976 0.195039 1.000000 0.500000 1 3 1.000000
ads_scope_lens_1
  3 -1.001000 0.000000 1.778000 -0.984549 0.006221 0.175001 0.875000 0.500000 1 3 1.000000
  3 -0.974000 0.000000 1.914000 -0.980791 -0.002976 0.195039 1.000000 0.500000 1 3 1.000000
  3 -0.974000 0.141000 1.895000 -0.981338 0.044083 0.187169 0.983002 0.629395 1 3 1.000000
ads_scope_lens_1
  3 -1.001000 0.106000 1.764000 -0.984557 0.043300 0.169623 0.862183 0.597168 1 3 1.000000
  3 -1.001000 0.000000 1.778000 -0.984549 0.006221 0.175001 0.875000 0.500000 1 3 1.000000
  3 -0.974000 0.141000 1.895000 -0.981338 0.044083 0.187169 0.983002 0.629395 1 3 1.000000
ads_scope_lens_1
  3 -1.001000 0.204000 1.723000 -0.984786 0.081967 0.153222 0.824829 0.687500 1 3 1.000000
  3 -1.001000 0.106000 1.764000 -0.984557 0.043300 0.169623 0.862183 0.597168 1 3 1.000000
  3 -0.974000 0.141000 1.895000 -0.981338 0.044083 0.187169 0.983002 0.629395 1 3 1.000000
ads_scope_lens_1
  3 -1.020000 0.071000 1.633000 -0.993203 0.025705 0.113522 0.741455 0.564697 1 3 1.000000
  3 -1.001000 0.106000 1.764000 -0.984557 0.043300 0.169623 0.862183 0.597168 1 3 1.000000
  3 -1.001000 0.204000 1.723000 -0.984786 0.081967 0.153222 0.824829 0.687500 1 3 1.000000
ads_scope_lens_1
  3 -1.020000 0.136000 1.605000 -0.992744 0.058477 0.105073 0.716553 0.625000 1 3 1.000000
  3 -1.020000 0.071000 1.633000 -0.993203 0.025705 0.113522 0.741455 0.564697 1 3 1.000000
  3 -1.001000 0.204000 1.723000 -0.984786 0.081967 0.153222 0.824829 0.687500 1 3 1.000000
ads_scope_lens_1
  3 -1.020000 0.136000 1.605000 -0.992744 0.058477 0.105073 0.716553 0.625000 1 3 1.000000
  3 -1.032000 0.031000 1.485000 -0.997714 0.014152 0.066083 0.605469 0.528320 1 3 1.000000
  3 -1.020000 0.071000 1.633000 -0.993203 0.025705 0.113522 0.741455 0.564697 1 3 1.000000
ads_scope_lens_1
  3 -1.032000 0.031000 1.485000 -0.997714 0.014152 0.066083 0.605469 0.528320 1 3 1.000000
  3 -1.020000 0.000000 1.642000 -0.992886 0.005010 0.118960 0.750000 0.500000 1 3 1.000000
  3 -1.020000 0.071000 1.633000 -0.993203 0.025705 0.113522 0.741455 0.564697 1 3 1.000000
ads_scope_lens_1
  3 -1.032000 0.000000 1.489000 -0.997611 -0.005233 0.068878 0.609131 0.500000 1 3 1.000000
  3 -1.020000 0.000000 1.642000 -0.992886 0.005010 0.118960 0.750000 0.500000 1 3 1.000000
  3 -1.032000 0.031000 1.485000 -0.997714 0.014152 0.066083 0.605469 0.528320 1 3 1.000000
ads_scope_lens_1
  3 -1.020000 0.071000 1.633000 -0.993203 0.025705 0.113522 0.741455 0.564697 1 3 1.000000
  3 -1.001000 0.000000 1.778000 -0.984549 0.006221 0.175001 0.875000 0.500000 1 3 1.000000
  3 -1.001000 0.106000 1.764000 -0.984557 0.043300 0.169623 0.862183 0.597168 1 3 1.000000
ads_scope_lens_1
  3 -1.020000 0.000000 1.642000 -0.992886 0.005010 0.118960 0.750000 0.500000 1 3 1.000000
  3 -1.001000 0.000000 1.778000 -0.984549 0.006221 0.175001 0.875000 0.500000 1 3 1.000000
  3 -1.020000 0.071000 1.633000 -0.993203 0.025705 0.113522 0.741455 0.564697 1 3 1.000000
ads_scope_lens_1
  3 -1.001000 0.000000 1.778000 -0.984549 0.006221 0.175001 0.875000 0.500000 1 3 1.000000
  3 -1.001000 -0.105000 1.764000 -0.984675 -0.040378 0.169662 0.862183 0.402832 1 3 1.000000
  3 -0.974000 -0.140000 1.895000 -0.981235 -0.046939 0.187014 0.983002 0.370605 1 3 1.000000
ads_scope_lens_1
  3 -1.020000 -0.070000 1.633000 -0.992841 -0.028293 0.116042 0.741455 0.435059 1 3 1.000000
  3 -1.001000 -0.105000 1.764000 -0.984675 -0.040378 0.169662 0.862183 0.402832 1 3 1.000000
  3 -1.001000 0.000000 1.778000 -0.984549 0.006221 0.175001 0.875000 0.500000 1 3 1.000000
ads_scope_lens_1
  3 -1.020000 -0.070000 1.633000 -0.992841 -0.028293 0.116042 0.741455 0.435059 1 3 1.000000
  3 -1.001000 0.000000 1.778000 -0.984549 0.006221 0.175001 0.875000 0.500000 1 3 1.000000
  3 -1.020000 0.000000 1.642000 -0.992886 0.005010 0.118960 0.750000 0.500000 1 3 1.000000
ads_scope_lens_1
  3 -1.020000 -0.070000 1.633000 -0.992841 -0.028293 0.116042 0.741455 0.435059 1 3 1.000000
  3 -1.020000 0.000000 1.642000 -0.992886 0.005010 0.118960 0.750000 0.500000 1 3 1.000000
  3 -1.032000 -0.030000 1.485000 -0.997741 -0.011316 0.066221 0.605469 0.471680 1 3 1.000000
ads_scope_lens_1
  3 -1.032000 -0.030000 1.485000 -0.997741 -0.011316 0.066221 0.605469 0.471680 1 3 1.000000
  3 -1.020000 0.000000 1.642000 -0.992886 0.005010 0.118960 0.750000 0.500000 1 3 1.000000
  3 -1.032000 0.000000 1.489000 -0.997611 -0.005233 0.068878 0.609131 0.500000 1 3 1.000000
ads_scope_lens_1
  3 -1.035000 0.000000 1.370000 -0.999975 0.006810 -0.001723 0.500000 0.500000 1 3 1.000000
  3 -1.032000 -0.030000 1.485000 -0.997741 -0.011316 0.066221 0.605469 0.471680 1 3 1.000000
  3 -1.032000 0.000000 1.489000 -0.997611 -0.005233 0.068878 0.609131 0.500000 1 3 1.000000
ads_scope_lens_1
  3 -1.035000 0.000000 1.370000 -0.999975 0.006810 -0.001723 0.500000 0.500000 1 3 1.000000
  3 -1.032000 0.000000 1.489000 -0.997611 -0.005233 0.068878 0.609131 0.500000 1 3 1.000000
  3 -1.032000 0.031000 1.485000 -0.997714 0.014152 0.066083 0.605469 0.528320 1 3 1.000000
ads_scope_lens_1
  3 -1.035000 0.000000 1.370000 -0.999975 0.006810 -0.001723 0.500000 0.500000 1 3 1.000000
  3 -1.032000 0.031000 1.485000 -0.997714 0.014152 0.066083 0.605469 0.528320 1 3 1.000000
  3 -1.032000 0.060000 1.473000 -0.997687 0.030730 0.060630 0.594482 0.554687 1 3 1.000000
ads_scope_lens_1
  3 -1.032000 0.060000 1.473000 -0.997687 0.030730 0.060630 0.594482 0.554687 1 3 1.000000
  3 -1.032000 0.031000 1.485000 -0.997714 0.014152 0.066083 0.605469 0.528320 1 3 1.000000
  3 -1.020000 0.136000 1.605000 -0.992744 0.058477 0.105073 0.716553 0.625000 1 3 1.000000
ads_scope_lens_1
  3 -1.020000 0.193000 1.562000 -0.993240 0.080851 0.083293 0.676758 0.676758 1 3 1.000000
  3 -1.032000 0.060000 1.473000 -0.997687 0.030730 0.060630 0.594482 0.554687 1 3 1.000000
  3 -1.020000 0.136000 1.605000 -0.992744 0.058477 0.105073 0.716553 0.625000 1 3 1.000000
ads_scope_lens_1
  3 -1.020000 0.193000 1.562000 -0.993240 0.080851 0.083293 0.676758 0.676758 1 3 1.000000
  3 -1.020000 0.136000 1.605000 -0.992744 0.058477 0.105073 0.716553 0.625000 1 3 1.000000
  3 -1.001000 0.204000 1.723000 -0.984786 0.081967 0.153222 0.824829 0.687500 1 3 1.000000
ads_scope_lens_1
  3 -1.020000 0.193000 1.562000 -0.993240 0.080851 0.083293 0.676758 0.676758 1 3 1.000000
  3 -1.001000 0.204000 1.723000 -0.984786 0.081967 0.153222 0.824829 0.687500 1 3 1.000000
  3 -1.001000 0.289000 1.658000 -0.984458 0.122561 0.125783 0.765259 0.765259 1 3 1.000000
ads_scope_lens_1
  3 -1.001000 0.289000 1.658000 -0.984458 0.122561 0.125783 0.765259 0.765259 1 3 1.000000
  3 -1.001000 0.204000 1.723000 -0.984786 0.081967 0.153222 0.824829 0.687500 1 3 1.000000
  3 -0.974000 0.385000 1.754000 -0.981571 0.131929 0.138250 0.853638 0.853638 1 3 1.000000
ads_scope_lens_1
  3 -1.001000 0.289000 1.658000 -0.984458 0.122561 0.125783 0.765259 0.765259 1 3 1.000000
  3 -0.974000 0.385000 1.754000 -0.981571 0.131929 0.138250 0.853638 0.853638 1 3 1.000000
  3 -0.974000 0.471000 1.642000 -0.981488 0.164978 0.097278 0.750000 0.932983 1 3 1.000000
ads_scope_lens_1
  3 -1.001000 0.354000 1.574000 -0.984736 0.150430 0.087555 0.687500 0.824829 1 3 1.000000
  3 -1.001000 0.289000 1.658000 -0.984458 0.122561 0.125783 0.765259 0.765259 1 3 1.000000
  3 -0.974000 0.471000 1.642000 -0.981488 0.164978 0.097278 0.750000 0.932983 1 3 1.000000
ads_scope_lens_1
  3 -1.001000 0.394000 1.475000 -0.984835 0.167248 0.046139 0.597168 0.862183 1 3 1.000000
  3 -1.001000 0.354000 1.574000 -0.984736 0.150430 0.087555 0.687500 0.824829 1 3 1.000000
  3 -0.974000 0.471000 1.642000 -0.981488 0.164978 0.097278 0.750000 0.932983 1 3 1.000000
ads_scope_lens_1
  3 -1.020000 0.236000 1.506000 -0.993250 0.100200 0.058434 0.625000 0.716553 1 3 1.000000
  3 -1.001000 0.354000 1.574000 -0.984736 0.150430 0.087555 0.687500 0.824829 1 3 1.000000
  3 -1.001000 0.394000 1.475000 -0.984835 0.167248 0.046139 0.597168 0.862183 1 3 1.000000
ads_scope_lens_1
  3 -1.020000 0.263000 1.440000 -0.993592 0.108725 0.030881 0.564697 0.741455 1 3 1.000000
  3 -1.020000 0.236000 1.506000 -0.993250 0.100200 0.058434 0.625000 0.716553 1 3 1.000000
  3 -1.001000 0.394000 1.475000 -0.984835 0.167248 0.046139 0.597168 0.862183 1 3 1.000000
ads_scope_lens_1
  3 -1.032000 0.084000 1.454000 -0.997770 0.044675 0.049585 0.577148 0.577148 1 3 1.000000
  3 -1.032000 0.060000 1.473000 -0.997687 0.030730 0.060630 0.594482 0.554687 1 3 1.000000
  3 -1.020000 0.193000 1.562000 -0.993240 0.080851 0.083293 0.676758 0.676758 1 3 1.000000
ads_scope_lens_1
  3 -1.035000 0.000000 1.370000 -0.999975 0.006810 -0.001723 0.500000 0.500000 1 3 1.000000
  3 -1.032000 0.060000 1.473000 -0.997687 0.030730 0.060630 0.594482 0.554687 1 3 1.000000
  3 -1.032000 0.084000 1.454000 -0.997770 0.044675 0.049585 0.577148 0.577148 1 3 1.000000
ads_scope_lens_1
  3 -1.035000 0.000000 1.370000 -0.999975 0.006810 -0.001723 0.500000 0.500000 1 3 1.000000
  3 -1.032000 0.084000 1.454000 -0.997770 0.044675 0.049585 0.577148 0.577148 1 3 1.000000
  3 -1.032000 0.103000 1.429000 -0.997900 0.055653 0.033147 0.554688 0.594482 1 3 1.000000
ads_scope_lens_1
  3 -1.035000 0.000000 1.370000 -0.999975 0.006810 -0.001723 0.500000 0.500000 1 3 1.000000
  3 -1.032000 0.103000 1.429000 -0.997900 0.055653 0.033147 0.554688 0.594482 1 3 1.000000
  3 -1.032000 0.115000 1.401000 -0.997985 0.061237 0.016613 0.528320 0.605469 1 3 1.000000
ads_scope_lens_1
  3 -1.032000 0.115000 1.401000 -0.997985 0.061237 0.016613 0.528320 0.605469 1 3 1.000000
  3 -1.032000 0.103000 1.429000 -0.997900 0.055653 0.033147 0.554688 0.594482 1 3 1.000000
  3 -1.020000 0.236000 1.506000 -0.993250 0.100200 0.058434 0.625000 0.716553 1 3 1.000000
ads_scope_lens_1
  3 -1.032000 0.103000 1.429000 -0.997900 0.055653 0.033147 0.554688 0.594482 1 3 1.000000
  3 -1.032000 0.084000 1.454000 -0.997770 0.044675 0.049585 0.577148 0.577148 1 3 1.000000
  3 -1.020000 0.236000 1.506000 -0.993250 0.100200 0.058434 0.625000 0.716553 1 3 1.000000
ads_scope_lens_1
  3 -1.020000 0.236000 1.506000 -0.993250 0.100200 0.058434 0.625000 0.716553 1 3 1.000000
  3 -1.032000 0.084000 1.454000 -0.997770 0.044675 0.049585 0.577148 0.577148 1 3 1.000000
  3 -1.020000 0.193000 1.562000 -0.993240 0.080851 0.083293 0.676758 0.676758 1 3 1.000000
ads_scope_lens_1
  3 -1.020000 0.236000 1.506000 -0.993250 0.100200 0.058434 0.625000 0.716553 1 3 1.000000
  3 -1.020000 0.193000 1.562000 -0.993240 0.080851 0.083293 0.676758 0.676758 1 3 1.000000
  3 -1.001000 0.289000 1.658000 -0.984458 0.122561 0.125783 0.765259 0.765259 1 3 1.000000
ads_scope_lens_1
  3 -1.020000 0.236000 1.506000 -0.993250 0.100200 0.058434 0.625000 0.716553 1 3 1.000000
  3 -1.001000 0.289000 1.658000 -0.984458 0.122561 0.125783 0.765259 0.765259 1 3 1.000000
  3 -1.001000 0.354000 1.574000 -0.984736 0.150430 0.087555 0.687500 0.824829 1 3 1.000000
ads_scope_lens_1
  3 -1.035000 0.000000 1.370000 -0.999975 0.006810 -0.001723 0.500000 0.500000 1 3 1.000000
  3 -1.032000 0.115000 1.401000 -0.997985 0.061237 0.016613 0.528320 0.605469 1 3 1.000000
  3 -1.032000 0.119000 1.370000 -0.997774 0.066691 -0.000078 0.500000 0.609131 1 3 1.000000
ads_scope_lens_1
  3 -1.032000 -0.114000 1.339000 -0.998005 -0.060803 -0.016998 0.471680 0.394531 1 3 1.000000
  3 -1.035000 0.000000 1.370000 -0.999975 0.006810 -0.001723 0.500000 0.500000 1 3 1.000000
  3 -1.032000 -0.102000 1.311000 -0.997911 -0.055222 -0.033528 0.445313 0.405273 1 3 1.000000
ads_scope_lens_1
  3 -1.032000 -0.118000 1.370000 -0.997800 -0.066294 -0.000310 0.500000 0.390625 1 3 1.000000
  3 -1.035000 0.000000 1.370000 -0.999975 0.006810 -0.001723 0.500000 0.500000 1 3 1.000000
  3 -1.032000 -0.114000 1.339000 -0.998005 -0.060803 -0.016998 0.471680 0.394531 1 3 1.000000
ads_scope_lens_1
  3 -1.020000 0.263000 1.440000 -0.993592 0.108725 0.030881 0.564697 0.741455 1 3 1.000000
  3 -1.032000 0.115000 1.401000 -0.997985 0.061237 0.016613 0.528320 0.605469 1 3 1.000000
  3 -1.020000 0.236000 1.506000 -0.993250 0.100200 0.058434 0.625000 0.716553 1 3 1.000000
ads_scope_lens_1
  3 -1.020000 0.272000 1.370000 -0.993454 0.114221 0.001634 0.500000 0.750000 1 3 1.000000
  3 -1.032000 0.115000 1.401000 -0.997985 0.061237 0.016613 0.528320 0.605469 1 3 1.000000
  3 -1.020000 0.263000 1.440000 -0.993592 0.108725 0.030881 0.564697 0.741455 1 3 1.000000
ads_scope_lens_1
  3 -1.032000 0.119000 1.370000 -0.997774 0.066691 -0.000078 0.500000 0.609131 1 3 1.000000
  3 -1.032000 0.115000 1.401000 -0.997985 0.061237 0.016613 0.528320 0.605469 1 3 1.000000
  3 -1.020000 0.272000 1.370000 -0.993454 0.114221 0.001634 0.500000 0.750000 1 3 1.000000
ads_scope_lens_1
  3 -1.032000 0.115000 1.339000 -0.997812 0.063881 -0.017031 0.471680 0.605469 1 3 1.000000
  3 -1.032000 0.119000 1.370000 -0.997774 0.066691 -0.000078 0.500000 0.609131 1 3 1.000000
  3 -1.020000 0.272000 1.370000 -0.993454 0.114221 0.001634 0.500000 0.750000 1 3 1.000000
ads_scope_lens_1
  3 -1.035000 0.000000 1.370000 -0.999975 0.006810 -0.001723 0.500000 0.500000 1 3 1.000000
  3 -1.032000 0.119000 1.370000 -0.997774 0.066691 -0.000078 0.500000 0.609131 1 3 1.000000
  3 -1.032000 0.115000 1.339000 -0.997812 0.063881 -0.017031 0.471680 0.605469 1 3 1.000000
ads_scope_lens_1
  3 -1.035000 0.000000 1.370000 -0.999975 0.006810 -0.001723 0.500000 0.500000 1 3 1.000000
  3 -1.032000 0.115000 1.339000 -0.997812 0.063881 -0.017031 0.471680 0.605469 1 3 1.000000
  3 -1.032000 0.103000 1.311000 -0.997889 0.055623 -0.033533 0.445313 0.594482 1 3 1.000000
ads_scope_lens_1
  3 -1.035000 0.000000 1.370000 -0.999975 0.006810 -0.001723 0.500000 0.500000 1 3 1.000000
  3 -1.032000 0.103000 1.311000 -0.997889 0.055623 -0.033533 0.445313 0.594482 1 3 1.000000
  3 -1.032000 0.084000 1.286000 -0.997877 0.044839 -0.047230 0.422852 0.577148 1 3 1.000000
ads_scope_lens_1
  3 -1.032000 0.084000 1.286000 -0.997877 0.044839 -0.047230 0.422852 0.577148 1 3 1.000000
  3 -1.032000 0.103000 1.311000 -0.997889 0.055623 -0.033533 0.445313 0.594482 1 3 1.000000
  3 -1.020000 0.236000 1.234000 -0.993229 0.100020 -0.059091 0.375000 0.716553 1 3 1.000000
ads_scope_lens_1
  3 -1.020000 0.193000 1.178000 -0.993622 0.078566 -0.080890 0.323242 0.676758 1 3 1.000000
  3 -1.032000 0.084000 1.286000 -0.997877 0.044839 -0.047230 0.422852 0.577148 1 3 1.000000
  3 -1.020000 0.236000 1.234000 -0.993229 0.100020 -0.059091 0.375000 0.716553 1 3 1.000000
ads_scope_lens_1
  3 -1.020000 0.193000 1.178000 -0.993622 0.078566 -0.080890 0.323242 0.676758 1 3 1.000000
  3 -1.020000 0.236000 1.234000 -0.993229 0.100020 -0.059091 0.375000 0.716553 1 3 1.000000
  3 -1.001000 0.289000 1.082000 -0.984676 0.122700 -0.123926 0.234863 0.765259 1 3 1.000000
ads_scope_lens_1
  3 -1.020000 0.193000 1.178000 -0.993622 0.078566 -0.080890 0.323242 0.676758 1 3 1.000000
  3 -1.001000 0.289000 1.082000 -0.984676 0.122700 -0.123926 0.234863 0.765259 1 3 1.000000
  3 -1.001000 0.204000 1.016999 -0.985472 0.082219 -0.148608 0.175293 0.687500 1 3 1.000000
ads_scope_lens_1
  3 -1.001000 0.204000 1.016999 -0.985472 0.082219 -0.148608 0.175293 0.687500 1 3 1.000000
  3 -1.001000 0.289000 1.082000 -0.984676 0.122700 -0.123926 0.234863 0.765259 1 3 1.000000
  3 -0.974000 0.272000 0.899000 -0.981061 0.095406 -0.168572 0.066895 0.750000 1 3 1.000000
ads_scope_lens_1
  3 -1.001000 0.204000 1.016999 -0.985472 0.082219 -0.148608 0.175293 0.687500 1 3 1.000000
  3 -0.974000 0.272000 0.899000 -0.981061 0.095406 -0.168572 0.066895 0.750000 1 3 1.000000
  3 -0.974000 0.141000 0.845000 -0.981132 0.047166 -0.187498 0.017090 0.629395 1 3 1.000000
ads_scope_lens_1
  3 -1.001000 0.106000 0.976000 -0.985016 0.040508 -0.167638 0.137695 0.597168 1 3 1.000000
  3 -1.001000 0.204000 1.016999 -0.985472 0.082219 -0.148608 0.175293 0.687500 1 3 1.000000
  3 -0.974000 0.141000 0.845000 -0.981132 0.047166 -0.187498 0.017090 0.629395 1 3 1.000000
ads_scope_lens_1
  3 -1.001000 0.000000 0.962000 -0.984461 -0.003645 -0.175566 0.125000 0.500000 1 3 1.000000
  3 -1.001000 0.106000 0.976000 -0.985016 0.040508 -0.167638 0.137695 0.597168 1 3 1.000000
  3 -0.974000 0.141000 0.845000 -0.981132 0.047166 -0.187498 0.017090 0.629395 1 3 1.000000
ads_scope_lens_1
  3 -1.020000 0.071000 1.107000 -0.993082 0.028382 -0.113939 0.258301 0.564697 1 3 1.000000
  3 -1.001000 0.106000 0.976000 -0.985016 0.040508 -0.167638 0.137695 0.597168 1 3 1.000000
  3 -1.001000 0.000000 0.962000 -0.984461 -0.003645 -0.175566 0.125000 0.500000 1 3 1.000000
ads_scope_lens_1
  3 -1.020000 0.000000 1.098000 -0.993148 -0.004908 -0.116762 0.250000 0.500000 1 3 1.000000
  3 -1.020000 0.071000 1.107000 -0.993082 0.028382 -0.113939 0.258301 0.564697 1 3 1.000000
  3 -1.001000 0.000000 0.962000 -0.984461 -0.003645 -0.175566 0.125000 0.500000 1 3 1.000000
ads_scope_lens_1
  3 -1.020000 0.000000 1.098000 -0.993148 -0.004908 -0.116762 0.250000 0.500000 1 3 1.000000
  3 -1.032000 0.031000 1.255000 -0.997678 0.014033 -0.066644 0.394531 0.528320 1 3 1.000000
  3 -1.020000 0.071000 1.107000 -0.993082 0.028382 -0.113939 0.258301 0.564697 1 3 1.000000
ads_scope_lens_1
  3 -1.020000 0.263000 1.300000 -0.993294 0.111301 -0.031288 0.435059 0.741455 1 3 1.000000
  3 -1.032000 0.115000 1.339000 -0.997812 0.063881 -0.017031 0.471680 0.605469 1 3 1.000000
  3 -1.020000 0.272000 1.370000 -0.993454 0.114221 0.001634 0.500000 0.750000 1 3 1.000000
ads_scope_lens_1
  3 -1.020000 0.236000 1.234000 -0.993229 0.100020 -0.059091 0.375000 0.716553 1 3 1.000000
  3 -1.032000 0.115000 1.339000 -0.997812 0.063881 -0.017031 0.471680 0.605469 1 3 1.000000
  3 -1.020000 0.263000 1.300000 -0.993294 0.111301 -0.031288 0.435059 0.741455 1 3 1.000000
ads_scope_lens_1
  3 -1.032000 0.103000 1.311000 -0.997889 0.055623 -0.033533 0.445313 0.594482 1 3 1.000000
  3 -1.032000 0.115000 1.339000 -0.997812 0.063881 -0.017031 0.471680 0.605469 1 3 1.000000
  3 -1.020000 0.236000 1.234000 -0.993229 0.100020 -0.059091 0.375000 0.716553 1 3 1.000000
ads_scope_lens_1
  3 -1.020000 0.071000 1.107000 -0.993082 0.028382 -0.113939 0.258301 0.564697 1 3 1.000000
  3 -1.001000 0.204000 1.016999 -0.985472 0.082219 -0.148608 0.175293 0.687500 1 3 1.000000
  3 -1.001000 0.106000 0.976000 -0.985016 0.040508 -0.167638 0.137695 0.597168 1 3 1.000000
ads_scope_lens_1
  3 -1.020000 0.136000 1.134000 -0.993514 0.053469 -0.100355 0.283691 0.625000 1 3 1.000000
  3 -1.001000 0.204000 1.016999 -0.985472 0.082219 -0.148608 0.175293 0.687500 1 3 1.000000
  3 -1.020000 0.071000 1.107000 -0.993082 0.028382 -0.113939 0.258301 0.564697 1 3 1.000000
ads_scope_lens_1
  3 -1.020000 0.193000 1.178000 -0.993622 0.078566 -0.080890 0.323242 0.676758 1 3 1.000000
  3 -1.001000 0.204000 1.016999 -0.985472 0.082219 -0.148608 0.175293 0.687500 1 3 1.000000
  3 -1.020000 0.136000 1.134000 -0.993514 0.053469 -0.100355 0.283691 0.625000 1 3 1.000000
ads_scope_lens_1
  3 -1.032000 0.060000 1.267000 -0.997817 0.030784 -0.058427 0.405273 0.554687 1 3 1.000000
  3 -1.020000 0.193000 1.178000 -0.993622 0.078566 -0.080890 0.323242 0.676758 1 3 1.000000
  3 -1.020000 0.136000 1.134000 -0.993514 0.053469 -0.100355 0.283691 0.625000 1 3 1.000000
ads_scope_lens_1
  3 -1.032000 0.060000 1.267000 -0.997817 0.030784 -0.058427 0.405273 0.554687 1 3 1.000000
  3 -1.032000 0.084000 1.286000 -0.997877 0.044839 -0.047230 0.422852 0.577148 1 3 1.000000
  3 -1.020000 0.193000 1.178000 -0.993622 0.078566 -0.080890 0.323242 0.676758 1 3 1.000000
ads_scope_lens_1
  3 -1.035000 0.000000 1.370000 -0.999975 0.006810 -0.001723 0.500000 0.500000 1 3 1.000000
  3 -1.032000 0.084000 1.286000 -0.997877 0.044839 -0.047230 0.422852 0.577148 1 3 1.000000
  3 -1.032000 0.060000 1.267000 -0.997817 0.030784 -0.058427 0.405273 0.554687 1 3 1.000000
ads_scope_lens_1
  3 -1.035000 0.000000 1.370000 -0.999975 0.006810 -0.001723 0.500000 0.500000 1 3 1.000000
  3 -1.032000 0.060000 1.267000 -0.997817 0.030784 -0.058427 0.405273 0.554687 1 3 1.000000
  3 -1.032000 0.031000 1.255000 -0.997678 0.014033 -0.066644 0.394531 0.528320 1 3 1.000000
ads_scope_lens_1
  3 -1.032000 0.060000 1.267000 -0.997817 0.030784 -0.058427 0.405273 0.554687 1 3 1.000000
  3 -1.020000 0.136000 1.134000 -0.993514 0.053469 -0.100355 0.283691 0.625000 1 3 1.000000
  3 -1.032000 0.031000 1.255000 -0.997678 0.014033 -0.066644 0.394531 0.528320 1 3 1.000000
ads_scope_lens_1
  3 -1.032000 0.031000 1.255000 -0.997678 0.014033 -0.066644 0.394531 0.528320 1 3 1.000000
  3 -1.020000 0.136000 1.134000 -0.993514 0.053469 -0.100355 0.283691 0.625000 1 3 1.000000
  3 -1.020000 0.071000 1.107000 -0.993082 0.028382 -0.113939 0.258301 0.564697 1 3 1.000000
ads_scope_lens_1
  3 -1.001000 0.000000 0.962000 -0.984461 -0.003645 -0.175566 0.125000 0.500000 1 3 1.000000
  3 -0.974000 0.000000 0.826000 -0.980695 0.003461 -0.195514 0.000000 0.500000 1 3 1.000000
  3 -0.974000 -0.140000 0.845000 -0.981164 -0.046071 -0.187602 0.017090 0.370605 1 3 1.000000
ads_scope_lens_1
  3 -1.001000 0.000000 0.962000 -0.984461 -0.003645 -0.175566 0.125000 0.500000 1 3 1.000000
  3 -0.974000 0.141000 0.845000 -0.981132 0.047166 -0.187498 0.017090 0.629395 1 3 1.000000
  3 -0.974000 0.000000 0.826000 -0.980695 0.003461 -0.195514 0.000000 0.500000 1 3 1.000000
ads_scope_lens_1
  3 -1.001000 0.289000 1.082000 -0.984676 0.122700 -0.123926 0.234863 0.765259 1 3 1.000000
  3 -0.974000 0.385000 0.985000 -0.981816 0.132106 -0.136328 0.146484 0.853638 1 3 1.000000
  3 -0.974000 0.272000 0.899000 -0.981061 0.095406 -0.168572 0.066895 0.750000 1 3 1.000000
ads_scope_lens_1
  3 -1.001000 0.289000 1.082000 -0.984676 0.122700 -0.123926 0.234863 0.765259 1 3 1.000000
  3 -0.974000 0.471000 1.098000 -0.982066 0.162661 -0.095330 0.250000 0.932983 1 3 1.000000
  3 -0.974000 0.385000 0.985000 -0.981816 0.132106 -0.136328 0.146484 0.853638 1 3 1.000000
ads_scope_lens_1
  3 -1.001000 0.289000 1.082000 -0.984676 0.122700 -0.123926 0.234863 0.765259 1 3 1.000000
  3 -1.001000 0.354000 1.166000 -0.985295 0.147934 -0.085489 0.312500 0.824829 1 3 1.000000
  3 -0.974000 0.471000 1.098000 -0.982066 0.162661 -0.095330 0.250000 0.932983 1 3 1.000000
ads_scope_lens_1
  3 -1.020000 0.236000 1.234000 -0.993229 0.100020 -0.059091 0.375000 0.716553 1 3 1.000000
  3 -1.001000 0.354000 1.166000 -0.985295 0.147934 -0.085489 0.312500 0.824829 1 3 1.000000
  3 -1.001000 0.289000 1.082000 -0.984676 0.122700 -0.123926 0.234863 0.765259 1 3 1.000000
ads_scope_lens_1
  3 -1.020000 0.236000 1.234000 -0.993229 0.100020 -0.059091 0.375000 0.716553 1 3 1.000000
  3 -1.001000 0.394000 1.264000 -0.985403 0.164449 -0.044011 0.402832 0.862183 1 3 1.000000
  3 -1.001000 0.354000 1.166000 -0.985295 0.147934 -0.085489 0.312500 0.824829 1 3 1.000000
ads_scope_lens_1
  3 -1.020000 0.236000 1.234000 -0.993229 0.100020 -0.059091 0.375000 0.716553 1 3 1.000000
  3 -1.020000 0.263000 1.300000 -0.993294 0.111301 -0.031288 0.435059 0.741455 1 3 1.000000
  3 -1.001000 0.394000 1.264000 -0.985403 0.164449 -0.044011 0.402832 0.862183 1 3 1.000000
ads_scope_lens_1
  3 -1.020000 0.263000 1.300000 -0.993294 0.111301 -0.031288 0.435059 0.741455 1 3 1.000000
  3 -1.001000 0.408000 1.370000 -0.985333 0.170642 -0.000889 0.500000 0.875000 1 3 1.000000
  3 -1.001000 0.394000 1.264000 -0.985403 0.164449 -0.044011 0.402832 0.862183 1 3 1.000000
ads_scope_lens_1
  3 -1.020000 0.272000 1.370000 -0.993454 0.114221 0.001634 0.500000 0.750000 1 3 1.000000
  3 -1.001000 0.408000 1.370000 -0.985333 0.170642 -0.000889 0.500000 0.875000 1 3 1.000000
  3 -1.020000 0.263000 1.300000 -0.993294 0.111301 -0.031288 0.435059 0.741455 1 3 1.000000
ads_scope_lens_1
  3 -1.020000 0.272000 1.370000 -0.993454 0.114221 0.001634 0.500000 0.750000 1 3 1.000000
  3 -1.020000 0.263000 1.440000 -0.993592 0.108725 0.030881 0.564697 0.741455 1 3 1.000000
  3 -1.001000 0.408000 1.370000 -0.985333 0.170642 -0.000889 0.500000 0.875000 1 3 1.000000
ads_scope_lens_1
  3 -1.020000 0.263000 1.440000 -0.993592 0.108725 0.030881 0.564697 0.741455 1 3 1.000000
  3 -1.001000 0.394000 1.475000 -0.984835 0.167248 0.046139 0.597168 0.862183 1 3 1.000000
  3 -1.001000 0.408000 1.370000 -0.985333 0.170642 -0.000889 0.500000 0.875000 1 3 1.000000
ads_scope_lens_1
  3 -1.001000 0.408000 1.370000 -0.985333 0.170642 -0.000889 0.500000 0.875000 1 3 1.000000
  3 -1.001000 0.394000 1.475000 -0.984835 0.167248 0.046139 0.597168 0.862183 1 3 1.000000
  3 -0.974000 0.544000 1.370000 -0.981695 0.190460 0.000201 0.500000 1.000000 1 3 1.000000
ads_scope_lens_1
  3 -1.001000 0.394000 1.475000 -0.984835 0.167248 0.046139 0.597168 0.862183 1 3 1.000000
  3 -0.974000 0.526000 1.511000 -0.980909 0.187021 0.053295 0.629395 0.983002 1 3 1.000000
  3 -0.974000 0.544000 1.370000 -0.981695 0.190460 0.000201 0.500000 1.000000 1 3 1.000000
ads_scope_lens_1
  3 -1.001000 0.394000 1.475000 -0.984835 0.167248 0.046139 0.597168 0.862183 1 3 1.000000
  3 -0.974000 0.471000 1.642000 -0.981488 0.164978 0.097278 0.750000 0.932983 1 3 1.000000
  3 -0.974000 0.526000 1.511000 -0.980909 0.187021 0.053295 0.629395 0.983002 1 3 1.000000
ads_scope_lens_1
  3 -1.001000 0.354000 1.166000 -0.985295 0.147934 -0.085489 0.312500 0.824829 1 3 1.000000
  3 -1.001000 0.394000 1.264000 -0.985403 0.164449 -0.044011 0.402832 0.862183 1 3 1.000000
  3 -0.974000 0.471000 1.098000 -0.982066 0.162661 -0.095330 0.250000 0.932983 1 3 1.000000
ads_scope_lens_1
  3 -1.001000 0.394000 1.264000 -0.985403 0.164449 -0.044011 0.402832 0.862183 1 3 1.000000
  3 -0.974000 0.526000 1.228999 -0.982048 0.182376 -0.048169 0.370605 0.983002 1 3 1.000000
  3 -0.974000 0.471000 1.098000 -0.982066 0.162661 -0.095330 0.250000 0.932983 1 3 1.000000
ads_scope_lens_1
  3 -1.001000 0.394000 1.264000 -0.985403 0.164449 -0.044011 0.402832 0.862183 1 3 1.000000
  3 -0.974000 0.544000 1.370000 -0.981695 0.190460 0.000201 0.500000 1.000000 1 3 1.000000
  3 -0.974000 0.526000 1.228999 -0.982048 0.182376 -0.048169 0.370605 0.983002 1 3 1.000000
ads_scope_lens_1
  3 -1.001000 0.394000 1.264000 -0.985403 0.164449 -0.044011 0.402832 0.862183 1 3 1.000000
  3 -1.001000 0.408000 1.370000 -0.985333 0.170642 -0.000889 0.500000 0.875000 1 3 1.000000
  3 -0.974000 0.544000 1.370000 -0.981695 0.190460 0.000201 0.500000 1.000000 1 3 1.000000
ads_scope_lens_1
  3 -1.032000 0.000000 1.251000 -0.997400 0.003147 -0.071994 0.390625 0.500000 1 3 1.000000
  3 -1.032000 0.031000 1.255000 -0.997678 0.014033 -0.066644 0.394531 0.528320 1 3 1.000000
  3 -1.020000 0.000000 1.098000 -0.993148 -0.004908 -0.116762 0.250000 0.500000 1 3 1.000000
ads_scope_lens_1
  3 -1.035000 0.000000 1.370000 -0.999975 0.006810 -0.001723 0.500000 0.500000 1 3 1.000000
  3 -1.032000 0.031000 1.255000 -0.997678 0.014033 -0.066644 0.394531 0.528320 1 3 1.000000
  3 -1.032000 0.000000 1.251000 -0.997400 0.003147 -0.071994 0.390625 0.500000 1 3 1.000000
ads_scope_lens_1
  3 -1.035000 0.000000 1.370000 -0.999975 0.006810 -0.001723 0.500000 0.500000 1 3 1.000000
  3 -1.032000 0.000000 1.251000 -0.997400 0.003147 -0.071994 0.390625 0.500000 1 3 1.000000
  3 -1.032000 -0.030000 1.255000 -0.997687 -0.013578 -0.066603 0.394531 0.471680 1 3 1.000000
ads_scope_lens_1
  3 -1.032000 -0.030000 1.255000 -0.997687 -0.013578 -0.066603 0.394531 0.471680 1 3 1.000000
  3 -1.032000 0.000000 1.251000 -0.997400 0.003147 -0.071994 0.390625 0.500000 1 3 1.000000
  3 -1.020000 0.000000 1.098000 -0.993148 -0.004908 -0.116762 0.250000 0.500000 1 3 1.000000
ads_scope_lens_1
  3 -1.020000 -0.070000 1.107000 -0.993113 -0.027900 -0.113787 0.258301 0.435059 1 3 1.000000
  3 -1.032000 -0.030000 1.255000 -0.997687 -0.013578 -0.066603 0.394531 0.471680 1 3 1.000000
  3 -1.020000 0.000000 1.098000 -0.993148 -0.004908 -0.116762 0.250000 0.500000 1 3 1.000000
ads_scope_lens_1
  3 -1.020000 -0.070000 1.107000 -0.993113 -0.027900 -0.113787 0.258301 0.435059 1 3 1.000000
  3 -1.020000 0.000000 1.098000 -0.993148 -0.004908 -0.116762 0.250000 0.500000 1 3 1.000000
  3 -1.001000 0.000000 0.962000 -0.984461 -0.003645 -0.175566 0.125000 0.500000 1 3 1.000000
ads_scope_lens_1
  3 -1.020000 -0.070000 1.107000 -0.993113 -0.027900 -0.113787 0.258301 0.435059 1 3 1.000000
  3 -1.001000 0.000000 0.962000 -0.984461 -0.003645 -0.175566 0.125000 0.500000 1 3 1.000000
  3 -1.001000 -0.105000 0.976000 -0.984505 -0.042923 -0.170020 0.137695 0.402832 1 3 1.000000
ads_scope_lens_1
  3 -1.001000 -0.105000 0.976000 -0.984505 -0.042923 -0.170020 0.137695 0.402832 1 3 1.000000
  3 -1.001000 0.000000 0.962000 -0.984461 -0.003645 -0.175566 0.125000 0.500000 1 3 1.000000
  3 -0.974000 -0.140000 0.845000 -0.981164 -0.046071 -0.187602 0.017090 0.370605 1 3 1.000000
ads_scope_lens_1
  3 -1.001000 -0.204000 1.016999 -0.984339 -0.086486 -0.153612 0.175293 0.312500 1 3 1.000000
  3 -1.001000 -0.105000 0.976000 -0.984505 -0.042923 -0.170020 0.137695 0.402832 1 3 1.000000
  3 -0.974000 -0.140000 0.845000 -0.981164 -0.046071 -0.187602 0.017090 0.370605 1 3 1.000000
ads_scope_lens_1
  3 -1.001000 -0.204000 1.016999 -0.984339 -0.086486 -0.153612 0.175293 0.312500 1 3 1.000000
  3 -0.974000 -0.140000 0.845000 -0.981164 -0.046071 -0.187602 0.017090 0.370605 1 3 1.000000
  3 -0.974000 -0.272000 0.899000 -0.980657 -0.094343 -0.171498 0.066895 0.250000 1 3 1.000000
ads_scope_lens_1
  3 -0.974000 -0.384000 0.985000 -0.981571 -0.133959 -0.136281 0.146484 0.146484 1 3 1.000000
  3 -1.001000 -0.204000 1.016999 -0.984339 -0.086486 -0.153612 0.175293 0.312500 1 3 1.000000
  3 -0.974000 -0.272000 0.899000 -0.980657 -0.094343 -0.171498 0.066895 0.250000 1 3 1.000000
ads_scope_lens_1
  3 -1.001000 -0.288000 1.082000 -0.984732 -0.122579 -0.123601 0.234863 0.234863 1 3 1.000000
  3 -1.001000 -0.204000 1.016999 -0.984339 -0.086486 -0.153612 0.175293 0.312500 1 3 1.000000
  3 -0.974000 -0.384000 0.985000 -0.981571 -0.133959 -0.136281 0.146484 0.146484 1 3 1.000000
ads_scope_lens_1
  3 -1.001000 -0.288000 1.082000 -0.984732 -0.122579 -0.123601 0.234863 0.234863 1 3 1.000000
  3 -0.974000 -0.384000 0.985000 -0.981571 -0.133959 -0.136281 0.146484 0.146484 1 3 1.000000
  3 -0.974000 -0.471000 1.098000 -0.981094 -0.167334 -0.097234 0.250000 0.066895 1 3 1.000000
ads_scope_lens_1
  3 -1.001000 -0.353000 1.166000 -0.984522 -0.149847 -0.090901 0.312500 0.175293 1 3 1.000000
  3 -1.001000 -0.288000 1.082000 -0.984732 -0.122579 -0.123601 0.234863 0.234863 1 3 1.000000
  3 -0.974000 -0.471000 1.098000 -0.981094 -0.167334 -0.097234 0.250000 0.066895 1 3 1.000000
ads_scope_lens_1
  3 -1.001000 -0.353000 1.166000 -0.984522 -0.149847 -0.090901 0.312500 0.175293 1 3 1.000000
  3 -0.974000 -0.471000 1.098000 -0.981094 -0.167334 -0.097234 0.250000 0.066895 1 3 1.000000
  3 -0.974000 -0.525000 1.228999 -0.980971 -0.186842 -0.052779 0.370605 0.017090 1 3 1.000000
ads_scope_lens_1
  3 -1.001000 -0.394000 1.264000 -0.984882 -0.166856 -0.046536 0.402832 0.137695 1 3 1.000000
  3 -1.001000 -0.353000 1.166000 -0.984522 -0.149847 -0.090901 0.312500 0.175293 1 3 1.000000
  3 -0.974000 -0.525000 1.228999 -0.980971 -0.186842 -0.052779 0.370605 0.017090 1 3 1.000000
ads_scope_lens_1
  3 -1.001000 -0.394000 1.264000 -0.984882 -0.166856 -0.046536 0.402832 0.137695 1 3 1.000000
  3 -0.974000 -0.525000 1.228999 -0.980971 -0.186842 -0.052779 0.370605 0.017090 1 3 1.000000
  3 -0.974000 -0.543000 1.370000 -0.981678 -0.190546 0.000198 0.500000 0.000000 1 3 1.000000
ads_scope_lens_1
  3 -1.001000 -0.407000 1.370000 -0.984995 -0.172582 0.000454 0.500000 0.125000 1 3 1.000000
  3 -1.001000 -0.394000 1.264000 -0.984882 -0.166856 -0.046536 0.402832 0.137695 1 3 1.000000
  3 -0.974000 -0.543000 1.370000 -0.981678 -0.190546 0.000198 0.500000 0.000000 1 3 1.000000
ads_scope_lens_1
  3 -1.001000 -0.288000 1.082000 -0.984732 -0.122579 -0.123601 0.234863 0.234863 1 3 1.000000
  3 -1.020000 -0.136000 1.134000 -0.993002 -0.058320 -0.102697 0.283691 0.375000 1 3 1.000000
  3 -1.001000 -0.204000 1.016999 -0.984339 -0.086486 -0.153612 0.175293 0.312500 1 3 1.000000
ads_scope_lens_1
  3 -1.020000 -0.136000 1.134000 -0.993002 -0.058320 -0.102697 0.283691 0.375000 1 3 1.000000
  3 -1.001000 -0.105000 0.976000 -0.984505 -0.042923 -0.170020 0.137695 0.402832 1 3 1.000000
  3 -1.001000 -0.204000 1.016999 -0.984339 -0.086486 -0.153612 0.175293 0.312500 1 3 1.000000
ads_scope_lens_1
  3 -1.020000 -0.136000 1.134000 -0.993002 -0.058320 -0.102697 0.283691 0.375000 1 3 1.000000
  3 -1.020000 -0.070000 1.107000 -0.993113 -0.027900 -0.113787 0.258301 0.435059 1 3 1.000000
  3 -1.001000 -0.105000 0.976000 -0.984505 -0.042923 -0.170020 0.137695 0.402832 1 3 1.000000
ads_scope_lens_1
  3 -1.001000 -0.394000 1.475000 -0.984819 -0.167324 0.046192 0.597168 0.137695 1 3 1.000000
  3 -1.001000 -0.407000 1.370000 -0.984995 -0.172582 0.000454 0.500000 0.125000 1 3 1.000000
  3 -0.974000 -0.543000 1.370000 -0.981678 -0.190546 0.000198 0.500000 0.000000 1 3 1.000000
ads_scope_lens_1
  3 -1.001000 -0.394000 1.475000 -0.984819 -0.167324 0.046192 0.597168 0.137695 1 3 1.000000
  3 -1.020000 -0.272000 1.370000 -0.993764 -0.111506 0.000503 0.500000 0.250000 1 3 1.000000
  3 -1.001000 -0.407000 1.370000 -0.984995 -0.172582 0.000454 0.500000 0.125000 1 3 1.000000
ads_scope_lens_1
  3 -1.020000 -0.272000 1.370000 -0.993764 -0.111506 0.000503 0.500000 0.250000 1 3 1.000000
  3 -1.020000 -0.262000 1.300000 -0.993057 -0.113408 -0.031230 0.435059 0.258301 1 3 1.000000
  3 -1.001000 -0.407000 1.370000 -0.984995 -0.172582 0.000454 0.500000 0.125000 1 3 1.000000
ads_scope_lens_1
  3 -1.001000 -0.407000 1.370000 -0.984995 -0.172582 0.000454 0.500000 0.125000 1 3 1.000000
  3 -1.020000 -0.262000 1.300000 -0.993057 -0.113408 -0.031230 0.435059 0.258301 1 3 1.000000
  3 -1.001000 -0.394000 1.264000 -0.984882 -0.166856 -0.046536 0.402832 0.137695 1 3 1.000000
ads_scope_lens_1
  3 -1.020000 -0.262000 1.300000 -0.993057 -0.113408 -0.031230 0.435059 0.258301 1 3 1.000000
  3 -1.020000 -0.235000 1.234000 -0.993124 -0.099566 -0.061577 0.375000 0.283691 1 3 1.000000
  3 -1.001000 -0.394000 1.264000 -0.984882 -0.166856 -0.046536 0.402832 0.137695 1 3 1.000000
ads_scope_lens_1
  3 -1.001000 -0.394000 1.264000 -0.984882 -0.166856 -0.046536 0.402832 0.137695 1 3 1.000000
  3 -1.020000 -0.235000 1.234000 -0.993124 -0.099566 -0.061577 0.375000 0.283691 1 3 1.000000
  3 -1.001000 -0.353000 1.166000 -0.984522 -0.149847 -0.090901 0.312500 0.175293 1 3 1.000000
ads_scope_lens_1
  3 -1.001000 -0.353000 1.166000 -0.984522 -0.149847 -0.090901 0.312500 0.175293 1 3 1.000000
  3 -1.020000 -0.235000 1.234000 -0.993124 -0.099566 -0.061577 0.375000 0.283691 1 3 1.000000
  3 -1.001000 -0.288000 1.082000 -0.984732 -0.122579 -0.123601 0.234863 0.234863 1 3 1.000000
ads_scope_lens_1
  3 -1.020000 -0.235000 1.234000 -0.993124 -0.099566 -0.061577 0.375000 0.283691 1 3 1.000000
  3 -1.020000 -0.192000 1.178000 -0.993036 -0.080172 -0.086320 0.323242 0.323242 1 3 1.000000
  3 -1.001000 -0.288000 1.082000 -0.984732 -0.122579 -0.123601 0.234863 0.234863 1 3 1.000000
ads_scope_lens_1
  3 -1.001000 -0.288000 1.082000 -0.984732 -0.122579 -0.123601 0.234863 0.234863 1 3 1.000000
  3 -1.020000 -0.192000 1.178000 -0.993036 -0.080172 -0.086320 0.323242 0.323242 1 3 1.000000
  3 -1.020000 -0.136000 1.134000 -0.993002 -0.058320 -0.102697 0.283691 0.375000 1 3 1.000000
ads_scope_lens_1
  3 -1.020000 -0.192000 1.178000 -0.993036 -0.080172 -0.086320 0.323242 0.323242 1 3 1.000000
  3 -1.032000 -0.059000 1.267000 -0.997833 -0.030482 -0.058305 0.405273 0.445312 1 3 1.000000
  3 -1.020000 -0.136000 1.134000 -0.993002 -0.058320 -0.102697 0.283691 0.375000 1 3 1.000000
ads_scope_lens_1
  3 -1.020000 -0.136000 1.134000 -0.993002 -0.058320 -0.102697 0.283691 0.375000 1 3 1.000000
  3 -1.032000 -0.059000 1.267000 -0.997833 -0.030482 -0.058305 0.405273 0.445312 1 3 1.000000
  3 -1.020000 -0.070000 1.107000 -0.993113 -0.027900 -0.113787 0.258301 0.435059 1 3 1.000000
ads_scope_lens_1
  3 -1.032000 -0.059000 1.267000 -0.997833 -0.030482 -0.058305 0.405273 0.445312 1 3 1.000000
  3 -1.032000 -0.030000 1.255000 -0.997687 -0.013578 -0.066603 0.394531 0.471680 1 3 1.000000
  3 -1.020000 -0.070000 1.107000 -0.993113 -0.027900 -0.113787 0.258301 0.435059 1 3 1.000000
ads_scope_lens_1
  3 -1.032000 -0.084000 1.286000 -0.997655 -0.046857 -0.049891 0.422852 0.422852 1 3 1.000000
  3 -1.020000 -0.192000 1.178000 -0.993036 -0.080172 -0.086320 0.323242 0.323242 1 3 1.000000
  3 -1.020000 -0.235000 1.234000 -0.993124 -0.099566 -0.061577 0.375000 0.283691 1 3 1.000000
ads_scope_lens_1
  3 -1.032000 -0.084000 1.286000 -0.997655 -0.046857 -0.049891 0.422852 0.422852 1 3 1.000000
  3 -1.032000 -0.059000 1.267000 -0.997833 -0.030482 -0.058305 0.405273 0.445312 1 3 1.000000
  3 -1.020000 -0.192000 1.178000 -0.993036 -0.080172 -0.086320 0.323242 0.323242 1 3 1.000000
ads_scope_lens_1
  3 -1.035000 0.000000 1.370000 -0.999975 0.006810 -0.001723 0.500000 0.500000 1 3 1.000000
  3 -1.032000 -0.030000 1.255000 -0.997687 -0.013578 -0.066603 0.394531 0.471680 1 3 1.000000
  3 -1.032000 -0.059000 1.267000 -0.997833 -0.030482 -0.058305 0.405273 0.445312 1 3 1.000000
ads_scope_lens_1
  3 -1.035000 0.000000 1.370000 -0.999975 0.006810 -0.001723 0.500000 0.500000 1 3 1.000000
  3 -1.032000 -0.059000 1.267000 -0.997833 -0.030482 -0.058305 0.405273 0.445312 1 3 1.000000
  3 -1.032000 -0.084000 1.286000 -0.997655 -0.046857 -0.049891 0.422852 0.422852 1 3 1.000000
ads_scope_lens_1
  3 -1.032000 -0.102000 1.311000 -0.997911 -0.055222 -0.033528 0.445313 0.405273 1 3 1.000000
  3 -1.035000 0.000000 1.370000 -0.999975 0.006810 -0.001723 0.500000 0.500000 1 3 1.000000
  3 -1.032000 -0.084000 1.286000 -0.997655 -0.046857 -0.049891 0.422852 0.422852 1 3 1.000000
ads_scope_lens_1
  3 -1.032000 -0.102000 1.311000 -0.997911 -0.055222 -0.033528 0.445313 0.405273 1 3 1.000000
  3 -1.032000 -0.084000 1.286000 -0.997655 -0.046857 -0.049891 0.422852 0.422852 1 3 1.000000
  3 -1.020000 -0.235000 1.234000 -0.993124 -0.099566 -0.061577 0.375000 0.283691 1 3 1.000000
ads_scope_lens_1
  3 -1.032000 -0.102000 1.311000 -0.997911 -0.055222 -0.033528 0.445313 0.405273 1 3 1.000000
  3 -1.020000 -0.235000 1.234000 -0.993124 -0.099566 -0.061577 0.375000 0.283691 1 3 1.000000
  3 -1.032000 -0.114000 1.339000 -0.998005 -0.060803 -0.016998 0.471680 0.394531 1 3 1.000000
ads_scope_lens_1
  3 -1.032000 -0.114000 1.339000 -0.998005 -0.060803 -0.016998 0.471680 0.394531 1 3 1.000000
  3 -1.020000 -0.235000 1.234000 -0.993124 -0.099566 -0.061577 0.375000 0.283691 1 3 1.000000
  3 -1.020000 -0.262000 1.300000 -0.993057 -0.113408 -0.031230 0.435059 0.258301 1 3 1.000000
ads_scope_lens_1
  3 -1.032000 -0.118000 1.370000 -0.997800 -0.066294 -0.000310 0.500000 0.390625 1 3 1.000000
  3 -1.032000 -0.114000 1.339000 -0.998005 -0.060803 -0.016998 0.471680 0.394531 1 3 1.000000
  3 -1.020000 -0.262000 1.300000 -0.993057 -0.113408 -0.031230 0.435059 0.258301 1 3 1.000000
ads_scope_lens_1
  3 -1.032000 -0.118000 1.370000 -0.997800 -0.066294 -0.000310 0.500000 0.390625 1 3 1.000000
  3 -1.020000 -0.262000 1.300000 -0.993057 -0.113408 -0.031230 0.435059 0.258301 1 3 1.000000
  3 -1.020000 -0.272000 1.370000 -0.993764 -0.111506 0.000503 0.500000 0.250000 1 3 1.000000
ads_scope_lens_1
  3 -1.020000 -0.262000 1.440000 -0.993298 -0.111463 0.030573 0.564697 0.258301 1 3 1.000000
  3 -1.032000 -0.118000 1.370000 -0.997800 -0.066294 -0.000310 0.500000 0.390625 1 3 1.000000
  3 -1.020000 -0.272000 1.370000 -0.993764 -0.111506 0.000503 0.500000 0.250000 1 3 1.000000
ads_scope_lens_1
  3 -1.020000 -0.262000 1.440000 -0.993298 -0.111463 0.030573 0.564697 0.258301 1 3 1.000000
  3 -1.020000 -0.272000 1.370000 -0.993764 -0.111506 0.000503 0.500000 0.250000 1 3 1.000000
  3 -1.001000 -0.394000 1.475000 -0.984819 -0.167324 0.046192 0.597168 0.137695 1 3 1.000000
ads_scope_lens_1
  3 -1.020000 -0.262000 1.440000 -0.993298 -0.111463 0.030573 0.564697 0.258301 1 3 1.000000
  3 -1.001000 -0.394000 1.475000 -0.984819 -0.167324 0.046192 0.597168 0.137695 1 3 1.000000
  3 -1.020000 -0.235000 1.506000 -0.993497 -0.097511 0.058786 0.625000 0.283691 1 3 1.000000
ads_scope_lens_1
  3 -1.020000 -0.235000 1.506000 -0.993497 -0.097511 0.058786 0.625000 0.283691 1 3 1.000000
  3 -1.001000 -0.394000 1.475000 -0.984819 -0.167324 0.046192 0.597168 0.137695 1 3 1.000000
  3 -1.001000 -0.353000 1.574000 -0.984734 -0.150432 0.087571 0.687500 0.175293 1 3 1.000000
ads_scope_lens_1
  3 -1.020000 -0.235000 1.506000 -0.993497 -0.097511 0.058786 0.625000 0.283691 1 3 1.000000
  3 -1.001000 -0.353000 1.574000 -0.984734 -0.150432 0.087571 0.687500 0.175293 1 3 1.000000
  3 -1.001000 -0.288000 1.658000 -0.985026 -0.120197 0.123596 0.765259 0.234863 1 3 1.000000
ads_scope_lens_1
  3 -1.001000 -0.288000 1.658000 -0.985026 -0.120197 0.123596 0.765259 0.234863 1 3 1.000000
  3 -1.001000 -0.353000 1.574000 -0.984734 -0.150432 0.087571 0.687500 0.175293 1 3 1.000000
  3 -0.974000 -0.384000 1.754000 -0.981239 -0.134743 0.137895 0.853638 0.146484 1 3 1.000000
ads_scope_lens_1
  3 -1.001000 -0.204000 1.723000 -0.984982 -0.084421 0.150612 0.824829 0.312500 1 3 1.000000
  3 -1.001000 -0.288000 1.658000 -0.985026 -0.120197 0.123596 0.765259 0.234863 1 3 1.000000
  3 -0.974000 -0.384000 1.754000 -0.981239 -0.134743 0.137895 0.853638 0.146484 1 3 1.000000
ads_scope_lens_1
  3 -1.001000 -0.204000 1.723000 -0.984982 -0.084421 0.150612 0.824829 0.312500 1 3 1.000000
  3 -0.974000 -0.384000 1.754000 -0.981239 -0.134743 0.137895 0.853638 0.146484 1 3 1.000000
  3 -0.974000 -0.272000 1.841000 -0.981553 -0.091080 0.168102 0.932983 0.250000 1 3 1.000000
ads_scope_lens_1
  3 -1.001000 -0.204000 1.723000 -0.984982 -0.084421 0.150612 0.824829 0.312500 1 3 1.000000
  3 -0.974000 -0.272000 1.841000 -0.981553 -0.091080 0.168102 0.932983 0.250000 1 3 1.000000
  3 -0.974000 -0.140000 1.895000 -0.981235 -0.046939 0.187014 0.983002 0.370605 1 3 1.000000
ads_scope_lens_1
  3 -1.001000 -0.105000 1.764000 -0.984675 -0.040378 0.169662 0.862183 0.402832 1 3 1.000000
  3 -1.001000 -0.204000 1.723000 -0.984982 -0.084421 0.150612 0.824829 0.312500 1 3 1.000000
  3 -0.974000 -0.140000 1.895000 -0.981235 -0.046939 0.187014 0.983002 0.370605 1 3 1.000000
ads_scope_lens_1
  3 -1.020000 -0.070000 1.633000 -0.992841 -0.028293 0.116042 0.741455 0.435059 1 3 1.000000
  3 -1.001000 -0.204000 1.723000 -0.984982 -0.084421 0.150612 0.824829 0.312500 1 3 1.000000
  3 -1.001000 -0.105000 1.764000 -0.984675 -0.040378 0.169662 0.862183 0.402832 1 3 1.000000
ads_scope_lens_1
  3 -1.020000 -0.136000 1.605000 -0.993305 -0.053643 0.102306 0.716553 0.375000 1 3 1.000000
  3 -1.001000 -0.204000 1.723000 -0.984982 -0.084421 0.150612 0.824829 0.312500 1 3 1.000000
  3 -1.020000 -0.070000 1.633000 -0.992841 -0.028293 0.116042 0.741455 0.435059 1 3 1.000000
ads_scope_lens_1
  3 -1.020000 -0.136000 1.605000 -0.993305 -0.053643 0.102306 0.716553 0.375000 1 3 1.000000
  3 -1.001000 -0.288000 1.658000 -0.985026 -0.120197 0.123596 0.765259 0.234863 1 3 1.000000
  3 -1.001000 -0.204000 1.723000 -0.984982 -0.084421 0.150612 0.824829 0.312500 1 3 1.000000
ads_scope_lens_1
  3 -1.020000 -0.192000 1.562000 -0.993244 -0.080832 0.083262 0.676758 0.323242 1 3 1.000000
  3 -1.001000 -0.288000 1.658000 -0.985026 -0.120197 0.123596 0.765259 0.234863 1 3 1.000000
  3 -1.020000 -0.136000 1.605000 -0.993305 -0.053643 0.102306 0.716553 0.375000 1 3 1.000000
ads_scope_lens_1
  3 -1.020000 -0.235000 1.506000 -0.993497 -0.097511 0.058786 0.625000 0.283691 1 3 1.000000
  3 -1.001000 -0.288000 1.658000 -0.985026 -0.120197 0.123596 0.765259 0.234863 1 3 1.000000
  3 -1.020000 -0.192000 1.562000 -0.993244 -0.080832 0.083262 0.676758 0.323242 1 3 1.000000
ads_scope_lens_1
  3 -1.020000 -0.235000 1.506000 -0.993497 -0.097511 0.058786 0.625000 0.283691 1 3 1.000000
  3 -1.020000 -0.192000 1.562000 -0.993244 -0.080832 0.083262 0.676758 0.323242 1 3 1.000000
  3 -1.032000 -0.084000 1.454000 -0.997777 -0.044630 0.049496 0.577148 0.422852 1 3 1.000000
ads_scope_lens_1
  3 -1.020000 -0.235000 1.506000 -0.993497 -0.097511 0.058786 0.625000 0.283691 1 3 1.000000
  3 -1.032000 -0.084000 1.454000 -0.997777 -0.044630 0.049496 0.577148 0.422852 1 3 1.000000
  3 -1.032000 -0.102000 1.429000 -0.997900 -0.055650 0.033144 0.554688 0.405273 1 3 1.000000
ads_scope_lens_1
  3 -1.035000 0.000000 1.370000 -0.999975 0.006810 -0.001723 0.500000 0.500000 1 3 1.000000
  3 -1.032000 -0.102000 1.429000 -0.997900 -0.055650 0.033144 0.554688 0.405273 1 3 1.000000
  3 -1.032000 -0.084000 1.454000 -0.997777 -0.044630 0.049496 0.577148 0.422852 1 3 1.000000
ads_scope_lens_1
  3 -1.032000 -0.114000 1.401000 -0.997983 -0.061269 0.016619 0.528320 0.394531 1 3 1.000000
  3 -1.032000 -0.102000 1.429000 -0.997900 -0.055650 0.033144 0.554688 0.405273 1 3 1.000000
  3 -1.035000 0.000000 1.370000 -0.999975 0.006810 -0.001723 0.500000 0.500000 1 3 1.000000
ads_scope_lens_1
  3 -1.032000 -0.118000 1.370000 -0.997800 -0.066294 -0.000310 0.500000 0.390625 1 3 1.000000
  3 -1.032000 -0.114000 1.401000 -0.997983 -0.061269 0.016619 0.528320 0.394531 1 3 1.000000
  3 -1.035000 0.000000 1.370000 -0.999975 0.006810 -0.001723 0.500000 0.500000 1 3 1.000000
ads_scope_lens_1
  3 -1.020000 -0.262000 1.440000 -0.993298 -0.111463 0.030573 0.564697 0.258301 1 3 1.000000
  3 -1.032000 -0.114000 1.401000 -0.997983 -0.061269 0.016619 0.528320 0.394531 1 3 1.000000
  3 -1.032000 -0.118000 1.370000 -0.997800 -0.066294 -0.000310 0.500000 0.390625 1 3 1.000000
ads_scope_lens_1
  3 -1.020000 -0.235000 1.506000 -0.993497 -0.097511 0.058786 0.625000 0.283691 1 3 1.000000
  3 -1.032000 -0.114000 1.401000 -0.997983 -0.061269 0.016619 0.528320 0.394531 1 3 1.000000
  3 -1.020000 -0.262000 1.440000 -0.993298 -0.111463 0.030573 0.564697 0.258301 1 3 1.000000
ads_scope_lens_1
  3 -1.020000 -0.235000 1.506000 -0.993497 -0.097511 0.058786 0.625000 0.283691 1 3 1.000000
  3 -1.032000 -0.102000 1.429000 -0.997900 -0.055650 0.033144 0.554688 0.405273 1 3 1.000000
  3 -1.032000 -0.114000 1.401000 -0.997983 -0.061269 0.016619 0.528320 0.394531 1 3 1.000000
ads_scope_lens_1
  3 -1.020000 -0.136000 1.605000 -0.993305 -0.053643 0.102306 0.716553 0.375000 1 3 1.000000
  3 -1.020000 -0.070000 1.633000 -0.992841 -0.028293 0.116042 0.741455 0.435059 1 3 1.000000
  3 -1.032000 -0.030000 1.485000 -0.997741 -0.011316 0.066221 0.605469 0.471680 1 3 1.000000
ads_scope_lens_1
  3 -1.032000 -0.059000 1.473000 -0.997848 -0.030864 0.057857 0.594482 0.445312 1 3 1.000000
  3 -1.020000 -0.136000 1.605000 -0.993305 -0.053643 0.102306 0.716553 0.375000 1 3 1.000000
  3 -1.032000 -0.030000 1.485000 -0.997741 -0.011316 0.066221 0.605469 0.471680 1 3 1.000000
ads_scope_lens_1
  3 -1.035000 0.000000 1.370000 -0.999975 0.006810 -0.001723 0.500000 0.500000 1 3 1.000000
  3 -1.032000 -0.059000 1.473000 -0.997848 -0.030864 0.057857 0.594482 0.445312 1 3 1.000000
  3 -1.032000 -0.030000 1.485000 -0.997741 -0.011316 0.066221 0.605469 0.471680 1 3 1.000000
ads_scope_lens_1
  3 -1.035000 0.000000 1.370000 -0.999975 0.006810 -0.001723 0.500000 0.500000 1 3 1.000000
  3 -1.032000 -0.084000 1.454000 -0.997777 -0.044630 0.049496 0.577148 0.422852 1 3 1.000000
  3 -1.032000 -0.059000 1.473000 -0.997848 -0.030864 0.057857 0.594482 0.445312 1 3 1.000000
ads_scope_lens_1
  3 -1.032000 -0.059000 1.473000 -0.997848 -0.030864 0.057857 0.594482 0.445312 1 3 1.000000
  3 -1.032000 -0.084000 1.454000 -0.997777 -0.044630 0.049496 0.577148 0.422852 1 3 1.000000
  3 -1.020000 -0.136000 1.605000 -0.993305 -0.053643 0.102306 0.716553 0.375000 1 3 1.000000
ads_scope_lens_1
  3 -1.032000 -0.084000 1.454000 -0.997777 -0.044630 0.049496 0.577148 0.422852 1 3 1.000000
  3 -1.020000 -0.192000 1.562000 -0.993244 -0.080832 0.083262 0.676758 0.323242 1 3 1.000000
  3 -1.020000 -0.136000 1.605000 -0.993305 -0.053643 0.102306 0.716553 0.375000 1 3 1.000000
ads_scope_lens_1
  3 -1.001000 -0.353000 1.574000 -0.984734 -0.150432 0.087571 0.687500 0.175293 1 3 1.000000
  3 -0.974000 -0.471000 1.642000 -0.980839 -0.167469 0.099543 0.750000 0.066895 1 3 1.000000
  3 -0.974000 -0.384000 1.754000 -0.981239 -0.134743 0.137895 0.853638 0.146484 1 3 1.000000
ads_scope_lens_1
  3 -1.001000 -0.353000 1.574000 -0.984734 -0.150432 0.087571 0.687500 0.175293 1 3 1.000000
  3 -0.974000 -0.525000 1.511000 -0.980984 -0.187506 0.050123 0.629395 0.017090 1 3 1.000000
  3 -0.974000 -0.471000 1.642000 -0.980839 -0.167469 0.099543 0.750000 0.066895 1 3 1.000000
ads_scope_lens_1
  3 -1.001000 -0.353000 1.574000 -0.984734 -0.150432 0.087571 0.687500 0.175293 1 3 1.000000
  3 -1.001000 -0.394000 1.475000 -0.984819 -0.167324 0.046192 0.597168 0.137695 1 3 1.000000
  3 -0.974000 -0.525000 1.511000 -0.980984 -0.187506 0.050123 0.629395 0.017090 1 3 1.000000
ads_scope_lens_1
  3 -1.001000 -0.394000 1.475000 -0.984819 -0.167324 0.046192 0.597168 0.137695 1 3 1.000000
  3 -0.974000 -0.543000 1.370000 -0.981678 -0.190546 0.000198 0.500000 0.000000 1 3 1.000000
  3 -0.974000 -0.525000 1.511000 -0.980984 -0.187506 0.050123 0.629395 0.017090 1 3 1.000000
end
