// Created by Crowbar 0.74
version 1
nodes
  0 "tag_hybrid" -1
end
skeleton
  time 0
    0 0.000000 0.000000 0.000000 0.000000 0.000000 0.000000
end
triangles
reticle_ui_stencil
  0 -1.115000 -0.499575 0.944776 -1.000000 0.000000 0.000000 0.879881 0.398207 1 0 1.000000
  0 -1.115000 -0.607359 0.915875 -1.000000 0.000000 0.000000 0.965576 0.375244 1 0 1.000000
  0 -1.115000 -0.623625 0.996688 -1.000000 0.000000 0.000000 0.973938 0.437622 1 0 1.000000
reticle_ui_stencil
  0 -1.115000 -0.580813 0.837812 -1.000000 0.000000 0.000000 0.941620 0.317047 1 0 1.000000
  0 -1.115000 -0.607359 0.915875 -1.000000 0.000000 0.000000 0.965576 0.375244 1 0 1.000000
  0 -1.115000 -0.499575 0.944776 -1.000000 0.000000 0.000000 0.879881 0.398207 1 0 1.000000
reticle_ui_stencil
  0 -1.115000 -0.505813 1.010410 -1.000000 0.000000 0.000000 0.884552 0.448018 1 0 1.000000
  0 -1.115000 -0.623625 0.996688 -1.000000 0.000000 0.000000 0.973938 0.437622 1 0 1.000000
  0 -1.115000 -0.629188 1.078840 -1.000000 0.000000 0.000000 0.978119 0.500000 1 0 1.000000
reticle_ui_stencil
  0 -1.115000 -0.623625 0.996688 -1.000000 0.000000 0.000000 0.973938 0.437622 1 0 1.000000
  0 -1.115000 -0.505813 1.010410 -1.000000 0.000000 0.000000 0.884552 0.448018 1 0 1.000000
  0 -1.115000 -0.499575 0.944776 -1.000000 0.000000 0.000000 0.879881 0.398207 1 0 1.000000
reticle_ui_stencil
  0 -1.115000 -0.419331 0.966291 -1.000000 0.000000 0.000000 0.818985 0.414525 1 0 1.000000
  0 -1.115000 -0.499575 0.944776 -1.000000 0.000000 0.000000 0.879881 0.398207 1 0 1.000000
  0 -1.115000 -0.505813 1.010410 -1.000000 0.000000 0.000000 0.884552 0.448018 1 0 1.000000
reticle_ui_stencil
  0 -1.115000 -0.471990 0.884865 -1.000000 0.000000 0.000000 0.859014 0.352737 1 0 1.000000
  0 -1.115000 -0.499575 0.944776 -1.000000 0.000000 0.000000 0.879881 0.398207 1 0 1.000000
  0 -1.115000 -0.419331 0.966291 -1.000000 0.000000 0.000000 0.818985 0.414525 1 0 1.000000
reticle_ui_stencil
  0 -1.115000 -0.499575 0.944776 -1.000000 0.000000 0.000000 0.879881 0.398207 1 0 1.000000
  0 -1.115000 -0.471990 0.884865 -1.000000 0.000000 0.000000 0.859014 0.352737 1 0 1.000000
  0 -1.115000 -0.580813 0.837812 -1.000000 0.000000 0.000000 0.941620 0.317047 1 0 1.000000
reticle_ui_stencil
  0 -1.115000 -0.544406 0.763906 -1.000000 0.000000 0.000000 0.914047 0.260940 1 0 1.000000
  0 -1.115000 -0.580813 0.837812 -1.000000 0.000000 0.000000 0.941620 0.317047 1 0 1.000000
  0 -1.115000 -0.471990 0.884865 -1.000000 0.000000 0.000000 0.859014 0.352737 1 0 1.000000
reticle_ui_stencil
  0 -1.115000 -0.607359 1.241630 -1.000000 0.000000 0.000000 0.965576 0.624756 1 0 1.000000
  0 -1.115000 -0.580813 1.319560 -1.000000 0.000000 0.000000 0.941620 0.682953 1 0 1.000000
  0 -1.115000 -0.471990 1.272640 -1.000000 0.000000 0.000000 0.859014 0.647263 1 0 1.000000
reticle_ui_stencil
  0 -1.115000 -0.471990 1.272640 -1.000000 0.000000 0.000000 0.859014 0.647263 1 0 1.000000
  0 -1.115000 -0.499575 1.212810 -1.000000 0.000000 0.000000 0.879881 0.601793 1 0 1.000000
  0 -1.115000 -0.607359 1.241630 -1.000000 0.000000 0.000000 0.965576 0.624756 1 0 1.000000
reticle_ui_stencil
  0 -1.115000 -0.623625 1.160940 -1.000000 0.000000 0.000000 0.973938 0.562378 1 0 1.000000
  0 -1.115000 -0.607359 1.241630 -1.000000 0.000000 0.000000 0.965576 0.624756 1 0 1.000000
  0 -1.115000 -0.499575 1.212810 -1.000000 0.000000 0.000000 0.879881 0.601793 1 0 1.000000
reticle_ui_stencil
  0 -1.115000 -0.499575 1.212810 -1.000000 0.000000 0.000000 0.879881 0.601793 1 0 1.000000
  0 -1.115000 -0.505813 1.147280 -1.000000 0.000000 0.000000 0.884552 0.551982 1 0 1.000000
  0 -1.115000 -0.623625 1.160940 -1.000000 0.000000 0.000000 0.973938 0.562378 1 0 1.000000
reticle_ui_stencil
  0 -1.115000 -0.629188 1.078840 -1.000000 0.000000 0.000000 0.978119 0.500000 1 0 1.000000
  0 -1.115000 -0.623625 1.160940 -1.000000 0.000000 0.000000 0.973938 0.562378 1 0 1.000000
  0 -1.115000 -0.505813 1.147280 -1.000000 0.000000 0.000000 0.884552 0.551982 1 0 1.000000
reticle_ui_stencil
  0 -1.115000 -0.505813 1.147280 -1.000000 0.000000 0.000000 0.884552 0.551982 1 0 1.000000
  0 -1.115000 -0.503594 1.078870 -1.000000 0.000000 0.000000 0.882838 0.500000 1 0 1.000000
  0 -1.115000 -0.629188 1.078840 -1.000000 0.000000 0.000000 0.978119 0.500000 1 0 1.000000
reticle_ui_stencil
  0 -1.115000 -0.629188 1.078840 -1.000000 0.000000 0.000000 0.978119 0.500000 1 0 1.000000
  0 -1.115000 -0.503594 1.078870 -1.000000 0.000000 0.000000 0.882838 0.500000 1 0 1.000000
  0 -1.115000 -0.505813 1.010410 -1.000000 0.000000 0.000000 0.884552 0.448018 1 0 1.000000
reticle_ui_stencil
  0 -1.115000 -0.388789 1.016020 -1.000000 0.000000 0.000000 0.795768 0.452265 1 0 1.000000
  0 -1.115000 -0.505813 1.010410 -1.000000 0.000000 0.000000 0.884552 0.448018 1 0 1.000000
  0 -1.115000 -0.503594 1.078870 -1.000000 0.000000 0.000000 0.882838 0.500000 1 0 1.000000
reticle_ui_stencil
  0 -1.115000 -0.505813 1.010410 -1.000000 0.000000 0.000000 0.884552 0.448018 1 0 1.000000
  0 -1.115000 -0.388789 1.016020 -1.000000 0.000000 0.000000 0.795768 0.452265 1 0 1.000000
  0 -1.115000 -0.419331 0.966291 -1.000000 0.000000 0.000000 0.818985 0.414525 1 0 1.000000
reticle_ui_stencil
  0 -1.115000 -0.367916 0.938532 -1.000000 0.000000 0.000000 0.780005 0.393452 1 0 1.000000
  0 -1.115000 -0.419331 0.966291 -1.000000 0.000000 0.000000 0.818985 0.414525 1 0 1.000000
  0 -1.115000 -0.388789 1.016020 -1.000000 0.000000 0.000000 0.795768 0.452265 1 0 1.000000
reticle_ui_stencil
  0 -1.115000 -0.419331 0.966291 -1.000000 0.000000 0.000000 0.818985 0.414525 1 0 1.000000
  0 -1.115000 -0.367916 0.938532 -1.000000 0.000000 0.000000 0.780005 0.393452 1 0 1.000000
  0 -1.115000 -0.471990 0.884865 -1.000000 0.000000 0.000000 0.859014 0.352737 1 0 1.000000
reticle_ui_stencil
  0 -1.115000 -0.435724 0.826703 -1.000000 0.000000 0.000000 0.831535 0.308581 1 0 1.000000
  0 -1.115000 -0.471990 0.884865 -1.000000 0.000000 0.000000 0.859014 0.352737 1 0 1.000000
  0 -1.115000 -0.367916 0.938532 -1.000000 0.000000 0.000000 0.780005 0.393452 1 0 1.000000
reticle_ui_stencil
  0 -1.115000 -0.471990 0.884865 -1.000000 0.000000 0.000000 0.859014 0.352737 1 0 1.000000
  0 -1.115000 -0.435724 0.826703 -1.000000 0.000000 0.000000 0.831535 0.308581 1 0 1.000000
  0 -1.115000 -0.544406 0.763906 -1.000000 0.000000 0.000000 0.914047 0.260940 1 0 1.000000
reticle_ui_stencil
  0 -1.115000 -0.544406 0.763906 -1.000000 0.000000 0.000000 0.914047 0.260940 1 0 1.000000
  0 -1.115000 -0.435724 0.826703 -1.000000 0.000000 0.000000 0.831535 0.308581 1 0 1.000000
  0 -1.115000 -0.403448 0.766323 -1.000000 0.000000 0.000000 0.807032 0.262710 1 0 1.000000
reticle_ui_stencil
  0 -1.115000 -0.403448 0.766323 -1.000000 0.000000 0.000000 0.807032 0.262710 1 0 1.000000
  0 -1.115000 -0.498563 0.695562 -1.000000 0.000000 0.000000 0.879242 0.209015 1 0 1.000000
  0 -1.115000 -0.544406 0.763906 -1.000000 0.000000 0.000000 0.914047 0.260940 1 0 1.000000
reticle_ui_stencil
  0 -1.115000 -0.498563 0.695562 -1.000000 0.000000 0.000000 0.879242 0.209015 1 0 1.000000
  0 -1.115000 -0.403448 0.766323 -1.000000 0.000000 0.000000 0.807032 0.262710 1 0 1.000000
  0 -1.115000 -0.365365 0.712635 -1.000000 0.000000 0.000000 0.778089 0.221911 1 0 1.000000
reticle_ui_stencil
  0 -1.115000 -0.365365 0.712635 -1.000000 0.000000 0.000000 0.778089 0.221911 1 0 1.000000
  0 -1.115000 -0.444250 0.633750 -1.000000 0.000000 0.000000 0.840821 0.159180 1 0 1.000000
  0 -1.115000 -0.498563 0.695562 -1.000000 0.000000 0.000000 0.879242 0.209015 1 0 1.000000
reticle_ui_stencil
  0 -1.115000 -0.382438 0.579437 -1.000000 0.000000 0.000000 0.790985 0.120758 1 0 1.000000
  0 -1.115000 -0.444250 0.633750 -1.000000 0.000000 0.000000 0.840821 0.159180 1 0 1.000000
  0 -1.115000 -0.365365 0.712635 -1.000000 0.000000 0.000000 0.778089 0.221911 1 0 1.000000
reticle_ui_stencil
  0 -1.115000 -0.503594 1.078870 -1.000000 0.000000 0.000000 0.882838 0.500000 1 0 1.000000
  0 -1.115000 -0.372006 1.078890 -1.000000 0.000000 0.000000 0.783008 0.500000 1 0 1.000000
  0 -1.115000 -0.388789 1.016020 -1.000000 0.000000 0.000000 0.795768 0.452265 1 0 1.000000
reticle_ui_stencil
  0 -1.115000 -0.273342 1.005430 -1.000000 0.000000 0.000000 0.708190 0.444214 1 0 1.000000
  0 -1.115000 -0.388789 1.016020 -1.000000 0.000000 0.000000 0.795768 0.452265 1 0 1.000000
  0 -1.115000 -0.372006 1.078890 -1.000000 0.000000 0.000000 0.783008 0.500000 1 0 1.000000
reticle_ui_stencil
  0 -1.115000 -0.388789 1.016020 -1.000000 0.000000 0.000000 0.795768 0.452265 1 0 1.000000
  0 -1.115000 -0.273342 1.005430 -1.000000 0.000000 0.000000 0.708190 0.444214 1 0 1.000000
  0 -1.115000 -0.367916 0.938532 -1.000000 0.000000 0.000000 0.780005 0.393452 1 0 1.000000
reticle_ui_stencil
  0 -1.115000 -0.321859 0.892494 -1.000000 0.000000 0.000000 0.745085 0.358496 1 0 1.000000
  0 -1.115000 -0.367916 0.938532 -1.000000 0.000000 0.000000 0.780005 0.393452 1 0 1.000000
  0 -1.115000 -0.273342 1.005430 -1.000000 0.000000 0.000000 0.708190 0.444214 1 0 1.000000
reticle_ui_stencil
  0 -1.115000 -0.367916 0.938532 -1.000000 0.000000 0.000000 0.780005 0.393452 1 0 1.000000
  0 -1.115000 -0.321859 0.892494 -1.000000 0.000000 0.000000 0.745085 0.358496 1 0 1.000000
  0 -1.115000 -0.435724 0.826703 -1.000000 0.000000 0.000000 0.831535 0.308581 1 0 1.000000
reticle_ui_stencil
  0 -1.115000 -0.435724 0.826703 -1.000000 0.000000 0.000000 0.831535 0.308581 1 0 1.000000
  0 -1.115000 -0.321859 0.892494 -1.000000 0.000000 0.000000 0.745085 0.358496 1 0 1.000000
  0 -1.115000 -0.304979 0.829672 -1.000000 0.000000 0.000000 0.732271 0.310779 1 0 1.000000
reticle_ui_stencil
  0 -1.115000 -0.304979 0.829672 -1.000000 0.000000 0.000000 0.732271 0.310779 1 0 1.000000
  0 -1.115000 -0.403448 0.766323 -1.000000 0.000000 0.000000 0.807032 0.262710 1 0 1.000000
  0 -1.115000 -0.435724 0.826703 -1.000000 0.000000 0.000000 0.831535 0.308581 1 0 1.000000
reticle_ui_stencil
  0 -1.115000 -0.403448 0.766323 -1.000000 0.000000 0.000000 0.807032 0.262710 1 0 1.000000
  0 -1.115000 -0.304979 0.829672 -1.000000 0.000000 0.000000 0.732271 0.310779 1 0 1.000000
  0 -1.115000 -0.306640 0.771360 -1.000000 0.000000 0.000000 0.733510 0.266490 1 0 1.000000
reticle_ui_stencil
  0 -1.115000 -0.306640 0.771360 -1.000000 0.000000 0.000000 0.733510 0.266490 1 0 1.000000
  0 -1.115000 -0.365365 0.712635 -1.000000 0.000000 0.000000 0.778089 0.221911 1 0 1.000000
  0 -1.115000 -0.403448 0.766323 -1.000000 0.000000 0.000000 0.807032 0.262710 1 0 1.000000
reticle_ui_stencil
  0 -1.115000 -0.311677 0.674552 -1.000000 0.000000 0.000000 0.737290 0.192968 1 0 1.000000
  0 -1.115000 -0.365365 0.712635 -1.000000 0.000000 0.000000 0.778089 0.221911 1 0 1.000000
  0 -1.115000 -0.306640 0.771360 -1.000000 0.000000 0.000000 0.733510 0.266490 1 0 1.000000
reticle_ui_stencil
  0 -1.115000 -0.306640 0.771360 -1.000000 0.000000 0.000000 0.733510 0.266490 1 0 1.000000
  0 -1.115000 -0.248328 0.773021 -1.000000 0.000000 0.000000 0.689220 0.267729 1 0 1.000000
  0 -1.115000 -0.311677 0.674552 -1.000000 0.000000 0.000000 0.737290 0.192968 1 0 1.000000
reticle_ui_stencil
  0 -1.115000 -0.251297 0.642276 -1.000000 0.000000 0.000000 0.691419 0.168465 1 0 1.000000
  0 -1.115000 -0.311677 0.674552 -1.000000 0.000000 0.000000 0.737290 0.192968 1 0 1.000000
  0 -1.115000 -0.248328 0.773021 -1.000000 0.000000 0.000000 0.689220 0.267729 1 0 1.000000
reticle_ui_stencil
  0 -1.115000 -0.248328 0.773021 -1.000000 0.000000 0.000000 0.689220 0.267729 1 0 1.000000
  0 -1.115000 -0.185506 0.756141 -1.000000 0.000000 0.000000 0.641504 0.254915 1 0 1.000000
  0 -1.115000 -0.251297 0.642276 -1.000000 0.000000 0.000000 0.691419 0.168465 1 0 1.000000
reticle_ui_stencil
  0 -1.115000 -0.251297 0.642276 -1.000000 0.000000 0.000000 0.691419 0.168465 1 0 1.000000
  0 -1.115000 -0.185506 0.756141 -1.000000 0.000000 0.000000 0.641504 0.254915 1 0 1.000000
  0 -1.115000 -0.139468 0.710084 -1.000000 0.000000 0.000000 0.606548 0.219995 1 0 1.000000
reticle_ui_stencil
  0 -1.115000 -0.072571 0.804658 -1.000000 0.000000 0.000000 0.555786 0.291809 1 0 1.000000
  0 -1.115000 -0.139468 0.710084 -1.000000 0.000000 0.000000 0.606548 0.219995 1 0 1.000000
  0 -1.115000 -0.185506 0.756141 -1.000000 0.000000 0.000000 0.641504 0.254915 1 0 1.000000
reticle_ui_stencil
  0 -1.115000 -0.139468 0.710084 -1.000000 0.000000 0.000000 0.606548 0.219995 1 0 1.000000
  0 -1.115000 -0.072571 0.804658 -1.000000 0.000000 0.000000 0.555786 0.291809 1 0 1.000000
  0 -1.115000 -0.061979 0.689211 -1.000000 0.000000 0.000000 0.547734 0.204231 1 0 1.000000
reticle_ui_stencil
  0 -1.115000 0.000893 0.705994 -1.000000 0.000000 0.000000 0.500000 0.216991 1 0 1.000000
  0 -1.115000 -0.061979 0.689211 -1.000000 0.000000 0.000000 0.547734 0.204231 1 0 1.000000
  0 -1.115000 -0.072571 0.804658 -1.000000 0.000000 0.000000 0.555786 0.291809 1 0 1.000000
reticle_ui_stencil
  0 -1.115000 -0.061979 0.689211 -1.000000 0.000000 0.000000 0.547734 0.204231 1 0 1.000000
  0 -1.115000 0.000893 0.705994 -1.000000 0.000000 0.000000 0.500000 0.216991 1 0 1.000000
  0 -1.115000 0.000870 0.574406 -1.000000 0.000000 0.000000 0.500000 0.117162 1 0 1.000000
reticle_ui_stencil
  0 -1.115000 -0.072571 0.804658 -1.000000 0.000000 0.000000 0.555786 0.291809 1 0 1.000000
  0 -1.115000 0.000909 0.849570 -1.000000 0.000000 0.000000 0.499999 0.325917 1 0 1.000000
  0 -1.115000 0.000893 0.705994 -1.000000 0.000000 0.000000 0.500000 0.216991 1 0 1.000000
reticle_ui_stencil
  0 -1.115000 0.000893 0.705994 -1.000000 0.000000 0.000000 0.500000 0.216991 1 0 1.000000
  0 -1.115000 0.000909 0.849570 -1.000000 0.000000 0.000000 0.499999 0.325917 1 0 1.000000
  0 -1.115000 0.074325 0.804658 -1.000000 0.000000 0.000000 0.444212 0.291809 1 0 1.000000
reticle_ui_stencil
  0 -1.115000 0.115482 0.880372 -1.000000 -0.000001 0.000000 0.412953 0.349243 1 0 1.000000
  0 -1.115000 0.074325 0.804658 -1.000000 0.000000 0.000000 0.444212 0.291809 1 0 1.000000
  0 -1.115000 0.000909 0.849570 -1.000000 0.000000 0.000000 0.499999 0.325917 1 0 1.000000
reticle_ui_stencil
  0 -1.115000 0.074325 0.804658 -1.000000 0.000000 0.000000 0.444212 0.291809 1 0 1.000000
  0 -1.115000 0.063714 0.689211 -1.000000 0.000000 0.000000 0.452265 0.204231 1 0 1.000000
  0 -1.115000 0.000893 0.705994 -1.000000 0.000000 0.000000 0.500000 0.216991 1 0 1.000000
reticle_ui_stencil
  0 -1.115000 0.141094 0.710084 -1.000000 0.000000 0.000000 0.393449 0.219995 1 0 1.000000
  0 -1.115000 0.113360 0.658669 -1.000000 0.000000 0.000000 0.414524 0.181015 1 0 1.000000
  0 -1.115000 0.063714 0.689211 -1.000000 0.000000 0.000000 0.452265 0.204231 1 0 1.000000
reticle_ui_stencil
  0 -1.115000 0.063714 0.689211 -1.000000 0.000000 0.000000 0.452265 0.204231 1 0 1.000000
  0 -1.115000 0.074325 0.804658 -1.000000 0.000000 0.000000 0.444212 0.291809 1 0 1.000000
  0 -1.115000 0.141094 0.710084 -1.000000 0.000000 0.000000 0.393449 0.219995 1 0 1.000000
reticle_ui_stencil
  0 -1.115000 0.187111 0.756141 -1.000000 0.000000 0.000000 0.358489 0.254915 1 0 1.000000
  0 -1.115000 0.141094 0.710084 -1.000000 0.000000 0.000000 0.393449 0.219995 1 0 1.000000
  0 -1.115000 0.074325 0.804658 -1.000000 0.000000 0.000000 0.444212 0.291809 1 0 1.000000
reticle_ui_stencil
  0 -1.115000 0.074325 0.804658 -1.000000 0.000000 0.000000 0.444212 0.291809 1 0 1.000000
  0 -1.115000 0.115482 0.880372 -1.000000 -0.000001 0.000000 0.412953 0.349243 1 0 1.000000
  0 -1.115000 0.187111 0.756141 -1.000000 0.000000 0.000000 0.358489 0.254915 1 0 1.000000
reticle_ui_stencil
  0 -1.115000 0.187111 0.756141 -1.000000 0.000000 0.000000 0.358489 0.254915 1 0 1.000000
  0 -1.115000 0.115482 0.880372 -1.000000 -0.000001 0.000000 0.412953 0.349243 1 0 1.000000
  0 -1.115000 0.201554 0.878200 -1.000000 -0.000001 0.000000 0.347582 0.347595 1 0 1.000000
reticle_ui_stencil
  0 -1.115000 0.199445 0.964273 -1.000000 -0.000001 0.000000 0.349229 0.412958 1 0 1.000000
  0 -1.115000 0.201554 0.878200 -1.000000 -0.000001 0.000000 0.347582 0.347595 1 0 1.000000
  0 -1.115000 0.115482 0.880372 -1.000000 -0.000001 0.000000 0.412953 0.349243 1 0 1.000000
reticle_ui_stencil
  0 -1.115000 0.115482 0.880372 -1.000000 -0.000001 0.000000 0.412953 0.349243 1 0 1.000000
  0 -1.115000 0.000949 1.078950 -1.000000 0.000000 0.000000 0.499998 0.499999 1 0 1.000000
  0 -1.115000 0.199445 0.964273 -1.000000 -0.000001 0.000000 0.349229 0.412958 1 0 1.000000
reticle_ui_stencil
  0 -1.115000 0.000909 0.849570 -1.000000 0.000000 0.000000 0.499999 0.325917 1 0 1.000000
  0 -1.115000 0.000949 1.078950 -1.000000 0.000000 0.000000 0.499998 0.499999 1 0 1.000000
  0 -1.115000 0.115482 0.880372 -1.000000 -0.000001 0.000000 0.412953 0.349243 1 0 1.000000
reticle_ui_stencil
  0 -1.115000 -0.113727 0.880372 -1.000000 0.000001 0.000000 0.587041 0.349243 1 0 1.000000
  0 -1.115000 0.000949 1.078950 -1.000000 0.000000 0.000000 0.499998 0.499999 1 0 1.000000
  0 -1.115000 0.000909 0.849570 -1.000000 0.000000 0.000000 0.499999 0.325917 1 0 1.000000
reticle_ui_stencil
  0 -1.115000 0.000909 0.849570 -1.000000 0.000000 0.000000 0.499999 0.325917 1 0 1.000000
  0 -1.115000 -0.072571 0.804658 -1.000000 0.000000 0.000000 0.555786 0.291809 1 0 1.000000
  0 -1.115000 -0.113727 0.880372 -1.000000 0.000001 0.000000 0.587041 0.349243 1 0 1.000000
reticle_ui_stencil
  0 -1.115000 -0.185506 0.756141 -1.000000 0.000000 0.000000 0.641504 0.254915 1 0 1.000000
  0 -1.115000 -0.113727 0.880372 -1.000000 0.000001 0.000000 0.587041 0.349243 1 0 1.000000
  0 -1.115000 -0.072571 0.804658 -1.000000 0.000000 0.000000 0.555786 0.291809 1 0 1.000000
reticle_ui_stencil
  0 -1.115000 0.199445 0.964273 -1.000000 -0.000001 0.000000 0.349229 0.412958 1 0 1.000000
  0 -1.115000 0.000949 1.078950 -1.000000 0.000000 0.000000 0.499998 0.499999 1 0 1.000000
  0 -1.115000 0.230185 1.078910 -1.000000 -0.000003 0.000000 0.325906 0.500000 1 0 1.000000
reticle_ui_stencil
  0 -1.115000 0.000870 0.574406 -1.000000 0.000000 0.000000 0.500000 0.117162 1 0 1.000000
  0 -1.115000 0.000893 0.705994 -1.000000 0.000000 0.000000 0.500000 0.216991 1 0 1.000000
  0 -1.115000 0.063714 0.689211 -1.000000 0.000000 0.000000 0.452265 0.204231 1 0 1.000000
reticle_ui_stencil
  0 -1.115000 0.063714 0.689211 -1.000000 0.000000 0.000000 0.452265 0.204231 1 0 1.000000
  0 -1.115000 0.069281 0.572188 -1.000000 0.000000 0.000000 0.448018 0.115448 1 0 1.000000
  0 -1.115000 0.000870 0.574406 -1.000000 0.000000 0.000000 0.500000 0.117162 1 0 1.000000
reticle_ui_stencil
  0 -1.115000 0.069281 0.572188 -1.000000 0.000000 0.000000 0.448018 0.115448 1 0 1.000000
  0 -1.115000 0.063714 0.689211 -1.000000 0.000000 0.000000 0.452265 0.204231 1 0 1.000000
  0 -1.115000 0.113360 0.658669 -1.000000 0.000000 0.000000 0.414524 0.181015 1 0 1.000000
reticle_ui_stencil
  0 -1.115000 0.113360 0.658669 -1.000000 0.000000 0.000000 0.414524 0.181015 1 0 1.000000
  0 -1.115000 0.134813 0.578424 -1.000000 0.000000 0.000000 0.398206 0.120119 1 0 1.000000
  0 -1.115000 0.069281 0.572188 -1.000000 0.000000 0.000000 0.448018 0.115448 1 0 1.000000
reticle_ui_stencil
  0 -1.115000 0.194635 0.606010 -1.000000 0.000000 0.000000 0.352734 0.140986 1 0 1.000000
  0 -1.115000 0.134813 0.578424 -1.000000 0.000000 0.000000 0.398206 0.120119 1 0 1.000000
  0 -1.115000 0.113360 0.658669 -1.000000 0.000000 0.000000 0.414524 0.181015 1 0 1.000000
reticle_ui_stencil
  0 -1.115000 0.113360 0.658669 -1.000000 0.000000 0.000000 0.414524 0.181015 1 0 1.000000
  0 -1.115000 0.141094 0.710084 -1.000000 0.000000 0.000000 0.393449 0.219995 1 0 1.000000
  0 -1.115000 0.194635 0.606010 -1.000000 0.000000 0.000000 0.352734 0.140986 1 0 1.000000
reticle_ui_stencil
  0 -1.115000 0.252755 0.642276 -1.000000 0.000000 0.000000 0.308573 0.168465 1 0 1.000000
  0 -1.115000 0.194635 0.606010 -1.000000 0.000000 0.000000 0.352734 0.140986 1 0 1.000000
  0 -1.115000 0.141094 0.710084 -1.000000 0.000000 0.000000 0.393449 0.219995 1 0 1.000000
reticle_ui_stencil
  0 -1.115000 0.141094 0.710084 -1.000000 0.000000 0.000000 0.393449 0.219995 1 0 1.000000
  0 -1.115000 0.187111 0.756141 -1.000000 0.000000 0.000000 0.358489 0.254915 1 0 1.000000
  0 -1.115000 0.252755 0.642276 -1.000000 0.000000 0.000000 0.308573 0.168465 1 0 1.000000
reticle_ui_stencil
  0 -1.115000 0.252755 0.642276 -1.000000 0.000000 0.000000 0.308573 0.168465 1 0 1.000000
  0 -1.115000 0.187111 0.756141 -1.000000 0.000000 0.000000 0.358489 0.254915 1 0 1.000000
  0 -1.115000 0.249954 0.773021 -1.000000 0.000000 0.000000 0.310766 0.267729 1 0 1.000000
reticle_ui_stencil
  0 -1.115000 0.201554 0.878200 -1.000000 -0.000001 0.000000 0.347582 0.347595 1 0 1.000000
  0 -1.115000 0.249954 0.773021 -1.000000 0.000000 0.000000 0.310766 0.267729 1 0 1.000000
  0 -1.115000 0.187111 0.756141 -1.000000 0.000000 0.000000 0.358489 0.254915 1 0 1.000000
reticle_ui_stencil
  0 -1.115000 0.249954 0.773021 -1.000000 0.000000 0.000000 0.310766 0.267729 1 0 1.000000
  0 -1.115000 0.201554 0.878200 -1.000000 -0.000001 0.000000 0.347582 0.347595 1 0 1.000000
  0 -1.115000 0.306714 0.829672 -1.000000 0.000000 0.000000 0.267707 0.310779 1 0 1.000000
reticle_ui_stencil
  0 -1.115000 0.323644 0.892494 -1.000000 0.000000 0.000000 0.254891 0.358496 1 0 1.000000
  0 -1.115000 0.306714 0.829672 -1.000000 0.000000 0.000000 0.267707 0.310779 1 0 1.000000
  0 -1.115000 0.201554 0.878200 -1.000000 -0.000001 0.000000 0.347582 0.347595 1 0 1.000000
reticle_ui_stencil
  0 -1.115000 0.201554 0.878200 -1.000000 -0.000001 0.000000 0.347582 0.347595 1 0 1.000000
  0 -1.115000 0.199445 0.964273 -1.000000 -0.000001 0.000000 0.349229 0.412958 1 0 1.000000
  0 -1.115000 0.323644 0.892494 -1.000000 0.000000 0.000000 0.254891 0.358496 1 0 1.000000
reticle_ui_stencil
  0 -1.115000 0.323644 0.892494 -1.000000 0.000000 0.000000 0.254891 0.358496 1 0 1.000000
  0 -1.115000 0.199445 0.964273 -1.000000 -0.000001 0.000000 0.349229 0.412958 1 0 1.000000
  0 -1.115000 0.275095 1.005430 -1.000000 0.000000 0.000000 0.291793 0.444214 1 0 1.000000
reticle_ui_stencil
  0 -1.115000 0.230185 1.078910 -1.000000 -0.000003 0.000000 0.325906 0.500000 1 0 1.000000
  0 -1.115000 0.275095 1.005430 -1.000000 0.000000 0.000000 0.291793 0.444214 1 0 1.000000
  0 -1.115000 0.199445 0.964273 -1.000000 -0.000001 0.000000 0.349229 0.412958 1 0 1.000000
reticle_ui_stencil
  0 -1.115000 0.275095 1.005430 -1.000000 0.000000 0.000000 0.291793 0.444214 1 0 1.000000
  0 -1.115000 0.230185 1.078910 -1.000000 -0.000003 0.000000 0.325906 0.500000 1 0 1.000000
  0 -1.115000 0.373611 1.078890 -1.000000 0.000000 0.000000 0.216976 0.500000 1 0 1.000000
reticle_ui_stencil
  0 -1.115000 0.373611 1.078890 -1.000000 0.000000 0.000000 0.216976 0.500000 1 0 1.000000
  0 -1.115000 0.230185 1.078910 -1.000000 -0.000003 0.000000 0.325906 0.500000 1 0 1.000000
  0 -1.115000 0.275095 1.152320 -1.000000 0.000000 0.000000 0.291793 0.555786 1 0 1.000000
reticle_ui_stencil
  0 -1.115000 0.275095 1.152320 -1.000000 0.000000 0.000000 0.291793 0.555786 1 0 1.000000
  0 -1.115000 0.390414 1.141710 -1.000000 0.000000 0.000000 0.204213 0.547735 1 0 1.000000
  0 -1.115000 0.373611 1.078890 -1.000000 0.000000 0.000000 0.216976 0.500000 1 0 1.000000
reticle_ui_stencil
  0 -1.115000 0.390414 1.141710 -1.000000 0.000000 0.000000 0.204213 0.547735 1 0 1.000000
  0 -1.115000 0.275095 1.152320 -1.000000 0.000000 0.000000 0.291793 0.555786 1 0 1.000000
  0 -1.115000 0.369651 1.219090 -1.000000 0.000000 0.000000 0.219971 0.606548 1 0 1.000000
reticle_ui_stencil
  0 -1.115000 0.369651 1.219090 -1.000000 0.000000 0.000000 0.219971 0.606548 1 0 1.000000
  0 -1.115000 0.420982 1.191360 -1.000000 0.000000 0.000000 0.180992 0.585475 1 0 1.000000
  0 -1.115000 0.390414 1.141710 -1.000000 0.000000 0.000000 0.204213 0.547735 1 0 1.000000
reticle_ui_stencil
  0 -1.115000 0.199445 1.193480 -1.000000 -0.000001 0.000000 0.349229 0.587040 1 0 1.000000
  0 -1.115000 0.275095 1.152320 -1.000000 0.000000 0.000000 0.291793 0.555786 1 0 1.000000
  0 -1.115000 0.230185 1.078910 -1.000000 -0.000003 0.000000 0.325906 0.500000 1 0 1.000000
reticle_ui_stencil
  0 -1.115000 0.230185 1.078910 -1.000000 -0.000003 0.000000 0.325906 0.500000 1 0 1.000000
  0 -1.115000 0.000949 1.078950 -1.000000 0.000000 0.000000 0.499998 0.499999 1 0 1.000000
  0 -1.115000 0.199445 1.193480 -1.000000 -0.000001 0.000000 0.349229 0.587040 1 0 1.000000
reticle_ui_stencil
  0 -1.115000 0.199445 1.193480 -1.000000 -0.000001 0.000000 0.349229 0.587040 1 0 1.000000
  0 -1.115000 0.000949 1.078950 -1.000000 0.000000 0.000000 0.499998 0.499999 1 0 1.000000
  0 -1.115000 0.115482 1.277450 -1.000000 -0.000001 0.000000 0.412953 0.650750 1 0 1.000000
reticle_ui_stencil
  0 -1.115000 0.201554 1.279550 -1.000000 -0.000001 0.000000 0.347582 0.652403 1 0 1.000000
  0 -1.115000 0.115482 1.277450 -1.000000 -0.000001 0.000000 0.412953 0.650750 1 0 1.000000
  0 -1.115000 0.187111 1.401640 -1.000000 0.000000 0.000000 0.358489 0.745076 1 0 1.000000
reticle_ui_stencil
  0 -1.115000 0.115482 1.277450 -1.000000 -0.000001 0.000000 0.412953 0.650750 1 0 1.000000
  0 -1.115000 0.201554 1.279550 -1.000000 -0.000001 0.000000 0.347582 0.652403 1 0 1.000000
  0 -1.115000 0.199445 1.193480 -1.000000 -0.000001 0.000000 0.349229 0.587040 1 0 1.000000
reticle_ui_stencil
  0 -1.115000 0.323644 1.265110 -1.000000 0.000000 0.000000 0.254891 0.641504 1 0 1.000000
  0 -1.115000 0.199445 1.193480 -1.000000 -0.000001 0.000000 0.349229 0.587040 1 0 1.000000
  0 -1.115000 0.201554 1.279550 -1.000000 -0.000001 0.000000 0.347582 0.652403 1 0 1.000000
reticle_ui_stencil
  0 -1.115000 0.275095 1.152320 -1.000000 0.000000 0.000000 0.291793 0.555786 1 0 1.000000
  0 -1.115000 0.199445 1.193480 -1.000000 -0.000001 0.000000 0.349229 0.587040 1 0 1.000000
  0 -1.115000 0.323644 1.265110 -1.000000 0.000000 0.000000 0.254891 0.641504 1 0 1.000000
reticle_ui_stencil
  0 -1.115000 0.323644 1.265110 -1.000000 0.000000 0.000000 0.254891 0.641504 1 0 1.000000
  0 -1.115000 0.369651 1.219090 -1.000000 0.000000 0.000000 0.219971 0.606548 1 0 1.000000
  0 -1.115000 0.275095 1.152320 -1.000000 0.000000 0.000000 0.291793 0.555786 1 0 1.000000
reticle_ui_stencil
  0 -1.115000 0.315406 0.533594 -1.000000 0.000000 0.000000 0.260931 0.085953 1 0 1.000000
  0 -1.115000 0.252755 0.642276 -1.000000 0.000000 0.000000 0.308573 0.168465 1 0 1.000000
  0 -1.115000 0.313177 0.674552 -1.000000 0.000000 0.000000 0.262695 0.192968 1 0 1.000000
reticle_ui_stencil
  0 -1.115000 0.249954 0.773021 -1.000000 0.000000 0.000000 0.310766 0.267729 1 0 1.000000
  0 -1.115000 0.313177 0.674552 -1.000000 0.000000 0.000000 0.262695 0.192968 1 0 1.000000
  0 -1.115000 0.252755 0.642276 -1.000000 0.000000 0.000000 0.308573 0.168465 1 0 1.000000
reticle_ui_stencil
  0 -1.115000 0.313177 0.674552 -1.000000 0.000000 0.000000 0.262695 0.192968 1 0 1.000000
  0 -1.115000 0.249954 0.773021 -1.000000 0.000000 0.000000 0.310766 0.267729 1 0 1.000000
  0 -1.115000 0.308291 0.771360 -1.000000 0.000000 0.000000 0.266469 0.266490 1 0 1.000000
reticle_ui_stencil
  0 -1.115000 0.306714 0.829672 -1.000000 0.000000 0.000000 0.267707 0.310779 1 0 1.000000
  0 -1.115000 0.308291 0.771360 -1.000000 0.000000 0.000000 0.266469 0.266490 1 0 1.000000
  0 -1.115000 0.249954 0.773021 -1.000000 0.000000 0.000000 0.310766 0.267729 1 0 1.000000
reticle_ui_stencil
  0 -1.115000 0.308291 0.771360 -1.000000 0.000000 0.000000 0.266469 0.266490 1 0 1.000000
  0 -1.115000 0.306714 0.829672 -1.000000 0.000000 0.000000 0.267707 0.310779 1 0 1.000000
  0 -1.115000 0.405135 0.766323 -1.000000 0.000000 0.000000 0.192937 0.262710 1 0 1.000000
reticle_ui_stencil
  0 -1.115000 0.437464 0.826703 -1.000000 0.000000 0.000000 0.168431 0.308581 1 0 1.000000
  0 -1.115000 0.405135 0.766323 -1.000000 0.000000 0.000000 0.192937 0.262710 1 0 1.000000
  0 -1.115000 0.306714 0.829672 -1.000000 0.000000 0.000000 0.267707 0.310779 1 0 1.000000
reticle_ui_stencil
  0 -1.115000 0.306714 0.829672 -1.000000 0.000000 0.000000 0.267707 0.310779 1 0 1.000000
  0 -1.115000 0.323644 0.892494 -1.000000 0.000000 0.000000 0.254891 0.358496 1 0 1.000000
  0 -1.115000 0.437464 0.826703 -1.000000 0.000000 0.000000 0.168431 0.308581 1 0 1.000000
reticle_ui_stencil
  0 -1.115000 0.437464 0.826703 -1.000000 0.000000 0.000000 0.168431 0.308581 1 0 1.000000
  0 -1.115000 0.323644 0.892494 -1.000000 0.000000 0.000000 0.254891 0.358496 1 0 1.000000
  0 -1.115000 0.369651 0.938532 -1.000000 0.000000 0.000000 0.219971 0.393452 1 0 1.000000
reticle_ui_stencil
  0 -1.115000 0.275095 1.005430 -1.000000 0.000000 0.000000 0.291793 0.444214 1 0 1.000000
  0 -1.115000 0.369651 0.938532 -1.000000 0.000000 0.000000 0.219971 0.393452 1 0 1.000000
  0 -1.115000 0.323644 0.892494 -1.000000 0.000000 0.000000 0.254891 0.358496 1 0 1.000000
reticle_ui_stencil
  0 -1.115000 0.369651 0.938532 -1.000000 0.000000 0.000000 0.219971 0.393452 1 0 1.000000
  0 -1.115000 0.275095 1.005430 -1.000000 0.000000 0.000000 0.291793 0.444214 1 0 1.000000
  0 -1.115000 0.390414 1.016020 -1.000000 0.000000 0.000000 0.204213 0.452265 1 0 1.000000
reticle_ui_stencil
  0 -1.115000 0.373611 1.078890 -1.000000 0.000000 0.000000 0.216976 0.500000 1 0 1.000000
  0 -1.115000 0.390414 1.016020 -1.000000 0.000000 0.000000 0.204213 0.452265 1 0 1.000000
  0 -1.115000 0.275095 1.005430 -1.000000 0.000000 0.000000 0.291793 0.444214 1 0 1.000000
reticle_ui_stencil
  0 -1.115000 0.390414 1.016020 -1.000000 0.000000 0.000000 0.204213 0.452265 1 0 1.000000
  0 -1.115000 0.373611 1.078890 -1.000000 0.000000 0.000000 0.216976 0.500000 1 0 1.000000
  0 -1.115000 0.505052 1.078870 -1.000000 0.000000 0.000000 0.117143 0.500000 1 0 1.000000
reticle_ui_stencil
  0 -1.115000 0.505052 1.078870 -1.000000 0.000000 0.000000 0.117143 0.500000 1 0 1.000000
  0 -1.115000 0.373611 1.078890 -1.000000 0.000000 0.000000 0.216976 0.500000 1 0 1.000000
  0 -1.115000 0.390414 1.141710 -1.000000 0.000000 0.000000 0.204213 0.547735 1 0 1.000000
reticle_ui_stencil
  0 -1.115000 0.390414 1.141710 -1.000000 0.000000 0.000000 0.204213 0.547735 1 0 1.000000
  0 -1.115000 0.507313 1.147280 -1.000000 0.000000 0.000000 0.115426 0.551982 1 0 1.000000
  0 -1.115000 0.505052 1.078870 -1.000000 0.000000 0.000000 0.117143 0.500000 1 0 1.000000
reticle_ui_stencil
  0 -1.115000 0.507313 1.147280 -1.000000 0.000000 0.000000 0.115426 0.551982 1 0 1.000000
  0 -1.115000 0.390414 1.141710 -1.000000 0.000000 0.000000 0.204213 0.547735 1 0 1.000000
  0 -1.115000 0.420982 1.191360 -1.000000 0.000000 0.000000 0.180992 0.585475 1 0 1.000000
reticle_ui_stencil
  0 -1.115000 0.420982 1.191360 -1.000000 0.000000 0.000000 0.180992 0.585475 1 0 1.000000
  0 -1.115000 0.501164 1.212810 -1.000000 0.000000 0.000000 0.120091 0.601793 1 0 1.000000
  0 -1.115000 0.507313 1.147280 -1.000000 0.000000 0.000000 0.115426 0.551982 1 0 1.000000
reticle_ui_stencil
  0 -1.115000 0.473677 1.272640 -1.000000 0.000000 0.000000 0.140954 0.647263 1 0 1.000000
  0 -1.115000 0.501164 1.212810 -1.000000 0.000000 0.000000 0.120091 0.601793 1 0 1.000000
  0 -1.115000 0.420982 1.191360 -1.000000 0.000000 0.000000 0.180992 0.585475 1 0 1.000000
reticle_ui_stencil
  0 -1.115000 0.420982 1.191360 -1.000000 0.000000 0.000000 0.180992 0.585475 1 0 1.000000
  0 -1.115000 0.369651 1.219090 -1.000000 0.000000 0.000000 0.219971 0.606548 1 0 1.000000
  0 -1.115000 0.473677 1.272640 -1.000000 0.000000 0.000000 0.140954 0.647263 1 0 1.000000
reticle_ui_stencil
  0 -1.115000 0.308291 0.771360 -1.000000 0.000000 0.000000 0.266469 0.266490 1 0 1.000000
  0 -1.115000 0.366953 0.712635 -1.000000 0.000000 0.000000 0.221887 0.221911 1 0 1.000000
  0 -1.115000 0.313177 0.674552 -1.000000 0.000000 0.000000 0.262695 0.192968 1 0 1.000000
reticle_ui_stencil
  0 -1.115000 0.405135 0.766323 -1.000000 0.000000 0.000000 0.192937 0.262710 1 0 1.000000
  0 -1.115000 0.366953 0.712635 -1.000000 0.000000 0.000000 0.221887 0.221911 1 0 1.000000
  0 -1.115000 0.308291 0.771360 -1.000000 0.000000 0.000000 0.266469 0.266490 1 0 1.000000
reticle_ui_stencil
  0 -1.115000 0.313177 0.674552 -1.000000 0.000000 0.000000 0.262695 0.192968 1 0 1.000000
  0 -1.115000 0.383812 0.579437 -1.000000 0.000000 0.000000 0.208996 0.120758 1 0 1.000000
  0 -1.115000 0.315406 0.533594 -1.000000 0.000000 0.000000 0.260931 0.085953 1 0 1.000000
reticle_ui_stencil
  0 -1.115000 0.383812 0.579437 -1.000000 0.000000 0.000000 0.208996 0.120758 1 0 1.000000
  0 -1.115000 0.313177 0.674552 -1.000000 0.000000 0.000000 0.262695 0.192968 1 0 1.000000
  0 -1.115000 0.366953 0.712635 -1.000000 0.000000 0.000000 0.221887 0.221911 1 0 1.000000
reticle_ui_stencil
  0 -1.115000 0.366953 0.712635 -1.000000 0.000000 0.000000 0.221887 0.221911 1 0 1.000000
  0 -1.115000 0.445750 0.633750 -1.000000 0.000000 0.000000 0.159149 0.159180 1 0 1.000000
  0 -1.115000 0.383812 0.579437 -1.000000 0.000000 0.000000 0.208996 0.120758 1 0 1.000000
reticle_ui_stencil
  0 -1.115000 0.500187 0.695562 -1.000000 0.000000 0.000000 0.120719 0.209015 1 0 1.000000
  0 -1.115000 0.445750 0.633750 -1.000000 0.000000 0.000000 0.159149 0.159180 1 0 1.000000
  0 -1.115000 0.366953 0.712635 -1.000000 0.000000 0.000000 0.221887 0.221911 1 0 1.000000
reticle_ui_stencil
  0 -1.115000 0.366953 0.712635 -1.000000 0.000000 0.000000 0.221887 0.221911 1 0 1.000000
  0 -1.115000 0.405135 0.766323 -1.000000 0.000000 0.000000 0.192937 0.262710 1 0 1.000000
  0 -1.115000 0.500187 0.695562 -1.000000 0.000000 0.000000 0.120719 0.209015 1 0 1.000000
reticle_ui_stencil
  0 -1.115000 0.546094 0.763906 -1.000000 0.000000 0.000000 0.085910 0.260940 1 0 1.000000
  0 -1.115000 0.500187 0.695562 -1.000000 0.000000 0.000000 0.120719 0.209015 1 0 1.000000
  0 -1.115000 0.405135 0.766323 -1.000000 0.000000 0.000000 0.192937 0.262710 1 0 1.000000
reticle_ui_stencil
  0 -1.115000 0.405135 0.766323 -1.000000 0.000000 0.000000 0.192937 0.262710 1 0 1.000000
  0 -1.115000 0.437464 0.826703 -1.000000 0.000000 0.000000 0.168431 0.308581 1 0 1.000000
  0 -1.115000 0.546094 0.763906 -1.000000 0.000000 0.000000 0.085910 0.260940 1 0 1.000000
reticle_ui_stencil
  0 -1.115000 0.546094 0.763906 -1.000000 0.000000 0.000000 0.085910 0.260940 1 0 1.000000
  0 -1.115000 0.437464 0.826703 -1.000000 0.000000 0.000000 0.168431 0.308581 1 0 1.000000
  0 -1.115000 0.473677 0.884865 -1.000000 0.000000 0.000000 0.140954 0.352737 1 0 1.000000
reticle_ui_stencil
  0 -1.115000 0.369651 0.938532 -1.000000 0.000000 0.000000 0.219971 0.393452 1 0 1.000000
  0 -1.115000 0.473677 0.884865 -1.000000 0.000000 0.000000 0.140954 0.352737 1 0 1.000000
  0 -1.115000 0.437464 0.826703 -1.000000 0.000000 0.000000 0.168431 0.308581 1 0 1.000000
reticle_ui_stencil
  0 -1.115000 0.473677 0.884865 -1.000000 0.000000 0.000000 0.140954 0.352737 1 0 1.000000
  0 -1.115000 0.369651 0.938532 -1.000000 0.000000 0.000000 0.219971 0.393452 1 0 1.000000
  0 -1.115000 0.420982 0.966291 -1.000000 0.000000 0.000000 0.180992 0.414525 1 0 1.000000
reticle_ui_stencil
  0 -1.115000 0.390414 1.016020 -1.000000 0.000000 0.000000 0.204213 0.452265 1 0 1.000000
  0 -1.115000 0.420982 0.966291 -1.000000 0.000000 0.000000 0.180992 0.414525 1 0 1.000000
  0 -1.115000 0.369651 0.938532 -1.000000 0.000000 0.000000 0.219971 0.393452 1 0 1.000000
reticle_ui_stencil
  0 -1.115000 0.420982 0.966291 -1.000000 0.000000 0.000000 0.180992 0.414525 1 0 1.000000
  0 -1.115000 0.390414 1.016020 -1.000000 0.000000 0.000000 0.204213 0.452265 1 0 1.000000
  0 -1.115000 0.507312 1.010410 -1.000000 0.000000 0.000000 0.115426 0.448018 1 0 1.000000
reticle_ui_stencil
  0 -1.115000 0.505052 1.078870 -1.000000 0.000000 0.000000 0.117143 0.500000 1 0 1.000000
  0 -1.115000 0.507312 1.010410 -1.000000 0.000000 0.000000 0.115426 0.448018 1 0 1.000000
  0 -1.115000 0.390414 1.016020 -1.000000 0.000000 0.000000 0.204213 0.452265 1 0 1.000000
reticle_ui_stencil
  0 -1.115000 0.507312 1.010410 -1.000000 0.000000 0.000000 0.115426 0.448018 1 0 1.000000
  0 -1.115000 0.505052 1.078870 -1.000000 0.000000 0.000000 0.117143 0.500000 1 0 1.000000
  0 -1.115000 0.630500 1.078840 -1.000000 0.000000 0.000000 0.021858 0.500000 1 0 1.000000
reticle_ui_stencil
  0 -1.115000 0.630500 1.078840 -1.000000 0.000000 0.000000 0.021858 0.500000 1 0 1.000000
  0 -1.115000 0.505052 1.078870 -1.000000 0.000000 0.000000 0.117143 0.500000 1 0 1.000000
  0 -1.115000 0.507313 1.147280 -1.000000 0.000000 0.000000 0.115426 0.551982 1 0 1.000000
reticle_ui_stencil
  0 -1.115000 0.507313 1.147280 -1.000000 0.000000 0.000000 0.115426 0.551982 1 0 1.000000
  0 -1.115000 0.625000 1.160940 -1.000000 0.000000 0.000000 0.026035 0.562378 1 0 1.000000
  0 -1.115000 0.630500 1.078840 -1.000000 0.000000 0.000000 0.021858 0.500000 1 0 1.000000
reticle_ui_stencil
  0 -1.115000 0.625000 1.160940 -1.000000 0.000000 0.000000 0.026035 0.562378 1 0 1.000000
  0 -1.115000 0.507313 1.147280 -1.000000 0.000000 0.000000 0.115426 0.551982 1 0 1.000000
  0 -1.115000 0.501164 1.212810 -1.000000 0.000000 0.000000 0.120091 0.601793 1 0 1.000000
reticle_ui_stencil
  0 -1.115000 0.501164 1.212810 -1.000000 0.000000 0.000000 0.120091 0.601793 1 0 1.000000
  0 -1.115000 0.608859 1.241630 -1.000000 0.000000 0.000000 0.034390 0.624756 1 0 1.000000
  0 -1.115000 0.625000 1.160940 -1.000000 0.000000 0.000000 0.026035 0.562378 1 0 1.000000
reticle_ui_stencil
  0 -1.115000 0.420982 0.966291 -1.000000 0.000000 0.000000 0.180992 0.414525 1 0 1.000000
  0 -1.115000 0.501164 0.944776 -1.000000 0.000000 0.000000 0.120091 0.398207 1 0 1.000000
  0 -1.115000 0.473677 0.884865 -1.000000 0.000000 0.000000 0.140954 0.352737 1 0 1.000000
reticle_ui_stencil
  0 -1.115000 0.507312 1.010410 -1.000000 0.000000 0.000000 0.115426 0.448018 1 0 1.000000
  0 -1.115000 0.501164 0.944776 -1.000000 0.000000 0.000000 0.120091 0.398207 1 0 1.000000
  0 -1.115000 0.420982 0.966291 -1.000000 0.000000 0.000000 0.180992 0.414525 1 0 1.000000
reticle_ui_stencil
  0 -1.115000 0.501164 0.944776 -1.000000 0.000000 0.000000 0.120091 0.398207 1 0 1.000000
  0 -1.115000 0.507312 1.010410 -1.000000 0.000000 0.000000 0.115426 0.448018 1 0 1.000000
  0 -1.115000 0.625000 0.996688 -1.000000 0.000000 0.000000 0.026035 0.437622 1 0 1.000000
reticle_ui_stencil
  0 -1.115000 0.630500 1.078840 -1.000000 0.000000 0.000000 0.021858 0.500000 1 0 1.000000
  0 -1.115000 0.625000 0.996688 -1.000000 0.000000 0.000000 0.026035 0.437622 1 0 1.000000
  0 -1.115000 0.507312 1.010410 -1.000000 0.000000 0.000000 0.115426 0.448018 1 0 1.000000
reticle_ui_stencil
  0 -1.115000 0.473677 0.884865 -1.000000 0.000000 0.000000 0.140954 0.352737 1 0 1.000000
  0 -1.115000 0.582437 0.837813 -1.000000 0.000000 0.000000 0.058340 0.317047 1 0 1.000000
  0 -1.115000 0.546094 0.763906 -1.000000 0.000000 0.000000 0.085910 0.260940 1 0 1.000000
reticle_ui_stencil
  0 -1.115000 0.582437 0.837813 -1.000000 0.000000 0.000000 0.058340 0.317047 1 0 1.000000
  0 -1.115000 0.473677 0.884865 -1.000000 0.000000 0.000000 0.140954 0.352737 1 0 1.000000
  0 -1.115000 0.501164 0.944776 -1.000000 0.000000 0.000000 0.120091 0.398207 1 0 1.000000
reticle_ui_stencil
  0 -1.115000 0.501164 0.944776 -1.000000 0.000000 0.000000 0.120091 0.398207 1 0 1.000000
  0 -1.115000 0.608859 0.915875 -1.000000 0.000000 0.000000 0.034390 0.375244 1 0 1.000000
  0 -1.115000 0.582437 0.837813 -1.000000 0.000000 0.000000 0.058340 0.317047 1 0 1.000000
reticle_ui_stencil
  0 -1.115000 0.625000 0.996688 -1.000000 0.000000 0.000000 0.026035 0.437622 1 0 1.000000
  0 -1.115000 0.608859 0.915875 -1.000000 0.000000 0.000000 0.034390 0.375244 1 0 1.000000
  0 -1.115000 0.501164 0.944776 -1.000000 0.000000 0.000000 0.120091 0.398207 1 0 1.000000
reticle_ui_stencil
  0 -1.115000 0.582438 1.319560 -1.000000 0.000000 0.000000 0.058340 0.682953 1 0 1.000000
  0 -1.115000 0.608859 1.241630 -1.000000 0.000000 0.000000 0.034390 0.624756 1 0 1.000000
  0 -1.115000 0.501164 1.212810 -1.000000 0.000000 0.000000 0.120091 0.601793 1 0 1.000000
reticle_ui_stencil
  0 -1.115000 0.501164 1.212810 -1.000000 0.000000 0.000000 0.120091 0.601793 1 0 1.000000
  0 -1.115000 0.473677 1.272640 -1.000000 0.000000 0.000000 0.140954 0.647263 1 0 1.000000
  0 -1.115000 0.582438 1.319560 -1.000000 0.000000 0.000000 0.058340 0.682953 1 0 1.000000
reticle_ui_stencil
  0 -1.115000 0.546094 1.393410 -1.000000 0.000000 0.000000 0.085910 0.739060 1 0 1.000000
  0 -1.115000 0.582438 1.319560 -1.000000 0.000000 0.000000 0.058340 0.682953 1 0 1.000000
  0 -1.115000 0.473677 1.272640 -1.000000 0.000000 0.000000 0.140954 0.647263 1 0 1.000000
reticle_ui_stencil
  0 -1.115000 0.473677 1.272640 -1.000000 0.000000 0.000000 0.140954 0.647263 1 0 1.000000
  0 -1.115000 0.437464 1.330760 -1.000000 0.000000 0.000000 0.168431 0.691419 1 0 1.000000
  0 -1.115000 0.546094 1.393410 -1.000000 0.000000 0.000000 0.085910 0.739060 1 0 1.000000
reticle_ui_stencil
  0 -1.115000 0.546094 1.393410 -1.000000 0.000000 0.000000 0.085910 0.739060 1 0 1.000000
  0 -1.115000 0.437464 1.330760 -1.000000 0.000000 0.000000 0.168431 0.691419 1 0 1.000000
  0 -1.115000 0.405135 1.391180 -1.000000 0.000000 0.000000 0.192937 0.737290 1 0 1.000000
reticle_ui_stencil
  0 -1.115000 0.306714 1.327950 -1.000000 0.000000 0.000000 0.267707 0.689220 1 0 1.000000
  0 -1.115000 0.405135 1.391180 -1.000000 0.000000 0.000000 0.192937 0.737290 1 0 1.000000
  0 -1.115000 0.437464 1.330760 -1.000000 0.000000 0.000000 0.168431 0.691419 1 0 1.000000
reticle_ui_stencil
  0 -1.115000 0.405135 1.391180 -1.000000 0.000000 0.000000 0.192937 0.737290 1 0 1.000000
  0 -1.115000 0.306714 1.327950 -1.000000 0.000000 0.000000 0.267707 0.689220 1 0 1.000000
  0 -1.115000 0.308291 1.386290 -1.000000 0.000000 0.000000 0.266469 0.733509 1 0 1.000000
reticle_ui_stencil
  0 -1.115000 0.249954 1.384710 -1.000000 0.000000 0.000000 0.310766 0.732267 1 0 1.000000
  0 -1.115000 0.308291 1.386290 -1.000000 0.000000 0.000000 0.266469 0.733509 1 0 1.000000
  0 -1.115000 0.306714 1.327950 -1.000000 0.000000 0.000000 0.267707 0.689220 1 0 1.000000
reticle_ui_stencil
  0 -1.115000 0.308291 1.386290 -1.000000 0.000000 0.000000 0.266469 0.733509 1 0 1.000000
  0 -1.115000 0.249954 1.384710 -1.000000 0.000000 0.000000 0.310766 0.732267 1 0 1.000000
  0 -1.115000 0.313177 1.483140 -1.000000 0.000000 0.000000 0.262695 0.807028 1 0 1.000000
reticle_ui_stencil
  0 -1.115000 0.252755 1.515460 -1.000000 0.000000 0.000000 0.308573 0.831525 1 0 1.000000
  0 -1.115000 0.313177 1.483140 -1.000000 0.000000 0.000000 0.262695 0.807028 1 0 1.000000
  0 -1.115000 0.249954 1.384710 -1.000000 0.000000 0.000000 0.310766 0.732267 1 0 1.000000
reticle_ui_stencil
  0 -1.115000 0.313177 1.483140 -1.000000 0.000000 0.000000 0.262695 0.807028 1 0 1.000000
  0 -1.115000 0.252755 1.515460 -1.000000 0.000000 0.000000 0.308573 0.831525 1 0 1.000000
  0 -1.115000 0.315406 1.624090 -1.000000 0.000000 0.000000 0.260931 0.914034 1 0 1.000000
reticle_ui_stencil
  0 -1.115000 0.315406 1.624090 -1.000000 0.000000 0.000000 0.260931 0.914034 1 0 1.000000
  0 -1.115000 0.252755 1.515460 -1.000000 0.000000 0.000000 0.308573 0.831525 1 0 1.000000
  0 -1.115000 0.194635 1.551680 -1.000000 0.000000 0.000000 0.352734 0.858992 1 0 1.000000
reticle_ui_stencil
  0 -1.115000 0.194635 1.551680 -1.000000 0.000000 0.000000 0.352734 0.858992 1 0 1.000000
  0 -1.115000 0.241562 1.660440 -1.000000 0.000000 0.000000 0.317043 0.941594 1 0 1.000000
  0 -1.115000 0.315406 1.624090 -1.000000 0.000000 0.000000 0.260931 0.914034 1 0 1.000000
reticle_ui_stencil
  0 -1.115000 0.241562 1.660440 -1.000000 0.000000 0.000000 0.317043 0.941594 1 0 1.000000
  0 -1.115000 0.194635 1.551680 -1.000000 0.000000 0.000000 0.352734 0.858992 1 0 1.000000
  0 -1.115000 0.134812 1.579160 -1.000000 0.000000 0.000000 0.398206 0.879848 1 0 1.000000
reticle_ui_stencil
  0 -1.115000 0.134812 1.579160 -1.000000 0.000000 0.000000 0.398206 0.879848 1 0 1.000000
  0 -1.115000 0.163625 1.686860 -1.000000 0.000000 0.000000 0.375244 0.965535 1 0 1.000000
  0 -1.115000 0.241562 1.660440 -1.000000 0.000000 0.000000 0.317043 0.941594 1 0 1.000000
reticle_ui_stencil
  0 -1.115000 0.082938 1.703000 -1.000000 0.000000 0.000000 0.437622 0.973886 1 0 1.000000
  0 -1.115000 0.163625 1.686860 -1.000000 0.000000 0.000000 0.375244 0.965535 1 0 1.000000
  0 -1.115000 0.134812 1.579160 -1.000000 0.000000 0.000000 0.398206 0.879848 1 0 1.000000
reticle_ui_stencil
  0 -1.115000 0.134812 1.579160 -1.000000 0.000000 0.000000 0.398206 0.879848 1 0 1.000000
  0 -1.115000 0.069281 1.585310 -1.000000 0.000000 0.000000 0.448018 0.884510 1 0 1.000000
  0 -1.115000 0.082938 1.703000 -1.000000 0.000000 0.000000 0.437622 0.973886 1 0 1.000000
reticle_ui_stencil
  0 -1.115000 0.000844 1.708500 -1.000000 0.000000 0.000000 0.500000 0.978062 1 0 1.000000
  0 -1.115000 0.082938 1.703000 -1.000000 0.000000 0.000000 0.437622 0.973886 1 0 1.000000
  0 -1.115000 0.069281 1.585310 -1.000000 0.000000 0.000000 0.448018 0.884510 1 0 1.000000
reticle_ui_stencil
  0 -1.115000 0.405135 1.391180 -1.000000 0.000000 0.000000 0.192937 0.737290 1 0 1.000000
  0 -1.115000 0.500188 1.461810 -1.000000 0.000000 0.000000 0.120719 0.790985 1 0 1.000000
  0 -1.115000 0.546094 1.393410 -1.000000 0.000000 0.000000 0.085910 0.739060 1 0 1.000000
reticle_ui_stencil
  0 -1.115000 0.500188 1.461810 -1.000000 0.000000 0.000000 0.120719 0.790985 1 0 1.000000
  0 -1.115000 0.405135 1.391180 -1.000000 0.000000 0.000000 0.192937 0.737290 1 0 1.000000
  0 -1.115000 0.366953 1.444950 -1.000000 0.000000 0.000000 0.221887 0.778088 1 0 1.000000
reticle_ui_stencil
  0 -1.115000 0.308291 1.386290 -1.000000 0.000000 0.000000 0.266469 0.733509 1 0 1.000000
  0 -1.115000 0.366953 1.444950 -1.000000 0.000000 0.000000 0.221887 0.778088 1 0 1.000000
  0 -1.115000 0.405135 1.391180 -1.000000 0.000000 0.000000 0.192937 0.737290 1 0 1.000000
reticle_ui_stencil
  0 -1.115000 0.313177 1.483140 -1.000000 0.000000 0.000000 0.262695 0.807028 1 0 1.000000
  0 -1.115000 0.366953 1.444950 -1.000000 0.000000 0.000000 0.221887 0.778088 1 0 1.000000
  0 -1.115000 0.308291 1.386290 -1.000000 0.000000 0.000000 0.266469 0.733509 1 0 1.000000
reticle_ui_stencil
  0 -1.115000 0.366953 1.444950 -1.000000 0.000000 0.000000 0.221887 0.778088 1 0 1.000000
  0 -1.115000 0.313177 1.483140 -1.000000 0.000000 0.000000 0.262695 0.807028 1 0 1.000000
  0 -1.115000 0.383812 1.578190 -1.000000 0.000000 0.000000 0.208996 0.879237 1 0 1.000000
reticle_ui_stencil
  0 -1.115000 0.315406 1.624090 -1.000000 0.000000 0.000000 0.260931 0.914034 1 0 1.000000
  0 -1.115000 0.383812 1.578190 -1.000000 0.000000 0.000000 0.208996 0.879237 1 0 1.000000
  0 -1.115000 0.313177 1.483140 -1.000000 0.000000 0.000000 0.262695 0.807028 1 0 1.000000
reticle_ui_stencil
  0 -1.115000 0.366953 1.444950 -1.000000 0.000000 0.000000 0.221887 0.778088 1 0 1.000000
  0 -1.115000 0.445750 1.523750 -1.000000 0.000000 0.000000 0.159149 0.840821 1 0 1.000000
  0 -1.115000 0.500188 1.461810 -1.000000 0.000000 0.000000 0.120719 0.790985 1 0 1.000000
reticle_ui_stencil
  0 -1.115000 0.383812 1.578190 -1.000000 0.000000 0.000000 0.208996 0.879237 1 0 1.000000
  0 -1.115000 0.445750 1.523750 -1.000000 0.000000 0.000000 0.159149 0.840821 1 0 1.000000
  0 -1.115000 0.366953 1.444950 -1.000000 0.000000 0.000000 0.221887 0.778088 1 0 1.000000
reticle_ui_stencil
  0 -1.115000 0.437464 1.330760 -1.000000 0.000000 0.000000 0.168431 0.691419 1 0 1.000000
  0 -1.115000 0.473677 1.272640 -1.000000 0.000000 0.000000 0.140954 0.647263 1 0 1.000000
  0 -1.115000 0.369651 1.219090 -1.000000 0.000000 0.000000 0.219971 0.606548 1 0 1.000000
reticle_ui_stencil
  0 -1.115000 0.369651 1.219090 -1.000000 0.000000 0.000000 0.219971 0.606548 1 0 1.000000
  0 -1.115000 0.323644 1.265110 -1.000000 0.000000 0.000000 0.254891 0.641504 1 0 1.000000
  0 -1.115000 0.437464 1.330760 -1.000000 0.000000 0.000000 0.168431 0.691419 1 0 1.000000
reticle_ui_stencil
  0 -1.115000 0.437464 1.330760 -1.000000 0.000000 0.000000 0.168431 0.691419 1 0 1.000000
  0 -1.115000 0.323644 1.265110 -1.000000 0.000000 0.000000 0.254891 0.641504 1 0 1.000000
  0 -1.115000 0.306714 1.327950 -1.000000 0.000000 0.000000 0.267707 0.689220 1 0 1.000000
reticle_ui_stencil
  0 -1.115000 0.201554 1.279550 -1.000000 -0.000001 0.000000 0.347582 0.652403 1 0 1.000000
  0 -1.115000 0.306714 1.327950 -1.000000 0.000000 0.000000 0.267707 0.689220 1 0 1.000000
  0 -1.115000 0.323644 1.265110 -1.000000 0.000000 0.000000 0.254891 0.641504 1 0 1.000000
reticle_ui_stencil
  0 -1.115000 0.306714 1.327950 -1.000000 0.000000 0.000000 0.267707 0.689220 1 0 1.000000
  0 -1.115000 0.201554 1.279550 -1.000000 -0.000001 0.000000 0.347582 0.652403 1 0 1.000000
  0 -1.115000 0.249954 1.384710 -1.000000 0.000000 0.000000 0.310766 0.732267 1 0 1.000000
reticle_ui_stencil
  0 -1.115000 0.187111 1.401640 -1.000000 0.000000 0.000000 0.358489 0.745076 1 0 1.000000
  0 -1.115000 0.249954 1.384710 -1.000000 0.000000 0.000000 0.310766 0.732267 1 0 1.000000
  0 -1.115000 0.201554 1.279550 -1.000000 -0.000001 0.000000 0.347582 0.652403 1 0 1.000000
reticle_ui_stencil
  0 -1.115000 0.249954 1.384710 -1.000000 0.000000 0.000000 0.310766 0.732267 1 0 1.000000
  0 -1.115000 0.187111 1.401640 -1.000000 0.000000 0.000000 0.358489 0.745076 1 0 1.000000
  0 -1.115000 0.252755 1.515460 -1.000000 0.000000 0.000000 0.308573 0.831525 1 0 1.000000
reticle_ui_stencil
  0 -1.115000 0.252755 1.515460 -1.000000 0.000000 0.000000 0.308573 0.831525 1 0 1.000000
  0 -1.115000 0.187111 1.401640 -1.000000 0.000000 0.000000 0.358489 0.745076 1 0 1.000000
  0 -1.115000 0.141094 1.447650 -1.000000 0.000000 0.000000 0.393449 0.779987 1 0 1.000000
reticle_ui_stencil
  0 -1.115000 0.141094 1.447650 -1.000000 0.000000 0.000000 0.393449 0.779987 1 0 1.000000
  0 -1.115000 0.194635 1.551680 -1.000000 0.000000 0.000000 0.352734 0.858992 1 0 1.000000
  0 -1.115000 0.252755 1.515460 -1.000000 0.000000 0.000000 0.308573 0.831525 1 0 1.000000
reticle_ui_stencil
  0 -1.115000 0.194635 1.551680 -1.000000 0.000000 0.000000 0.352734 0.858992 1 0 1.000000
  0 -1.115000 0.141094 1.447650 -1.000000 0.000000 0.000000 0.393449 0.779987 1 0 1.000000
  0 -1.115000 0.113360 1.498980 -1.000000 0.000000 0.000000 0.414524 0.818958 1 0 1.000000
reticle_ui_stencil
  0 -1.115000 0.113360 1.498980 -1.000000 0.000000 0.000000 0.414524 0.818958 1 0 1.000000
  0 -1.115000 0.134812 1.579160 -1.000000 0.000000 0.000000 0.398206 0.879848 1 0 1.000000
  0 -1.115000 0.194635 1.551680 -1.000000 0.000000 0.000000 0.352734 0.858992 1 0 1.000000
reticle_ui_stencil
  0 -1.115000 0.069281 1.585310 -1.000000 0.000000 0.000000 0.448018 0.884510 1 0 1.000000
  0 -1.115000 0.134812 1.579160 -1.000000 0.000000 0.000000 0.398206 0.879848 1 0 1.000000
  0 -1.115000 0.113360 1.498980 -1.000000 0.000000 0.000000 0.414524 0.818958 1 0 1.000000
reticle_ui_stencil
  0 -1.115000 0.113360 1.498980 -1.000000 0.000000 0.000000 0.414524 0.818958 1 0 1.000000
  0 -1.115000 0.063714 1.468410 -1.000000 0.000000 0.000000 0.452265 0.795738 1 0 1.000000
  0 -1.115000 0.069281 1.585310 -1.000000 0.000000 0.000000 0.448018 0.884510 1 0 1.000000
reticle_ui_stencil
  0 -1.115000 0.000870 1.583050 -1.000000 0.000000 0.000000 0.500000 0.882793 1 0 1.000000
  0 -1.115000 0.069281 1.585310 -1.000000 0.000000 0.000000 0.448018 0.884510 1 0 1.000000
  0 -1.115000 0.063714 1.468410 -1.000000 0.000000 0.000000 0.452265 0.795738 1 0 1.000000
reticle_ui_stencil
  0 -1.115000 0.063714 1.468410 -1.000000 0.000000 0.000000 0.452265 0.795738 1 0 1.000000
  0 -1.115000 0.000893 1.451610 -1.000000 0.000000 0.000000 0.500000 0.782976 1 0 1.000000
  0 -1.115000 0.000870 1.583050 -1.000000 0.000000 0.000000 0.500000 0.882793 1 0 1.000000
reticle_ui_stencil
  0 -1.115000 0.000870 1.583050 -1.000000 0.000000 0.000000 0.500000 0.882793 1 0 1.000000
  0 -1.115000 0.000893 1.451610 -1.000000 0.000000 0.000000 0.500000 0.782976 1 0 1.000000
  0 -1.115000 -0.061979 1.468410 -1.000000 0.000000 0.000000 0.547734 0.795738 1 0 1.000000
reticle_ui_stencil
  0 -1.115000 -0.072571 1.353100 -1.000000 0.000000 0.000000 0.555786 0.708173 1 0 1.000000
  0 -1.115000 -0.061979 1.468410 -1.000000 0.000000 0.000000 0.547734 0.795738 1 0 1.000000
  0 -1.115000 0.000893 1.451610 -1.000000 0.000000 0.000000 0.500000 0.782976 1 0 1.000000
reticle_ui_stencil
  0 -1.115000 -0.061979 1.468410 -1.000000 0.000000 0.000000 0.547734 0.795738 1 0 1.000000
  0 -1.115000 -0.072571 1.353100 -1.000000 0.000000 0.000000 0.555786 0.708173 1 0 1.000000
  0 -1.115000 -0.139468 1.447650 -1.000000 0.000000 0.000000 0.606548 0.779987 1 0 1.000000
reticle_ui_stencil
  0 -1.115000 -0.248328 1.384710 -1.000000 0.000000 0.000000 0.689220 0.732267 1 0 1.000000
  0 -1.115000 -0.185506 1.401640 -1.000000 0.000000 0.000000 0.641504 0.745076 1 0 1.000000
  0 -1.115000 -0.113727 1.277450 -1.000000 0.000001 0.000000 0.587041 0.650750 1 0 1.000000
reticle_ui_stencil
  0 -1.115000 -0.072571 1.353100 -1.000000 0.000000 0.000000 0.555786 0.708173 1 0 1.000000
  0 -1.115000 -0.113727 1.277450 -1.000000 0.000001 0.000000 0.587041 0.650750 1 0 1.000000
  0 -1.115000 -0.185506 1.401640 -1.000000 0.000000 0.000000 0.641504 0.745076 1 0 1.000000
reticle_ui_stencil
  0 -1.115000 -0.113727 1.277450 -1.000000 0.000001 0.000000 0.587041 0.650750 1 0 1.000000
  0 -1.115000 -0.072571 1.353100 -1.000000 0.000000 0.000000 0.555786 0.708173 1 0 1.000000
  0 -1.115000 0.000909 1.308180 -1.000000 0.000000 0.000000 0.499999 0.674065 1 0 1.000000
reticle_ui_stencil
  0 -1.115000 0.000893 1.451610 -1.000000 0.000000 0.000000 0.500000 0.782976 1 0 1.000000
  0 -1.115000 0.000909 1.308180 -1.000000 0.000000 0.000000 0.499999 0.674065 1 0 1.000000
  0 -1.115000 -0.072571 1.353100 -1.000000 0.000000 0.000000 0.555786 0.708173 1 0 1.000000
reticle_ui_stencil
  0 -1.115000 0.074325 1.353100 -1.000000 0.000000 0.000000 0.444212 0.708173 1 0 1.000000
  0 -1.115000 0.000909 1.308180 -1.000000 0.000000 0.000000 0.499999 0.674065 1 0 1.000000
  0 -1.115000 0.000893 1.451610 -1.000000 0.000000 0.000000 0.500000 0.782976 1 0 1.000000
reticle_ui_stencil
  0 -1.115000 0.000893 1.451610 -1.000000 0.000000 0.000000 0.500000 0.782976 1 0 1.000000
  0 -1.115000 0.063714 1.468410 -1.000000 0.000000 0.000000 0.452265 0.795738 1 0 1.000000
  0 -1.115000 0.074325 1.353100 -1.000000 0.000000 0.000000 0.444212 0.708173 1 0 1.000000
reticle_ui_stencil
  0 -1.115000 0.141094 1.447650 -1.000000 0.000000 0.000000 0.393449 0.779987 1 0 1.000000
  0 -1.115000 0.074325 1.353100 -1.000000 0.000000 0.000000 0.444212 0.708173 1 0 1.000000
  0 -1.115000 0.063714 1.468410 -1.000000 0.000000 0.000000 0.452265 0.795738 1 0 1.000000
reticle_ui_stencil
  0 -1.115000 0.063714 1.468410 -1.000000 0.000000 0.000000 0.452265 0.795738 1 0 1.000000
  0 -1.115000 0.113360 1.498980 -1.000000 0.000000 0.000000 0.414524 0.818958 1 0 1.000000
  0 -1.115000 0.141094 1.447650 -1.000000 0.000000 0.000000 0.393449 0.779987 1 0 1.000000
reticle_ui_stencil
  0 -1.115000 0.074325 1.353100 -1.000000 0.000000 0.000000 0.444212 0.708173 1 0 1.000000
  0 -1.115000 0.141094 1.447650 -1.000000 0.000000 0.000000 0.393449 0.779987 1 0 1.000000
  0 -1.115000 0.187111 1.401640 -1.000000 0.000000 0.000000 0.358489 0.745076 1 0 1.000000
reticle_ui_stencil
  0 -1.115000 0.187111 1.401640 -1.000000 0.000000 0.000000 0.358489 0.745076 1 0 1.000000
  0 -1.115000 0.115482 1.277450 -1.000000 -0.000001 0.000000 0.412953 0.650750 1 0 1.000000
  0 -1.115000 0.074325 1.353100 -1.000000 0.000000 0.000000 0.444212 0.708173 1 0 1.000000
reticle_ui_stencil
  0 -1.115000 0.000909 1.308180 -1.000000 0.000000 0.000000 0.499999 0.674065 1 0 1.000000
  0 -1.115000 0.074325 1.353100 -1.000000 0.000000 0.000000 0.444212 0.708173 1 0 1.000000
  0 -1.115000 0.115482 1.277450 -1.000000 -0.000001 0.000000 0.412953 0.650750 1 0 1.000000
reticle_ui_stencil
  0 -1.115000 0.115482 1.277450 -1.000000 -0.000001 0.000000 0.412953 0.650750 1 0 1.000000
  0 -1.115000 0.000949 1.078950 -1.000000 0.000000 0.000000 0.499998 0.499999 1 0 1.000000
  0 -1.115000 0.000909 1.308180 -1.000000 0.000000 0.000000 0.499999 0.674065 1 0 1.000000
reticle_ui_stencil
  0 -1.115000 0.000909 1.308180 -1.000000 0.000000 0.000000 0.499999 0.674065 1 0 1.000000
  0 -1.115000 0.000949 1.078950 -1.000000 0.000000 0.000000 0.499998 0.499999 1 0 1.000000
  0 -1.115000 -0.113727 1.277450 -1.000000 0.000001 0.000000 0.587041 0.650750 1 0 1.000000
reticle_ui_stencil
  0 -1.115000 -0.199800 1.279550 -1.000000 0.000001 0.000000 0.652404 0.652403 1 0 1.000000
  0 -1.115000 -0.113727 1.277450 -1.000000 0.000001 0.000000 0.587041 0.650750 1 0 1.000000
  0 -1.115000 0.000949 1.078950 -1.000000 0.000000 0.000000 0.499998 0.499999 1 0 1.000000
reticle_ui_stencil
  0 -1.115000 0.000949 1.078950 -1.000000 0.000000 0.000000 0.499998 0.499999 1 0 1.000000
  0 -1.115000 -0.197628 1.193480 -1.000000 0.000001 0.000000 0.650756 0.587040 1 0 1.000000
  0 -1.115000 -0.199800 1.279550 -1.000000 0.000001 0.000000 0.652404 0.652403 1 0 1.000000
reticle_ui_stencil
  0 -1.115000 -0.273342 1.152320 -1.000000 0.000000 0.000000 0.708191 0.555786 1 0 1.000000
  0 -1.115000 -0.197628 1.193480 -1.000000 0.000001 0.000000 0.650756 0.587040 1 0 1.000000
  0 -1.115000 0.000949 1.078950 -1.000000 0.000000 0.000000 0.499998 0.499999 1 0 1.000000
reticle_ui_stencil
  0 -1.115000 0.000949 1.078950 -1.000000 0.000000 0.000000 0.499998 0.499999 1 0 1.000000
  0 -1.115000 -0.228430 1.078910 -1.000000 0.000003 0.000000 0.674082 0.500000 1 0 1.000000
  0 -1.115000 -0.273342 1.152320 -1.000000 0.000000 0.000000 0.708191 0.555786 1 0 1.000000
reticle_ui_stencil
  0 -1.115000 -0.228430 1.078910 -1.000000 0.000003 0.000000 0.674082 0.500000 1 0 1.000000
  0 -1.115000 0.000949 1.078950 -1.000000 0.000000 0.000000 0.499998 0.499999 1 0 1.000000
  0 -1.115000 -0.197628 0.964273 -1.000000 0.000001 0.000000 0.650756 0.412958 1 0 1.000000
reticle_ui_stencil
  0 -1.115000 -0.197628 0.964273 -1.000000 0.000001 0.000000 0.650756 0.412958 1 0 1.000000
  0 -1.115000 0.000949 1.078950 -1.000000 0.000000 0.000000 0.499998 0.499999 1 0 1.000000
  0 -1.115000 -0.113727 0.880372 -1.000000 0.000001 0.000000 0.587041 0.349243 1 0 1.000000
reticle_ui_stencil
  0 -1.115000 -0.113727 0.880372 -1.000000 0.000001 0.000000 0.587041 0.349243 1 0 1.000000
  0 -1.115000 -0.199800 0.878200 -1.000000 0.000001 0.000000 0.652404 0.347595 1 0 1.000000
  0 -1.115000 -0.197628 0.964273 -1.000000 0.000001 0.000000 0.650756 0.412958 1 0 1.000000
reticle_ui_stencil
  0 -1.115000 -0.199800 0.878200 -1.000000 0.000001 0.000000 0.652404 0.347595 1 0 1.000000
  0 -1.115000 -0.113727 0.880372 -1.000000 0.000001 0.000000 0.587041 0.349243 1 0 1.000000
  0 -1.115000 -0.185506 0.756141 -1.000000 0.000000 0.000000 0.641504 0.254915 1 0 1.000000
reticle_ui_stencil
  0 -1.115000 -0.185506 0.756141 -1.000000 0.000000 0.000000 0.641504 0.254915 1 0 1.000000
  0 -1.115000 -0.248328 0.773021 -1.000000 0.000000 0.000000 0.689220 0.267729 1 0 1.000000
  0 -1.115000 -0.199800 0.878200 -1.000000 0.000001 0.000000 0.652404 0.347595 1 0 1.000000
reticle_ui_stencil
  0 -1.115000 -0.248328 0.773021 -1.000000 0.000000 0.000000 0.689220 0.267729 1 0 1.000000
  0 -1.115000 -0.306640 0.771360 -1.000000 0.000000 0.000000 0.733510 0.266490 1 0 1.000000
  0 -1.115000 -0.304979 0.829672 -1.000000 0.000000 0.000000 0.732271 0.310779 1 0 1.000000
reticle_ui_stencil
  0 -1.115000 -0.304979 0.829672 -1.000000 0.000000 0.000000 0.732271 0.310779 1 0 1.000000
  0 -1.115000 -0.199800 0.878200 -1.000000 0.000001 0.000000 0.652404 0.347595 1 0 1.000000
  0 -1.115000 -0.248328 0.773021 -1.000000 0.000000 0.000000 0.689220 0.267729 1 0 1.000000
reticle_ui_stencil
  0 -1.115000 -0.199800 0.878200 -1.000000 0.000001 0.000000 0.652404 0.347595 1 0 1.000000
  0 -1.115000 -0.304979 0.829672 -1.000000 0.000000 0.000000 0.732271 0.310779 1 0 1.000000
  0 -1.115000 -0.321859 0.892494 -1.000000 0.000000 0.000000 0.745085 0.358496 1 0 1.000000
reticle_ui_stencil
  0 -1.115000 -0.321859 0.892494 -1.000000 0.000000 0.000000 0.745085 0.358496 1 0 1.000000
  0 -1.115000 -0.197628 0.964273 -1.000000 0.000001 0.000000 0.650756 0.412958 1 0 1.000000
  0 -1.115000 -0.199800 0.878200 -1.000000 0.000001 0.000000 0.652404 0.347595 1 0 1.000000
reticle_ui_stencil
  0 -1.115000 -0.273342 1.005430 -1.000000 0.000000 0.000000 0.708190 0.444214 1 0 1.000000
  0 -1.115000 -0.197628 0.964273 -1.000000 0.000001 0.000000 0.650756 0.412958 1 0 1.000000
  0 -1.115000 -0.321859 0.892494 -1.000000 0.000000 0.000000 0.745085 0.358496 1 0 1.000000
reticle_ui_stencil
  0 -1.115000 -0.197628 0.964273 -1.000000 0.000001 0.000000 0.650756 0.412958 1 0 1.000000
  0 -1.115000 -0.273342 1.005430 -1.000000 0.000000 0.000000 0.708190 0.444214 1 0 1.000000
  0 -1.115000 -0.228430 1.078910 -1.000000 0.000003 0.000000 0.674082 0.500000 1 0 1.000000
reticle_ui_stencil
  0 -1.115000 -0.372006 1.078890 -1.000000 0.000000 0.000000 0.783008 0.500000 1 0 1.000000
  0 -1.115000 -0.228430 1.078910 -1.000000 0.000003 0.000000 0.674082 0.500000 1 0 1.000000
  0 -1.115000 -0.273342 1.005430 -1.000000 0.000000 0.000000 0.708190 0.444214 1 0 1.000000
reticle_ui_stencil
  0 -1.115000 -0.228430 1.078910 -1.000000 0.000003 0.000000 0.674082 0.500000 1 0 1.000000
  0 -1.115000 -0.372006 1.078890 -1.000000 0.000000 0.000000 0.783008 0.500000 1 0 1.000000
  0 -1.115000 -0.388789 1.141710 -1.000000 0.000000 0.000000 0.795768 0.547735 1 0 1.000000
reticle_ui_stencil
  0 -1.115000 -0.388789 1.141710 -1.000000 0.000000 0.000000 0.795768 0.547735 1 0 1.000000
  0 -1.115000 -0.273342 1.152320 -1.000000 0.000000 0.000000 0.708191 0.555786 1 0 1.000000
  0 -1.115000 -0.228430 1.078910 -1.000000 0.000003 0.000000 0.674082 0.500000 1 0 1.000000
reticle_ui_stencil
  0 -1.115000 -0.273342 1.152320 -1.000000 0.000000 0.000000 0.708191 0.555786 1 0 1.000000
  0 -1.115000 -0.388789 1.141710 -1.000000 0.000000 0.000000 0.795768 0.547735 1 0 1.000000
  0 -1.115000 -0.419331 1.191360 -1.000000 0.000000 0.000000 0.818985 0.585475 1 0 1.000000
reticle_ui_stencil
  0 -1.115000 -0.419331 1.191360 -1.000000 0.000000 0.000000 0.818985 0.585475 1 0 1.000000
  0 -1.115000 -0.367916 1.219090 -1.000000 0.000000 0.000000 0.780005 0.606548 1 0 1.000000
  0 -1.115000 -0.273342 1.152320 -1.000000 0.000000 0.000000 0.708191 0.555786 1 0 1.000000
reticle_ui_stencil
  0 -1.115000 -0.197628 1.193480 -1.000000 0.000001 0.000000 0.650756 0.587040 1 0 1.000000
  0 -1.115000 -0.273342 1.152320 -1.000000 0.000000 0.000000 0.708191 0.555786 1 0 1.000000
  0 -1.115000 -0.367916 1.219090 -1.000000 0.000000 0.000000 0.780005 0.606548 1 0 1.000000
reticle_ui_stencil
  0 -1.115000 -0.367916 1.219090 -1.000000 0.000000 0.000000 0.780005 0.606548 1 0 1.000000
  0 -1.115000 -0.321859 1.265110 -1.000000 0.000000 0.000000 0.745085 0.641504 1 0 1.000000
  0 -1.115000 -0.197628 1.193480 -1.000000 0.000001 0.000000 0.650756 0.587040 1 0 1.000000
reticle_ui_stencil
  0 -1.115000 -0.197628 1.193480 -1.000000 0.000001 0.000000 0.650756 0.587040 1 0 1.000000
  0 -1.115000 -0.321859 1.265110 -1.000000 0.000000 0.000000 0.745085 0.641504 1 0 1.000000
  0 -1.115000 -0.304979 1.327950 -1.000000 0.000000 0.000000 0.732271 0.689220 1 0 1.000000
reticle_ui_stencil
  0 -1.115000 -0.304979 1.327950 -1.000000 0.000000 0.000000 0.732271 0.689220 1 0 1.000000
  0 -1.115000 -0.199800 1.279550 -1.000000 0.000001 0.000000 0.652404 0.652403 1 0 1.000000
  0 -1.115000 -0.197628 1.193480 -1.000000 0.000001 0.000000 0.650756 0.587040 1 0 1.000000
reticle_ui_stencil
  0 -1.115000 -0.199800 1.279550 -1.000000 0.000001 0.000000 0.652404 0.652403 1 0 1.000000
  0 -1.115000 -0.304979 1.327950 -1.000000 0.000000 0.000000 0.732271 0.689220 1 0 1.000000
  0 -1.115000 -0.306640 1.386290 -1.000000 0.000000 0.000000 0.733510 0.733509 1 0 1.000000
reticle_ui_stencil
  0 -1.115000 -0.306640 1.386290 -1.000000 0.000000 0.000000 0.733510 0.733509 1 0 1.000000
  0 -1.115000 -0.248328 1.384710 -1.000000 0.000000 0.000000 0.689220 0.732267 1 0 1.000000
  0 -1.115000 -0.199800 1.279550 -1.000000 0.000001 0.000000 0.652404 0.652403 1 0 1.000000
reticle_ui_stencil
  0 -1.115000 -0.113727 1.277450 -1.000000 0.000001 0.000000 0.587041 0.650750 1 0 1.000000
  0 -1.115000 -0.199800 1.279550 -1.000000 0.000001 0.000000 0.652404 0.652403 1 0 1.000000
  0 -1.115000 -0.248328 1.384710 -1.000000 0.000000 0.000000 0.689220 0.732267 1 0 1.000000
reticle_ui_stencil
  0 -1.115000 -0.185506 1.401640 -1.000000 0.000000 0.000000 0.641504 0.745076 1 0 1.000000
  0 -1.115000 -0.139468 1.447650 -1.000000 0.000000 0.000000 0.606548 0.779987 1 0 1.000000
  0 -1.115000 -0.072571 1.353100 -1.000000 0.000000 0.000000 0.555786 0.708173 1 0 1.000000
reticle_ui_stencil
  0 -1.115000 -0.139468 1.447650 -1.000000 0.000000 0.000000 0.606548 0.779987 1 0 1.000000
  0 -1.115000 -0.185506 1.401640 -1.000000 0.000000 0.000000 0.641504 0.745076 1 0 1.000000
  0 -1.115000 -0.251297 1.515460 -1.000000 0.000000 0.000000 0.691419 0.831525 1 0 1.000000
reticle_ui_stencil
  0 -1.115000 -0.251297 1.515460 -1.000000 0.000000 0.000000 0.691419 0.831525 1 0 1.000000
  0 -1.115000 -0.185506 1.401640 -1.000000 0.000000 0.000000 0.641504 0.745076 1 0 1.000000
  0 -1.115000 -0.248328 1.384710 -1.000000 0.000000 0.000000 0.689220 0.732267 1 0 1.000000
reticle_ui_stencil
  0 -1.115000 -0.248328 1.384710 -1.000000 0.000000 0.000000 0.689220 0.732267 1 0 1.000000
  0 -1.115000 -0.311677 1.483140 -1.000000 0.000000 0.000000 0.737290 0.807028 1 0 1.000000
  0 -1.115000 -0.251297 1.515460 -1.000000 0.000000 0.000000 0.691419 0.831525 1 0 1.000000
reticle_ui_stencil
  0 -1.115000 -0.311677 1.483140 -1.000000 0.000000 0.000000 0.737290 0.807028 1 0 1.000000
  0 -1.115000 -0.248328 1.384710 -1.000000 0.000000 0.000000 0.689220 0.732267 1 0 1.000000
  0 -1.115000 -0.306640 1.386290 -1.000000 0.000000 0.000000 0.733510 0.733509 1 0 1.000000
reticle_ui_stencil
  0 -1.115000 -0.306640 1.386290 -1.000000 0.000000 0.000000 0.733510 0.733509 1 0 1.000000
  0 -1.115000 -0.365365 1.444950 -1.000000 0.000000 0.000000 0.778089 0.778088 1 0 1.000000
  0 -1.115000 -0.311677 1.483140 -1.000000 0.000000 0.000000 0.737290 0.807028 1 0 1.000000
reticle_ui_stencil
  0 -1.115000 -0.365365 1.444950 -1.000000 0.000000 0.000000 0.778089 0.778088 1 0 1.000000
  0 -1.115000 -0.306640 1.386290 -1.000000 0.000000 0.000000 0.733510 0.733509 1 0 1.000000
  0 -1.115000 -0.304979 1.327950 -1.000000 0.000000 0.000000 0.732271 0.689220 1 0 1.000000
reticle_ui_stencil
  0 -1.115000 -0.304979 1.327950 -1.000000 0.000000 0.000000 0.732271 0.689220 1 0 1.000000
  0 -1.115000 -0.403448 1.391180 -1.000000 0.000000 0.000000 0.807032 0.737290 1 0 1.000000
  0 -1.115000 -0.365365 1.444950 -1.000000 0.000000 0.000000 0.778089 0.778088 1 0 1.000000
reticle_ui_stencil
  0 -1.115000 -0.403448 1.391180 -1.000000 0.000000 0.000000 0.807032 0.737290 1 0 1.000000
  0 -1.115000 -0.304979 1.327950 -1.000000 0.000000 0.000000 0.732271 0.689220 1 0 1.000000
  0 -1.115000 -0.321859 1.265110 -1.000000 0.000000 0.000000 0.745085 0.641504 1 0 1.000000
reticle_ui_stencil
  0 -1.115000 -0.321859 1.265110 -1.000000 0.000000 0.000000 0.745085 0.641504 1 0 1.000000
  0 -1.115000 -0.435724 1.330760 -1.000000 0.000000 0.000000 0.831535 0.691419 1 0 1.000000
  0 -1.115000 -0.403448 1.391180 -1.000000 0.000000 0.000000 0.807032 0.737290 1 0 1.000000
reticle_ui_stencil
  0 -1.115000 -0.471990 1.272640 -1.000000 0.000000 0.000000 0.859014 0.647263 1 0 1.000000
  0 -1.115000 -0.435724 1.330760 -1.000000 0.000000 0.000000 0.831535 0.691419 1 0 1.000000
  0 -1.115000 -0.321859 1.265110 -1.000000 0.000000 0.000000 0.745085 0.641504 1 0 1.000000
reticle_ui_stencil
  0 -1.115000 -0.321859 1.265110 -1.000000 0.000000 0.000000 0.745085 0.641504 1 0 1.000000
  0 -1.115000 -0.367916 1.219090 -1.000000 0.000000 0.000000 0.780005 0.606548 1 0 1.000000
  0 -1.115000 -0.471990 1.272640 -1.000000 0.000000 0.000000 0.859014 0.647263 1 0 1.000000
reticle_ui_stencil
  0 -1.115000 -0.499575 1.212810 -1.000000 0.000000 0.000000 0.879881 0.601793 1 0 1.000000
  0 -1.115000 -0.471990 1.272640 -1.000000 0.000000 0.000000 0.859014 0.647263 1 0 1.000000
  0 -1.115000 -0.367916 1.219090 -1.000000 0.000000 0.000000 0.780005 0.606548 1 0 1.000000
reticle_ui_stencil
  0 -1.115000 -0.367916 1.219090 -1.000000 0.000000 0.000000 0.780005 0.606548 1 0 1.000000
  0 -1.115000 -0.419331 1.191360 -1.000000 0.000000 0.000000 0.818985 0.585475 1 0 1.000000
  0 -1.115000 -0.499575 1.212810 -1.000000 0.000000 0.000000 0.879881 0.601793 1 0 1.000000
reticle_ui_stencil
  0 -1.115000 -0.505813 1.147280 -1.000000 0.000000 0.000000 0.884552 0.551982 1 0 1.000000
  0 -1.115000 -0.499575 1.212810 -1.000000 0.000000 0.000000 0.879881 0.601793 1 0 1.000000
  0 -1.115000 -0.419331 1.191360 -1.000000 0.000000 0.000000 0.818985 0.585475 1 0 1.000000
reticle_ui_stencil
  0 -1.115000 -0.419331 1.191360 -1.000000 0.000000 0.000000 0.818985 0.585475 1 0 1.000000
  0 -1.115000 -0.388789 1.141710 -1.000000 0.000000 0.000000 0.795768 0.547735 1 0 1.000000
  0 -1.115000 -0.505813 1.147280 -1.000000 0.000000 0.000000 0.884552 0.551982 1 0 1.000000
reticle_ui_stencil
  0 -1.115000 -0.503594 1.078870 -1.000000 0.000000 0.000000 0.882838 0.500000 1 0 1.000000
  0 -1.115000 -0.505813 1.147280 -1.000000 0.000000 0.000000 0.884552 0.551982 1 0 1.000000
  0 -1.115000 -0.388789 1.141710 -1.000000 0.000000 0.000000 0.795768 0.547735 1 0 1.000000
reticle_ui_stencil
  0 -1.115000 -0.388789 1.141710 -1.000000 0.000000 0.000000 0.795768 0.547735 1 0 1.000000
  0 -1.115000 -0.372006 1.078890 -1.000000 0.000000 0.000000 0.783008 0.500000 1 0 1.000000
  0 -1.115000 -0.503594 1.078870 -1.000000 0.000000 0.000000 0.882838 0.500000 1 0 1.000000
reticle_ui_stencil
  0 -1.115000 0.069281 1.585310 -1.000000 0.000000 0.000000 0.448018 0.884510 1 0 1.000000
  0 -1.115000 0.000870 1.583050 -1.000000 0.000000 0.000000 0.500000 0.882793 1 0 1.000000
  0 -1.115000 0.000844 1.708500 -1.000000 0.000000 0.000000 0.500000 0.978062 1 0 1.000000
reticle_ui_stencil
  0 -1.115000 0.000844 1.708500 -1.000000 0.000000 0.000000 0.500000 0.978062 1 0 1.000000
  0 -1.115000 0.000870 1.583050 -1.000000 0.000000 0.000000 0.500000 0.882793 1 0 1.000000
  0 -1.115000 -0.067594 1.585310 -1.000000 0.000000 0.000000 0.551982 0.884510 1 0 1.000000
reticle_ui_stencil
  0 -1.115000 -0.061979 1.468410 -1.000000 0.000000 0.000000 0.547734 0.795738 1 0 1.000000
  0 -1.115000 -0.067594 1.585310 -1.000000 0.000000 0.000000 0.551982 0.884510 1 0 1.000000
  0 -1.115000 0.000870 1.583050 -1.000000 0.000000 0.000000 0.500000 0.882793 1 0 1.000000
reticle_ui_stencil
  0 -1.115000 -0.067594 1.585310 -1.000000 0.000000 0.000000 0.551982 0.884510 1 0 1.000000
  0 -1.115000 -0.061979 1.468410 -1.000000 0.000000 0.000000 0.547734 0.795738 1 0 1.000000
  0 -1.115000 -0.111709 1.498980 -1.000000 0.000000 0.000000 0.585475 0.818957 1 0 1.000000
reticle_ui_stencil
  0 -1.115000 -0.139468 1.447650 -1.000000 0.000000 0.000000 0.606548 0.779987 1 0 1.000000
  0 -1.115000 -0.111709 1.498980 -1.000000 0.000000 0.000000 0.585475 0.818957 1 0 1.000000
  0 -1.115000 -0.061979 1.468410 -1.000000 0.000000 0.000000 0.547734 0.795738 1 0 1.000000
reticle_ui_stencil
  0 -1.115000 -0.111709 1.498980 -1.000000 0.000000 0.000000 0.585475 0.818957 1 0 1.000000
  0 -1.115000 -0.139468 1.447650 -1.000000 0.000000 0.000000 0.606548 0.779987 1 0 1.000000
  0 -1.115000 -0.193135 1.551680 -1.000000 0.000000 0.000000 0.647263 0.858992 1 0 1.000000
reticle_ui_stencil
  0 -1.115000 -0.251297 1.515460 -1.000000 0.000000 0.000000 0.691419 0.831525 1 0 1.000000
  0 -1.115000 -0.193135 1.551680 -1.000000 0.000000 0.000000 0.647263 0.858992 1 0 1.000000
  0 -1.115000 -0.139468 1.447650 -1.000000 0.000000 0.000000 0.606548 0.779987 1 0 1.000000
reticle_ui_stencil
  0 -1.115000 -0.193135 1.551680 -1.000000 0.000000 0.000000 0.647263 0.858992 1 0 1.000000
  0 -1.115000 -0.251297 1.515460 -1.000000 0.000000 0.000000 0.691419 0.831525 1 0 1.000000
  0 -1.115000 -0.314094 1.624090 -1.000000 0.000000 0.000000 0.739060 0.914034 1 0 1.000000
reticle_ui_stencil
  0 -1.115000 -0.314094 1.624090 -1.000000 0.000000 0.000000 0.739060 0.914034 1 0 1.000000
  0 -1.115000 -0.251297 1.515460 -1.000000 0.000000 0.000000 0.691419 0.831525 1 0 1.000000
  0 -1.115000 -0.311677 1.483140 -1.000000 0.000000 0.000000 0.737290 0.807028 1 0 1.000000
reticle_ui_stencil
  0 -1.115000 -0.311677 1.483140 -1.000000 0.000000 0.000000 0.737290 0.807028 1 0 1.000000
  0 -1.115000 -0.382438 1.578190 -1.000000 0.000000 0.000000 0.790985 0.879237 1 0 1.000000
  0 -1.115000 -0.314094 1.624090 -1.000000 0.000000 0.000000 0.739060 0.914034 1 0 1.000000
reticle_ui_stencil
  0 -1.115000 -0.382438 1.578190 -1.000000 0.000000 0.000000 0.790985 0.879237 1 0 1.000000
  0 -1.115000 -0.311677 1.483140 -1.000000 0.000000 0.000000 0.737290 0.807028 1 0 1.000000
  0 -1.115000 -0.365365 1.444950 -1.000000 0.000000 0.000000 0.778089 0.778088 1 0 1.000000
reticle_ui_stencil
  0 -1.115000 -0.365365 1.444950 -1.000000 0.000000 0.000000 0.778089 0.778088 1 0 1.000000
  0 -1.115000 -0.444250 1.523750 -1.000000 0.000000 0.000000 0.840821 0.840821 1 0 1.000000
  0 -1.115000 -0.382438 1.578190 -1.000000 0.000000 0.000000 0.790985 0.879237 1 0 1.000000
reticle_ui_stencil
  0 -1.115000 -0.444250 1.523750 -1.000000 0.000000 0.000000 0.840821 0.840821 1 0 1.000000
  0 -1.115000 -0.365365 1.444950 -1.000000 0.000000 0.000000 0.778089 0.778088 1 0 1.000000
  0 -1.115000 -0.403448 1.391180 -1.000000 0.000000 0.000000 0.807032 0.737290 1 0 1.000000
reticle_ui_stencil
  0 -1.115000 -0.403448 1.391180 -1.000000 0.000000 0.000000 0.807032 0.737290 1 0 1.000000
  0 -1.115000 -0.498563 1.461810 -1.000000 0.000000 0.000000 0.879242 0.790985 1 0 1.000000
  0 -1.115000 -0.444250 1.523750 -1.000000 0.000000 0.000000 0.840821 0.840821 1 0 1.000000
reticle_ui_stencil
  0 -1.115000 -0.498563 1.461810 -1.000000 0.000000 0.000000 0.879242 0.790985 1 0 1.000000
  0 -1.115000 -0.403448 1.391180 -1.000000 0.000000 0.000000 0.807032 0.737290 1 0 1.000000
  0 -1.115000 -0.435724 1.330760 -1.000000 0.000000 0.000000 0.831535 0.691419 1 0 1.000000
reticle_ui_stencil
  0 -1.115000 -0.435724 1.330760 -1.000000 0.000000 0.000000 0.831535 0.691419 1 0 1.000000
  0 -1.115000 -0.544406 1.393410 -1.000000 0.000000 0.000000 0.914047 0.739060 1 0 1.000000
  0 -1.115000 -0.498563 1.461810 -1.000000 0.000000 0.000000 0.879242 0.790985 1 0 1.000000
reticle_ui_stencil
  0 -1.115000 -0.580813 1.319560 -1.000000 0.000000 0.000000 0.941620 0.682953 1 0 1.000000
  0 -1.115000 -0.544406 1.393410 -1.000000 0.000000 0.000000 0.914047 0.739060 1 0 1.000000
  0 -1.115000 -0.435724 1.330760 -1.000000 0.000000 0.000000 0.831535 0.691419 1 0 1.000000
reticle_ui_stencil
  0 -1.115000 -0.435724 1.330760 -1.000000 0.000000 0.000000 0.831535 0.691419 1 0 1.000000
  0 -1.115000 -0.471990 1.272640 -1.000000 0.000000 0.000000 0.859014 0.647263 1 0 1.000000
  0 -1.115000 -0.580813 1.319560 -1.000000 0.000000 0.000000 0.941620 0.682953 1 0 1.000000
reticle_ui_stencil
  0 -1.115000 -0.111709 1.498980 -1.000000 0.000000 0.000000 0.585475 0.818957 1 0 1.000000
  0 -1.115000 -0.133224 1.579160 -1.000000 0.000000 0.000000 0.601793 0.879848 1 0 1.000000
  0 -1.115000 -0.067594 1.585310 -1.000000 0.000000 0.000000 0.551982 0.884510 1 0 1.000000
reticle_ui_stencil
  0 -1.115000 -0.193135 1.551680 -1.000000 0.000000 0.000000 0.647263 0.858992 1 0 1.000000
  0 -1.115000 -0.133224 1.579160 -1.000000 0.000000 0.000000 0.601793 0.879848 1 0 1.000000
  0 -1.115000 -0.111709 1.498980 -1.000000 0.000000 0.000000 0.585475 0.818957 1 0 1.000000
reticle_ui_stencil
  0 -1.115000 -0.133224 1.579160 -1.000000 0.000000 0.000000 0.601793 0.879848 1 0 1.000000
  0 -1.115000 -0.193135 1.551680 -1.000000 0.000000 0.000000 0.647263 0.858992 1 0 1.000000
  0 -1.115000 -0.240188 1.660440 -1.000000 0.000000 0.000000 0.682953 0.941594 1 0 1.000000
reticle_ui_stencil
  0 -1.115000 -0.314094 1.624090 -1.000000 0.000000 0.000000 0.739060 0.914034 1 0 1.000000
  0 -1.115000 -0.240188 1.660440 -1.000000 0.000000 0.000000 0.682953 0.941594 1 0 1.000000
  0 -1.115000 -0.193135 1.551680 -1.000000 0.000000 0.000000 0.647263 0.858992 1 0 1.000000
reticle_ui_stencil
  0 -1.115000 -0.067594 1.585310 -1.000000 0.000000 0.000000 0.551982 0.884510 1 0 1.000000
  0 -1.115000 -0.081312 1.703000 -1.000000 0.000000 0.000000 0.562378 0.973886 1 0 1.000000
  0 -1.115000 0.000844 1.708500 -1.000000 0.000000 0.000000 0.500000 0.978062 1 0 1.000000
reticle_ui_stencil
  0 -1.115000 -0.081312 1.703000 -1.000000 0.000000 0.000000 0.562378 0.973886 1 0 1.000000
  0 -1.115000 -0.067594 1.585310 -1.000000 0.000000 0.000000 0.551982 0.884510 1 0 1.000000
  0 -1.115000 -0.133224 1.579160 -1.000000 0.000000 0.000000 0.601793 0.879848 1 0 1.000000
reticle_ui_stencil
  0 -1.115000 -0.133224 1.579160 -1.000000 0.000000 0.000000 0.601793 0.879848 1 0 1.000000
  0 -1.115000 -0.162125 1.686860 -1.000000 0.000000 0.000000 0.624756 0.965535 1 0 1.000000
  0 -1.115000 -0.081312 1.703000 -1.000000 0.000000 0.000000 0.562378 0.973886 1 0 1.000000
reticle_ui_stencil
  0 -1.115000 -0.240188 1.660440 -1.000000 0.000000 0.000000 0.682953 0.941594 1 0 1.000000
  0 -1.115000 -0.162125 1.686860 -1.000000 0.000000 0.000000 0.624756 0.965535 1 0 1.000000
  0 -1.115000 -0.133224 1.579160 -1.000000 0.000000 0.000000 0.601793 0.879848 1 0 1.000000
reticle_ui_stencil
  0 -1.115000 0.000844 0.448813 -1.000000 0.000000 0.000000 0.500000 0.021881 1 0 1.000000
  0 -1.115000 -0.081312 0.454375 -1.000000 0.000000 0.000000 0.562378 0.026062 1 0 1.000000
  0 -1.115000 -0.067594 0.572187 -1.000000 0.000000 0.000000 0.551982 0.115448 1 0 1.000000
reticle_ui_stencil
  0 -1.115000 -0.133224 0.578424 -1.000000 0.000000 0.000000 0.601793 0.120119 1 0 1.000000
  0 -1.115000 -0.067594 0.572187 -1.000000 0.000000 0.000000 0.551982 0.115448 1 0 1.000000
  0 -1.115000 -0.081312 0.454375 -1.000000 0.000000 0.000000 0.562378 0.026062 1 0 1.000000
reticle_ui_stencil
  0 -1.115000 -0.067594 0.572187 -1.000000 0.000000 0.000000 0.551982 0.115448 1 0 1.000000
  0 -1.115000 -0.133224 0.578424 -1.000000 0.000000 0.000000 0.601793 0.120119 1 0 1.000000
  0 -1.115000 -0.111709 0.658669 -1.000000 0.000000 0.000000 0.585475 0.181015 1 0 1.000000
reticle_ui_stencil
  0 -1.115000 -0.111709 0.658669 -1.000000 0.000000 0.000000 0.585475 0.181015 1 0 1.000000
  0 -1.115000 -0.133224 0.578424 -1.000000 0.000000 0.000000 0.601793 0.120119 1 0 1.000000
  0 -1.115000 -0.193135 0.606010 -1.000000 0.000000 0.000000 0.647263 0.140986 1 0 1.000000
reticle_ui_stencil
  0 -1.115000 -0.240188 0.497187 -1.000000 0.000000 0.000000 0.682953 0.058380 1 0 1.000000
  0 -1.115000 -0.193135 0.606010 -1.000000 0.000000 0.000000 0.647263 0.140986 1 0 1.000000
  0 -1.115000 -0.133224 0.578424 -1.000000 0.000000 0.000000 0.601793 0.120119 1 0 1.000000
reticle_ui_stencil
  0 -1.115000 -0.133224 0.578424 -1.000000 0.000000 0.000000 0.601793 0.120119 1 0 1.000000
  0 -1.115000 -0.162125 0.470641 -1.000000 0.000000 0.000000 0.624756 0.034424 1 0 1.000000
  0 -1.115000 -0.240188 0.497187 -1.000000 0.000000 0.000000 0.682953 0.058380 1 0 1.000000
reticle_ui_stencil
  0 -1.115000 -0.081312 0.454375 -1.000000 0.000000 0.000000 0.562378 0.026062 1 0 1.000000
  0 -1.115000 -0.162125 0.470641 -1.000000 0.000000 0.000000 0.624756 0.034424 1 0 1.000000
  0 -1.115000 -0.133224 0.578424 -1.000000 0.000000 0.000000 0.601793 0.120119 1 0 1.000000
reticle_ui_stencil
  0 -1.115000 -0.193135 0.606010 -1.000000 0.000000 0.000000 0.647263 0.140986 1 0 1.000000
  0 -1.115000 -0.240188 0.497187 -1.000000 0.000000 0.000000 0.682953 0.058380 1 0 1.000000
  0 -1.115000 -0.314094 0.533594 -1.000000 0.000000 0.000000 0.739060 0.085953 1 0 1.000000
reticle_ui_stencil
  0 -1.115000 -0.365365 0.712635 -1.000000 0.000000 0.000000 0.778089 0.221911 1 0 1.000000
  0 -1.115000 -0.311677 0.674552 -1.000000 0.000000 0.000000 0.737290 0.192968 1 0 1.000000
  0 -1.115000 -0.382438 0.579437 -1.000000 0.000000 0.000000 0.790985 0.120758 1 0 1.000000
reticle_ui_stencil
  0 -1.115000 -0.314094 0.533594 -1.000000 0.000000 0.000000 0.739060 0.085953 1 0 1.000000
  0 -1.115000 -0.382438 0.579437 -1.000000 0.000000 0.000000 0.790985 0.120758 1 0 1.000000
  0 -1.115000 -0.311677 0.674552 -1.000000 0.000000 0.000000 0.737290 0.192968 1 0 1.000000
reticle_ui_stencil
  0 -1.115000 -0.311677 0.674552 -1.000000 0.000000 0.000000 0.737290 0.192968 1 0 1.000000
  0 -1.115000 -0.251297 0.642276 -1.000000 0.000000 0.000000 0.691419 0.168465 1 0 1.000000
  0 -1.115000 -0.314094 0.533594 -1.000000 0.000000 0.000000 0.739060 0.085953 1 0 1.000000
reticle_ui_stencil
  0 -1.115000 -0.314094 0.533594 -1.000000 0.000000 0.000000 0.739060 0.085953 1 0 1.000000
  0 -1.115000 -0.251297 0.642276 -1.000000 0.000000 0.000000 0.691419 0.168465 1 0 1.000000
  0 -1.115000 -0.193135 0.606010 -1.000000 0.000000 0.000000 0.647263 0.140986 1 0 1.000000
reticle_ui_stencil
  0 -1.115000 -0.139468 0.710084 -1.000000 0.000000 0.000000 0.606548 0.219995 1 0 1.000000
  0 -1.115000 -0.193135 0.606010 -1.000000 0.000000 0.000000 0.647263 0.140986 1 0 1.000000
  0 -1.115000 -0.251297 0.642276 -1.000000 0.000000 0.000000 0.691419 0.168465 1 0 1.000000
reticle_ui_stencil
  0 -1.115000 -0.193135 0.606010 -1.000000 0.000000 0.000000 0.647263 0.140986 1 0 1.000000
  0 -1.115000 -0.139468 0.710084 -1.000000 0.000000 0.000000 0.606548 0.219995 1 0 1.000000
  0 -1.115000 -0.111709 0.658669 -1.000000 0.000000 0.000000 0.585475 0.181015 1 0 1.000000
reticle_ui_stencil
  0 -1.115000 -0.061979 0.689211 -1.000000 0.000000 0.000000 0.547734 0.204231 1 0 1.000000
  0 -1.115000 -0.111709 0.658669 -1.000000 0.000000 0.000000 0.585475 0.181015 1 0 1.000000
  0 -1.115000 -0.139468 0.710084 -1.000000 0.000000 0.000000 0.606548 0.219995 1 0 1.000000
reticle_ui_stencil
  0 -1.115000 -0.111709 0.658669 -1.000000 0.000000 0.000000 0.585475 0.181015 1 0 1.000000
  0 -1.115000 -0.061979 0.689211 -1.000000 0.000000 0.000000 0.547734 0.204231 1 0 1.000000
  0 -1.115000 -0.067594 0.572187 -1.000000 0.000000 0.000000 0.551982 0.115448 1 0 1.000000
reticle_ui_stencil
  0 -1.115000 0.000870 0.574406 -1.000000 0.000000 0.000000 0.500000 0.117162 1 0 1.000000
  0 -1.115000 -0.067594 0.572187 -1.000000 0.000000 0.000000 0.551982 0.115448 1 0 1.000000
  0 -1.115000 -0.061979 0.689211 -1.000000 0.000000 0.000000 0.547734 0.204231 1 0 1.000000
reticle_ui_stencil
  0 -1.115000 -0.067594 0.572187 -1.000000 0.000000 0.000000 0.551982 0.115448 1 0 1.000000
  0 -1.115000 0.000870 0.574406 -1.000000 0.000000 0.000000 0.500000 0.117162 1 0 1.000000
  0 -1.115000 0.000844 0.448813 -1.000000 0.000000 0.000000 0.500000 0.021881 1 0 1.000000
reticle_ui_stencil
  0 -1.115000 0.000844 0.448813 -1.000000 0.000000 0.000000 0.500000 0.021881 1 0 1.000000
  0 -1.115000 0.000870 0.574406 -1.000000 0.000000 0.000000 0.500000 0.117162 1 0 1.000000
  0 -1.115000 0.069281 0.572188 -1.000000 0.000000 0.000000 0.448018 0.115448 1 0 1.000000
reticle_ui_stencil
  0 -1.115000 0.069281 0.572188 -1.000000 0.000000 0.000000 0.448018 0.115448 1 0 1.000000
  0 -1.115000 0.082938 0.454375 -1.000000 0.000000 0.000000 0.437622 0.026062 1 0 1.000000
  0 -1.115000 0.000844 0.448813 -1.000000 0.000000 0.000000 0.500000 0.021881 1 0 1.000000
reticle_ui_stencil
  0 -1.115000 0.082938 0.454375 -1.000000 0.000000 0.000000 0.437622 0.026062 1 0 1.000000
  0 -1.115000 0.069281 0.572188 -1.000000 0.000000 0.000000 0.448018 0.115448 1 0 1.000000
  0 -1.115000 0.134813 0.578424 -1.000000 0.000000 0.000000 0.398206 0.120119 1 0 1.000000
reticle_ui_stencil
  0 -1.115000 0.134813 0.578424 -1.000000 0.000000 0.000000 0.398206 0.120119 1 0 1.000000
  0 -1.115000 0.163625 0.470641 -1.000000 0.000000 0.000000 0.375244 0.034424 1 0 1.000000
  0 -1.115000 0.082938 0.454375 -1.000000 0.000000 0.000000 0.437622 0.026062 1 0 1.000000
reticle_ui_stencil
  0 -1.115000 0.241562 0.497187 -1.000000 0.000000 0.000000 0.317043 0.058380 1 0 1.000000
  0 -1.115000 0.163625 0.470641 -1.000000 0.000000 0.000000 0.375244 0.034424 1 0 1.000000
  0 -1.115000 0.134813 0.578424 -1.000000 0.000000 0.000000 0.398206 0.120119 1 0 1.000000
reticle_ui_stencil
  0 -1.115000 0.134813 0.578424 -1.000000 0.000000 0.000000 0.398206 0.120119 1 0 1.000000
  0 -1.115000 0.194635 0.606010 -1.000000 0.000000 0.000000 0.352734 0.140986 1 0 1.000000
  0 -1.115000 0.241562 0.497187 -1.000000 0.000000 0.000000 0.317043 0.058380 1 0 1.000000
reticle_ui_stencil
  0 -1.115000 0.315406 0.533594 -1.000000 0.000000 0.000000 0.260931 0.085953 1 0 1.000000
  0 -1.115000 0.241562 0.497187 -1.000000 0.000000 0.000000 0.317043 0.058380 1 0 1.000000
  0 -1.115000 0.194635 0.606010 -1.000000 0.000000 0.000000 0.352734 0.140986 1 0 1.000000
reticle_ui_stencil
  0 -1.115000 0.194635 0.606010 -1.000000 0.000000 0.000000 0.352734 0.140986 1 0 1.000000
  0 -1.115000 0.252755 0.642276 -1.000000 0.000000 0.000000 0.308573 0.168465 1 0 1.000000
  0 -1.115000 0.315406 0.533594 -1.000000 0.000000 0.000000 0.260931 0.085953 1 0 1.000000
end
