// Created by Crowbar 0.74
version 1
nodes
  0 "tag_reflex" -1
  1 "tag_reticle_attach" 0
end
skeleton
  time 0
    0 0.000000 0.000000 0.000000 0.000000 0.000000 0.000000
    1 -0.015000 0.000000 0.869000 0.000000 0.000000 0.000000
end
triangles
reticle_ui_stencil_no_weap_cull
  0 -0.015000 0.000000 0.869000 -0.999973 -0.007064 -0.001787 0.500000 0.500000 1 0 1.000000
  0 -0.015000 -0.381000 1.088000 -0.999999 -0.001147 0.000868 0.936035 0.751709 1 0 1.000000
  0 -0.015000 -0.356000 1.127000 -0.999990 -0.004098 -0.001755 0.907227 0.795898 1 0 1.000000
reticle_ui_stencil_no_weap_cull
  0 -0.015000 0.000000 0.869000 -0.999973 -0.007064 -0.001787 0.500000 0.500000 1 0 1.000000
  0 -0.015000 -0.402000 1.047000 -0.999999 -0.001147 0.000868 0.959961 0.704834 1 0 1.000000
  0 -0.015000 -0.381000 1.088000 -0.999999 -0.001147 0.000868 0.936035 0.751709 1 0 1.000000
reticle_ui_stencil_no_weap_cull
  0 -0.015000 0.000000 0.869000 -0.999973 -0.007064 -0.001787 0.500000 0.500000 1 0 1.000000
  0 -0.015000 -0.418000 1.004000 -0.999975 -0.006831 -0.001729 0.979004 0.655518 1 0 1.000000
  0 -0.015000 -0.402000 1.047000 -0.999999 -0.001147 0.000868 0.959961 0.704834 1 0 1.000000
reticle_ui_stencil_no_weap_cull
  0 -0.015000 0.000000 0.869000 -0.999973 -0.007064 -0.001787 0.500000 0.500000 1 0 1.000000
  0 -0.015000 -0.430000 0.960000 -0.999976 0.006876 0.001015 0.992676 0.604736 1 0 1.000000
  0 -0.015000 -0.418000 1.004000 -0.999975 -0.006831 -0.001729 0.979004 0.655518 1 0 1.000000
reticle_ui_stencil_no_weap_cull
  0 -0.015000 0.000000 0.869000 -0.999973 -0.007064 -0.001787 0.500000 0.500000 1 0 1.000000
  0 -0.015000 -0.437000 0.915000 -0.999975 0.006831 -0.001729 1.000977 0.552490 1 0 1.000000
  0 -0.015000 -0.430000 0.960000 -0.999976 0.006876 0.001015 0.992676 0.604736 1 0 1.000000
reticle_ui_stencil_no_weap_cull
  0 -0.015000 0.000000 0.869000 -0.999973 -0.007064 -0.001787 0.500000 0.500000 1 0 1.000000
  0 -0.015000 -0.440000 0.869000 -0.999975 0.006831 -0.001729 1.003906 0.500000 1 0 1.000000
  0 -0.015000 -0.437000 0.915000 -0.999975 0.006831 -0.001729 1.000977 0.552490 1 0 1.000000
reticle_ui_stencil_no_weap_cull
  0 -0.015000 0.000000 0.869000 -0.999973 -0.007064 -0.001787 0.500000 0.500000 1 0 1.000000
  0 -0.015000 -0.437000 0.823000 -0.999975 0.006878 -0.001740 1.000977 0.447266 1 0 1.000000
  0 -0.015000 -0.440000 0.869000 -0.999975 0.006831 -0.001729 1.003906 0.500000 1 0 1.000000
reticle_ui_stencil_no_weap_cull
  0 -0.015000 0.000000 0.869000 -0.999973 -0.007064 -0.001787 0.500000 0.500000 1 0 1.000000
  0 -0.015000 -0.430000 0.777000 -0.999976 -0.006876 0.001015 0.992676 0.395508 1 0 1.000000
  0 -0.015000 -0.437000 0.823000 -0.999975 0.006878 -0.001740 1.000977 0.447266 1 0 1.000000
reticle_ui_stencil_no_weap_cull
  0 -0.015000 0.000000 0.869000 -0.999973 -0.007064 -0.001787 0.500000 0.500000 1 0 1.000000
  0 -0.015000 -0.418000 0.733000 -0.999976 -0.006876 0.001016 0.979004 0.344238 1 0 1.000000
  0 -0.015000 -0.430000 0.777000 -0.999976 -0.006876 0.001015 0.992676 0.395508 1 0 1.000000
reticle_ui_stencil_no_weap_cull
  0 -0.015000 0.000000 0.869000 -0.999973 -0.007064 -0.001787 0.500000 0.500000 1 0 1.000000
  0 -0.015000 -0.402000 0.690000 -0.999975 -0.006832 -0.001729 0.959961 0.295410 1 0 1.000000
  0 -0.015000 -0.418000 0.733000 -0.999976 -0.006876 0.001016 0.979004 0.344238 1 0 1.000000
reticle_ui_stencil_no_weap_cull
  0 -0.015000 0.000000 0.869000 -0.999973 -0.007064 -0.001787 0.500000 0.500000 1 0 1.000000
  0 -0.015000 -0.381000 0.649000 -0.999999 0.001185 0.000897 0.936035 0.248535 1 0 1.000000
  0 -0.015000 -0.402000 0.690000 -0.999975 -0.006832 -0.001729 0.959961 0.295410 1 0 1.000000
reticle_ui_stencil_no_weap_cull
  0 -0.015000 0.000000 0.869000 -0.999973 -0.007064 -0.001787 0.500000 0.500000 1 0 1.000000
  0 -0.015000 -0.356000 0.610000 -0.999999 0.001147 0.000868 0.907227 0.204102 1 0 1.000000
  0 -0.015000 -0.381000 0.649000 -0.999999 0.001185 0.000897 0.936035 0.248535 1 0 1.000000
reticle_ui_stencil_no_weap_cull
  0 -0.015000 0.000000 0.869000 -0.999973 -0.007064 -0.001787 0.500000 0.500000 1 0 1.000000
  0 -0.015000 -0.327000 0.574000 -0.999999 -0.001185 0.000897 0.874023 0.163086 1 0 1.000000
  0 -0.015000 -0.356000 0.610000 -0.999999 0.001147 0.000868 0.907227 0.204102 1 0 1.000000
reticle_ui_stencil_no_weap_cull
  0 -0.015000 0.000000 0.869000 -0.999973 -0.007064 -0.001787 0.500000 0.500000 1 0 1.000000
  0 -0.015000 -0.294000 0.542000 -0.999999 -0.001147 0.000868 0.836914 0.125977 1 0 1.000000
  0 -0.015000 -0.327000 0.574000 -0.999999 -0.001185 0.000897 0.874023 0.163086 1 0 1.000000
reticle_ui_stencil_no_weap_cull
  0 -0.015000 0.000000 0.869000 -0.999973 -0.007064 -0.001787 0.500000 0.500000 1 0 1.000000
  0 -0.015000 -0.258000 0.513000 -0.999975 -0.006832 -0.001729 0.795898 0.092773 1 0 1.000000
  0 -0.015000 -0.294000 0.542000 -0.999999 -0.001147 0.000868 0.836914 0.125977 1 0 1.000000
reticle_ui_stencil_no_weap_cull
  0 -0.015000 0.000000 0.869000 -0.999973 -0.007064 -0.001787 0.500000 0.500000 1 0 1.000000
  0 -0.015000 -0.220000 0.488000 -0.999975 0.006832 -0.001729 0.751953 0.063965 1 0 1.000000
  0 -0.015000 -0.258000 0.513000 -0.999975 -0.006832 -0.001729 0.795898 0.092773 1 0 1.000000
reticle_ui_stencil_no_weap_cull
  0 -0.015000 0.000000 0.869000 -0.999973 -0.007064 -0.001787 0.500000 0.500000 1 0 1.000000
  0 -0.015000 -0.179000 0.467000 -0.999990 0.004098 -0.001756 0.704590 0.040039 1 0 1.000000
  0 -0.015000 -0.220000 0.488000 -0.999975 0.006832 -0.001729 0.751953 0.063965 1 0 1.000000
reticle_ui_stencil_no_weap_cull
  0 -0.015000 0.000000 0.869000 -0.999973 -0.007064 -0.001787 0.500000 0.500000 1 0 1.000000
  0 -0.015000 -0.136000 0.450000 -0.999990 -0.004142 -0.001774 0.655762 0.021484 1 0 1.000000
  0 -0.015000 -0.179000 0.467000 -0.999990 0.004098 -0.001756 0.704590 0.040039 1 0 1.000000
reticle_ui_stencil_no_weap_cull
  0 -0.015000 0.000000 0.869000 -0.999973 -0.007064 -0.001787 0.500000 0.500000 1 0 1.000000
  0 -0.015000 -0.091000 0.439000 -0.999975 -0.006831 -0.001729 0.604492 0.007812 1 0 1.000000
  0 -0.015000 -0.136000 0.450000 -0.999990 -0.004142 -0.001774 0.655762 0.021484 1 0 1.000000
reticle_ui_stencil_no_weap_cull
  0 -0.015000 0.000000 0.869000 -0.999973 -0.007064 -0.001787 0.500000 0.500000 1 0 1.000000
  0 -0.015000 -0.046000 0.431000 -0.999999 0.001147 0.000868 0.552734 -0.000977 1 0 1.000000
  0 -0.015000 -0.091000 0.439000 -0.999975 -0.006831 -0.001729 0.604492 0.007812 1 0 1.000000
reticle_ui_stencil_no_weap_cull
  0 -0.015000 0.000000 0.869000 -0.999973 -0.007064 -0.001787 0.500000 0.500000 1 0 1.000000
  0 -0.015000 0.000000 0.429000 -0.999975 0.006831 -0.001729 0.500000 -0.002930 1 0 1.000000
  0 -0.015000 -0.046000 0.431000 -0.999999 0.001147 0.000868 0.552734 -0.000977 1 0 1.000000
reticle_ui_stencil_no_weap_cull
  0 -0.015000 0.000000 0.869000 -0.999973 -0.007064 -0.001787 0.500000 0.500000 1 0 1.000000
  0 -0.015000 0.046000 0.431000 -0.999999 -0.001147 0.000868 0.447266 -0.000977 1 0 1.000000
  0 -0.015000 0.000000 0.429000 -0.999975 0.006831 -0.001729 0.500000 -0.002930 1 0 1.000000
reticle_ui_stencil_no_weap_cull
  0 -0.015000 0.000000 0.869000 -0.999973 -0.007064 -0.001787 0.500000 0.500000 1 0 1.000000
  0 -0.015000 0.091000 0.439000 -0.999975 0.006831 -0.001729 0.395264 0.007812 1 0 1.000000
  0 -0.015000 0.046000 0.431000 -0.999999 -0.001147 0.000868 0.447266 -0.000977 1 0 1.000000
reticle_ui_stencil_no_weap_cull
  0 -0.015000 0.000000 0.869000 -0.999973 -0.007064 -0.001787 0.500000 0.500000 1 0 1.000000
  0 -0.015000 0.136000 0.450000 -0.999990 0.004142 -0.001774 0.344482 0.021484 1 0 1.000000
  0 -0.015000 0.091000 0.439000 -0.999975 0.006831 -0.001729 0.395264 0.007812 1 0 1.000000
reticle_ui_stencil_no_weap_cull
  0 -0.015000 0.000000 0.869000 -0.999973 -0.007064 -0.001787 0.500000 0.500000 1 0 1.000000
  0 -0.015000 0.179000 0.467000 -0.999990 -0.004098 -0.001756 0.295166 0.040039 1 0 1.000000
  0 -0.015000 0.136000 0.450000 -0.999990 0.004142 -0.001774 0.344482 0.021484 1 0 1.000000
reticle_ui_stencil_no_weap_cull
  0 -0.015000 0.000000 0.869000 -0.999973 -0.007064 -0.001787 0.500000 0.500000 1 0 1.000000
  0 -0.015000 0.220000 0.488000 -0.999975 -0.006832 -0.001729 0.248291 0.063965 1 0 1.000000
  0 -0.015000 0.179000 0.467000 -0.999990 -0.004098 -0.001756 0.295166 0.040039 1 0 1.000000
reticle_ui_stencil_no_weap_cull
  0 -0.015000 0.000000 0.869000 -0.999973 -0.007064 -0.001787 0.500000 0.500000 1 0 1.000000
  0 -0.015000 0.258000 0.513000 -0.999975 0.006832 -0.001729 0.204102 0.092773 1 0 1.000000
  0 -0.015000 0.220000 0.488000 -0.999975 -0.006832 -0.001729 0.248291 0.063965 1 0 1.000000
reticle_ui_stencil_no_weap_cull
  0 -0.015000 0.000000 0.869000 -0.999973 -0.007064 -0.001787 0.500000 0.500000 1 0 1.000000
  0 -0.015000 0.294000 0.542000 -0.999999 0.001147 0.000868 0.163086 0.125977 1 0 1.000000
  0 -0.015000 0.258000 0.513000 -0.999975 0.006832 -0.001729 0.204102 0.092773 1 0 1.000000
reticle_ui_stencil_no_weap_cull
  0 -0.015000 0.000000 0.869000 -0.999973 -0.007064 -0.001787 0.500000 0.500000 1 0 1.000000
  0 -0.015000 0.327000 0.574000 -0.999999 0.001185 0.000897 0.125854 0.163086 1 0 1.000000
  0 -0.015000 0.294000 0.542000 -0.999999 0.001147 0.000868 0.163086 0.125977 1 0 1.000000
reticle_ui_stencil_no_weap_cull
  0 -0.015000 0.000000 0.869000 -0.999973 -0.007064 -0.001787 0.500000 0.500000 1 0 1.000000
  0 -0.015000 0.356000 0.610000 -0.999999 -0.001147 0.000868 0.092651 0.204102 1 0 1.000000
  0 -0.015000 0.327000 0.574000 -0.999999 0.001185 0.000897 0.125854 0.163086 1 0 1.000000
reticle_ui_stencil_no_weap_cull
  0 -0.015000 0.000000 0.869000 -0.999973 -0.007064 -0.001787 0.500000 0.500000 1 0 1.000000
  0 -0.015000 0.381000 0.649000 -0.999999 -0.001185 0.000897 0.063965 0.248535 1 0 1.000000
  0 -0.015000 0.356000 0.610000 -0.999999 -0.001147 0.000868 0.092651 0.204102 1 0 1.000000
reticle_ui_stencil_no_weap_cull
  0 -0.015000 0.000000 0.869000 -0.999973 -0.007064 -0.001787 0.500000 0.500000 1 0 1.000000
  0 -0.015000 0.402000 0.690000 -0.999975 0.006832 -0.001729 0.040039 0.295410 1 0 1.000000
  0 -0.015000 0.381000 0.649000 -0.999999 -0.001185 0.000897 0.063965 0.248535 1 0 1.000000
reticle_ui_stencil_no_weap_cull
  0 -0.015000 0.000000 0.869000 -0.999973 -0.007064 -0.001787 0.500000 0.500000 1 0 1.000000
  0 -0.015000 0.418000 0.733000 -0.999976 0.006877 0.001015 0.021164 0.344238 1 0 1.000000
  0 -0.015000 0.402000 0.690000 -0.999975 0.006832 -0.001729 0.040039 0.295410 1 0 1.000000
reticle_ui_stencil_no_weap_cull
  0 -0.015000 0.000000 0.869000 -0.999973 -0.007064 -0.001787 0.500000 0.500000 1 0 1.000000
  0 -0.015000 0.430000 0.777000 -0.999976 0.006876 0.001015 0.007519 0.395508 1 0 1.000000
  0 -0.015000 0.418000 0.733000 -0.999976 0.006877 0.001015 0.021164 0.344238 1 0 1.000000
reticle_ui_stencil_no_weap_cull
  0 -0.015000 0.000000 0.869000 -0.999973 -0.007064 -0.001787 0.500000 0.500000 1 0 1.000000
  0 -0.015000 0.437000 0.823000 -0.999975 -0.006878 -0.001740 -0.000720 0.447266 1 0 1.000000
  0 -0.015000 0.430000 0.777000 -0.999976 0.006876 0.001015 0.007519 0.395508 1 0 1.000000
reticle_ui_stencil_no_weap_cull
  0 -0.015000 0.000000 0.869000 -0.999973 -0.007064 -0.001787 0.500000 0.500000 1 0 1.000000
  0 -0.015000 0.440000 0.869000 -0.999975 0.006831 -0.001729 -0.003481 0.500000 1 0 1.000000
  0 -0.015000 0.437000 0.823000 -0.999975 -0.006878 -0.001740 -0.000720 0.447266 1 0 1.000000
reticle_ui_stencil_no_weap_cull
  0 -0.015000 0.000000 0.869000 -0.999973 -0.007064 -0.001787 0.500000 0.500000 1 0 1.000000
  0 -0.015000 0.437000 0.915000 -0.999975 -0.006831 -0.001729 -0.000720 0.552490 1 0 1.000000
  0 -0.015000 0.440000 0.869000 -0.999975 0.006831 -0.001729 -0.003481 0.500000 1 0 1.000000
reticle_ui_stencil_no_weap_cull
  0 -0.015000 0.000000 0.869000 -0.999973 -0.007064 -0.001787 0.500000 0.500000 1 0 1.000000
  0 -0.015000 0.430000 0.960000 -0.999976 -0.006876 0.001015 0.007519 0.604736 1 0 1.000000
  0 -0.015000 0.437000 0.915000 -0.999975 -0.006831 -0.001729 -0.000720 0.552490 1 0 1.000000
reticle_ui_stencil_no_weap_cull
  0 -0.015000 0.000000 0.869000 -0.999973 -0.007064 -0.001787 0.500000 0.500000 1 0 1.000000
  0 -0.015000 0.418000 1.004000 -0.999975 0.006831 -0.001729 0.021164 0.655518 1 0 1.000000
  0 -0.015000 0.430000 0.960000 -0.999976 -0.006876 0.001015 0.007519 0.604736 1 0 1.000000
reticle_ui_stencil_no_weap_cull
  0 -0.015000 0.000000 0.869000 -0.999973 -0.007064 -0.001787 0.500000 0.500000 1 0 1.000000
  0 -0.015000 0.402000 1.047000 -0.999999 0.001147 0.000868 0.040039 0.704834 1 0 1.000000
  0 -0.015000 0.418000 1.004000 -0.999975 0.006831 -0.001729 0.021164 0.655518 1 0 1.000000
reticle_ui_stencil_no_weap_cull
  0 -0.015000 0.000000 0.869000 -0.999973 -0.007064 -0.001787 0.500000 0.500000 1 0 1.000000
  0 -0.015000 0.381000 1.088000 -0.999999 0.001147 0.000868 0.063965 0.751709 1 0 1.000000
  0 -0.015000 0.402000 1.047000 -0.999999 0.001147 0.000868 0.040039 0.704834 1 0 1.000000
reticle_ui_stencil_no_weap_cull
  0 -0.015000 0.000000 0.869000 -0.999973 -0.007064 -0.001787 0.500000 0.500000 1 0 1.000000
  0 -0.015000 0.356000 1.127000 -0.999990 0.004098 -0.001755 0.092651 0.795898 1 0 1.000000
  0 -0.015000 0.381000 1.088000 -0.999999 0.001147 0.000868 0.063965 0.751709 1 0 1.000000
reticle_ui_stencil_no_weap_cull
  0 -0.015000 0.000000 0.869000 -0.999973 -0.007064 -0.001787 0.500000 0.500000 1 0 1.000000
  0 -0.015000 0.327000 1.163000 -0.999999 -0.001147 0.000868 0.125854 0.836792 1 0 1.000000
  0 -0.015000 0.356000 1.127000 -0.999990 0.004098 -0.001755 0.092651 0.795898 1 0 1.000000
reticle_ui_stencil_no_weap_cull
  0 -0.015000 0.000000 0.869000 -0.999973 -0.007064 -0.001787 0.500000 0.500000 1 0 1.000000
  0 -0.015000 0.294000 1.195000 -0.999999 -0.001147 0.000868 0.163086 0.874023 1 0 1.000000
  0 -0.015000 0.327000 1.163000 -0.999999 -0.001147 0.000868 0.125854 0.836792 1 0 1.000000
reticle_ui_stencil_no_weap_cull
  0 -0.015000 0.000000 0.869000 -0.999973 -0.007064 -0.001787 0.500000 0.500000 1 0 1.000000
  0 -0.015000 0.258000 1.224000 -0.999975 0.006831 -0.001729 0.204102 0.907166 1 0 1.000000
  0 -0.015000 0.294000 1.195000 -0.999999 -0.001147 0.000868 0.163086 0.874023 1 0 1.000000
reticle_ui_stencil_no_weap_cull
  0 -0.015000 0.000000 0.869000 -0.999973 -0.007064 -0.001787 0.500000 0.500000 1 0 1.000000
  0 -0.015000 0.220000 1.249000 -0.999976 0.006877 0.001015 0.248291 0.935852 1 0 1.000000
  0 -0.015000 0.258000 1.224000 -0.999975 0.006831 -0.001729 0.204102 0.907166 1 0 1.000000
reticle_ui_stencil_no_weap_cull
  0 -0.015000 0.000000 0.869000 -0.999973 -0.007064 -0.001787 0.500000 0.500000 1 0 1.000000
  0 -0.015000 0.179000 1.270000 -0.999991 0.004148 0.000999 0.295166 0.959808 1 0 1.000000
  0 -0.015000 0.220000 1.249000 -0.999976 0.006877 0.001015 0.248291 0.935852 1 0 1.000000
reticle_ui_stencil_no_weap_cull
  0 -0.015000 0.000000 0.869000 -0.999973 -0.007064 -0.001787 0.500000 0.500000 1 0 1.000000
  0 -0.015000 0.136000 1.287000 -0.999990 0.004142 -0.001774 0.344482 0.978683 1 0 1.000000
  0 -0.015000 0.179000 1.270000 -0.999991 0.004148 0.000999 0.295166 0.959808 1 0 1.000000
reticle_ui_stencil_no_weap_cull
  0 -0.015000 0.000000 0.869000 -0.999973 -0.007064 -0.001787 0.500000 0.500000 1 0 1.000000
  0 -0.015000 0.091000 1.299000 -0.999976 -0.006877 0.001015 0.395264 0.992321 1 0 1.000000
  0 -0.015000 0.136000 1.287000 -0.999990 0.004142 -0.001774 0.344482 0.978683 1 0 1.000000
reticle_ui_stencil_no_weap_cull
  0 -0.015000 0.000000 0.869000 -0.999973 -0.007064 -0.001787 0.500000 0.500000 1 0 1.000000
  0 -0.015000 0.046000 1.306000 -0.999991 -0.004148 0.001000 0.447266 1.000560 1 0 1.000000
  0 -0.015000 0.091000 1.299000 -0.999976 -0.006877 0.001015 0.395264 0.992321 1 0 1.000000
reticle_ui_stencil_no_weap_cull
  0 -0.015000 0.000000 0.869000 -0.999973 -0.007064 -0.001787 0.500000 0.500000 1 0 1.000000
  0 -0.015000 0.000000 1.308000 -0.999975 0.006831 -0.001729 0.500000 1.003321 1 0 1.000000
  0 -0.015000 0.046000 1.306000 -0.999991 -0.004148 0.001000 0.447266 1.000560 1 0 1.000000
reticle_ui_stencil_no_weap_cull
  0 -0.015000 0.000000 0.869000 -0.999973 -0.007064 -0.001787 0.500000 0.500000 1 0 1.000000
  0 -0.015000 -0.046000 1.306000 -0.999991 0.004148 0.001000 0.552734 1.000560 1 0 1.000000
  0 -0.015000 0.000000 1.308000 -0.999975 0.006831 -0.001729 0.500000 1.003321 1 0 1.000000
reticle_ui_stencil_no_weap_cull
  0 -0.015000 0.000000 0.869000 -0.999973 -0.007064 -0.001787 0.500000 0.500000 1 0 1.000000
  0 -0.015000 -0.091000 1.299000 -0.999976 0.006868 0.001068 0.604492 0.992321 1 0 1.000000
  0 -0.015000 -0.046000 1.306000 -0.999991 0.004148 0.001000 0.552734 1.000560 1 0 1.000000
reticle_ui_stencil_no_weap_cull
  0 -0.015000 0.000000 0.869000 -0.999973 -0.007064 -0.001787 0.500000 0.500000 1 0 1.000000
  0 -0.015000 -0.136000 1.287000 -0.999990 -0.004142 -0.001774 0.655762 0.978683 1 0 1.000000
  0 -0.015000 -0.091000 1.299000 -0.999976 0.006868 0.001068 0.604492 0.992321 1 0 1.000000
reticle_ui_stencil_no_weap_cull
  0 -0.015000 0.000000 0.869000 -0.999973 -0.007064 -0.001787 0.500000 0.500000 1 0 1.000000
  0 -0.015000 -0.179000 1.270000 -0.999991 -0.004148 0.000999 0.704590 0.959808 1 0 1.000000
  0 -0.015000 -0.136000 1.287000 -0.999990 -0.004142 -0.001774 0.655762 0.978683 1 0 1.000000
reticle_ui_stencil_no_weap_cull
  0 -0.015000 0.000000 0.869000 -0.999973 -0.007064 -0.001787 0.500000 0.500000 1 0 1.000000
  0 -0.015000 -0.220000 1.249000 -0.999976 -0.006877 0.001015 0.751953 0.935913 1 0 1.000000
  0 -0.015000 -0.179000 1.270000 -0.999991 -0.004148 0.000999 0.704590 0.959808 1 0 1.000000
reticle_ui_stencil_no_weap_cull
  0 -0.015000 0.000000 0.869000 -0.999973 -0.007064 -0.001787 0.500000 0.500000 1 0 1.000000
  0 -0.015000 -0.258000 1.224000 -0.999975 -0.006831 -0.001729 0.795898 0.907166 1 0 1.000000
  0 -0.015000 -0.220000 1.249000 -0.999976 -0.006877 0.001015 0.751953 0.935913 1 0 1.000000
reticle_ui_stencil_no_weap_cull
  0 -0.015000 0.000000 0.869000 -0.999973 -0.007064 -0.001787 0.500000 0.500000 1 0 1.000000
  0 -0.015000 -0.294000 1.195000 -0.999999 0.001147 0.000868 0.836914 0.874023 1 0 1.000000
  0 -0.015000 -0.258000 1.224000 -0.999975 -0.006831 -0.001729 0.795898 0.907166 1 0 1.000000
reticle_ui_stencil_no_weap_cull
  0 -0.015000 -0.327000 1.163000 -0.999999 0.001147 0.000868 0.874023 0.836792 1 0 1.000000
  0 -0.015000 -0.294000 1.195000 -0.999999 0.001147 0.000868 0.836914 0.874023 1 0 1.000000
  0 -0.015000 0.000000 0.869000 -0.999973 -0.007064 -0.001787 0.500000 0.500000 1 0 1.000000
reticle_ui_stencil_no_weap_cull
  0 -0.015000 -0.327000 1.163000 -0.999999 0.001147 0.000868 0.874023 0.836792 1 0 1.000000
  0 -0.015000 0.000000 0.869000 -0.999973 -0.007064 -0.001787 0.500000 0.500000 1 0 1.000000
  0 -0.015000 -0.356000 1.127000 -0.999990 -0.004098 -0.001755 0.907227 0.795898 1 0 1.000000
ads_scope_lens_low_eye_relief
  0 -0.015000 0.000000 0.869000 -0.999973 -0.007064 -0.001787 0.500000 0.500000 1 0 1.000000
  0 -0.015000 0.356000 0.610000 -0.999999 -0.001147 0.000868 0.092651 0.204102 1 0 1.000000
  0 -0.015000 0.327000 0.574000 -0.999999 0.001185 0.000897 0.125854 0.163086 1 0 1.000000
ads_scope_lens_low_eye_relief
  0 -0.015000 0.000000 0.869000 -0.999973 -0.007064 -0.001787 0.500000 0.500000 1 0 1.000000
  0 -0.015000 0.381000 0.649000 -0.999999 -0.001185 0.000897 0.063965 0.248535 1 0 1.000000
  0 -0.015000 0.356000 0.610000 -0.999999 -0.001147 0.000868 0.092651 0.204102 1 0 1.000000
ads_scope_lens_low_eye_relief
  0 -0.015000 0.000000 0.869000 -0.999973 -0.007064 -0.001787 0.500000 0.500000 1 0 1.000000
  0 -0.015000 0.402000 0.690000 -0.999975 0.006832 -0.001729 0.040039 0.295410 1 0 1.000000
  0 -0.015000 0.381000 0.649000 -0.999999 -0.001185 0.000897 0.063965 0.248535 1 0 1.000000
ads_scope_lens_low_eye_relief
  0 -0.015000 0.000000 0.869000 -0.999973 -0.007064 -0.001787 0.500000 0.500000 1 0 1.000000
  0 -0.015000 0.418000 0.733000 -0.999976 0.006877 0.001015 0.021164 0.344238 1 0 1.000000
  0 -0.015000 0.402000 0.690000 -0.999975 0.006832 -0.001729 0.040039 0.295410 1 0 1.000000
ads_scope_lens_low_eye_relief
  0 -0.015000 0.000000 0.869000 -0.999973 -0.007064 -0.001787 0.500000 0.500000 1 0 1.000000
  0 -0.015000 0.430000 0.777000 -0.999976 0.006876 0.001015 0.007519 0.395508 1 0 1.000000
  0 -0.015000 0.418000 0.733000 -0.999976 0.006877 0.001015 0.021164 0.344238 1 0 1.000000
ads_scope_lens_low_eye_relief
  0 -0.015000 0.000000 0.869000 -0.999973 -0.007064 -0.001787 0.500000 0.500000 1 0 1.000000
  0 -0.015000 0.437000 0.823000 -0.999975 -0.006878 -0.001740 -0.000720 0.447266 1 0 1.000000
  0 -0.015000 0.430000 0.777000 -0.999976 0.006876 0.001015 0.007519 0.395508 1 0 1.000000
ads_scope_lens_low_eye_relief
  0 -0.015000 0.000000 0.869000 -0.999973 -0.007064 -0.001787 0.500000 0.500000 1 0 1.000000
  0 -0.015000 0.440000 0.869000 -0.999975 0.006831 -0.001729 -0.003481 0.500000 1 0 1.000000
  0 -0.015000 0.437000 0.823000 -0.999975 -0.006878 -0.001740 -0.000720 0.447266 1 0 1.000000
ads_scope_lens_low_eye_relief
  0 -0.015000 0.000000 0.869000 -0.999973 -0.007064 -0.001787 0.500000 0.500000 1 0 1.000000
  0 -0.015000 0.437000 0.915000 -0.999975 -0.006831 -0.001729 -0.000720 0.552490 1 0 1.000000
  0 -0.015000 0.440000 0.869000 -0.999975 0.006831 -0.001729 -0.003481 0.500000 1 0 1.000000
ads_scope_lens_low_eye_relief
  0 -0.015000 0.000000 0.869000 -0.999973 -0.007064 -0.001787 0.500000 0.500000 1 0 1.000000
  0 -0.015000 0.430000 0.960000 -0.999976 -0.006876 0.001015 0.007519 0.604736 1 0 1.000000
  0 -0.015000 0.437000 0.915000 -0.999975 -0.006831 -0.001729 -0.000720 0.552490 1 0 1.000000
ads_scope_lens_low_eye_relief
  0 -0.015000 0.000000 0.869000 -0.999973 -0.007064 -0.001787 0.500000 0.500000 1 0 1.000000
  0 -0.015000 0.418000 1.004000 -0.999975 0.006831 -0.001729 0.021164 0.655518 1 0 1.000000
  0 -0.015000 0.430000 0.960000 -0.999976 -0.006876 0.001015 0.007519 0.604736 1 0 1.000000
ads_scope_lens_low_eye_relief
  0 -0.015000 0.000000 0.869000 -0.999973 -0.007064 -0.001787 0.500000 0.500000 1 0 1.000000
  0 -0.015000 0.402000 1.047000 -0.999999 0.001147 0.000868 0.040039 0.704834 1 0 1.000000
  0 -0.015000 0.418000 1.004000 -0.999975 0.006831 -0.001729 0.021164 0.655518 1 0 1.000000
ads_scope_lens_low_eye_relief
  0 -0.015000 0.000000 0.869000 -0.999973 -0.007064 -0.001787 0.500000 0.500000 1 0 1.000000
  0 -0.015000 0.381000 1.088000 -0.999999 0.001147 0.000868 0.063965 0.751709 1 0 1.000000
  0 -0.015000 0.402000 1.047000 -0.999999 0.001147 0.000868 0.040039 0.704834 1 0 1.000000
ads_scope_lens_low_eye_relief
  0 -0.015000 0.000000 0.869000 -0.999973 -0.007064 -0.001787 0.500000 0.500000 1 0 1.000000
  0 -0.015000 0.356000 1.127000 -0.999990 0.004098 -0.001755 0.092651 0.795898 1 0 1.000000
  0 -0.015000 0.381000 1.088000 -0.999999 0.001147 0.000868 0.063965 0.751709 1 0 1.000000
ads_scope_lens_low_eye_relief
  0 -0.015000 0.000000 0.869000 -0.999973 -0.007064 -0.001787 0.500000 0.500000 1 0 1.000000
  0 -0.015000 0.327000 1.163000 -0.999999 -0.001147 0.000868 0.125854 0.836792 1 0 1.000000
  0 -0.015000 0.356000 1.127000 -0.999990 0.004098 -0.001755 0.092651 0.795898 1 0 1.000000
ads_scope_lens_low_eye_relief
  0 -0.015000 0.000000 0.869000 -0.999973 -0.007064 -0.001787 0.500000 0.500000 1 0 1.000000
  0 -0.015000 0.294000 1.195000 -0.999999 -0.001147 0.000868 0.163086 0.874023 1 0 1.000000
  0 -0.015000 0.327000 1.163000 -0.999999 -0.001147 0.000868 0.125854 0.836792 1 0 1.000000
ads_scope_lens_low_eye_relief
  0 -0.015000 0.000000 0.869000 -0.999973 -0.007064 -0.001787 0.500000 0.500000 1 0 1.000000
  0 -0.015000 0.258000 1.224000 -0.999975 0.006831 -0.001729 0.204102 0.907166 1 0 1.000000
  0 -0.015000 0.294000 1.195000 -0.999999 -0.001147 0.000868 0.163086 0.874023 1 0 1.000000
ads_scope_lens_low_eye_relief
  0 -0.015000 0.000000 0.869000 -0.999973 -0.007064 -0.001787 0.500000 0.500000 1 0 1.000000
  0 -0.015000 0.220000 1.249000 -0.999976 0.006877 0.001015 0.248291 0.935852 1 0 1.000000
  0 -0.015000 0.258000 1.224000 -0.999975 0.006831 -0.001729 0.204102 0.907166 1 0 1.000000
ads_scope_lens_low_eye_relief
  0 -0.015000 0.000000 0.869000 -0.999973 -0.007064 -0.001787 0.500000 0.500000 1 0 1.000000
  0 -0.015000 0.179000 1.270000 -0.999991 0.004148 0.000999 0.295166 0.959808 1 0 1.000000
  0 -0.015000 0.220000 1.249000 -0.999976 0.006877 0.001015 0.248291 0.935852 1 0 1.000000
ads_scope_lens_low_eye_relief
  0 -0.015000 0.000000 0.869000 -0.999973 -0.007064 -0.001787 0.500000 0.500000 1 0 1.000000
  0 -0.015000 0.136000 1.287000 -0.999990 0.004142 -0.001774 0.344482 0.978683 1 0 1.000000
  0 -0.015000 0.179000 1.270000 -0.999991 0.004148 0.000999 0.295166 0.959808 1 0 1.000000
ads_scope_lens_low_eye_relief
  0 -0.015000 0.000000 0.869000 -0.999973 -0.007064 -0.001787 0.500000 0.500000 1 0 1.000000
  0 -0.015000 0.091000 1.299000 -0.999976 -0.006877 0.001015 0.395264 0.992321 1 0 1.000000
  0 -0.015000 0.136000 1.287000 -0.999990 0.004142 -0.001774 0.344482 0.978683 1 0 1.000000
ads_scope_lens_low_eye_relief
  0 -0.015000 0.000000 0.869000 -0.999973 -0.007064 -0.001787 0.500000 0.500000 1 0 1.000000
  0 -0.015000 0.046000 1.306000 -0.999991 -0.004148 0.001000 0.447266 1.000560 1 0 1.000000
  0 -0.015000 0.091000 1.299000 -0.999976 -0.006877 0.001015 0.395264 0.992321 1 0 1.000000
ads_scope_lens_low_eye_relief
  0 -0.015000 0.000000 0.869000 -0.999973 -0.007064 -0.001787 0.500000 0.500000 1 0 1.000000
  0 -0.015000 0.000000 1.308000 -0.999975 0.006831 -0.001729 0.500000 1.003321 1 0 1.000000
  0 -0.015000 0.046000 1.306000 -0.999991 -0.004148 0.001000 0.447266 1.000560 1 0 1.000000
ads_scope_lens_low_eye_relief
  0 -0.015000 0.000000 0.869000 -0.999973 -0.007064 -0.001787 0.500000 0.500000 1 0 1.000000
  0 -0.015000 -0.046000 1.306000 -0.999991 0.004148 0.001000 0.552734 1.000560 1 0 1.000000
  0 -0.015000 0.000000 1.308000 -0.999975 0.006831 -0.001729 0.500000 1.003321 1 0 1.000000
ads_scope_lens_low_eye_relief
  0 -0.015000 0.000000 0.869000 -0.999973 -0.007064 -0.001787 0.500000 0.500000 1 0 1.000000
  0 -0.015000 -0.091000 1.299000 -0.999976 0.006868 0.001068 0.604492 0.992321 1 0 1.000000
  0 -0.015000 -0.046000 1.306000 -0.999991 0.004148 0.001000 0.552734 1.000560 1 0 1.000000
ads_scope_lens_low_eye_relief
  0 -0.015000 0.000000 0.869000 -0.999973 -0.007064 -0.001787 0.500000 0.500000 1 0 1.000000
  0 -0.015000 -0.136000 1.287000 -0.999990 -0.004142 -0.001774 0.655762 0.978683 1 0 1.000000
  0 -0.015000 -0.091000 1.299000 -0.999976 0.006868 0.001068 0.604492 0.992321 1 0 1.000000
ads_scope_lens_low_eye_relief
  0 -0.015000 0.000000 0.869000 -0.999973 -0.007064 -0.001787 0.500000 0.500000 1 0 1.000000
  0 -0.015000 -0.179000 1.270000 -0.999991 -0.004148 0.000999 0.704590 0.959808 1 0 1.000000
  0 -0.015000 -0.136000 1.287000 -0.999990 -0.004142 -0.001774 0.655762 0.978683 1 0 1.000000
ads_scope_lens_low_eye_relief
  0 -0.015000 0.000000 0.869000 -0.999973 -0.007064 -0.001787 0.500000 0.500000 1 0 1.000000
  0 -0.015000 -0.220000 1.249000 -0.999976 -0.006877 0.001015 0.751953 0.935913 1 0 1.000000
  0 -0.015000 -0.179000 1.270000 -0.999991 -0.004148 0.000999 0.704590 0.959808 1 0 1.000000
ads_scope_lens_low_eye_relief
  0 -0.015000 0.000000 0.869000 -0.999973 -0.007064 -0.001787 0.500000 0.500000 1 0 1.000000
  0 -0.015000 -0.258000 1.224000 -0.999975 -0.006831 -0.001729 0.795898 0.907166 1 0 1.000000
  0 -0.015000 -0.220000 1.249000 -0.999976 -0.006877 0.001015 0.751953 0.935913 1 0 1.000000
ads_scope_lens_low_eye_relief
  0 -0.015000 0.000000 0.869000 -0.999973 -0.007064 -0.001787 0.500000 0.500000 1 0 1.000000
  0 -0.015000 -0.294000 1.195000 -0.999999 0.001147 0.000868 0.836914 0.874023 1 0 1.000000
  0 -0.015000 -0.258000 1.224000 -0.999975 -0.006831 -0.001729 0.795898 0.907166 1 0 1.000000
ads_scope_lens_low_eye_relief
  0 -0.015000 0.000000 0.869000 -0.999973 -0.007064 -0.001787 0.500000 0.500000 1 0 1.000000
  0 -0.015000 -0.327000 1.163000 -0.999999 0.001147 0.000868 0.874023 0.836792 1 0 1.000000
  0 -0.015000 -0.294000 1.195000 -0.999999 0.001147 0.000868 0.836914 0.874023 1 0 1.000000
ads_scope_lens_low_eye_relief
  0 -0.015000 0.000000 0.869000 -0.999973 -0.007064 -0.001787 0.500000 0.500000 1 0 1.000000
  0 -0.015000 -0.356000 1.127000 -0.999990 -0.004098 -0.001755 0.907227 0.795898 1 0 1.000000
  0 -0.015000 -0.327000 1.163000 -0.999999 0.001147 0.000868 0.874023 0.836792 1 0 1.000000
ads_scope_lens_low_eye_relief
  0 -0.015000 0.000000 0.869000 -0.999973 -0.007064 -0.001787 0.500000 0.500000 1 0 1.000000
  0 -0.015000 -0.381000 1.088000 -0.999999 -0.001147 0.000868 0.936035 0.751709 1 0 1.000000
  0 -0.015000 -0.356000 1.127000 -0.999990 -0.004098 -0.001755 0.907227 0.795898 1 0 1.000000
ads_scope_lens_low_eye_relief
  0 -0.015000 0.000000 0.869000 -0.999973 -0.007064 -0.001787 0.500000 0.500000 1 0 1.000000
  0 -0.015000 -0.402000 1.047000 -0.999999 -0.001147 0.000868 0.959961 0.704834 1 0 1.000000
  0 -0.015000 -0.381000 1.088000 -0.999999 -0.001147 0.000868 0.936035 0.751709 1 0 1.000000
ads_scope_lens_low_eye_relief
  0 -0.015000 0.000000 0.869000 -0.999973 -0.007064 -0.001787 0.500000 0.500000 1 0 1.000000
  0 -0.015000 -0.418000 1.004000 -0.999975 -0.006831 -0.001729 0.979004 0.655518 1 0 1.000000
  0 -0.015000 -0.402000 1.047000 -0.999999 -0.001147 0.000868 0.959961 0.704834 1 0 1.000000
ads_scope_lens_low_eye_relief
  0 -0.015000 0.000000 0.869000 -0.999973 -0.007064 -0.001787 0.500000 0.500000 1 0 1.000000
  0 -0.015000 -0.430000 0.960000 -0.999976 0.006876 0.001015 0.992676 0.604736 1 0 1.000000
  0 -0.015000 -0.418000 1.004000 -0.999975 -0.006831 -0.001729 0.979004 0.655518 1 0 1.000000
ads_scope_lens_low_eye_relief
  0 -0.015000 0.000000 0.869000 -0.999973 -0.007064 -0.001787 0.500000 0.500000 1 0 1.000000
  0 -0.015000 -0.437000 0.915000 -0.999975 0.006831 -0.001729 1.000977 0.552490 1 0 1.000000
  0 -0.015000 -0.430000 0.960000 -0.999976 0.006876 0.001015 0.992676 0.604736 1 0 1.000000
ads_scope_lens_low_eye_relief
  0 -0.015000 0.000000 0.869000 -0.999973 -0.007064 -0.001787 0.500000 0.500000 1 0 1.000000
  0 -0.015000 -0.440000 0.869000 -0.999975 0.006831 -0.001729 1.003906 0.500000 1 0 1.000000
  0 -0.015000 -0.437000 0.915000 -0.999975 0.006831 -0.001729 1.000977 0.552490 1 0 1.000000
ads_scope_lens_low_eye_relief
  0 -0.015000 0.000000 0.869000 -0.999973 -0.007064 -0.001787 0.500000 0.500000 1 0 1.000000
  0 -0.015000 -0.437000 0.823000 -0.999975 0.006878 -0.001740 1.000977 0.447266 1 0 1.000000
  0 -0.015000 -0.440000 0.869000 -0.999975 0.006831 -0.001729 1.003906 0.500000 1 0 1.000000
ads_scope_lens_low_eye_relief
  0 -0.015000 0.000000 0.869000 -0.999973 -0.007064 -0.001787 0.500000 0.500000 1 0 1.000000
  0 -0.015000 -0.430000 0.777000 -0.999976 -0.006876 0.001015 0.992676 0.395508 1 0 1.000000
  0 -0.015000 -0.437000 0.823000 -0.999975 0.006878 -0.001740 1.000977 0.447266 1 0 1.000000
ads_scope_lens_low_eye_relief
  0 -0.015000 0.000000 0.869000 -0.999973 -0.007064 -0.001787 0.500000 0.500000 1 0 1.000000
  0 -0.015000 -0.418000 0.733000 -0.999976 -0.006876 0.001016 0.979004 0.344238 1 0 1.000000
  0 -0.015000 -0.430000 0.777000 -0.999976 -0.006876 0.001015 0.992676 0.395508 1 0 1.000000
ads_scope_lens_low_eye_relief
  0 -0.015000 0.000000 0.869000 -0.999973 -0.007064 -0.001787 0.500000 0.500000 1 0 1.000000
  0 -0.015000 -0.402000 0.690000 -0.999975 -0.006832 -0.001729 0.959961 0.295410 1 0 1.000000
  0 -0.015000 -0.418000 0.733000 -0.999976 -0.006876 0.001016 0.979004 0.344238 1 0 1.000000
ads_scope_lens_low_eye_relief
  0 -0.015000 0.000000 0.869000 -0.999973 -0.007064 -0.001787 0.500000 0.500000 1 0 1.000000
  0 -0.015000 -0.381000 0.649000 -0.999999 0.001185 0.000897 0.936035 0.248535 1 0 1.000000
  0 -0.015000 -0.402000 0.690000 -0.999975 -0.006832 -0.001729 0.959961 0.295410 1 0 1.000000
ads_scope_lens_low_eye_relief
  0 -0.015000 0.000000 0.869000 -0.999973 -0.007064 -0.001787 0.500000 0.500000 1 0 1.000000
  0 -0.015000 -0.356000 0.610000 -0.999999 0.001147 0.000868 0.907227 0.204102 1 0 1.000000
  0 -0.015000 -0.381000 0.649000 -0.999999 0.001185 0.000897 0.936035 0.248535 1 0 1.000000
ads_scope_lens_low_eye_relief
  0 -0.015000 0.000000 0.869000 -0.999973 -0.007064 -0.001787 0.500000 0.500000 1 0 1.000000
  0 -0.015000 -0.327000 0.574000 -0.999999 -0.001185 0.000897 0.874023 0.163086 1 0 1.000000
  0 -0.015000 -0.356000 0.610000 -0.999999 0.001147 0.000868 0.907227 0.204102 1 0 1.000000
ads_scope_lens_low_eye_relief
  0 -0.015000 0.000000 0.869000 -0.999973 -0.007064 -0.001787 0.500000 0.500000 1 0 1.000000
  0 -0.015000 -0.294000 0.542000 -0.999999 -0.001147 0.000868 0.836914 0.125977 1 0 1.000000
  0 -0.015000 -0.327000 0.574000 -0.999999 -0.001185 0.000897 0.874023 0.163086 1 0 1.000000
ads_scope_lens_low_eye_relief
  0 -0.015000 0.000000 0.869000 -0.999973 -0.007064 -0.001787 0.500000 0.500000 1 0 1.000000
  0 -0.015000 -0.258000 0.513000 -0.999975 -0.006832 -0.001729 0.795898 0.092773 1 0 1.000000
  0 -0.015000 -0.294000 0.542000 -0.999999 -0.001147 0.000868 0.836914 0.125977 1 0 1.000000
ads_scope_lens_low_eye_relief
  0 -0.015000 0.000000 0.869000 -0.999973 -0.007064 -0.001787 0.500000 0.500000 1 0 1.000000
  0 -0.015000 -0.220000 0.488000 -0.999975 0.006832 -0.001729 0.751953 0.063965 1 0 1.000000
  0 -0.015000 -0.258000 0.513000 -0.999975 -0.006832 -0.001729 0.795898 0.092773 1 0 1.000000
ads_scope_lens_low_eye_relief
  0 -0.015000 0.000000 0.869000 -0.999973 -0.007064 -0.001787 0.500000 0.500000 1 0 1.000000
  0 -0.015000 -0.179000 0.467000 -0.999990 0.004098 -0.001756 0.704590 0.040039 1 0 1.000000
  0 -0.015000 -0.220000 0.488000 -0.999975 0.006832 -0.001729 0.751953 0.063965 1 0 1.000000
ads_scope_lens_low_eye_relief
  0 -0.015000 0.000000 0.869000 -0.999973 -0.007064 -0.001787 0.500000 0.500000 1 0 1.000000
  0 -0.015000 -0.136000 0.450000 -0.999990 -0.004142 -0.001774 0.655762 0.021484 1 0 1.000000
  0 -0.015000 -0.179000 0.467000 -0.999990 0.004098 -0.001756 0.704590 0.040039 1 0 1.000000
ads_scope_lens_low_eye_relief
  0 -0.015000 0.000000 0.869000 -0.999973 -0.007064 -0.001787 0.500000 0.500000 1 0 1.000000
  0 -0.015000 -0.091000 0.439000 -0.999975 -0.006831 -0.001729 0.604492 0.007812 1 0 1.000000
  0 -0.015000 -0.136000 0.450000 -0.999990 -0.004142 -0.001774 0.655762 0.021484 1 0 1.000000
ads_scope_lens_low_eye_relief
  0 -0.015000 0.000000 0.869000 -0.999973 -0.007064 -0.001787 0.500000 0.500000 1 0 1.000000
  0 -0.015000 -0.046000 0.431000 -0.999999 0.001147 0.000868 0.552734 -0.000977 1 0 1.000000
  0 -0.015000 -0.091000 0.439000 -0.999975 -0.006831 -0.001729 0.604492 0.007812 1 0 1.000000
ads_scope_lens_low_eye_relief
  0 -0.015000 0.000000 0.869000 -0.999973 -0.007064 -0.001787 0.500000 0.500000 1 0 1.000000
  0 -0.015000 0.000000 0.429000 -0.999975 0.006831 -0.001729 0.500000 -0.002930 1 0 1.000000
  0 -0.015000 -0.046000 0.431000 -0.999999 0.001147 0.000868 0.552734 -0.000977 1 0 1.000000
ads_scope_lens_low_eye_relief
  0 -0.015000 0.000000 0.869000 -0.999973 -0.007064 -0.001787 0.500000 0.500000 1 0 1.000000
  0 -0.015000 0.046000 0.431000 -0.999999 -0.001147 0.000868 0.447266 -0.000977 1 0 1.000000
  0 -0.015000 0.000000 0.429000 -0.999975 0.006831 -0.001729 0.500000 -0.002930 1 0 1.000000
ads_scope_lens_low_eye_relief
  0 -0.015000 0.000000 0.869000 -0.999973 -0.007064 -0.001787 0.500000 0.500000 1 0 1.000000
  0 -0.015000 0.091000 0.439000 -0.999975 0.006831 -0.001729 0.395264 0.007812 1 0 1.000000
  0 -0.015000 0.046000 0.431000 -0.999999 -0.001147 0.000868 0.447266 -0.000977 1 0 1.000000
ads_scope_lens_low_eye_relief
  0 -0.015000 0.000000 0.869000 -0.999973 -0.007064 -0.001787 0.500000 0.500000 1 0 1.000000
  0 -0.015000 0.136000 0.450000 -0.999990 0.004142 -0.001774 0.344482 0.021484 1 0 1.000000
  0 -0.015000 0.091000 0.439000 -0.999975 0.006831 -0.001729 0.395264 0.007812 1 0 1.000000
ads_scope_lens_low_eye_relief
  0 -0.015000 0.000000 0.869000 -0.999973 -0.007064 -0.001787 0.500000 0.500000 1 0 1.000000
  0 -0.015000 0.179000 0.467000 -0.999990 -0.004098 -0.001756 0.295166 0.040039 1 0 1.000000
  0 -0.015000 0.136000 0.450000 -0.999990 0.004142 -0.001774 0.344482 0.021484 1 0 1.000000
ads_scope_lens_low_eye_relief
  0 -0.015000 0.000000 0.869000 -0.999973 -0.007064 -0.001787 0.500000 0.500000 1 0 1.000000
  0 -0.015000 0.220000 0.488000 -0.999975 -0.006832 -0.001729 0.248291 0.063965 1 0 1.000000
  0 -0.015000 0.179000 0.467000 -0.999990 -0.004098 -0.001756 0.295166 0.040039 1 0 1.000000
ads_scope_lens_low_eye_relief
  0 -0.015000 0.000000 0.869000 -0.999973 -0.007064 -0.001787 0.500000 0.500000 1 0 1.000000
  0 -0.015000 0.258000 0.513000 -0.999975 0.006832 -0.001729 0.204102 0.092773 1 0 1.000000
  0 -0.015000 0.220000 0.488000 -0.999975 -0.006832 -0.001729 0.248291 0.063965 1 0 1.000000
ads_scope_lens_low_eye_relief
  0 -0.015000 0.258000 0.513000 -0.999975 0.006832 -0.001729 0.204102 0.092773 1 0 1.000000
  0 -0.015000 0.000000 0.869000 -0.999973 -0.007064 -0.001787 0.500000 0.500000 1 0 1.000000
  0 -0.015000 0.294000 0.542000 -0.999999 0.001147 0.000868 0.163086 0.125977 1 0 1.000000
ads_scope_lens_low_eye_relief
  0 -0.015000 0.294000 0.542000 -0.999999 0.001147 0.000868 0.163086 0.125977 1 0 1.000000
  0 -0.015000 0.000000 0.869000 -0.999973 -0.007064 -0.001787 0.500000 0.500000 1 0 1.000000
  0 -0.015000 0.327000 0.574000 -0.999999 0.001185 0.000897 0.125854 0.163086 1 0 1.000000
end
