// Created by Crowbar 0.74
version 1
nodes
  0 "tag_reflex" -1
end
skeleton
  time 0
    0 0.000000 0.000000 0.000000 0.000000 0.000000 0.000000
end
triangles
attachment_vm_reflex_west02_lens
  0 -0.036000 0.341000 1.513156 -0.995197 0.076943 0.060513 0.117920 0.777588 1 0 1.000000
  0 -0.015000 0.356000 1.524156 -0.653044 0.611451 0.446835 0.092651 0.795898 1 0 1.000000
  0 -0.015000 0.381000 1.485156 -0.651933 0.655303 0.381524 0.063965 0.751709 1 0 1.000000
attachment_vm_reflex_west02_lens
  0 -0.036000 0.341000 1.513156 -0.995197 0.076943 0.060513 0.117920 0.777588 1 0 1.000000
  0 -0.015000 0.327000 1.560156 -0.651967 0.562575 0.508379 0.125854 0.836792 1 0 1.000000
  0 -0.015000 0.356000 1.524156 -0.653044 0.611451 0.446835 0.092651 0.795898 1 0 1.000000
attachment_vm_reflex_west02_lens
  0 -0.036000 0.341000 1.513156 -0.995197 0.076943 0.060513 0.117920 0.777588 1 0 1.000000
  0 -0.036000 0.313000 1.548156 -0.995050 0.076237 0.063738 0.149048 0.816040 1 0 1.000000
  0 -0.015000 0.327000 1.560156 -0.651967 0.562575 0.508379 0.125854 0.836792 1 0 1.000000
attachment_vm_reflex_west02_lens
  0 -0.036000 0.313000 1.548156 -0.995050 0.076237 0.063738 0.149048 0.816040 1 0 1.000000
  0 -0.015000 0.294000 1.592156 -0.651126 0.504770 0.566783 0.163086 0.874023 1 0 1.000000
  0 -0.015000 0.327000 1.560156 -0.651967 0.562575 0.508379 0.125854 0.836792 1 0 1.000000
attachment_vm_reflex_west02_lens
  0 -0.036000 0.248000 1.607156 -0.995083 0.060181 0.078661 0.222412 0.882080 1 0 1.000000
  0 -0.036000 0.000000 1.266156 -0.999973 0.007064 -0.001787 0.500000 0.500000 1 0 1.000000
  0 -0.036000 0.211000 1.631156 -0.994977 0.055802 0.083102 0.263916 0.908997 1 0 1.000000
attachment_vm_reflex_west02_lens
  0 -0.036000 0.248000 1.607156 -0.995083 0.060181 0.078661 0.222412 0.882080 1 0 1.000000
  0 -0.036000 0.211000 1.631156 -0.994977 0.055802 0.083102 0.263916 0.908997 1 0 1.000000
  0 -0.015000 0.220000 1.646156 -0.650669 0.379231 0.657886 0.248291 0.935852 1 0 1.000000
attachment_vm_reflex_west02_lens
  0 -0.036000 0.248000 1.607156 -0.995083 0.060181 0.078661 0.222412 0.882080 1 0 1.000000
  0 -0.015000 0.220000 1.646156 -0.650669 0.379231 0.657886 0.248291 0.935852 1 0 1.000000
  0 -0.015000 0.258000 1.621156 -0.651765 0.445297 0.613933 0.204102 0.907166 1 0 1.000000
attachment_vm_reflex_west02_lens
  0 -0.036000 0.248000 1.607156 -0.995083 0.060181 0.078661 0.222412 0.882080 1 0 1.000000
  0 -0.015000 0.258000 1.621156 -0.651765 0.445297 0.613933 0.204102 0.907166 1 0 1.000000
  0 -0.015000 0.294000 1.592156 -0.651126 0.504770 0.566783 0.163086 0.874023 1 0 1.000000
attachment_vm_reflex_west02_lens
  0 -0.036000 0.282000 1.579156 -0.994843 0.071464 0.071967 0.183960 0.850952 1 0 1.000000
  0 -0.036000 0.248000 1.607156 -0.995083 0.060181 0.078661 0.222412 0.882080 1 0 1.000000
  0 -0.015000 0.294000 1.592156 -0.651126 0.504770 0.566783 0.163086 0.874023 1 0 1.000000
attachment_vm_reflex_west02_lens
  0 -0.036000 0.282000 1.579156 -0.994843 0.071464 0.071967 0.183960 0.850952 1 0 1.000000
  0 -0.015000 0.294000 1.592156 -0.651126 0.504770 0.566783 0.163086 0.874023 1 0 1.000000
  0 -0.036000 0.313000 1.548156 -0.995050 0.076237 0.063738 0.149048 0.816040 1 0 1.000000
attachment_vm_reflex_west02_lens
  0 -0.036000 0.313000 1.548156 -0.995050 0.076237 0.063738 0.149048 0.816040 1 0 1.000000
  0 -0.036000 0.000000 1.266156 -0.999973 0.007064 -0.001787 0.500000 0.500000 1 0 1.000000
  0 -0.036000 0.282000 1.579156 -0.994843 0.071464 0.071967 0.183960 0.850952 1 0 1.000000
attachment_vm_reflex_west02_lens
  0 -0.036000 0.341000 1.513156 -0.995197 0.076943 0.060513 0.117920 0.777588 1 0 1.000000
  0 -0.036000 0.000000 1.266156 -0.999973 0.007064 -0.001787 0.500000 0.500000 1 0 1.000000
  0 -0.036000 0.313000 1.548156 -0.995050 0.076237 0.063738 0.149048 0.816040 1 0 1.000000
attachment_vm_reflex_west02_lens
  0 -0.036000 0.365000 1.476156 -0.995480 0.079568 0.051850 0.091003 0.736084 1 0 1.000000
  0 -0.036000 0.000000 1.266156 -0.999973 0.007064 -0.001787 0.500000 0.500000 1 0 1.000000
  0 -0.036000 0.341000 1.513156 -0.995197 0.076943 0.060513 0.117920 0.777588 1 0 1.000000
attachment_vm_reflex_west02_lens
  0 -0.036000 0.365000 1.476156 -0.995480 0.079568 0.051850 0.091003 0.736084 1 0 1.000000
  0 -0.036000 0.341000 1.513156 -0.995197 0.076943 0.060513 0.117920 0.777588 1 0 1.000000
  0 -0.015000 0.381000 1.485156 -0.651933 0.655303 0.381524 0.063965 0.751709 1 0 1.000000
attachment_vm_reflex_west02_lens
  0 -0.036000 0.385000 1.437156 -0.995354 0.087368 0.040454 0.068542 0.692139 1 0 1.000000
  0 -0.036000 0.365000 1.476156 -0.995480 0.079568 0.051850 0.091003 0.736084 1 0 1.000000
  0 -0.015000 0.381000 1.485156 -0.651933 0.655303 0.381524 0.063965 0.751709 1 0 1.000000
attachment_vm_reflex_west02_lens
  0 -0.036000 0.385000 1.437156 -0.995354 0.087368 0.040454 0.068542 0.692139 1 0 1.000000
  0 -0.015000 0.381000 1.485156 -0.651933 0.655303 0.381524 0.063965 0.751709 1 0 1.000000
  0 -0.015000 0.402000 1.444156 -0.652158 0.692020 0.309513 0.040039 0.704834 1 0 1.000000
attachment_vm_reflex_west02_lens
  0 -0.036000 0.401000 1.396156 -0.995565 0.087395 0.034810 0.050812 0.645996 1 0 1.000000
  0 -0.036000 0.385000 1.437156 -0.995354 0.087368 0.040454 0.068542 0.692139 1 0 1.000000
  0 -0.015000 0.402000 1.444156 -0.652158 0.692020 0.309513 0.040039 0.704834 1 0 1.000000
attachment_vm_reflex_west02_lens
  0 -0.036000 0.401000 1.396156 -0.995565 0.087395 0.034810 0.050812 0.645996 1 0 1.000000
  0 -0.015000 0.402000 1.444156 -0.652158 0.692020 0.309513 0.040039 0.704834 1 0 1.000000
  0 -0.015000 0.418000 1.401156 -0.651322 0.721257 0.235730 0.021164 0.655518 1 0 1.000000
attachment_vm_reflex_west02_lens
  0 -0.036000 0.412000 1.353156 -0.995456 0.092865 0.021045 0.038025 0.598145 1 0 1.000000
  0 -0.036000 0.401000 1.396156 -0.995565 0.087395 0.034810 0.050812 0.645996 1 0 1.000000
  0 -0.015000 0.418000 1.401156 -0.651322 0.721257 0.235730 0.021164 0.655518 1 0 1.000000
attachment_vm_reflex_west02_lens
  0 -0.036000 0.412000 1.353156 -0.995456 0.092865 0.021045 0.038025 0.598145 1 0 1.000000
  0 -0.015000 0.418000 1.401156 -0.651322 0.721257 0.235730 0.021164 0.655518 1 0 1.000000
  0 -0.015000 0.430000 1.357156 -0.653666 0.739851 0.159189 0.007519 0.604736 1 0 1.000000
attachment_vm_reflex_west02_lens
  0 -0.036000 0.412000 1.353156 -0.995456 0.092865 0.021045 0.038025 0.598145 1 0 1.000000
  0 -0.015000 0.430000 1.357156 -0.653666 0.739851 0.159189 0.007519 0.604736 1 0 1.000000
  0 -0.015000 0.437000 1.312156 -0.654577 0.751899 0.078593 -0.000720 0.552490 1 0 1.000000
attachment_vm_reflex_west02_lens
  0 -0.036000 0.419000 1.310156 -0.995347 0.095746 0.010761 0.030289 0.549316 1 0 1.000000
  0 -0.036000 0.412000 1.353156 -0.995456 0.092865 0.021045 0.038025 0.598145 1 0 1.000000
  0 -0.015000 0.437000 1.312156 -0.654577 0.751899 0.078593 -0.000720 0.552490 1 0 1.000000
attachment_vm_reflex_west02_lens
  0 -0.036000 0.282000 1.579156 -0.994843 0.071464 0.071967 0.183960 0.850952 1 0 1.000000
  0 -0.036000 0.000000 1.266156 -0.999973 0.007064 -0.001787 0.500000 0.500000 1 0 1.000000
  0 -0.036000 0.248000 1.607156 -0.995083 0.060181 0.078661 0.222412 0.882080 1 0 1.000000
attachment_vm_reflex_west02_lens
  0 -0.036000 0.385000 1.437156 -0.995354 0.087368 0.040454 0.068542 0.692139 1 0 1.000000
  0 -0.036000 0.000000 1.266156 -0.999973 0.007064 -0.001787 0.500000 0.500000 1 0 1.000000
  0 -0.036000 0.365000 1.476156 -0.995480 0.079568 0.051850 0.091003 0.736084 1 0 1.000000
attachment_vm_reflex_west02_lens
  0 -0.036000 0.401000 1.396156 -0.995565 0.087395 0.034810 0.050812 0.645996 1 0 1.000000
  0 -0.036000 0.000000 1.266156 -0.999973 0.007064 -0.001787 0.500000 0.500000 1 0 1.000000
  0 -0.036000 0.385000 1.437156 -0.995354 0.087368 0.040454 0.068542 0.692139 1 0 1.000000
attachment_vm_reflex_west02_lens
  0 -0.036000 0.412000 1.353156 -0.995456 0.092865 0.021045 0.038025 0.598145 1 0 1.000000
  0 -0.036000 0.000000 1.266156 -0.999973 0.007064 -0.001787 0.500000 0.500000 1 0 1.000000
  0 -0.036000 0.401000 1.396156 -0.995565 0.087395 0.034810 0.050812 0.645996 1 0 1.000000
attachment_vm_reflex_west02_lens
  0 -0.036000 0.419000 1.310156 -0.995347 0.095746 0.010761 0.030289 0.549316 1 0 1.000000
  0 -0.036000 0.000000 1.266156 -0.999973 0.007064 -0.001787 0.500000 0.500000 1 0 1.000000
  0 -0.036000 0.412000 1.353156 -0.995456 0.092865 0.021045 0.038025 0.598145 1 0 1.000000
attachment_vm_reflex_west02_lens
  0 -0.036000 -0.282000 0.952156 -0.994987 -0.067570 -0.073724 0.815918 0.148926 1 0 1.000000
  0 -0.036000 0.000000 1.266156 -0.999973 0.007064 -0.001787 0.500000 0.500000 1 0 1.000000
  0 -0.036000 -0.248000 0.925156 -0.995048 -0.059699 -0.079471 0.777832 0.117676 1 0 1.000000
attachment_vm_reflex_west02_lens
  0 -0.036000 -0.248000 0.925156 -0.995048 -0.059699 -0.079471 0.777832 0.117676 1 0 1.000000
  0 -0.036000 0.000000 1.266156 -0.999973 0.007064 -0.001787 0.500000 0.500000 1 0 1.000000
  0 -0.036000 -0.211000 0.900156 -0.995102 -0.054066 -0.082755 0.736328 0.090820 1 0 1.000000
attachment_vm_reflex_west02_lens
  0 -0.036000 -0.211000 0.900156 -0.995102 -0.054066 -0.082755 0.736328 0.090820 1 0 1.000000
  0 -0.036000 0.000000 1.266156 -0.999973 0.007064 -0.001787 0.500000 0.500000 1 0 1.000000
  0 -0.036000 -0.171000 0.880156 -0.995070 -0.045893 -0.087912 0.691895 0.068359 1 0 1.000000
attachment_vm_reflex_west02_lens
  0 -0.036000 -0.171000 0.880156 -0.995070 -0.045893 -0.087912 0.691895 0.068359 1 0 1.000000
  0 -0.036000 0.000000 1.266156 -0.999973 0.007064 -0.001787 0.500000 0.500000 1 0 1.000000
  0 -0.036000 -0.130000 0.865156 -0.995039 -0.031305 -0.094428 0.645996 0.050781 1 0 1.000000
attachment_vm_reflex_west02_lens
  0 -0.036000 -0.385000 1.094156 -0.995327 -0.087486 -0.040859 0.931641 0.308105 1 0 1.000000
  0 -0.036000 0.000000 1.266156 -0.999973 0.007064 -0.001787 0.500000 0.500000 1 0 1.000000
  0 -0.036000 -0.365000 1.055156 -0.995594 -0.079732 -0.049343 0.909180 0.263672 1 0 1.000000
attachment_vm_reflex_west02_lens
  0 -0.036000 -0.401000 1.135156 -0.995408 -0.090058 -0.032426 0.949219 0.354004 1 0 1.000000
  0 -0.036000 0.000000 1.266156 -0.999973 0.007064 -0.001787 0.500000 0.500000 1 0 1.000000
  0 -0.036000 -0.385000 1.094156 -0.995327 -0.087486 -0.040859 0.931641 0.308105 1 0 1.000000
attachment_vm_reflex_west02_lens
  0 -0.036000 -0.412000 1.178156 -0.995441 -0.092932 -0.021456 0.961914 0.401855 1 0 1.000000
  0 -0.036000 0.000000 1.266156 -0.999973 0.007064 -0.001787 0.500000 0.500000 1 0 1.000000
  0 -0.036000 -0.401000 1.135156 -0.995408 -0.090058 -0.032426 0.949219 0.354004 1 0 1.000000
attachment_vm_reflex_west02_lens
  0 -0.036000 -0.419000 1.222156 -0.995590 -0.093149 -0.011160 0.969727 0.450684 1 0 1.000000
  0 -0.036000 0.000000 1.266156 -0.999973 0.007064 -0.001787 0.500000 0.500000 1 0 1.000000
  0 -0.036000 -0.412000 1.178156 -0.995441 -0.092932 -0.021456 0.961914 0.401855 1 0 1.000000
attachment_vm_reflex_west02_lens
  0 -0.036000 -0.248000 0.925156 -0.995048 -0.059699 -0.079471 0.777832 0.117676 1 0 1.000000
  0 -0.015000 -0.258000 0.910156 -0.651217 -0.444895 -0.614804 0.795898 0.092773 1 0 1.000000
  0 -0.015000 -0.294000 0.939156 -0.650190 -0.505453 -0.567249 0.836914 0.125977 1 0 1.000000
attachment_vm_reflex_west02_lens
  0 -0.036000 -0.282000 0.952156 -0.994987 -0.067570 -0.073724 0.815918 0.148926 1 0 1.000000
  0 -0.036000 -0.248000 0.925156 -0.995048 -0.059699 -0.079471 0.777832 0.117676 1 0 1.000000
  0 -0.015000 -0.294000 0.939156 -0.650190 -0.505453 -0.567249 0.836914 0.125977 1 0 1.000000
attachment_vm_reflex_west02_lens
  0 -0.036000 -0.282000 0.952156 -0.994987 -0.067570 -0.073724 0.815918 0.148926 1 0 1.000000
  0 -0.015000 -0.294000 0.939156 -0.650190 -0.505453 -0.567249 0.836914 0.125977 1 0 1.000000
  0 -0.036000 -0.313000 0.983156 -0.995376 -0.071732 -0.063883 0.851074 0.184082 1 0 1.000000
attachment_vm_reflex_west02_lens
  0 -0.036000 -0.313000 0.983156 -0.995376 -0.071732 -0.063883 0.851074 0.184082 1 0 1.000000
  0 -0.036000 0.000000 1.266156 -0.999973 0.007064 -0.001787 0.500000 0.500000 1 0 1.000000
  0 -0.036000 -0.282000 0.952156 -0.994987 -0.067570 -0.073724 0.815918 0.148926 1 0 1.000000
attachment_vm_reflex_west02_lens
  0 -0.036000 -0.341000 1.018156 -0.995537 -0.074455 -0.057981 0.882324 0.222168 1 0 1.000000
  0 -0.036000 0.000000 1.266156 -0.999973 0.007064 -0.001787 0.500000 0.500000 1 0 1.000000
  0 -0.036000 -0.313000 0.983156 -0.995376 -0.071732 -0.063883 0.851074 0.184082 1 0 1.000000
attachment_vm_reflex_west02_lens
  0 -0.036000 -0.365000 1.055156 -0.995594 -0.079732 -0.049343 0.909180 0.263672 1 0 1.000000
  0 -0.036000 0.000000 1.266156 -0.999973 0.007064 -0.001787 0.500000 0.500000 1 0 1.000000
  0 -0.036000 -0.341000 1.018156 -0.995537 -0.074455 -0.057981 0.882324 0.222168 1 0 1.000000
attachment_vm_reflex_west02_lens
  0 -0.036000 -0.365000 1.055156 -0.995594 -0.079732 -0.049343 0.909180 0.263672 1 0 1.000000
  0 -0.036000 -0.341000 1.018156 -0.995537 -0.074455 -0.057981 0.882324 0.222168 1 0 1.000000
  0 -0.015000 -0.381000 1.046156 -0.650184 -0.655103 -0.384838 0.936035 0.248535 1 0 1.000000
attachment_vm_reflex_west02_lens
  0 -0.036000 -0.385000 1.094156 -0.995327 -0.087486 -0.040859 0.931641 0.308105 1 0 1.000000
  0 -0.036000 -0.365000 1.055156 -0.995594 -0.079732 -0.049343 0.909180 0.263672 1 0 1.000000
  0 -0.015000 -0.381000 1.046156 -0.650184 -0.655103 -0.384838 0.936035 0.248535 1 0 1.000000
attachment_vm_reflex_west02_lens
  0 -0.036000 -0.385000 1.094156 -0.995327 -0.087486 -0.040859 0.931641 0.308105 1 0 1.000000
  0 -0.015000 -0.381000 1.046156 -0.650184 -0.655103 -0.384838 0.936035 0.248535 1 0 1.000000
  0 -0.015000 -0.402000 1.087156 -0.651828 -0.690790 -0.312939 0.959961 0.295410 1 0 1.000000
attachment_vm_reflex_west02_lens
  0 -0.036000 -0.401000 1.135156 -0.995408 -0.090058 -0.032426 0.949219 0.354004 1 0 1.000000
  0 -0.036000 -0.385000 1.094156 -0.995327 -0.087486 -0.040859 0.931641 0.308105 1 0 1.000000
  0 -0.015000 -0.402000 1.087156 -0.651828 -0.690790 -0.312939 0.959961 0.295410 1 0 1.000000
attachment_vm_reflex_west02_lens
  0 -0.036000 -0.401000 1.135156 -0.995408 -0.090058 -0.032426 0.949219 0.354004 1 0 1.000000
  0 -0.015000 -0.402000 1.087156 -0.651828 -0.690790 -0.312939 0.959961 0.295410 1 0 1.000000
  0 -0.015000 -0.418000 1.130156 -0.651270 -0.720116 -0.239331 0.979004 0.344238 1 0 1.000000
attachment_vm_reflex_west02_lens
  0 -0.036000 -0.412000 1.178156 -0.995441 -0.092932 -0.021456 0.961914 0.401855 1 0 1.000000
  0 -0.036000 -0.401000 1.135156 -0.995408 -0.090058 -0.032426 0.949219 0.354004 1 0 1.000000
  0 -0.015000 -0.418000 1.130156 -0.651270 -0.720116 -0.239331 0.979004 0.344238 1 0 1.000000
attachment_vm_reflex_west02_lens
  0 -0.036000 -0.412000 1.178156 -0.995441 -0.092932 -0.021456 0.961914 0.401855 1 0 1.000000
  0 -0.015000 -0.418000 1.130156 -0.651270 -0.720116 -0.239331 0.979004 0.344238 1 0 1.000000
  0 -0.015000 -0.430000 1.174156 -0.650623 -0.741489 -0.163962 0.992676 0.395508 1 0 1.000000
attachment_vm_reflex_west02_lens
  0 -0.036000 -0.412000 1.178156 -0.995441 -0.092932 -0.021456 0.961914 0.401855 1 0 1.000000
  0 -0.015000 -0.430000 1.174156 -0.650623 -0.741489 -0.163962 0.992676 0.395508 1 0 1.000000
  0 -0.015000 -0.437000 1.220156 -0.651842 -0.754104 -0.080180 1.000977 0.447266 1 0 1.000000
attachment_vm_reflex_west02_lens
  0 -0.036000 -0.419000 1.222156 -0.995590 -0.093149 -0.011160 0.969727 0.450684 1 0 1.000000
  0 -0.036000 -0.412000 1.178156 -0.995441 -0.092932 -0.021456 0.961914 0.401855 1 0 1.000000
  0 -0.015000 -0.437000 1.220156 -0.651842 -0.754104 -0.080180 1.000977 0.447266 1 0 1.000000
attachment_vm_reflex_west02_lens
  0 -0.036000 -0.422000 1.266156 -0.995649 -0.093160 0.001956 0.972168 0.500000 1 0 1.000000
  0 -0.036000 -0.419000 1.222156 -0.995590 -0.093149 -0.011160 0.969727 0.450684 1 0 1.000000
  0 -0.015000 -0.437000 1.220156 -0.651842 -0.754104 -0.080180 1.000977 0.447266 1 0 1.000000
attachment_vm_reflex_west02_lens
  0 -0.036000 -0.422000 1.266156 -0.995649 -0.093160 0.001956 0.972168 0.500000 1 0 1.000000
  0 -0.036000 0.000000 1.266156 -0.999973 0.007064 -0.001787 0.500000 0.500000 1 0 1.000000
  0 -0.036000 -0.419000 1.222156 -0.995590 -0.093149 -0.011160 0.969727 0.450684 1 0 1.000000
attachment_vm_reflex_west02_lens
  0 -0.036000 -0.419000 1.310156 -0.995326 -0.095806 0.012159 0.969727 0.549316 1 0 1.000000
  0 -0.036000 0.000000 1.266156 -0.999973 0.007064 -0.001787 0.500000 0.500000 1 0 1.000000
  0 -0.036000 -0.422000 1.266156 -0.995649 -0.093160 0.001956 0.972168 0.500000 1 0 1.000000
attachment_vm_reflex_west02_lens
  0 -0.036000 -0.341000 1.018156 -0.995537 -0.074455 -0.057981 0.882324 0.222168 1 0 1.000000
  0 -0.015000 -0.356000 1.007156 -0.650090 -0.612267 -0.450014 0.907227 0.204102 1 0 1.000000
  0 -0.015000 -0.381000 1.046156 -0.650184 -0.655103 -0.384838 0.936035 0.248535 1 0 1.000000
attachment_vm_reflex_west02_lens
  0 -0.036000 -0.341000 1.018156 -0.995537 -0.074455 -0.057981 0.882324 0.222168 1 0 1.000000
  0 -0.015000 -0.327000 0.971156 -0.651160 -0.560805 -0.511359 0.874023 0.163086 1 0 1.000000
  0 -0.015000 -0.356000 1.007156 -0.650090 -0.612267 -0.450014 0.907227 0.204102 1 0 1.000000
attachment_vm_reflex_west02_lens
  0 -0.036000 -0.341000 1.018156 -0.995537 -0.074455 -0.057981 0.882324 0.222168 1 0 1.000000
  0 -0.036000 -0.313000 0.983156 -0.995376 -0.071732 -0.063883 0.851074 0.184082 1 0 1.000000
  0 -0.015000 -0.327000 0.971156 -0.651160 -0.560805 -0.511359 0.874023 0.163086 1 0 1.000000
attachment_vm_reflex_west02_lens
  0 -0.036000 -0.313000 0.983156 -0.995376 -0.071732 -0.063883 0.851074 0.184082 1 0 1.000000
  0 -0.015000 -0.294000 0.939156 -0.650190 -0.505453 -0.567249 0.836914 0.125977 1 0 1.000000
  0 -0.015000 -0.327000 0.971156 -0.651160 -0.560805 -0.511359 0.874023 0.163086 1 0 1.000000
attachment_vm_reflex_west02_lens
  0 -0.036000 -0.419000 1.310156 -0.995326 -0.095806 0.012159 0.969727 0.549316 1 0 1.000000
  0 -0.036000 -0.422000 1.266156 -0.995649 -0.093160 0.001956 0.972168 0.500000 1 0 1.000000
  0 -0.015000 -0.437000 1.312156 -0.653916 -0.752400 0.079297 1.000977 0.552490 1 0 1.000000
attachment_vm_reflex_west02_lens
  0 -0.036000 -0.422000 1.266156 -0.995649 -0.093160 0.001956 0.972168 0.500000 1 0 1.000000
  0 -0.015000 -0.440000 1.266156 -0.650937 -0.759121 -0.004009 1.003906 0.500000 1 0 1.000000
  0 -0.015000 -0.437000 1.312156 -0.653916 -0.752400 0.079297 1.000977 0.552490 1 0 1.000000
attachment_vm_reflex_west02_lens
  0 -0.036000 -0.422000 1.266156 -0.995649 -0.093160 0.001956 0.972168 0.500000 1 0 1.000000
  0 -0.015000 -0.437000 1.220156 -0.651842 -0.754104 -0.080180 1.000977 0.447266 1 0 1.000000
  0 -0.015000 -0.440000 1.266156 -0.650937 -0.759121 -0.004009 1.003906 0.500000 1 0 1.000000
attachment_vm_reflex_west02_lens
  0 -0.036000 -0.412000 1.353156 -0.995444 -0.092792 0.021941 0.961914 0.598145 1 0 1.000000
  0 -0.036000 0.000000 1.266156 -0.999973 0.007064 -0.001787 0.500000 0.500000 1 0 1.000000
  0 -0.036000 -0.419000 1.310156 -0.995326 -0.095806 0.012159 0.969727 0.549316 1 0 1.000000
attachment_vm_reflex_west02_lens
  0 -0.036000 -0.419000 1.310156 -0.995326 -0.095806 0.012159 0.969727 0.549316 1 0 1.000000
  0 -0.015000 -0.437000 1.312156 -0.653916 -0.752400 0.079297 1.000977 0.552490 1 0 1.000000
  0 -0.036000 -0.412000 1.353156 -0.995444 -0.092792 0.021941 0.961914 0.598145 1 0 1.000000
attachment_vm_reflex_west02_lens
  0 -0.036000 -0.412000 1.353156 -0.995444 -0.092792 0.021941 0.961914 0.598145 1 0 1.000000
  0 -0.015000 -0.437000 1.312156 -0.653916 -0.752400 0.079297 1.000977 0.552490 1 0 1.000000
  0 -0.015000 -0.430000 1.357156 -0.653195 -0.740220 0.159406 0.992676 0.604736 1 0 1.000000
attachment_vm_reflex_west02_lens
  0 -0.036000 -0.412000 1.353156 -0.995444 -0.092792 0.021941 0.961914 0.598145 1 0 1.000000
  0 -0.015000 -0.430000 1.357156 -0.653195 -0.740220 0.159406 0.992676 0.604736 1 0 1.000000
  0 -0.015000 -0.418000 1.401156 -0.653289 -0.719190 0.236599 0.979004 0.655518 1 0 1.000000
attachment_vm_reflex_west02_lens
  0 -0.036000 -0.401000 1.396156 -0.995598 -0.089883 0.026579 0.949219 0.645996 1 0 1.000000
  0 -0.036000 -0.412000 1.353156 -0.995444 -0.092792 0.021941 0.961914 0.598145 1 0 1.000000
  0 -0.015000 -0.418000 1.401156 -0.653289 -0.719190 0.236599 0.979004 0.655518 1 0 1.000000
attachment_vm_reflex_west02_lens
  0 -0.036000 -0.401000 1.396156 -0.995598 -0.089883 0.026579 0.949219 0.645996 1 0 1.000000
  0 -0.015000 -0.418000 1.401156 -0.653289 -0.719190 0.236599 0.979004 0.655518 1 0 1.000000
  0 -0.015000 -0.402000 1.444156 -0.653067 -0.690804 0.310311 0.959961 0.704834 1 0 1.000000
attachment_vm_reflex_west02_lens
  0 -0.036000 -0.385000 1.437156 -0.995485 -0.087138 0.037649 0.931641 0.692139 1 0 1.000000
  0 -0.036000 -0.401000 1.396156 -0.995598 -0.089883 0.026579 0.949219 0.645996 1 0 1.000000
  0 -0.015000 -0.402000 1.444156 -0.653067 -0.690804 0.310311 0.959961 0.704834 1 0 1.000000
attachment_vm_reflex_west02_lens
  0 -0.036000 -0.385000 1.437156 -0.995485 -0.087138 0.037649 0.931641 0.692139 1 0 1.000000
  0 -0.015000 -0.402000 1.444156 -0.653067 -0.690804 0.310311 0.959961 0.704834 1 0 1.000000
  0 -0.015000 -0.381000 1.485156 -0.651656 -0.655610 0.381471 0.936035 0.751709 1 0 1.000000
attachment_vm_reflex_west02_lens
  0 -0.036000 -0.365000 1.476156 -0.995437 -0.081912 0.048937 0.909180 0.736084 1 0 1.000000
  0 -0.036000 -0.385000 1.437156 -0.995485 -0.087138 0.037649 0.931641 0.692139 1 0 1.000000
  0 -0.015000 -0.381000 1.485156 -0.651656 -0.655610 0.381471 0.936035 0.751709 1 0 1.000000
attachment_vm_reflex_west02_lens
  0 -0.036000 -0.365000 1.476156 -0.995437 -0.081912 0.048937 0.909180 0.736084 1 0 1.000000
  0 -0.015000 -0.381000 1.485156 -0.651656 -0.655610 0.381471 0.936035 0.751709 1 0 1.000000
  0 -0.036000 -0.341000 1.513156 -0.995187 -0.079333 0.057528 0.882324 0.777588 1 0 1.000000
attachment_vm_reflex_west02_lens
  0 -0.036000 -0.341000 1.513156 -0.995187 -0.079333 0.057528 0.882324 0.777588 1 0 1.000000
  0 -0.036000 0.000000 1.266156 -0.999973 0.007064 -0.001787 0.500000 0.500000 1 0 1.000000
  0 -0.036000 -0.365000 1.476156 -0.995437 -0.081912 0.048937 0.909180 0.736084 1 0 1.000000
attachment_vm_reflex_west02_lens
  0 -0.036000 -0.313000 1.548156 -0.995439 -0.071323 0.063359 0.851074 0.816040 1 0 1.000000
  0 -0.036000 0.000000 1.266156 -0.999973 0.007064 -0.001787 0.500000 0.500000 1 0 1.000000
  0 -0.036000 -0.341000 1.513156 -0.995187 -0.079333 0.057528 0.882324 0.777588 1 0 1.000000
attachment_vm_reflex_west02_lens
  0 -0.036000 -0.282000 1.579156 -0.994839 -0.070577 0.072901 0.815918 0.850952 1 0 1.000000
  0 -0.036000 0.000000 1.266156 -0.999973 0.007064 -0.001787 0.500000 0.500000 1 0 1.000000
  0 -0.036000 -0.313000 1.548156 -0.995439 -0.071323 0.063359 0.851074 0.816040 1 0 1.000000
attachment_vm_reflex_west02_lens
  0 -0.036000 -0.282000 1.579156 -0.994839 -0.070577 0.072901 0.815918 0.850952 1 0 1.000000
  0 -0.036000 -0.313000 1.548156 -0.995439 -0.071323 0.063359 0.851074 0.816040 1 0 1.000000
  0 -0.015000 -0.294000 1.592156 -0.650919 -0.506498 0.565477 0.836914 0.874023 1 0 1.000000
attachment_vm_reflex_west02_lens
  0 -0.036000 -0.248000 1.607156 -0.995083 -0.060156 0.078679 0.777832 0.882080 1 0 1.000000
  0 -0.036000 -0.282000 1.579156 -0.994839 -0.070577 0.072901 0.815918 0.850952 1 0 1.000000
  0 -0.015000 -0.294000 1.592156 -0.650919 -0.506498 0.565477 0.836914 0.874023 1 0 1.000000
attachment_vm_reflex_west02_lens
  0 -0.036000 -0.248000 1.607156 -0.995083 -0.060156 0.078679 0.777832 0.882080 1 0 1.000000
  0 -0.015000 -0.294000 1.592156 -0.650919 -0.506498 0.565477 0.836914 0.874023 1 0 1.000000
  0 -0.015000 -0.258000 1.621156 -0.651987 -0.444366 0.614371 0.795898 0.907166 1 0 1.000000
attachment_vm_reflex_west02_lens
  0 -0.036000 -0.248000 1.607156 -0.995083 -0.060156 0.078679 0.777832 0.882080 1 0 1.000000
  0 -0.015000 -0.258000 1.621156 -0.651987 -0.444366 0.614371 0.795898 0.907166 1 0 1.000000
  0 -0.015000 -0.220000 1.646156 -0.650316 -0.378576 0.658611 0.751953 0.935913 1 0 1.000000
attachment_vm_reflex_west02_lens
  0 -0.036000 -0.211000 1.631156 -0.995127 -0.053657 0.082726 0.736328 0.908997 1 0 1.000000
  0 -0.036000 -0.248000 1.607156 -0.995083 -0.060156 0.078679 0.777832 0.882080 1 0 1.000000
  0 -0.015000 -0.220000 1.646156 -0.650316 -0.378576 0.658611 0.751953 0.935913 1 0 1.000000
attachment_vm_reflex_west02_lens
  0 -0.036000 -0.365000 1.476156 -0.995437 -0.081912 0.048937 0.909180 0.736084 1 0 1.000000
  0 -0.036000 0.000000 1.266156 -0.999973 0.007064 -0.001787 0.500000 0.500000 1 0 1.000000
  0 -0.036000 -0.385000 1.437156 -0.995485 -0.087138 0.037649 0.931641 0.692139 1 0 1.000000
attachment_vm_reflex_west02_lens
  0 -0.036000 -0.385000 1.437156 -0.995485 -0.087138 0.037649 0.931641 0.692139 1 0 1.000000
  0 -0.036000 0.000000 1.266156 -0.999973 0.007064 -0.001787 0.500000 0.500000 1 0 1.000000
  0 -0.036000 -0.401000 1.396156 -0.995598 -0.089883 0.026579 0.949219 0.645996 1 0 1.000000
attachment_vm_reflex_west02_lens
  0 -0.036000 -0.401000 1.396156 -0.995598 -0.089883 0.026579 0.949219 0.645996 1 0 1.000000
  0 -0.036000 0.000000 1.266156 -0.999973 0.007064 -0.001787 0.500000 0.500000 1 0 1.000000
  0 -0.036000 -0.412000 1.353156 -0.995444 -0.092792 0.021941 0.961914 0.598145 1 0 1.000000
attachment_vm_reflex_west02_lens
  0 -0.036000 -0.130000 1.667156 -0.995019 -0.035099 0.093300 0.645996 0.949188 1 0 1.000000
  0 -0.036000 0.000000 1.266156 -0.999973 0.007064 -0.001787 0.500000 0.500000 1 0 1.000000
  0 -0.036000 -0.171000 1.651156 -0.995000 -0.044560 0.089385 0.691895 0.931458 1 0 1.000000
attachment_vm_reflex_west02_lens
  0 -0.036000 -0.171000 1.651156 -0.995000 -0.044560 0.089385 0.691895 0.931458 1 0 1.000000
  0 -0.036000 0.000000 1.266156 -0.999973 0.007064 -0.001787 0.500000 0.500000 1 0 1.000000
  0 -0.036000 -0.211000 1.631156 -0.995127 -0.053657 0.082726 0.736328 0.908997 1 0 1.000000
attachment_vm_reflex_west02_lens
  0 -0.036000 -0.211000 1.631156 -0.995127 -0.053657 0.082726 0.736328 0.908997 1 0 1.000000
  0 -0.036000 0.000000 1.266156 -0.999973 0.007064 -0.001787 0.500000 0.500000 1 0 1.000000
  0 -0.036000 -0.248000 1.607156 -0.995083 -0.060156 0.078679 0.777832 0.882080 1 0 1.000000
attachment_vm_reflex_west02_lens
  0 -0.036000 -0.248000 1.607156 -0.995083 -0.060156 0.078679 0.777832 0.882080 1 0 1.000000
  0 -0.036000 0.000000 1.266156 -0.999973 0.007064 -0.001787 0.500000 0.500000 1 0 1.000000
  0 -0.036000 -0.282000 1.579156 -0.994839 -0.070577 0.072901 0.815918 0.850952 1 0 1.000000
attachment_vm_reflex_west02_lens
  0 -0.036000 -0.313000 1.548156 -0.995439 -0.071323 0.063359 0.851074 0.816040 1 0 1.000000
  0 -0.015000 -0.327000 1.560156 -0.653300 -0.560152 0.509342 0.874023 0.836792 1 0 1.000000
  0 -0.015000 -0.294000 1.592156 -0.650919 -0.506498 0.565477 0.836914 0.874023 1 0 1.000000
attachment_vm_reflex_west02_lens
  0 -0.036000 -0.313000 1.548156 -0.995439 -0.071323 0.063359 0.851074 0.816040 1 0 1.000000
  0 -0.036000 -0.341000 1.513156 -0.995187 -0.079333 0.057528 0.882324 0.777588 1 0 1.000000
  0 -0.015000 -0.327000 1.560156 -0.653300 -0.560152 0.509342 0.874023 0.836792 1 0 1.000000
attachment_vm_reflex_west02_lens
  0 -0.036000 -0.341000 1.513156 -0.995187 -0.079333 0.057528 0.882324 0.777588 1 0 1.000000
  0 -0.015000 -0.356000 1.524156 -0.650832 -0.612496 0.448628 0.907227 0.795898 1 0 1.000000
  0 -0.015000 -0.327000 1.560156 -0.653300 -0.560152 0.509342 0.874023 0.836792 1 0 1.000000
attachment_vm_reflex_west02_lens
  0 -0.036000 -0.341000 1.513156 -0.995187 -0.079333 0.057528 0.882324 0.777588 1 0 1.000000
  0 -0.015000 -0.381000 1.485156 -0.651656 -0.655610 0.381471 0.936035 0.751709 1 0 1.000000
  0 -0.015000 -0.356000 1.524156 -0.650832 -0.612496 0.448628 0.907227 0.795898 1 0 1.000000
attachment_vm_reflex_west02_lens
  0 -0.036000 -0.211000 1.631156 -0.995127 -0.053657 0.082726 0.736328 0.908997 1 0 1.000000
  0 -0.015000 -0.220000 1.646156 -0.650316 -0.378576 0.658611 0.751953 0.935913 1 0 1.000000
  0 -0.015000 -0.179000 1.667156 -0.650935 -0.307219 0.694190 0.704590 0.959808 1 0 1.000000
attachment_vm_reflex_west02_lens
  0 -0.036000 -0.171000 1.651156 -0.995000 -0.044560 0.089385 0.691895 0.931458 1 0 1.000000
  0 -0.036000 -0.211000 1.631156 -0.995127 -0.053657 0.082726 0.736328 0.908997 1 0 1.000000
  0 -0.015000 -0.179000 1.667156 -0.650935 -0.307219 0.694190 0.704590 0.959808 1 0 1.000000
attachment_vm_reflex_west02_lens
  0 -0.036000 -0.171000 1.651156 -0.995000 -0.044560 0.089385 0.691895 0.931458 1 0 1.000000
  0 -0.015000 -0.179000 1.667156 -0.650935 -0.307219 0.694190 0.704590 0.959808 1 0 1.000000
  0 -0.015000 -0.136000 1.684156 -0.650263 -0.233391 0.722971 0.655762 0.978683 1 0 1.000000
attachment_vm_reflex_west02_lens
  0 -0.036000 -0.130000 1.667156 -0.995019 -0.035099 0.093300 0.645996 0.949188 1 0 1.000000
  0 -0.036000 -0.171000 1.651156 -0.995000 -0.044560 0.089385 0.691895 0.931458 1 0 1.000000
  0 -0.015000 -0.136000 1.684156 -0.650263 -0.233391 0.722971 0.655762 0.978683 1 0 1.000000
attachment_vm_reflex_west02_lens
  0 -0.036000 -0.130000 1.667156 -0.995019 -0.035099 0.093300 0.645996 0.949188 1 0 1.000000
  0 -0.015000 -0.136000 1.684156 -0.650263 -0.233391 0.722971 0.655762 0.978683 1 0 1.000000
  0 -0.036000 -0.088000 1.678156 -0.995266 -0.022455 0.094561 0.598145 0.961975 1 0 1.000000
attachment_vm_reflex_west02_lens
  0 -0.036000 -0.088000 1.678156 -0.995266 -0.022455 0.094561 0.598145 0.961975 1 0 1.000000
  0 -0.036000 0.000000 1.266156 -0.999973 0.007064 -0.001787 0.500000 0.500000 1 0 1.000000
  0 -0.036000 -0.130000 1.667156 -0.995019 -0.035099 0.093300 0.645996 0.949188 1 0 1.000000
attachment_vm_reflex_west02_lens
  0 -0.036000 -0.044000 1.685156 -0.995122 -0.013229 0.097758 0.549316 0.969711 1 0 1.000000
  0 -0.036000 0.000000 1.266156 -0.999973 0.007064 -0.001787 0.500000 0.500000 1 0 1.000000
  0 -0.036000 -0.088000 1.678156 -0.995266 -0.022455 0.094561 0.598145 0.961975 1 0 1.000000
attachment_vm_reflex_west02_lens
  0 -0.036000 0.000000 1.687156 -0.995178 -0.003905 0.098004 0.500000 0.972305 1 0 1.000000
  0 -0.036000 0.000000 1.266156 -0.999973 0.007064 -0.001787 0.500000 0.500000 1 0 1.000000
  0 -0.036000 -0.044000 1.685156 -0.995122 -0.013229 0.097758 0.549316 0.969711 1 0 1.000000
attachment_vm_reflex_west02_lens
  0 -0.036000 0.000000 1.687156 -0.995178 -0.003905 0.098004 0.500000 0.972305 1 0 1.000000
  0 -0.036000 -0.044000 1.685156 -0.995122 -0.013229 0.097758 0.549316 0.969711 1 0 1.000000
  0 -0.015000 0.000000 1.705156 -0.649309 -0.002262 0.760522 0.500000 1.003321 1 0 1.000000
attachment_vm_reflex_west02_lens
  0 -0.036000 0.000000 1.687156 -0.995178 -0.003905 0.098004 0.500000 0.972305 1 0 1.000000
  0 -0.015000 0.000000 1.705156 -0.649309 -0.002262 0.760522 0.500000 1.003321 1 0 1.000000
  0 -0.036000 0.044000 1.685156 -0.995159 0.007660 0.097974 0.450684 0.969711 1 0 1.000000
attachment_vm_reflex_west02_lens
  0 -0.036000 0.044000 1.685156 -0.995159 0.007660 0.097974 0.450684 0.969711 1 0 1.000000
  0 -0.015000 0.000000 1.705156 -0.649309 -0.002262 0.760522 0.500000 1.003321 1 0 1.000000
  0 -0.015000 0.046000 1.703156 -0.651670 0.074949 0.754790 0.447266 1.000560 1 0 1.000000
attachment_vm_reflex_west02_lens
  0 -0.036000 0.044000 1.685156 -0.995159 0.007660 0.097974 0.450684 0.969711 1 0 1.000000
  0 -0.015000 0.046000 1.703156 -0.651670 0.074949 0.754790 0.447266 1.000560 1 0 1.000000
  0 -0.015000 0.091000 1.696156 -0.651017 0.155530 0.742959 0.395264 0.992321 1 0 1.000000
attachment_vm_reflex_west02_lens
  0 -0.036000 0.088000 1.678156 -0.994998 0.022082 0.097424 0.401855 0.961975 1 0 1.000000
  0 -0.036000 0.044000 1.685156 -0.995159 0.007660 0.097974 0.450684 0.969711 1 0 1.000000
  0 -0.015000 0.091000 1.696156 -0.651017 0.155530 0.742959 0.395264 0.992321 1 0 1.000000
attachment_vm_reflex_west02_lens
  0 -0.036000 0.088000 1.678156 -0.994998 0.022082 0.097424 0.401855 0.961975 1 0 1.000000
  0 -0.015000 0.091000 1.696156 -0.651017 0.155530 0.742959 0.395264 0.992321 1 0 1.000000
  0 -0.015000 0.136000 1.684156 -0.651694 0.230732 0.722536 0.344482 0.978683 1 0 1.000000
attachment_vm_reflex_west02_lens
  0 -0.036000 0.130000 1.667156 -0.995002 0.034338 0.093765 0.354004 0.949188 1 0 1.000000
  0 -0.036000 0.088000 1.678156 -0.994998 0.022082 0.097424 0.401855 0.961975 1 0 1.000000
  0 -0.015000 0.136000 1.684156 -0.651694 0.230732 0.722536 0.344482 0.978683 1 0 1.000000
attachment_vm_reflex_west02_lens
  0 -0.036000 0.171000 1.651156 -0.995103 0.041524 0.089693 0.307861 0.931458 1 0 1.000000
  0 -0.036000 0.130000 1.667156 -0.995002 0.034338 0.093765 0.354004 0.949188 1 0 1.000000
  0 -0.015000 0.136000 1.684156 -0.651694 0.230732 0.722536 0.344482 0.978683 1 0 1.000000
attachment_vm_reflex_west02_lens
  0 -0.036000 0.171000 1.651156 -0.995103 0.041524 0.089693 0.307861 0.931458 1 0 1.000000
  0 -0.036000 0.000000 1.266156 -0.999973 0.007064 -0.001787 0.500000 0.500000 1 0 1.000000
  0 -0.036000 0.130000 1.667156 -0.995002 0.034338 0.093765 0.354004 0.949188 1 0 1.000000
attachment_vm_reflex_west02_lens
  0 -0.036000 0.211000 1.631156 -0.994977 0.055802 0.083102 0.263916 0.908997 1 0 1.000000
  0 -0.036000 0.000000 1.266156 -0.999973 0.007064 -0.001787 0.500000 0.500000 1 0 1.000000
  0 -0.036000 0.171000 1.651156 -0.995103 0.041524 0.089693 0.307861 0.931458 1 0 1.000000
attachment_vm_reflex_west02_lens
  0 -0.036000 0.044000 1.685156 -0.995159 0.007660 0.097974 0.450684 0.969711 1 0 1.000000
  0 -0.036000 0.000000 1.266156 -0.999973 0.007064 -0.001787 0.500000 0.500000 1 0 1.000000
  0 -0.036000 0.000000 1.687156 -0.995178 -0.003905 0.098004 0.500000 0.972305 1 0 1.000000
attachment_vm_reflex_west02_lens
  0 -0.036000 0.088000 1.678156 -0.994998 0.022082 0.097424 0.401855 0.961975 1 0 1.000000
  0 -0.036000 0.000000 1.266156 -0.999973 0.007064 -0.001787 0.500000 0.500000 1 0 1.000000
  0 -0.036000 0.044000 1.685156 -0.995159 0.007660 0.097974 0.450684 0.969711 1 0 1.000000
attachment_vm_reflex_west02_lens
  0 -0.036000 0.130000 1.667156 -0.995002 0.034338 0.093765 0.354004 0.949188 1 0 1.000000
  0 -0.036000 0.000000 1.266156 -0.999973 0.007064 -0.001787 0.500000 0.500000 1 0 1.000000
  0 -0.036000 0.088000 1.678156 -0.994998 0.022082 0.097424 0.401855 0.961975 1 0 1.000000
attachment_vm_reflex_west02_lens
  0 -0.036000 -0.044000 1.685156 -0.995122 -0.013229 0.097758 0.549316 0.969711 1 0 1.000000
  0 -0.015000 -0.046000 1.703156 -0.650150 -0.075325 0.756063 0.552734 1.000560 1 0 1.000000
  0 -0.015000 0.000000 1.705156 -0.649309 -0.002262 0.760522 0.500000 1.003321 1 0 1.000000
attachment_vm_reflex_west02_lens
  0 -0.036000 -0.044000 1.685156 -0.995122 -0.013229 0.097758 0.549316 0.969711 1 0 1.000000
  0 -0.015000 -0.091000 1.696156 -0.650869 -0.153365 0.743538 0.604492 0.992321 1 0 1.000000
  0 -0.015000 -0.046000 1.703156 -0.650150 -0.075325 0.756063 0.552734 1.000560 1 0 1.000000
attachment_vm_reflex_west02_lens
  0 -0.036000 -0.044000 1.685156 -0.995122 -0.013229 0.097758 0.549316 0.969711 1 0 1.000000
  0 -0.036000 -0.088000 1.678156 -0.995266 -0.022455 0.094561 0.598145 0.961975 1 0 1.000000
  0 -0.015000 -0.091000 1.696156 -0.650869 -0.153365 0.743538 0.604492 0.992321 1 0 1.000000
attachment_vm_reflex_west02_lens
  0 -0.036000 -0.088000 1.678156 -0.995266 -0.022455 0.094561 0.598145 0.961975 1 0 1.000000
  0 -0.015000 -0.136000 1.684156 -0.650263 -0.233391 0.722971 0.655762 0.978683 1 0 1.000000
  0 -0.015000 -0.091000 1.696156 -0.650869 -0.153365 0.743538 0.604492 0.992321 1 0 1.000000
attachment_vm_reflex_west02_lens
  0 -0.036000 0.211000 1.631156 -0.994977 0.055802 0.083102 0.263916 0.908997 1 0 1.000000
  0 -0.015000 0.179000 1.667156 -0.652928 0.305282 0.693172 0.295166 0.959808 1 0 1.000000
  0 -0.015000 0.220000 1.646156 -0.650669 0.379231 0.657886 0.248291 0.935852 1 0 1.000000
attachment_vm_reflex_west02_lens
  0 -0.036000 0.211000 1.631156 -0.994977 0.055802 0.083102 0.263916 0.908997 1 0 1.000000
  0 -0.036000 0.171000 1.651156 -0.995103 0.041524 0.089693 0.307861 0.931458 1 0 1.000000
  0 -0.015000 0.179000 1.667156 -0.652928 0.305282 0.693172 0.295166 0.959808 1 0 1.000000
attachment_vm_reflex_west02_lens
  0 -0.036000 0.171000 1.651156 -0.995103 0.041524 0.089693 0.307861 0.931458 1 0 1.000000
  0 -0.015000 0.136000 1.684156 -0.651694 0.230732 0.722536 0.344482 0.978683 1 0 1.000000
  0 -0.015000 0.179000 1.667156 -0.652928 0.305282 0.693172 0.295166 0.959808 1 0 1.000000
attachment_vm_reflex_west02_lens
  0 -0.036000 0.000000 0.844156 -0.994870 0.004511 -0.101063 0.500000 0.027832 1 0 1.000000
  0 -0.036000 0.000000 1.266156 -0.999973 0.007064 -0.001787 0.500000 0.500000 1 0 1.000000
  0 -0.036000 0.044000 0.846156 -0.994817 0.014270 -0.100673 0.450684 0.030273 1 0 1.000000
attachment_vm_reflex_west02_lens
  0 -0.036000 0.044000 0.846156 -0.994817 0.014270 -0.100673 0.450684 0.030273 1 0 1.000000
  0 -0.036000 0.000000 1.266156 -0.999973 0.007064 -0.001787 0.500000 0.500000 1 0 1.000000
  0 -0.036000 0.088000 0.853156 -0.994969 0.023587 -0.097366 0.401855 0.038086 1 0 1.000000
attachment_vm_reflex_west02_lens
  0 -0.036000 0.401000 1.135156 -0.995689 0.087820 -0.029836 0.050812 0.354004 1 0 1.000000
  0 -0.036000 0.000000 1.266156 -0.999973 0.007064 -0.001787 0.500000 0.500000 1 0 1.000000
  0 -0.036000 0.412000 1.178156 -0.995459 0.093192 -0.019394 0.038025 0.401855 1 0 1.000000
attachment_vm_reflex_west02_lens
  0 -0.036000 0.385000 1.094156 -0.995306 0.087719 -0.040873 0.068542 0.308105 1 0 1.000000
  0 -0.036000 0.000000 1.266156 -0.999973 0.007064 -0.001787 0.500000 0.500000 1 0 1.000000
  0 -0.036000 0.401000 1.135156 -0.995689 0.087820 -0.029836 0.050812 0.354004 1 0 1.000000
attachment_vm_reflex_west02_lens
  0 -0.036000 0.365000 1.055156 -0.995293 0.085019 -0.046519 0.091003 0.263672 1 0 1.000000
  0 -0.036000 0.000000 1.266156 -0.999973 0.007064 -0.001787 0.500000 0.500000 1 0 1.000000
  0 -0.036000 0.385000 1.094156 -0.995306 0.087719 -0.040873 0.068542 0.308105 1 0 1.000000
attachment_vm_reflex_west02_lens
  0 -0.036000 0.422000 1.266156 -0.995646 0.093166 0.002955 0.027695 0.500000 1 0 1.000000
  0 -0.036000 0.419000 1.310156 -0.995347 0.095746 0.010761 0.030289 0.549316 1 0 1.000000
  0 -0.015000 0.437000 1.312156 -0.654577 0.751899 0.078593 -0.000720 0.552490 1 0 1.000000
attachment_vm_reflex_west02_lens
  0 -0.036000 0.422000 1.266156 -0.995646 0.093166 0.002955 0.027695 0.500000 1 0 1.000000
  0 -0.036000 0.000000 1.266156 -0.999973 0.007064 -0.001787 0.500000 0.500000 1 0 1.000000
  0 -0.036000 0.419000 1.310156 -0.995347 0.095746 0.010761 0.030289 0.549316 1 0 1.000000
attachment_vm_reflex_west02_lens
  0 -0.036000 0.419000 1.222156 -0.995623 0.093184 -0.007119 0.030289 0.450684 1 0 1.000000
  0 -0.036000 0.000000 1.266156 -0.999973 0.007064 -0.001787 0.500000 0.500000 1 0 1.000000
  0 -0.036000 0.422000 1.266156 -0.995646 0.093166 0.002955 0.027695 0.500000 1 0 1.000000
attachment_vm_reflex_west02_lens
  0 -0.036000 0.412000 1.178156 -0.995459 0.093192 -0.019394 0.038025 0.401855 1 0 1.000000
  0 -0.036000 0.000000 1.266156 -0.999973 0.007064 -0.001787 0.500000 0.500000 1 0 1.000000
  0 -0.036000 0.419000 1.222156 -0.995623 0.093184 -0.007119 0.030289 0.450684 1 0 1.000000
attachment_vm_reflex_west02_lens
  0 -0.036000 0.419000 1.222156 -0.995623 0.093184 -0.007119 0.030289 0.450684 1 0 1.000000
  0 -0.015000 0.437000 1.220156 -0.652331 0.753727 -0.079747 -0.000720 0.447266 1 0 1.000000
  0 -0.036000 0.412000 1.178156 -0.995459 0.093192 -0.019394 0.038025 0.401855 1 0 1.000000
attachment_vm_reflex_west02_lens
  0 -0.036000 0.412000 1.178156 -0.995459 0.093192 -0.019394 0.038025 0.401855 1 0 1.000000
  0 -0.015000 0.437000 1.220156 -0.652331 0.753727 -0.079747 -0.000720 0.447266 1 0 1.000000
  0 -0.015000 0.430000 1.174156 -0.653288 0.740291 -0.158692 0.007519 0.395508 1 0 1.000000
attachment_vm_reflex_west02_lens
  0 -0.036000 0.412000 1.178156 -0.995459 0.093192 -0.019394 0.038025 0.401855 1 0 1.000000
  0 -0.015000 0.430000 1.174156 -0.653288 0.740291 -0.158692 0.007519 0.395508 1 0 1.000000
  0 -0.015000 0.418000 1.130156 -0.651626 0.720551 -0.237045 0.021164 0.344238 1 0 1.000000
attachment_vm_reflex_west02_lens
  0 -0.036000 0.401000 1.135156 -0.995689 0.087820 -0.029836 0.050812 0.354004 1 0 1.000000
  0 -0.036000 0.412000 1.178156 -0.995459 0.093192 -0.019394 0.038025 0.401855 1 0 1.000000
  0 -0.015000 0.418000 1.130156 -0.651626 0.720551 -0.237045 0.021164 0.344238 1 0 1.000000
attachment_vm_reflex_west02_lens
  0 -0.036000 0.401000 1.135156 -0.995689 0.087820 -0.029836 0.050812 0.354004 1 0 1.000000
  0 -0.015000 0.418000 1.130156 -0.651626 0.720551 -0.237045 0.021164 0.344238 1 0 1.000000
  0 -0.015000 0.402000 1.087156 -0.653186 0.690929 -0.309782 0.040039 0.295410 1 0 1.000000
attachment_vm_reflex_west02_lens
  0 -0.036000 0.385000 1.094156 -0.995306 0.087719 -0.040873 0.068542 0.308105 1 0 1.000000
  0 -0.036000 0.401000 1.135156 -0.995689 0.087820 -0.029836 0.050812 0.354004 1 0 1.000000
  0 -0.015000 0.402000 1.087156 -0.653186 0.690929 -0.309782 0.040039 0.295410 1 0 1.000000
attachment_vm_reflex_west02_lens
  0 -0.036000 0.385000 1.094156 -0.995306 0.087719 -0.040873 0.068542 0.308105 1 0 1.000000
  0 -0.015000 0.402000 1.087156 -0.653186 0.690929 -0.309782 0.040039 0.295410 1 0 1.000000
  0 -0.015000 0.381000 1.046156 -0.651303 0.655801 -0.381746 0.063965 0.248535 1 0 1.000000
attachment_vm_reflex_west02_lens
  0 -0.036000 0.365000 1.055156 -0.995293 0.085019 -0.046519 0.091003 0.263672 1 0 1.000000
  0 -0.036000 0.385000 1.094156 -0.995306 0.087719 -0.040873 0.068542 0.308105 1 0 1.000000
  0 -0.015000 0.381000 1.046156 -0.651303 0.655801 -0.381746 0.063965 0.248535 1 0 1.000000
attachment_vm_reflex_west02_lens
  0 -0.036000 0.341000 1.018156 -0.995533 0.074570 -0.057914 0.117920 0.222168 1 0 1.000000
  0 -0.036000 0.365000 1.055156 -0.995293 0.085019 -0.046519 0.091003 0.263672 1 0 1.000000
  0 -0.015000 0.381000 1.046156 -0.651303 0.655801 -0.381746 0.063965 0.248535 1 0 1.000000
attachment_vm_reflex_west02_lens
  0 -0.036000 0.341000 1.018156 -0.995533 0.074570 -0.057914 0.117920 0.222168 1 0 1.000000
  0 -0.036000 0.000000 1.266156 -0.999973 0.007064 -0.001787 0.500000 0.500000 1 0 1.000000
  0 -0.036000 0.365000 1.055156 -0.995293 0.085019 -0.046519 0.091003 0.263672 1 0 1.000000
attachment_vm_reflex_west02_lens
  0 -0.036000 0.313000 0.983156 -0.995376 0.071009 -0.064680 0.149048 0.184082 1 0 1.000000
  0 -0.036000 0.000000 1.266156 -0.999973 0.007064 -0.001787 0.500000 0.500000 1 0 1.000000
  0 -0.036000 0.341000 1.018156 -0.995533 0.074570 -0.057914 0.117920 0.222168 1 0 1.000000
attachment_vm_reflex_west02_lens
  0 -0.036000 0.282000 0.952156 -0.994978 0.070199 -0.071348 0.183960 0.148926 1 0 1.000000
  0 -0.036000 0.000000 1.266156 -0.999973 0.007064 -0.001787 0.500000 0.500000 1 0 1.000000
  0 -0.036000 0.313000 0.983156 -0.995376 0.071009 -0.064680 0.149048 0.184082 1 0 1.000000
attachment_vm_reflex_west02_lens
  0 -0.036000 0.282000 0.952156 -0.994978 0.070199 -0.071348 0.183960 0.148926 1 0 1.000000
  0 -0.036000 0.313000 0.983156 -0.995376 0.071009 -0.064680 0.149048 0.184082 1 0 1.000000
  0 -0.015000 0.294000 0.939156 -0.650433 0.506004 -0.566478 0.163086 0.125977 1 0 1.000000
attachment_vm_reflex_west02_lens
  0 -0.036000 0.282000 0.952156 -0.994978 0.070199 -0.071348 0.183960 0.148926 1 0 1.000000
  0 -0.015000 0.294000 0.939156 -0.650433 0.506004 -0.566478 0.163086 0.125977 1 0 1.000000
  0 -0.036000 0.248000 0.925156 -0.995010 0.059718 -0.079931 0.222412 0.117676 1 0 1.000000
attachment_vm_reflex_west02_lens
  0 -0.036000 0.419000 1.222156 -0.995623 0.093184 -0.007119 0.030289 0.450684 1 0 1.000000
  0 -0.036000 0.422000 1.266156 -0.995646 0.093166 0.002955 0.027695 0.500000 1 0 1.000000
  0 -0.015000 0.437000 1.220156 -0.652331 0.753727 -0.079747 -0.000720 0.447266 1 0 1.000000
attachment_vm_reflex_west02_lens
  0 -0.036000 0.422000 1.266156 -0.995646 0.093166 0.002955 0.027695 0.500000 1 0 1.000000
  0 -0.015000 0.440000 1.266156 -0.651409 0.758727 0.000178 -0.003481 0.500000 1 0 1.000000
  0 -0.015000 0.437000 1.220156 -0.652331 0.753727 -0.079747 -0.000720 0.447266 1 0 1.000000
attachment_vm_reflex_west02_lens
  0 -0.036000 0.422000 1.266156 -0.995646 0.093166 0.002955 0.027695 0.500000 1 0 1.000000
  0 -0.015000 0.437000 1.312156 -0.654577 0.751899 0.078593 -0.000720 0.552490 1 0 1.000000
  0 -0.015000 0.440000 1.266156 -0.651409 0.758727 0.000178 -0.003481 0.500000 1 0 1.000000
attachment_vm_reflex_west02_lens
  0 -0.036000 0.313000 0.983156 -0.995376 0.071009 -0.064680 0.149048 0.184082 1 0 1.000000
  0 -0.015000 0.327000 0.971156 -0.652669 0.561393 -0.508784 0.125854 0.163086 1 0 1.000000
  0 -0.015000 0.294000 0.939156 -0.650433 0.506004 -0.566478 0.163086 0.125977 1 0 1.000000
attachment_vm_reflex_west02_lens
  0 -0.036000 0.313000 0.983156 -0.995376 0.071009 -0.064680 0.149048 0.184082 1 0 1.000000
  0 -0.036000 0.341000 1.018156 -0.995533 0.074570 -0.057914 0.117920 0.222168 1 0 1.000000
  0 -0.015000 0.327000 0.971156 -0.652669 0.561393 -0.508784 0.125854 0.163086 1 0 1.000000
attachment_vm_reflex_west02_lens
  0 -0.015000 0.327000 0.971156 -0.652669 0.561393 -0.508784 0.125854 0.163086 1 0 1.000000
  0 -0.036000 0.341000 1.018156 -0.995533 0.074570 -0.057914 0.117920 0.222168 1 0 1.000000
  0 -0.015000 0.356000 1.007156 -0.652255 0.611368 -0.448098 0.092651 0.204102 1 0 1.000000
attachment_vm_reflex_west02_lens
  0 -0.036000 0.341000 1.018156 -0.995533 0.074570 -0.057914 0.117920 0.222168 1 0 1.000000
  0 -0.015000 0.381000 1.046156 -0.651303 0.655801 -0.381746 0.063965 0.248535 1 0 1.000000
  0 -0.015000 0.356000 1.007156 -0.652255 0.611368 -0.448098 0.092651 0.204102 1 0 1.000000
attachment_vm_reflex_west02_lens
  0 -0.036000 0.248000 0.925156 -0.995010 0.059718 -0.079931 0.222412 0.117676 1 0 1.000000
  0 -0.015000 0.294000 0.939156 -0.650433 0.506004 -0.566478 0.163086 0.125977 1 0 1.000000
  0 -0.015000 0.258000 0.910156 -0.651334 0.442957 -0.616079 0.204102 0.092773 1 0 1.000000
attachment_vm_reflex_west02_lens
  0 -0.036000 0.211000 0.900156 -0.994974 0.052017 -0.085566 0.263916 0.090820 1 0 1.000000
  0 -0.036000 0.248000 0.925156 -0.995010 0.059718 -0.079931 0.222412 0.117676 1 0 1.000000
  0 -0.015000 0.258000 0.910156 -0.651334 0.442957 -0.616079 0.204102 0.092773 1 0 1.000000
attachment_vm_reflex_west02_lens
  0 -0.036000 0.211000 0.900156 -0.994974 0.052017 -0.085566 0.263916 0.090820 1 0 1.000000
  0 -0.015000 0.258000 0.910156 -0.651334 0.442957 -0.616079 0.204102 0.092773 1 0 1.000000
  0 -0.015000 0.220000 0.885156 -0.651625 0.377345 -0.658024 0.248291 0.063965 1 0 1.000000
attachment_vm_reflex_west02_lens
  0 -0.036000 0.211000 0.900156 -0.994974 0.052017 -0.085566 0.263916 0.090820 1 0 1.000000
  0 -0.015000 0.220000 0.885156 -0.651625 0.377345 -0.658024 0.248291 0.063965 1 0 1.000000
  0 -0.015000 0.179000 0.864156 -0.651033 0.306290 -0.694509 0.295166 0.040039 1 0 1.000000
attachment_vm_reflex_west02_lens
  0 -0.036000 0.171000 0.880156 -0.994693 0.040701 -0.094495 0.307861 0.068359 1 0 1.000000
  0 -0.036000 0.211000 0.900156 -0.994974 0.052017 -0.085566 0.263916 0.090820 1 0 1.000000
  0 -0.015000 0.179000 0.864156 -0.651033 0.306290 -0.694509 0.295166 0.040039 1 0 1.000000
attachment_vm_reflex_west02_lens
  0 -0.036000 0.171000 0.880156 -0.994693 0.040701 -0.094495 0.307861 0.068359 1 0 1.000000
  0 -0.015000 0.179000 0.864156 -0.651033 0.306290 -0.694509 0.295166 0.040039 1 0 1.000000
  0 -0.015000 0.136000 0.847156 -0.652924 0.231602 -0.721146 0.344482 0.021484 1 0 1.000000
attachment_vm_reflex_west02_lens
  0 -0.036000 0.130000 0.865156 -0.994698 0.035527 -0.096502 0.354004 0.050781 1 0 1.000000
  0 -0.036000 0.171000 0.880156 -0.994693 0.040701 -0.094495 0.307861 0.068359 1 0 1.000000
  0 -0.015000 0.136000 0.847156 -0.652924 0.231602 -0.721146 0.344482 0.021484 1 0 1.000000
attachment_vm_reflex_west02_lens
  0 -0.036000 0.130000 0.865156 -0.994698 0.035527 -0.096502 0.354004 0.050781 1 0 1.000000
  0 -0.036000 0.000000 1.266156 -0.999973 0.007064 -0.001787 0.500000 0.500000 1 0 1.000000
  0 -0.036000 0.171000 0.880156 -0.994693 0.040701 -0.094495 0.307861 0.068359 1 0 1.000000
attachment_vm_reflex_west02_lens
  0 -0.036000 0.171000 0.880156 -0.994693 0.040701 -0.094495 0.307861 0.068359 1 0 1.000000
  0 -0.036000 0.000000 1.266156 -0.999973 0.007064 -0.001787 0.500000 0.500000 1 0 1.000000
  0 -0.036000 0.211000 0.900156 -0.994974 0.052017 -0.085566 0.263916 0.090820 1 0 1.000000
attachment_vm_reflex_west02_lens
  0 -0.036000 0.211000 0.900156 -0.994974 0.052017 -0.085566 0.263916 0.090820 1 0 1.000000
  0 -0.036000 0.000000 1.266156 -0.999973 0.007064 -0.001787 0.500000 0.500000 1 0 1.000000
  0 -0.036000 0.248000 0.925156 -0.995010 0.059718 -0.079931 0.222412 0.117676 1 0 1.000000
attachment_vm_reflex_west02_lens
  0 -0.036000 0.248000 0.925156 -0.995010 0.059718 -0.079931 0.222412 0.117676 1 0 1.000000
  0 -0.036000 0.000000 1.266156 -0.999973 0.007064 -0.001787 0.500000 0.500000 1 0 1.000000
  0 -0.036000 0.282000 0.952156 -0.994978 0.070199 -0.071348 0.183960 0.148926 1 0 1.000000
attachment_vm_reflex_west02_lens
  0 -0.036000 0.088000 0.853156 -0.994969 0.023587 -0.097366 0.401855 0.038086 1 0 1.000000
  0 -0.036000 0.000000 1.266156 -0.999973 0.007064 -0.001787 0.500000 0.500000 1 0 1.000000
  0 -0.036000 0.130000 0.865156 -0.994698 0.035527 -0.096502 0.354004 0.050781 1 0 1.000000
attachment_vm_reflex_west02_lens
  0 -0.036000 0.088000 0.853156 -0.994969 0.023587 -0.097366 0.401855 0.038086 1 0 1.000000
  0 -0.036000 0.130000 0.865156 -0.994698 0.035527 -0.096502 0.354004 0.050781 1 0 1.000000
  0 -0.015000 0.136000 0.847156 -0.652924 0.231602 -0.721146 0.344482 0.021484 1 0 1.000000
attachment_vm_reflex_west02_lens
  0 -0.036000 0.088000 0.853156 -0.994969 0.023587 -0.097366 0.401855 0.038086 1 0 1.000000
  0 -0.015000 0.136000 0.847156 -0.652924 0.231602 -0.721146 0.344482 0.021484 1 0 1.000000
  0 -0.015000 0.091000 0.836156 -0.651993 0.154242 -0.742371 0.395264 0.007812 1 0 1.000000
attachment_vm_reflex_west02_lens
  0 -0.036000 0.044000 0.846156 -0.994817 0.014270 -0.100673 0.450684 0.030273 1 0 1.000000
  0 -0.036000 0.088000 0.853156 -0.994969 0.023587 -0.097366 0.401855 0.038086 1 0 1.000000
  0 -0.015000 0.091000 0.836156 -0.651993 0.154242 -0.742371 0.395264 0.007812 1 0 1.000000
attachment_vm_reflex_west02_lens
  0 -0.036000 0.044000 0.846156 -0.994817 0.014270 -0.100673 0.450684 0.030273 1 0 1.000000
  0 -0.015000 0.091000 0.836156 -0.651993 0.154242 -0.742371 0.395264 0.007812 1 0 1.000000
  0 -0.015000 0.046000 0.828156 -0.652916 0.075492 -0.753659 0.447266 -0.000977 1 0 1.000000
attachment_vm_reflex_west02_lens
  0 -0.036000 0.044000 0.846156 -0.994817 0.014270 -0.100673 0.450684 0.030273 1 0 1.000000
  0 -0.015000 0.046000 0.828156 -0.652916 0.075492 -0.753659 0.447266 -0.000977 1 0 1.000000
  0 -0.015000 0.000000 0.826156 -0.648854 0.002761 -0.760908 0.500000 -0.002930 1 0 1.000000
attachment_vm_reflex_west02_lens
  0 -0.036000 0.000000 0.844156 -0.994870 0.004511 -0.101063 0.500000 0.027832 1 0 1.000000
  0 -0.036000 0.044000 0.846156 -0.994817 0.014270 -0.100673 0.450684 0.030273 1 0 1.000000
  0 -0.015000 0.000000 0.826156 -0.648854 0.002761 -0.760908 0.500000 -0.002930 1 0 1.000000
attachment_vm_reflex_west02_lens
  0 -0.036000 0.000000 0.844156 -0.994870 0.004511 -0.101063 0.500000 0.027832 1 0 1.000000
  0 -0.015000 0.000000 0.826156 -0.648854 0.002761 -0.760908 0.500000 -0.002930 1 0 1.000000
  0 -0.036000 -0.044000 0.846156 -0.994860 -0.007069 -0.101008 0.549316 0.030273 1 0 1.000000
attachment_vm_reflex_west02_lens
  0 -0.036000 -0.044000 0.846156 -0.994860 -0.007069 -0.101008 0.549316 0.030273 1 0 1.000000
  0 -0.036000 0.000000 1.266156 -0.999973 0.007064 -0.001787 0.500000 0.500000 1 0 1.000000
  0 -0.036000 0.000000 0.844156 -0.994870 0.004511 -0.101063 0.500000 0.027832 1 0 1.000000
attachment_vm_reflex_west02_lens
  0 -0.036000 -0.088000 0.853156 -0.994982 -0.023103 -0.097351 0.598145 0.038086 1 0 1.000000
  0 -0.036000 0.000000 1.266156 -0.999973 0.007064 -0.001787 0.500000 0.500000 1 0 1.000000
  0 -0.036000 -0.044000 0.846156 -0.994860 -0.007069 -0.101008 0.549316 0.030273 1 0 1.000000
attachment_vm_reflex_west02_lens
  0 -0.036000 -0.130000 0.865156 -0.995039 -0.031305 -0.094428 0.645996 0.050781 1 0 1.000000
  0 -0.036000 0.000000 1.266156 -0.999973 0.007064 -0.001787 0.500000 0.500000 1 0 1.000000
  0 -0.036000 -0.088000 0.853156 -0.994982 -0.023103 -0.097351 0.598145 0.038086 1 0 1.000000
attachment_vm_reflex_west02_lens
  0 -0.036000 -0.130000 0.865156 -0.995039 -0.031305 -0.094428 0.645996 0.050781 1 0 1.000000
  0 -0.036000 -0.088000 0.853156 -0.994982 -0.023103 -0.097351 0.598145 0.038086 1 0 1.000000
  0 -0.015000 -0.136000 0.847156 -0.649572 -0.232936 -0.723738 0.655762 0.021484 1 0 1.000000
attachment_vm_reflex_west02_lens
  0 -0.036000 -0.171000 0.880156 -0.995070 -0.045893 -0.087912 0.691895 0.068359 1 0 1.000000
  0 -0.036000 -0.130000 0.865156 -0.995039 -0.031305 -0.094428 0.645996 0.050781 1 0 1.000000
  0 -0.015000 -0.136000 0.847156 -0.649572 -0.232936 -0.723738 0.655762 0.021484 1 0 1.000000
attachment_vm_reflex_west02_lens
  0 -0.036000 -0.171000 0.880156 -0.995070 -0.045893 -0.087912 0.691895 0.068359 1 0 1.000000
  0 -0.015000 -0.136000 0.847156 -0.649572 -0.232936 -0.723738 0.655762 0.021484 1 0 1.000000
  0 -0.015000 -0.179000 0.864156 -0.652141 -0.305914 -0.693634 0.704590 0.040039 1 0 1.000000
attachment_vm_reflex_west02_lens
  0 -0.036000 -0.211000 0.900156 -0.995102 -0.054066 -0.082755 0.736328 0.090820 1 0 1.000000
  0 -0.036000 -0.171000 0.880156 -0.995070 -0.045893 -0.087912 0.691895 0.068359 1 0 1.000000
  0 -0.015000 -0.179000 0.864156 -0.652141 -0.305914 -0.693634 0.704590 0.040039 1 0 1.000000
attachment_vm_reflex_west02_lens
  0 -0.036000 -0.211000 0.900156 -0.995102 -0.054066 -0.082755 0.736328 0.090820 1 0 1.000000
  0 -0.015000 -0.179000 0.864156 -0.652141 -0.305914 -0.693634 0.704590 0.040039 1 0 1.000000
  0 -0.015000 -0.220000 0.885156 -0.651190 -0.375501 -0.659508 0.751953 0.063965 1 0 1.000000
attachment_vm_reflex_west02_lens
  0 -0.036000 -0.211000 0.900156 -0.995102 -0.054066 -0.082755 0.736328 0.090820 1 0 1.000000
  0 -0.015000 -0.220000 0.885156 -0.651190 -0.375501 -0.659508 0.751953 0.063965 1 0 1.000000
  0 -0.015000 -0.258000 0.910156 -0.651217 -0.444895 -0.614804 0.795898 0.092773 1 0 1.000000
attachment_vm_reflex_west02_lens
  0 -0.036000 -0.248000 0.925156 -0.995048 -0.059699 -0.079471 0.777832 0.117676 1 0 1.000000
  0 -0.036000 -0.211000 0.900156 -0.995102 -0.054066 -0.082755 0.736328 0.090820 1 0 1.000000
  0 -0.015000 -0.258000 0.910156 -0.651217 -0.444895 -0.614804 0.795898 0.092773 1 0 1.000000
attachment_vm_reflex_west02_lens
  0 -0.036000 -0.088000 0.853156 -0.994982 -0.023103 -0.097351 0.598145 0.038086 1 0 1.000000
  0 -0.015000 -0.091000 0.836156 -0.649509 -0.152072 -0.744991 0.604492 0.007812 1 0 1.000000
  0 -0.015000 -0.136000 0.847156 -0.649572 -0.232936 -0.723738 0.655762 0.021484 1 0 1.000000
attachment_vm_reflex_west02_lens
  0 -0.036000 -0.088000 0.853156 -0.994982 -0.023103 -0.097351 0.598145 0.038086 1 0 1.000000
  0 -0.036000 -0.044000 0.846156 -0.994860 -0.007069 -0.101008 0.549316 0.030273 1 0 1.000000
  0 -0.015000 -0.091000 0.836156 -0.649509 -0.152072 -0.744991 0.604492 0.007812 1 0 1.000000
attachment_vm_reflex_west02_lens
  0 -0.036000 -0.044000 0.846156 -0.994860 -0.007069 -0.101008 0.549316 0.030273 1 0 1.000000
  0 -0.015000 -0.046000 0.828156 -0.651039 -0.076740 -0.755155 0.552734 -0.000977 1 0 1.000000
  0 -0.015000 -0.091000 0.836156 -0.649509 -0.152072 -0.744991 0.604492 0.007812 1 0 1.000000
attachment_vm_reflex_west02_lens
  0 -0.036000 -0.044000 0.846156 -0.994860 -0.007069 -0.101008 0.549316 0.030273 1 0 1.000000
  0 -0.015000 0.000000 0.826156 -0.648854 0.002761 -0.760908 0.500000 -0.002930 1 0 1.000000
  0 -0.015000 -0.046000 0.828156 -0.651039 -0.076740 -0.755155 0.552734 -0.000977 1 0 1.000000
end
