// Created by Crowbar 0.74
version 1
nodes
  0 "tag_hybrid" -1
  1 "tag_reticle_attach" 0
  2 "tag_reticle_attach2" 0
end
skeleton
  time 0
    0 0.000000 0.000000 0.000000 0.000000 0.000000 0.000000
    1 -1.203000 -0.005000 1.014000 0.000000 0.000000 0.000000
    2 1.311000 -1.575000 0.205000 0.785371 0.000000 0.000000
end
triangles
ads_scope_lens_1
  0 -1.250000 -0.350000 0.675000 -0.951501 -0.223710 -0.211184 0.657227 0.199707 1 0 1.000000
  0 -1.250000 -0.248000 0.594000 -0.946633 -0.166660 -0.275881 0.588379 0.144531 1 0 1.000000
  0 -1.203000 -0.337000 0.503000 -0.934800 -0.185632 -0.302802 0.651855 0.079102 1 0 1.000000
ads_scope_lens_1
  0 -1.203000 -0.457000 0.608000 -0.933961 -0.261233 -0.243873 0.732910 0.151855 1 0 1.000000
  0 -1.250000 -0.350000 0.675000 -0.951501 -0.223710 -0.211184 0.657227 0.199707 1 0 1.000000
  0 -1.203000 -0.337000 0.503000 -0.934800 -0.185632 -0.302802 0.651855 0.079102 1 0 1.000000
ads_scope_lens_1
  0 -1.251000 -0.426000 0.780000 -0.946687 -0.284409 -0.151312 0.708008 0.271484 1 0 1.000000
  0 -1.250000 -0.350000 0.675000 -0.951501 -0.223710 -0.211184 0.657227 0.199707 1 0 1.000000
  0 -1.203000 -0.457000 0.608000 -0.933961 -0.261233 -0.243873 0.732910 0.151855 1 0 1.000000
ads_scope_lens_1
  0 -1.203000 -0.544000 0.740000 -0.933203 -0.319545 -0.164389 0.792480 0.243164 1 0 1.000000
  0 -1.251000 -0.426000 0.780000 -0.946687 -0.284409 -0.151312 0.708008 0.271484 1 0 1.000000
  0 -1.203000 -0.457000 0.608000 -0.933961 -0.261233 -0.243873 0.732910 0.151855 1 0 1.000000
ads_scope_lens_1
  0 -1.251000 -0.471000 0.903000 -0.952211 -0.299270 -0.061083 0.737793 0.354492 1 0 1.000000
  0 -1.251000 -0.426000 0.780000 -0.946687 -0.284409 -0.151312 0.708008 0.271484 1 0 1.000000
  0 -1.203000 -0.544000 0.740000 -0.933203 -0.319545 -0.164389 0.792480 0.243164 1 0 1.000000
ads_scope_lens_1
  0 -1.203000 -0.594000 0.891000 -0.931570 -0.354771 -0.079471 0.825684 0.346191 1 0 1.000000
  0 -1.251000 -0.471000 0.903000 -0.952211 -0.299270 -0.061083 0.737793 0.354492 1 0 1.000000
  0 -1.203000 -0.544000 0.740000 -0.933203 -0.319545 -0.164389 0.792480 0.243164 1 0 1.000000
ads_scope_lens_1
  0 -1.251000 -0.482000 1.032000 -0.945148 -0.326063 0.019443 0.744141 0.442383 1 0 1.000000
  0 -1.251000 -0.471000 0.903000 -0.952211 -0.299270 -0.061083 0.737793 0.354492 1 0 1.000000
  0 -1.203000 -0.594000 0.891000 -0.931570 -0.354771 -0.079471 0.825684 0.346191 1 0 1.000000
ads_scope_lens_1
  0 -1.203000 -0.603000 1.050000 -0.931940 -0.361924 0.022328 0.831055 0.455078 1 0 1.000000
  0 -1.251000 -0.482000 1.032000 -0.945148 -0.326063 0.019443 0.744141 0.442383 1 0 1.000000
  0 -1.203000 -0.594000 0.891000 -0.931570 -0.354771 -0.079471 0.825684 0.346191 1 0 1.000000
ads_scope_lens_1
  0 -1.252000 -0.458000 1.160000 -0.952254 -0.286754 0.104809 0.726563 0.528564 1 0 1.000000
  0 -1.251000 -0.482000 1.032000 -0.945148 -0.326063 0.019443 0.744141 0.442383 1 0 1.000000
  0 -1.203000 -0.603000 1.050000 -0.931940 -0.361924 0.022328 0.831055 0.455078 1 0 1.000000
ads_scope_lens_1
  0 -1.203000 -0.570000 1.205000 -0.928917 -0.349755 0.121594 0.807617 0.561523 1 0 1.000000
  0 -1.252000 -0.458000 1.160000 -0.952254 -0.286754 0.104809 0.726563 0.528564 1 0 1.000000
  0 -1.203000 -0.603000 1.050000 -0.931940 -0.361924 0.022328 0.831055 0.455078 1 0 1.000000
ads_scope_lens_1
  0 -1.252000 -0.399001 1.277000 -0.944427 -0.271158 0.185824 0.686523 0.606689 1 0 1.000000
  0 -1.252000 -0.458000 1.160000 -0.952254 -0.286754 0.104809 0.726563 0.528564 1 0 1.000000
  0 -1.203000 -0.570000 1.205000 -0.928917 -0.349755 0.121594 0.807617 0.561523 1 0 1.000000
ads_scope_lens_1
  0 -1.252000 -0.399001 1.277000 -0.944427 -0.271158 0.185824 0.686523 0.606689 1 0 1.000000
  0 -1.203000 -0.570000 1.205000 -0.928917 -0.349755 0.121594 0.807617 0.561523 1 0 1.000000
  0 -1.203000 -0.498000 1.347000 -0.928246 -0.306043 0.211417 0.756836 0.657715 1 0 1.000000
ads_scope_lens_1
  0 -1.203000 -0.391000 1.464000 -0.926592 -0.239864 0.289643 0.683105 0.737549 1 0 1.000000
  0 -1.252000 -0.399001 1.277000 -0.944427 -0.271158 0.185824 0.686523 0.606689 1 0 1.000000
  0 -1.203000 -0.498000 1.347000 -0.928246 -0.306043 0.211417 0.756836 0.657715 1 0 1.000000
ads_scope_lens_1
  0 -1.252000 -0.312000 1.373000 -0.951481 -0.190741 0.241458 0.626953 0.671143 1 0 1.000000
  0 -1.252000 -0.399001 1.277000 -0.944427 -0.271158 0.185824 0.686523 0.606689 1 0 1.000000
  0 -1.203000 -0.391000 1.464000 -0.926592 -0.239864 0.289643 0.683105 0.737549 1 0 1.000000
ads_scope_lens_1
  0 -1.203000 -0.257000 1.550000 -0.926077 -0.156113 0.343525 0.590820 0.795288 1 0 1.000000
  0 -1.252000 -0.312000 1.373000 -0.951481 -0.190741 0.241458 0.626953 0.671143 1 0 1.000000
  0 -1.203000 -0.391000 1.464000 -0.926592 -0.239864 0.289643 0.683105 0.737549 1 0 1.000000
ads_scope_lens_1
  0 -1.252000 -0.202000 1.442000 -0.943255 -0.137050 0.302469 0.552246 0.717285 1 0 1.000000
  0 -1.252000 -0.312000 1.373000 -0.951481 -0.190741 0.241458 0.626953 0.671143 1 0 1.000000
  0 -1.203000 -0.257000 1.550000 -0.926077 -0.156113 0.343525 0.590820 0.795288 1 0 1.000000
ads_scope_lens_1
  0 -1.203000 -0.105000 1.597000 -0.924883 -0.057965 0.375807 0.486572 0.826904 1 0 1.000000
  0 -1.252000 -0.202000 1.442000 -0.943255 -0.137050 0.302469 0.552246 0.717285 1 0 1.000000
  0 -1.203000 -0.257000 1.550000 -0.926077 -0.156113 0.343525 0.590820 0.795288 1 0 1.000000
ads_scope_lens_1
  0 -1.253000 -0.078000 1.480000 -0.942691 -0.051856 0.329612 0.467773 0.741699 1 0 1.000000
  0 -1.252000 -0.202000 1.442000 -0.943255 -0.137050 0.302469 0.552246 0.717285 1 0 1.000000
  0 -1.203000 -0.105000 1.597000 -0.924883 -0.057965 0.375807 0.486572 0.826904 1 0 1.000000
ads_scope_lens_1
  0 -1.295000 -0.289000 0.871000 -0.976710 -0.189275 -0.101060 0.612305 0.332520 1 0 1.000000
  0 -1.294000 -0.172000 0.734000 -0.977971 -0.104039 -0.180966 0.535645 0.240723 1 0 1.000000
  0 -1.250000 -0.350000 0.675000 -0.951501 -0.223710 -0.211184 0.657227 0.199707 1 0 1.000000
ads_scope_lens_1
  0 -1.251000 -0.426000 0.780000 -0.946687 -0.284409 -0.151312 0.708008 0.271484 1 0 1.000000
  0 -1.295000 -0.289000 0.871000 -0.976710 -0.189275 -0.101060 0.612305 0.332520 1 0 1.000000
  0 -1.250000 -0.350000 0.675000 -0.951501 -0.223710 -0.211184 0.657227 0.199707 1 0 1.000000
ads_scope_lens_1
  0 -1.251000 -0.471000 0.903000 -0.952211 -0.299270 -0.061083 0.737793 0.354492 1 0 1.000000
  0 -1.295000 -0.289000 0.871000 -0.976710 -0.189275 -0.101060 0.612305 0.332520 1 0 1.000000
  0 -1.251000 -0.426000 0.780000 -0.946687 -0.284409 -0.151312 0.708008 0.271484 1 0 1.000000
ads_scope_lens_1
  0 -1.296000 -0.313000 1.048000 -0.980050 -0.197982 0.017464 0.627441 0.451660 1 0 1.000000
  0 -1.295000 -0.289000 0.871000 -0.976710 -0.189275 -0.101060 0.612305 0.332520 1 0 1.000000
  0 -1.251000 -0.471000 0.903000 -0.952211 -0.299270 -0.061083 0.737793 0.354492 1 0 1.000000
ads_scope_lens_1
  0 -1.251000 -0.482000 1.032000 -0.945148 -0.326063 0.019443 0.744141 0.442383 1 0 1.000000
  0 -1.296000 -0.313000 1.048000 -0.980050 -0.197982 0.017464 0.627441 0.451660 1 0 1.000000
  0 -1.251000 -0.471000 0.903000 -0.952211 -0.299270 -0.061083 0.737793 0.354492 1 0 1.000000
ads_scope_lens_1
  0 -1.252000 -0.458000 1.160000 -0.952254 -0.286754 0.104809 0.726563 0.528564 1 0 1.000000
  0 -1.296000 -0.313000 1.048000 -0.980050 -0.197982 0.017464 0.627441 0.451660 1 0 1.000000
  0 -1.251000 -0.482000 1.032000 -0.945148 -0.326063 0.019443 0.744141 0.442383 1 0 1.000000
ads_scope_lens_1
  0 -1.297000 -0.237000 1.211000 -0.977580 -0.163876 0.132216 0.575684 0.559570 1 0 1.000000
  0 -1.296000 -0.313000 1.048000 -0.980050 -0.197982 0.017464 0.627441 0.451660 1 0 1.000000
  0 -1.252000 -0.458000 1.160000 -0.952254 -0.286754 0.104809 0.726563 0.528564 1 0 1.000000
ads_scope_lens_1
  0 -1.297000 -0.237000 1.211000 -0.977580 -0.163876 0.132216 0.575684 0.559570 1 0 1.000000
  0 -1.252000 -0.458000 1.160000 -0.952254 -0.286754 0.104809 0.726563 0.528564 1 0 1.000000
  0 -1.252000 -0.399001 1.277000 -0.944427 -0.271158 0.185824 0.686523 0.606689 1 0 1.000000
ads_scope_lens_1
  0 -1.252000 -0.312000 1.373000 -0.951481 -0.190741 0.241458 0.626953 0.671143 1 0 1.000000
  0 -1.297000 -0.237000 1.211000 -0.977580 -0.163876 0.132216 0.575684 0.559570 1 0 1.000000
  0 -1.252000 -0.399001 1.277000 -0.944427 -0.271158 0.185824 0.686523 0.606689 1 0 1.000000
ads_scope_lens_1
  0 -1.297000 -0.086000 1.307000 -0.979168 -0.060210 0.193917 0.473877 0.622559 1 0 1.000000
  0 -1.297000 -0.237000 1.211000 -0.977580 -0.163876 0.132216 0.575684 0.559570 1 0 1.000000
  0 -1.252000 -0.312000 1.373000 -0.951481 -0.190741 0.241458 0.626953 0.671143 1 0 1.000000
ads_scope_lens_1
  0 -1.252000 -0.202000 1.442000 -0.943255 -0.137050 0.302469 0.552246 0.717285 1 0 1.000000
  0 -1.297000 -0.086000 1.307000 -0.979168 -0.060210 0.193917 0.473877 0.622559 1 0 1.000000
  0 -1.252000 -0.312000 1.373000 -0.951481 -0.190741 0.241458 0.626953 0.671143 1 0 1.000000
ads_scope_lens_1
  0 -1.253000 -0.078000 1.480000 -0.942691 -0.051856 0.329612 0.467773 0.741699 1 0 1.000000
  0 -1.297000 -0.086000 1.307000 -0.979168 -0.060210 0.193917 0.473877 0.622559 1 0 1.000000
  0 -1.252000 -0.202000 1.442000 -0.943255 -0.137050 0.302469 0.552246 0.717285 1 0 1.000000
ads_scope_lens_1
  0 -1.253000 0.052000 1.482000 -0.949047 0.024557 0.314176 0.379883 0.742676 1 0 1.000000
  0 -1.297000 -0.086000 1.307000 -0.979168 -0.060210 0.193917 0.473877 0.622559 1 0 1.000000
  0 -1.253000 -0.078000 1.480000 -0.942691 -0.051856 0.329612 0.467773 0.741699 1 0 1.000000
ads_scope_lens_1
  0 -1.296000 0.093000 1.305000 -0.980087 0.067417 0.186776 0.354248 0.620605 1 0 1.000000
  0 -1.297000 -0.086000 1.307000 -0.979168 -0.060210 0.193917 0.473877 0.622559 1 0 1.000000
  0 -1.253000 0.052000 1.482000 -0.949047 0.024557 0.314176 0.379883 0.742676 1 0 1.000000
ads_scope_lens_1
  0 -1.253000 0.178000 1.449000 -0.942946 0.118363 0.311196 0.294922 0.719482 1 0 1.000000
  0 -1.296000 0.093000 1.305000 -0.980087 0.067417 0.186776 0.354248 0.620605 1 0 1.000000
  0 -1.253000 0.052000 1.482000 -0.949047 0.024557 0.314176 0.379883 0.742676 1 0 1.000000
ads_scope_lens_1
  0 -1.253000 0.291000 1.384000 -0.948807 0.189670 0.252568 0.219360 0.674561 1 0 1.000000
  0 -1.296000 0.093000 1.305000 -0.980087 0.067417 0.186776 0.354248 0.620605 1 0 1.000000
  0 -1.253000 0.178000 1.449000 -0.942946 0.118363 0.311196 0.294922 0.719482 1 0 1.000000
ads_scope_lens_1
  0 -1.295000 0.243000 1.207000 -0.977901 0.162775 0.131202 0.254883 0.553955 1 0 1.000000
  0 -1.296000 0.093000 1.305000 -0.980087 0.067417 0.186776 0.354248 0.620605 1 0 1.000000
  0 -1.253000 0.291000 1.384000 -0.948807 0.189670 0.252568 0.219360 0.674561 1 0 1.000000
ads_scope_lens_1
  0 -1.253000 0.382000 1.290000 -0.941805 0.268097 0.202800 0.158691 0.610596 1 0 1.000000
  0 -1.295000 0.243000 1.207000 -0.977901 0.162775 0.131202 0.254883 0.553955 1 0 1.000000
  0 -1.253000 0.291000 1.384000 -0.948807 0.189670 0.252568 0.219360 0.674561 1 0 1.000000
ads_scope_lens_1
  0 -1.296000 0.093000 1.305000 -0.980087 0.067417 0.186776 0.354248 0.620605 1 0 1.000000
  0 -1.320000 -0.004000 1.168000 -0.994648 -0.004479 0.103223 0.420166 0.529297 1 0 1.000000
  0 -1.297000 -0.086000 1.307000 -0.979168 -0.060210 0.193917 0.473877 0.622559 1 0 1.000000
ads_scope_lens_1
  0 -1.296000 -0.313000 1.048000 -0.980050 -0.197982 0.017464 0.627441 0.451660 1 0 1.000000
  0 -1.319000 -0.145000 0.920000 -0.993751 -0.094268 -0.059777 0.515625 0.365234 1 0 1.000000
  0 -1.295000 -0.289000 0.871000 -0.976710 -0.189275 -0.101060 0.612305 0.332520 1 0 1.000000
ads_scope_lens_1
  0 -1.319000 -0.146000 1.085000 -0.994459 -0.087239 0.058651 0.515137 0.474609 1 0 1.000000
  0 -1.319000 -0.145000 0.920000 -0.993751 -0.094268 -0.059777 0.515625 0.365234 1 0 1.000000
  0 -1.296000 -0.313000 1.048000 -0.980050 -0.197982 0.017464 0.627441 0.451660 1 0 1.000000
ads_scope_lens_1
  0 -1.319000 -0.146000 1.085000 -0.994459 -0.087239 0.058651 0.515137 0.474609 1 0 1.000000
  0 -1.296000 -0.313000 1.048000 -0.980050 -0.197982 0.017464 0.627441 0.451660 1 0 1.000000
  0 -1.297000 -0.237000 1.211000 -0.977580 -0.163876 0.132216 0.575684 0.559570 1 0 1.000000
ads_scope_lens_1
  0 -1.297000 -0.086000 1.307000 -0.979168 -0.060210 0.193917 0.473877 0.622559 1 0 1.000000
  0 -1.319000 -0.146000 1.085000 -0.994459 -0.087239 0.058651 0.515137 0.474609 1 0 1.000000
  0 -1.297000 -0.237000 1.211000 -0.977580 -0.163876 0.132216 0.575684 0.559570 1 0 1.000000
ads_scope_lens_1
  0 -1.320000 -0.004000 1.168000 -0.994648 -0.004479 0.103223 0.420166 0.529297 1 0 1.000000
  0 -1.319000 -0.146000 1.085000 -0.994459 -0.087239 0.058651 0.515137 0.474609 1 0 1.000000
  0 -1.297000 -0.086000 1.307000 -0.979168 -0.060210 0.193917 0.473877 0.622559 1 0 1.000000
ads_scope_lens_1
  0 -1.320000 -0.004000 1.168000 -0.994648 -0.004479 0.103223 0.420166 0.529297 1 0 1.000000
  0 -1.328000 -0.003000 1.003000 -0.999966 0.004535 -0.006843 0.420654 0.419434 1 0 1.000000
  0 -1.319000 -0.146000 1.085000 -0.994459 -0.087239 0.058651 0.515137 0.474609 1 0 1.000000
ads_scope_lens_1
  0 -1.328000 -0.003000 1.003000 -0.999966 0.004535 -0.006843 0.420654 0.419434 1 0 1.000000
  0 -1.320000 -0.004000 1.168000 -0.994648 -0.004479 0.103223 0.420166 0.529297 1 0 1.000000
  0 -1.319000 0.139000 1.087000 -0.994233 0.089306 0.059367 0.325439 0.474121 1 0 1.000000
ads_scope_lens_1
  0 -1.319000 0.139000 1.087000 -0.994233 0.089306 0.059367 0.325439 0.474121 1 0 1.000000
  0 -1.320000 -0.004000 1.168000 -0.994648 -0.004479 0.103223 0.420166 0.529297 1 0 1.000000
  0 -1.296000 0.093000 1.305000 -0.980087 0.067417 0.186776 0.354248 0.620605 1 0 1.000000
ads_scope_lens_1
  0 -1.295000 0.243000 1.207000 -0.977901 0.162775 0.131202 0.254883 0.553955 1 0 1.000000
  0 -1.319000 0.139000 1.087000 -0.994233 0.089306 0.059367 0.325439 0.474121 1 0 1.000000
  0 -1.296000 0.093000 1.305000 -0.980087 0.067417 0.186776 0.354248 0.620605 1 0 1.000000
ads_scope_lens_1
  0 -1.319000 -0.146000 1.085000 -0.994459 -0.087239 0.058651 0.515137 0.474609 1 0 1.000000
  0 -1.328000 -0.003000 1.003000 -0.999966 0.004535 -0.006843 0.420654 0.419434 1 0 1.000000
  0 -1.319000 -0.145000 0.920000 -0.993751 -0.094268 -0.059777 0.515625 0.365234 1 0 1.000000
ads_scope_lens_1
  0 -1.203000 0.053000 1.603000 -0.924682 0.035705 0.379062 0.377686 0.830200 1 0 1.000000
  0 -1.253000 -0.078000 1.480000 -0.942691 -0.051856 0.329612 0.467773 0.741699 1 0 1.000000
  0 -1.203000 -0.105000 1.597000 -0.924883 -0.057965 0.375807 0.486572 0.826904 1 0 1.000000
ads_scope_lens_1
  0 -1.253000 0.052000 1.482000 -0.949047 0.024557 0.314176 0.379883 0.742676 1 0 1.000000
  0 -1.253000 -0.078000 1.480000 -0.942691 -0.051856 0.329612 0.467773 0.741699 1 0 1.000000
  0 -1.203000 0.053000 1.603000 -0.924682 0.035705 0.379062 0.377686 0.830200 1 0 1.000000
ads_scope_lens_1
  0 -1.203000 0.208000 1.568000 -0.924659 0.135308 0.355947 0.271729 0.804688 1 0 1.000000
  0 -1.253000 0.052000 1.482000 -0.949047 0.024557 0.314176 0.379883 0.742676 1 0 1.000000
  0 -1.203000 0.053000 1.603000 -0.924682 0.035705 0.379062 0.377686 0.830200 1 0 1.000000
ads_scope_lens_1
  0 -1.253000 0.178000 1.449000 -0.942946 0.118363 0.311196 0.294922 0.719482 1 0 1.000000
  0 -1.253000 0.052000 1.482000 -0.949047 0.024557 0.314176 0.379883 0.742676 1 0 1.000000
  0 -1.203000 0.208000 1.568000 -0.924659 0.135308 0.355947 0.271729 0.804688 1 0 1.000000
ads_scope_lens_1
  0 -1.203000 0.348000 1.493000 -0.925586 0.226491 0.303303 0.176270 0.752319 1 0 1.000000
  0 -1.253000 0.178000 1.449000 -0.942946 0.118363 0.311196 0.294922 0.719482 1 0 1.000000
  0 -1.203000 0.208000 1.568000 -0.924659 0.135308 0.355947 0.271729 0.804688 1 0 1.000000
ads_scope_lens_1
  0 -1.253000 0.291000 1.384000 -0.948807 0.189670 0.252568 0.219360 0.674561 1 0 1.000000
  0 -1.253000 0.178000 1.449000 -0.942946 0.118363 0.311196 0.294922 0.719482 1 0 1.000000
  0 -1.203000 0.348000 1.493000 -0.925586 0.226491 0.303303 0.176270 0.752319 1 0 1.000000
ads_scope_lens_1
  0 -1.203000 0.478000 1.363000 -0.924728 0.302687 0.230777 0.088562 0.662354 1 0 1.000000
  0 -1.253000 0.291000 1.384000 -0.948807 0.189670 0.252568 0.219360 0.674561 1 0 1.000000
  0 -1.203000 0.348000 1.493000 -0.925586 0.226491 0.303303 0.176270 0.752319 1 0 1.000000
ads_scope_lens_1
  0 -1.253000 0.382000 1.290000 -0.941805 0.268097 0.202800 0.158691 0.610596 1 0 1.000000
  0 -1.253000 0.291000 1.384000 -0.948807 0.189670 0.252568 0.219360 0.674561 1 0 1.000000
  0 -1.203000 0.478000 1.363000 -0.924728 0.302687 0.230777 0.088562 0.662354 1 0 1.000000
ads_scope_lens_1
  0 -1.252000 0.444000 1.176000 -0.949495 0.292127 0.114549 0.117249 0.532959 1 0 1.000000
  0 -1.253000 0.382000 1.290000 -0.941805 0.268097 0.202800 0.158691 0.610596 1 0 1.000000
  0 -1.203000 0.478000 1.363000 -0.924728 0.302687 0.230777 0.088562 0.662354 1 0 1.000000
ads_scope_lens_1
  0 -1.252000 0.444000 1.176000 -0.949495 0.292127 0.114549 0.117249 0.532959 1 0 1.000000
  0 -1.295000 0.243000 1.207000 -0.977901 0.162775 0.131202 0.254883 0.553955 1 0 1.000000
  0 -1.253000 0.382000 1.290000 -0.941805 0.268097 0.202800 0.158691 0.610596 1 0 1.000000
ads_scope_lens_1
  0 -1.294000 0.317000 1.044000 -0.980087 0.197866 0.016665 0.206665 0.444336 1 0 1.000000
  0 -1.295000 0.243000 1.207000 -0.977901 0.162775 0.131202 0.254883 0.553955 1 0 1.000000
  0 -1.252000 0.444000 1.176000 -0.949495 0.292127 0.114549 0.117249 0.532959 1 0 1.000000
ads_scope_lens_1
  0 -1.294000 0.317000 1.044000 -0.980087 0.197866 0.016665 0.206665 0.444336 1 0 1.000000
  0 -1.319000 0.139000 1.087000 -0.994233 0.089306 0.059367 0.325439 0.474121 1 0 1.000000
  0 -1.295000 0.243000 1.207000 -0.977901 0.162775 0.131202 0.254883 0.553955 1 0 1.000000
ads_scope_lens_1
  0 -1.319000 0.140000 0.922000 -0.993468 0.097908 -0.058615 0.325928 0.364746 1 0 1.000000
  0 -1.319000 0.139000 1.087000 -0.994233 0.089306 0.059367 0.325439 0.474121 1 0 1.000000
  0 -1.294000 0.317000 1.044000 -0.980087 0.197866 0.016665 0.206665 0.444336 1 0 1.000000
ads_scope_lens_1
  0 -1.328000 -0.003000 1.003000 -0.999966 0.004535 -0.006843 0.420654 0.419434 1 0 1.000000
  0 -1.319000 0.139000 1.087000 -0.994233 0.089306 0.059367 0.325439 0.474121 1 0 1.000000
  0 -1.319000 0.140000 0.922000 -0.993468 0.097908 -0.058615 0.325928 0.364746 1 0 1.000000
ads_scope_lens_1
  0 -1.328000 -0.003000 1.003000 -0.999966 0.004535 -0.006843 0.420654 0.419434 1 0 1.000000
  0 -1.319000 0.140000 0.922000 -0.993468 0.097908 -0.058615 0.325928 0.364746 1 0 1.000000
  0 -1.318000 -0.002000 0.839000 -0.993152 0.005683 -0.116693 0.420898 0.310059 1 0 1.000000
ads_scope_lens_1
  0 -1.328000 -0.003000 1.003000 -0.999966 0.004535 -0.006843 0.420654 0.419434 1 0 1.000000
  0 -1.318000 -0.002000 0.839000 -0.993152 0.005683 -0.116693 0.420898 0.310059 1 0 1.000000
  0 -1.319000 -0.145000 0.920000 -0.993751 -0.094268 -0.059777 0.515625 0.365234 1 0 1.000000
ads_scope_lens_1
  0 -1.319000 -0.145000 0.920000 -0.993751 -0.094268 -0.059777 0.515625 0.365234 1 0 1.000000
  0 -1.318000 -0.002000 0.839000 -0.993152 0.005683 -0.116693 0.420898 0.310059 1 0 1.000000
  0 -1.294000 -0.172000 0.734000 -0.977971 -0.104039 -0.180966 0.535645 0.240723 1 0 1.000000
ads_scope_lens_1
  0 -1.295000 -0.289000 0.871000 -0.976710 -0.189275 -0.101060 0.612305 0.332520 1 0 1.000000
  0 -1.319000 -0.145000 0.920000 -0.993751 -0.094268 -0.059777 0.515625 0.365234 1 0 1.000000
  0 -1.294000 -0.172000 0.734000 -0.977971 -0.104039 -0.180966 0.535645 0.240723 1 0 1.000000
ads_scope_lens_1
  0 -1.294000 -0.172000 0.734000 -0.977971 -0.104039 -0.180966 0.535645 0.240723 1 0 1.000000
  0 -1.318000 -0.002000 0.839000 -0.993152 0.005683 -0.116693 0.420898 0.310059 1 0 1.000000
  0 -1.293000 -0.001000 0.682999 -0.976019 0.004000 -0.217647 0.421143 0.205078 1 0 1.000000
ads_scope_lens_1
  0 -1.250000 -0.350000 0.675000 -0.951501 -0.223710 -0.211184 0.657227 0.199707 1 0 1.000000
  0 -1.294000 -0.172000 0.734000 -0.977971 -0.104039 -0.180966 0.535645 0.240723 1 0 1.000000
  0 -1.250000 -0.248000 0.594000 -0.946633 -0.166660 -0.275881 0.588379 0.144531 1 0 1.000000
ads_scope_lens_1
  0 -1.250000 -0.248000 0.594000 -0.946633 -0.166660 -0.275881 0.588379 0.144531 1 0 1.000000
  0 -1.294000 -0.172000 0.734000 -0.977971 -0.104039 -0.180966 0.535645 0.240723 1 0 1.000000
  0 -1.250000 -0.127000 0.543000 -0.950631 -0.080731 -0.299638 0.507324 0.109375 1 0 1.000000
ads_scope_lens_1
  0 -1.294000 -0.172000 0.734000 -0.977971 -0.104039 -0.180966 0.535645 0.240723 1 0 1.000000
  0 -1.293000 -0.001000 0.682999 -0.976019 0.004000 -0.217647 0.421143 0.205078 1 0 1.000000
  0 -1.250000 -0.127000 0.543000 -0.950631 -0.080731 -0.299638 0.507324 0.109375 1 0 1.000000
ads_scope_lens_1
  0 -1.250000 -0.127000 0.543000 -0.950631 -0.080731 -0.299638 0.507324 0.109375 1 0 1.000000
  0 -1.293000 -0.001000 0.682999 -0.976019 0.004000 -0.217647 0.421143 0.205078 1 0 1.000000
  0 -1.250000 0.002000 0.527000 -0.946082 0.005212 -0.323886 0.419922 0.097656 1 0 1.000000
ads_scope_lens_1
  0 -1.250000 0.002000 0.527000 -0.946082 0.005212 -0.323886 0.419922 0.097656 1 0 1.000000
  0 -1.293000 -0.001000 0.682999 -0.976019 0.004000 -0.217647 0.421143 0.205078 1 0 1.000000
  0 -1.250000 0.132000 0.547000 -0.952128 0.082518 -0.294353 0.332275 0.110352 1 0 1.000000
ads_scope_lens_1
  0 -1.293000 -0.001000 0.682999 -0.976019 0.004000 -0.217647 0.421143 0.205078 1 0 1.000000
  0 -1.293000 0.171000 0.732000 -0.978316 0.106685 -0.177527 0.305664 0.236816 1 0 1.000000
  0 -1.250000 0.132000 0.547000 -0.952128 0.082518 -0.294353 0.332275 0.110352 1 0 1.000000
ads_scope_lens_1
  0 -1.293000 -0.001000 0.682999 -0.976019 0.004000 -0.217647 0.421143 0.205078 1 0 1.000000
  0 -1.318000 -0.002000 0.839000 -0.993152 0.005683 -0.116693 0.420898 0.310059 1 0 1.000000
  0 -1.293000 0.171000 0.732000 -0.978316 0.106685 -0.177527 0.305664 0.236816 1 0 1.000000
ads_scope_lens_1
  0 -1.318000 -0.002000 0.839000 -0.993152 0.005683 -0.116693 0.420898 0.310059 1 0 1.000000
  0 -1.319000 0.140000 0.922000 -0.993468 0.097908 -0.058615 0.325928 0.364746 1 0 1.000000
  0 -1.293000 0.171000 0.732000 -0.978316 0.106685 -0.177527 0.305664 0.236816 1 0 1.000000
ads_scope_lens_1
  0 -1.293000 0.171000 0.732000 -0.978316 0.106685 -0.177527 0.305664 0.236816 1 0 1.000000
  0 -1.319000 0.140000 0.922000 -0.993468 0.097908 -0.058615 0.325928 0.364746 1 0 1.000000
  0 -1.293000 0.290000 0.866000 -0.978213 0.186358 -0.091488 0.225830 0.326172 1 0 1.000000
ads_scope_lens_1
  0 -1.293000 0.290000 0.866000 -0.978213 0.186358 -0.091488 0.225830 0.326172 1 0 1.000000
  0 -1.319000 0.140000 0.922000 -0.993468 0.097908 -0.058615 0.325928 0.364746 1 0 1.000000
  0 -1.294000 0.317000 1.044000 -0.980087 0.197866 0.016665 0.206665 0.444336 1 0 1.000000
ads_scope_lens_1
  0 -1.293000 0.290000 0.866000 -0.978213 0.186358 -0.091488 0.225830 0.326172 1 0 1.000000
  0 -1.294000 0.317000 1.044000 -0.980087 0.197866 0.016665 0.206665 0.444336 1 0 1.000000
  0 -1.252000 0.467000 0.917999 -0.951321 0.302721 -0.057864 0.103638 0.358398 1 0 1.000000
ads_scope_lens_1
  0 -1.252000 0.467000 0.917999 -0.951321 0.302721 -0.057864 0.103638 0.358398 1 0 1.000000
  0 -1.294000 0.317000 1.044000 -0.980087 0.197866 0.016665 0.206665 0.444336 1 0 1.000000
  0 -1.252000 0.473000 1.048000 -0.945020 0.325850 0.027561 0.098450 0.446777 1 0 1.000000
ads_scope_lens_1
  0 -1.252000 0.473000 1.048000 -0.945020 0.325850 0.027561 0.098450 0.446777 1 0 1.000000
  0 -1.294000 0.317000 1.044000 -0.980087 0.197866 0.016665 0.206665 0.444336 1 0 1.000000
  0 -1.252000 0.444000 1.176000 -0.949495 0.292127 0.114549 0.117249 0.532959 1 0 1.000000
ads_scope_lens_1
  0 -1.252000 0.473000 1.048000 -0.945020 0.325850 0.027561 0.098450 0.446777 1 0 1.000000
  0 -1.252000 0.444000 1.176000 -0.949495 0.292127 0.114549 0.117249 0.532959 1 0 1.000000
  0 -1.203000 0.562000 1.212000 -0.928865 0.345539 0.133466 0.032166 0.558594 1 0 1.000000
ads_scope_lens_1
  0 -1.203000 0.562000 1.212000 -0.928865 0.345539 0.133466 0.032166 0.558594 1 0 1.000000
  0 -1.252000 0.444000 1.176000 -0.949495 0.292127 0.114549 0.117249 0.532959 1 0 1.000000
  0 -1.203000 0.478000 1.363000 -0.924728 0.302687 0.230777 0.088562 0.662354 1 0 1.000000
ads_scope_lens_1
  0 -1.203000 0.597000 1.057000 -0.930879 0.363838 0.032961 0.009438 0.452148 1 0 1.000000
  0 -1.252000 0.473000 1.048000 -0.945020 0.325850 0.027561 0.098450 0.446777 1 0 1.000000
  0 -1.203000 0.562000 1.212000 -0.928865 0.345539 0.133466 0.032166 0.558594 1 0 1.000000
ads_scope_lens_1
  0 -1.203000 0.590000 0.899000 -0.931819 0.356434 -0.068324 0.015343 0.343750 1 0 1.000000
  0 -1.252000 0.473000 1.048000 -0.945020 0.325850 0.027561 0.098450 0.446777 1 0 1.000000
  0 -1.203000 0.597000 1.057000 -0.930879 0.363838 0.032961 0.009438 0.452148 1 0 1.000000
ads_scope_lens_1
  0 -1.252000 0.467000 0.917999 -0.951321 0.302721 -0.057864 0.103638 0.358398 1 0 1.000000
  0 -1.252000 0.473000 1.048000 -0.945020 0.325850 0.027561 0.098450 0.446777 1 0 1.000000
  0 -1.203000 0.590000 0.899000 -0.931819 0.356434 -0.068324 0.015343 0.343750 1 0 1.000000
ads_scope_lens_1
  0 -1.203000 0.542000 0.747000 -0.934766 0.319731 -0.154870 0.049530 0.240234 1 0 1.000000
  0 -1.252000 0.467000 0.917999 -0.951321 0.302721 -0.057864 0.103638 0.358398 1 0 1.000000
  0 -1.203000 0.590000 0.899000 -0.931819 0.356434 -0.068324 0.015343 0.343750 1 0 1.000000
ads_scope_lens_1
  0 -1.251000 0.425000 0.793999 -0.946511 0.289563 -0.142372 0.132568 0.274902 1 0 1.000000
  0 -1.252000 0.467000 0.917999 -0.951321 0.302721 -0.057864 0.103638 0.358398 1 0 1.000000
  0 -1.203000 0.542000 0.747000 -0.934766 0.319731 -0.154870 0.049530 0.240234 1 0 1.000000
ads_scope_lens_1
  0 -1.251000 0.425000 0.793999 -0.946511 0.289563 -0.142372 0.132568 0.274902 1 0 1.000000
  0 -1.293000 0.290000 0.866000 -0.978213 0.186358 -0.091488 0.225830 0.326172 1 0 1.000000
  0 -1.252000 0.467000 0.917999 -0.951321 0.302721 -0.057864 0.103638 0.358398 1 0 1.000000
ads_scope_lens_1
  0 -1.251000 0.352000 0.685000 -0.952295 0.224520 -0.206698 0.182983 0.202637 1 0 1.000000
  0 -1.293000 0.290000 0.866000 -0.978213 0.186358 -0.091488 0.225830 0.326172 1 0 1.000000
  0 -1.251000 0.425000 0.793999 -0.946511 0.289563 -0.142372 0.132568 0.274902 1 0 1.000000
ads_scope_lens_1
  0 -1.293000 0.171000 0.732000 -0.978316 0.106685 -0.177527 0.305664 0.236816 1 0 1.000000
  0 -1.293000 0.290000 0.866000 -0.978213 0.186358 -0.091488 0.225830 0.326172 1 0 1.000000
  0 -1.251000 0.352000 0.685000 -0.952295 0.224520 -0.206698 0.182983 0.202637 1 0 1.000000
ads_scope_lens_1
  0 -1.251000 0.251000 0.600999 -0.946488 0.168881 -0.275028 0.251465 0.145996 1 0 1.000000
  0 -1.293000 0.171000 0.732000 -0.978316 0.106685 -0.177527 0.305664 0.236816 1 0 1.000000
  0 -1.251000 0.352000 0.685000 -0.952295 0.224520 -0.206698 0.182983 0.202637 1 0 1.000000
ads_scope_lens_1
  0 -1.250000 0.132000 0.547000 -0.952128 0.082518 -0.294353 0.332275 0.110352 1 0 1.000000
  0 -1.293000 0.171000 0.732000 -0.978316 0.106685 -0.177527 0.305664 0.236816 1 0 1.000000
  0 -1.251000 0.251000 0.600999 -0.946488 0.168881 -0.275028 0.251465 0.145996 1 0 1.000000
ads_scope_lens_1
  0 -1.250000 0.132000 0.547000 -0.952128 0.082518 -0.294353 0.332275 0.110352 1 0 1.000000
  0 -1.251000 0.251000 0.600999 -0.946488 0.168881 -0.275028 0.251465 0.145996 1 0 1.000000
  0 -1.203000 0.321000 0.497000 -0.935068 0.187553 -0.300784 0.202271 0.070801 1 0 1.000000
ads_scope_lens_1
  0 -1.203000 0.157999 0.424000 -0.934996 0.096612 -0.341246 0.313965 0.021973 1 0 1.000000
  0 -1.250000 0.132000 0.547000 -0.952128 0.082518 -0.294353 0.332275 0.110352 1 0 1.000000
  0 -1.203000 0.321000 0.497000 -0.935068 0.187553 -0.300784 0.202271 0.070801 1 0 1.000000
ads_scope_lens_1
  0 -1.250000 0.002000 0.527000 -0.946082 0.005212 -0.323886 0.419922 0.097656 1 0 1.000000
  0 -1.250000 0.132000 0.547000 -0.952128 0.082518 -0.294353 0.332275 0.110352 1 0 1.000000
  0 -1.203000 0.157999 0.424000 -0.934996 0.096612 -0.341246 0.313965 0.021973 1 0 1.000000
ads_scope_lens_1
  0 -1.203000 0.001000 0.402000 -0.934756 0.004260 -0.355265 0.421631 0.008301 1 0 1.000000
  0 -1.250000 0.002000 0.527000 -0.946082 0.005212 -0.323886 0.419922 0.097656 1 0 1.000000
  0 -1.203000 0.157999 0.424000 -0.934996 0.096612 -0.341246 0.313965 0.021973 1 0 1.000000
ads_scope_lens_1
  0 -1.250000 -0.127000 0.543000 -0.950631 -0.080731 -0.299638 0.507324 0.109375 1 0 1.000000
  0 -1.250000 0.002000 0.527000 -0.946082 0.005212 -0.323886 0.419922 0.097656 1 0 1.000000
  0 -1.203000 0.001000 0.402000 -0.934756 0.004260 -0.355265 0.421631 0.008301 1 0 1.000000
ads_scope_lens_1
  0 -1.203000 -0.176001 0.427000 -0.933836 -0.095507 -0.344714 0.541992 0.026855 1 0 1.000000
  0 -1.250000 -0.127000 0.543000 -0.950631 -0.080731 -0.299638 0.507324 0.109375 1 0 1.000000
  0 -1.203000 0.001000 0.402000 -0.934756 0.004260 -0.355265 0.421631 0.008301 1 0 1.000000
ads_scope_lens_1
  0 -1.250000 -0.248000 0.594000 -0.946633 -0.166660 -0.275881 0.588379 0.144531 1 0 1.000000
  0 -1.250000 -0.127000 0.543000 -0.950631 -0.080731 -0.299638 0.507324 0.109375 1 0 1.000000
  0 -1.203000 -0.176001 0.427000 -0.933836 -0.095507 -0.344714 0.541992 0.026855 1 0 1.000000
ads_scope_lens_1
  0 -1.203000 -0.337000 0.503000 -0.934800 -0.185632 -0.302802 0.651855 0.079102 1 0 1.000000
  0 -1.250000 -0.248000 0.594000 -0.946633 -0.166660 -0.275881 0.588379 0.144531 1 0 1.000000
  0 -1.203000 -0.176001 0.427000 -0.933836 -0.095507 -0.344714 0.541992 0.026855 1 0 1.000000
ads_scope_lens_1
  0 -1.251000 0.251000 0.600999 -0.946488 0.168881 -0.275028 0.251465 0.145996 1 0 1.000000
  0 -1.251000 0.352000 0.685000 -0.952295 0.224520 -0.206698 0.182983 0.202637 1 0 1.000000
  0 -1.203000 0.321000 0.497000 -0.935068 0.187553 -0.300784 0.202271 0.070801 1 0 1.000000
ads_scope_lens_1
  0 -1.203000 0.321000 0.497000 -0.935068 0.187553 -0.300784 0.202271 0.070801 1 0 1.000000
  0 -1.251000 0.352000 0.685000 -0.952295 0.224520 -0.206698 0.182983 0.202637 1 0 1.000000
  0 -1.203000 0.456000 0.614000 -0.934224 0.265361 -0.238348 0.109314 0.149902 1 0 1.000000
ads_scope_lens_1
  0 -1.251000 0.352000 0.685000 -0.952295 0.224520 -0.206698 0.182983 0.202637 1 0 1.000000
  0 -1.251000 0.425000 0.793999 -0.946511 0.289563 -0.142372 0.132568 0.274902 1 0 1.000000
  0 -1.203000 0.456000 0.614000 -0.934224 0.265361 -0.238348 0.109314 0.149902 1 0 1.000000
ads_scope_lens_1
  0 -1.203000 0.456000 0.614000 -0.934224 0.265361 -0.238348 0.109314 0.149902 1 0 1.000000
  0 -1.251000 0.425000 0.793999 -0.946511 0.289563 -0.142372 0.132568 0.274902 1 0 1.000000
  0 -1.203000 0.542000 0.747000 -0.934766 0.319731 -0.154870 0.049530 0.240234 1 0 1.000000
end
