// Created by Crowbar 0.74
version 1
nodes
  0 "tag_hybrid" -1
  1 "tag_reticle_attach" 0
  2 "tag_reticle_attach2" 0
end
skeleton
  time 0
    0 0.000000 0.000000 0.000000 0.000000 0.000000 0.000000
    1 -1.150000 0.000000 1.075000 0.000000 0.000000 0.000000
    2 2.289000 0.000000 2.309000 0.000000 0.000000 0.000000
end
triangles
ads_scope_lens_1
  0 -1.141000 -0.319000 0.817000 -0.997886 -0.049776 -0.041771 0.748047 0.294922 1 0 1.000000
  0 -1.116000 -0.416000 0.601999 -0.993744 -0.066999 -0.089348 0.824219 0.126465 1 0 1.000000
  0 -1.116000 -0.504000 0.696000 -0.993858 -0.080627 -0.075799 0.893066 0.199707 1 0 1.000000
ads_scope_lens_1
  0 -1.116000 -0.563000 0.790000 -0.993806 -0.097447 -0.053411 0.939453 0.273438 1 0 1.000000
  0 -1.141000 -0.319000 0.817000 -0.997886 -0.049776 -0.041771 0.748047 0.294922 1 0 1.000000
  0 -1.116000 -0.504000 0.696000 -0.993858 -0.080627 -0.075799 0.893066 0.199707 1 0 1.000000
ads_scope_lens_1
  0 -1.141000 -0.383000 0.920000 -0.997523 -0.063354 -0.030554 0.798340 0.375000 1 0 1.000000
  0 -1.141000 -0.319000 0.817000 -0.997886 -0.049776 -0.041771 0.748047 0.294922 1 0 1.000000
  0 -1.116000 -0.563000 0.790000 -0.993806 -0.097447 -0.053411 0.939453 0.273438 1 0 1.000000
ads_scope_lens_1
  0 -1.141000 -0.383000 0.920000 -0.997523 -0.063354 -0.030554 0.798340 0.375000 1 0 1.000000
  0 -1.116000 -0.563000 0.790000 -0.993806 -0.097447 -0.053411 0.939453 0.273438 1 0 1.000000
  0 -1.116000 -0.602000 0.885000 -0.993992 -0.103039 -0.036913 0.970215 0.346680 1 0 1.000000
ads_scope_lens_1
  0 -1.141000 -0.411001 1.038000 -0.997938 -0.063601 -0.008667 0.820313 0.467285 1 0 1.000000
  0 -1.141000 -0.383000 0.920000 -0.997523 -0.063354 -0.030554 0.798340 0.375000 1 0 1.000000
  0 -1.116000 -0.602000 0.885000 -0.993992 -0.103039 -0.036913 0.970215 0.346680 1 0 1.000000
ads_scope_lens_1
  0 -1.141000 -0.411001 1.038000 -0.997938 -0.063601 -0.008667 0.820313 0.467285 1 0 1.000000
  0 -1.116000 -0.602000 0.885000 -0.993992 -0.103039 -0.036913 0.970215 0.346680 1 0 1.000000
  0 -1.116000 -0.625000 0.981000 -0.994180 -0.105792 -0.020343 0.988281 0.421875 1 0 1.000000
ads_scope_lens_1
  0 -1.141000 -0.411001 1.038000 -0.997938 -0.063601 -0.008667 0.820313 0.467285 1 0 1.000000
  0 -1.116000 -0.625000 0.981000 -0.994180 -0.105792 -0.020343 0.988281 0.421875 1 0 1.000000
  0 -1.116000 -0.633000 1.079000 -0.994319 -0.106430 0.001156 0.994629 0.498047 1 0 1.000000
ads_scope_lens_1
  0 -1.141000 -0.407001 1.160000 -0.997686 -0.066578 0.013781 0.817383 0.562012 1 0 1.000000
  0 -1.141000 -0.411001 1.038000 -0.997938 -0.063601 -0.008667 0.820313 0.467285 1 0 1.000000
  0 -1.116000 -0.633000 1.079000 -0.994319 -0.106430 0.001156 0.994629 0.498047 1 0 1.000000
ads_scope_lens_1
  0 -1.141000 -0.407001 1.160000 -0.997686 -0.066578 0.013781 0.817383 0.562012 1 0 1.000000
  0 -1.116000 -0.633000 1.079000 -0.994319 -0.106430 0.001156 0.994629 0.498047 1 0 1.000000
  0 -1.116000 -0.625000 1.176000 -0.994466 -0.103563 0.017655 0.989258 0.574219 1 0 1.000000
ads_scope_lens_1
  0 -1.141000 -0.407001 1.160000 -0.997686 -0.066578 0.013781 0.817383 0.562012 1 0 1.000000
  0 -1.116000 -0.625000 1.176000 -0.994466 -0.103563 0.017655 0.989258 0.574219 1 0 1.000000
  0 -1.116000 -0.602000 1.273000 -0.994074 -0.103170 0.034249 0.971680 0.649414 1 0 1.000000
ads_scope_lens_1
  0 -1.141000 -0.364000 1.273000 -0.997836 -0.058260 0.030482 0.784668 0.650635 1 0 1.000000
  0 -1.141000 -0.407001 1.160000 -0.997686 -0.066578 0.013781 0.817383 0.562012 1 0 1.000000
  0 -1.116000 -0.602000 1.273000 -0.994074 -0.103170 0.034249 0.971680 0.649414 1 0 1.000000
ads_scope_lens_1
  0 -1.141000 -0.364000 1.273000 -0.997836 -0.058260 0.030482 0.784668 0.650635 1 0 1.000000
  0 -1.116000 -0.602000 1.273000 -0.994074 -0.103170 0.034249 0.971680 0.649414 1 0 1.000000
  0 -1.116000 -0.563000 1.367000 -0.994141 -0.092244 0.056338 0.941406 0.723389 1 0 1.000000
ads_scope_lens_1
  0 -1.141000 -0.364000 1.273000 -0.997836 -0.058260 0.030482 0.784668 0.650635 1 0 1.000000
  0 -1.116000 -0.563000 1.367000 -0.994141 -0.092244 0.056338 0.941406 0.723389 1 0 1.000000
  0 -1.116000 -0.504000 1.461000 -0.994433 -0.078678 0.070083 0.895020 0.797363 1 0 1.000000
ads_scope_lens_1
  0 -1.141000 -0.293001 1.372000 -0.997535 -0.049874 0.049353 0.729492 0.727783 1 0 1.000000
  0 -1.141000 -0.364000 1.273000 -0.997836 -0.058260 0.030482 0.784668 0.650635 1 0 1.000000
  0 -1.116000 -0.504000 1.461000 -0.994433 -0.078678 0.070083 0.895020 0.797363 1 0 1.000000
ads_scope_lens_1
  0 -1.141000 -0.293001 1.372000 -0.997535 -0.049874 0.049353 0.729492 0.727783 1 0 1.000000
  0 -1.116000 -0.504000 1.461000 -0.994433 -0.078678 0.070083 0.895020 0.797363 1 0 1.000000
  0 -1.116000 -0.416000 1.556000 -0.993798 -0.070014 0.086391 0.826660 0.871216 1 0 1.000000
ads_scope_lens_1
  0 -1.141000 -0.194000 1.443000 -0.997436 -0.032990 0.063503 0.652832 0.783447 1 0 1.000000
  0 -1.141000 -0.293001 1.372000 -0.997535 -0.049874 0.049353 0.729492 0.727783 1 0 1.000000
  0 -1.116000 -0.416000 1.556000 -0.993798 -0.070014 0.086391 0.826660 0.871216 1 0 1.000000
ads_scope_lens_1
  0 -1.141000 -0.194000 1.443000 -0.997436 -0.032990 0.063503 0.652832 0.783447 1 0 1.000000
  0 -1.116000 -0.416000 1.556000 -0.993798 -0.070014 0.086391 0.826660 0.871216 1 0 1.000000
  0 -1.116000 -0.299001 1.636000 -0.993563 -0.047404 0.102890 0.735840 0.934814 1 0 1.000000
ads_scope_lens_1
  0 -1.141000 -0.194000 1.443000 -0.997436 -0.032990 0.063503 0.652832 0.783447 1 0 1.000000
  0 -1.116000 -0.299001 1.636000 -0.993563 -0.047404 0.102890 0.735840 0.934814 1 0 1.000000
  0 -1.116000 -0.157000 1.692000 -0.993847 -0.022712 0.108409 0.624512 0.978928 1 0 1.000000
ads_scope_lens_1
  0 -1.141000 -0.383000 0.920000 -0.997523 -0.063354 -0.030554 0.798340 0.375000 1 0 1.000000
  0 -1.150000 0.000000 1.079000 -0.999991 -0.004010 0.001323 0.500000 0.500000 1 0 1.000000
  0 -1.141000 -0.319000 0.817000 -0.997886 -0.049776 -0.041771 0.748047 0.294922 1 0 1.000000
ads_scope_lens_1
  0 -1.141000 -0.411001 1.038000 -0.997938 -0.063601 -0.008667 0.820313 0.467285 1 0 1.000000
  0 -1.150000 0.000000 1.079000 -0.999991 -0.004010 0.001323 0.500000 0.500000 1 0 1.000000
  0 -1.141000 -0.383000 0.920000 -0.997523 -0.063354 -0.030554 0.798340 0.375000 1 0 1.000000
ads_scope_lens_1
  0 -1.141000 -0.407001 1.160000 -0.997686 -0.066578 0.013781 0.817383 0.562012 1 0 1.000000
  0 -1.150000 0.000000 1.079000 -0.999991 -0.004010 0.001323 0.500000 0.500000 1 0 1.000000
  0 -1.141000 -0.411001 1.038000 -0.997938 -0.063601 -0.008667 0.820313 0.467285 1 0 1.000000
ads_scope_lens_1
  0 -1.141000 -0.364000 1.273000 -0.997836 -0.058260 0.030482 0.784668 0.650635 1 0 1.000000
  0 -1.150000 0.000000 1.079000 -0.999991 -0.004010 0.001323 0.500000 0.500000 1 0 1.000000
  0 -1.141000 -0.407001 1.160000 -0.997686 -0.066578 0.013781 0.817383 0.562012 1 0 1.000000
ads_scope_lens_1
  0 -1.141000 -0.293001 1.372000 -0.997535 -0.049874 0.049353 0.729492 0.727783 1 0 1.000000
  0 -1.150000 0.000000 1.079000 -0.999991 -0.004010 0.001323 0.500000 0.500000 1 0 1.000000
  0 -1.141000 -0.364000 1.273000 -0.997836 -0.058260 0.030482 0.784668 0.650635 1 0 1.000000
ads_scope_lens_1
  0 -1.141000 -0.194000 1.443000 -0.997436 -0.032990 0.063503 0.652832 0.783447 1 0 1.000000
  0 -1.150000 0.000000 1.079000 -0.999991 -0.004010 0.001323 0.500000 0.500000 1 0 1.000000
  0 -1.141000 -0.293001 1.372000 -0.997535 -0.049874 0.049353 0.729492 0.727783 1 0 1.000000
ads_scope_lens_1
  0 -1.141000 -0.081000 1.485000 -0.997149 -0.013579 0.074220 0.564453 0.817139 1 0 1.000000
  0 -1.150000 0.000000 1.079000 -0.999991 -0.004010 0.001323 0.500000 0.500000 1 0 1.000000
  0 -1.141000 -0.194000 1.443000 -0.997436 -0.032990 0.063503 0.652832 0.783447 1 0 1.000000
ads_scope_lens_1
  0 -1.141000 0.040000 1.489000 -0.997406 0.005509 0.071764 0.469727 0.820679 1 0 1.000000
  0 -1.150000 0.000000 1.079000 -0.999991 -0.004010 0.001323 0.500000 0.500000 1 0 1.000000
  0 -1.141000 -0.081000 1.485000 -0.997149 -0.013579 0.074220 0.564453 0.817139 1 0 1.000000
ads_scope_lens_1
  0 -1.141000 0.159000 1.462000 -0.997247 0.027768 0.068760 0.377441 0.799438 1 0 1.000000
  0 -1.150000 0.000000 1.079000 -0.999991 -0.004010 0.001323 0.500000 0.500000 1 0 1.000000
  0 -1.141000 0.040000 1.489000 -0.997406 0.005509 0.071764 0.469727 0.820679 1 0 1.000000
ads_scope_lens_1
  0 -1.141000 0.262000 1.398000 -0.997647 0.044423 0.052214 0.296631 0.749756 1 0 1.000000
  0 -1.150000 0.000000 1.079000 -0.999991 -0.004010 0.001323 0.500000 0.500000 1 0 1.000000
  0 -1.141000 0.159000 1.462000 -0.997247 0.027768 0.068760 0.377441 0.799438 1 0 1.000000
ads_scope_lens_1
  0 -1.141000 0.363999 1.273000 -0.997660 0.058249 0.035799 0.216675 0.652832 1 0 1.000000
  0 -1.150000 0.000000 1.079000 -0.999991 -0.004010 0.001323 0.500000 0.500000 1 0 1.000000
  0 -1.141000 0.262000 1.398000 -0.997647 0.044423 0.052214 0.296631 0.749756 1 0 1.000000
ads_scope_lens_1
  0 -1.141000 0.407000 1.160000 -0.997864 0.063899 0.013590 0.183105 0.564209 1 0 1.000000
  0 -1.150000 0.000000 1.079000 -0.999991 -0.004010 0.001323 0.500000 0.500000 1 0 1.000000
  0 -1.141000 0.363999 1.273000 -0.997660 0.058249 0.035799 0.216675 0.652832 1 0 1.000000
ads_scope_lens_1
  0 -1.141000 0.411000 1.038000 -0.997935 0.063944 -0.006032 0.179565 0.469727 1 0 1.000000
  0 -1.150000 0.000000 1.079000 -0.999991 -0.004010 0.001323 0.500000 0.500000 1 0 1.000000
  0 -1.141000 0.407000 1.160000 -0.997864 0.063899 0.013590 0.183105 0.564209 1 0 1.000000
ads_scope_lens_1
  0 -1.141000 0.383000 0.920000 -0.997866 0.061208 -0.022751 0.200684 0.377441 1 0 1.000000
  0 -1.150000 0.000000 1.079000 -0.999991 -0.004010 0.001323 0.500000 0.500000 1 0 1.000000
  0 -1.141000 0.411000 1.038000 -0.997935 0.063944 -0.006032 0.179565 0.469727 1 0 1.000000
ads_scope_lens_1
  0 -1.141000 0.319000 0.817000 -0.997620 0.052512 -0.044692 0.250488 0.296875 1 0 1.000000
  0 -1.150000 0.000000 1.079000 -0.999991 -0.004010 0.001323 0.500000 0.500000 1 0 1.000000
  0 -1.141000 0.383000 0.920000 -0.997866 0.061208 -0.022751 0.200684 0.377441 1 0 1.000000
ads_scope_lens_1
  0 -1.141000 0.230000 0.734000 -0.997554 0.038566 -0.058299 0.319336 0.231934 1 0 1.000000
  0 -1.150000 0.000000 1.079000 -0.999991 -0.004010 0.001323 0.500000 0.500000 1 0 1.000000
  0 -1.141000 0.319000 0.817000 -0.997620 0.052512 -0.044692 0.250488 0.296875 1 0 1.000000
ads_scope_lens_1
  0 -1.141000 0.120000 0.684000 -0.997635 0.016743 -0.066656 0.405273 0.192383 1 0 1.000000
  0 -1.150000 0.000000 1.079000 -0.999991 -0.004010 0.001323 0.500000 0.500000 1 0 1.000000
  0 -1.141000 0.230000 0.734000 -0.997554 0.038566 -0.058299 0.319336 0.231934 1 0 1.000000
ads_scope_lens_1
  0 -1.141000 0.000000 0.663999 -0.997209 -0.002858 -0.074607 0.498779 0.176270 1 0 1.000000
  0 -1.150000 0.000000 1.079000 -0.999991 -0.004010 0.001323 0.500000 0.500000 1 0 1.000000
  0 -1.141000 0.120000 0.684000 -0.997635 0.016743 -0.066656 0.405273 0.192383 1 0 1.000000
ads_scope_lens_1
  0 -1.141000 -0.120000 0.684000 -0.997645 -0.016619 -0.066548 0.592285 0.191406 1 0 1.000000
  0 -1.150000 0.000000 1.079000 -0.999991 -0.004010 0.001323 0.500000 0.500000 1 0 1.000000
  0 -1.141000 0.000000 0.663999 -0.997209 -0.002858 -0.074607 0.498779 0.176270 1 0 1.000000
ads_scope_lens_1
  0 -1.141000 -0.230000 0.734000 -0.997140 -0.041005 -0.063479 0.678711 0.230469 1 0 1.000000
  0 -1.150000 0.000000 1.079000 -0.999991 -0.004010 0.001323 0.500000 0.500000 1 0 1.000000
  0 -1.141000 -0.120000 0.684000 -0.997645 -0.016619 -0.066548 0.592285 0.191406 1 0 1.000000
ads_scope_lens_1
  0 -1.141000 0.383000 0.920000 -0.997866 0.061208 -0.022751 0.200684 0.377441 1 0 1.000000
  0 -1.141000 0.411000 1.038000 -0.997935 0.063944 -0.006032 0.179565 0.469727 1 0 1.000000
  0 -1.116000 0.602000 0.885000 -0.994219 0.100577 -0.037593 0.028534 0.350586 1 0 1.000000
ads_scope_lens_1
  0 -1.141000 0.383000 0.920000 -0.997866 0.061208 -0.022751 0.200684 0.377441 1 0 1.000000
  0 -1.116000 0.602000 0.885000 -0.994219 0.100577 -0.037593 0.028534 0.350586 1 0 1.000000
  0 -1.116000 0.563000 0.790000 -0.994007 0.095064 -0.053978 0.058777 0.276367 1 0 1.000000
ads_scope_lens_1
  0 -1.141000 0.319000 0.817000 -0.997620 0.052512 -0.044692 0.250488 0.296875 1 0 1.000000
  0 -1.141000 0.383000 0.920000 -0.997866 0.061208 -0.022751 0.200684 0.377441 1 0 1.000000
  0 -1.116000 0.563000 0.790000 -0.994007 0.095064 -0.053978 0.058777 0.276367 1 0 1.000000
ads_scope_lens_1
  0 -1.141000 0.319000 0.817000 -0.997620 0.052512 -0.044692 0.250488 0.296875 1 0 1.000000
  0 -1.116000 0.563000 0.790000 -0.994007 0.095064 -0.053978 0.058777 0.276367 1 0 1.000000
  0 -1.116000 0.504000 0.696000 -0.994398 0.078553 -0.070727 0.104736 0.202637 1 0 1.000000
ads_scope_lens_1
  0 -1.141000 0.319000 0.817000 -0.997620 0.052512 -0.044692 0.250488 0.296875 1 0 1.000000
  0 -1.116000 0.504000 0.696000 -0.994398 0.078553 -0.070727 0.104736 0.202637 1 0 1.000000
  0 -1.116000 0.416000 0.601999 -0.994328 0.064650 -0.084454 0.173096 0.128906 1 0 1.000000
ads_scope_lens_1
  0 -1.141000 0.230000 0.734000 -0.997554 0.038566 -0.058299 0.319336 0.231934 1 0 1.000000
  0 -1.141000 0.319000 0.817000 -0.997620 0.052512 -0.044692 0.250488 0.296875 1 0 1.000000
  0 -1.116000 0.416000 0.601999 -0.994328 0.064650 -0.084454 0.173096 0.128906 1 0 1.000000
ads_scope_lens_1
  0 -1.141000 0.230000 0.734000 -0.997554 0.038566 -0.058299 0.319336 0.231934 1 0 1.000000
  0 -1.116000 0.416000 0.601999 -0.994328 0.064650 -0.084454 0.173096 0.128906 1 0 1.000000
  0 -1.116000 0.299000 0.521000 -0.993644 0.050372 -0.100666 0.263916 0.065430 1 0 1.000000
ads_scope_lens_1
  0 -1.141000 0.120000 0.684000 -0.997635 0.016743 -0.066656 0.405273 0.192383 1 0 1.000000
  0 -1.141000 0.230000 0.734000 -0.997554 0.038566 -0.058299 0.319336 0.231934 1 0 1.000000
  0 -1.116000 0.299000 0.521000 -0.993644 0.050372 -0.100666 0.263916 0.065430 1 0 1.000000
ads_scope_lens_1
  0 -1.141000 0.120000 0.684000 -0.997635 0.016743 -0.066656 0.405273 0.192383 1 0 1.000000
  0 -1.116000 0.299000 0.521000 -0.993644 0.050372 -0.100666 0.263916 0.065430 1 0 1.000000
  0 -1.116000 0.157000 0.466000 -0.994178 0.017716 -0.106284 0.375244 0.020996 1 0 1.000000
ads_scope_lens_1
  0 -1.141000 0.000000 0.663999 -0.997209 -0.002858 -0.074607 0.498779 0.176270 1 0 1.000000
  0 -1.141000 0.120000 0.684000 -0.997635 0.016743 -0.066656 0.405273 0.192383 1 0 1.000000
  0 -1.116000 0.157000 0.466000 -0.994178 0.017716 -0.106284 0.375244 0.020996 1 0 1.000000
ads_scope_lens_1
  0 -1.141000 0.000000 0.663999 -0.997209 -0.002858 -0.074607 0.498779 0.176270 1 0 1.000000
  0 -1.116000 0.157000 0.466000 -0.994178 0.017716 -0.106284 0.375244 0.020996 1 0 1.000000
  0 -1.116000 0.000000 0.446000 -0.994026 -0.007231 -0.108901 0.498047 0.005371 1 0 1.000000
ads_scope_lens_1
  0 -1.141000 0.000000 0.663999 -0.997209 -0.002858 -0.074607 0.498779 0.176270 1 0 1.000000
  0 -1.116000 0.000000 0.446000 -0.994026 -0.007231 -0.108901 0.498047 0.005371 1 0 1.000000
  0 -1.116000 -0.157000 0.466000 -0.993859 -0.020111 -0.108808 0.621094 0.020020 1 0 1.000000
ads_scope_lens_1
  0 -1.141000 -0.120000 0.684000 -0.997645 -0.016619 -0.066548 0.592285 0.191406 1 0 1.000000
  0 -1.141000 0.000000 0.663999 -0.997209 -0.002858 -0.074607 0.498779 0.176270 1 0 1.000000
  0 -1.116000 -0.157000 0.466000 -0.993859 -0.020111 -0.108808 0.621094 0.020020 1 0 1.000000
ads_scope_lens_1
  0 -1.141000 -0.120000 0.684000 -0.997645 -0.016619 -0.066548 0.592285 0.191406 1 0 1.000000
  0 -1.116000 -0.157000 0.466000 -0.993859 -0.020111 -0.108808 0.621094 0.020020 1 0 1.000000
  0 -1.116000 -0.299001 0.521000 -0.993411 -0.050190 -0.103027 0.732910 0.063477 1 0 1.000000
ads_scope_lens_1
  0 -1.141000 -0.230000 0.734000 -0.997140 -0.041005 -0.063479 0.678711 0.230469 1 0 1.000000
  0 -1.141000 -0.120000 0.684000 -0.997645 -0.016619 -0.066548 0.592285 0.191406 1 0 1.000000
  0 -1.116000 -0.299001 0.521000 -0.993411 -0.050190 -0.103027 0.732910 0.063477 1 0 1.000000
ads_scope_lens_1
  0 -1.141000 -0.230000 0.734000 -0.997140 -0.041005 -0.063479 0.678711 0.230469 1 0 1.000000
  0 -1.116000 -0.299001 0.521000 -0.993411 -0.050190 -0.103027 0.732910 0.063477 1 0 1.000000
  0 -1.116000 -0.416000 0.601999 -0.993744 -0.066999 -0.089348 0.824219 0.126465 1 0 1.000000
ads_scope_lens_1
  0 -1.141000 -0.319000 0.817000 -0.997886 -0.049776 -0.041771 0.748047 0.294922 1 0 1.000000
  0 -1.141000 -0.230000 0.734000 -0.997140 -0.041005 -0.063479 0.678711 0.230469 1 0 1.000000
  0 -1.116000 -0.416000 0.601999 -0.993744 -0.066999 -0.089348 0.824219 0.126465 1 0 1.000000
ads_scope_lens_1
  0 -1.141000 -0.319000 0.817000 -0.997886 -0.049776 -0.041771 0.748047 0.294922 1 0 1.000000
  0 -1.150000 0.000000 1.079000 -0.999991 -0.004010 0.001323 0.500000 0.500000 1 0 1.000000
  0 -1.141000 -0.230000 0.734000 -0.997140 -0.041005 -0.063479 0.678711 0.230469 1 0 1.000000
ads_scope_lens_1
  0 -1.141000 -0.081000 1.485000 -0.997149 -0.013579 0.074220 0.564453 0.817139 1 0 1.000000
  0 -1.141000 -0.194000 1.443000 -0.997436 -0.032990 0.063503 0.652832 0.783447 1 0 1.000000
  0 -1.116000 -0.157000 1.692000 -0.993847 -0.022712 0.108409 0.624512 0.978928 1 0 1.000000
ads_scope_lens_1
  0 -1.141000 -0.081000 1.485000 -0.997149 -0.013579 0.074220 0.564453 0.817139 1 0 1.000000
  0 -1.116000 -0.157000 1.692000 -0.993847 -0.022712 0.108409 0.624512 0.978928 1 0 1.000000
  0 -1.116000 0.000000 1.711000 -0.993511 0.002060 0.113713 0.501953 0.994869 1 0 1.000000
ads_scope_lens_1
  0 -1.141000 0.040000 1.489000 -0.997406 0.005509 0.071764 0.469727 0.820679 1 0 1.000000
  0 -1.141000 -0.081000 1.485000 -0.997149 -0.013579 0.074220 0.564453 0.817139 1 0 1.000000
  0 -1.116000 0.000000 1.711000 -0.993511 0.002060 0.113713 0.501953 0.994869 1 0 1.000000
ads_scope_lens_1
  0 -1.141000 0.040000 1.489000 -0.997406 0.005509 0.071764 0.469727 0.820679 1 0 1.000000
  0 -1.116000 0.000000 1.711000 -0.993511 0.002060 0.113713 0.501953 0.994869 1 0 1.000000
  0 -1.116000 0.157000 1.692000 -0.993838 0.023434 0.108338 0.378906 0.979813 1 0 1.000000
ads_scope_lens_1
  0 -1.141000 0.159000 1.462000 -0.997247 0.027768 0.068760 0.377441 0.799438 1 0 1.000000
  0 -1.141000 0.040000 1.489000 -0.997406 0.005509 0.071764 0.469727 0.820679 1 0 1.000000
  0 -1.116000 0.157000 1.692000 -0.993838 0.023434 0.108338 0.378906 0.979813 1 0 1.000000
ads_scope_lens_1
  0 -1.141000 0.159000 1.462000 -0.997247 0.027768 0.068760 0.377441 0.799438 1 0 1.000000
  0 -1.116000 0.157000 1.692000 -0.993838 0.023434 0.108338 0.378906 0.979813 1 0 1.000000
  0 -1.116000 0.299000 1.636000 -0.993940 0.045422 0.100100 0.267334 0.936646 1 0 1.000000
ads_scope_lens_1
  0 -1.141000 0.262000 1.398000 -0.997647 0.044423 0.052214 0.296631 0.749756 1 0 1.000000
  0 -1.141000 0.159000 1.462000 -0.997247 0.027768 0.068760 0.377441 0.799438 1 0 1.000000
  0 -1.116000 0.299000 1.636000 -0.993940 0.045422 0.100100 0.267334 0.936646 1 0 1.000000
ads_scope_lens_1
  0 -1.141000 0.262000 1.398000 -0.997647 0.044423 0.052214 0.296631 0.749756 1 0 1.000000
  0 -1.116000 0.299000 1.636000 -0.993940 0.045422 0.100100 0.267334 0.936646 1 0 1.000000
  0 -1.116000 0.416000 1.556000 -0.994151 0.064788 0.086403 0.175903 0.873779 1 0 1.000000
ads_scope_lens_1
  0 -1.141000 0.262000 1.398000 -0.997647 0.044423 0.052214 0.296631 0.749756 1 0 1.000000
  0 -1.116000 0.416000 1.556000 -0.994151 0.064788 0.086403 0.175903 0.873779 1 0 1.000000
  0 -1.116000 0.504000 1.461000 -0.994017 0.084156 0.069630 0.107056 0.800415 1 0 1.000000
ads_scope_lens_1
  0 -1.141000 0.363999 1.273000 -0.997660 0.058249 0.035799 0.216675 0.652832 1 0 1.000000
  0 -1.141000 0.262000 1.398000 -0.997647 0.044423 0.052214 0.296631 0.749756 1 0 1.000000
  0 -1.116000 0.504000 1.461000 -0.994017 0.084156 0.069630 0.107056 0.800415 1 0 1.000000
ads_scope_lens_1
  0 -1.141000 0.363999 1.273000 -0.997660 0.058249 0.035799 0.216675 0.652832 1 0 1.000000
  0 -1.116000 0.504000 1.461000 -0.994017 0.084156 0.069630 0.107056 0.800415 1 0 1.000000
  0 -1.116000 0.563000 1.367000 -0.994459 0.087226 0.058675 0.060486 0.726807 1 0 1.000000
ads_scope_lens_1
  0 -1.141000 0.363999 1.273000 -0.997660 0.058249 0.035799 0.216675 0.652832 1 0 1.000000
  0 -1.116000 0.563000 1.367000 -0.994459 0.087226 0.058675 0.060486 0.726807 1 0 1.000000
  0 -1.116000 0.602000 1.273000 -0.993970 0.103367 0.036585 0.029709 0.653076 1 0 1.000000
ads_scope_lens_1
  0 -1.141000 0.407000 1.160000 -0.997864 0.063899 0.013590 0.183105 0.564209 1 0 1.000000
  0 -1.141000 0.363999 1.273000 -0.997660 0.058249 0.035799 0.216675 0.652832 1 0 1.000000
  0 -1.116000 0.602000 1.273000 -0.993970 0.103367 0.036585 0.029709 0.653076 1 0 1.000000
ads_scope_lens_1
  0 -1.141000 0.407000 1.160000 -0.997864 0.063899 0.013590 0.183105 0.564209 1 0 1.000000
  0 -1.116000 0.602000 1.273000 -0.993970 0.103367 0.036585 0.029709 0.653076 1 0 1.000000
  0 -1.116000 0.625000 1.176000 -0.994413 0.103653 0.019956 0.011559 0.577881 1 0 1.000000
ads_scope_lens_1
  0 -1.141000 0.407000 1.160000 -0.997864 0.063899 0.013590 0.183105 0.564209 1 0 1.000000
  0 -1.116000 0.625000 1.176000 -0.994413 0.103653 0.019956 0.011559 0.577881 1 0 1.000000
  0 -1.116000 0.633000 1.079000 -0.994324 0.106323 0.003922 0.005379 0.501953 1 0 1.000000
ads_scope_lens_1
  0 -1.141000 0.411000 1.038000 -0.997935 0.063944 -0.006032 0.179565 0.469727 1 0 1.000000
  0 -1.141000 0.407000 1.160000 -0.997864 0.063899 0.013590 0.183105 0.564209 1 0 1.000000
  0 -1.116000 0.633000 1.079000 -0.994324 0.106323 0.003922 0.005379 0.501953 1 0 1.000000
ads_scope_lens_1
  0 -1.141000 0.411000 1.038000 -0.997935 0.063944 -0.006032 0.179565 0.469727 1 0 1.000000
  0 -1.116000 0.633000 1.079000 -0.994324 0.106323 0.003922 0.005379 0.501953 1 0 1.000000
  0 -1.116000 0.625000 0.981000 -0.994135 0.106085 -0.020999 0.010971 0.425781 1 0 1.000000
ads_scope_lens_1
  0 -1.141000 0.411000 1.038000 -0.997935 0.063944 -0.006032 0.179565 0.469727 1 0 1.000000
  0 -1.116000 0.625000 0.981000 -0.994135 0.106085 -0.020999 0.010971 0.425781 1 0 1.000000
  0 -1.116000 0.602000 0.885000 -0.994219 0.100577 -0.037593 0.028534 0.350586 1 0 1.000000
end
