// Created by Crowbar 0.74
version 1
nodes
  0 "tag_hybrid" -1
  1 "j_magnifier" 0
  2 "tag_reticle_attach" 1
  3 "tag_glass_ads2" 0
  4 "tag_glass_hip2" 0
  5 "tag_reticle_attach2" 0
end
skeleton
  time 0
    0 0.000000 0.000000 0.000000 0.000000 0.000000 0.000000
    1 -0.001000 -0.189000 0.239000 0.000000 0.000000 0.000000
    2 -1.357000 0.189000 0.866000 0.000000 0.000000 0.000000
    3 0.000000 0.000000 0.000000 0.000000 0.000000 0.000000
    4 0.000000 0.000000 0.000000 0.000000 0.000000 0.000000
    5 1.270000 0.000000 1.105000 0.000000 0.000000 0.000000
end
triangles
reticle_ui_stencil
  0 -1.301000 0.001000 1.105000 -0.999975 0.006831 -0.001729 0.500000 0.500000 1 0 1.000000
  0 -1.301000 -0.201000 1.454000 -0.999975 0.006831 -0.001729 0.749512 0.932129 1 0 1.000000
  0 -1.301000 0.001000 1.508000 -0.999975 0.006831 -0.001729 0.500000 0.998940 1 0 1.000000
reticle_ui_stencil
  0 -1.301000 -0.348000 1.307000 -0.999975 0.006831 -0.001729 0.932129 0.749512 1 0 1.000000
  0 -1.301000 -0.201000 1.454000 -0.999975 0.006831 -0.001729 0.749512 0.932129 1 0 1.000000
  0 -1.301000 0.001000 1.105000 -0.999975 0.006831 -0.001729 0.500000 0.500000 1 0 1.000000
reticle_ui_stencil
  0 -1.301000 -0.348000 1.307000 -0.999975 0.006831 -0.001729 0.932129 0.749512 1 0 1.000000
  0 -1.301000 0.001000 1.105000 -0.999975 0.006831 -0.001729 0.500000 0.500000 1 0 1.000000
  0 -1.301000 -0.402000 1.105000 -0.999975 0.006831 -0.001729 0.999023 0.500000 1 0 1.000000
reticle_ui_stencil
  0 -1.301000 0.001000 1.105000 -0.999975 0.006831 -0.001729 0.500000 0.500000 1 0 1.000000
  0 -1.301000 -0.348000 0.904000 -0.999975 0.006831 -0.001729 0.932129 0.250488 1 0 1.000000
  0 -1.301000 -0.402000 1.105000 -0.999975 0.006831 -0.001729 0.999023 0.500000 1 0 1.000000
reticle_ui_stencil
  0 -1.301000 0.001000 1.105000 -0.999975 0.006831 -0.001729 0.500000 0.500000 1 0 1.000000
  0 -1.301000 -0.201000 0.756000 -0.999975 0.006831 -0.001729 0.749512 0.067871 1 0 1.000000
  0 -1.301000 -0.348000 0.904000 -0.999975 0.006831 -0.001729 0.932129 0.250488 1 0 1.000000
reticle_ui_stencil
  0 -1.301000 0.001000 1.105000 -0.999975 0.006831 -0.001729 0.500000 0.500000 1 0 1.000000
  0 -1.301000 0.001000 0.702000 -0.999975 0.006831 -0.001729 0.500000 0.000977 1 0 1.000000
  0 -1.301000 -0.201000 0.756000 -0.999975 0.006831 -0.001729 0.749512 0.067871 1 0 1.000000
reticle_ui_stencil
  0 -1.301000 0.001000 1.105000 -0.999975 0.006831 -0.001729 0.500000 0.500000 1 0 1.000000
  0 -1.301000 0.202000 0.756000 -0.999975 0.006831 -0.001729 0.250488 0.067871 1 0 1.000000
  0 -1.301000 0.001000 0.702000 -0.999975 0.006831 -0.001729 0.500000 0.000977 1 0 1.000000
reticle_ui_stencil
  0 -1.301000 0.001000 1.105000 -0.999975 0.006831 -0.001729 0.500000 0.500000 1 0 1.000000
  0 -1.301000 0.350000 0.904000 -0.999975 0.006831 -0.001729 0.067810 0.250488 1 0 1.000000
  0 -1.301000 0.202000 0.756000 -0.999975 0.006831 -0.001729 0.250488 0.067871 1 0 1.000000
reticle_ui_stencil
  0 -1.301000 0.001000 1.105000 -0.999975 0.006831 -0.001729 0.500000 0.500000 1 0 1.000000
  0 -1.301000 0.404000 1.105000 -0.999975 0.006831 -0.001729 0.000970 0.500000 1 0 1.000000
  0 -1.301000 0.350000 0.904000 -0.999975 0.006831 -0.001729 0.067810 0.250488 1 0 1.000000
reticle_ui_stencil
  0 -1.301000 0.001000 1.105000 -0.999975 0.006831 -0.001729 0.500000 0.500000 1 0 1.000000
  0 -1.301000 0.350000 1.307000 -0.999975 0.006831 -0.001729 0.067810 0.749512 1 0 1.000000
  0 -1.301000 0.404000 1.105000 -0.999975 0.006831 -0.001729 0.000970 0.500000 1 0 1.000000
reticle_ui_stencil
  0 -1.301000 0.001000 1.105000 -0.999975 0.006831 -0.001729 0.500000 0.500000 1 0 1.000000
  0 -1.301000 0.202000 1.454000 -0.999975 0.006831 -0.001729 0.250488 0.932129 1 0 1.000000
  0 -1.301000 0.350000 1.307000 -0.999975 0.006831 -0.001729 0.067810 0.749512 1 0 1.000000
reticle_ui_stencil
  0 -1.301000 0.001000 1.105000 -0.999975 0.006831 -0.001729 0.500000 0.500000 1 0 1.000000
  0 -1.301000 0.001000 1.508000 -0.999975 0.006831 -0.001729 0.500000 0.998940 1 0 1.000000
  0 -1.301000 0.202000 1.454000 -0.999975 0.006831 -0.001729 0.250488 0.932129 1 0 1.000000
vm_depth_mask_start
  0 -1.301000 0.001000 1.105000 -0.999975 0.006831 -0.001729 0.500000 0.500000 1 0 1.000000
  0 -1.301000 -0.201000 1.454000 -0.999975 0.006831 -0.001729 0.749512 0.932129 1 0 1.000000
  0 -1.301000 0.001000 1.508000 -0.999975 0.006831 -0.001729 0.500000 0.998970 1 0 1.000000
vm_depth_mask_start
  0 -1.301000 -0.348000 1.307000 -0.999975 0.006831 -0.001729 0.932129 0.749512 1 0 1.000000
  0 -1.301000 -0.201000 1.454000 -0.999975 0.006831 -0.001729 0.749512 0.932129 1 0 1.000000
  0 -1.301000 0.001000 1.105000 -0.999975 0.006831 -0.001729 0.500000 0.500000 1 0 1.000000
vm_depth_mask_start
  0 -1.301000 -0.348000 1.307000 -0.999975 0.006831 -0.001729 0.932129 0.749512 1 0 1.000000
  0 -1.301000 0.001000 1.105000 -0.999975 0.006831 -0.001729 0.500000 0.500000 1 0 1.000000
  0 -1.301000 -0.402000 1.105000 -0.999975 0.006831 -0.001729 0.999023 0.500000 1 0 1.000000
vm_depth_mask_start
  0 -1.301000 0.001000 1.105000 -0.999975 0.006831 -0.001729 0.500000 0.500000 1 0 1.000000
  0 -1.301000 -0.348000 0.904000 -0.999975 0.006831 -0.001729 0.932129 0.250488 1 0 1.000000
  0 -1.301000 -0.402000 1.105000 -0.999975 0.006831 -0.001729 0.999023 0.500000 1 0 1.000000
vm_depth_mask_start
  0 -1.301000 0.001000 1.105000 -0.999975 0.006831 -0.001729 0.500000 0.500000 1 0 1.000000
  0 -1.301000 -0.201000 0.756000 -0.999975 0.006831 -0.001729 0.749512 0.067871 1 0 1.000000
  0 -1.301000 -0.348000 0.904000 -0.999975 0.006831 -0.001729 0.932129 0.250488 1 0 1.000000
vm_depth_mask_start
  0 -1.301000 0.001000 1.105000 -0.999975 0.006831 -0.001729 0.500000 0.500000 1 0 1.000000
  0 -1.301000 0.001000 0.702000 -0.999975 0.006831 -0.001729 0.500000 0.000977 1 0 1.000000
  0 -1.301000 -0.201000 0.756000 -0.999975 0.006831 -0.001729 0.749512 0.067871 1 0 1.000000
vm_depth_mask_start
  0 -1.301000 0.001000 1.105000 -0.999975 0.006831 -0.001729 0.500000 0.500000 1 0 1.000000
  0 -1.301000 0.202000 0.756000 -0.999975 0.006831 -0.001729 0.250488 0.067871 1 0 1.000000
  0 -1.301000 0.001000 0.702000 -0.999975 0.006831 -0.001729 0.500000 0.000977 1 0 1.000000
vm_depth_mask_start
  0 -1.301000 0.001000 1.105000 -0.999975 0.006831 -0.001729 0.500000 0.500000 1 0 1.000000
  0 -1.301000 0.350000 0.904000 -0.999975 0.006831 -0.001729 0.067810 0.250488 1 0 1.000000
  0 -1.301000 0.202000 0.756000 -0.999975 0.006831 -0.001729 0.250488 0.067871 1 0 1.000000
vm_depth_mask_start
  0 -1.301000 0.001000 1.105000 -0.999975 0.006831 -0.001729 0.500000 0.500000 1 0 1.000000
  0 -1.301000 0.404000 1.105000 -0.999975 0.006831 -0.001729 0.000960 0.500000 1 0 1.000000
  0 -1.301000 0.350000 0.904000 -0.999975 0.006831 -0.001729 0.067810 0.250488 1 0 1.000000
vm_depth_mask_start
  0 -1.301000 0.001000 1.105000 -0.999975 0.006831 -0.001729 0.500000 0.500000 1 0 1.000000
  0 -1.301000 0.350000 1.307000 -0.999975 0.006831 -0.001729 0.067810 0.749512 1 0 1.000000
  0 -1.301000 0.404000 1.105000 -0.999975 0.006831 -0.001729 0.000960 0.500000 1 0 1.000000
vm_depth_mask_start
  0 -1.301000 0.001000 1.105000 -0.999975 0.006831 -0.001729 0.500000 0.500000 1 0 1.000000
  0 -1.301000 0.202000 1.454000 -0.999975 0.006831 -0.001729 0.250488 0.932129 1 0 1.000000
  0 -1.301000 0.350000 1.307000 -0.999975 0.006831 -0.001729 0.067810 0.749512 1 0 1.000000
vm_depth_mask_start
  0 -1.301000 0.001000 1.105000 -0.999975 0.006831 -0.001729 0.500000 0.500000 1 0 1.000000
  0 -1.301000 0.001000 1.508000 -0.999975 0.006831 -0.001729 0.500000 0.998970 1 0 1.000000
  0 -1.301000 0.202000 1.454000 -0.999975 0.006831 -0.001729 0.250488 0.932129 1 0 1.000000
vm_depth_mask_end
  0 -1.301000 0.001000 1.105000 -0.999975 0.006831 -0.001729 0.500000 0.500000 1 0 1.000000
  0 -1.301000 -0.201000 1.454000 -0.999975 0.006831 -0.001729 0.749512 0.932129 1 0 1.000000
  0 -1.301000 0.001000 1.508000 -0.999975 0.006831 -0.001729 0.500000 0.998970 1 0 1.000000
vm_depth_mask_end
  0 -1.301000 -0.348000 1.307000 -0.999975 0.006831 -0.001729 0.932129 0.749512 1 0 1.000000
  0 -1.301000 -0.201000 1.454000 -0.999975 0.006831 -0.001729 0.749512 0.932129 1 0 1.000000
  0 -1.301000 0.001000 1.105000 -0.999975 0.006831 -0.001729 0.500000 0.500000 1 0 1.000000
vm_depth_mask_end
  0 -1.301000 -0.348000 1.307000 -0.999975 0.006831 -0.001729 0.932129 0.749512 1 0 1.000000
  0 -1.301000 0.001000 1.105000 -0.999975 0.006831 -0.001729 0.500000 0.500000 1 0 1.000000
  0 -1.301000 -0.402000 1.105000 -0.999975 0.006831 -0.001729 0.999023 0.500000 1 0 1.000000
vm_depth_mask_end
  0 -1.301000 0.001000 1.105000 -0.999975 0.006831 -0.001729 0.500000 0.500000 1 0 1.000000
  0 -1.301000 -0.348000 0.904000 -0.999975 0.006831 -0.001729 0.932129 0.250488 1 0 1.000000
  0 -1.301000 -0.402000 1.105000 -0.999975 0.006831 -0.001729 0.999023 0.500000 1 0 1.000000
vm_depth_mask_end
  0 -1.301000 0.001000 1.105000 -0.999975 0.006831 -0.001729 0.500000 0.500000 1 0 1.000000
  0 -1.301000 -0.201000 0.756000 -0.999975 0.006831 -0.001729 0.749512 0.067871 1 0 1.000000
  0 -1.301000 -0.348000 0.904000 -0.999975 0.006831 -0.001729 0.932129 0.250488 1 0 1.000000
vm_depth_mask_end
  0 -1.301000 0.001000 1.105000 -0.999975 0.006831 -0.001729 0.500000 0.500000 1 0 1.000000
  0 -1.301000 0.001000 0.702000 -0.999975 0.006831 -0.001729 0.500000 0.000977 1 0 1.000000
  0 -1.301000 -0.201000 0.756000 -0.999975 0.006831 -0.001729 0.749512 0.067871 1 0 1.000000
vm_depth_mask_end
  0 -1.301000 0.001000 1.105000 -0.999975 0.006831 -0.001729 0.500000 0.500000 1 0 1.000000
  0 -1.301000 0.202000 0.756000 -0.999975 0.006831 -0.001729 0.250488 0.067871 1 0 1.000000
  0 -1.301000 0.001000 0.702000 -0.999975 0.006831 -0.001729 0.500000 0.000977 1 0 1.000000
vm_depth_mask_end
  0 -1.301000 0.001000 1.105000 -0.999975 0.006831 -0.001729 0.500000 0.500000 1 0 1.000000
  0 -1.301000 0.350000 0.904000 -0.999975 0.006831 -0.001729 0.067810 0.250488 1 0 1.000000
  0 -1.301000 0.202000 0.756000 -0.999975 0.006831 -0.001729 0.250488 0.067871 1 0 1.000000
vm_depth_mask_end
  0 -1.301000 0.001000 1.105000 -0.999975 0.006831 -0.001729 0.500000 0.500000 1 0 1.000000
  0 -1.301000 0.404000 1.105000 -0.999975 0.006831 -0.001729 0.000960 0.500000 1 0 1.000000
  0 -1.301000 0.350000 0.904000 -0.999975 0.006831 -0.001729 0.067810 0.250488 1 0 1.000000
vm_depth_mask_end
  0 -1.301000 0.001000 1.105000 -0.999975 0.006831 -0.001729 0.500000 0.500000 1 0 1.000000
  0 -1.301000 0.350000 1.307000 -0.999975 0.006831 -0.001729 0.067810 0.749512 1 0 1.000000
  0 -1.301000 0.404000 1.105000 -0.999975 0.006831 -0.001729 0.000960 0.500000 1 0 1.000000
vm_depth_mask_end
  0 -1.301000 0.001000 1.105000 -0.999975 0.006831 -0.001729 0.500000 0.500000 1 0 1.000000
  0 -1.301000 0.202000 1.454000 -0.999975 0.006831 -0.001729 0.250488 0.932129 1 0 1.000000
  0 -1.301000 0.350000 1.307000 -0.999975 0.006831 -0.001729 0.067810 0.749512 1 0 1.000000
vm_depth_mask_end
  0 -1.301000 0.001000 1.105000 -0.999975 0.006831 -0.001729 0.500000 0.500000 1 0 1.000000
  0 -1.301000 0.001000 1.508000 -0.999975 0.006831 -0.001729 0.500000 0.998970 1 0 1.000000
  0 -1.301000 0.202000 1.454000 -0.999975 0.006831 -0.001729 0.250488 0.932129 1 0 1.000000
ads_scope_lens_1
  0 -1.345000 0.086000 1.268000 -0.984611 0.078719 0.156025 0.388916 0.709717 1 0 1.000000
  0 -1.302000 0.092000 1.463000 -0.974841 0.078612 0.208578 0.381836 0.961243 1 0 1.000000
  0 -1.302000 0.147000 1.445000 -0.974841 0.078612 0.208578 0.311035 0.937134 1 0 1.000000
ads_scope_lens_1
  0 -1.345000 0.086000 1.268000 -0.984611 0.078719 0.156025 0.388916 0.709717 1 0 1.000000
  0 -1.302000 0.147000 1.445000 -0.974841 0.078612 0.208578 0.311035 0.937134 1 0 1.000000
  0 -1.302000 0.198000 1.417000 -0.975732 0.136721 0.171040 0.244995 0.902100 1 0 1.000000
ads_scope_lens_1
  0 -1.345000 0.086000 1.268000 -0.984611 0.078719 0.156025 0.388916 0.709717 1 0 1.000000
  0 -1.302000 0.198000 1.417000 -0.975732 0.136721 0.171040 0.244995 0.902100 1 0 1.000000
  0 -1.345000 0.132000 1.234000 -0.984738 0.122971 0.123162 0.329590 0.665283 1 0 1.000000
ads_scope_lens_1
  0 -1.345000 0.132000 1.234000 -0.984738 0.122971 0.123162 0.329590 0.665283 1 0 1.000000
  0 -1.302000 0.198000 1.417000 -0.975732 0.136721 0.171040 0.244995 0.902100 1 0 1.000000
  0 -1.302000 0.244000 1.383000 -0.975732 0.136721 0.171040 0.185303 0.857300 1 0 1.000000
ads_scope_lens_1
  0 -1.345000 0.132000 1.234000 -0.984738 0.122971 0.123162 0.329590 0.665283 1 0 1.000000
  0 -1.302000 0.244000 1.383000 -0.975732 0.136721 0.171040 0.185303 0.857300 1 0 1.000000
  0 -1.302000 0.285000 1.341000 -0.975732 0.183744 0.119105 0.133301 0.803711 1 0 1.000000
ads_scope_lens_1
  0 -1.345000 0.132000 1.234000 -0.984738 0.122971 0.123162 0.329590 0.665283 1 0 1.000000
  0 -1.302000 0.285000 1.341000 -0.975732 0.183744 0.119105 0.133301 0.803711 1 0 1.000000
  0 -1.302000 0.318000 1.294000 -0.975732 0.183744 0.119105 0.090271 0.742432 1 0 1.000000
ads_scope_lens_1
  0 -1.345000 0.132000 1.234000 -0.984738 0.122971 0.123162 0.329590 0.665283 1 0 1.000000
  0 -1.302000 0.318000 1.294000 -0.975732 0.183744 0.119105 0.090271 0.742432 1 0 1.000000
  0 -1.345000 0.165000 1.186000 -0.984576 0.156068 0.079070 0.286865 0.604492 1 0 1.000000
ads_scope_lens_1
  0 -1.345000 0.165000 1.186000 -0.984576 0.156068 0.079070 0.286865 0.604492 1 0 1.000000
  0 -1.302000 0.318000 1.294000 -0.975732 0.183744 0.119105 0.090271 0.742432 1 0 1.000000
  0 -1.302000 0.344000 1.241000 -0.975737 0.211715 0.055801 0.057343 0.675537 1 0 1.000000
ads_scope_lens_1
  0 -1.345000 0.165000 1.186000 -0.984576 0.156068 0.079070 0.286865 0.604492 1 0 1.000000
  0 -1.302000 0.344000 1.241000 -0.975737 0.211715 0.055801 0.057343 0.675537 1 0 1.000000
  0 -1.345000 0.182000 1.131000 -0.984601 0.172789 0.026560 0.265137 0.533447 1 0 1.000000
ads_scope_lens_1
  0 -1.345000 0.182000 1.131000 -0.984601 0.172789 0.026560 0.265137 0.533447 1 0 1.000000
  0 -1.302000 0.344000 1.241000 -0.975737 0.211715 0.055801 0.057343 0.675537 1 0 1.000000
  0 -1.302000 0.361000 1.186000 -0.975737 0.211715 0.055801 0.035339 0.604004 1 0 1.000000
ads_scope_lens_1
  0 -1.345000 0.182000 1.131000 -0.984601 0.172789 0.026560 0.265137 0.533447 1 0 1.000000
  0 -1.302000 0.361000 1.186000 -0.975737 0.211715 0.055801 0.035339 0.604004 1 0 1.000000
  0 -1.302000 0.369000 1.129000 -0.975377 0.220079 -0.014295 0.024780 0.530029 1 0 1.000000
ads_scope_lens_1
  0 -1.345000 0.182000 1.131000 -0.984601 0.172789 0.026560 0.265137 0.533447 1 0 1.000000
  0 -1.302000 0.369000 1.129000 -0.975377 0.220079 -0.014295 0.024780 0.530029 1 0 1.000000
  0 -1.345000 0.182000 1.074000 -0.984437 0.172718 -0.032435 0.266113 0.459473 1 0 1.000000
ads_scope_lens_1
  0 -1.345000 0.182000 1.074000 -0.984437 0.172718 -0.032435 0.266113 0.459473 1 0 1.000000
  0 -1.302000 0.369000 1.129000 -0.975377 0.220079 -0.014295 0.024780 0.530029 1 0 1.000000
  0 -1.302000 0.368000 1.071000 -0.975377 0.220079 -0.014295 0.025894 0.455566 1 0 1.000000
ads_scope_lens_1
  0 -1.345000 0.182000 1.074000 -0.984437 0.172718 -0.032435 0.266113 0.459473 1 0 1.000000
  0 -1.302000 0.368000 1.071000 -0.975377 0.220079 -0.014295 0.025894 0.455566 1 0 1.000000
  0 -1.302000 0.358000 1.013000 -0.975723 0.203478 -0.081007 0.038727 0.381836 1 0 1.000000
ads_scope_lens_1
  0 -1.345000 0.182000 1.074000 -0.984437 0.172718 -0.032435 0.266113 0.459473 1 0 1.000000
  0 -1.302000 0.358000 1.013000 -0.975723 0.203478 -0.081007 0.038727 0.381836 1 0 1.000000
  0 -1.302000 0.339000 0.959000 -0.975723 0.203478 -0.081007 0.062927 0.311035 1 0 1.000000
ads_scope_lens_1
  0 -1.345000 0.182000 1.074000 -0.984437 0.172718 -0.032435 0.266113 0.459473 1 0 1.000000
  0 -1.302000 0.339000 0.959000 -0.975723 0.203478 -0.081007 0.062927 0.311035 1 0 1.000000
  0 -1.345000 0.163000 1.019000 -0.984917 0.153451 -0.079939 0.290283 0.389160 1 0 1.000000
ads_scope_lens_1
  0 -1.345000 0.163000 1.019000 -0.984917 0.153451 -0.079939 0.290283 0.389160 1 0 1.000000
  0 -1.302000 0.339000 0.959000 -0.975723 0.203478 -0.081007 0.062927 0.311035 1 0 1.000000
  0 -1.302000 0.312000 0.907000 -0.975712 0.167259 -0.141458 0.097839 0.245117 1 0 1.000000
ads_scope_lens_1
  0 -1.345000 0.163000 1.019000 -0.984917 0.153451 -0.079939 0.290283 0.389160 1 0 1.000000
  0 -1.302000 0.312000 0.907000 -0.975712 0.167259 -0.141458 0.097839 0.245117 1 0 1.000000
  0 -1.302000 0.277000 0.861000 -0.975712 0.167259 -0.141458 0.142700 0.185059 1 0 1.000000
ads_scope_lens_1
  0 -1.345000 -0.132000 0.977000 -0.984444 -0.124946 -0.123525 0.670410 0.334961 1 0 1.000000
  0 -1.302000 -0.318000 0.917000 -0.975029 -0.185658 -0.121860 0.909668 0.257324 1 0 1.000000
  0 -1.345000 -0.165000 1.024000 -0.984221 -0.158095 -0.079466 0.712891 0.395508 1 0 1.000000
ads_scope_lens_1
  0 -1.345000 -0.165000 1.024000 -0.984221 -0.158095 -0.079466 0.712891 0.395508 1 0 1.000000
  0 -1.302000 -0.318000 0.917000 -0.975029 -0.185658 -0.121860 0.909668 0.257324 1 0 1.000000
  0 -1.302000 -0.344000 0.969000 -0.975290 -0.213820 -0.055600 0.942871 0.324707 1 0 1.000000
ads_scope_lens_1
  0 -1.345000 -0.165000 1.024000 -0.984221 -0.158095 -0.079466 0.712891 0.395508 1 0 1.000000
  0 -1.302000 -0.344000 0.969000 -0.975290 -0.213820 -0.055600 0.942871 0.324707 1 0 1.000000
  0 -1.345000 -0.182000 1.079000 -0.984165 -0.174718 -0.029867 0.734863 0.466309 1 0 1.000000
ads_scope_lens_1
  0 -1.345000 -0.182000 1.079000 -0.984165 -0.174718 -0.029867 0.734863 0.466309 1 0 1.000000
  0 -1.302000 -0.344000 0.969000 -0.975290 -0.213820 -0.055600 0.942871 0.324707 1 0 1.000000
  0 -1.302000 -0.361000 1.024000 -0.975290 -0.213820 -0.055600 0.964844 0.395996 1 0 1.000000
ads_scope_lens_1
  0 -1.345000 -0.182000 1.079000 -0.984165 -0.174718 -0.029867 0.734863 0.466309 1 0 1.000000
  0 -1.302000 -0.361000 1.024000 -0.975290 -0.213820 -0.055600 0.964844 0.395996 1 0 1.000000
  0 -1.302000 -0.369000 1.082000 -0.974984 -0.221997 -0.011070 0.975098 0.469727 1 0 1.000000
ads_scope_lens_1
  0 -1.345000 -0.182000 1.079000 -0.984165 -0.174718 -0.029867 0.734863 0.466309 1 0 1.000000
  0 -1.302000 -0.369000 1.082000 -0.974984 -0.221997 -0.011070 0.975098 0.469727 1 0 1.000000
  0 -1.345000 -0.182000 1.137000 -0.984530 -0.172714 0.029514 0.733887 0.540771 1 0 1.000000
ads_scope_lens_1
  0 -1.358000 0.000000 1.105000 -0.999975 0.006831 -0.001729 0.500000 0.500000 1 0 1.000000
  0 -1.345000 -0.182000 1.079000 -0.984165 -0.174718 -0.029867 0.734863 0.466309 1 0 1.000000
  0 -1.345000 -0.182000 1.137000 -0.984530 -0.172714 0.029514 0.733887 0.540771 1 0 1.000000
ads_scope_lens_1
  0 -1.358000 0.000000 1.105000 -0.999975 0.006831 -0.001729 0.500000 0.500000 1 0 1.000000
  0 -1.345000 -0.182000 1.137000 -0.984530 -0.172714 0.029514 0.733887 0.540771 1 0 1.000000
  0 -1.345000 -0.163000 1.191000 -0.984380 -0.155837 0.081920 0.709961 0.610840 1 0 1.000000
ads_scope_lens_1
  0 -1.345000 -0.163000 1.191000 -0.984380 -0.155837 0.081920 0.709961 0.610840 1 0 1.000000
  0 -1.345000 -0.128000 1.238000 -0.984721 -0.117406 0.128605 0.665039 0.670410 1 0 1.000000
  0 -1.358000 0.000000 1.105000 -0.999975 0.006831 -0.001729 0.500000 0.500000 1 0 1.000000
ads_scope_lens_1
  0 -1.345000 -0.128000 1.238000 -0.984721 -0.117406 0.128605 0.665039 0.670410 1 0 1.000000
  0 -1.345000 -0.081000 1.271000 -0.984199 -0.073002 0.161316 0.604492 0.713135 1 0 1.000000
  0 -1.358000 0.000000 1.105000 -0.999975 0.006831 -0.001729 0.500000 0.500000 1 0 1.000000
ads_scope_lens_1
  0 -1.345000 -0.081000 1.271000 -0.984199 -0.073002 0.161316 0.604492 0.713135 1 0 1.000000
  0 -1.345000 -0.026000 1.288000 -0.983849 -0.023192 0.177494 0.533691 0.734863 1 0 1.000000
  0 -1.358000 0.000000 1.105000 -0.999975 0.006831 -0.001729 0.500000 0.500000 1 0 1.000000
ads_scope_lens_1
  0 -1.345000 -0.026000 1.288000 -0.983849 -0.023192 0.177494 0.533691 0.734863 1 0 1.000000
  0 -1.345000 0.032000 1.287000 -0.984224 0.026619 0.174910 0.459229 0.733887 1 0 1.000000
  0 -1.358000 0.000000 1.105000 -0.999975 0.006831 -0.001729 0.500000 0.500000 1 0 1.000000
ads_scope_lens_1
  0 -1.345000 0.032000 1.287000 -0.984224 0.026619 0.174910 0.459229 0.733887 1 0 1.000000
  0 -1.345000 0.086000 1.268000 -0.984611 0.078719 0.156025 0.388916 0.709717 1 0 1.000000
  0 -1.358000 0.000000 1.105000 -0.999975 0.006831 -0.001729 0.500000 0.500000 1 0 1.000000
ads_scope_lens_1
  0 -1.345000 0.086000 1.268000 -0.984611 0.078719 0.156025 0.388916 0.709717 1 0 1.000000
  0 -1.345000 0.132000 1.234000 -0.984738 0.122971 0.123162 0.329590 0.665283 1 0 1.000000
  0 -1.358000 0.000000 1.105000 -0.999975 0.006831 -0.001729 0.500000 0.500000 1 0 1.000000
ads_scope_lens_1
  0 -1.345000 0.132000 1.234000 -0.984738 0.122971 0.123162 0.329590 0.665283 1 0 1.000000
  0 -1.345000 0.165000 1.186000 -0.984576 0.156068 0.079070 0.286865 0.604492 1 0 1.000000
  0 -1.358000 0.000000 1.105000 -0.999975 0.006831 -0.001729 0.500000 0.500000 1 0 1.000000
ads_scope_lens_1
  0 -1.345000 0.165000 1.186000 -0.984576 0.156068 0.079070 0.286865 0.604492 1 0 1.000000
  0 -1.345000 0.182000 1.131000 -0.984601 0.172789 0.026560 0.265137 0.533447 1 0 1.000000
  0 -1.358000 0.000000 1.105000 -0.999975 0.006831 -0.001729 0.500000 0.500000 1 0 1.000000
ads_scope_lens_1
  0 -1.345000 0.182000 1.131000 -0.984601 0.172789 0.026560 0.265137 0.533447 1 0 1.000000
  0 -1.345000 0.182000 1.074000 -0.984437 0.172718 -0.032435 0.266113 0.459473 1 0 1.000000
  0 -1.358000 0.000000 1.105000 -0.999975 0.006831 -0.001729 0.500000 0.500000 1 0 1.000000
ads_scope_lens_1
  0 -1.345000 0.182000 1.074000 -0.984437 0.172718 -0.032435 0.266113 0.459473 1 0 1.000000
  0 -1.345000 0.163000 1.019000 -0.984917 0.153451 -0.079939 0.290283 0.389160 1 0 1.000000
  0 -1.358000 0.000000 1.105000 -0.999975 0.006831 -0.001729 0.500000 0.500000 1 0 1.000000
ads_scope_lens_1
  0 -1.345000 0.163000 1.019000 -0.984917 0.153451 -0.079939 0.290283 0.389160 1 0 1.000000
  0 -1.345000 0.128000 0.973000 -0.984661 0.119957 -0.126697 0.334717 0.329590 1 0 1.000000
  0 -1.358000 0.000000 1.105000 -0.999975 0.006831 -0.001729 0.500000 0.500000 1 0 1.000000
ads_scope_lens_1
  0 -1.345000 0.128000 0.973000 -0.984661 0.119957 -0.126697 0.334717 0.329590 1 0 1.000000
  0 -1.345000 0.081000 0.940000 -0.984334 0.075540 -0.159311 0.395508 0.287109 1 0 1.000000
  0 -1.358000 0.000000 1.105000 -0.999975 0.006831 -0.001729 0.500000 0.500000 1 0 1.000000
ads_scope_lens_1
  0 -1.345000 0.081000 0.940000 -0.984334 0.075540 -0.159311 0.395508 0.287109 1 0 1.000000
  0 -1.345000 0.026000 0.923000 -0.984264 0.020833 -0.175470 0.466553 0.265137 1 0 1.000000
  0 -1.358000 0.000000 1.105000 -0.999975 0.006831 -0.001729 0.500000 0.500000 1 0 1.000000
ads_scope_lens_1
  0 -1.345000 0.026000 0.923000 -0.984264 0.020833 -0.175470 0.466553 0.265137 1 0 1.000000
  0 -1.345000 -0.032000 0.924000 -0.984089 -0.028720 -0.175341 0.540527 0.266113 1 0 1.000000
  0 -1.358000 0.000000 1.105000 -0.999975 0.006831 -0.001729 0.500000 0.500000 1 0 1.000000
ads_scope_lens_1
  0 -1.345000 -0.032000 0.924000 -0.984089 -0.028720 -0.175341 0.540527 0.266113 1 0 1.000000
  0 -1.345000 -0.086000 0.942000 -0.984375 -0.080762 -0.156471 0.610840 0.290039 1 0 1.000000
  0 -1.358000 0.000000 1.105000 -0.999975 0.006831 -0.001729 0.500000 0.500000 1 0 1.000000
ads_scope_lens_1
  0 -1.345000 -0.086000 0.942000 -0.984375 -0.080762 -0.156471 0.610840 0.290039 1 0 1.000000
  0 -1.345000 -0.132000 0.977000 -0.984444 -0.124946 -0.123525 0.670410 0.334961 1 0 1.000000
  0 -1.358000 0.000000 1.105000 -0.999975 0.006831 -0.001729 0.500000 0.500000 1 0 1.000000
ads_scope_lens_1
  0 -1.345000 -0.132000 0.977000 -0.984444 -0.124946 -0.123525 0.670410 0.334961 1 0 1.000000
  0 -1.345000 -0.165000 1.024000 -0.984221 -0.158095 -0.079466 0.712891 0.395508 1 0 1.000000
  0 -1.358000 0.000000 1.105000 -0.999975 0.006831 -0.001729 0.500000 0.500000 1 0 1.000000
ads_scope_lens_1
  0 -1.345000 -0.165000 1.024000 -0.984221 -0.158095 -0.079466 0.712891 0.395508 1 0 1.000000
  0 -1.345000 -0.182000 1.079000 -0.984165 -0.174718 -0.029867 0.734863 0.466309 1 0 1.000000
  0 -1.358000 0.000000 1.105000 -0.999975 0.006831 -0.001729 0.500000 0.500000 1 0 1.000000
ads_scope_lens_1
  0 -1.345000 0.163000 1.019000 -0.984917 0.153451 -0.079939 0.290283 0.389160 1 0 1.000000
  0 -1.302000 0.277000 0.861000 -0.975712 0.167259 -0.141458 0.142700 0.185059 1 0 1.000000
  0 -1.345000 0.128000 0.973000 -0.984661 0.119957 -0.126697 0.334717 0.329590 1 0 1.000000
ads_scope_lens_1
  0 -1.345000 0.128000 0.973000 -0.984661 0.119957 -0.126697 0.334717 0.329590 1 0 1.000000
  0 -1.302000 0.277000 0.861000 -0.975712 0.167259 -0.141458 0.142700 0.185059 1 0 1.000000
  0 -1.302000 0.236000 0.820000 -0.975226 0.116491 -0.188054 0.196289 0.133301 1 0 1.000000
ads_scope_lens_1
  0 -1.345000 0.128000 0.973000 -0.984661 0.119957 -0.126697 0.334717 0.329590 1 0 1.000000
  0 -1.302000 0.236000 0.820000 -0.975226 0.116491 -0.188054 0.196289 0.133301 1 0 1.000000
  0 -1.302000 0.188000 0.787000 -0.975226 0.116491 -0.188054 0.257324 0.090332 1 0 1.000000
ads_scope_lens_1
  0 -1.345000 0.128000 0.973000 -0.984661 0.119957 -0.126697 0.334717 0.329590 1 0 1.000000
  0 -1.302000 0.188000 0.787000 -0.975226 0.116491 -0.188054 0.257324 0.090332 1 0 1.000000
  0 -1.345000 0.081000 0.940000 -0.984334 0.075540 -0.159311 0.395508 0.287109 1 0 1.000000
ads_scope_lens_1
  0 -1.345000 0.081000 0.940000 -0.984334 0.075540 -0.159311 0.395508 0.287109 1 0 1.000000
  0 -1.302000 0.188000 0.787000 -0.975226 0.116491 -0.188054 0.257324 0.090332 1 0 1.000000
  0 -1.302000 0.136000 0.762000 -0.975417 0.049802 -0.214665 0.324463 0.057129 1 0 1.000000
ads_scope_lens_1
  0 -1.345000 0.081000 0.940000 -0.984334 0.075540 -0.159311 0.395508 0.287109 1 0 1.000000
  0 -1.302000 0.136000 0.762000 -0.975417 0.049802 -0.214665 0.324463 0.057129 1 0 1.000000
  0 -1.345000 0.026000 0.923000 -0.984264 0.020833 -0.175470 0.466553 0.265137 1 0 1.000000
ads_scope_lens_1
  0 -1.345000 0.026000 0.923000 -0.984264 0.020833 -0.175470 0.466553 0.265137 1 0 1.000000
  0 -1.302000 0.136000 0.762000 -0.975417 0.049802 -0.214665 0.324463 0.057129 1 0 1.000000
  0 -1.302000 0.081000 0.744000 -0.975417 0.049802 -0.214665 0.395996 0.035156 1 0 1.000000
ads_scope_lens_1
  0 -1.345000 0.026000 0.923000 -0.984264 0.020833 -0.175470 0.466553 0.265137 1 0 1.000000
  0 -1.302000 0.081000 0.744000 -0.975417 0.049802 -0.214665 0.395996 0.035156 1 0 1.000000
  0 -1.302000 0.023000 0.736000 -0.974313 -0.009587 -0.224994 0.469971 0.024902 1 0 1.000000
ads_scope_lens_1
  0 -1.345000 0.026000 0.923000 -0.984264 0.020833 -0.175470 0.466553 0.265137 1 0 1.000000
  0 -1.302000 0.023000 0.736000 -0.974313 -0.009587 -0.224994 0.469971 0.024902 1 0 1.000000
  0 -1.302000 -0.035000 0.737000 -0.974313 -0.009587 -0.224994 0.544434 0.025879 1 0 1.000000
ads_scope_lens_1
  0 -1.345000 0.026000 0.923000 -0.984264 0.020833 -0.175470 0.466553 0.265137 1 0 1.000000
  0 -1.302000 -0.035000 0.737000 -0.974313 -0.009587 -0.224994 0.544434 0.025879 1 0 1.000000
  0 -1.345000 -0.032000 0.924000 -0.984089 -0.028720 -0.175341 0.540527 0.266113 1 0 1.000000
ads_scope_lens_1
  0 -1.345000 -0.032000 0.924000 -0.984089 -0.028720 -0.175341 0.540527 0.266113 1 0 1.000000
  0 -1.302000 -0.035000 0.737000 -0.974313 -0.009587 -0.224994 0.544434 0.025879 1 0 1.000000
  0 -1.302000 -0.092000 0.747000 -0.974081 -0.080061 -0.211555 0.618164 0.038574 1 0 1.000000
ads_scope_lens_1
  0 -1.345000 -0.032000 0.924000 -0.984089 -0.028720 -0.175341 0.540527 0.266113 1 0 1.000000
  0 -1.302000 -0.092000 0.747000 -0.974081 -0.080061 -0.211555 0.618164 0.038574 1 0 1.000000
  0 -1.345000 -0.086000 0.942000 -0.984375 -0.080762 -0.156471 0.610840 0.290039 1 0 1.000000
ads_scope_lens_1
  0 -1.345000 -0.086000 0.942000 -0.984375 -0.080762 -0.156471 0.610840 0.290039 1 0 1.000000
  0 -1.302000 -0.092000 0.747000 -0.974081 -0.080061 -0.211555 0.618164 0.038574 1 0 1.000000
  0 -1.302000 -0.147000 0.766000 -0.974081 -0.080061 -0.211555 0.688965 0.062988 1 0 1.000000
ads_scope_lens_1
  0 -1.345000 -0.086000 0.942000 -0.984375 -0.080762 -0.156471 0.610840 0.290039 1 0 1.000000
  0 -1.302000 -0.147000 0.766000 -0.974081 -0.080061 -0.211555 0.688965 0.062988 1 0 1.000000
  0 -1.302000 -0.198000 0.793000 -0.975050 -0.141002 -0.171452 0.754883 0.097656 1 0 1.000000
ads_scope_lens_1
  0 -1.345000 -0.086000 0.942000 -0.984375 -0.080762 -0.156471 0.610840 0.290039 1 0 1.000000
  0 -1.302000 -0.198000 0.793000 -0.975050 -0.141002 -0.171452 0.754883 0.097656 1 0 1.000000
  0 -1.302000 -0.244000 0.828000 -0.975050 -0.141002 -0.171452 0.814941 0.142578 1 0 1.000000
ads_scope_lens_1
  0 -1.345000 -0.086000 0.942000 -0.984375 -0.080762 -0.156471 0.610840 0.290039 1 0 1.000000
  0 -1.302000 -0.244000 0.828000 -0.975050 -0.141002 -0.171452 0.814941 0.142578 1 0 1.000000
  0 -1.345000 -0.132000 0.977000 -0.984444 -0.124946 -0.123525 0.670410 0.334961 1 0 1.000000
ads_scope_lens_1
  0 -1.345000 -0.132000 0.977000 -0.984444 -0.124946 -0.123525 0.670410 0.334961 1 0 1.000000
  0 -1.302000 -0.244000 0.828000 -0.975050 -0.141002 -0.171452 0.814941 0.142578 1 0 1.000000
  0 -1.302000 -0.285000 0.869000 -0.975029 -0.185658 -0.121860 0.866699 0.196289 1 0 1.000000
ads_scope_lens_1
  0 -1.345000 -0.132000 0.977000 -0.984444 -0.124946 -0.123525 0.670410 0.334961 1 0 1.000000
  0 -1.302000 -0.285000 0.869000 -0.975029 -0.185658 -0.121860 0.866699 0.196289 1 0 1.000000
  0 -1.302000 -0.318000 0.917000 -0.975029 -0.185658 -0.121860 0.909668 0.257324 1 0 1.000000
ads_scope_lens_1
  0 -1.302000 -0.369000 1.082000 -0.974984 -0.221997 -0.011070 0.975098 0.469727 1 0 1.000000
  0 -1.302000 -0.368000 1.140000 -0.974984 -0.221997 -0.011070 0.974121 0.544678 1 0 1.000000
  0 -1.345000 -0.182000 1.137000 -0.984530 -0.172714 0.029514 0.733887 0.540771 1 0 1.000000
ads_scope_lens_1
  0 -1.345000 -0.182000 1.137000 -0.984530 -0.172714 0.029514 0.733887 0.540771 1 0 1.000000
  0 -1.302000 -0.368000 1.140000 -0.974984 -0.221997 -0.011070 0.974121 0.544678 1 0 1.000000
  0 -1.302000 -0.358000 1.197000 -0.975966 -0.209177 0.061117 0.961426 0.618164 1 0 1.000000
ads_scope_lens_1
  0 -1.345000 -0.182000 1.137000 -0.984530 -0.172714 0.029514 0.733887 0.540771 1 0 1.000000
  0 -1.302000 -0.358000 1.197000 -0.975966 -0.209177 0.061117 0.961426 0.618164 1 0 1.000000
  0 -1.302000 -0.339000 1.252000 -0.975966 -0.209177 0.061117 0.937012 0.688965 1 0 1.000000
ads_scope_lens_1
  0 -1.345000 -0.182000 1.137000 -0.984530 -0.172714 0.029514 0.733887 0.540771 1 0 1.000000
  0 -1.302000 -0.339000 1.252000 -0.975966 -0.209177 0.061117 0.937012 0.688965 1 0 1.000000
  0 -1.345000 -0.163000 1.191000 -0.984380 -0.155837 0.081920 0.709961 0.610840 1 0 1.000000
ads_scope_lens_1
  0 -1.345000 -0.163000 1.191000 -0.984380 -0.155837 0.081920 0.709961 0.610840 1 0 1.000000
  0 -1.302000 -0.339000 1.252000 -0.975966 -0.209177 0.061117 0.937012 0.688965 1 0 1.000000
  0 -1.302000 -0.312000 1.303000 -0.975464 -0.167146 0.143293 0.902344 0.755005 1 0 1.000000
ads_scope_lens_1
  0 -1.345000 -0.163000 1.191000 -0.984380 -0.155837 0.081920 0.709961 0.610840 1 0 1.000000
  0 -1.302000 -0.312000 1.303000 -0.975464 -0.167146 0.143293 0.902344 0.755005 1 0 1.000000
  0 -1.345000 -0.128000 1.238000 -0.984721 -0.117406 0.128605 0.665039 0.670410 1 0 1.000000
ads_scope_lens_1
  0 -1.345000 -0.128000 1.238000 -0.984721 -0.117406 0.128605 0.665039 0.670410 1 0 1.000000
  0 -1.302000 -0.312000 1.303000 -0.975464 -0.167146 0.143293 0.902344 0.755005 1 0 1.000000
  0 -1.302000 -0.277000 1.350000 -0.975464 -0.167146 0.143293 0.857422 0.814819 1 0 1.000000
ads_scope_lens_1
  0 -1.345000 -0.128000 1.238000 -0.984721 -0.117406 0.128605 0.665039 0.670410 1 0 1.000000
  0 -1.302000 -0.277000 1.350000 -0.975464 -0.167146 0.143293 0.857422 0.814819 1 0 1.000000
  0 -1.302000 -0.236000 1.390000 -0.975586 -0.115085 0.187051 0.803711 0.866821 1 0 1.000000
ads_scope_lens_1
  0 -1.345000 -0.128000 1.238000 -0.984721 -0.117406 0.128605 0.665039 0.670410 1 0 1.000000
  0 -1.302000 -0.236000 1.390000 -0.975586 -0.115085 0.187051 0.803711 0.866821 1 0 1.000000
  0 -1.302000 -0.188000 1.423000 -0.975586 -0.115085 0.187051 0.742676 0.909790 1 0 1.000000
ads_scope_lens_1
  0 -1.345000 -0.128000 1.238000 -0.984721 -0.117406 0.128605 0.665039 0.670410 1 0 1.000000
  0 -1.302000 -0.188000 1.423000 -0.975586 -0.115085 0.187051 0.742676 0.909790 1 0 1.000000
  0 -1.345000 -0.081000 1.271000 -0.984199 -0.073002 0.161316 0.604492 0.713135 1 0 1.000000
ads_scope_lens_1
  0 -1.345000 -0.081000 1.271000 -0.984199 -0.073002 0.161316 0.604492 0.713135 1 0 1.000000
  0 -1.302000 -0.188000 1.423000 -0.975586 -0.115085 0.187051 0.742676 0.909790 1 0 1.000000
  0 -1.302000 -0.136000 1.449000 -0.974752 -0.053748 0.216724 0.675293 0.942627 1 0 1.000000
ads_scope_lens_1
  0 -1.345000 -0.081000 1.271000 -0.984199 -0.073002 0.161316 0.604492 0.713135 1 0 1.000000
  0 -1.302000 -0.136000 1.449000 -0.974752 -0.053748 0.216724 0.675293 0.942627 1 0 1.000000
  0 -1.345000 -0.026000 1.288000 -0.983849 -0.023192 0.177494 0.533691 0.734863 1 0 1.000000
ads_scope_lens_1
  0 -1.345000 -0.026000 1.288000 -0.983849 -0.023192 0.177494 0.533691 0.734863 1 0 1.000000
  0 -1.302000 -0.136000 1.449000 -0.974752 -0.053748 0.216724 0.675293 0.942627 1 0 1.000000
  0 -1.302000 -0.081000 1.466000 -0.974752 -0.053748 0.216724 0.604004 0.964630 1 0 1.000000
ads_scope_lens_1
  0 -1.345000 -0.026000 1.288000 -0.983849 -0.023192 0.177494 0.533691 0.734863 1 0 1.000000
  0 -1.302000 -0.081000 1.466000 -0.974752 -0.053748 0.216724 0.604004 0.964630 1 0 1.000000
  0 -1.302000 -0.023000 1.474000 -0.974971 0.010509 0.222082 0.530273 0.975235 1 0 1.000000
ads_scope_lens_1
  0 -1.345000 -0.026000 1.288000 -0.983849 -0.023192 0.177494 0.533691 0.734863 1 0 1.000000
  0 -1.302000 -0.023000 1.474000 -0.974971 0.010509 0.222082 0.530273 0.975235 1 0 1.000000
  0 -1.302000 0.035000 1.473000 -0.974971 0.010509 0.222082 0.455322 0.974075 1 0 1.000000
ads_scope_lens_1
  0 -1.345000 -0.026000 1.288000 -0.983849 -0.023192 0.177494 0.533691 0.734863 1 0 1.000000
  0 -1.302000 0.035000 1.473000 -0.974971 0.010509 0.222082 0.455322 0.974075 1 0 1.000000
  0 -1.345000 0.032000 1.287000 -0.984224 0.026619 0.174910 0.459229 0.733887 1 0 1.000000
ads_scope_lens_1
  0 -1.345000 0.032000 1.287000 -0.984224 0.026619 0.174910 0.459229 0.733887 1 0 1.000000
  0 -1.302000 0.035000 1.473000 -0.974971 0.010509 0.222082 0.455322 0.974075 1 0 1.000000
  0 -1.302000 0.092000 1.463000 -0.974841 0.078612 0.208578 0.381836 0.961243 1 0 1.000000
ads_scope_lens_1
  0 -1.345000 0.032000 1.287000 -0.984224 0.026619 0.174910 0.459229 0.733887 1 0 1.000000
  0 -1.302000 0.092000 1.463000 -0.974841 0.078612 0.208578 0.381836 0.961243 1 0 1.000000
  0 -1.345000 0.086000 1.268000 -0.984611 0.078719 0.156025 0.388916 0.709717 1 0 1.000000
end
