// Created by Crowbar 0.74
version 1
nodes
  0 "tag_hybrid" -1
end
skeleton
  time 0
    0 0.000000 0.000000 0.000000 0.000000 0.000000 0.000000
end
triangles
reticle_ui_stencil
  0 -1.203000 -0.005000 1.014000 -0.999988 0.004346 -0.002027 0.500000 0.500000 1 0 1.000000
  0 -1.203000 -0.430000 0.589000 -0.999989 0.004259 -0.001985 0.842773 0.138184 1 0 1.000000
  0 -1.203000 -0.473000 0.638000 -0.999999 0.001258 0.000697 0.879883 0.177246 1 0 1.000000
reticle_ui_stencil
  0 -1.203000 -0.005000 1.014000 -0.999988 0.004346 -0.002027 0.500000 0.500000 1 0 1.000000
  0 -1.203000 -0.381000 0.546000 -0.999999 0.001258 0.000697 0.801270 0.103516 1 0 1.000000
  0 -1.203000 -0.430000 0.589000 -0.999989 0.004259 -0.001985 0.842773 0.138184 1 0 1.000000
reticle_ui_stencil
  0 -1.203000 -0.005000 1.014000 -0.999988 0.004346 -0.002027 0.500000 0.500000 1 0 1.000000
  0 -1.203000 -0.329000 0.508000 -0.999989 0.004259 -0.001979 0.756836 0.073242 1 0 1.000000
  0 -1.203000 -0.381000 0.546000 -0.999999 0.001258 0.000697 0.801270 0.103516 1 0 1.000000
reticle_ui_stencil
  0 -1.203000 -0.005000 1.014000 -0.999988 0.004346 -0.002027 0.500000 0.500000 1 0 1.000000
  0 -1.203000 -0.272000 0.476000 -0.999990 0.004393 0.000763 0.708984 0.047852 1 0 1.000000
  0 -1.203000 -0.329000 0.508000 -0.999989 0.004259 -0.001979 0.756836 0.073242 1 0 1.000000
reticle_ui_stencil
  0 -1.203000 -0.005000 1.014000 -0.999988 0.004346 -0.002027 0.500000 0.500000 1 0 1.000000
  0 -1.203000 -0.212000 0.450000 -0.999990 0.004394 0.000763 0.659180 0.027832 1 0 1.000000
  0 -1.203000 -0.272000 0.476000 -0.999990 0.004393 0.000763 0.708984 0.047852 1 0 1.000000
reticle_ui_stencil
  0 -1.203000 -0.005000 1.014000 -0.999988 0.004346 -0.002027 0.500000 0.500000 1 0 1.000000
  0 -1.203000 -0.150000 0.430999 -0.999999 0.001302 0.000718 0.606934 0.013672 1 0 1.000000
  0 -1.203000 -0.212000 0.450000 -0.999990 0.004394 0.000763 0.659180 0.027832 1 0 1.000000
reticle_ui_stencil
  0 -1.203000 -0.005000 1.014000 -0.999988 0.004346 -0.002027 0.500000 0.500000 1 0 1.000000
  0 -1.203000 -0.086000 0.419000 -0.999990 0.004393 0.000763 0.553711 0.004883 1 0 1.000000
  0 -1.203000 -0.150000 0.430999 -0.999999 0.001302 0.000718 0.606934 0.013672 1 0 1.000000
reticle_ui_stencil
  0 -1.203000 -0.005000 1.014000 -0.999988 0.004346 -0.002027 0.500000 0.500000 1 0 1.000000
  0 -1.203000 -0.021000 0.413000 -0.999990 0.004439 0.000769 0.500000 0.001953 1 0 1.000000
  0 -1.203000 -0.086000 0.419000 -0.999990 0.004393 0.000763 0.553711 0.004883 1 0 1.000000
reticle_ui_stencil
  0 -1.203000 -0.005000 1.014000 -0.999988 0.004346 -0.002027 0.500000 0.500000 1 0 1.000000
  0 -1.203000 0.044000 0.415000 -0.999975 0.006997 0.000834 0.446045 0.004883 1 0 1.000000
  0 -1.203000 -0.021000 0.413000 -0.999990 0.004439 0.000769 0.500000 0.001953 1 0 1.000000
reticle_ui_stencil
  0 -1.203000 -0.005000 1.014000 -0.999988 0.004346 -0.002027 0.500000 0.500000 1 0 1.000000
  0 -1.203000 0.108000 0.423999 -0.999975 0.006999 0.000834 0.392822 0.013672 1 0 1.000000
  0 -1.203000 0.044000 0.415000 -0.999975 0.006997 0.000834 0.446045 0.004883 1 0 1.000000
reticle_ui_stencil
  0 -1.203000 -0.005000 1.014000 -0.999988 0.004346 -0.002027 0.500000 0.500000 1 0 1.000000
  0 -1.203000 0.170999 0.440000 -0.999989 0.004260 -0.001982 0.340820 0.027832 1 0 1.000000
  0 -1.203000 0.108000 0.423999 -0.999975 0.006999 0.000834 0.392822 0.013672 1 0 1.000000
reticle_ui_stencil
  0 -1.203000 -0.005000 1.014000 -0.999988 0.004346 -0.002027 0.500000 0.500000 1 0 1.000000
  0 -1.203000 0.232000 0.462000 -0.999990 0.004391 0.000763 0.290771 0.047852 1 0 1.000000
  0 -1.203000 0.170999 0.440000 -0.999989 0.004260 -0.001982 0.340820 0.027832 1 0 1.000000
reticle_ui_stencil
  0 -1.203000 -0.005000 1.014000 -0.999988 0.004346 -0.002027 0.500000 0.500000 1 0 1.000000
  0 -1.203000 0.291000 0.491000 -0.999999 0.001258 0.000694 0.243042 0.073242 1 0 1.000000
  0 -1.203000 0.232000 0.462000 -0.999990 0.004391 0.000763 0.290771 0.047852 1 0 1.000000
reticle_ui_stencil
  0 -1.203000 -0.005000 1.014000 -0.999988 0.004346 -0.002027 0.500000 0.500000 1 0 1.000000
  0 -1.203000 0.346000 0.526000 -0.999999 0.001258 0.000697 0.198486 0.103516 1 0 1.000000
  0 -1.203000 0.291000 0.491000 -0.999999 0.001258 0.000694 0.243042 0.073242 1 0 1.000000
reticle_ui_stencil
  0 -1.203000 -0.005000 1.014000 -0.999988 0.004346 -0.002027 0.500000 0.500000 1 0 1.000000
  0 -1.203000 0.396000 0.567000 -0.999999 0.001258 0.000697 0.157349 0.138184 1 0 1.000000
  0 -1.203000 0.346000 0.526000 -0.999999 0.001258 0.000697 0.198486 0.103516 1 0 1.000000
reticle_ui_stencil
  0 -1.203000 -0.005000 1.014000 -0.999988 0.004346 -0.002027 0.500000 0.500000 1 0 1.000000
  0 -1.203000 0.442000 0.613000 -0.999990 0.004438 0.000769 0.120239 0.177734 1 0 1.000000
  0 -1.203000 0.396000 0.567000 -0.999999 0.001258 0.000697 0.157349 0.138184 1 0 1.000000
reticle_ui_stencil
  0 -1.203000 -0.005000 1.014000 -0.999988 0.004346 -0.002027 0.500000 0.500000 1 0 1.000000
  0 -1.203000 0.483000 0.663000 -0.999990 0.004393 0.000763 0.087585 0.220703 1 0 1.000000
  0 -1.203000 0.442000 0.613000 -0.999990 0.004438 0.000769 0.120239 0.177734 1 0 1.000000
reticle_ui_stencil
  0 -1.203000 -0.005000 1.014000 -0.999988 0.004346 -0.002027 0.500000 0.500000 1 0 1.000000
  0 -1.203000 0.518000 0.718000 -0.999999 0.001258 0.000697 0.059814 0.266602 1 0 1.000000
  0 -1.203000 0.483000 0.663000 -0.999990 0.004393 0.000763 0.087585 0.220703 1 0 1.000000
reticle_ui_stencil
  0 -1.203000 -0.005000 1.014000 -0.999988 0.004346 -0.002027 0.500000 0.500000 1 0 1.000000
  0 -1.203000 0.547000 0.777000 -0.999999 0.001258 0.000697 0.037170 0.315430 1 0 1.000000
  0 -1.203000 0.518000 0.718000 -0.999999 0.001258 0.000697 0.059814 0.266602 1 0 1.000000
reticle_ui_stencil
  0 -1.203000 -0.005000 1.014000 -0.999988 0.004346 -0.002027 0.500000 0.500000 1 0 1.000000
  0 -1.203000 0.569000 0.838000 -0.999989 0.004262 -0.001985 0.019943 0.366699 1 0 1.000000
  0 -1.203000 0.547000 0.777000 -0.999999 0.001258 0.000697 0.037170 0.315430 1 0 1.000000
reticle_ui_stencil
  0 -1.203000 -0.005000 1.014000 -0.999988 0.004346 -0.002027 0.500000 0.500000 1 0 1.000000
  0 -1.203000 0.585000 0.901000 -0.999989 0.004262 -0.001985 0.008362 0.419434 1 0 1.000000
  0 -1.203000 0.569000 0.838000 -0.999989 0.004262 -0.001985 0.019943 0.366699 1 0 1.000000
reticle_ui_stencil
  0 -1.203000 -0.005000 1.014000 -0.999988 0.004346 -0.002027 0.500000 0.500000 1 0 1.000000
  0 -1.203000 0.594000 0.965000 -0.999989 0.004262 -0.001985 0.002541 0.473145 1 0 1.000000
  0 -1.203000 0.585000 0.901000 -0.999989 0.004262 -0.001985 0.008362 0.419434 1 0 1.000000
reticle_ui_stencil
  0 -1.203000 -0.005000 1.014000 -0.999988 0.004346 -0.002027 0.500000 0.500000 1 0 1.000000
  0 -1.203000 0.596000 1.030000 -0.999989 0.004262 -0.001979 0.002541 0.527100 1 0 1.000000
  0 -1.203000 0.594000 0.965000 -0.999989 0.004262 -0.001985 0.002541 0.473145 1 0 1.000000
reticle_ui_stencil
  0 -1.203000 -0.005000 1.014000 -0.999988 0.004346 -0.002027 0.500000 0.500000 1 0 1.000000
  0 -1.203000 0.590000 1.095000 -0.999989 0.004262 -0.001979 0.008377 0.580566 1 0 1.000000
  0 -1.203000 0.596000 1.030000 -0.999989 0.004262 -0.001979 0.002541 0.527100 1 0 1.000000
reticle_ui_stencil
  0 -1.203000 -0.005000 1.014000 -0.999988 0.004346 -0.002027 0.500000 0.500000 1 0 1.000000
  0 -1.203000 0.578000 1.159000 -0.999989 0.004262 -0.001979 0.019989 0.633301 1 0 1.000000
  0 -1.203000 0.590000 1.095000 -0.999989 0.004262 -0.001979 0.008377 0.580566 1 0 1.000000
reticle_ui_stencil
  0 -1.203000 -0.005000 1.014000 -0.999988 0.004346 -0.002027 0.500000 0.500000 1 0 1.000000
  0 -1.203000 0.559000 1.221000 -0.999989 0.004262 -0.001979 0.037231 0.684570 1 0 1.000000
  0 -1.203000 0.578000 1.159000 -0.999989 0.004262 -0.001979 0.019989 0.633301 1 0 1.000000
reticle_ui_stencil
  0 -1.203000 -0.005000 1.014000 -0.999988 0.004346 -0.002027 0.500000 0.500000 1 0 1.000000
  0 -1.203000 0.533000 1.281000 -0.999990 0.004393 0.000763 0.059875 0.733398 1 0 1.000000
  0 -1.203000 0.559000 1.221000 -0.999989 0.004262 -0.001979 0.037231 0.684570 1 0 1.000000
reticle_ui_stencil
  0 -1.203000 -0.005000 1.014000 -0.999988 0.004346 -0.002027 0.500000 0.500000 1 0 1.000000
  0 -1.203000 0.501000 1.338000 -0.999999 0.001258 0.000691 0.087708 0.779663 1 0 1.000000
  0 -1.203000 0.533000 1.281000 -0.999990 0.004393 0.000763 0.059875 0.733398 1 0 1.000000
reticle_ui_stencil
  0 -1.203000 -0.005000 1.014000 -0.999988 0.004346 -0.002027 0.500000 0.500000 1 0 1.000000
  0 -1.203000 0.463000 1.390000 -0.999999 0.001302 0.000715 0.120361 0.822510 1 0 1.000000
  0 -1.203000 0.501000 1.338000 -0.999999 0.001258 0.000691 0.087708 0.779663 1 0 1.000000
reticle_ui_stencil
  0 -1.203000 -0.005000 1.014000 -0.999988 0.004346 -0.002027 0.500000 0.500000 1 0 1.000000
  0 -1.203000 0.420000 1.439000 -0.999989 0.004259 -0.001979 0.157471 0.861694 1 0 1.000000
  0 -1.203000 0.463000 1.390000 -0.999999 0.001302 0.000715 0.120361 0.822510 1 0 1.000000
reticle_ui_stencil
  0 -1.203000 -0.005000 1.014000 -0.999988 0.004346 -0.002027 0.500000 0.500000 1 0 1.000000
  0 -1.203000 0.371000 1.482000 -0.999999 0.001258 0.000691 0.198608 0.896667 1 0 1.000000
  0 -1.203000 0.420000 1.439000 -0.999989 0.004259 -0.001979 0.157471 0.861694 1 0 1.000000
reticle_ui_stencil
  0 -1.203000 -0.005000 1.014000 -0.999988 0.004346 -0.002027 0.500000 0.500000 1 0 1.000000
  0 -1.203000 0.319000 1.520000 -0.999989 0.004259 -0.001979 0.243164 0.926880 1 0 1.000000
  0 -1.203000 0.371000 1.482000 -0.999999 0.001258 0.000691 0.198608 0.896667 1 0 1.000000
reticle_ui_stencil
  0 -1.203000 -0.005000 1.014000 -0.999988 0.004346 -0.002027 0.500000 0.500000 1 0 1.000000
  0 -1.203000 0.262000 1.552000 -0.999990 0.004441 0.000775 0.290771 0.952179 1 0 1.000000
  0 -1.203000 0.319000 1.520000 -0.999989 0.004259 -0.001979 0.243164 0.926880 1 0 1.000000
reticle_ui_stencil
  0 -1.203000 -0.005000 1.014000 -0.999988 0.004346 -0.002027 0.500000 0.500000 1 0 1.000000
  0 -1.203000 0.202000 1.578000 -0.999990 0.004393 0.000763 0.341064 0.972137 1 0 1.000000
  0 -1.203000 0.262000 1.552000 -0.999990 0.004441 0.000775 0.290771 0.952179 1 0 1.000000
reticle_ui_stencil
  0 -1.203000 -0.005000 1.014000 -0.999988 0.004346 -0.002027 0.500000 0.500000 1 0 1.000000
  0 -1.203000 0.140000 1.597000 -0.999999 0.001259 0.000691 0.393066 0.986557 1 0 1.000000
  0 -1.203000 0.202000 1.578000 -0.999990 0.004393 0.000763 0.341064 0.972137 1 0 1.000000
reticle_ui_stencil
  0 -1.203000 -0.005000 1.014000 -0.999988 0.004346 -0.002027 0.500000 0.500000 1 0 1.000000
  0 -1.203000 0.076000 1.609000 -0.999990 0.004393 0.000763 0.446289 0.995281 1 0 1.000000
  0 -1.203000 0.140000 1.597000 -0.999999 0.001259 0.000691 0.393066 0.986557 1 0 1.000000
reticle_ui_stencil
  0 -1.203000 -0.005000 1.014000 -0.999988 0.004346 -0.002027 0.500000 0.500000 1 0 1.000000
  0 -1.203000 0.011000 1.615000 -0.999990 0.004393 0.000763 0.500000 0.998190 1 0 1.000000
  0 -1.203000 0.076000 1.609000 -0.999990 0.004393 0.000763 0.446289 0.995281 1 0 1.000000
reticle_ui_stencil
  0 -1.203000 -0.005000 1.014000 -0.999988 0.004346 -0.002027 0.500000 0.500000 1 0 1.000000
  0 -1.203000 -0.054000 1.613000 -0.999975 0.006997 0.000834 0.553711 0.995258 1 0 1.000000
  0 -1.203000 0.011000 1.615000 -0.999990 0.004393 0.000763 0.500000 0.998190 1 0 1.000000
reticle_ui_stencil
  0 -1.203000 -0.005000 1.014000 -0.999988 0.004346 -0.002027 0.500000 0.500000 1 0 1.000000
  0 -1.203000 -0.118000 1.604000 -0.999975 0.007044 0.000834 0.606934 0.986526 1 0 1.000000
  0 -1.203000 -0.054000 1.613000 -0.999975 0.006997 0.000834 0.553711 0.995258 1 0 1.000000
reticle_ui_stencil
  0 -1.203000 -0.005000 1.014000 -0.999988 0.004346 -0.002027 0.500000 0.500000 1 0 1.000000
  0 -1.203000 -0.181000 1.588000 -0.999989 0.004260 -0.001979 0.659180 0.972092 1 0 1.000000
  0 -1.203000 -0.118000 1.604000 -0.999975 0.007044 0.000834 0.606934 0.986526 1 0 1.000000
reticle_ui_stencil
  0 -1.203000 -0.005000 1.014000 -0.999988 0.004346 -0.002027 0.500000 0.500000 1 0 1.000000
  0 -1.203000 -0.242000 1.566000 -0.999990 0.004393 0.000763 0.709473 0.952118 1 0 1.000000
  0 -1.203000 -0.181000 1.588000 -0.999989 0.004260 -0.001979 0.659180 0.972092 1 0 1.000000
reticle_ui_stencil
  0 -1.203000 -0.005000 1.014000 -0.999988 0.004346 -0.002027 0.500000 0.500000 1 0 1.000000
  0 -1.203000 -0.301001 1.537000 -0.999989 0.004259 -0.001979 0.756836 0.926819 1 0 1.000000
  0 -1.203000 -0.242000 1.566000 -0.999990 0.004393 0.000763 0.709473 0.952118 1 0 1.000000
reticle_ui_stencil
  0 -1.203000 -0.005000 1.014000 -0.999988 0.004346 -0.002027 0.500000 0.500000 1 0 1.000000
  0 -1.203000 -0.355000 1.502000 -0.999999 0.001302 0.000715 0.801758 0.896545 1 0 1.000000
  0 -1.203000 -0.301001 1.537000 -0.999989 0.004259 -0.001979 0.756836 0.926819 1 0 1.000000
reticle_ui_stencil
  0 -1.203000 -0.005000 1.014000 -0.999988 0.004346 -0.002027 0.500000 0.500000 1 0 1.000000
  0 -1.203000 -0.406000 1.461000 -0.999999 0.001258 0.000691 0.842773 0.861694 1 0 1.000000
  0 -1.203000 -0.355000 1.502000 -0.999999 0.001302 0.000715 0.801758 0.896545 1 0 1.000000
reticle_ui_stencil
  0 -1.203000 -0.005000 1.014000 -0.999988 0.004346 -0.002027 0.500000 0.500000 1 0 1.000000
  0 -1.203000 -0.452000 1.415000 -0.999999 0.001258 0.000691 0.879883 0.822510 1 0 1.000000
  0 -1.203000 -0.406000 1.461000 -0.999999 0.001258 0.000691 0.842773 0.861694 1 0 1.000000
reticle_ui_stencil
  0 -1.203000 -0.005000 1.014000 -0.999988 0.004346 -0.002027 0.500000 0.500000 1 0 1.000000
  0 -1.203000 -0.493000 1.364000 -0.999990 0.004393 0.000763 0.912598 0.779541 1 0 1.000000
  0 -1.203000 -0.452000 1.415000 -0.999999 0.001258 0.000691 0.879883 0.822510 1 0 1.000000
reticle_ui_stencil
  0 -1.203000 -0.005000 1.014000 -0.999988 0.004346 -0.002027 0.500000 0.500000 1 0 1.000000
  0 -1.203000 -0.528001 1.310000 -0.999989 0.004262 -0.001979 0.940430 0.733398 1 0 1.000000
  0 -1.203000 -0.493000 1.364000 -0.999990 0.004393 0.000763 0.912598 0.779541 1 0 1.000000
reticle_ui_stencil
  0 -1.203000 -0.005000 1.014000 -0.999988 0.004346 -0.002027 0.500000 0.500000 1 0 1.000000
  0 -1.203000 -0.557000 1.251000 -0.999999 0.001258 0.000691 0.962891 0.684326 1 0 1.000000
  0 -1.203000 -0.528001 1.310000 -0.999989 0.004262 -0.001979 0.940430 0.733398 1 0 1.000000
reticle_ui_stencil
  0 -1.203000 -0.005000 1.014000 -0.999988 0.004346 -0.002027 0.500000 0.500000 1 0 1.000000
  0 -1.203000 -0.579000 1.190000 -0.999989 0.004262 -0.001979 0.979980 0.633301 1 0 1.000000
  0 -1.203000 -0.557000 1.251000 -0.999999 0.001258 0.000691 0.962891 0.684326 1 0 1.000000
reticle_ui_stencil
  0 -1.203000 -0.005000 1.014000 -0.999988 0.004346 -0.002027 0.500000 0.500000 1 0 1.000000
  0 -1.203000 -0.595000 1.127000 -0.999989 0.004262 -0.001979 0.991699 0.580566 1 0 1.000000
  0 -1.203000 -0.579000 1.190000 -0.999989 0.004262 -0.001979 0.979980 0.633301 1 0 1.000000
reticle_ui_stencil
  0 -1.203000 -0.005000 1.014000 -0.999988 0.004346 -0.002027 0.500000 0.500000 1 0 1.000000
  0 -1.203000 -0.604000 1.063000 -0.999989 0.004262 -0.001979 0.997559 0.526855 1 0 1.000000
  0 -1.203000 -0.595000 1.127000 -0.999989 0.004262 -0.001979 0.991699 0.580566 1 0 1.000000
reticle_ui_stencil
  0 -1.203000 -0.005000 1.014000 -0.999988 0.004346 -0.002027 0.500000 0.500000 1 0 1.000000
  0 -1.203000 -0.606000 0.998000 -0.999989 0.004262 -0.001985 0.997559 0.473145 1 0 1.000000
  0 -1.203000 -0.604000 1.063000 -0.999989 0.004262 -0.001979 0.997559 0.526855 1 0 1.000000
reticle_ui_stencil
  0 -1.203000 -0.005000 1.014000 -0.999988 0.004346 -0.002027 0.500000 0.500000 1 0 1.000000
  0 -1.203000 -0.600000 0.933000 -0.999989 0.004262 -0.001985 0.991699 0.419434 1 0 1.000000
  0 -1.203000 -0.606000 0.998000 -0.999989 0.004262 -0.001985 0.997559 0.473145 1 0 1.000000
reticle_ui_stencil
  0 -1.203000 -0.005000 1.014000 -0.999988 0.004346 -0.002027 0.500000 0.500000 1 0 1.000000
  0 -1.203000 -0.588000 0.869000 -0.999989 0.004262 -0.001985 0.979980 0.366699 1 0 1.000000
  0 -1.203000 -0.600000 0.933000 -0.999989 0.004262 -0.001985 0.991699 0.419434 1 0 1.000000
reticle_ui_stencil
  0 -1.203000 -0.005000 1.014000 -0.999988 0.004346 -0.002027 0.500000 0.500000 1 0 1.000000
  0 -1.203000 -0.569000 0.806999 -0.999989 0.004262 -0.001985 0.962891 0.315430 1 0 1.000000
  0 -1.203000 -0.588000 0.869000 -0.999989 0.004262 -0.001985 0.979980 0.366699 1 0 1.000000
reticle_ui_stencil
  0 -1.203000 -0.005000 1.014000 -0.999988 0.004346 -0.002027 0.500000 0.500000 1 0 1.000000
  0 -1.203000 -0.543000 0.747000 -0.999990 0.004393 0.000763 0.939941 0.266602 1 0 1.000000
  0 -1.203000 -0.569000 0.806999 -0.999989 0.004262 -0.001985 0.962891 0.315430 1 0 1.000000
reticle_ui_stencil
  0 -1.203000 -0.511000 0.689999 -0.999999 0.001258 0.000697 0.912109 0.220215 1 0 1.000000
  0 -1.203000 -0.543000 0.747000 -0.999990 0.004393 0.000763 0.939941 0.266602 1 0 1.000000
  0 -1.203000 -0.005000 1.014000 -0.999988 0.004346 -0.002027 0.500000 0.500000 1 0 1.000000
reticle_ui_stencil
  0 -1.203000 -0.511000 0.689999 -0.999999 0.001258 0.000697 0.912109 0.220215 1 0 1.000000
  0 -1.203000 -0.005000 1.014000 -0.999988 0.004346 -0.002027 0.500000 0.500000 1 0 1.000000
  0 -1.203000 -0.473000 0.638000 -0.999999 0.001258 0.000697 0.879883 0.177246 1 0 1.000000
end
