// Created by Crowbar 0.74
version 1
nodes
  0 "tag_thermal" -1
  1 "tag_reticle_attach" 0
  2 "tag_lense" 0
end
skeleton
  time 0
    0 0.000000 0.000000 0.000000 0.000000 0.000000 0.000000
    1 -1.082000 0.000000 0.926000 0.000000 0.000000 0.000000
    2 -1.082000 0.000000 0.926000 0.000000 0.000000 0.000000
end
triangles
ads_scope_lens_1
  2 -1.046000 0.000000 1.346000 -0.984532 0.006324 0.175092 0.500000 0.875000 1 2 1.000000
  2 -1.018000 0.000000 1.487000 -0.980788 -0.003090 0.195050 0.500000 1.000000 1 2 1.000000
  2 -1.018000 0.146000 1.467000 -0.981226 0.047015 0.187043 0.370605 0.983002 1 2 1.000000
ads_scope_lens_1
  2 -1.046000 0.000000 1.346000 -0.984532 0.006324 0.175092 0.500000 0.875000 1 2 1.000000
  2 -1.018000 -0.146000 1.467000 -0.981226 -0.047015 0.187043 0.629395 0.983002 1 2 1.000000
  2 -1.018000 0.000000 1.487000 -0.980788 -0.003090 0.195050 0.500000 1.000000 1 2 1.000000
ads_scope_lens_1
  2 -1.079000 0.000000 1.047000 -0.997805 -0.002556 0.066176 0.500000 0.609131 1 2 1.000000
  2 -1.079000 -0.032000 1.043000 -0.997711 -0.014157 0.066124 0.528320 0.605469 1 2 1.000000
  2 -1.066000 0.000000 1.205000 -0.992889 0.005008 0.118939 0.500000 0.750000 1 2 1.000000
ads_scope_lens_1
  2 -1.079000 -0.032000 1.043000 -0.997711 -0.014157 0.066124 0.528320 0.605469 1 2 1.000000
  2 -1.066000 -0.073000 1.196000 -0.993209 -0.025774 0.113454 0.564941 0.741455 1 2 1.000000
  2 -1.066000 0.000000 1.205000 -0.992889 0.005008 0.118939 0.500000 0.750000 1 2 1.000000
ads_scope_lens_1
  2 -1.066000 0.000000 1.205000 -0.992889 0.005008 0.118939 0.500000 0.750000 1 2 1.000000
  2 -1.066000 -0.073000 1.196000 -0.993209 -0.025774 0.113454 0.564941 0.741455 1 2 1.000000
  2 -1.046000 0.000000 1.346000 -0.984532 0.006324 0.175092 0.500000 0.875000 1 2 1.000000
ads_scope_lens_1
  2 -1.066000 -0.073000 1.196000 -0.993209 -0.025774 0.113454 0.564941 0.741455 1 2 1.000000
  2 -1.046000 -0.109000 1.332000 -0.984671 -0.040359 0.169689 0.597168 0.862183 1 2 1.000000
  2 -1.046000 0.000000 1.346000 -0.984532 0.006324 0.175092 0.500000 0.875000 1 2 1.000000
ads_scope_lens_1
  2 -1.046000 -0.109000 1.332000 -0.984671 -0.040359 0.169689 0.597168 0.862183 1 2 1.000000
  2 -1.018000 -0.146000 1.467000 -0.981226 -0.047015 0.187043 0.629395 0.983002 1 2 1.000000
  2 -1.046000 0.000000 1.346000 -0.984532 0.006324 0.175092 0.500000 0.875000 1 2 1.000000
ads_scope_lens_1
  2 -1.046000 -0.211000 1.289000 -0.984977 -0.084455 0.150624 0.687500 0.824829 1 2 1.000000
  2 -1.018000 -0.146000 1.467000 -0.981226 -0.047015 0.187043 0.629395 0.983002 1 2 1.000000
  2 -1.046000 -0.109000 1.332000 -0.984671 -0.040359 0.169689 0.597168 0.862183 1 2 1.000000
ads_scope_lens_1
  2 -1.046000 -0.211000 1.289000 -0.984977 -0.084455 0.150624 0.687500 0.824829 1 2 1.000000
  2 -1.018000 -0.281000 1.411000 -0.980919 -0.093439 0.170488 0.750000 0.932983 1 2 1.000000
  2 -1.018000 -0.146000 1.467000 -0.981226 -0.047015 0.187043 0.629395 0.983002 1 2 1.000000
ads_scope_lens_1
  2 -1.046000 -0.211000 1.289000 -0.984977 -0.084455 0.150624 0.687500 0.824829 1 2 1.000000
  2 -1.046000 -0.298000 1.222000 -0.985031 -0.120164 0.123588 0.765137 0.765259 1 2 1.000000
  2 -1.018000 -0.281000 1.411000 -0.980919 -0.093439 0.170488 0.750000 0.932983 1 2 1.000000
ads_scope_lens_1
  2 -1.046000 -0.298000 1.222000 -0.985031 -0.120164 0.123588 0.765137 0.765259 1 2 1.000000
  2 -1.018000 -0.398000 1.322000 -0.981572 -0.131920 0.138254 0.853516 0.853638 1 2 1.000000
  2 -1.018000 -0.281000 1.411000 -0.980919 -0.093439 0.170488 0.750000 0.932983 1 2 1.000000
ads_scope_lens_1
  2 -1.046000 -0.298000 1.222000 -0.985031 -0.120164 0.123588 0.765137 0.765259 1 2 1.000000
  2 -1.018000 -0.487000 1.205000 -0.981095 -0.167573 0.096805 0.933105 0.750000 1 2 1.000000
  2 -1.018000 -0.398000 1.322000 -0.981572 -0.131920 0.138254 0.853516 0.853638 1 2 1.000000
ads_scope_lens_1
  2 -1.046000 -0.365000 1.135000 -0.985461 -0.145541 0.087662 0.824707 0.687500 1 2 1.000000
  2 -1.018000 -0.487000 1.205000 -0.981095 -0.167573 0.096805 0.933105 0.750000 1 2 1.000000
  2 -1.046000 -0.298000 1.222000 -0.985031 -0.120164 0.123588 0.765137 0.765259 1 2 1.000000
ads_scope_lens_1
  2 -1.066000 -0.244000 1.065000 -0.993269 -0.100075 0.058327 0.716309 0.625000 1 2 1.000000
  2 -1.046000 -0.365000 1.135000 -0.985461 -0.145541 0.087662 0.824707 0.687500 1 2 1.000000
  2 -1.046000 -0.298000 1.222000 -0.985031 -0.120164 0.123588 0.765137 0.765259 1 2 1.000000
ads_scope_lens_1
  2 -1.066000 -0.244000 1.065000 -0.993269 -0.100075 0.058327 0.716309 0.625000 1 2 1.000000
  2 -1.046000 -0.407000 1.033000 -0.984852 -0.167166 0.046071 0.862305 0.597168 1 2 1.000000
  2 -1.046000 -0.365000 1.135000 -0.985461 -0.145541 0.087662 0.824707 0.687500 1 2 1.000000
ads_scope_lens_1
  2 -1.066000 -0.244000 1.065000 -0.993269 -0.100075 0.058327 0.716309 0.625000 1 2 1.000000
  2 -1.066000 -0.272000 0.997000 -0.993592 -0.108744 0.030813 0.741699 0.564697 1 2 1.000000
  2 -1.046000 -0.407000 1.033000 -0.984852 -0.167166 0.046071 0.862305 0.597168 1 2 1.000000
ads_scope_lens_1
  2 -1.066000 -0.272000 0.997000 -0.993592 -0.108744 0.030813 0.741699 0.564697 1 2 1.000000
  2 -1.046000 -0.422000 0.924000 -0.985385 -0.170339 -0.001043 0.875000 0.500000 1 2 1.000000
  2 -1.046000 -0.407000 1.033000 -0.984852 -0.167166 0.046071 0.862305 0.597168 1 2 1.000000
ads_scope_lens_1
  2 -1.046000 -0.211000 1.289000 -0.984977 -0.084455 0.150624 0.687500 0.824829 1 2 1.000000
  2 -1.046000 -0.109000 1.332000 -0.984671 -0.040359 0.169689 0.597168 0.862183 1 2 1.000000
  2 -1.066000 -0.073000 1.196000 -0.993209 -0.025774 0.113454 0.564941 0.741455 1 2 1.000000
ads_scope_lens_1
  2 -1.066000 -0.141000 1.168000 -0.993168 -0.055950 0.102401 0.625000 0.716553 1 2 1.000000
  2 -1.046000 -0.211000 1.289000 -0.984977 -0.084455 0.150624 0.687500 0.824829 1 2 1.000000
  2 -1.066000 -0.073000 1.196000 -0.993209 -0.025774 0.113454 0.564941 0.741455 1 2 1.000000
ads_scope_lens_1
  2 -1.066000 -0.141000 1.168000 -0.993168 -0.055950 0.102401 0.625000 0.716553 1 2 1.000000
  2 -1.046000 -0.298000 1.222000 -0.985031 -0.120164 0.123588 0.765137 0.765259 1 2 1.000000
  2 -1.046000 -0.211000 1.289000 -0.984977 -0.084455 0.150624 0.687500 0.824829 1 2 1.000000
ads_scope_lens_1
  2 -1.066000 -0.199000 1.123000 -0.993250 -0.080821 0.083200 0.676758 0.676758 1 2 1.000000
  2 -1.046000 -0.298000 1.222000 -0.985031 -0.120164 0.123588 0.765137 0.765259 1 2 1.000000
  2 -1.066000 -0.141000 1.168000 -0.993168 -0.055950 0.102401 0.625000 0.716553 1 2 1.000000
ads_scope_lens_1
  2 -1.066000 -0.244000 1.065000 -0.993269 -0.100075 0.058327 0.716309 0.625000 1 2 1.000000
  2 -1.046000 -0.298000 1.222000 -0.985031 -0.120164 0.123588 0.765137 0.765259 1 2 1.000000
  2 -1.066000 -0.199000 1.123000 -0.993250 -0.080821 0.083200 0.676758 0.676758 1 2 1.000000
ads_scope_lens_1
  2 -1.066000 -0.141000 1.168000 -0.993168 -0.055950 0.102401 0.625000 0.716553 1 2 1.000000
  2 -1.066000 -0.073000 1.196000 -0.993209 -0.025774 0.113454 0.564941 0.741455 1 2 1.000000
  2 -1.079000 -0.032000 1.043000 -0.997711 -0.014157 0.066124 0.528320 0.605469 1 2 1.000000
ads_scope_lens_1
  2 -1.046000 0.211000 1.289000 -0.984803 0.082052 0.153069 0.312500 0.824829 1 2 1.000000
  2 -1.018000 0.146000 1.467000 -0.981226 0.047015 0.187043 0.370605 0.983002 1 2 1.000000
  2 -1.018000 0.281000 1.411000 -0.981346 0.092876 0.168329 0.250000 0.932983 1 2 1.000000
ads_scope_lens_1
  2 -1.046000 0.109000 1.332000 -0.985104 0.040970 0.167005 0.402832 0.862183 1 2 1.000000
  2 -1.018000 0.146000 1.467000 -0.981226 0.047015 0.187043 0.370605 0.983002 1 2 1.000000
  2 -1.046000 0.211000 1.289000 -0.984803 0.082052 0.153069 0.312500 0.824829 1 2 1.000000
ads_scope_lens_1
  2 -1.046000 0.000000 1.346000 -0.984532 0.006324 0.175092 0.500000 0.875000 1 2 1.000000
  2 -1.018000 0.146000 1.467000 -0.981226 0.047015 0.187043 0.370605 0.983002 1 2 1.000000
  2 -1.046000 0.109000 1.332000 -0.985104 0.040970 0.167005 0.402832 0.862183 1 2 1.000000
ads_scope_lens_1
  2 -1.046000 0.000000 1.346000 -0.984532 0.006324 0.175092 0.500000 0.875000 1 2 1.000000
  2 -1.046000 0.109000 1.332000 -0.985104 0.040970 0.167005 0.402832 0.862183 1 2 1.000000
  2 -1.066000 0.073000 1.196000 -0.992901 0.025377 0.116204 0.435303 0.741455 1 2 1.000000
ads_scope_lens_1
  2 -1.066000 0.000000 1.205000 -0.992889 0.005008 0.118939 0.500000 0.750000 1 2 1.000000
  2 -1.046000 0.000000 1.346000 -0.984532 0.006324 0.175092 0.500000 0.875000 1 2 1.000000
  2 -1.066000 0.073000 1.196000 -0.992901 0.025377 0.116204 0.435303 0.741455 1 2 1.000000
ads_scope_lens_1
  2 -1.066000 0.000000 1.205000 -0.992889 0.005008 0.118939 0.500000 0.750000 1 2 1.000000
  2 -1.066000 0.073000 1.196000 -0.992901 0.025377 0.116204 0.435303 0.741455 1 2 1.000000
  2 -1.079000 0.032000 1.043000 -0.997708 0.014154 0.066172 0.471680 0.605469 1 2 1.000000
ads_scope_lens_1
  2 -1.079000 0.000000 1.047000 -0.997805 -0.002556 0.066176 0.500000 0.609131 1 2 1.000000
  2 -1.066000 0.000000 1.205000 -0.992889 0.005008 0.118939 0.500000 0.750000 1 2 1.000000
  2 -1.079000 0.032000 1.043000 -0.997708 0.014154 0.066172 0.471680 0.605469 1 2 1.000000
ads_scope_lens_1
  2 -1.082000 0.000000 0.924000 -0.999975 0.006852 -0.001735 0.500000 0.500000 1 2 1.000000
  2 -1.079000 0.000000 1.047000 -0.997805 -0.002556 0.066176 0.500000 0.609131 1 2 1.000000
  2 -1.079000 0.032000 1.043000 -0.997708 0.014154 0.066172 0.471680 0.605469 1 2 1.000000
ads_scope_lens_1
  2 -1.082000 0.000000 0.924000 -0.999975 0.006852 -0.001735 0.500000 0.500000 1 2 1.000000
  2 -1.079000 -0.032000 1.043000 -0.997711 -0.014157 0.066124 0.528320 0.605469 1 2 1.000000
  2 -1.079000 0.000000 1.047000 -0.997805 -0.002556 0.066176 0.500000 0.609131 1 2 1.000000
ads_scope_lens_1
  2 -1.082000 0.000000 0.924000 -0.999975 0.006852 -0.001735 0.500000 0.500000 1 2 1.000000
  2 -1.079000 -0.061000 1.030000 -0.997687 -0.030731 0.060632 0.554688 0.594482 1 2 1.000000
  2 -1.079000 -0.032000 1.043000 -0.997711 -0.014157 0.066124 0.528320 0.605469 1 2 1.000000
ads_scope_lens_1
  2 -1.079000 -0.061000 1.030000 -0.997687 -0.030731 0.060632 0.554688 0.594482 1 2 1.000000
  2 -1.066000 -0.141000 1.168000 -0.993168 -0.055950 0.102401 0.625000 0.716553 1 2 1.000000
  2 -1.079000 -0.032000 1.043000 -0.997711 -0.014157 0.066124 0.528320 0.605469 1 2 1.000000
ads_scope_lens_1
  2 -1.079000 -0.061000 1.030000 -0.997687 -0.030731 0.060632 0.554688 0.594482 1 2 1.000000
  2 -1.079000 -0.087000 1.011000 -0.997773 -0.044384 0.049787 0.577148 0.577148 1 2 1.000000
  2 -1.066000 -0.141000 1.168000 -0.993168 -0.055950 0.102401 0.625000 0.716553 1 2 1.000000
ads_scope_lens_1
  2 -1.079000 -0.087000 1.011000 -0.997773 -0.044384 0.049787 0.577148 0.577148 1 2 1.000000
  2 -1.066000 -0.199000 1.123000 -0.993250 -0.080821 0.083200 0.676758 0.676758 1 2 1.000000
  2 -1.066000 -0.141000 1.168000 -0.993168 -0.055950 0.102401 0.625000 0.716553 1 2 1.000000
ads_scope_lens_1
  2 -1.079000 -0.106000 0.986000 -0.997811 -0.055526 0.035911 0.594727 0.554688 1 2 1.000000
  2 -1.066000 -0.199000 1.123000 -0.993250 -0.080821 0.083200 0.676758 0.676758 1 2 1.000000
  2 -1.079000 -0.087000 1.011000 -0.997773 -0.044384 0.049787 0.577148 0.577148 1 2 1.000000
ads_scope_lens_1
  2 -1.079000 -0.106000 0.986000 -0.997811 -0.055526 0.035911 0.594727 0.554688 1 2 1.000000
  2 -1.066000 -0.244000 1.065000 -0.993269 -0.100075 0.058327 0.716309 0.625000 1 2 1.000000
  2 -1.066000 -0.199000 1.123000 -0.993250 -0.080821 0.083200 0.676758 0.676758 1 2 1.000000
ads_scope_lens_1
  2 -1.079000 -0.106000 0.986000 -0.997811 -0.055526 0.035911 0.594727 0.554688 1 2 1.000000
  2 -1.079000 -0.119000 0.956000 -0.997771 -0.063889 0.019264 0.605469 0.528320 1 2 1.000000
  2 -1.066000 -0.244000 1.065000 -0.993269 -0.100075 0.058327 0.716309 0.625000 1 2 1.000000
ads_scope_lens_1
  2 -1.066000 -0.244000 1.065000 -0.993269 -0.100075 0.058327 0.716309 0.625000 1 2 1.000000
  2 -1.079000 -0.119000 0.956000 -0.997771 -0.063889 0.019264 0.605469 0.528320 1 2 1.000000
  2 -1.066000 -0.272000 0.997000 -0.993592 -0.108744 0.030813 0.741699 0.564697 1 2 1.000000
ads_scope_lens_1
  2 -1.066000 -0.272000 0.997000 -0.993592 -0.108744 0.030813 0.741699 0.564697 1 2 1.000000
  2 -1.079000 -0.119000 0.956000 -0.997771 -0.063889 0.019264 0.605469 0.528320 1 2 1.000000
  2 -1.066000 -0.281000 0.924000 -0.993184 -0.116551 -0.001023 0.750000 0.500000 1 2 1.000000
ads_scope_lens_1
  2 -1.082000 0.000000 0.924000 -0.999975 0.006852 -0.001735 0.500000 0.500000 1 2 1.000000
  2 -1.079000 -0.087000 1.011000 -0.997773 -0.044384 0.049787 0.577148 0.577148 1 2 1.000000
  2 -1.079000 -0.061000 1.030000 -0.997687 -0.030731 0.060632 0.554688 0.594482 1 2 1.000000
ads_scope_lens_1
  2 -1.082000 0.000000 0.924000 -0.999975 0.006852 -0.001735 0.500000 0.500000 1 2 1.000000
  2 -1.079000 -0.106000 0.986000 -0.997811 -0.055526 0.035911 0.594727 0.554688 1 2 1.000000
  2 -1.079000 -0.087000 1.011000 -0.997773 -0.044384 0.049787 0.577148 0.577148 1 2 1.000000
ads_scope_lens_1
  2 -1.082000 0.000000 0.924000 -0.999975 0.006852 -0.001735 0.500000 0.500000 1 2 1.000000
  2 -1.079000 -0.119000 0.956000 -0.997771 -0.063889 0.019264 0.605469 0.528320 1 2 1.000000
  2 -1.079000 -0.106000 0.986000 -0.997811 -0.055526 0.035911 0.594727 0.554688 1 2 1.000000
ads_scope_lens_1
  2 -1.066000 0.073000 1.196000 -0.992901 0.025377 0.116204 0.435303 0.741455 1 2 1.000000
  2 -1.046000 0.109000 1.332000 -0.985104 0.040970 0.167005 0.402832 0.862183 1 2 1.000000
  2 -1.046000 0.211000 1.289000 -0.984803 0.082052 0.153069 0.312500 0.824829 1 2 1.000000
ads_scope_lens_1
  2 -1.066000 0.141000 1.168000 -0.993305 0.053698 0.102280 0.375000 0.716553 1 2 1.000000
  2 -1.066000 0.073000 1.196000 -0.992901 0.025377 0.116204 0.435303 0.741455 1 2 1.000000
  2 -1.046000 0.211000 1.289000 -0.984803 0.082052 0.153069 0.312500 0.824829 1 2 1.000000
ads_scope_lens_1
  2 -1.079000 0.032000 1.043000 -0.997708 0.014154 0.066172 0.471680 0.605469 1 2 1.000000
  2 -1.066000 0.073000 1.196000 -0.992901 0.025377 0.116204 0.435303 0.741455 1 2 1.000000
  2 -1.066000 0.141000 1.168000 -0.993305 0.053698 0.102280 0.375000 0.716553 1 2 1.000000
ads_scope_lens_1
  2 -1.079000 0.061000 1.030000 -0.997687 0.030730 0.060632 0.445313 0.594482 1 2 1.000000
  2 -1.079000 0.032000 1.043000 -0.997708 0.014154 0.066172 0.471680 0.605469 1 2 1.000000
  2 -1.066000 0.141000 1.168000 -0.993305 0.053698 0.102280 0.375000 0.716553 1 2 1.000000
ads_scope_lens_1
  2 -1.082000 0.000000 0.924000 -0.999975 0.006852 -0.001735 0.500000 0.500000 1 2 1.000000
  2 -1.079000 0.032000 1.043000 -0.997708 0.014154 0.066172 0.471680 0.605469 1 2 1.000000
  2 -1.079000 0.061000 1.030000 -0.997687 0.030730 0.060632 0.445313 0.594482 1 2 1.000000
ads_scope_lens_1
  2 -1.082000 0.000000 0.924000 -0.999975 0.006852 -0.001735 0.500000 0.500000 1 2 1.000000
  2 -1.079000 0.061000 1.030000 -0.997687 0.030730 0.060632 0.445313 0.594482 1 2 1.000000
  2 -1.079000 0.087000 1.011000 -0.997773 0.044384 0.049787 0.422852 0.577148 1 2 1.000000
ads_scope_lens_1
  2 -1.079000 0.087000 1.011000 -0.997773 0.044384 0.049787 0.422852 0.577148 1 2 1.000000
  2 -1.079000 0.061000 1.030000 -0.997687 0.030730 0.060632 0.445313 0.594482 1 2 1.000000
  2 -1.066000 0.141000 1.168000 -0.993305 0.053698 0.102280 0.375000 0.716553 1 2 1.000000
ads_scope_lens_1
  2 -1.082000 0.000000 0.924000 -0.999975 0.006852 -0.001735 0.500000 0.500000 1 2 1.000000
  2 -1.079000 -0.087000 0.837000 -0.997896 -0.044277 -0.047356 0.577148 0.422852 1 2 1.000000
  2 -1.079000 -0.106000 0.863000 -0.997909 -0.055241 -0.033545 0.594727 0.445313 1 2 1.000000
ads_scope_lens_1
  2 -1.079000 -0.106000 0.863000 -0.997909 -0.055241 -0.033545 0.594727 0.445313 1 2 1.000000
  2 -1.079000 -0.087000 0.837000 -0.997896 -0.044277 -0.047356 0.577148 0.422852 1 2 1.000000
  2 -1.066000 -0.244000 0.784000 -0.993116 -0.099598 -0.061641 0.716309 0.375000 1 2 1.000000
ads_scope_lens_1
  2 -1.079000 -0.119000 0.892000 -0.997836 -0.063509 -0.017011 0.605469 0.471680 1 2 1.000000
  2 -1.079000 -0.106000 0.863000 -0.997909 -0.055241 -0.033545 0.594727 0.445313 1 2 1.000000
  2 -1.066000 -0.244000 0.784000 -0.993116 -0.099598 -0.061641 0.716309 0.375000 1 2 1.000000
ads_scope_lens_1
  2 -1.082000 0.000000 0.924000 -0.999975 0.006852 -0.001735 0.500000 0.500000 1 2 1.000000
  2 -1.079000 -0.106000 0.863000 -0.997909 -0.055241 -0.033545 0.594727 0.445313 1 2 1.000000
  2 -1.079000 -0.119000 0.892000 -0.997836 -0.063509 -0.017011 0.605469 0.471680 1 2 1.000000
ads_scope_lens_1
  2 -1.079000 -0.123000 0.924000 -0.997801 -0.066279 -0.000310 0.609375 0.500000 1 2 1.000000
  2 -1.082000 0.000000 0.924000 -0.999975 0.006852 -0.001735 0.500000 0.500000 1 2 1.000000
  2 -1.079000 -0.119000 0.892000 -0.997836 -0.063509 -0.017011 0.605469 0.471680 1 2 1.000000
ads_scope_lens_1
  2 -1.079000 -0.119000 0.956000 -0.997771 -0.063889 0.019264 0.605469 0.528320 1 2 1.000000
  2 -1.082000 0.000000 0.924000 -0.999975 0.006852 -0.001735 0.500000 0.500000 1 2 1.000000
  2 -1.079000 -0.123000 0.924000 -0.997801 -0.066279 -0.000310 0.609375 0.500000 1 2 1.000000
ads_scope_lens_1
  2 -1.066000 -0.281000 0.924000 -0.993184 -0.116551 -0.001023 0.750000 0.500000 1 2 1.000000
  2 -1.079000 -0.119000 0.956000 -0.997771 -0.063889 0.019264 0.605469 0.528320 1 2 1.000000
  2 -1.079000 -0.123000 0.924000 -0.997801 -0.066279 -0.000310 0.609375 0.500000 1 2 1.000000
ads_scope_lens_1
  2 -1.079000 -0.123000 0.924000 -0.997801 -0.066279 -0.000310 0.609375 0.500000 1 2 1.000000
  2 -1.079000 -0.119000 0.892000 -0.997836 -0.063509 -0.017011 0.605469 0.471680 1 2 1.000000
  2 -1.066000 -0.281000 0.924000 -0.993184 -0.116551 -0.001023 0.750000 0.500000 1 2 1.000000
ads_scope_lens_1
  2 -1.066000 -0.281000 0.924000 -0.993184 -0.116551 -0.001023 0.750000 0.500000 1 2 1.000000
  2 -1.079000 -0.119000 0.892000 -0.997836 -0.063509 -0.017011 0.605469 0.471680 1 2 1.000000
  2 -1.066000 -0.272000 0.851000 -0.993047 -0.113489 -0.031272 0.741699 0.435059 1 2 1.000000
ads_scope_lens_1
  2 -1.079000 -0.119000 0.892000 -0.997836 -0.063509 -0.017011 0.605469 0.471680 1 2 1.000000
  2 -1.066000 -0.244000 0.784000 -0.993116 -0.099598 -0.061641 0.716309 0.375000 1 2 1.000000
  2 -1.066000 -0.272000 0.851000 -0.993047 -0.113489 -0.031272 0.741699 0.435059 1 2 1.000000
ads_scope_lens_1
  2 -1.066000 -0.272000 0.997000 -0.993592 -0.108744 0.030813 0.741699 0.564697 1 2 1.000000
  2 -1.066000 -0.281000 0.924000 -0.993184 -0.116551 -0.001023 0.750000 0.500000 1 2 1.000000
  2 -1.046000 -0.422000 0.924000 -0.985385 -0.170339 -0.001043 0.875000 0.500000 1 2 1.000000
ads_scope_lens_1
  2 -1.066000 -0.281000 0.924000 -0.993184 -0.116551 -0.001023 0.750000 0.500000 1 2 1.000000
  2 -1.066000 -0.272000 0.851000 -0.993047 -0.113489 -0.031272 0.741699 0.435059 1 2 1.000000
  2 -1.046000 -0.422000 0.924000 -0.985385 -0.170339 -0.001043 0.875000 0.500000 1 2 1.000000
ads_scope_lens_1
  2 -1.046000 -0.422000 0.924000 -0.985385 -0.170339 -0.001043 0.875000 0.500000 1 2 1.000000
  2 -1.066000 -0.272000 0.851000 -0.993047 -0.113489 -0.031272 0.741699 0.435059 1 2 1.000000
  2 -1.046000 -0.407000 0.815000 -0.984943 -0.166583 -0.046236 0.862305 0.402832 1 2 1.000000
ads_scope_lens_1
  2 -1.066000 -0.272000 0.851000 -0.993047 -0.113489 -0.031272 0.741699 0.435059 1 2 1.000000
  2 -1.066000 -0.244000 0.784000 -0.993116 -0.099598 -0.061641 0.716309 0.375000 1 2 1.000000
  2 -1.046000 -0.407000 0.815000 -0.984943 -0.166583 -0.046236 0.862305 0.402832 1 2 1.000000
ads_scope_lens_1
  2 -1.046000 -0.407000 0.815000 -0.984943 -0.166583 -0.046236 0.862305 0.402832 1 2 1.000000
  2 -1.066000 -0.244000 0.784000 -0.993116 -0.099598 -0.061641 0.716309 0.375000 1 2 1.000000
  2 -1.046000 -0.365000 0.713000 -0.984535 -0.149801 -0.090832 0.824707 0.312500 1 2 1.000000
ads_scope_lens_1
  2 -1.046000 -0.365000 0.713000 -0.984535 -0.149801 -0.090832 0.824707 0.312500 1 2 1.000000
  2 -1.066000 -0.244000 0.784000 -0.993116 -0.099598 -0.061641 0.716309 0.375000 1 2 1.000000
  2 -1.066000 -0.199000 0.725000 -0.993235 -0.080160 -0.084015 0.676758 0.323242 1 2 1.000000
ads_scope_lens_1
  2 -1.046000 -0.365000 0.713000 -0.984535 -0.149801 -0.090832 0.824707 0.312500 1 2 1.000000
  2 -1.066000 -0.199000 0.725000 -0.993235 -0.080160 -0.084015 0.676758 0.323242 1 2 1.000000
  2 -1.046000 -0.298000 0.626000 -0.984421 -0.121862 -0.126749 0.765137 0.234863 1 2 1.000000
ads_scope_lens_1
  2 -1.066000 -0.199000 0.725000 -0.993235 -0.080160 -0.084015 0.676758 0.323242 1 2 1.000000
  2 -1.046000 -0.211000 0.559000 -0.984962 -0.084098 -0.150922 0.687500 0.175293 1 2 1.000000
  2 -1.046000 -0.298000 0.626000 -0.984421 -0.121862 -0.126749 0.765137 0.234863 1 2 1.000000
ads_scope_lens_1
  2 -1.066000 -0.199000 0.725000 -0.993235 -0.080160 -0.084015 0.676758 0.323242 1 2 1.000000
  2 -1.066000 -0.141000 0.681000 -0.992732 -0.057767 -0.105572 0.625000 0.283691 1 2 1.000000
  2 -1.046000 -0.211000 0.559000 -0.984962 -0.084098 -0.150922 0.687500 0.175293 1 2 1.000000
ads_scope_lens_1
  2 -1.066000 -0.141000 0.681000 -0.992732 -0.057767 -0.105572 0.625000 0.283691 1 2 1.000000
  2 -1.066000 -0.073000 0.652000 -0.992805 -0.027924 -0.116442 0.564941 0.258301 1 2 1.000000
  2 -1.046000 -0.211000 0.559000 -0.984962 -0.084098 -0.150922 0.687500 0.175293 1 2 1.000000
ads_scope_lens_1
  2 -1.066000 -0.141000 0.681000 -0.992732 -0.057767 -0.105572 0.625000 0.283691 1 2 1.000000
  2 -1.079000 -0.032000 0.806000 -0.997648 -0.016589 -0.066507 0.528320 0.394531 1 2 1.000000
  2 -1.066000 -0.073000 0.652000 -0.992805 -0.027924 -0.116442 0.564941 0.258301 1 2 1.000000
ads_scope_lens_1
  2 -1.079000 -0.032000 0.806000 -0.997648 -0.016589 -0.066507 0.528320 0.394531 1 2 1.000000
  2 -1.079000 0.000000 0.800999 -0.997400 0.003147 -0.071995 0.500000 0.390625 1 2 1.000000
  2 -1.066000 -0.073000 0.652000 -0.992805 -0.027924 -0.116442 0.564941 0.258301 1 2 1.000000
ads_scope_lens_1
  2 -1.082000 0.000000 0.924000 -0.999975 0.006852 -0.001735 0.500000 0.500000 1 2 1.000000
  2 -1.079000 0.000000 0.800999 -0.997400 0.003147 -0.071995 0.500000 0.390625 1 2 1.000000
  2 -1.079000 -0.032000 0.806000 -0.997648 -0.016589 -0.066507 0.528320 0.394531 1 2 1.000000
ads_scope_lens_1
  2 -1.082000 0.000000 0.924000 -0.999975 0.006852 -0.001735 0.500000 0.500000 1 2 1.000000
  2 -1.079000 -0.032000 0.806000 -0.997648 -0.016589 -0.066507 0.528320 0.394531 1 2 1.000000
  2 -1.079000 -0.061000 0.818000 -0.997743 -0.032842 -0.058567 0.554688 0.405273 1 2 1.000000
ads_scope_lens_1
  2 -1.082000 0.000000 0.924000 -0.999975 0.006852 -0.001735 0.500000 0.500000 1 2 1.000000
  2 -1.079000 -0.061000 0.818000 -0.997743 -0.032842 -0.058567 0.554688 0.405273 1 2 1.000000
  2 -1.079000 -0.087000 0.837000 -0.997896 -0.044277 -0.047356 0.577148 0.422852 1 2 1.000000
ads_scope_lens_1
  2 -1.079000 -0.087000 0.837000 -0.997896 -0.044277 -0.047356 0.577148 0.422852 1 2 1.000000
  2 -1.079000 -0.061000 0.818000 -0.997743 -0.032842 -0.058567 0.554688 0.405273 1 2 1.000000
  2 -1.066000 -0.141000 0.681000 -0.992732 -0.057767 -0.105572 0.625000 0.283691 1 2 1.000000
ads_scope_lens_1
  2 -1.066000 -0.199000 0.725000 -0.993235 -0.080160 -0.084015 0.676758 0.323242 1 2 1.000000
  2 -1.079000 -0.087000 0.837000 -0.997896 -0.044277 -0.047356 0.577148 0.422852 1 2 1.000000
  2 -1.066000 -0.141000 0.681000 -0.992732 -0.057767 -0.105572 0.625000 0.283691 1 2 1.000000
ads_scope_lens_1
  2 -1.066000 -0.244000 0.784000 -0.993116 -0.099598 -0.061641 0.716309 0.375000 1 2 1.000000
  2 -1.079000 -0.087000 0.837000 -0.997896 -0.044277 -0.047356 0.577148 0.422852 1 2 1.000000
  2 -1.066000 -0.199000 0.725000 -0.993235 -0.080160 -0.084015 0.676758 0.323242 1 2 1.000000
ads_scope_lens_1
  2 -1.079000 -0.061000 0.818000 -0.997743 -0.032842 -0.058567 0.554688 0.405273 1 2 1.000000
  2 -1.079000 -0.032000 0.806000 -0.997648 -0.016589 -0.066507 0.528320 0.394531 1 2 1.000000
  2 -1.066000 -0.141000 0.681000 -0.992732 -0.057767 -0.105572 0.625000 0.283691 1 2 1.000000
ads_scope_lens_1
  2 -1.066000 -0.073000 0.652000 -0.992805 -0.027924 -0.116442 0.564941 0.258301 1 2 1.000000
  2 -1.079000 0.000000 0.800999 -0.997400 0.003147 -0.071995 0.500000 0.390625 1 2 1.000000
  2 -1.066000 0.000000 0.643000 -0.992535 0.003083 -0.121921 0.500000 0.250000 1 2 1.000000
ads_scope_lens_1
  2 -1.018000 -0.487000 0.643000 -0.981545 -0.164663 -0.097238 0.933105 0.250000 1 2 1.000000
  2 -1.046000 -0.298000 0.626000 -0.984421 -0.121862 -0.126749 0.765137 0.234863 1 2 1.000000
  2 -1.018000 -0.398000 0.526000 -0.980923 -0.136538 -0.138372 0.853516 0.146484 1 2 1.000000
ads_scope_lens_1
  2 -1.018000 -0.398000 0.526000 -0.980923 -0.136538 -0.138372 0.853516 0.146484 1 2 1.000000
  2 -1.046000 -0.298000 0.626000 -0.984421 -0.121862 -0.126749 0.765137 0.234863 1 2 1.000000
  2 -1.018000 -0.281000 0.437000 -0.980667 -0.094450 -0.171381 0.750000 0.066895 1 2 1.000000
ads_scope_lens_1
  2 -1.046000 -0.298000 0.626000 -0.984421 -0.121862 -0.126749 0.765137 0.234863 1 2 1.000000
  2 -1.046000 -0.211000 0.559000 -0.984962 -0.084098 -0.150922 0.687500 0.175293 1 2 1.000000
  2 -1.018000 -0.281000 0.437000 -0.980667 -0.094450 -0.171381 0.750000 0.066895 1 2 1.000000
ads_scope_lens_1
  2 -1.046000 -0.211000 0.559000 -0.984962 -0.084098 -0.150922 0.687500 0.175293 1 2 1.000000
  2 -1.046000 -0.109000 0.517000 -0.984942 -0.042930 -0.167467 0.597168 0.137695 1 2 1.000000
  2 -1.018000 -0.281000 0.437000 -0.980667 -0.094450 -0.171381 0.750000 0.066895 1 2 1.000000
ads_scope_lens_1
  2 -1.066000 -0.073000 0.652000 -0.992805 -0.027924 -0.116442 0.564941 0.258301 1 2 1.000000
  2 -1.046000 -0.109000 0.517000 -0.984942 -0.042930 -0.167467 0.597168 0.137695 1 2 1.000000
  2 -1.046000 -0.211000 0.559000 -0.984962 -0.084098 -0.150922 0.687500 0.175293 1 2 1.000000
ads_scope_lens_1
  2 -1.066000 -0.073000 0.652000 -0.992805 -0.027924 -0.116442 0.564941 0.258301 1 2 1.000000
  2 -1.046000 0.000000 0.502000 -0.984464 -0.001127 -0.175583 0.500000 0.125000 1 2 1.000000
  2 -1.046000 -0.109000 0.517000 -0.984942 -0.042930 -0.167467 0.597168 0.137695 1 2 1.000000
ads_scope_lens_1
  2 -1.066000 -0.073000 0.652000 -0.992805 -0.027924 -0.116442 0.564941 0.258301 1 2 1.000000
  2 -1.066000 0.000000 0.643000 -0.992535 0.003083 -0.121921 0.500000 0.250000 1 2 1.000000
  2 -1.046000 0.000000 0.502000 -0.984464 -0.001127 -0.175583 0.500000 0.125000 1 2 1.000000
ads_scope_lens_1
  2 -1.066000 0.000000 0.643000 -0.992535 0.003083 -0.121921 0.500000 0.250000 1 2 1.000000
  2 -1.066000 0.073000 0.652000 -0.993086 0.028402 -0.113903 0.435303 0.258301 1 2 1.000000
  2 -1.046000 0.000000 0.502000 -0.984464 -0.001127 -0.175583 0.500000 0.125000 1 2 1.000000
ads_scope_lens_1
  2 -1.066000 0.000000 0.643000 -0.992535 0.003083 -0.121921 0.500000 0.250000 1 2 1.000000
  2 -1.079000 0.000000 0.800999 -0.997400 0.003147 -0.071995 0.500000 0.390625 1 2 1.000000
  2 -1.066000 0.073000 0.652000 -0.993086 0.028402 -0.113903 0.435303 0.258301 1 2 1.000000
ads_scope_lens_1
  2 -1.079000 0.000000 0.800999 -0.997400 0.003147 -0.071995 0.500000 0.390625 1 2 1.000000
  2 -1.079000 0.032000 0.806000 -0.997887 0.011556 -0.063933 0.471680 0.394531 1 2 1.000000
  2 -1.066000 0.073000 0.652000 -0.993086 0.028402 -0.113903 0.435303 0.258301 1 2 1.000000
ads_scope_lens_1
  2 -1.082000 0.000000 0.924000 -0.999975 0.006852 -0.001735 0.500000 0.500000 1 2 1.000000
  2 -1.079000 0.032000 0.806000 -0.997887 0.011556 -0.063933 0.471680 0.394531 1 2 1.000000
  2 -1.079000 0.000000 0.800999 -0.997400 0.003147 -0.071995 0.500000 0.390625 1 2 1.000000
ads_scope_lens_1
  2 -1.082000 0.000000 0.924000 -0.999975 0.006852 -0.001735 0.500000 0.500000 1 2 1.000000
  2 -1.079000 0.061000 0.818000 -0.998055 0.027950 -0.055731 0.445313 0.405273 1 2 1.000000
  2 -1.079000 0.032000 0.806000 -0.997887 0.011556 -0.063933 0.471680 0.394531 1 2 1.000000
ads_scope_lens_1
  2 -1.082000 0.000000 0.924000 -0.999975 0.006852 -0.001735 0.500000 0.500000 1 2 1.000000
  2 -1.079000 0.087000 0.837000 -0.997875 0.044593 -0.047501 0.422852 0.422852 1 2 1.000000
  2 -1.079000 0.061000 0.818000 -0.998055 0.027950 -0.055731 0.445313 0.405273 1 2 1.000000
ads_scope_lens_1
  2 -1.079000 0.061000 0.818000 -0.998055 0.027950 -0.055731 0.445313 0.405273 1 2 1.000000
  2 -1.079000 0.087000 0.837000 -0.997875 0.044593 -0.047501 0.422852 0.422852 1 2 1.000000
  2 -1.066000 0.141000 0.681000 -0.993393 0.056142 -0.100090 0.375000 0.283691 1 2 1.000000
ads_scope_lens_1
  2 -1.066000 0.141000 0.681000 -0.993393 0.056142 -0.100090 0.375000 0.283691 1 2 1.000000
  2 -1.079000 0.087000 0.837000 -0.997875 0.044593 -0.047501 0.422852 0.422852 1 2 1.000000
  2 -1.066000 0.199000 0.725000 -0.993191 0.080915 -0.083813 0.323242 0.323242 1 2 1.000000
ads_scope_lens_1
  2 -1.066000 0.141000 0.681000 -0.993393 0.056142 -0.100090 0.375000 0.283691 1 2 1.000000
  2 -1.066000 0.199000 0.725000 -0.993191 0.080915 -0.083813 0.323242 0.323242 1 2 1.000000
  2 -1.046000 0.211000 0.559000 -0.984902 0.084138 -0.151293 0.312500 0.175293 1 2 1.000000
ads_scope_lens_1
  2 -1.066000 0.199000 0.725000 -0.993191 0.080915 -0.083813 0.323242 0.323242 1 2 1.000000
  2 -1.046000 0.298000 0.626000 -0.984992 0.120288 -0.123781 0.234741 0.234863 1 2 1.000000
  2 -1.046000 0.211000 0.559000 -0.984902 0.084138 -0.151293 0.312500 0.175293 1 2 1.000000
ads_scope_lens_1
  2 -1.046000 0.211000 0.559000 -0.984902 0.084138 -0.151293 0.312500 0.175293 1 2 1.000000
  2 -1.046000 0.298000 0.626000 -0.984992 0.120288 -0.123781 0.234741 0.234863 1 2 1.000000
  2 -1.018000 0.281000 0.437000 -0.981087 0.095405 -0.168425 0.250000 0.066895 1 2 1.000000
ads_scope_lens_1
  2 -1.066000 0.073000 0.652000 -0.993086 0.028402 -0.113903 0.435303 0.258301 1 2 1.000000
  2 -1.046000 0.109000 0.517000 -0.985434 0.040770 -0.165099 0.402832 0.137695 1 2 1.000000
  2 -1.046000 0.000000 0.502000 -0.984464 -0.001127 -0.175583 0.500000 0.125000 1 2 1.000000
ads_scope_lens_1
  2 -1.079000 0.032000 0.806000 -0.997887 0.011556 -0.063933 0.471680 0.394531 1 2 1.000000
  2 -1.079000 0.061000 0.818000 -0.998055 0.027950 -0.055731 0.445313 0.405273 1 2 1.000000
  2 -1.066000 0.141000 0.681000 -0.993393 0.056142 -0.100090 0.375000 0.283691 1 2 1.000000
ads_scope_lens_1
  2 -1.066000 0.073000 0.652000 -0.993086 0.028402 -0.113903 0.435303 0.258301 1 2 1.000000
  2 -1.079000 0.032000 0.806000 -0.997887 0.011556 -0.063933 0.471680 0.394531 1 2 1.000000
  2 -1.066000 0.141000 0.681000 -0.993393 0.056142 -0.100090 0.375000 0.283691 1 2 1.000000
ads_scope_lens_1
  2 -1.066000 0.073000 0.652000 -0.993086 0.028402 -0.113903 0.435303 0.258301 1 2 1.000000
  2 -1.066000 0.141000 0.681000 -0.993393 0.056142 -0.100090 0.375000 0.283691 1 2 1.000000
  2 -1.046000 0.211000 0.559000 -0.984902 0.084138 -0.151293 0.312500 0.175293 1 2 1.000000
ads_scope_lens_1
  2 -1.066000 0.073000 0.652000 -0.993086 0.028402 -0.113903 0.435303 0.258301 1 2 1.000000
  2 -1.046000 0.211000 0.559000 -0.984902 0.084138 -0.151293 0.312500 0.175293 1 2 1.000000
  2 -1.046000 0.109000 0.517000 -0.985434 0.040770 -0.165099 0.402832 0.137695 1 2 1.000000
ads_scope_lens_1
  2 -1.046000 0.109000 0.517000 -0.985434 0.040770 -0.165099 0.402832 0.137695 1 2 1.000000
  2 -1.046000 0.211000 0.559000 -0.984902 0.084138 -0.151293 0.312500 0.175293 1 2 1.000000
  2 -1.018000 0.281000 0.437000 -0.981087 0.095405 -0.168425 0.250000 0.066895 1 2 1.000000
ads_scope_lens_1
  2 -1.018000 0.146000 0.381000 -0.981124 0.047245 -0.187517 0.370605 0.017090 1 2 1.000000
  2 -1.046000 0.109000 0.517000 -0.985434 0.040770 -0.165099 0.402832 0.137695 1 2 1.000000
  2 -1.018000 0.281000 0.437000 -0.981087 0.095405 -0.168425 0.250000 0.066895 1 2 1.000000
ads_scope_lens_1
  2 -1.018000 0.000000 0.362000 -0.980698 0.003390 -0.195499 0.500000 0.000000 1 2 1.000000
  2 -1.046000 0.109000 0.517000 -0.985434 0.040770 -0.165099 0.402832 0.137695 1 2 1.000000
  2 -1.018000 0.146000 0.381000 -0.981124 0.047245 -0.187517 0.370605 0.017090 1 2 1.000000
ads_scope_lens_1
  2 -1.046000 0.000000 0.502000 -0.984464 -0.001127 -0.175583 0.500000 0.125000 1 2 1.000000
  2 -1.046000 0.109000 0.517000 -0.985434 0.040770 -0.165099 0.402832 0.137695 1 2 1.000000
  2 -1.018000 0.000000 0.362000 -0.980698 0.003390 -0.195499 0.500000 0.000000 1 2 1.000000
ads_scope_lens_1
  2 -1.046000 -0.109000 0.517000 -0.984942 -0.042930 -0.167467 0.597168 0.137695 1 2 1.000000
  2 -1.046000 0.000000 0.502000 -0.984464 -0.001127 -0.175583 0.500000 0.125000 1 2 1.000000
  2 -1.018000 0.000000 0.362000 -0.980698 0.003390 -0.195499 0.500000 0.000000 1 2 1.000000
ads_scope_lens_1
  2 -1.018000 -0.146000 0.381000 -0.981055 -0.048433 -0.187576 0.629395 0.017090 1 2 1.000000
  2 -1.046000 -0.109000 0.517000 -0.984942 -0.042930 -0.167467 0.597168 0.137695 1 2 1.000000
  2 -1.018000 0.000000 0.362000 -0.980698 0.003390 -0.195499 0.500000 0.000000 1 2 1.000000
ads_scope_lens_1
  2 -1.018000 -0.281000 0.437000 -0.980667 -0.094450 -0.171381 0.750000 0.066895 1 2 1.000000
  2 -1.046000 -0.109000 0.517000 -0.984942 -0.042930 -0.167467 0.597168 0.137695 1 2 1.000000
  2 -1.018000 -0.146000 0.381000 -0.981055 -0.048433 -0.187576 0.629395 0.017090 1 2 1.000000
ads_scope_lens_1
  2 -1.066000 0.199000 0.725000 -0.993191 0.080915 -0.083813 0.323242 0.323242 1 2 1.000000
  2 -1.046000 0.365000 0.713000 -0.985217 0.148284 -0.085783 0.175171 0.312500 1 2 1.000000
  2 -1.046000 0.298000 0.626000 -0.984992 0.120288 -0.123781 0.234741 0.234863 1 2 1.000000
ads_scope_lens_1
  2 -1.066000 0.199000 0.725000 -0.993191 0.080915 -0.083813 0.323242 0.323242 1 2 1.000000
  2 -1.066000 0.244000 0.784000 -0.993232 0.100017 -0.059051 0.283447 0.375000 1 2 1.000000
  2 -1.046000 0.365000 0.713000 -0.985217 0.148284 -0.085783 0.175171 0.312500 1 2 1.000000
ads_scope_lens_1
  2 -1.066000 0.199000 0.725000 -0.993191 0.080915 -0.083813 0.323242 0.323242 1 2 1.000000
  2 -1.079000 0.087000 0.837000 -0.997875 0.044593 -0.047501 0.422852 0.422852 1 2 1.000000
  2 -1.066000 0.244000 0.784000 -0.993232 0.100017 -0.059051 0.283447 0.375000 1 2 1.000000
ads_scope_lens_1
  2 -1.079000 0.087000 0.837000 -0.997875 0.044593 -0.047501 0.422852 0.422852 1 2 1.000000
  2 -1.079000 0.106000 0.863000 -0.998116 0.053089 -0.030762 0.405518 0.445313 1 2 1.000000
  2 -1.066000 0.244000 0.784000 -0.993232 0.100017 -0.059051 0.283447 0.375000 1 2 1.000000
ads_scope_lens_1
  2 -1.082000 0.000000 0.924000 -0.999975 0.006852 -0.001735 0.500000 0.500000 1 2 1.000000
  2 -1.079000 0.106000 0.863000 -0.998116 0.053089 -0.030762 0.405518 0.445313 1 2 1.000000
  2 -1.079000 0.087000 0.837000 -0.997875 0.044593 -0.047501 0.422852 0.422852 1 2 1.000000
ads_scope_lens_1
  2 -1.082000 0.000000 0.924000 -0.999975 0.006852 -0.001735 0.500000 0.500000 1 2 1.000000
  2 -1.079000 0.119000 0.892000 -0.997811 0.063902 -0.017036 0.394531 0.471680 1 2 1.000000
  2 -1.079000 0.106000 0.863000 -0.998116 0.053089 -0.030762 0.405518 0.445313 1 2 1.000000
ads_scope_lens_1
  2 -1.082000 0.000000 0.924000 -0.999975 0.006852 -0.001735 0.500000 0.500000 1 2 1.000000
  2 -1.079000 0.123000 0.924000 -0.997775 0.066670 -0.000076 0.390869 0.500000 1 2 1.000000
  2 -1.079000 0.119000 0.892000 -0.997811 0.063902 -0.017036 0.394531 0.471680 1 2 1.000000
ads_scope_lens_1
  2 -1.079000 0.106000 0.863000 -0.998116 0.053089 -0.030762 0.405518 0.445313 1 2 1.000000
  2 -1.079000 0.119000 0.892000 -0.997811 0.063902 -0.017036 0.394531 0.471680 1 2 1.000000
  2 -1.066000 0.244000 0.784000 -0.993232 0.100017 -0.059051 0.283447 0.375000 1 2 1.000000
ads_scope_lens_1
  2 -1.018000 0.281000 0.437000 -0.981087 0.095405 -0.168425 0.250000 0.066895 1 2 1.000000
  2 -1.046000 0.298000 0.626000 -0.984992 0.120288 -0.123781 0.234741 0.234863 1 2 1.000000
  2 -1.018000 0.398000 0.526000 -0.981837 0.131977 -0.136304 0.146362 0.146484 1 2 1.000000
ads_scope_lens_1
  2 -1.018000 0.398000 0.526000 -0.981837 0.131977 -0.136304 0.146362 0.146484 1 2 1.000000
  2 -1.046000 0.298000 0.626000 -0.984992 0.120288 -0.123781 0.234741 0.234863 1 2 1.000000
  2 -1.018000 0.487000 0.643000 -0.981034 0.167631 -0.097327 0.067017 0.250000 1 2 1.000000
ads_scope_lens_1
  2 -1.046000 0.298000 0.626000 -0.984992 0.120288 -0.123781 0.234741 0.234863 1 2 1.000000
  2 -1.046000 0.365000 0.713000 -0.985217 0.148284 -0.085783 0.175171 0.312500 1 2 1.000000
  2 -1.018000 0.487000 0.643000 -0.981034 0.167631 -0.097327 0.067017 0.250000 1 2 1.000000
ads_scope_lens_1
  2 -1.046000 0.365000 0.713000 -0.985217 0.148284 -0.085783 0.175171 0.312500 1 2 1.000000
  2 -1.046000 0.407000 0.815000 -0.985730 0.162435 -0.044174 0.137817 0.402832 1 2 1.000000
  2 -1.018000 0.487000 0.643000 -0.981034 0.167631 -0.097327 0.067017 0.250000 1 2 1.000000
ads_scope_lens_1
  2 -1.066000 0.244000 0.784000 -0.993232 0.100017 -0.059051 0.283447 0.375000 1 2 1.000000
  2 -1.046000 0.407000 0.815000 -0.985730 0.162435 -0.044174 0.137817 0.402832 1 2 1.000000
  2 -1.046000 0.365000 0.713000 -0.985217 0.148284 -0.085783 0.175171 0.312500 1 2 1.000000
ads_scope_lens_1
  2 -1.066000 0.244000 0.784000 -0.993232 0.100017 -0.059051 0.283447 0.375000 1 2 1.000000
  2 -1.066000 0.272000 0.851000 -0.993009 0.113818 -0.031267 0.258545 0.435059 1 2 1.000000
  2 -1.046000 0.407000 0.815000 -0.985730 0.162435 -0.044174 0.137817 0.402832 1 2 1.000000
ads_scope_lens_1
  2 -1.066000 0.244000 0.784000 -0.993232 0.100017 -0.059051 0.283447 0.375000 1 2 1.000000
  2 -1.079000 0.119000 0.892000 -0.997811 0.063902 -0.017036 0.394531 0.471680 1 2 1.000000
  2 -1.066000 0.272000 0.851000 -0.993009 0.113818 -0.031267 0.258545 0.435059 1 2 1.000000
ads_scope_lens_1
  2 -1.066000 0.272000 0.851000 -0.993009 0.113818 -0.031267 0.258545 0.435059 1 2 1.000000
  2 -1.079000 0.119000 0.892000 -0.997811 0.063902 -0.017036 0.394531 0.471680 1 2 1.000000
  2 -1.066000 0.281000 0.924000 -0.993788 0.111290 0.000645 0.250000 0.500000 1 2 1.000000
ads_scope_lens_1
  2 -1.079000 0.119000 0.892000 -0.997811 0.063902 -0.017036 0.394531 0.471680 1 2 1.000000
  2 -1.079000 0.123000 0.924000 -0.997775 0.066670 -0.000076 0.390869 0.500000 1 2 1.000000
  2 -1.066000 0.281000 0.924000 -0.993788 0.111290 0.000645 0.250000 0.500000 1 2 1.000000
ads_scope_lens_1
  2 -1.079000 0.123000 0.924000 -0.997775 0.066670 -0.000076 0.390869 0.500000 1 2 1.000000
  2 -1.079000 0.119000 0.956000 -0.997771 0.063889 0.019262 0.394531 0.528320 1 2 1.000000
  2 -1.066000 0.281000 0.924000 -0.993788 0.111290 0.000645 0.250000 0.500000 1 2 1.000000
ads_scope_lens_1
  2 -1.082000 0.000000 0.924000 -0.999975 0.006852 -0.001735 0.500000 0.500000 1 2 1.000000
  2 -1.079000 0.119000 0.956000 -0.997771 0.063889 0.019262 0.394531 0.528320 1 2 1.000000
  2 -1.079000 0.123000 0.924000 -0.997775 0.066670 -0.000076 0.390869 0.500000 1 2 1.000000
ads_scope_lens_1
  2 -1.082000 0.000000 0.924000 -0.999975 0.006852 -0.001735 0.500000 0.500000 1 2 1.000000
  2 -1.079000 0.106000 0.986000 -0.997900 0.055652 0.033146 0.405518 0.554688 1 2 1.000000
  2 -1.079000 0.119000 0.956000 -0.997771 0.063889 0.019262 0.394531 0.528320 1 2 1.000000
ads_scope_lens_1
  2 -1.082000 0.000000 0.924000 -0.999975 0.006852 -0.001735 0.500000 0.500000 1 2 1.000000
  2 -1.079000 0.087000 1.011000 -0.997773 0.044384 0.049787 0.422852 0.577148 1 2 1.000000
  2 -1.079000 0.106000 0.986000 -0.997900 0.055652 0.033146 0.405518 0.554688 1 2 1.000000
ads_scope_lens_1
  2 -1.079000 0.087000 1.011000 -0.997773 0.044384 0.049787 0.422852 0.577148 1 2 1.000000
  2 -1.066000 0.199000 1.123000 -0.993451 0.078085 0.083418 0.323242 0.676758 1 2 1.000000
  2 -1.079000 0.106000 0.986000 -0.997900 0.055652 0.033146 0.405518 0.554688 1 2 1.000000
ads_scope_lens_1
  2 -1.079000 0.087000 1.011000 -0.997773 0.044384 0.049787 0.422852 0.577148 1 2 1.000000
  2 -1.066000 0.141000 1.168000 -0.993305 0.053698 0.102280 0.375000 0.716553 1 2 1.000000
  2 -1.066000 0.199000 1.123000 -0.993451 0.078085 0.083418 0.323242 0.676758 1 2 1.000000
ads_scope_lens_1
  2 -1.066000 0.141000 1.168000 -0.993305 0.053698 0.102280 0.375000 0.716553 1 2 1.000000
  2 -1.046000 0.298000 1.222000 -0.985031 0.120164 0.123588 0.234741 0.765259 1 2 1.000000
  2 -1.066000 0.199000 1.123000 -0.993451 0.078085 0.083418 0.323242 0.676758 1 2 1.000000
ads_scope_lens_1
  2 -1.066000 0.141000 1.168000 -0.993305 0.053698 0.102280 0.375000 0.716553 1 2 1.000000
  2 -1.046000 0.211000 1.289000 -0.984803 0.082052 0.153069 0.312500 0.824829 1 2 1.000000
  2 -1.046000 0.298000 1.222000 -0.985031 0.120164 0.123588 0.234741 0.765259 1 2 1.000000
ads_scope_lens_1
  2 -1.046000 0.211000 1.289000 -0.984803 0.082052 0.153069 0.312500 0.824829 1 2 1.000000
  2 -1.018000 0.281000 1.411000 -0.981346 0.092876 0.168329 0.250000 0.932983 1 2 1.000000
  2 -1.046000 0.298000 1.222000 -0.985031 0.120164 0.123588 0.234741 0.765259 1 2 1.000000
ads_scope_lens_1
  2 -1.018000 0.487000 0.643000 -0.981034 0.167631 -0.097327 0.067017 0.250000 1 2 1.000000
  2 -1.046000 0.407000 0.815000 -0.985730 0.162435 -0.044174 0.137817 0.402832 1 2 1.000000
  2 -1.018000 0.543000 0.779000 -0.981034 0.187254 -0.050080 0.016998 0.370605 1 2 1.000000
ads_scope_lens_1
  2 -1.018000 0.543000 0.779000 -0.981034 0.187254 -0.050080 0.016998 0.370605 1 2 1.000000
  2 -1.046000 0.407000 0.815000 -0.985730 0.162435 -0.044174 0.137817 0.402832 1 2 1.000000
  2 -1.018000 0.561999 0.924000 -0.981707 0.190396 0.000205 0.000000 0.500000 1 2 1.000000
ads_scope_lens_1
  2 -1.066000 0.244000 1.065000 -0.993085 0.100064 0.061398 0.283447 0.625000 1 2 1.000000
  2 -1.046000 0.365000 1.135000 -0.985457 0.145611 0.087594 0.175171 0.687500 1 2 1.000000
  2 -1.046000 0.407000 1.033000 -0.984852 0.167166 0.046071 0.137817 0.597168 1 2 1.000000
ads_scope_lens_1
  2 -1.046000 0.407000 1.033000 -0.984852 0.167166 0.046071 0.137817 0.597168 1 2 1.000000
  2 -1.046000 0.365000 1.135000 -0.985457 0.145611 0.087594 0.175171 0.687500 1 2 1.000000
  2 -1.018000 0.487000 1.205000 -0.981095 0.167573 0.096805 0.067017 0.750000 1 2 1.000000
ads_scope_lens_1
  2 -1.018000 0.543000 1.070000 -0.981077 0.187026 0.050100 0.016998 0.629395 1 2 1.000000
  2 -1.046000 0.407000 1.033000 -0.984852 0.167166 0.046071 0.137817 0.597168 1 2 1.000000
  2 -1.018000 0.487000 1.205000 -0.981095 0.167573 0.096805 0.067017 0.750000 1 2 1.000000
ads_scope_lens_1
  2 -1.018000 0.561999 0.924000 -0.981707 0.190396 0.000205 0.000000 0.500000 1 2 1.000000
  2 -1.046000 0.407000 1.033000 -0.984852 0.167166 0.046071 0.137817 0.597168 1 2 1.000000
  2 -1.018000 0.543000 1.070000 -0.981077 0.187026 0.050100 0.016998 0.629395 1 2 1.000000
ads_scope_lens_1
  2 -1.046000 0.422000 0.924000 -0.985262 0.171053 0.000000 0.125000 0.500000 1 2 1.000000
  2 -1.046000 0.407000 1.033000 -0.984852 0.167166 0.046071 0.137817 0.597168 1 2 1.000000
  2 -1.018000 0.561999 0.924000 -0.981707 0.190396 0.000205 0.000000 0.500000 1 2 1.000000
ads_scope_lens_1
  2 -1.046000 0.407000 0.815000 -0.985730 0.162435 -0.044174 0.137817 0.402832 1 2 1.000000
  2 -1.046000 0.422000 0.924000 -0.985262 0.171053 0.000000 0.125000 0.500000 1 2 1.000000
  2 -1.018000 0.561999 0.924000 -0.981707 0.190396 0.000205 0.000000 0.500000 1 2 1.000000
ads_scope_lens_1
  2 -1.066000 0.272000 0.851000 -0.993009 0.113818 -0.031267 0.258545 0.435059 1 2 1.000000
  2 -1.046000 0.422000 0.924000 -0.985262 0.171053 0.000000 0.125000 0.500000 1 2 1.000000
  2 -1.046000 0.407000 0.815000 -0.985730 0.162435 -0.044174 0.137817 0.402832 1 2 1.000000
ads_scope_lens_1
  2 -1.066000 0.281000 0.924000 -0.993788 0.111290 0.000645 0.250000 0.500000 1 2 1.000000
  2 -1.046000 0.422000 0.924000 -0.985262 0.171053 0.000000 0.125000 0.500000 1 2 1.000000
  2 -1.066000 0.272000 0.851000 -0.993009 0.113818 -0.031267 0.258545 0.435059 1 2 1.000000
ads_scope_lens_1
  2 -1.066000 0.281000 0.924000 -0.993788 0.111290 0.000645 0.250000 0.500000 1 2 1.000000
  2 -1.066000 0.272000 0.997000 -0.993589 0.108778 0.030778 0.258545 0.564697 1 2 1.000000
  2 -1.046000 0.422000 0.924000 -0.985262 0.171053 0.000000 0.125000 0.500000 1 2 1.000000
ads_scope_lens_1
  2 -1.066000 0.281000 0.924000 -0.993788 0.111290 0.000645 0.250000 0.500000 1 2 1.000000
  2 -1.079000 0.119000 0.956000 -0.997771 0.063889 0.019262 0.394531 0.528320 1 2 1.000000
  2 -1.066000 0.272000 0.997000 -0.993589 0.108778 0.030778 0.258545 0.564697 1 2 1.000000
ads_scope_lens_1
  2 -1.066000 0.272000 0.997000 -0.993589 0.108778 0.030778 0.258545 0.564697 1 2 1.000000
  2 -1.079000 0.119000 0.956000 -0.997771 0.063889 0.019262 0.394531 0.528320 1 2 1.000000
  2 -1.066000 0.244000 1.065000 -0.993085 0.100064 0.061398 0.283447 0.625000 1 2 1.000000
ads_scope_lens_1
  2 -1.079000 0.119000 0.956000 -0.997771 0.063889 0.019262 0.394531 0.528320 1 2 1.000000
  2 -1.079000 0.106000 0.986000 -0.997900 0.055652 0.033146 0.405518 0.554688 1 2 1.000000
  2 -1.066000 0.244000 1.065000 -0.993085 0.100064 0.061398 0.283447 0.625000 1 2 1.000000
ads_scope_lens_1
  2 -1.079000 0.106000 0.986000 -0.997900 0.055652 0.033146 0.405518 0.554688 1 2 1.000000
  2 -1.066000 0.199000 1.123000 -0.993451 0.078085 0.083418 0.323242 0.676758 1 2 1.000000
  2 -1.066000 0.244000 1.065000 -0.993085 0.100064 0.061398 0.283447 0.625000 1 2 1.000000
ads_scope_lens_1
  2 -1.066000 0.199000 1.123000 -0.993451 0.078085 0.083418 0.323242 0.676758 1 2 1.000000
  2 -1.046000 0.298000 1.222000 -0.985031 0.120164 0.123588 0.234741 0.765259 1 2 1.000000
  2 -1.066000 0.244000 1.065000 -0.993085 0.100064 0.061398 0.283447 0.625000 1 2 1.000000
ads_scope_lens_1
  2 -1.066000 0.244000 1.065000 -0.993085 0.100064 0.061398 0.283447 0.625000 1 2 1.000000
  2 -1.046000 0.298000 1.222000 -0.985031 0.120164 0.123588 0.234741 0.765259 1 2 1.000000
  2 -1.046000 0.365000 1.135000 -0.985457 0.145611 0.087594 0.175171 0.687500 1 2 1.000000
ads_scope_lens_1
  2 -1.046000 0.365000 1.135000 -0.985457 0.145611 0.087594 0.175171 0.687500 1 2 1.000000
  2 -1.046000 0.298000 1.222000 -0.985031 0.120164 0.123588 0.234741 0.765259 1 2 1.000000
  2 -1.018000 0.487000 1.205000 -0.981095 0.167573 0.096805 0.067017 0.750000 1 2 1.000000
ads_scope_lens_1
  2 -1.018000 0.487000 1.205000 -0.981095 0.167573 0.096805 0.067017 0.750000 1 2 1.000000
  2 -1.046000 0.298000 1.222000 -0.985031 0.120164 0.123588 0.234741 0.765259 1 2 1.000000
  2 -1.018000 0.398000 1.322000 -0.980909 0.136669 0.138346 0.146362 0.853638 1 2 1.000000
ads_scope_lens_1
  2 -1.046000 0.298000 1.222000 -0.985031 0.120164 0.123588 0.234741 0.765259 1 2 1.000000
  2 -1.018000 0.281000 1.411000 -0.981346 0.092876 0.168329 0.250000 0.932983 1 2 1.000000
  2 -1.018000 0.398000 1.322000 -0.980909 0.136669 0.138346 0.146362 0.853638 1 2 1.000000
ads_scope_lens_1
  2 -1.066000 0.272000 0.997000 -0.993589 0.108778 0.030778 0.258545 0.564697 1 2 1.000000
  2 -1.046000 0.407000 1.033000 -0.984852 0.167166 0.046071 0.137817 0.597168 1 2 1.000000
  2 -1.046000 0.422000 0.924000 -0.985262 0.171053 0.000000 0.125000 0.500000 1 2 1.000000
ads_scope_lens_1
  2 -1.066000 0.272000 0.997000 -0.993589 0.108778 0.030778 0.258545 0.564697 1 2 1.000000
  2 -1.066000 0.244000 1.065000 -0.993085 0.100064 0.061398 0.283447 0.625000 1 2 1.000000
  2 -1.046000 0.407000 1.033000 -0.984852 0.167166 0.046071 0.137817 0.597168 1 2 1.000000
ads_scope_lens_1
  2 -1.046000 -0.365000 1.135000 -0.985461 -0.145541 0.087662 0.824707 0.687500 1 2 1.000000
  2 -1.046000 -0.407000 1.033000 -0.984852 -0.167166 0.046071 0.862305 0.597168 1 2 1.000000
  2 -1.018000 -0.487000 1.205000 -0.981095 -0.167573 0.096805 0.933105 0.750000 1 2 1.000000
ads_scope_lens_1
  2 -1.046000 -0.407000 1.033000 -0.984852 -0.167166 0.046071 0.862305 0.597168 1 2 1.000000
  2 -1.018000 -0.543000 1.070000 -0.981950 -0.182376 0.050141 0.982910 0.629395 1 2 1.000000
  2 -1.018000 -0.487000 1.205000 -0.981095 -0.167573 0.096805 0.933105 0.750000 1 2 1.000000
ads_scope_lens_1
  2 -1.046000 -0.407000 1.033000 -0.984852 -0.167166 0.046071 0.862305 0.597168 1 2 1.000000
  2 -1.018000 -0.562000 0.924000 -0.981717 -0.190347 0.000208 1.000000 0.500000 1 2 1.000000
  2 -1.018000 -0.543000 1.070000 -0.981950 -0.182376 0.050141 0.982910 0.629395 1 2 1.000000
ads_scope_lens_1
  2 -1.046000 -0.407000 1.033000 -0.984852 -0.167166 0.046071 0.862305 0.597168 1 2 1.000000
  2 -1.046000 -0.422000 0.924000 -0.985385 -0.170339 -0.001043 0.875000 0.500000 1 2 1.000000
  2 -1.018000 -0.562000 0.924000 -0.981717 -0.190347 0.000208 1.000000 0.500000 1 2 1.000000
ads_scope_lens_1
  2 -1.046000 -0.422000 0.924000 -0.985385 -0.170339 -0.001043 0.875000 0.500000 1 2 1.000000
  2 -1.046000 -0.407000 0.815000 -0.984943 -0.166583 -0.046236 0.862305 0.402832 1 2 1.000000
  2 -1.018000 -0.562000 0.924000 -0.981717 -0.190347 0.000208 1.000000 0.500000 1 2 1.000000
ads_scope_lens_1
  2 -1.018000 -0.562000 0.924000 -0.981717 -0.190347 0.000208 1.000000 0.500000 1 2 1.000000
  2 -1.046000 -0.407000 0.815000 -0.984943 -0.166583 -0.046236 0.862305 0.402832 1 2 1.000000
  2 -1.018000 -0.543000 0.779000 -0.980982 -0.186741 -0.052939 0.982910 0.370605 1 2 1.000000
ads_scope_lens_1
  2 -1.018000 -0.543000 0.779000 -0.980982 -0.186741 -0.052939 0.982910 0.370605 1 2 1.000000
  2 -1.046000 -0.407000 0.815000 -0.984943 -0.166583 -0.046236 0.862305 0.402832 1 2 1.000000
  2 -1.018000 -0.487000 0.643000 -0.981545 -0.164663 -0.097238 0.933105 0.250000 1 2 1.000000
ads_scope_lens_1
  2 -1.018000 -0.487000 0.643000 -0.981545 -0.164663 -0.097238 0.933105 0.250000 1 2 1.000000
  2 -1.046000 -0.407000 0.815000 -0.984943 -0.166583 -0.046236 0.862305 0.402832 1 2 1.000000
  2 -1.046000 -0.365000 0.713000 -0.984535 -0.149801 -0.090832 0.824707 0.312500 1 2 1.000000
ads_scope_lens_1
  2 -1.046000 -0.365000 0.713000 -0.984535 -0.149801 -0.090832 0.824707 0.312500 1 2 1.000000
  2 -1.046000 -0.298000 0.626000 -0.984421 -0.121862 -0.126749 0.765137 0.234863 1 2 1.000000
  2 -1.018000 -0.487000 0.643000 -0.981545 -0.164663 -0.097238 0.933105 0.250000 1 2 1.000000
end
