// Created by Crowbar 0.74
version 1
nodes
  0 "tag_acog_2" -1
  1 "tag_reticle_attach" 0
  2 "tag_lense" 0
end
skeleton
  time 0
    0 0.000000 0.000000 0.000000 0.000000 0.000000 0.000000
    1 -2.567999 0.000000 1.365000 0.000000 0.000000 0.000000
    2 -2.567999 0.000000 1.365000 0.000000 0.000000 0.000000
end
triangles
ads_scope_lens_1
  2 -2.569000 0.000000 0.856000 -0.965309 0.002039 -0.261103 0.500000 0.998011 1 2 1.000000
  2 -2.620000 0.050000 1.113000 -0.991533 0.027322 -0.126944 0.548828 0.746338 1 2 1.000000
  2 -2.569000 0.099000 0.866000 -0.965357 0.052198 -0.255657 0.597168 0.988441 1 2 1.000000
ads_scope_lens_1
  2 -2.620000 0.050000 1.113000 -0.991533 0.027322 -0.126944 0.548828 0.746338 1 2 1.000000
  2 -2.620000 0.098000 1.128000 -0.991268 0.051503 -0.121391 0.596191 0.732178 1 2 1.000000
  2 -2.569000 0.099000 0.866000 -0.965357 0.052198 -0.255657 0.597168 0.988441 1 2 1.000000
ads_scope_lens_1
  2 -2.569000 0.099000 0.866000 -0.965357 0.052198 -0.255657 0.597168 0.988441 1 2 1.000000
  2 -2.620000 0.098000 1.128000 -0.991268 0.051503 -0.121391 0.596191 0.732178 1 2 1.000000
  2 -2.569000 0.195000 0.895000 -0.964799 0.102636 -0.242135 0.690430 0.960114 1 2 1.000000
ads_scope_lens_1
  2 -2.638000 0.000000 1.365000 -0.999989 -0.001355 -0.004544 0.500000 0.500000 1 2 1.000000
  2 -2.620000 0.098000 1.128000 -0.991268 0.051503 -0.121391 0.596191 0.732178 1 2 1.000000
  2 -2.620000 0.050000 1.113000 -0.991533 0.027322 -0.126944 0.548828 0.746338 1 2 1.000000
ads_scope_lens_1
  2 -2.638000 0.000000 1.365000 -0.999989 -0.001355 -0.004544 0.500000 0.500000 1 2 1.000000
  2 -2.620000 0.143000 1.151000 -0.991446 0.073541 -0.107823 0.639648 0.708984 1 2 1.000000
  2 -2.620000 0.098000 1.128000 -0.991268 0.051503 -0.121391 0.596191 0.732178 1 2 1.000000
ads_scope_lens_1
  2 -2.620000 0.098000 1.128000 -0.991268 0.051503 -0.121391 0.596191 0.732178 1 2 1.000000
  2 -2.620000 0.143000 1.151000 -0.991446 0.073541 -0.107823 0.639648 0.708984 1 2 1.000000
  2 -2.569000 0.195000 0.895000 -0.964799 0.102636 -0.242135 0.690430 0.960114 1 2 1.000000
ads_scope_lens_1
  2 -2.569000 0.195000 0.895000 -0.964799 0.102636 -0.242135 0.690430 0.960114 1 2 1.000000
  2 -2.620000 0.143000 1.151000 -0.991446 0.073541 -0.107823 0.639648 0.708984 1 2 1.000000
  2 -2.569000 0.283000 0.942000 -0.965415 0.147572 -0.214934 0.776855 0.914062 1 2 1.000000
ads_scope_lens_1
  2 -2.620000 0.143000 1.151000 -0.991446 0.073541 -0.107823 0.639648 0.708984 1 2 1.000000
  2 -2.620000 0.181000 1.183000 -0.991696 0.093329 -0.088479 0.677734 0.677734 1 2 1.000000
  2 -2.569000 0.283000 0.942000 -0.965415 0.147572 -0.214934 0.776855 0.914062 1 2 1.000000
ads_scope_lens_1
  2 -2.569000 0.283000 0.942000 -0.965415 0.147572 -0.214934 0.776855 0.914062 1 2 1.000000
  2 -2.620000 0.181000 1.183000 -0.991696 0.093329 -0.088479 0.677734 0.677734 1 2 1.000000
  2 -2.569000 0.360000 1.005000 -0.963759 0.190132 -0.187132 0.852051 0.852173 1 2 1.000000
ads_scope_lens_1
  2 -2.569000 0.360000 1.005000 -0.963759 0.190132 -0.187132 0.852051 0.852173 1 2 1.000000
  2 -2.620000 0.181000 1.183000 -0.991696 0.093329 -0.088479 0.677734 0.677734 1 2 1.000000
  2 -2.569000 0.423000 1.082000 -0.964257 0.221194 -0.145879 0.914062 0.776733 1 2 1.000000
ads_scope_lens_1
  2 -2.620000 0.181000 1.183000 -0.991696 0.093329 -0.088479 0.677734 0.677734 1 2 1.000000
  2 -2.620000 0.213000 1.222000 -0.991085 0.112254 -0.071758 0.708984 0.639648 1 2 1.000000
  2 -2.569000 0.423000 1.082000 -0.964257 0.221194 -0.145879 0.914062 0.776733 1 2 1.000000
ads_scope_lens_1
  2 -2.569000 0.423000 1.082000 -0.964257 0.221194 -0.145879 0.914062 0.776733 1 2 1.000000
  2 -2.620000 0.213000 1.222000 -0.991085 0.112254 -0.071758 0.708984 0.639648 1 2 1.000000
  2 -2.569000 0.470000 1.170000 -0.964421 0.246195 -0.096332 0.959961 0.690674 1 2 1.000000
ads_scope_lens_1
  2 -2.620000 0.213000 1.222000 -0.991085 0.112254 -0.071758 0.708984 0.639648 1 2 1.000000
  2 -2.620000 0.237000 1.267000 -0.991356 0.123617 -0.043964 0.731934 0.596191 1 2 1.000000
  2 -2.569000 0.470000 1.170000 -0.964421 0.246195 -0.096332 0.959961 0.690674 1 2 1.000000
ads_scope_lens_1
  2 -2.569000 0.470000 1.170000 -0.964421 0.246195 -0.096332 0.959961 0.690674 1 2 1.000000
  2 -2.620000 0.237000 1.267000 -0.991356 0.123617 -0.043964 0.731934 0.596191 1 2 1.000000
  2 -2.569000 0.499000 1.266000 -0.964458 0.260082 -0.046660 0.988281 0.597168 1 2 1.000000
ads_scope_lens_1
  2 -2.620000 0.237000 1.267000 -0.991356 0.123617 -0.043964 0.731934 0.596191 1 2 1.000000
  2 -2.620000 0.252000 1.315000 -0.991099 0.131762 -0.018993 0.746582 0.549072 1 2 1.000000
  2 -2.569000 0.499000 1.266000 -0.964458 0.260082 -0.046660 0.988281 0.597168 1 2 1.000000
ads_scope_lens_1
  2 -2.569000 0.499000 1.266000 -0.964458 0.260082 -0.046660 0.988281 0.597168 1 2 1.000000
  2 -2.620000 0.252000 1.315000 -0.991099 0.131762 -0.018993 0.746582 0.549072 1 2 1.000000
  2 -2.569000 0.509000 1.365000 -0.964146 0.265358 0.002873 0.998047 0.500000 1 2 1.000000
ads_scope_lens_1
  2 -2.620000 0.252000 1.315000 -0.991099 0.131762 -0.018993 0.746582 0.549072 1 2 1.000000
  2 -2.620000 0.257000 1.365000 -0.990861 0.134844 -0.003394 0.751465 0.500000 1 2 1.000000
  2 -2.569000 0.509000 1.365000 -0.964146 0.265358 0.002873 0.998047 0.500000 1 2 1.000000
ads_scope_lens_1
  2 -2.569000 0.509000 1.365000 -0.964146 0.265358 0.002873 0.998047 0.500000 1 2 1.000000
  2 -2.620000 0.257000 1.365000 -0.990861 0.134844 -0.003394 0.751465 0.500000 1 2 1.000000
  2 -2.620000 0.252000 1.415000 -0.990655 0.134681 0.021542 0.746582 0.451172 1 2 1.000000
ads_scope_lens_1
  2 -2.638000 0.000000 1.365000 -0.999989 -0.001355 -0.004544 0.500000 0.500000 1 2 1.000000
  2 -2.620000 0.252000 1.415000 -0.990655 0.134681 0.021542 0.746582 0.451172 1 2 1.000000
  2 -2.620000 0.257000 1.365000 -0.990861 0.134844 -0.003394 0.751465 0.500000 1 2 1.000000
ads_scope_lens_1
  2 -2.638000 0.000000 1.365000 -0.999989 -0.001355 -0.004544 0.500000 0.500000 1 2 1.000000
  2 -2.620000 0.237000 1.463000 -0.990759 0.126318 0.049392 0.731934 0.403809 1 2 1.000000
  2 -2.620000 0.252000 1.415000 -0.990655 0.134681 0.021542 0.746582 0.451172 1 2 1.000000
ads_scope_lens_1
  2 -2.638000 0.000000 1.365000 -0.999989 -0.001355 -0.004544 0.500000 0.500000 1 2 1.000000
  2 -2.620000 0.213000 1.507000 -0.991077 0.112432 0.071594 0.708984 0.360352 1 2 1.000000
  2 -2.620000 0.237000 1.463000 -0.990759 0.126318 0.049392 0.731934 0.403809 1 2 1.000000
ads_scope_lens_1
  2 -2.638000 0.000000 1.365000 -0.999989 -0.001355 -0.004544 0.500000 0.500000 1 2 1.000000
  2 -2.620000 0.181000 1.183000 -0.991696 0.093329 -0.088479 0.677734 0.677734 1 2 1.000000
  2 -2.620000 0.143000 1.151000 -0.991446 0.073541 -0.107823 0.639648 0.708984 1 2 1.000000
ads_scope_lens_1
  2 -2.638000 0.000000 1.365000 -0.999989 -0.001355 -0.004544 0.500000 0.500000 1 2 1.000000
  2 -2.620000 0.213000 1.222000 -0.991085 0.112254 -0.071758 0.708984 0.639648 1 2 1.000000
  2 -2.620000 0.181000 1.183000 -0.991696 0.093329 -0.088479 0.677734 0.677734 1 2 1.000000
ads_scope_lens_1
  2 -2.638000 0.000000 1.365000 -0.999989 -0.001355 -0.004544 0.500000 0.500000 1 2 1.000000
  2 -2.620000 0.237000 1.267000 -0.991356 0.123617 -0.043964 0.731934 0.596191 1 2 1.000000
  2 -2.620000 0.213000 1.222000 -0.991085 0.112254 -0.071758 0.708984 0.639648 1 2 1.000000
ads_scope_lens_1
  2 -2.638000 0.000000 1.365000 -0.999989 -0.001355 -0.004544 0.500000 0.500000 1 2 1.000000
  2 -2.620000 0.252000 1.315000 -0.991099 0.131762 -0.018993 0.746582 0.549072 1 2 1.000000
  2 -2.620000 0.237000 1.267000 -0.991356 0.123617 -0.043964 0.731934 0.596191 1 2 1.000000
ads_scope_lens_1
  2 -2.638000 0.000000 1.365000 -0.999989 -0.001355 -0.004544 0.500000 0.500000 1 2 1.000000
  2 -2.620000 0.257000 1.365000 -0.990861 0.134844 -0.003394 0.751465 0.500000 1 2 1.000000
  2 -2.620000 0.252000 1.315000 -0.991099 0.131762 -0.018993 0.746582 0.549072 1 2 1.000000
ads_scope_lens_1
  2 -2.638000 0.000000 1.365000 -0.999989 -0.001355 -0.004544 0.500000 0.500000 1 2 1.000000
  2 -2.620000 0.181000 1.546000 -0.991470 0.093482 0.090817 0.677734 0.322266 1 2 1.000000
  2 -2.620000 0.213000 1.507000 -0.991077 0.112432 0.071594 0.708984 0.360352 1 2 1.000000
ads_scope_lens_1
  2 -2.638000 0.000000 1.365000 -0.999989 -0.001355 -0.004544 0.500000 0.500000 1 2 1.000000
  2 -2.620000 0.143000 1.578000 -0.991175 0.074349 0.109745 0.639648 0.291016 1 2 1.000000
  2 -2.620000 0.181000 1.546000 -0.991470 0.093482 0.090817 0.677734 0.322266 1 2 1.000000
ads_scope_lens_1
  2 -2.569000 0.509000 1.365000 -0.964146 0.265358 0.002873 0.998047 0.500000 1 2 1.000000
  2 -2.620000 0.252000 1.415000 -0.990655 0.134681 0.021542 0.746582 0.451172 1 2 1.000000
  2 -2.569000 0.499000 1.464000 -0.964236 0.260407 0.049363 0.988281 0.402832 1 2 1.000000
ads_scope_lens_1
  2 -2.620000 0.252000 1.415000 -0.990655 0.134681 0.021542 0.746582 0.451172 1 2 1.000000
  2 -2.620000 0.237000 1.463000 -0.990759 0.126318 0.049392 0.731934 0.403809 1 2 1.000000
  2 -2.569000 0.499000 1.464000 -0.964236 0.260407 0.049363 0.988281 0.402832 1 2 1.000000
ads_scope_lens_1
  2 -2.569000 0.499000 1.464000 -0.964236 0.260407 0.049363 0.988281 0.402832 1 2 1.000000
  2 -2.620000 0.237000 1.463000 -0.990759 0.126318 0.049392 0.731934 0.403809 1 2 1.000000
  2 -2.569000 0.470000 1.560000 -0.964118 0.246090 0.099582 0.959961 0.309570 1 2 1.000000
ads_scope_lens_1
  2 -2.620000 0.237000 1.463000 -0.990759 0.126318 0.049392 0.731934 0.403809 1 2 1.000000
  2 -2.620000 0.213000 1.507000 -0.991077 0.112432 0.071594 0.708984 0.360352 1 2 1.000000
  2 -2.569000 0.470000 1.560000 -0.964118 0.246090 0.099582 0.959961 0.309570 1 2 1.000000
ads_scope_lens_1
  2 -2.569000 0.470000 1.560000 -0.964118 0.246090 0.099582 0.959961 0.309570 1 2 1.000000
  2 -2.620000 0.213000 1.507000 -0.991077 0.112432 0.071594 0.708984 0.360352 1 2 1.000000
  2 -2.569000 0.423000 1.647000 -0.964218 0.221622 0.145490 0.914062 0.223145 1 2 1.000000
ads_scope_lens_1
  2 -2.620000 0.213000 1.507000 -0.991077 0.112432 0.071594 0.708984 0.360352 1 2 1.000000
  2 -2.620000 0.181000 1.546000 -0.991470 0.093482 0.090817 0.677734 0.322266 1 2 1.000000
  2 -2.569000 0.423000 1.647000 -0.964218 0.221622 0.145490 0.914062 0.223145 1 2 1.000000
ads_scope_lens_1
  2 -2.569000 0.423000 1.647000 -0.964218 0.221622 0.145490 0.914062 0.223145 1 2 1.000000
  2 -2.620000 0.181000 1.546000 -0.991470 0.093482 0.090817 0.677734 0.322266 1 2 1.000000
  2 -2.569000 0.360000 1.725000 -0.963756 0.190550 0.186722 0.852051 0.147949 1 2 1.000000
ads_scope_lens_1
  2 -2.569000 0.360000 1.725000 -0.963756 0.190550 0.186722 0.852051 0.147949 1 2 1.000000
  2 -2.620000 0.181000 1.546000 -0.991470 0.093482 0.090817 0.677734 0.322266 1 2 1.000000
  2 -2.569000 0.283000 1.788000 -0.964085 0.149724 0.219370 0.776855 0.085938 1 2 1.000000
ads_scope_lens_1
  2 -2.620000 0.181000 1.546000 -0.991470 0.093482 0.090817 0.677734 0.322266 1 2 1.000000
  2 -2.620000 0.143000 1.578000 -0.991175 0.074349 0.109745 0.639648 0.291016 1 2 1.000000
  2 -2.569000 0.283000 1.788000 -0.964085 0.149724 0.219370 0.776855 0.085938 1 2 1.000000
ads_scope_lens_1
  2 -2.569000 0.283000 1.788000 -0.964085 0.149724 0.219370 0.776855 0.085938 1 2 1.000000
  2 -2.620000 0.143000 1.578000 -0.991175 0.074349 0.109745 0.639648 0.291016 1 2 1.000000
  2 -2.620000 0.098000 1.602000 -0.991006 0.051872 0.123353 0.596191 0.268066 1 2 1.000000
ads_scope_lens_1
  2 -2.638000 0.000000 1.365000 -0.999989 -0.001355 -0.004544 0.500000 0.500000 1 2 1.000000
  2 -2.620000 0.098000 1.602000 -0.991006 0.051872 0.123353 0.596191 0.268066 1 2 1.000000
  2 -2.620000 0.143000 1.578000 -0.991175 0.074349 0.109745 0.639648 0.291016 1 2 1.000000
ads_scope_lens_1
  2 -2.638000 0.000000 1.365000 -0.999989 -0.001355 -0.004544 0.500000 0.500000 1 2 1.000000
  2 -2.620000 0.050000 1.617000 -0.991180 0.029529 0.129192 0.548828 0.253418 1 2 1.000000
  2 -2.620000 0.098000 1.602000 -0.991006 0.051872 0.123353 0.596191 0.268066 1 2 1.000000
ads_scope_lens_1
  2 -2.638000 0.000000 1.365000 -0.999989 -0.001355 -0.004544 0.500000 0.500000 1 2 1.000000
  2 -2.620000 0.000000 1.621000 -0.991610 0.002523 0.129242 0.500000 0.248535 1 2 1.000000
  2 -2.620000 0.050000 1.617000 -0.991180 0.029529 0.129192 0.548828 0.253418 1 2 1.000000
ads_scope_lens_1
  2 -2.569000 0.099000 1.864000 -0.964722 0.053530 0.257770 0.597168 0.011719 1 2 1.000000
  2 -2.620000 0.050000 1.617000 -0.991180 0.029529 0.129192 0.548828 0.253418 1 2 1.000000
  2 -2.620000 0.000000 1.621000 -0.991610 0.002523 0.129242 0.500000 0.248535 1 2 1.000000
ads_scope_lens_1
  2 -2.569000 0.099000 1.864000 -0.964722 0.053530 0.257770 0.597168 0.011719 1 2 1.000000
  2 -2.620000 0.000000 1.621000 -0.991610 0.002523 0.129242 0.500000 0.248535 1 2 1.000000
  2 -2.569000 0.000000 1.873000 -0.964788 0.002555 0.263017 0.500000 0.001953 1 2 1.000000
ads_scope_lens_1
  2 -2.569000 0.000000 1.873000 -0.964788 0.002555 0.263017 0.500000 0.001953 1 2 1.000000
  2 -2.620000 0.000000 1.621000 -0.991610 0.002523 0.129242 0.500000 0.248535 1 2 1.000000
  2 -2.569000 -0.099000 1.864000 -0.964722 -0.053530 0.257770 0.402832 0.011719 1 2 1.000000
ads_scope_lens_1
  2 -2.620000 0.000000 1.621000 -0.991610 0.002523 0.129242 0.500000 0.248535 1 2 1.000000
  2 -2.620000 -0.050000 1.617000 -0.991180 -0.029530 0.129193 0.450928 0.253418 1 2 1.000000
  2 -2.569000 -0.099000 1.864000 -0.964722 -0.053530 0.257770 0.402832 0.011719 1 2 1.000000
ads_scope_lens_1
  2 -2.569000 -0.099000 1.864000 -0.964722 -0.053530 0.257770 0.402832 0.011719 1 2 1.000000
  2 -2.620000 -0.050000 1.617000 -0.991180 -0.029530 0.129193 0.450928 0.253418 1 2 1.000000
  2 -2.620000 -0.098000 1.602000 -0.991006 -0.051873 0.123353 0.403809 0.268066 1 2 1.000000
ads_scope_lens_1
  2 -2.638000 0.000000 1.365000 -0.999989 -0.001355 -0.004544 0.500000 0.500000 1 2 1.000000
  2 -2.620000 -0.098000 1.602000 -0.991006 -0.051873 0.123353 0.403809 0.268066 1 2 1.000000
  2 -2.620000 -0.050000 1.617000 -0.991180 -0.029530 0.129193 0.450928 0.253418 1 2 1.000000
ads_scope_lens_1
  2 -2.638000 0.000000 1.365000 -0.999989 -0.001355 -0.004544 0.500000 0.500000 1 2 1.000000
  2 -2.620000 -0.143000 1.578000 -0.991175 -0.074350 0.109745 0.360352 0.291016 1 2 1.000000
  2 -2.620000 -0.098000 1.602000 -0.991006 -0.051873 0.123353 0.403809 0.268066 1 2 1.000000
ads_scope_lens_1
  2 -2.620000 -0.181000 1.546000 -0.991470 -0.093482 0.090817 0.322266 0.322266 1 2 1.000000
  2 -2.620000 -0.143000 1.578000 -0.991175 -0.074350 0.109745 0.360352 0.291016 1 2 1.000000
  2 -2.638000 0.000000 1.365000 -0.999989 -0.001355 -0.004544 0.500000 0.500000 1 2 1.000000
ads_scope_lens_1
  2 -2.638000 0.000000 1.365000 -0.999989 -0.001355 -0.004544 0.500000 0.500000 1 2 1.000000
  2 -2.620000 -0.050000 1.617000 -0.991180 -0.029530 0.129193 0.450928 0.253418 1 2 1.000000
  2 -2.620000 0.000000 1.621000 -0.991610 0.002523 0.129242 0.500000 0.248535 1 2 1.000000
ads_scope_lens_1
  2 -2.569000 0.283000 1.788000 -0.964085 0.149724 0.219370 0.776855 0.085938 1 2 1.000000
  2 -2.620000 0.098000 1.602000 -0.991006 0.051872 0.123353 0.596191 0.268066 1 2 1.000000
  2 -2.569000 0.195000 1.835000 -0.964039 0.105392 0.243970 0.690430 0.040039 1 2 1.000000
ads_scope_lens_1
  2 -2.569000 0.195000 1.835000 -0.964039 0.105392 0.243970 0.690430 0.040039 1 2 1.000000
  2 -2.620000 0.098000 1.602000 -0.991006 0.051872 0.123353 0.596191 0.268066 1 2 1.000000
  2 -2.569000 0.099000 1.864000 -0.964722 0.053530 0.257770 0.597168 0.011719 1 2 1.000000
ads_scope_lens_1
  2 -2.620000 0.098000 1.602000 -0.991006 0.051872 0.123353 0.596191 0.268066 1 2 1.000000
  2 -2.620000 0.050000 1.617000 -0.991180 0.029529 0.129192 0.548828 0.253418 1 2 1.000000
  2 -2.569000 0.099000 1.864000 -0.964722 0.053530 0.257770 0.597168 0.011719 1 2 1.000000
ads_scope_lens_1
  2 -2.569000 -0.099000 1.864000 -0.964722 -0.053530 0.257770 0.402832 0.011719 1 2 1.000000
  2 -2.620000 -0.098000 1.602000 -0.991006 -0.051873 0.123353 0.403809 0.268066 1 2 1.000000
  2 -2.569000 -0.195000 1.835000 -0.964039 -0.105392 0.243971 0.309326 0.040039 1 2 1.000000
ads_scope_lens_1
  2 -2.569000 -0.195000 1.835000 -0.964039 -0.105392 0.243971 0.309326 0.040039 1 2 1.000000
  2 -2.620000 -0.098000 1.602000 -0.991006 -0.051873 0.123353 0.403809 0.268066 1 2 1.000000
  2 -2.569000 -0.283000 1.788000 -0.964085 -0.149723 0.219370 0.223267 0.085938 1 2 1.000000
ads_scope_lens_1
  2 -2.620000 -0.098000 1.602000 -0.991006 -0.051873 0.123353 0.403809 0.268066 1 2 1.000000
  2 -2.620000 -0.143000 1.578000 -0.991175 -0.074350 0.109745 0.360352 0.291016 1 2 1.000000
  2 -2.569000 -0.283000 1.788000 -0.964085 -0.149723 0.219370 0.223267 0.085938 1 2 1.000000
ads_scope_lens_1
  2 -2.638000 0.000000 1.365000 -0.999989 -0.001355 -0.004544 0.500000 0.500000 1 2 1.000000
  2 -2.620000 -0.213000 1.507000 -0.991077 -0.112432 0.071594 0.291016 0.360352 1 2 1.000000
  2 -2.620000 -0.181000 1.546000 -0.991470 -0.093482 0.090817 0.322266 0.322266 1 2 1.000000
ads_scope_lens_1
  2 -2.638000 0.000000 1.365000 -0.999989 -0.001355 -0.004544 0.500000 0.500000 1 2 1.000000
  2 -2.620000 -0.237000 1.463000 -0.990763 -0.126305 0.049344 0.267822 0.403809 1 2 1.000000
  2 -2.620000 -0.213000 1.507000 -0.991077 -0.112432 0.071594 0.291016 0.360352 1 2 1.000000
ads_scope_lens_1
  2 -2.638000 0.000000 1.365000 -0.999989 -0.001355 -0.004544 0.500000 0.500000 1 2 1.000000
  2 -2.620000 -0.252000 1.415000 -0.990650 -0.134698 0.021639 0.253662 0.451172 1 2 1.000000
  2 -2.620000 -0.237000 1.463000 -0.990763 -0.126305 0.049344 0.267822 0.403809 1 2 1.000000
ads_scope_lens_1
  2 -2.620000 -0.143000 1.578000 -0.991175 -0.074350 0.109745 0.360352 0.291016 1 2 1.000000
  2 -2.620000 -0.181000 1.546000 -0.991470 -0.093482 0.090817 0.322266 0.322266 1 2 1.000000
  2 -2.569000 -0.283000 1.788000 -0.964085 -0.149723 0.219370 0.223267 0.085938 1 2 1.000000
ads_scope_lens_1
  2 -2.569000 -0.283000 1.788000 -0.964085 -0.149723 0.219370 0.223267 0.085938 1 2 1.000000
  2 -2.620000 -0.181000 1.546000 -0.991470 -0.093482 0.090817 0.322266 0.322266 1 2 1.000000
  2 -2.569000 -0.360000 1.725000 -0.963756 -0.190549 0.186722 0.147827 0.147949 1 2 1.000000
ads_scope_lens_1
  2 -2.620000 -0.181000 1.546000 -0.991470 -0.093482 0.090817 0.322266 0.322266 1 2 1.000000
  2 -2.569000 -0.423000 1.647000 -0.964218 -0.221622 0.145490 0.085938 0.223145 1 2 1.000000
  2 -2.569000 -0.360000 1.725000 -0.963756 -0.190549 0.186722 0.147827 0.147949 1 2 1.000000
ads_scope_lens_1
  2 -2.620000 -0.181000 1.546000 -0.991470 -0.093482 0.090817 0.322266 0.322266 1 2 1.000000
  2 -2.620000 -0.213000 1.507000 -0.991077 -0.112432 0.071594 0.291016 0.360352 1 2 1.000000
  2 -2.569000 -0.423000 1.647000 -0.964218 -0.221622 0.145490 0.085938 0.223145 1 2 1.000000
ads_scope_lens_1
  2 -2.569000 -0.423000 1.647000 -0.964218 -0.221622 0.145490 0.085938 0.223145 1 2 1.000000
  2 -2.620000 -0.213000 1.507000 -0.991077 -0.112432 0.071594 0.291016 0.360352 1 2 1.000000
  2 -2.569000 -0.470000 1.560000 -0.964118 -0.246089 0.099582 0.039886 0.309570 1 2 1.000000
ads_scope_lens_1
  2 -2.620000 -0.213000 1.507000 -0.991077 -0.112432 0.071594 0.291016 0.360352 1 2 1.000000
  2 -2.620000 -0.237000 1.463000 -0.990763 -0.126305 0.049344 0.267822 0.403809 1 2 1.000000
  2 -2.569000 -0.470000 1.560000 -0.964118 -0.246089 0.099582 0.039886 0.309570 1 2 1.000000
ads_scope_lens_1
  2 -2.569000 -0.470000 1.560000 -0.964118 -0.246089 0.099582 0.039886 0.309570 1 2 1.000000
  2 -2.620000 -0.237000 1.463000 -0.990763 -0.126305 0.049344 0.267822 0.403809 1 2 1.000000
  2 -2.569000 -0.499000 1.464000 -0.964236 -0.260407 0.049363 0.011559 0.402832 1 2 1.000000
ads_scope_lens_1
  2 -2.620000 -0.237000 1.463000 -0.990763 -0.126305 0.049344 0.267822 0.403809 1 2 1.000000
  2 -2.620000 -0.252000 1.415000 -0.990650 -0.134698 0.021639 0.253662 0.451172 1 2 1.000000
  2 -2.569000 -0.499000 1.464000 -0.964236 -0.260407 0.049363 0.011559 0.402832 1 2 1.000000
ads_scope_lens_1
  2 -2.569000 -0.499000 1.464000 -0.964236 -0.260407 0.049363 0.011559 0.402832 1 2 1.000000
  2 -2.620000 -0.252000 1.415000 -0.990650 -0.134698 0.021639 0.253662 0.451172 1 2 1.000000
  2 -2.569000 -0.509000 1.365000 -0.964657 -0.263458 0.005101 0.001989 0.500000 1 2 1.000000
ads_scope_lens_1
  2 -2.620000 -0.252000 1.415000 -0.990650 -0.134698 0.021639 0.253662 0.451172 1 2 1.000000
  2 -2.620000 -0.257000 1.365000 -0.990861 -0.134844 -0.003395 0.248779 0.500000 1 2 1.000000
  2 -2.569000 -0.509000 1.365000 -0.964657 -0.263458 0.005101 0.001989 0.500000 1 2 1.000000
ads_scope_lens_1
  2 -2.638000 0.000000 1.365000 -0.999989 -0.001355 -0.004544 0.500000 0.500000 1 2 1.000000
  2 -2.620000 -0.257000 1.365000 -0.990861 -0.134844 -0.003395 0.248779 0.500000 1 2 1.000000
  2 -2.620000 -0.252000 1.415000 -0.990650 -0.134698 0.021639 0.253662 0.451172 1 2 1.000000
ads_scope_lens_1
  2 -2.638000 0.000000 1.365000 -0.999989 -0.001355 -0.004544 0.500000 0.500000 1 2 1.000000
  2 -2.620000 -0.252000 1.315000 -0.990982 -0.132178 -0.022010 0.253662 0.549072 1 2 1.000000
  2 -2.620000 -0.257000 1.365000 -0.990861 -0.134844 -0.003395 0.248779 0.500000 1 2 1.000000
ads_scope_lens_1
  2 -2.638000 0.000000 1.365000 -0.999989 -0.001355 -0.004544 0.500000 0.500000 1 2 1.000000
  2 -2.620000 -0.237000 1.267000 -0.991604 -0.121447 -0.044401 0.267822 0.596191 1 2 1.000000
  2 -2.620000 -0.252000 1.315000 -0.990982 -0.132178 -0.022010 0.253662 0.549072 1 2 1.000000
ads_scope_lens_1
  2 -2.638000 0.000000 1.365000 -0.999989 -0.001355 -0.004544 0.500000 0.500000 1 2 1.000000
  2 -2.620000 -0.213000 1.222000 -0.991491 -0.110206 -0.069280 0.291016 0.639648 1 2 1.000000
  2 -2.620000 -0.237000 1.267000 -0.991604 -0.121447 -0.044401 0.267822 0.596191 1 2 1.000000
ads_scope_lens_1
  2 -2.638000 0.000000 1.365000 -0.999989 -0.001355 -0.004544 0.500000 0.500000 1 2 1.000000
  2 -2.620000 -0.181000 1.183000 -0.991882 -0.091050 -0.088767 0.322266 0.677734 1 2 1.000000
  2 -2.620000 -0.213000 1.222000 -0.991491 -0.110206 -0.069280 0.291016 0.639648 1 2 1.000000
ads_scope_lens_1
  2 -2.638000 0.000000 1.365000 -0.999989 -0.001355 -0.004544 0.500000 0.500000 1 2 1.000000
  2 -2.620000 -0.143000 1.151000 -0.991403 -0.074045 -0.107877 0.360352 0.708984 1 2 1.000000
  2 -2.620000 -0.181000 1.183000 -0.991882 -0.091050 -0.088767 0.322266 0.677734 1 2 1.000000
ads_scope_lens_1
  2 -2.638000 0.000000 1.365000 -0.999989 -0.001355 -0.004544 0.500000 0.500000 1 2 1.000000
  2 -2.620000 -0.098000 1.128000 -0.991680 -0.049454 -0.118848 0.403809 0.732178 1 2 1.000000
  2 -2.620000 -0.143000 1.151000 -0.991403 -0.074045 -0.107877 0.360352 0.708984 1 2 1.000000
ads_scope_lens_1
  2 -2.638000 0.000000 1.365000 -0.999989 -0.001355 -0.004544 0.500000 0.500000 1 2 1.000000
  2 -2.620000 -0.050000 1.113000 -0.991598 -0.024909 -0.126939 0.450928 0.746338 1 2 1.000000
  2 -2.620000 -0.098000 1.128000 -0.991680 -0.049454 -0.118848 0.403809 0.732178 1 2 1.000000
ads_scope_lens_1
  2 -2.638000 0.000000 1.365000 -0.999989 -0.001355 -0.004544 0.500000 0.500000 1 2 1.000000
  2 -2.620000 0.000000 1.108000 -0.991551 0.000001 -0.129715 0.500000 0.751221 1 2 1.000000
  2 -2.620000 -0.050000 1.113000 -0.991598 -0.024909 -0.126939 0.450928 0.746338 1 2 1.000000
ads_scope_lens_1
  2 -2.569000 -0.509000 1.365000 -0.964657 -0.263458 0.005101 0.001989 0.500000 1 2 1.000000
  2 -2.620000 -0.257000 1.365000 -0.990861 -0.134844 -0.003395 0.248779 0.500000 1 2 1.000000
  2 -2.620000 -0.252000 1.315000 -0.990982 -0.132178 -0.022010 0.253662 0.549072 1 2 1.000000
ads_scope_lens_1
  2 -2.569000 -0.509000 1.365000 -0.964657 -0.263458 0.005101 0.001989 0.500000 1 2 1.000000
  2 -2.620000 -0.252000 1.315000 -0.990982 -0.132178 -0.022010 0.253662 0.549072 1 2 1.000000
  2 -2.569000 -0.499000 1.266000 -0.964951 -0.258094 -0.047512 0.011559 0.597168 1 2 1.000000
ads_scope_lens_1
  2 -2.620000 -0.252000 1.315000 -0.990982 -0.132178 -0.022010 0.253662 0.549072 1 2 1.000000
  2 -2.620000 -0.237000 1.267000 -0.991604 -0.121447 -0.044401 0.267822 0.596191 1 2 1.000000
  2 -2.569000 -0.499000 1.266000 -0.964951 -0.258094 -0.047512 0.011559 0.597168 1 2 1.000000
ads_scope_lens_1
  2 -2.569000 -0.499000 1.266000 -0.964951 -0.258094 -0.047512 0.011559 0.597168 1 2 1.000000
  2 -2.620000 -0.237000 1.267000 -0.991604 -0.121447 -0.044401 0.267822 0.596191 1 2 1.000000
  2 -2.569000 -0.470000 1.170000 -0.964861 -0.244155 -0.097118 0.039886 0.690674 1 2 1.000000
ads_scope_lens_1
  2 -2.620000 -0.237000 1.267000 -0.991604 -0.121447 -0.044401 0.267822 0.596191 1 2 1.000000
  2 -2.620000 -0.213000 1.222000 -0.991491 -0.110206 -0.069280 0.291016 0.639648 1 2 1.000000
  2 -2.569000 -0.470000 1.170000 -0.964861 -0.244155 -0.097118 0.039886 0.690674 1 2 1.000000
ads_scope_lens_1
  2 -2.569000 -0.470000 1.170000 -0.964861 -0.244155 -0.097118 0.039886 0.690674 1 2 1.000000
  2 -2.620000 -0.213000 1.222000 -0.991491 -0.110206 -0.069280 0.291016 0.639648 1 2 1.000000
  2 -2.569000 -0.423000 1.082000 -0.964987 -0.219422 -0.143714 0.085938 0.776733 1 2 1.000000
ads_scope_lens_1
  2 -2.620000 -0.213000 1.222000 -0.991491 -0.110206 -0.069280 0.291016 0.639648 1 2 1.000000
  2 -2.620000 -0.181000 1.183000 -0.991882 -0.091050 -0.088767 0.322266 0.677734 1 2 1.000000
  2 -2.569000 -0.423000 1.082000 -0.964987 -0.219422 -0.143714 0.085938 0.776733 1 2 1.000000
ads_scope_lens_1
  2 -2.569000 -0.423000 1.082000 -0.964987 -0.219422 -0.143714 0.085938 0.776733 1 2 1.000000
  2 -2.620000 -0.181000 1.183000 -0.991882 -0.091050 -0.088767 0.322266 0.677734 1 2 1.000000
  2 -2.569000 -0.360000 1.005000 -0.965381 -0.186130 -0.182744 0.147827 0.852173 1 2 1.000000
ads_scope_lens_1
  2 -2.569000 -0.360000 1.005000 -0.965381 -0.186130 -0.182744 0.147827 0.852173 1 2 1.000000
  2 -2.620000 -0.181000 1.183000 -0.991882 -0.091050 -0.088767 0.322266 0.677734 1 2 1.000000
  2 -2.569000 -0.283000 0.942000 -0.964809 -0.147597 -0.217621 0.223267 0.914062 1 2 1.000000
ads_scope_lens_1
  2 -2.620000 -0.181000 1.183000 -0.991882 -0.091050 -0.088767 0.322266 0.677734 1 2 1.000000
  2 -2.620000 -0.143000 1.151000 -0.991403 -0.074045 -0.107877 0.360352 0.708984 1 2 1.000000
  2 -2.569000 -0.283000 0.942000 -0.964809 -0.147597 -0.217621 0.223267 0.914062 1 2 1.000000
ads_scope_lens_1
  2 -2.569000 -0.283000 0.942000 -0.964809 -0.147597 -0.217621 0.223267 0.914062 1 2 1.000000
  2 -2.620000 -0.143000 1.151000 -0.991403 -0.074045 -0.107877 0.360352 0.708984 1 2 1.000000
  2 -2.569000 -0.195000 0.895000 -0.965786 -0.097914 -0.240145 0.309326 0.960114 1 2 1.000000
ads_scope_lens_1
  2 -2.620000 -0.143000 1.151000 -0.991403 -0.074045 -0.107877 0.360352 0.708984 1 2 1.000000
  2 -2.620000 -0.098000 1.128000 -0.991680 -0.049454 -0.118848 0.403809 0.732178 1 2 1.000000
  2 -2.569000 -0.195000 0.895000 -0.965786 -0.097914 -0.240145 0.309326 0.960114 1 2 1.000000
ads_scope_lens_1
  2 -2.569000 -0.195000 0.895000 -0.965786 -0.097914 -0.240145 0.309326 0.960114 1 2 1.000000
  2 -2.620000 -0.098000 1.128000 -0.991680 -0.049454 -0.118848 0.403809 0.732178 1 2 1.000000
  2 -2.569000 -0.099000 0.866000 -0.965447 -0.049763 -0.255805 0.402832 0.988441 1 2 1.000000
ads_scope_lens_1
  2 -2.620000 -0.098000 1.128000 -0.991680 -0.049454 -0.118848 0.403809 0.732178 1 2 1.000000
  2 -2.620000 -0.050000 1.113000 -0.991598 -0.024909 -0.126939 0.450928 0.746338 1 2 1.000000
  2 -2.569000 -0.099000 0.866000 -0.965447 -0.049763 -0.255805 0.402832 0.988441 1 2 1.000000
ads_scope_lens_1
  2 -2.569000 -0.099000 0.866000 -0.965447 -0.049763 -0.255805 0.402832 0.988441 1 2 1.000000
  2 -2.620000 -0.050000 1.113000 -0.991598 -0.024909 -0.126939 0.450928 0.746338 1 2 1.000000
  2 -2.569000 0.000000 0.856000 -0.965309 0.002039 -0.261103 0.500000 0.998011 1 2 1.000000
ads_scope_lens_1
  2 -2.620000 -0.050000 1.113000 -0.991598 -0.024909 -0.126939 0.450928 0.746338 1 2 1.000000
  2 -2.620000 0.000000 1.108000 -0.991551 0.000001 -0.129715 0.500000 0.751221 1 2 1.000000
  2 -2.569000 0.000000 0.856000 -0.965309 0.002039 -0.261103 0.500000 0.998011 1 2 1.000000
ads_scope_lens_1
  2 -2.569000 0.000000 0.856000 -0.965309 0.002039 -0.261103 0.500000 0.998011 1 2 1.000000
  2 -2.620000 0.000000 1.108000 -0.991551 0.000001 -0.129715 0.500000 0.751221 1 2 1.000000
  2 -2.620000 0.050000 1.113000 -0.991533 0.027322 -0.126944 0.548828 0.746338 1 2 1.000000
ads_scope_lens_1
  2 -2.638000 0.000000 1.365000 -0.999989 -0.001355 -0.004544 0.500000 0.500000 1 2 1.000000
  2 -2.620000 0.050000 1.113000 -0.991533 0.027322 -0.126944 0.548828 0.746338 1 2 1.000000
  2 -2.620000 0.000000 1.108000 -0.991551 0.000001 -0.129715 0.500000 0.751221 1 2 1.000000
end
