// Created by Crowbar 0.74
version 1
nodes
  0 "tag_scope" -1
  1 "j_scope_lens_cover" 0
  2 "tag_reticle_attach" 0
  3 "tag_lense_hide" 0
  4 "tag_lense" 0
end
skeleton
  time 0
    0 0.000000 0.000000 0.000000 0.000000 0.000000 0.000000
    1 -3.422000 -0.771000 1.701000 1.048561 0.000000 0.000000
    2 -3.191000 0.001000 1.248000 0.000000 0.000000 0.000000
    3 -3.191000 0.001000 1.248000 0.000000 0.000000 0.000000
    4 -3.191000 0.001000 1.248000 0.000000 0.000000 0.000000
end
triangles
reticle_ui_stencil
  4 -3.095000 0.001000 1.958000 -0.999975 0.006831 -0.001729 0.500000 0.998940 1 4 1.000000
  4 -3.095000 0.001000 1.252000 -0.999975 0.006831 -0.001729 0.500000 0.500000 1 4 1.000000
  4 -3.095000 -0.353000 1.863000 -0.999975 -0.006832 -0.001729 0.749512 0.932129 1 4 1.000000
reticle_ui_stencil
  4 -3.095000 0.001000 1.252000 -0.999975 0.006831 -0.001729 0.500000 0.500000 1 4 1.000000
  4 -3.095000 -0.611000 1.605000 -0.999975 0.006832 -0.001729 0.932129 0.749512 1 4 1.000000
  4 -3.095000 -0.353000 1.863000 -0.999975 -0.006832 -0.001729 0.749512 0.932129 1 4 1.000000
reticle_ui_stencil
  4 -3.095000 -0.706000 1.252000 -0.999975 0.006832 -0.001729 0.999023 0.500000 1 4 1.000000
  4 -3.095000 -0.611000 1.605000 -0.999975 0.006832 -0.001729 0.932129 0.749512 1 4 1.000000
  4 -3.095000 0.001000 1.252000 -0.999975 0.006831 -0.001729 0.500000 0.500000 1 4 1.000000
reticle_ui_stencil
  4 -3.095000 -0.706000 1.252000 -0.999975 0.006832 -0.001729 0.999023 0.500000 1 4 1.000000
  4 -3.095000 0.001000 1.252000 -0.999975 0.006831 -0.001729 0.500000 0.500000 1 4 1.000000
  4 -3.095000 -0.611000 0.898000 -0.999975 -0.006831 -0.001729 0.932129 0.250488 1 4 1.000000
reticle_ui_stencil
  4 -3.095000 -0.611000 0.898000 -0.999975 -0.006831 -0.001729 0.932129 0.250488 1 4 1.000000
  4 -3.095000 0.001000 1.252000 -0.999975 0.006831 -0.001729 0.500000 0.500000 1 4 1.000000
  4 -3.095000 -0.353000 0.640000 -0.999975 -0.006831 -0.001729 0.749512 0.067871 1 4 1.000000
reticle_ui_stencil
  4 -3.095000 -0.353000 0.640000 -0.999975 -0.006831 -0.001729 0.749512 0.067871 1 4 1.000000
  4 -3.095000 0.001000 1.252000 -0.999975 0.006831 -0.001729 0.500000 0.500000 1 4 1.000000
  4 -3.095000 0.001000 0.545000 -0.999975 -0.006832 -0.001729 0.500000 0.000977 1 4 1.000000
reticle_ui_stencil
  4 -3.095000 0.001000 0.545000 -0.999975 -0.006832 -0.001729 0.500000 0.000977 1 4 1.000000
  4 -3.095000 0.001000 1.252000 -0.999975 0.006831 -0.001729 0.500000 0.500000 1 4 1.000000
  4 -3.095000 0.354000 0.640000 -0.999975 0.006832 -0.001729 0.250488 0.067871 1 4 1.000000
reticle_ui_stencil
  4 -3.095000 0.354000 0.640000 -0.999975 0.006832 -0.001729 0.250488 0.067871 1 4 1.000000
  4 -3.095000 0.001000 1.252000 -0.999975 0.006831 -0.001729 0.500000 0.500000 1 4 1.000000
  4 -3.095000 0.612000 0.898000 -0.999975 0.006831 -0.001729 0.067810 0.250488 1 4 1.000000
reticle_ui_stencil
  4 -3.095000 0.612000 0.898000 -0.999975 0.006831 -0.001729 0.067810 0.250488 1 4 1.000000
  4 -3.095000 0.001000 1.252000 -0.999975 0.006831 -0.001729 0.500000 0.500000 1 4 1.000000
  4 -3.095000 0.707000 1.252000 -0.999975 0.006831 -0.001729 0.000970 0.500000 1 4 1.000000
reticle_ui_stencil
  4 -3.095000 0.707000 1.252000 -0.999975 0.006831 -0.001729 0.000970 0.500000 1 4 1.000000
  4 -3.095000 0.001000 1.252000 -0.999975 0.006831 -0.001729 0.500000 0.500000 1 4 1.000000
  4 -3.095000 0.612000 1.605000 -0.999975 -0.006832 -0.001729 0.067810 0.749512 1 4 1.000000
reticle_ui_stencil
  4 -3.095000 0.612000 1.605000 -0.999975 -0.006832 -0.001729 0.067810 0.749512 1 4 1.000000
  4 -3.095000 0.001000 1.252000 -0.999975 0.006831 -0.001729 0.500000 0.500000 1 4 1.000000
  4 -3.095000 0.354000 1.863000 -0.999975 0.006832 -0.001729 0.250488 0.932129 1 4 1.000000
reticle_ui_stencil
  4 -3.095000 0.354000 1.863000 -0.999975 0.006832 -0.001729 0.250488 0.932129 1 4 1.000000
  4 -3.095000 0.001000 1.252000 -0.999975 0.006831 -0.001729 0.500000 0.500000 1 4 1.000000
  4 -3.095000 0.001000 1.958000 -0.999975 0.006831 -0.001729 0.500000 0.998940 1 4 1.000000
vm_depth_mask_end
  4 -3.094000 0.001000 1.958000 -0.999996 0.002828 -0.000001 0.999023 0.500000 1 4 1.000000
  4 -3.094000 0.001000 1.252000 -0.999996 0.002780 -0.000001 0.500000 0.500000 1 4 1.000000
  4 -3.094000 -0.353000 1.863000 -0.999996 0.002828 -0.000001 0.932129 0.250488 1 4 1.000000
vm_depth_mask_end
  4 -3.094000 0.001000 1.252000 -0.999996 0.002780 -0.000001 0.500000 0.500000 1 4 1.000000
  4 -3.094000 -0.611000 1.605000 -0.999996 0.002828 -0.000001 0.749512 0.067871 1 4 1.000000
  4 -3.094000 -0.353000 1.863000 -0.999996 0.002828 -0.000001 0.932129 0.250488 1 4 1.000000
vm_depth_mask_end
  4 -3.094000 -0.706000 1.252000 -0.999996 0.002828 -0.000001 0.500000 0.000977 1 4 1.000000
  4 -3.094000 -0.611000 1.605000 -0.999996 0.002828 -0.000001 0.749512 0.067871 1 4 1.000000
  4 -3.094000 0.001000 1.252000 -0.999996 0.002780 -0.000001 0.500000 0.500000 1 4 1.000000
vm_depth_mask_end
  4 -3.094000 -0.706000 1.252000 -0.999996 0.002828 -0.000001 0.500000 0.000977 1 4 1.000000
  4 -3.094000 0.001000 1.252000 -0.999996 0.002780 -0.000001 0.500000 0.500000 1 4 1.000000
  4 -3.094000 -0.611000 0.898000 -0.999996 0.002829 -0.000001 0.250488 0.067871 1 4 1.000000
vm_depth_mask_end
  4 -3.094000 -0.611000 0.898000 -0.999996 0.002829 -0.000001 0.250488 0.067871 1 4 1.000000
  4 -3.094000 0.001000 1.252000 -0.999996 0.002780 -0.000001 0.500000 0.500000 1 4 1.000000
  4 -3.094000 -0.353000 0.640000 -0.999996 0.002828 -0.000001 0.067810 0.250488 1 4 1.000000
vm_depth_mask_end
  4 -3.094000 -0.353000 0.640000 -0.999996 0.002828 -0.000001 0.067810 0.250488 1 4 1.000000
  4 -3.094000 0.001000 1.252000 -0.999996 0.002780 -0.000001 0.500000 0.500000 1 4 1.000000
  4 -3.094000 0.001000 0.545000 -0.999996 0.002828 -0.000001 0.001000 0.500000 1 4 1.000000
vm_depth_mask_end
  4 -3.094000 0.001000 0.545000 -0.999996 0.002828 -0.000001 0.001000 0.500000 1 4 1.000000
  4 -3.094000 0.001000 1.252000 -0.999996 0.002780 -0.000001 0.500000 0.500000 1 4 1.000000
  4 -3.094000 0.354000 0.640000 -0.999996 0.002828 -0.000001 0.067810 0.749512 1 4 1.000000
vm_depth_mask_end
  4 -3.094000 0.354000 0.640000 -0.999996 0.002828 -0.000001 0.067810 0.749512 1 4 1.000000
  4 -3.094000 0.001000 1.252000 -0.999996 0.002780 -0.000001 0.500000 0.500000 1 4 1.000000
  4 -3.094000 0.612000 0.898000 -0.999996 0.002828 -0.000001 0.250488 0.932190 1 4 1.000000
vm_depth_mask_end
  4 -3.094000 0.612000 0.898000 -0.999996 0.002828 -0.000001 0.250488 0.932190 1 4 1.000000
  4 -3.094000 0.001000 1.252000 -0.999996 0.002780 -0.000001 0.500000 0.500000 1 4 1.000000
  4 -3.094000 0.707000 1.252000 -0.999996 0.002828 -0.000001 0.500000 0.999000 1 4 1.000000
vm_depth_mask_end
  4 -3.094000 0.707000 1.252000 -0.999996 0.002828 -0.000001 0.500000 0.999000 1 4 1.000000
  4 -3.094000 0.001000 1.252000 -0.999996 0.002780 -0.000001 0.500000 0.500000 1 4 1.000000
  4 -3.094000 0.612000 1.605000 -0.999996 0.002828 -0.000001 0.749512 0.932190 1 4 1.000000
vm_depth_mask_end
  4 -3.094000 0.612000 1.605000 -0.999996 0.002828 -0.000001 0.749512 0.932190 1 4 1.000000
  4 -3.094000 0.001000 1.252000 -0.999996 0.002780 -0.000001 0.500000 0.500000 1 4 1.000000
  4 -3.094000 0.354000 1.863000 -0.999996 0.002828 -0.000001 0.932129 0.749512 1 4 1.000000
vm_depth_mask_end
  4 -3.094000 0.354000 1.863000 -0.999996 0.002828 -0.000001 0.932129 0.749512 1 4 1.000000
  4 -3.094000 0.001000 1.252000 -0.999996 0.002780 -0.000001 0.500000 0.500000 1 4 1.000000
  4 -3.094000 0.001000 1.958000 -0.999996 0.002828 -0.000001 0.999023 0.500000 1 4 1.000000
vm_depth_mask_start
  4 -3.094000 0.001000 1.958000 -0.999996 0.002828 -0.000001 0.999023 0.500000 1 4 1.000000
  4 -3.094000 0.001000 1.252000 -0.999996 0.002780 -0.000001 0.500000 0.500000 1 4 1.000000
  4 -3.094000 -0.353000 1.863000 -0.999996 0.002828 -0.000001 0.932129 0.250488 1 4 1.000000
vm_depth_mask_start
  4 -3.094000 0.001000 1.252000 -0.999996 0.002780 -0.000001 0.500000 0.500000 1 4 1.000000
  4 -3.094000 -0.611000 1.605000 -0.999996 0.002828 -0.000001 0.749512 0.067871 1 4 1.000000
  4 -3.094000 -0.353000 1.863000 -0.999996 0.002828 -0.000001 0.932129 0.250488 1 4 1.000000
vm_depth_mask_start
  4 -3.094000 -0.706000 1.252000 -0.999996 0.002828 -0.000001 0.500000 0.000977 1 4 1.000000
  4 -3.094000 -0.611000 1.605000 -0.999996 0.002828 -0.000001 0.749512 0.067871 1 4 1.000000
  4 -3.094000 0.001000 1.252000 -0.999996 0.002780 -0.000001 0.500000 0.500000 1 4 1.000000
vm_depth_mask_start
  4 -3.094000 -0.706000 1.252000 -0.999996 0.002828 -0.000001 0.500000 0.000977 1 4 1.000000
  4 -3.094000 0.001000 1.252000 -0.999996 0.002780 -0.000001 0.500000 0.500000 1 4 1.000000
  4 -3.094000 -0.611000 0.898000 -0.999996 0.002829 -0.000001 0.250488 0.067871 1 4 1.000000
vm_depth_mask_start
  4 -3.094000 -0.611000 0.898000 -0.999996 0.002829 -0.000001 0.250488 0.067871 1 4 1.000000
  4 -3.094000 0.001000 1.252000 -0.999996 0.002780 -0.000001 0.500000 0.500000 1 4 1.000000
  4 -3.094000 -0.353000 0.640000 -0.999996 0.002828 -0.000001 0.067810 0.250488 1 4 1.000000
vm_depth_mask_start
  4 -3.094000 -0.353000 0.640000 -0.999996 0.002828 -0.000001 0.067810 0.250488 1 4 1.000000
  4 -3.094000 0.001000 1.252000 -0.999996 0.002780 -0.000001 0.500000 0.500000 1 4 1.000000
  4 -3.094000 0.001000 0.545000 -0.999996 0.002828 -0.000001 0.001000 0.500000 1 4 1.000000
vm_depth_mask_start
  4 -3.094000 0.001000 0.545000 -0.999996 0.002828 -0.000001 0.001000 0.500000 1 4 1.000000
  4 -3.094000 0.001000 1.252000 -0.999996 0.002780 -0.000001 0.500000 0.500000 1 4 1.000000
  4 -3.094000 0.354000 0.640000 -0.999996 0.002828 -0.000001 0.067810 0.749512 1 4 1.000000
vm_depth_mask_start
  4 -3.094000 0.354000 0.640000 -0.999996 0.002828 -0.000001 0.067810 0.749512 1 4 1.000000
  4 -3.094000 0.001000 1.252000 -0.999996 0.002780 -0.000001 0.500000 0.500000 1 4 1.000000
  4 -3.094000 0.612000 0.898000 -0.999996 0.002828 -0.000001 0.250488 0.932190 1 4 1.000000
vm_depth_mask_start
  4 -3.094000 0.612000 0.898000 -0.999996 0.002828 -0.000001 0.250488 0.932190 1 4 1.000000
  4 -3.094000 0.001000 1.252000 -0.999996 0.002780 -0.000001 0.500000 0.500000 1 4 1.000000
  4 -3.094000 0.707000 1.252000 -0.999996 0.002828 -0.000001 0.500000 0.999000 1 4 1.000000
vm_depth_mask_start
  4 -3.094000 0.707000 1.252000 -0.999996 0.002828 -0.000001 0.500000 0.999000 1 4 1.000000
  4 -3.094000 0.001000 1.252000 -0.999996 0.002780 -0.000001 0.500000 0.500000 1 4 1.000000
  4 -3.094000 0.612000 1.605000 -0.999996 0.002828 -0.000001 0.749512 0.932190 1 4 1.000000
vm_depth_mask_start
  4 -3.094000 0.612000 1.605000 -0.999996 0.002828 -0.000001 0.749512 0.932190 1 4 1.000000
  4 -3.094000 0.001000 1.252000 -0.999996 0.002780 -0.000001 0.500000 0.500000 1 4 1.000000
  4 -3.094000 0.354000 1.863000 -0.999996 0.002828 -0.000001 0.932129 0.749512 1 4 1.000000
vm_depth_mask_start
  4 -3.094000 0.354000 1.863000 -0.999996 0.002828 -0.000001 0.932129 0.749512 1 4 1.000000
  4 -3.094000 0.001000 1.252000 -0.999996 0.002780 -0.000001 0.500000 0.500000 1 4 1.000000
  4 -3.094000 0.001000 1.958000 -0.999996 0.002828 -0.000001 0.999023 0.500000 1 4 1.000000
ads_scope_lens_1
  4 -3.096000 0.675000 1.266000 -0.973784 0.227363 0.007121 0.000000 0.513428 1 4 1.000000
  4 -3.178000 0.330000 1.257000 -0.982623 0.185511 0.006213 0.255859 0.506592 1 4 1.000000
  4 -3.096000 0.669000 1.338999 -0.973891 0.224677 0.032513 0.004398 0.567627 1 4 1.000000
ads_scope_lens_1
  4 -3.096000 0.673000 1.192999 -0.973654 0.227228 -0.019114 0.001470 0.459473 1 4 1.000000
  4 -3.178000 0.330000 1.257000 -0.982623 0.185511 0.006213 0.255859 0.506592 1 4 1.000000
  4 -3.096000 0.675000 1.266000 -0.973784 0.227363 0.007121 0.000000 0.513428 1 4 1.000000
ads_scope_lens_1
  4 -3.178000 0.329000 1.221000 -0.983037 0.182971 -0.012648 0.256592 0.479980 1 4 1.000000
  4 -3.178000 0.330000 1.257000 -0.982623 0.185511 0.006213 0.255859 0.506592 1 4 1.000000
  4 -3.096000 0.673000 1.192999 -0.973654 0.227228 -0.019114 0.001470 0.459473 1 4 1.000000
ads_scope_lens_1
  4 -3.096000 0.663000 1.121000 -0.973532 0.224313 -0.043804 0.008781 0.405762 1 4 1.000000
  4 -3.178000 0.329000 1.221000 -0.983037 0.182971 -0.012648 0.256592 0.479980 1 4 1.000000
  4 -3.096000 0.673000 1.192999 -0.973654 0.227228 -0.019114 0.001470 0.459473 1 4 1.000000
ads_scope_lens_1
  4 -3.178000 0.193000 0.979999 -0.983002 0.105228 -0.150445 0.357422 0.301758 1 4 1.000000
  4 -3.178000 0.221000 1.001999 -0.982089 0.124106 -0.141770 0.336914 0.318359 1 4 1.000000
  4 -3.096000 0.394000 0.700000 -0.972942 0.132234 -0.189467 0.208252 0.093750 1 4 1.000000
ads_scope_lens_1
  4 -3.096000 0.394000 0.700000 -0.972942 0.132234 -0.189467 0.208252 0.093750 1 4 1.000000
  4 -3.178000 0.221000 1.001999 -0.982089 0.124106 -0.141770 0.336914 0.318359 1 4 1.000000
  4 -3.096000 0.450999 0.746000 -0.973508 0.151917 -0.170888 0.166016 0.127930 1 4 1.000000
ads_scope_lens_1
  4 -3.096000 0.450999 0.746000 -0.973508 0.151917 -0.170888 0.166016 0.127930 1 4 1.000000
  4 -3.178000 0.221000 1.001999 -0.982089 0.124106 -0.141770 0.336914 0.318359 1 4 1.000000
  4 -3.096000 0.502999 0.797000 -0.974282 0.166591 -0.151728 0.127686 0.166016 1 4 1.000000
ads_scope_lens_1
  4 -3.178000 0.221000 1.001999 -0.982089 0.124106 -0.141770 0.336914 0.318359 1 4 1.000000
  4 -3.178000 0.246000 1.028000 -0.982123 0.137946 -0.128083 0.318115 0.336914 1 4 1.000000
  4 -3.096000 0.502999 0.797000 -0.974282 0.166591 -0.151728 0.127686 0.166016 1 4 1.000000
ads_scope_lens_1
  4 -3.178000 0.246000 1.028000 -0.982123 0.137946 -0.128083 0.318115 0.336914 1 4 1.000000
  4 -3.178000 0.268000 1.055000 -0.982092 0.151926 -0.111417 0.301514 0.357422 1 4 1.000000
  4 -3.096000 0.502999 0.797000 -0.974282 0.166591 -0.151728 0.127686 0.166016 1 4 1.000000
ads_scope_lens_1
  4 -3.191000 0.001000 1.248000 -0.999974 -0.006936 -0.001756 0.500000 0.500000 1 4 1.000000
  4 -3.178000 0.268000 1.055000 -0.982092 0.151926 -0.111417 0.301514 0.357422 1 4 1.000000
  4 -3.178000 0.246000 1.028000 -0.982123 0.137946 -0.128083 0.318115 0.336914 1 4 1.000000
ads_scope_lens_1
  4 -3.191000 0.001000 1.248000 -0.999974 -0.006936 -0.001756 0.500000 0.500000 1 4 1.000000
  4 -3.178000 0.288000 1.086000 -0.982688 0.160529 -0.092492 0.287354 0.379883 1 4 1.000000
  4 -3.178000 0.268000 1.055000 -0.982092 0.151926 -0.111417 0.301514 0.357422 1 4 1.000000
ads_scope_lens_1
  4 -3.178000 0.304000 1.117000 -0.982886 0.169117 -0.073038 0.275635 0.403320 1 4 1.000000
  4 -3.178000 0.288000 1.086000 -0.982688 0.160529 -0.092492 0.287354 0.379883 1 4 1.000000
  4 -3.191000 0.001000 1.248000 -0.999974 -0.006936 -0.001756 0.500000 0.500000 1 4 1.000000
ads_scope_lens_1
  4 -3.178000 0.288000 1.086000 -0.982688 0.160529 -0.092492 0.287354 0.379883 1 4 1.000000
  4 -3.178000 0.304000 1.117000 -0.982886 0.169117 -0.073038 0.275635 0.403320 1 4 1.000000
  4 -3.096000 0.588000 0.916000 -0.973155 0.199241 -0.115209 0.064575 0.253906 1 4 1.000000
ads_scope_lens_1
  4 -3.096000 0.588000 0.916000 -0.973155 0.199241 -0.115209 0.064575 0.253906 1 4 1.000000
  4 -3.178000 0.304000 1.117000 -0.982886 0.169117 -0.073038 0.275635 0.403320 1 4 1.000000
  4 -3.096000 0.620000 0.981000 -0.973407 0.210021 -0.091490 0.040527 0.302246 1 4 1.000000
ads_scope_lens_1
  4 -3.178000 0.304000 1.117000 -0.982886 0.169117 -0.073038 0.275635 0.403320 1 4 1.000000
  4 -3.096000 0.646000 1.050000 -0.974583 0.213982 -0.066327 0.021851 0.353027 1 4 1.000000
  4 -3.096000 0.620000 0.981000 -0.973407 0.210021 -0.091490 0.040527 0.302246 1 4 1.000000
ads_scope_lens_1
  4 -3.178000 0.304000 1.117000 -0.982886 0.169117 -0.073038 0.275635 0.403320 1 4 1.000000
  4 -3.178000 0.316000 1.150999 -0.983263 0.174885 -0.051085 0.266357 0.428223 1 4 1.000000
  4 -3.096000 0.646000 1.050000 -0.974583 0.213982 -0.066327 0.021851 0.353027 1 4 1.000000
ads_scope_lens_1
  4 -3.096000 0.646000 1.050000 -0.974583 0.213982 -0.066327 0.021851 0.353027 1 4 1.000000
  4 -3.178000 0.316000 1.150999 -0.983263 0.174885 -0.051085 0.266357 0.428223 1 4 1.000000
  4 -3.096000 0.663000 1.121000 -0.973532 0.224313 -0.043804 0.008781 0.405762 1 4 1.000000
ads_scope_lens_1
  4 -3.178000 0.316000 1.150999 -0.983263 0.174885 -0.051085 0.266357 0.428223 1 4 1.000000
  4 -3.178000 0.324000 1.186000 -0.982564 0.182709 -0.034424 0.260010 0.454102 1 4 1.000000
  4 -3.096000 0.663000 1.121000 -0.973532 0.224313 -0.043804 0.008781 0.405762 1 4 1.000000
ads_scope_lens_1
  4 -3.178000 0.324000 1.186000 -0.982564 0.182709 -0.034424 0.260010 0.454102 1 4 1.000000
  4 -3.178000 0.329000 1.221000 -0.983037 0.182971 -0.012648 0.256592 0.479980 1 4 1.000000
  4 -3.096000 0.663000 1.121000 -0.973532 0.224313 -0.043804 0.008781 0.405762 1 4 1.000000
ads_scope_lens_1
  4 -3.191000 0.001000 1.248000 -0.999974 -0.006936 -0.001756 0.500000 0.500000 1 4 1.000000
  4 -3.178000 0.329000 1.221000 -0.983037 0.182971 -0.012648 0.256592 0.479980 1 4 1.000000
  4 -3.178000 0.324000 1.186000 -0.982564 0.182709 -0.034424 0.260010 0.454102 1 4 1.000000
ads_scope_lens_1
  4 -3.191000 0.001000 1.248000 -0.999974 -0.006936 -0.001756 0.500000 0.500000 1 4 1.000000
  4 -3.178000 0.330000 1.257000 -0.982623 0.185511 0.006213 0.255859 0.506592 1 4 1.000000
  4 -3.178000 0.329000 1.221000 -0.983037 0.182971 -0.012648 0.256592 0.479980 1 4 1.000000
ads_scope_lens_1
  4 -3.191000 0.001000 1.248000 -0.999974 -0.006936 -0.001756 0.500000 0.500000 1 4 1.000000
  4 -3.178000 0.326999 1.292000 -0.982803 0.182876 0.025586 0.257813 0.532959 1 4 1.000000
  4 -3.178000 0.330000 1.257000 -0.982623 0.185511 0.006213 0.255859 0.506592 1 4 1.000000
ads_scope_lens_1
  4 -3.191000 0.001000 1.248000 -0.999974 -0.006936 -0.001756 0.500000 0.500000 1 4 1.000000
  4 -3.178000 0.221000 1.001999 -0.982089 0.124106 -0.141770 0.336914 0.318359 1 4 1.000000
  4 -3.178000 0.193000 0.979999 -0.983002 0.105228 -0.150445 0.357422 0.301758 1 4 1.000000
ads_scope_lens_1
  4 -3.191000 0.001000 1.248000 -0.999974 -0.006936 -0.001756 0.500000 0.500000 1 4 1.000000
  4 -3.178000 0.246000 1.028000 -0.982123 0.137946 -0.128083 0.318115 0.336914 1 4 1.000000
  4 -3.178000 0.221000 1.001999 -0.982089 0.124106 -0.141770 0.336914 0.318359 1 4 1.000000
ads_scope_lens_1
  4 -3.191000 0.001000 1.248000 -0.999974 -0.006936 -0.001756 0.500000 0.500000 1 4 1.000000
  4 -3.178000 0.316000 1.150999 -0.983263 0.174885 -0.051085 0.266357 0.428223 1 4 1.000000
  4 -3.178000 0.304000 1.117000 -0.982886 0.169117 -0.073038 0.275635 0.403320 1 4 1.000000
ads_scope_lens_1
  4 -3.191000 0.001000 1.248000 -0.999974 -0.006936 -0.001756 0.500000 0.500000 1 4 1.000000
  4 -3.178000 0.324000 1.186000 -0.982564 0.182709 -0.034424 0.260010 0.454102 1 4 1.000000
  4 -3.178000 0.316000 1.150999 -0.983263 0.174885 -0.051085 0.266357 0.428223 1 4 1.000000
ads_scope_lens_1
  4 -3.096000 0.502999 0.797000 -0.974282 0.166591 -0.151728 0.127686 0.166016 1 4 1.000000
  4 -3.178000 0.268000 1.055000 -0.982092 0.151926 -0.111417 0.301514 0.357422 1 4 1.000000
  4 -3.096000 0.549000 0.854000 -0.974156 0.182455 -0.133151 0.093750 0.208008 1 4 1.000000
ads_scope_lens_1
  4 -3.096000 0.549000 0.854000 -0.974156 0.182455 -0.133151 0.093750 0.208008 1 4 1.000000
  4 -3.178000 0.268000 1.055000 -0.982092 0.151926 -0.111417 0.301514 0.357422 1 4 1.000000
  4 -3.096000 0.588000 0.916000 -0.973155 0.199241 -0.115209 0.064575 0.253906 1 4 1.000000
ads_scope_lens_1
  4 -3.178000 0.268000 1.055000 -0.982092 0.151926 -0.111417 0.301514 0.357422 1 4 1.000000
  4 -3.178000 0.288000 1.086000 -0.982688 0.160529 -0.092492 0.287354 0.379883 1 4 1.000000
  4 -3.096000 0.588000 0.916000 -0.973155 0.199241 -0.115209 0.064575 0.253906 1 4 1.000000
ads_scope_lens_1
  4 -3.191000 0.001000 1.248000 -0.999974 -0.006936 -0.001756 0.500000 0.500000 1 4 1.000000
  4 -3.178000 0.321000 1.326999 -0.982647 0.180004 0.044767 0.262939 0.559082 1 4 1.000000
  4 -3.178000 0.326999 1.292000 -0.982803 0.182876 0.025586 0.257813 0.532959 1 4 1.000000
ads_scope_lens_1
  4 -3.191000 0.001000 1.248000 -0.999974 -0.006936 -0.001756 0.500000 0.500000 1 4 1.000000
  4 -3.178000 0.309999 1.361000 -0.982588 0.174341 0.064229 0.270752 0.584229 1 4 1.000000
  4 -3.178000 0.321000 1.326999 -0.982647 0.180004 0.044767 0.262939 0.559082 1 4 1.000000
ads_scope_lens_1
  4 -3.191000 0.001000 1.248000 -0.999974 -0.006936 -0.001756 0.500000 0.500000 1 4 1.000000
  4 -3.178000 -0.191001 1.515000 -0.981816 -0.109511 0.155064 0.642578 0.698486 1 4 1.000000
  4 -3.178000 -0.161001 1.534000 -0.982188 -0.088561 0.165721 0.620117 0.712646 1 4 1.000000
ads_scope_lens_1
  4 -3.191000 0.001000 1.248000 -0.999974 -0.006936 -0.001756 0.500000 0.500000 1 4 1.000000
  4 -3.178000 -0.205000 0.991000 -0.981975 -0.115613 -0.149531 0.652832 0.309570 1 4 1.000000
  4 -3.178000 -0.232000 1.015000 -0.981904 -0.131519 -0.136259 0.672852 0.327148 1 4 1.000000
ads_scope_lens_1
  4 -3.191000 0.001000 1.248000 -0.999974 -0.006936 -0.001756 0.500000 0.500000 1 4 1.000000
  4 -3.178000 -0.232000 1.015000 -0.981904 -0.131519 -0.136259 0.672852 0.327148 1 4 1.000000
  4 -3.178000 -0.256000 1.041000 -0.982714 -0.143218 -0.117314 0.690430 0.347168 1 4 1.000000
ads_scope_lens_1
  4 -3.191000 0.001000 1.248000 -0.999974 -0.006936 -0.001756 0.500000 0.500000 1 4 1.000000
  4 -3.178000 0.063000 0.924000 -0.982717 0.028892 -0.182845 0.453857 0.260254 1 4 1.000000
  4 -3.178000 0.028000 0.919000 -0.982092 0.012088 -0.188013 0.480225 0.256348 1 4 1.000000
ads_scope_lens_1
  4 -3.191000 0.001000 1.248000 -0.999974 -0.006936 -0.001756 0.500000 0.500000 1 4 1.000000
  4 -3.178000 0.098000 0.932999 -0.982823 0.050466 -0.177515 0.428223 0.266602 1 4 1.000000
  4 -3.178000 0.063000 0.924000 -0.982717 0.028892 -0.182845 0.453857 0.260254 1 4 1.000000
ads_scope_lens_1
  4 -3.191000 0.001000 1.248000 -0.999974 -0.006936 -0.001756 0.500000 0.500000 1 4 1.000000
  4 -3.178000 0.234000 1.480999 -0.982866 0.127136 0.133459 0.327148 0.672852 1 4 1.000000
  4 -3.178000 0.258000 1.454000 -0.982404 0.144008 0.118932 0.309570 0.653076 1 4 1.000000
ads_scope_lens_1
  4 -3.191000 0.001000 1.248000 -0.999974 -0.006936 -0.001756 0.500000 0.500000 1 4 1.000000
  4 -3.178000 0.207000 1.504000 -0.982271 0.113197 0.149432 0.346924 0.690430 1 4 1.000000
  4 -3.178000 0.234000 1.480999 -0.982866 0.127136 0.133459 0.327148 0.672852 1 4 1.000000
ads_scope_lens_1
  4 -3.178000 0.330000 1.257000 -0.982623 0.185511 0.006213 0.255859 0.506592 1 4 1.000000
  4 -3.178000 0.326999 1.292000 -0.982803 0.182876 0.025586 0.257813 0.532959 1 4 1.000000
  4 -3.096000 0.669000 1.338999 -0.973891 0.224677 0.032513 0.004398 0.567627 1 4 1.000000
ads_scope_lens_1
  4 -3.178000 0.326999 1.292000 -0.982803 0.182876 0.025586 0.257813 0.532959 1 4 1.000000
  4 -3.178000 0.321000 1.326999 -0.982647 0.180004 0.044767 0.262939 0.559082 1 4 1.000000
  4 -3.096000 0.669000 1.338999 -0.973891 0.224677 0.032513 0.004398 0.567627 1 4 1.000000
ads_scope_lens_1
  4 -3.096000 0.669000 1.338999 -0.973891 0.224677 0.032513 0.004398 0.567627 1 4 1.000000
  4 -3.178000 0.321000 1.326999 -0.982647 0.180004 0.044767 0.262939 0.559082 1 4 1.000000
  4 -3.096000 0.655000 1.410000 -0.973586 0.221683 0.054649 0.014603 0.620605 1 4 1.000000
ads_scope_lens_1
  4 -3.096000 0.655000 1.410000 -0.973586 0.221683 0.054649 0.014603 0.620605 1 4 1.000000
  4 -3.178000 0.321000 1.326999 -0.982647 0.180004 0.044767 0.262939 0.559082 1 4 1.000000
  4 -3.096000 0.634000 1.480000 -0.973749 0.213335 0.079385 0.030502 0.672607 1 4 1.000000
ads_scope_lens_1
  4 -3.178000 0.321000 1.326999 -0.982647 0.180004 0.044767 0.262939 0.559082 1 4 1.000000
  4 -3.178000 0.309999 1.361000 -0.982588 0.174341 0.064229 0.270752 0.584229 1 4 1.000000
  4 -3.096000 0.634000 1.480000 -0.973749 0.213335 0.079385 0.030502 0.672607 1 4 1.000000
ads_scope_lens_1
  4 -3.178000 0.309999 1.361000 -0.982588 0.174341 0.064229 0.270752 0.584229 1 4 1.000000
  4 -3.178000 0.296000 1.393999 -0.982991 0.163593 0.083466 0.281250 0.608643 1 4 1.000000
  4 -3.096000 0.634000 1.480000 -0.973749 0.213335 0.079385 0.030502 0.672607 1 4 1.000000
ads_scope_lens_1
  4 -3.191000 0.001000 1.248000 -0.999974 -0.006936 -0.001756 0.500000 0.500000 1 4 1.000000
  4 -3.178000 0.296000 1.393999 -0.982991 0.163593 0.083466 0.281250 0.608643 1 4 1.000000
  4 -3.178000 0.309999 1.361000 -0.982588 0.174341 0.064229 0.270752 0.584229 1 4 1.000000
ads_scope_lens_1
  4 -3.191000 0.001000 1.248000 -0.999974 -0.006936 -0.001756 0.500000 0.500000 1 4 1.000000
  4 -3.178000 0.279000 1.425000 -0.982570 0.154805 0.102915 0.294189 0.631592 1 4 1.000000
  4 -3.178000 0.296000 1.393999 -0.982991 0.163593 0.083466 0.281250 0.608643 1 4 1.000000
ads_scope_lens_1
  4 -3.191000 0.001000 1.248000 -0.999974 -0.006936 -0.001756 0.500000 0.500000 1 4 1.000000
  4 -3.178000 0.258000 1.454000 -0.982404 0.144008 0.118932 0.309570 0.653076 1 4 1.000000
  4 -3.178000 0.279000 1.425000 -0.982570 0.154805 0.102915 0.294189 0.631592 1 4 1.000000
ads_scope_lens_1
  4 -3.178000 0.279000 1.425000 -0.982570 0.154805 0.102915 0.294189 0.631592 1 4 1.000000
  4 -3.178000 0.258000 1.454000 -0.982404 0.144008 0.118932 0.309570 0.653076 1 4 1.000000
  4 -3.096000 0.569000 1.611000 -0.974243 0.188496 0.123769 0.078552 0.769409 1 4 1.000000
ads_scope_lens_1
  4 -3.096000 0.569000 1.611000 -0.974243 0.188496 0.123769 0.078552 0.769409 1 4 1.000000
  4 -3.178000 0.258000 1.454000 -0.982404 0.144008 0.118932 0.309570 0.653076 1 4 1.000000
  4 -3.096000 0.527000 1.670000 -0.974231 0.174523 0.142886 0.110168 0.813354 1 4 1.000000
ads_scope_lens_1
  4 -3.178000 0.258000 1.454000 -0.982404 0.144008 0.118932 0.309570 0.653076 1 4 1.000000
  4 -3.178000 0.234000 1.480999 -0.982866 0.127136 0.133459 0.327148 0.672852 1 4 1.000000
  4 -3.096000 0.527000 1.670000 -0.974231 0.174523 0.142886 0.110168 0.813354 1 4 1.000000
ads_scope_lens_1
  4 -3.096000 0.527000 1.670000 -0.974231 0.174523 0.142886 0.110168 0.813354 1 4 1.000000
  4 -3.178000 0.234000 1.480999 -0.982866 0.127136 0.133459 0.327148 0.672852 1 4 1.000000
  4 -3.096000 0.478000 1.725000 -0.973724 0.160404 0.161654 0.146362 0.853638 1 4 1.000000
ads_scope_lens_1
  4 -3.096000 0.478000 1.725000 -0.973724 0.160404 0.161654 0.146362 0.853638 1 4 1.000000
  4 -3.178000 0.234000 1.480999 -0.982866 0.127136 0.133459 0.327148 0.672852 1 4 1.000000
  4 -3.096000 0.423000 1.772999 -0.973084 0.142083 0.181439 0.186646 0.889832 1 4 1.000000
ads_scope_lens_1
  4 -3.178000 0.234000 1.480999 -0.982866 0.127136 0.133459 0.327148 0.672852 1 4 1.000000
  4 -3.178000 0.207000 1.504000 -0.982271 0.113197 0.149432 0.346924 0.690430 1 4 1.000000
  4 -3.096000 0.423000 1.772999 -0.973084 0.142083 0.181439 0.186646 0.889832 1 4 1.000000
ads_scope_lens_1
  4 -3.178000 0.207000 1.504000 -0.982271 0.113197 0.149432 0.346924 0.690430 1 4 1.000000
  4 -3.178000 0.178000 1.524999 -0.982700 0.097500 0.157462 0.368408 0.705811 1 4 1.000000
  4 -3.096000 0.423000 1.772999 -0.973084 0.142083 0.181439 0.186646 0.889832 1 4 1.000000
ads_scope_lens_1
  4 -3.191000 0.001000 1.248000 -0.999974 -0.006936 -0.001756 0.500000 0.500000 1 4 1.000000
  4 -3.178000 0.178000 1.524999 -0.982700 0.097500 0.157462 0.368408 0.705811 1 4 1.000000
  4 -3.178000 0.207000 1.504000 -0.982271 0.113197 0.149432 0.346924 0.690430 1 4 1.000000
ads_scope_lens_1
  4 -3.191000 0.001000 1.248000 -0.999974 -0.006936 -0.001756 0.500000 0.500000 1 4 1.000000
  4 -3.178000 0.147000 1.543000 -0.981791 0.082836 0.170954 0.391357 0.718750 1 4 1.000000
  4 -3.178000 0.178000 1.524999 -0.982700 0.097500 0.157462 0.368408 0.705811 1 4 1.000000
ads_scope_lens_1
  4 -3.096000 0.634000 1.480000 -0.973749 0.213335 0.079385 0.030502 0.672607 1 4 1.000000
  4 -3.178000 0.296000 1.393999 -0.982991 0.163593 0.083466 0.281250 0.608643 1 4 1.000000
  4 -3.096000 0.605000 1.547000 -0.974049 0.202322 0.101462 0.051910 0.722168 1 4 1.000000
ads_scope_lens_1
  4 -3.178000 0.296000 1.393999 -0.982991 0.163593 0.083466 0.281250 0.608643 1 4 1.000000
  4 -3.178000 0.279000 1.425000 -0.982570 0.154805 0.102915 0.294189 0.631592 1 4 1.000000
  4 -3.096000 0.605000 1.547000 -0.974049 0.202322 0.101462 0.051910 0.722168 1 4 1.000000
ads_scope_lens_1
  4 -3.096000 0.605000 1.547000 -0.974049 0.202322 0.101462 0.051910 0.722168 1 4 1.000000
  4 -3.178000 0.279000 1.425000 -0.982570 0.154805 0.102915 0.294189 0.631592 1 4 1.000000
  4 -3.096000 0.569000 1.611000 -0.974243 0.188496 0.123769 0.078552 0.769409 1 4 1.000000
ads_scope_lens_1
  4 -3.096000 0.423000 1.772999 -0.973084 0.142083 0.181439 0.186646 0.889832 1 4 1.000000
  4 -3.178000 0.178000 1.524999 -0.982700 0.097500 0.157462 0.368408 0.705811 1 4 1.000000
  4 -3.096000 0.364000 1.816000 -0.973654 0.119319 0.194320 0.230591 0.921448 1 4 1.000000
ads_scope_lens_1
  4 -3.178000 0.178000 1.524999 -0.982700 0.097500 0.157462 0.368408 0.705811 1 4 1.000000
  4 -3.178000 0.147000 1.543000 -0.981791 0.082836 0.170954 0.391357 0.718750 1 4 1.000000
  4 -3.096000 0.364000 1.816000 -0.973654 0.119319 0.194320 0.230591 0.921448 1 4 1.000000
ads_scope_lens_1
  4 -3.096000 0.364000 1.816000 -0.973654 0.119319 0.194320 0.230591 0.921448 1 4 1.000000
  4 -3.178000 0.147000 1.543000 -0.981791 0.082836 0.170954 0.391357 0.718750 1 4 1.000000
  4 -3.096000 0.301000 1.852000 -0.973098 0.099784 0.207660 0.277832 0.948090 1 4 1.000000
ads_scope_lens_1
  4 -3.191000 0.001000 1.248000 -0.999974 -0.006936 -0.001756 0.500000 0.500000 1 4 1.000000
  4 -3.178000 0.115000 1.557000 -0.982359 0.060570 0.176922 0.415771 0.729248 1 4 1.000000
  4 -3.178000 0.147000 1.543000 -0.981791 0.082836 0.170954 0.391357 0.718750 1 4 1.000000
ads_scope_lens_1
  4 -3.178000 0.147000 1.543000 -0.981791 0.082836 0.170954 0.391357 0.718750 1 4 1.000000
  4 -3.178000 0.115000 1.557000 -0.982359 0.060570 0.176922 0.415771 0.729248 1 4 1.000000
  4 -3.096000 0.301000 1.852000 -0.973098 0.099784 0.207660 0.277832 0.948090 1 4 1.000000
ads_scope_lens_1
  4 -3.096000 0.301000 1.852000 -0.973098 0.099784 0.207660 0.277832 0.948090 1 4 1.000000
  4 -3.178000 0.115000 1.557000 -0.982359 0.060570 0.176922 0.415771 0.729248 1 4 1.000000
  4 -3.096000 0.234000 1.881000 -0.972963 0.074662 0.218561 0.327637 0.969498 1 4 1.000000
ads_scope_lens_1
  4 -3.096000 0.234000 1.881000 -0.972963 0.074662 0.218561 0.327637 0.969498 1 4 1.000000
  4 -3.178000 0.115000 1.557000 -0.982359 0.060570 0.176922 0.415771 0.729248 1 4 1.000000
  4 -3.096000 0.164000 1.901999 -0.973154 0.052122 0.224173 0.379395 0.985397 1 4 1.000000
ads_scope_lens_1
  4 -3.178000 0.115000 1.557000 -0.982359 0.060570 0.176922 0.415771 0.729248 1 4 1.000000
  4 -3.178000 0.080000 1.567000 -0.982368 0.042030 0.182172 0.440918 0.737061 1 4 1.000000
  4 -3.096000 0.164000 1.901999 -0.973154 0.052122 0.224173 0.379395 0.985397 1 4 1.000000
ads_scope_lens_1
  4 -3.178000 0.080000 1.567000 -0.982368 0.042030 0.182172 0.440918 0.737061 1 4 1.000000
  4 -3.178000 0.045000 1.574000 -0.982068 0.020372 0.187423 0.467041 0.742188 1 4 1.000000
  4 -3.096000 0.164000 1.901999 -0.973154 0.052122 0.224173 0.379395 0.985397 1 4 1.000000
ads_scope_lens_1
  4 -3.191000 0.001000 1.248000 -0.999974 -0.006936 -0.001756 0.500000 0.500000 1 4 1.000000
  4 -3.178000 0.045000 1.574000 -0.982068 0.020372 0.187423 0.467041 0.742188 1 4 1.000000
  4 -3.178000 0.080000 1.567000 -0.982368 0.042030 0.182172 0.440918 0.737061 1 4 1.000000
ads_scope_lens_1
  4 -3.191000 0.001000 1.248000 -0.999974 -0.006936 -0.001756 0.500000 0.500000 1 4 1.000000
  4 -3.178000 0.009999 1.577000 -0.982243 -0.001572 0.187608 0.493408 0.744141 1 4 1.000000
  4 -3.178000 0.045000 1.574000 -0.982068 0.020372 0.187423 0.467041 0.742188 1 4 1.000000
ads_scope_lens_1
  4 -3.191000 0.001000 1.248000 -0.999974 -0.006936 -0.001756 0.500000 0.500000 1 4 1.000000
  4 -3.178000 -0.026000 1.576000 -0.982214 -0.009425 0.187529 0.520020 0.743408 1 4 1.000000
  4 -3.178000 0.009999 1.577000 -0.982243 -0.001572 0.187608 0.493408 0.744141 1 4 1.000000
ads_scope_lens_1
  4 -3.191000 0.001000 1.248000 -0.999974 -0.006936 -0.001756 0.500000 0.500000 1 4 1.000000
  4 -3.178000 -0.061000 1.571000 -0.982275 -0.030712 0.184911 0.545898 0.739990 1 4 1.000000
  4 -3.178000 -0.026000 1.576000 -0.982214 -0.009425 0.187529 0.520020 0.743408 1 4 1.000000
ads_scope_lens_1
  4 -3.191000 0.001000 1.248000 -0.999974 -0.006936 -0.001756 0.500000 0.500000 1 4 1.000000
  4 -3.178000 0.080000 1.567000 -0.982368 0.042030 0.182172 0.440918 0.737061 1 4 1.000000
  4 -3.178000 0.115000 1.557000 -0.982359 0.060570 0.176922 0.415771 0.729248 1 4 1.000000
ads_scope_lens_1
  4 -3.191000 0.001000 1.248000 -0.999974 -0.006936 -0.001756 0.500000 0.500000 1 4 1.000000
  4 -3.178000 -0.286000 1.410000 -0.982514 -0.160460 0.094440 0.712891 0.620361 1 4 1.000000
  4 -3.178000 -0.267000 1.440000 -0.982160 -0.151828 0.110947 0.698242 0.642578 1 4 1.000000
ads_scope_lens_1
  4 -3.191000 0.001000 1.248000 -0.999974 -0.006936 -0.001756 0.500000 0.500000 1 4 1.000000
  4 -3.178000 -0.079000 0.927999 -0.981741 -0.043615 -0.185157 0.559082 0.262695 1 4 1.000000
  4 -3.178000 -0.113000 0.937999 -0.982303 -0.061169 -0.177030 0.584473 0.270508 1 4 1.000000
ads_scope_lens_1
  4 -3.191000 0.001000 1.248000 -0.999974 -0.006936 -0.001756 0.500000 0.500000 1 4 1.000000
  4 -3.178000 -0.327000 1.274000 -0.982540 -0.185509 0.014175 0.743652 0.519775 1 4 1.000000
  4 -3.178000 -0.323000 1.309999 -0.982497 -0.182681 0.036423 0.739746 0.546143 1 4 1.000000
ads_scope_lens_1
  4 -3.191000 0.001000 1.248000 -0.999974 -0.006936 -0.001756 0.500000 0.500000 1 4 1.000000
  4 -3.178000 -0.267000 1.440000 -0.982160 -0.151828 0.110947 0.698242 0.642578 1 4 1.000000
  4 -3.178000 -0.244000 1.468000 -0.982842 -0.135767 0.124855 0.681641 0.663086 1 4 1.000000
ads_scope_lens_1
  4 -3.178000 -0.244000 1.468000 -0.982842 -0.135767 0.124855 0.681641 0.663086 1 4 1.000000
  4 -3.178000 -0.267000 1.440000 -0.982160 -0.151828 0.110947 0.698242 0.642578 1 4 1.000000
  4 -3.096000 -0.501001 1.698000 -0.972863 -0.170560 0.156351 0.872070 0.833984 1 4 1.000000
ads_scope_lens_1
  4 -3.096000 -0.501001 1.698000 -0.972863 -0.170560 0.156351 0.872070 0.833984 1 4 1.000000
  4 -3.178000 -0.267000 1.440000 -0.982160 -0.151828 0.110947 0.698242 0.642578 1 4 1.000000
  4 -3.096000 -0.547000 1.641000 -0.973445 -0.185194 0.134563 0.906250 0.791748 1 4 1.000000
ads_scope_lens_1
  4 -3.096000 -0.547000 1.641000 -0.973445 -0.185194 0.134563 0.906250 0.791748 1 4 1.000000
  4 -3.178000 -0.267000 1.440000 -0.982160 -0.151828 0.110947 0.698242 0.642578 1 4 1.000000
  4 -3.096000 -0.586000 1.579999 -0.973236 -0.198816 0.115259 0.935547 0.746094 1 4 1.000000
ads_scope_lens_1
  4 -3.178000 -0.267000 1.440000 -0.982160 -0.151828 0.110947 0.698242 0.642578 1 4 1.000000
  4 -3.178000 -0.286000 1.410000 -0.982514 -0.160460 0.094440 0.712891 0.620361 1 4 1.000000
  4 -3.096000 -0.586000 1.579999 -0.973236 -0.198816 0.115259 0.935547 0.746094 1 4 1.000000
ads_scope_lens_1
  4 -3.178000 -0.286000 1.410000 -0.982514 -0.160460 0.094440 0.712891 0.620361 1 4 1.000000
  4 -3.178000 -0.302000 1.378000 -0.982327 -0.171343 0.075335 0.724609 0.596436 1 4 1.000000
  4 -3.096000 -0.586000 1.579999 -0.973236 -0.198816 0.115259 0.935547 0.746094 1 4 1.000000
ads_scope_lens_1
  4 -3.191000 0.001000 1.248000 -0.999974 -0.006936 -0.001756 0.500000 0.500000 1 4 1.000000
  4 -3.178000 -0.302000 1.378000 -0.982327 -0.171343 0.075335 0.724609 0.596436 1 4 1.000000
  4 -3.178000 -0.286000 1.410000 -0.982514 -0.160460 0.094440 0.712891 0.620361 1 4 1.000000
ads_scope_lens_1
  4 -3.191000 0.001000 1.248000 -0.999974 -0.006936 -0.001756 0.500000 0.500000 1 4 1.000000
  4 -3.178000 -0.314000 1.343999 -0.982598 -0.177106 0.055979 0.733398 0.571777 1 4 1.000000
  4 -3.178000 -0.302000 1.378000 -0.982327 -0.171343 0.075335 0.724609 0.596436 1 4 1.000000
ads_scope_lens_1
  4 -3.191000 0.001000 1.248000 -0.999974 -0.006936 -0.001756 0.500000 0.500000 1 4 1.000000
  4 -3.178000 -0.323000 1.309999 -0.982497 -0.182681 0.036423 0.739746 0.546143 1 4 1.000000
  4 -3.178000 -0.314000 1.343999 -0.982598 -0.177106 0.055979 0.733398 0.571777 1 4 1.000000
ads_scope_lens_1
  4 -3.178000 -0.314000 1.343999 -0.982598 -0.177106 0.055979 0.733398 0.571777 1 4 1.000000
  4 -3.178000 -0.323000 1.309999 -0.982497 -0.182681 0.036423 0.739746 0.546143 1 4 1.000000
  4 -3.096000 -0.644000 1.445999 -0.973935 -0.216326 0.068222 0.978027 0.646729 1 4 1.000000
ads_scope_lens_1
  4 -3.096000 -0.644000 1.445999 -0.973935 -0.216326 0.068222 0.978027 0.646729 1 4 1.000000
  4 -3.178000 -0.323000 1.309999 -0.982497 -0.182681 0.036423 0.739746 0.546143 1 4 1.000000
  4 -3.096000 -0.661000 1.375000 -0.973519 -0.224469 0.043287 0.991211 0.594238 1 4 1.000000
ads_scope_lens_1
  4 -3.096000 -0.661000 1.375000 -0.973519 -0.224469 0.043287 0.991211 0.594238 1 4 1.000000
  4 -3.178000 -0.323000 1.309999 -0.982497 -0.182681 0.036423 0.739746 0.546143 1 4 1.000000
  4 -3.096000 -0.671000 1.302000 -0.973650 -0.227334 0.018020 0.998535 0.540527 1 4 1.000000
ads_scope_lens_1
  4 -3.178000 -0.323000 1.309999 -0.982497 -0.182681 0.036423 0.739746 0.546143 1 4 1.000000
  4 -3.178000 -0.327000 1.274000 -0.982540 -0.185509 0.014175 0.743652 0.519775 1 4 1.000000
  4 -3.096000 -0.671000 1.302000 -0.973650 -0.227334 0.018020 0.998535 0.540527 1 4 1.000000
ads_scope_lens_1
  4 -3.178000 -0.327000 1.274000 -0.982540 -0.185509 0.014175 0.743652 0.519775 1 4 1.000000
  4 -3.178000 -0.328000 1.239000 -0.982217 -0.187507 -0.009561 0.744141 0.493164 1 4 1.000000
  4 -3.096000 -0.671000 1.302000 -0.973650 -0.227334 0.018020 0.998535 0.540527 1 4 1.000000
ads_scope_lens_1
  4 -3.191000 0.001000 1.248000 -0.999974 -0.006936 -0.001756 0.500000 0.500000 1 4 1.000000
  4 -3.178000 -0.328000 1.239000 -0.982217 -0.187507 -0.009561 0.744141 0.493164 1 4 1.000000
  4 -3.178000 -0.327000 1.274000 -0.982540 -0.185509 0.014175 0.743652 0.519775 1 4 1.000000
ads_scope_lens_1
  4 -3.191000 0.001000 1.248000 -0.999974 -0.006936 -0.001756 0.500000 0.500000 1 4 1.000000
  4 -3.178000 -0.325000 1.202999 -0.982356 -0.184772 -0.028908 0.742188 0.466797 1 4 1.000000
  4 -3.178000 -0.328000 1.239000 -0.982217 -0.187507 -0.009561 0.744141 0.493164 1 4 1.000000
ads_scope_lens_1
  4 -3.191000 0.001000 1.248000 -0.999974 -0.006936 -0.001756 0.500000 0.500000 1 4 1.000000
  4 -3.178000 -0.319000 1.167999 -0.982144 -0.181886 -0.048067 0.737305 0.440918 1 4 1.000000
  4 -3.178000 -0.325000 1.202999 -0.982356 -0.184772 -0.028908 0.742188 0.466797 1 4 1.000000
ads_scope_lens_1
  4 -3.178000 -0.325000 1.202999 -0.982356 -0.184772 -0.028908 0.742188 0.466797 1 4 1.000000
  4 -3.178000 -0.319000 1.167999 -0.982144 -0.181886 -0.048067 0.737305 0.440918 1 4 1.000000
  4 -3.096000 -0.667001 1.157000 -0.973353 -0.226584 -0.035260 0.995605 0.432617 1 4 1.000000
ads_scope_lens_1
  4 -3.096000 -0.586000 1.579999 -0.973236 -0.198816 0.115259 0.935547 0.746094 1 4 1.000000
  4 -3.178000 -0.302000 1.378000 -0.982327 -0.171343 0.075335 0.724609 0.596436 1 4 1.000000
  4 -3.096000 -0.619000 1.514000 -0.974453 -0.205561 0.090474 0.959473 0.697754 1 4 1.000000
ads_scope_lens_1
  4 -3.096000 -0.619000 1.514000 -0.974453 -0.205561 0.090474 0.959473 0.697754 1 4 1.000000
  4 -3.178000 -0.302000 1.378000 -0.982327 -0.171343 0.075335 0.724609 0.596436 1 4 1.000000
  4 -3.096000 -0.644000 1.445999 -0.973935 -0.216326 0.068222 0.978027 0.646729 1 4 1.000000
ads_scope_lens_1
  4 -3.178000 -0.302000 1.378000 -0.982327 -0.171343 0.075335 0.724609 0.596436 1 4 1.000000
  4 -3.178000 -0.314000 1.343999 -0.982598 -0.177106 0.055979 0.733398 0.571777 1 4 1.000000
  4 -3.096000 -0.644000 1.445999 -0.973935 -0.216326 0.068222 0.978027 0.646729 1 4 1.000000
ads_scope_lens_1
  4 -3.096000 -0.671000 1.302000 -0.973650 -0.227334 0.018020 0.998535 0.540527 1 4 1.000000
  4 -3.178000 -0.328000 1.239000 -0.982217 -0.187507 -0.009561 0.744141 0.493164 1 4 1.000000
  4 -3.096000 -0.673000 1.229000 -0.973898 -0.226929 -0.005007 1.000000 0.486328 1 4 1.000000
ads_scope_lens_1
  4 -3.096000 -0.673000 1.229000 -0.973898 -0.226929 -0.005007 1.000000 0.486328 1 4 1.000000
  4 -3.178000 -0.328000 1.239000 -0.982217 -0.187507 -0.009561 0.744141 0.493164 1 4 1.000000
  4 -3.096000 -0.667001 1.157000 -0.973353 -0.226584 -0.035260 0.995605 0.432617 1 4 1.000000
ads_scope_lens_1
  4 -3.178000 -0.328000 1.239000 -0.982217 -0.187507 -0.009561 0.744141 0.493164 1 4 1.000000
  4 -3.178000 -0.325000 1.202999 -0.982356 -0.184772 -0.028908 0.742188 0.466797 1 4 1.000000
  4 -3.096000 -0.667001 1.157000 -0.973353 -0.226584 -0.035260 0.995605 0.432617 1 4 1.000000
ads_scope_lens_1
  4 -3.191000 0.001000 1.248000 -0.999974 -0.006936 -0.001756 0.500000 0.500000 1 4 1.000000
  4 -3.178000 -0.308000 1.134000 -0.982637 -0.173925 -0.064613 0.729492 0.415527 1 4 1.000000
  4 -3.178000 -0.319000 1.167999 -0.982144 -0.181886 -0.048067 0.737305 0.440918 1 4 1.000000
ads_scope_lens_1
  4 -3.096000 -0.392001 1.795000 -0.973369 -0.129694 0.189032 0.791992 0.906250 1 4 1.000000
  4 -3.178000 -0.219000 1.493000 -0.982173 -0.123980 0.141300 0.663086 0.681885 1 4 1.000000
  4 -3.096000 -0.449001 1.750000 -0.973231 -0.151304 0.172998 0.833984 0.872314 1 4 1.000000
ads_scope_lens_1
  4 -3.178000 -0.219000 1.493000 -0.982173 -0.123980 0.141300 0.663086 0.681885 1 4 1.000000
  4 -3.178000 -0.244000 1.468000 -0.982842 -0.135767 0.124855 0.681641 0.663086 1 4 1.000000
  4 -3.096000 -0.449001 1.750000 -0.973231 -0.151304 0.172998 0.833984 0.872314 1 4 1.000000
ads_scope_lens_1
  4 -3.096000 -0.449001 1.750000 -0.973231 -0.151304 0.172998 0.833984 0.872314 1 4 1.000000
  4 -3.178000 -0.244000 1.468000 -0.982842 -0.135767 0.124855 0.681641 0.663086 1 4 1.000000
  4 -3.096000 -0.501001 1.698000 -0.972863 -0.170560 0.156351 0.872070 0.833984 1 4 1.000000
ads_scope_lens_1
  4 -3.096000 -0.667001 1.157000 -0.973353 -0.226584 -0.035260 0.995605 0.432617 1 4 1.000000
  4 -3.178000 -0.319000 1.167999 -0.982144 -0.181886 -0.048067 0.737305 0.440918 1 4 1.000000
  4 -3.096000 -0.654000 1.085000 -0.973406 -0.221020 -0.060249 0.985352 0.379395 1 4 1.000000
ads_scope_lens_1
  4 -3.096000 -0.654000 1.085000 -0.973406 -0.221020 -0.060249 0.985352 0.379395 1 4 1.000000
  4 -3.178000 -0.319000 1.167999 -0.982144 -0.181886 -0.048067 0.737305 0.440918 1 4 1.000000
  4 -3.096000 -0.632001 1.015000 -0.973121 -0.214906 -0.082764 0.969727 0.327637 1 4 1.000000
ads_scope_lens_1
  4 -3.178000 -0.319000 1.167999 -0.982144 -0.181886 -0.048067 0.737305 0.440918 1 4 1.000000
  4 -3.178000 -0.308000 1.134000 -0.982637 -0.173925 -0.064613 0.729492 0.415527 1 4 1.000000
  4 -3.096000 -0.632001 1.015000 -0.973121 -0.214906 -0.082764 0.969727 0.327637 1 4 1.000000
ads_scope_lens_1
  4 -3.178000 -0.308000 1.134000 -0.982637 -0.173925 -0.064613 0.729492 0.415527 1 4 1.000000
  4 -3.178000 -0.294000 1.100999 -0.982405 -0.165395 -0.086745 0.718750 0.391602 1 4 1.000000
  4 -3.096000 -0.632001 1.015000 -0.973121 -0.214906 -0.082764 0.969727 0.327637 1 4 1.000000
ads_scope_lens_1
  4 -3.191000 0.001000 1.248000 -0.999974 -0.006936 -0.001756 0.500000 0.500000 1 4 1.000000
  4 -3.178000 -0.294000 1.100999 -0.982405 -0.165395 -0.086745 0.718750 0.391602 1 4 1.000000
  4 -3.178000 -0.308000 1.134000 -0.982637 -0.173925 -0.064613 0.729492 0.415527 1 4 1.000000
ads_scope_lens_1
  4 -3.191000 0.001000 1.248000 -0.999974 -0.006936 -0.001756 0.500000 0.500000 1 4 1.000000
  4 -3.178000 -0.277000 1.070000 -0.981963 -0.156483 -0.106117 0.706055 0.368652 1 4 1.000000
  4 -3.178000 -0.294000 1.100999 -0.982405 -0.165395 -0.086745 0.718750 0.391602 1 4 1.000000
ads_scope_lens_1
  4 -3.191000 0.001000 1.248000 -0.999974 -0.006936 -0.001756 0.500000 0.500000 1 4 1.000000
  4 -3.178000 -0.256000 1.041000 -0.982714 -0.143218 -0.117314 0.690430 0.347168 1 4 1.000000
  4 -3.178000 -0.277000 1.070000 -0.981963 -0.156483 -0.106117 0.706055 0.368652 1 4 1.000000
ads_scope_lens_1
  4 -3.178000 -0.277000 1.070000 -0.981963 -0.156483 -0.106117 0.706055 0.368652 1 4 1.000000
  4 -3.178000 -0.256000 1.041000 -0.982714 -0.143218 -0.117314 0.690430 0.347168 1 4 1.000000
  4 -3.096000 -0.567000 0.884000 -0.973830 -0.190366 -0.124161 0.921387 0.230469 1 4 1.000000
ads_scope_lens_1
  4 -3.096000 -0.567000 0.884000 -0.973830 -0.190366 -0.124161 0.921387 0.230469 1 4 1.000000
  4 -3.178000 -0.256000 1.041000 -0.982714 -0.143218 -0.117314 0.690430 0.347168 1 4 1.000000
  4 -3.096000 -0.525000 0.825000 -0.973808 -0.176519 -0.143313 0.889648 0.186523 1 4 1.000000
ads_scope_lens_1
  4 -3.096000 -0.525000 0.825000 -0.973808 -0.176519 -0.143313 0.889648 0.186523 1 4 1.000000
  4 -3.178000 -0.256000 1.041000 -0.982714 -0.143218 -0.117314 0.690430 0.347168 1 4 1.000000
  4 -3.096000 -0.476001 0.771000 -0.972941 -0.161394 -0.165339 0.853516 0.146484 1 4 1.000000
ads_scope_lens_1
  4 -3.178000 -0.256000 1.041000 -0.982714 -0.143218 -0.117314 0.690430 0.347168 1 4 1.000000
  4 -3.178000 -0.232000 1.015000 -0.981904 -0.131519 -0.136259 0.672852 0.327148 1 4 1.000000
  4 -3.096000 -0.476001 0.771000 -0.972941 -0.161394 -0.165339 0.853516 0.146484 1 4 1.000000
ads_scope_lens_1
  4 -3.096000 -0.476001 0.771000 -0.972941 -0.161394 -0.165339 0.853516 0.146484 1 4 1.000000
  4 -3.178000 -0.232000 1.015000 -0.981904 -0.131519 -0.136259 0.672852 0.327148 1 4 1.000000
  4 -3.096000 -0.422000 0.721999 -0.972593 -0.142388 -0.183817 0.813477 0.110352 1 4 1.000000
ads_scope_lens_1
  4 -3.178000 -0.232000 1.015000 -0.981904 -0.131519 -0.136259 0.672852 0.327148 1 4 1.000000
  4 -3.178000 -0.205000 0.991000 -0.981975 -0.115613 -0.149531 0.652832 0.309570 1 4 1.000000
  4 -3.096000 -0.422000 0.721999 -0.972593 -0.142388 -0.183817 0.813477 0.110352 1 4 1.000000
ads_scope_lens_1
  4 -3.178000 -0.205000 0.991000 -0.981975 -0.115613 -0.149531 0.652832 0.309570 1 4 1.000000
  4 -3.178000 -0.176001 0.969999 -0.982041 -0.098652 -0.160819 0.631348 0.293945 1 4 1.000000
  4 -3.096000 -0.422000 0.721999 -0.972593 -0.142388 -0.183817 0.813477 0.110352 1 4 1.000000
ads_scope_lens_1
  4 -3.191000 0.001000 1.248000 -0.999974 -0.006936 -0.001756 0.500000 0.500000 1 4 1.000000
  4 -3.178000 -0.176001 0.969999 -0.982041 -0.098652 -0.160819 0.631348 0.293945 1 4 1.000000
  4 -3.178000 -0.205000 0.991000 -0.981975 -0.115613 -0.149531 0.652832 0.309570 1 4 1.000000
ads_scope_lens_1
  4 -3.191000 0.001000 1.248000 -0.999974 -0.006936 -0.001756 0.500000 0.500000 1 4 1.000000
  4 -3.178000 -0.145000 0.953000 -0.982364 -0.079996 -0.169003 0.608398 0.281250 1 4 1.000000
  4 -3.178000 -0.176001 0.969999 -0.982041 -0.098652 -0.160819 0.631348 0.293945 1 4 1.000000
ads_scope_lens_1
  4 -3.191000 0.001000 1.248000 -0.999974 -0.006936 -0.001756 0.500000 0.500000 1 4 1.000000
  4 -3.178000 -0.113000 0.937999 -0.982303 -0.061169 -0.177030 0.584473 0.270508 1 4 1.000000
  4 -3.178000 -0.145000 0.953000 -0.982364 -0.079996 -0.169003 0.608398 0.281250 1 4 1.000000
ads_scope_lens_1
  4 -3.178000 -0.145000 0.953000 -0.982364 -0.079996 -0.169003 0.608398 0.281250 1 4 1.000000
  4 -3.178000 -0.113000 0.937999 -0.982303 -0.061169 -0.177030 0.584473 0.270508 1 4 1.000000
  4 -3.096000 -0.299000 0.643000 -0.973079 -0.097518 -0.208822 0.722168 0.051758 1 4 1.000000
ads_scope_lens_1
  4 -3.096000 -0.422000 0.721999 -0.972593 -0.142388 -0.183817 0.813477 0.110352 1 4 1.000000
  4 -3.178000 -0.176001 0.969999 -0.982041 -0.098652 -0.160819 0.631348 0.293945 1 4 1.000000
  4 -3.096000 -0.362001 0.679000 -0.972861 -0.120672 -0.197435 0.769531 0.078613 1 4 1.000000
ads_scope_lens_1
  4 -3.096000 -0.362001 0.679000 -0.972861 -0.120672 -0.197435 0.769531 0.078613 1 4 1.000000
  4 -3.178000 -0.176001 0.969999 -0.982041 -0.098652 -0.160819 0.631348 0.293945 1 4 1.000000
  4 -3.096000 -0.299000 0.643000 -0.973079 -0.097518 -0.208822 0.722168 0.051758 1 4 1.000000
ads_scope_lens_1
  4 -3.178000 -0.176001 0.969999 -0.982041 -0.098652 -0.160819 0.631348 0.293945 1 4 1.000000
  4 -3.178000 -0.145000 0.953000 -0.982364 -0.079996 -0.169003 0.608398 0.281250 1 4 1.000000
  4 -3.096000 -0.299000 0.643000 -0.973079 -0.097518 -0.208822 0.722168 0.051758 1 4 1.000000
ads_scope_lens_1
  4 -3.096000 -0.632001 1.015000 -0.973121 -0.214906 -0.082764 0.969727 0.327637 1 4 1.000000
  4 -3.178000 -0.294000 1.100999 -0.982405 -0.165395 -0.086745 0.718750 0.391602 1 4 1.000000
  4 -3.096000 -0.603000 0.948000 -0.973365 -0.203922 -0.104771 0.948242 0.277832 1 4 1.000000
ads_scope_lens_1
  4 -3.178000 -0.294000 1.100999 -0.982405 -0.165395 -0.086745 0.718750 0.391602 1 4 1.000000
  4 -3.178000 -0.277000 1.070000 -0.981963 -0.156483 -0.106117 0.706055 0.368652 1 4 1.000000
  4 -3.096000 -0.603000 0.948000 -0.973365 -0.203922 -0.104771 0.948242 0.277832 1 4 1.000000
ads_scope_lens_1
  4 -3.096000 -0.603000 0.948000 -0.973365 -0.203922 -0.104771 0.948242 0.277832 1 4 1.000000
  4 -3.178000 -0.277000 1.070000 -0.981963 -0.156483 -0.106117 0.706055 0.368652 1 4 1.000000
  4 -3.096000 -0.567000 0.884000 -0.973830 -0.190366 -0.124161 0.921387 0.230469 1 4 1.000000
ads_scope_lens_1
  4 -3.096000 -0.299000 0.643000 -0.973079 -0.097518 -0.208822 0.722168 0.051758 1 4 1.000000
  4 -3.178000 -0.113000 0.937999 -0.982303 -0.061169 -0.177030 0.584473 0.270508 1 4 1.000000
  4 -3.096000 -0.232000 0.615000 -0.972713 -0.078096 -0.218472 0.672363 0.030273 1 4 1.000000
ads_scope_lens_1
  4 -3.096000 -0.232000 0.615000 -0.972713 -0.078096 -0.218472 0.672363 0.030273 1 4 1.000000
  4 -3.178000 -0.113000 0.937999 -0.982303 -0.061169 -0.177030 0.584473 0.270508 1 4 1.000000
  4 -3.096000 -0.162000 0.592999 -0.972515 -0.051691 -0.227028 0.620605 0.014648 1 4 1.000000
ads_scope_lens_1
  4 -3.178000 -0.113000 0.937999 -0.982303 -0.061169 -0.177030 0.584473 0.270508 1 4 1.000000
  4 -3.178000 -0.079000 0.927999 -0.981741 -0.043615 -0.185157 0.559082 0.262695 1 4 1.000000
  4 -3.096000 -0.162000 0.592999 -0.972515 -0.051691 -0.227028 0.620605 0.014648 1 4 1.000000
ads_scope_lens_1
  4 -3.178000 -0.079000 0.927999 -0.981741 -0.043615 -0.185157 0.559082 0.262695 1 4 1.000000
  4 -3.178000 -0.044000 0.921000 -0.981456 -0.021990 -0.190422 0.533203 0.257813 1 4 1.000000
  4 -3.096000 -0.162000 0.592999 -0.972515 -0.051691 -0.227028 0.620605 0.014648 1 4 1.000000
ads_scope_lens_1
  4 -3.191000 0.001000 1.248000 -0.999974 -0.006936 -0.001756 0.500000 0.500000 1 4 1.000000
  4 -3.178000 -0.044000 0.921000 -0.981456 -0.021990 -0.190422 0.533203 0.257813 1 4 1.000000
  4 -3.178000 -0.079000 0.927999 -0.981741 -0.043615 -0.185157 0.559082 0.262695 1 4 1.000000
ads_scope_lens_1
  4 -3.191000 0.001000 1.248000 -0.999974 -0.006936 -0.001756 0.500000 0.500000 1 4 1.000000
  4 -3.178000 -0.008000 0.918000 -0.981681 -0.000077 -0.190532 0.506836 0.255859 1 4 1.000000
  4 -3.178000 -0.044000 0.921000 -0.981456 -0.021990 -0.190422 0.533203 0.257813 1 4 1.000000
ads_scope_lens_1
  4 -3.191000 0.001000 1.248000 -0.999974 -0.006936 -0.001756 0.500000 0.500000 1 4 1.000000
  4 -3.178000 0.028000 0.919000 -0.982092 0.012088 -0.188013 0.480225 0.256348 1 4 1.000000
  4 -3.178000 -0.008000 0.918000 -0.981681 -0.000077 -0.190532 0.506836 0.255859 1 4 1.000000
ads_scope_lens_1
  4 -3.178000 -0.008000 0.918000 -0.981681 -0.000077 -0.190532 0.506836 0.255859 1 4 1.000000
  4 -3.178000 0.028000 0.919000 -0.982092 0.012088 -0.188013 0.480225 0.256348 1 4 1.000000
  4 -3.096000 0.056000 0.575000 -0.973711 0.013300 -0.227397 0.459473 0.001465 1 4 1.000000
ads_scope_lens_1
  4 -3.096000 0.056000 0.575000 -0.973711 0.013300 -0.227397 0.459473 0.001465 1 4 1.000000
  4 -3.178000 0.028000 0.919000 -0.982092 0.012088 -0.188013 0.480225 0.256348 1 4 1.000000
  4 -3.096000 0.128000 0.585000 -0.973712 0.037922 -0.224602 0.405762 0.008789 1 4 1.000000
ads_scope_lens_1
  4 -3.178000 0.028000 0.919000 -0.982092 0.012088 -0.188013 0.480225 0.256348 1 4 1.000000
  4 -3.178000 0.063000 0.924000 -0.982717 0.028892 -0.182845 0.453857 0.260254 1 4 1.000000
  4 -3.096000 0.128000 0.585000 -0.973712 0.037922 -0.224602 0.405762 0.008789 1 4 1.000000
ads_scope_lens_1
  4 -3.096000 0.128000 0.585000 -0.973712 0.037922 -0.224602 0.405762 0.008789 1 4 1.000000
  4 -3.178000 0.063000 0.924000 -0.982717 0.028892 -0.182845 0.453857 0.260254 1 4 1.000000
  4 -3.096000 0.199000 0.602999 -0.972986 0.064885 -0.221559 0.353271 0.021973 1 4 1.000000
ads_scope_lens_1
  4 -3.178000 0.063000 0.924000 -0.982717 0.028892 -0.182845 0.453857 0.260254 1 4 1.000000
  4 -3.178000 0.098000 0.932999 -0.982823 0.050466 -0.177515 0.428223 0.266602 1 4 1.000000
  4 -3.096000 0.199000 0.602999 -0.972986 0.064885 -0.221559 0.353271 0.021973 1 4 1.000000
ads_scope_lens_1
  4 -3.178000 0.098000 0.932999 -0.982823 0.050466 -0.177515 0.428223 0.266602 1 4 1.000000
  4 -3.178000 0.131000 0.944999 -0.982643 0.069425 -0.172027 0.403564 0.275391 1 4 1.000000
  4 -3.096000 0.199000 0.602999 -0.972986 0.064885 -0.221559 0.353271 0.021973 1 4 1.000000
ads_scope_lens_1
  4 -3.191000 0.001000 1.248000 -0.999974 -0.006936 -0.001756 0.500000 0.500000 1 4 1.000000
  4 -3.178000 0.131000 0.944999 -0.982643 0.069425 -0.172027 0.403564 0.275391 1 4 1.000000
  4 -3.178000 0.098000 0.932999 -0.982823 0.050466 -0.177515 0.428223 0.266602 1 4 1.000000
ads_scope_lens_1
  4 -3.191000 0.001000 1.248000 -0.999974 -0.006936 -0.001756 0.500000 0.500000 1 4 1.000000
  4 -3.178000 0.163000 0.961000 -0.982287 0.091071 -0.163763 0.379639 0.287109 1 4 1.000000
  4 -3.178000 0.131000 0.944999 -0.982643 0.069425 -0.172027 0.403564 0.275391 1 4 1.000000
ads_scope_lens_1
  4 -3.191000 0.001000 1.248000 -0.999974 -0.006936 -0.001756 0.500000 0.500000 1 4 1.000000
  4 -3.178000 0.193000 0.979999 -0.983002 0.105228 -0.150445 0.357422 0.301758 1 4 1.000000
  4 -3.178000 0.163000 0.961000 -0.982287 0.091071 -0.163763 0.379639 0.287109 1 4 1.000000
ads_scope_lens_1
  4 -3.178000 0.163000 0.961000 -0.982287 0.091071 -0.163763 0.379639 0.287109 1 4 1.000000
  4 -3.178000 0.193000 0.979999 -0.983002 0.105228 -0.150445 0.357422 0.301758 1 4 1.000000
  4 -3.096000 0.333000 0.661000 -0.974160 0.108595 -0.198038 0.253906 0.064453 1 4 1.000000
ads_scope_lens_1
  4 -3.096000 0.333000 0.661000 -0.974160 0.108595 -0.198038 0.253906 0.064453 1 4 1.000000
  4 -3.178000 0.193000 0.979999 -0.983002 0.105228 -0.150445 0.357422 0.301758 1 4 1.000000
  4 -3.096000 0.394000 0.700000 -0.972942 0.132234 -0.189467 0.208252 0.093750 1 4 1.000000
ads_scope_lens_1
  4 -3.096000 0.199000 0.602999 -0.972986 0.064885 -0.221559 0.353271 0.021973 1 4 1.000000
  4 -3.178000 0.131000 0.944999 -0.982643 0.069425 -0.172027 0.403564 0.275391 1 4 1.000000
  4 -3.096000 0.267000 0.627999 -0.974135 0.086404 -0.208797 0.302246 0.040527 1 4 1.000000
ads_scope_lens_1
  4 -3.096000 0.267000 0.627999 -0.974135 0.086404 -0.208797 0.302246 0.040527 1 4 1.000000
  4 -3.178000 0.131000 0.944999 -0.982643 0.069425 -0.172027 0.403564 0.275391 1 4 1.000000
  4 -3.096000 0.333000 0.661000 -0.974160 0.108595 -0.198038 0.253906 0.064453 1 4 1.000000
ads_scope_lens_1
  4 -3.178000 0.131000 0.944999 -0.982643 0.069425 -0.172027 0.403564 0.275391 1 4 1.000000
  4 -3.178000 0.163000 0.961000 -0.982287 0.091071 -0.163763 0.379639 0.287109 1 4 1.000000
  4 -3.096000 0.333000 0.661000 -0.974160 0.108595 -0.198038 0.253906 0.064453 1 4 1.000000
ads_scope_lens_1
  4 -3.096000 -0.017000 0.573000 -0.972647 -0.003735 -0.232258 0.513672 0.000000 1 4 1.000000
  4 -3.178000 -0.008000 0.918000 -0.981681 -0.000077 -0.190532 0.506836 0.255859 1 4 1.000000
  4 -3.096000 0.056000 0.575000 -0.973711 0.013300 -0.227397 0.459473 0.001465 1 4 1.000000
ads_scope_lens_1
  4 -3.096000 -0.090000 0.579000 -0.972275 -0.027843 -0.232175 0.567383 0.004395 1 4 1.000000
  4 -3.178000 -0.008000 0.918000 -0.981681 -0.000077 -0.190532 0.506836 0.255859 1 4 1.000000
  4 -3.096000 -0.017000 0.573000 -0.972647 -0.003735 -0.232258 0.513672 0.000000 1 4 1.000000
ads_scope_lens_1
  4 -3.178000 -0.044000 0.921000 -0.981456 -0.021990 -0.190422 0.533203 0.257813 1 4 1.000000
  4 -3.178000 -0.008000 0.918000 -0.981681 -0.000077 -0.190532 0.506836 0.255859 1 4 1.000000
  4 -3.096000 -0.090000 0.579000 -0.972275 -0.027843 -0.232175 0.567383 0.004395 1 4 1.000000
ads_scope_lens_1
  4 -3.096000 -0.162000 0.592999 -0.972515 -0.051691 -0.227028 0.620605 0.014648 1 4 1.000000
  4 -3.178000 -0.044000 0.921000 -0.981456 -0.021990 -0.190422 0.533203 0.257813 1 4 1.000000
  4 -3.096000 -0.090000 0.579000 -0.972275 -0.027843 -0.232175 0.567383 0.004395 1 4 1.000000
ads_scope_lens_1
  4 -3.096000 0.164000 1.901999 -0.973154 0.052122 0.224173 0.379395 0.985397 1 4 1.000000
  4 -3.178000 0.045000 1.574000 -0.982068 0.020372 0.187423 0.467041 0.742188 1 4 1.000000
  4 -3.096000 0.092000 1.916000 -0.972949 0.028767 0.229222 0.432373 0.995602 1 4 1.000000
ads_scope_lens_1
  4 -3.178000 0.045000 1.574000 -0.982068 0.020372 0.187423 0.467041 0.742188 1 4 1.000000
  4 -3.178000 0.009999 1.577000 -0.982243 -0.001572 0.187608 0.493408 0.744141 1 4 1.000000
  4 -3.096000 0.092000 1.916000 -0.972949 0.028767 0.229222 0.432373 0.995602 1 4 1.000000
ads_scope_lens_1
  4 -3.096000 0.092000 1.916000 -0.972949 0.028767 0.229222 0.432373 0.995602 1 4 1.000000
  4 -3.178000 0.009999 1.577000 -0.982243 -0.001572 0.187608 0.493408 0.744141 1 4 1.000000
  4 -3.096000 0.019000 1.922000 -0.972753 0.001548 0.231839 0.486572 1.000000 1 4 1.000000
ads_scope_lens_1
  4 -3.096000 0.019000 1.922000 -0.972753 0.001548 0.231839 0.486572 1.000000 1 4 1.000000
  4 -3.178000 0.009999 1.577000 -0.982243 -0.001572 0.187608 0.493408 0.744141 1 4 1.000000
  4 -3.096000 -0.054000 1.920000 -0.973254 -0.013217 0.229349 0.540527 0.998530 1 4 1.000000
ads_scope_lens_1
  4 -3.178000 0.009999 1.577000 -0.982243 -0.001572 0.187608 0.493408 0.744141 1 4 1.000000
  4 -3.178000 -0.026000 1.576000 -0.982214 -0.009425 0.187529 0.520020 0.743408 1 4 1.000000
  4 -3.096000 -0.054000 1.920000 -0.973254 -0.013217 0.229349 0.540527 0.998530 1 4 1.000000
ads_scope_lens_1
  4 -3.096000 -0.054000 1.920000 -0.973254 -0.013217 0.229349 0.540527 0.998530 1 4 1.000000
  4 -3.178000 -0.026000 1.576000 -0.982214 -0.009425 0.187529 0.520020 0.743408 1 4 1.000000
  4 -3.096000 -0.126000 1.910000 -0.973167 -0.040276 0.226548 0.594238 0.991219 1 4 1.000000
ads_scope_lens_1
  4 -3.178000 -0.026000 1.576000 -0.982214 -0.009425 0.187529 0.520020 0.743408 1 4 1.000000
  4 -3.178000 -0.061000 1.571000 -0.982275 -0.030712 0.184911 0.545898 0.739990 1 4 1.000000
  4 -3.096000 -0.126000 1.910000 -0.973167 -0.040276 0.226548 0.594238 0.991219 1 4 1.000000
ads_scope_lens_1
  4 -3.178000 -0.061000 1.571000 -0.982275 -0.030712 0.184911 0.545898 0.739990 1 4 1.000000
  4 -3.178000 -0.096000 1.563000 -0.982473 -0.050342 0.179477 0.571777 0.733643 1 4 1.000000
  4 -3.096000 -0.126000 1.910000 -0.973167 -0.040276 0.226548 0.594238 0.991219 1 4 1.000000
ads_scope_lens_1
  4 -3.191000 0.001000 1.248000 -0.999974 -0.006936 -0.001756 0.500000 0.500000 1 4 1.000000
  4 -3.178000 -0.096000 1.563000 -0.982473 -0.050342 0.179477 0.571777 0.733643 1 4 1.000000
  4 -3.178000 -0.061000 1.571000 -0.982275 -0.030712 0.184911 0.545898 0.739990 1 4 1.000000
ads_scope_lens_1
  4 -3.191000 0.001000 1.248000 -0.999974 -0.006936 -0.001756 0.500000 0.500000 1 4 1.000000
  4 -3.178000 -0.129001 1.549999 -0.982304 -0.069791 0.173805 0.596680 0.724365 1 4 1.000000
  4 -3.178000 -0.096000 1.563000 -0.982473 -0.050342 0.179477 0.571777 0.733643 1 4 1.000000
ads_scope_lens_1
  4 -3.191000 0.001000 1.248000 -0.999974 -0.006936 -0.001756 0.500000 0.500000 1 4 1.000000
  4 -3.178000 -0.161001 1.534000 -0.982188 -0.088561 0.165721 0.620117 0.712646 1 4 1.000000
  4 -3.178000 -0.129001 1.549999 -0.982304 -0.069791 0.173805 0.596680 0.724365 1 4 1.000000
ads_scope_lens_1
  4 -3.178000 -0.129001 1.549999 -0.982304 -0.069791 0.173805 0.596680 0.724365 1 4 1.000000
  4 -3.178000 -0.161001 1.534000 -0.982188 -0.088561 0.165721 0.620117 0.712646 1 4 1.000000
  4 -3.096000 -0.266000 1.867000 -0.973007 -0.089226 0.212829 0.697754 0.959473 1 4 1.000000
ads_scope_lens_1
  4 -3.096000 -0.266000 1.867000 -0.973007 -0.089226 0.212829 0.697754 0.959473 1 4 1.000000
  4 -3.178000 -0.161001 1.534000 -0.982188 -0.088561 0.165721 0.620117 0.712646 1 4 1.000000
  4 -3.096000 -0.331000 1.835000 -0.973544 -0.110756 0.199862 0.746094 0.935425 1 4 1.000000
ads_scope_lens_1
  4 -3.096000 -0.331000 1.835000 -0.973544 -0.110756 0.199862 0.746094 0.935425 1 4 1.000000
  4 -3.178000 -0.161001 1.534000 -0.982188 -0.088561 0.165721 0.620117 0.712646 1 4 1.000000
  4 -3.096000 -0.392001 1.795000 -0.973369 -0.129694 0.189032 0.791992 0.906250 1 4 1.000000
ads_scope_lens_1
  4 -3.178000 -0.161001 1.534000 -0.982188 -0.088561 0.165721 0.620117 0.712646 1 4 1.000000
  4 -3.178000 -0.191001 1.515000 -0.981816 -0.109511 0.155064 0.642578 0.698486 1 4 1.000000
  4 -3.096000 -0.392001 1.795000 -0.973369 -0.129694 0.189032 0.791992 0.906250 1 4 1.000000
ads_scope_lens_1
  4 -3.178000 -0.191001 1.515000 -0.981816 -0.109511 0.155064 0.642578 0.698486 1 4 1.000000
  4 -3.178000 -0.219000 1.493000 -0.982173 -0.123980 0.141300 0.663086 0.681885 1 4 1.000000
  4 -3.096000 -0.392001 1.795000 -0.973369 -0.129694 0.189032 0.791992 0.906250 1 4 1.000000
ads_scope_lens_1
  4 -3.191000 0.001000 1.248000 -0.999974 -0.006936 -0.001756 0.500000 0.500000 1 4 1.000000
  4 -3.178000 -0.219000 1.493000 -0.982173 -0.123980 0.141300 0.663086 0.681885 1 4 1.000000
  4 -3.178000 -0.191001 1.515000 -0.981816 -0.109511 0.155064 0.642578 0.698486 1 4 1.000000
ads_scope_lens_1
  4 -3.191000 0.001000 1.248000 -0.999974 -0.006936 -0.001756 0.500000 0.500000 1 4 1.000000
  4 -3.178000 -0.244000 1.468000 -0.982842 -0.135767 0.124855 0.681641 0.663086 1 4 1.000000
  4 -3.178000 -0.219000 1.493000 -0.982173 -0.123980 0.141300 0.663086 0.681885 1 4 1.000000
ads_scope_lens_1
  4 -3.096000 -0.126000 1.910000 -0.973167 -0.040276 0.226548 0.594238 0.991219 1 4 1.000000
  4 -3.178000 -0.096000 1.563000 -0.982473 -0.050342 0.179477 0.571777 0.733643 1 4 1.000000
  4 -3.096000 -0.197000 1.891999 -0.973107 -0.063526 0.221421 0.646973 0.978149 1 4 1.000000
ads_scope_lens_1
  4 -3.096000 -0.197000 1.891999 -0.973107 -0.063526 0.221421 0.646973 0.978149 1 4 1.000000
  4 -3.178000 -0.096000 1.563000 -0.982473 -0.050342 0.179477 0.571777 0.733643 1 4 1.000000
  4 -3.096000 -0.266000 1.867000 -0.973007 -0.089226 0.212829 0.697754 0.959473 1 4 1.000000
ads_scope_lens_1
  4 -3.178000 -0.096000 1.563000 -0.982473 -0.050342 0.179477 0.571777 0.733643 1 4 1.000000
  4 -3.178000 -0.129001 1.549999 -0.982304 -0.069791 0.173805 0.596680 0.724365 1 4 1.000000
  4 -3.096000 -0.266000 1.867000 -0.973007 -0.089226 0.212829 0.697754 0.959473 1 4 1.000000
end
