// Created by Crowbar 0.74
version 1
nodes
  0 "tag_scope" -1
end
skeleton
  time 0
    0 0.000000 0.000000 0.000000 0.000000 0.000000 0.000000
end
triangles
weapon_vm_sn_mike14_scope_lens
  0 -3.384000 -0.000005 1.314040 -0.999988 0.004346 -0.002027 0.500000 0.500000 1 0 1.000000
  0 -3.384000 -0.433659 0.880383 -0.999999 0.001261 0.000697 0.842773 0.138184 1 0 1.000000
  0 -3.384000 -0.478457 0.929662 -0.999990 0.004393 0.000763 0.879883 0.177246 1 0 1.000000
weapon_vm_sn_mike14_scope_lens
  0 -3.384000 -0.000005 1.314040 -0.999988 0.004346 -0.002027 0.500000 0.500000 1 0 1.000000
  0 -3.384000 -0.384379 0.836481 -0.999975 0.006998 0.000834 0.801270 0.103516 1 0 1.000000
  0 -3.384000 -0.433659 0.880383 -0.999999 0.001261 0.000697 0.842773 0.138184 1 0 1.000000
weapon_vm_sn_mike14_scope_lens
  0 -3.384000 -0.000005 1.314040 -0.999988 0.004346 -0.002027 0.500000 0.500000 1 0 1.000000
  0 -3.384000 -0.330622 0.797954 -0.999990 0.004393 0.000763 0.756836 0.073242 1 0 1.000000
  0 -3.384000 -0.384379 0.836481 -0.999975 0.006998 0.000834 0.801270 0.103516 1 0 1.000000
weapon_vm_sn_mike14_scope_lens
  0 -3.384000 -0.000005 1.314040 -0.999988 0.004346 -0.002027 0.500000 0.500000 1 0 1.000000
  0 -3.384000 -0.272382 0.764803 -0.999990 0.004396 0.000763 0.708984 0.047852 1 0 1.000000
  0 -3.384000 -0.330622 0.797954 -0.999990 0.004393 0.000763 0.756836 0.073242 1 0 1.000000
weapon_vm_sn_mike14_scope_lens
  0 -3.384000 -0.000005 1.314040 -0.999988 0.004346 -0.002027 0.500000 0.500000 1 0 1.000000
  0 -3.384000 -0.211456 0.738819 -0.999989 0.004257 -0.001979 0.659180 0.027832 1 0 1.000000
  0 -3.384000 -0.272382 0.764803 -0.999990 0.004396 0.000763 0.708984 0.047852 1 0 1.000000
weapon_vm_sn_mike14_scope_lens
  0 -3.384000 -0.000005 1.314040 -0.999988 0.004346 -0.002027 0.500000 0.500000 1 0 1.000000
  0 -3.384000 -0.147841 0.719107 -0.999990 0.004393 0.000763 0.606934 0.013672 1 0 1.000000
  0 -3.384000 -0.211456 0.738819 -0.999989 0.004257 -0.001979 0.659180 0.027832 1 0 1.000000
weapon_vm_sn_mike14_scope_lens
  0 -3.384000 -0.000005 1.314040 -0.999988 0.004346 -0.002027 0.500000 0.500000 1 0 1.000000
  0 -3.384000 -0.082435 0.706564 -0.999989 0.004262 -0.001985 0.553711 0.004883 1 0 1.000000
  0 -3.384000 -0.147841 0.719107 -0.999990 0.004393 0.000763 0.606934 0.013672 1 0 1.000000
weapon_vm_sn_mike14_scope_lens
  0 -3.384000 -0.000005 1.314040 -0.999988 0.004346 -0.002027 0.500000 0.500000 1 0 1.000000
  0 -3.384000 -0.017029 0.701188 -0.999989 0.004258 -0.001979 0.500000 0.001953 1 0 1.000000
  0 -3.384000 -0.082435 0.706564 -0.999989 0.004262 -0.001985 0.553711 0.004883 1 0 1.000000
weapon_vm_sn_mike14_scope_lens
  0 -3.384000 -0.000005 1.314040 -0.999988 0.004346 -0.002027 0.500000 0.500000 1 0 1.000000
  0 -3.384000 0.050170 0.702979 -0.999989 0.004257 -0.001979 0.446045 0.004883 1 0 1.000000
  0 -3.384000 -0.017029 0.701188 -0.999989 0.004258 -0.001979 0.500000 0.001953 1 0 1.000000
weapon_vm_sn_mike14_scope_lens
  0 -3.384000 -0.000005 1.314040 -0.999988 0.004346 -0.002027 0.500000 0.500000 1 0 1.000000
  0 -3.384000 0.115576 0.711940 -0.999999 0.001259 0.000697 0.392822 0.013672 1 0 1.000000
  0 -3.384000 0.050170 0.702979 -0.999989 0.004257 -0.001979 0.446045 0.004883 1 0 1.000000
weapon_vm_sn_mike14_scope_lens
  0 -3.384000 -0.000005 1.314040 -0.999988 0.004346 -0.002027 0.500000 0.500000 1 0 1.000000
  0 -3.384000 0.180086 0.728068 -0.999990 0.004396 0.000763 0.340820 0.027832 1 0 1.000000
  0 -3.384000 0.115576 0.711940 -0.999999 0.001259 0.000697 0.392822 0.013672 1 0 1.000000
weapon_vm_sn_mike14_scope_lens
  0 -3.384000 -0.000005 1.314040 -0.999988 0.004346 -0.002027 0.500000 0.500000 1 0 1.000000
  0 -3.384000 0.241909 0.750467 -0.999990 0.004441 0.000769 0.290771 0.047852 1 0 1.000000
  0 -3.384000 0.180086 0.728068 -0.999990 0.004396 0.000763 0.340820 0.027832 1 0 1.000000
weapon_vm_sn_mike14_scope_lens
  0 -3.384000 -0.000005 1.314040 -0.999988 0.004346 -0.002027 0.500000 0.500000 1 0 1.000000
  0 -3.384000 0.301938 0.780034 -0.999999 0.001258 0.000691 0.243042 0.073242 1 0 1.000000
  0 -3.384000 0.241909 0.750467 -0.999990 0.004441 0.000769 0.290771 0.047852 1 0 1.000000
weapon_vm_sn_mike14_scope_lens
  0 -3.384000 -0.000005 1.314040 -0.999988 0.004346 -0.002027 0.500000 0.500000 1 0 1.000000
  0 -3.384000 0.357489 0.815873 -0.999975 0.007045 0.000840 0.198486 0.103516 1 0 1.000000
  0 -3.384000 0.301938 0.780034 -0.999999 0.001258 0.000691 0.243042 0.073242 1 0 1.000000
weapon_vm_sn_mike14_scope_lens
  0 -3.384000 -0.000005 1.314040 -0.999988 0.004346 -0.002027 0.500000 0.500000 1 0 1.000000
  0 -3.384000 0.409456 0.857983 -0.999999 0.001261 0.000697 0.157349 0.138184 1 0 1.000000
  0 -3.384000 0.357489 0.815873 -0.999975 0.007045 0.000840 0.198486 0.103516 1 0 1.000000
weapon_vm_sn_mike14_scope_lens
  0 -3.384000 -0.000005 1.314040 -0.999988 0.004346 -0.002027 0.500000 0.500000 1 0 1.000000
  0 -3.384000 0.456943 0.904574 -0.999989 0.004259 -0.001979 0.120239 0.177734 1 0 1.000000
  0 -3.384000 0.409456 0.857983 -0.999999 0.001261 0.000697 0.157349 0.138184 1 0 1.000000
weapon_vm_sn_mike14_scope_lens
  0 -3.384000 -0.000005 1.314040 -0.999988 0.004346 -0.002027 0.500000 0.500000 1 0 1.000000
  0 -3.384000 0.498157 0.956542 -0.999989 0.004259 -0.001985 0.087585 0.220703 1 0 1.000000
  0 -3.384000 0.456943 0.904574 -0.999989 0.004259 -0.001979 0.120239 0.177734 1 0 1.000000
weapon_vm_sn_mike14_scope_lens
  0 -3.384000 -0.000005 1.314040 -0.999988 0.004346 -0.002027 0.500000 0.500000 1 0 1.000000
  0 -3.384000 0.533997 1.012090 -0.999989 0.004262 -0.001979 0.059814 0.266602 1 0 1.000000
  0 -3.384000 0.498157 0.956542 -0.999989 0.004259 -0.001985 0.087585 0.220703 1 0 1.000000
weapon_vm_sn_mike14_scope_lens
  0 -3.384000 -0.000005 1.314040 -0.999988 0.004346 -0.002027 0.500000 0.500000 1 0 1.000000
  0 -3.384000 0.563564 1.072120 -0.999999 0.001258 0.000691 0.037170 0.315430 1 0 1.000000
  0 -3.384000 0.533997 1.012090 -0.999989 0.004262 -0.001979 0.059814 0.266602 1 0 1.000000
weapon_vm_sn_mike14_scope_lens
  0 -3.384000 -0.000005 1.314040 -0.999988 0.004346 -0.002027 0.500000 0.500000 1 0 1.000000
  0 -3.384000 0.585964 1.133950 -0.999989 0.004262 -0.001979 0.019943 0.366699 1 0 1.000000
  0 -3.384000 0.563564 1.072120 -0.999999 0.001258 0.000691 0.037170 0.315430 1 0 1.000000
weapon_vm_sn_mike14_scope_lens
  0 -3.384000 -0.000005 1.314040 -0.999988 0.004346 -0.002027 0.500000 0.500000 1 0 1.000000
  0 -3.384000 0.602091 1.198460 -0.999999 0.001299 0.000715 0.008362 0.419434 1 0 1.000000
  0 -3.384000 0.585964 1.133950 -0.999989 0.004262 -0.001979 0.019943 0.366699 1 0 1.000000
weapon_vm_sn_mike14_scope_lens
  0 -3.384000 -0.000005 1.314040 -0.999988 0.004346 -0.002027 0.500000 0.500000 1 0 1.000000
  0 -3.384000 0.611051 1.264760 -0.999999 0.001258 0.000691 0.002541 0.473145 1 0 1.000000
  0 -3.384000 0.602091 1.198460 -0.999999 0.001299 0.000715 0.008362 0.419434 1 0 1.000000
weapon_vm_sn_mike14_scope_lens
  0 -3.384000 -0.000005 1.314040 -0.999988 0.004346 -0.002027 0.500000 0.500000 1 0 1.000000
  0 -3.384000 0.612843 1.331060 -0.999999 0.001299 0.000715 0.002541 0.527100 1 0 1.000000
  0 -3.384000 0.611051 1.264760 -0.999999 0.001258 0.000691 0.002541 0.473145 1 0 1.000000
weapon_vm_sn_mike14_scope_lens
  0 -3.384000 -0.000005 1.314040 -0.999988 0.004346 -0.002027 0.500000 0.500000 1 0 1.000000
  0 -3.384000 0.607466 1.397360 -0.999999 0.001258 0.000691 0.008377 0.580566 1 0 1.000000
  0 -3.384000 0.612843 1.331060 -0.999999 0.001299 0.000715 0.002541 0.527100 1 0 1.000000
weapon_vm_sn_mike14_scope_lens
  0 -3.384000 -0.000005 1.314040 -0.999988 0.004346 -0.002027 0.500000 0.500000 1 0 1.000000
  0 -3.384000 0.594923 1.462770 -0.999999 0.001258 0.000691 0.019989 0.633301 1 0 1.000000
  0 -3.384000 0.607466 1.397360 -0.999999 0.001258 0.000691 0.008377 0.580566 1 0 1.000000
weapon_vm_sn_mike14_scope_lens
  0 -3.384000 -0.000005 1.314040 -0.999988 0.004346 -0.002027 0.500000 0.500000 1 0 1.000000
  0 -3.384000 0.576108 1.525490 -0.999989 0.004262 -0.001979 0.037231 0.684570 1 0 1.000000
  0 -3.384000 0.594923 1.462770 -0.999999 0.001258 0.000691 0.019989 0.633301 1 0 1.000000
weapon_vm_sn_mike14_scope_lens
  0 -3.384000 -0.000005 1.314040 -0.999988 0.004346 -0.002027 0.500000 0.500000 1 0 1.000000
  0 -3.384000 0.549229 1.587310 -0.999989 0.004262 -0.001979 0.059875 0.733398 1 0 1.000000
  0 -3.384000 0.576108 1.525490 -0.999989 0.004262 -0.001979 0.037231 0.684570 1 0 1.000000
weapon_vm_sn_mike14_scope_lens
  0 -3.384000 -0.000005 1.314040 -0.999988 0.004346 -0.002027 0.500000 0.500000 1 0 1.000000
  0 -3.384000 0.516974 1.644650 -0.999999 0.001299 0.000715 0.087708 0.779663 1 0 1.000000
  0 -3.384000 0.549229 1.587310 -0.999989 0.004262 -0.001979 0.059875 0.733398 1 0 1.000000
weapon_vm_sn_mike14_scope_lens
  0 -3.384000 -0.000005 1.314040 -0.999988 0.004346 -0.002027 0.500000 0.500000 1 0 1.000000
  0 -3.384000 0.478446 1.698410 -0.999990 0.004393 0.000763 0.120361 0.822510 1 0 1.000000
  0 -3.384000 0.516974 1.644650 -0.999999 0.001299 0.000715 0.087708 0.779663 1 0 1.000000
weapon_vm_sn_mike14_scope_lens
  0 -3.384000 -0.000005 1.314040 -0.999988 0.004346 -0.002027 0.500000 0.500000 1 0 1.000000
  0 -3.384000 0.433647 1.748580 -0.999989 0.004259 -0.001979 0.157471 0.861694 1 0 1.000000
  0 -3.384000 0.478446 1.698410 -0.999990 0.004393 0.000763 0.120361 0.822510 1 0 1.000000
weapon_vm_sn_mike14_scope_lens
  0 -3.384000 -0.000005 1.314040 -0.999988 0.004346 -0.002027 0.500000 0.500000 1 0 1.000000
  0 -3.384000 0.384369 1.792490 -0.999974 0.006935 -0.001895 0.198608 0.896667 1 0 1.000000
  0 -3.384000 0.433647 1.748580 -0.999989 0.004259 -0.001979 0.157471 0.861694 1 0 1.000000
weapon_vm_sn_mike14_scope_lens
  0 -3.384000 -0.000005 1.314040 -0.999988 0.004346 -0.002027 0.500000 0.500000 1 0 1.000000
  0 -3.384000 0.330610 1.831020 -0.999990 0.004393 0.000763 0.243164 0.926880 1 0 1.000000
  0 -3.384000 0.384369 1.792490 -0.999974 0.006935 -0.001895 0.198608 0.896667 1 0 1.000000
weapon_vm_sn_mike14_scope_lens
  0 -3.384000 -0.000005 1.314040 -0.999988 0.004346 -0.002027 0.500000 0.500000 1 0 1.000000
  0 -3.384000 0.272372 1.864170 -0.999989 0.004262 -0.001979 0.290771 0.952179 1 0 1.000000
  0 -3.384000 0.330610 1.831020 -0.999990 0.004393 0.000763 0.243164 0.926880 1 0 1.000000
weapon_vm_sn_mike14_scope_lens
  0 -3.384000 -0.000005 1.314040 -0.999988 0.004346 -0.002027 0.500000 0.500000 1 0 1.000000
  0 -3.384000 0.211445 1.890150 -0.999999 0.001261 0.000691 0.341064 0.972137 1 0 1.000000
  0 -3.384000 0.272372 1.864170 -0.999989 0.004262 -0.001979 0.290771 0.952179 1 0 1.000000
weapon_vm_sn_mike14_scope_lens
  0 -3.384000 -0.000005 1.314040 -0.999988 0.004346 -0.002027 0.500000 0.500000 1 0 1.000000
  0 -3.384000 0.147831 1.909860 -0.999990 0.004391 0.000763 0.393066 0.986557 1 0 1.000000
  0 -3.384000 0.211445 1.890150 -0.999999 0.001261 0.000691 0.341064 0.972137 1 0 1.000000
weapon_vm_sn_mike14_scope_lens
  0 -3.384000 -0.000005 1.314040 -0.999988 0.004346 -0.002027 0.500000 0.500000 1 0 1.000000
  0 -3.384000 0.082424 1.922410 -0.999989 0.004259 -0.001979 0.446289 0.995281 1 0 1.000000
  0 -3.384000 0.147831 1.909860 -0.999990 0.004391 0.000763 0.393066 0.986557 1 0 1.000000
weapon_vm_sn_mike14_scope_lens
  0 -3.384000 -0.000005 1.314040 -0.999988 0.004346 -0.002027 0.500000 0.500000 1 0 1.000000
  0 -3.384000 0.016122 1.927780 -0.999989 0.004258 -0.001979 0.500000 0.998190 1 0 1.000000
  0 -3.384000 0.082424 1.922410 -0.999989 0.004259 -0.001979 0.446289 0.995281 1 0 1.000000
weapon_vm_sn_mike14_scope_lens
  0 -3.384000 -0.000005 1.314040 -0.999988 0.004346 -0.002027 0.500000 0.500000 1 0 1.000000
  0 -3.384000 -0.050181 1.925990 -0.999989 0.004259 -0.001979 0.553711 0.995258 1 0 1.000000
  0 -3.384000 0.016122 1.927780 -0.999989 0.004258 -0.001979 0.500000 0.998190 1 0 1.000000
weapon_vm_sn_mike14_scope_lens
  0 -3.384000 -0.000005 1.314040 -0.999988 0.004346 -0.002027 0.500000 0.500000 1 0 1.000000
  0 -3.384000 -0.115586 1.917030 -0.999999 0.001258 0.000691 0.606934 0.986526 1 0 1.000000
  0 -3.384000 -0.050181 1.925990 -0.999989 0.004259 -0.001979 0.553711 0.995258 1 0 1.000000
weapon_vm_sn_mike14_scope_lens
  0 -3.384000 -0.000005 1.314040 -0.999988 0.004346 -0.002027 0.500000 0.500000 1 0 1.000000
  0 -3.384000 -0.180097 1.900900 -0.999999 0.001258 0.000691 0.659180 0.972092 1 0 1.000000
  0 -3.384000 -0.115586 1.917030 -0.999999 0.001258 0.000691 0.606934 0.986526 1 0 1.000000
weapon_vm_sn_mike14_scope_lens
  0 -3.384000 -0.000005 1.314040 -0.999988 0.004346 -0.002027 0.500000 0.500000 1 0 1.000000
  0 -3.384000 -0.242815 1.877610 -0.999999 0.001261 0.000691 0.709473 0.952118 1 0 1.000000
  0 -3.384000 -0.180097 1.900900 -0.999999 0.001258 0.000691 0.659180 0.972092 1 0 1.000000
weapon_vm_sn_mike14_scope_lens
  0 -3.384000 -0.000005 1.314040 -0.999988 0.004346 -0.002027 0.500000 0.500000 1 0 1.000000
  0 -3.384000 -0.301950 1.848040 -0.999999 0.001261 0.000691 0.756836 0.926819 1 0 1.000000
  0 -3.384000 -0.242815 1.877610 -0.999999 0.001261 0.000691 0.709473 0.952118 1 0 1.000000
weapon_vm_sn_mike14_scope_lens
  0 -3.384000 -0.000005 1.314040 -0.999988 0.004346 -0.002027 0.500000 0.500000 1 0 1.000000
  0 -3.384000 -0.357500 1.812200 -0.999990 0.004393 0.000763 0.801758 0.896545 1 0 1.000000
  0 -3.384000 -0.301950 1.848040 -0.999999 0.001261 0.000691 0.756836 0.926819 1 0 1.000000
weapon_vm_sn_mike14_scope_lens
  0 -3.384000 -0.000005 1.314040 -0.999988 0.004346 -0.002027 0.500000 0.500000 1 0 1.000000
  0 -3.384000 -0.409468 1.770980 -0.999990 0.004438 0.000775 0.842773 0.861694 1 0 1.000000
  0 -3.384000 -0.357500 1.812200 -0.999990 0.004393 0.000763 0.801758 0.896545 1 0 1.000000
weapon_vm_sn_mike14_scope_lens
  0 -3.384000 -0.000005 1.314040 -0.999988 0.004346 -0.002027 0.500000 0.500000 1 0 1.000000
  0 -3.384000 -0.456954 1.724390 -0.999990 0.004441 0.000775 0.879883 0.822510 1 0 1.000000
  0 -3.384000 -0.409468 1.770980 -0.999990 0.004438 0.000775 0.842773 0.861694 1 0 1.000000
weapon_vm_sn_mike14_scope_lens
  0 -3.384000 -0.000005 1.314040 -0.999988 0.004346 -0.002027 0.500000 0.500000 1 0 1.000000
  0 -3.384000 -0.498169 1.672430 -0.999999 0.001261 0.000691 0.912598 0.779541 1 0 1.000000
  0 -3.384000 -0.456954 1.724390 -0.999990 0.004441 0.000775 0.879883 0.822510 1 0 1.000000
weapon_vm_sn_mike14_scope_lens
  0 -3.384000 -0.000005 1.314040 -0.999988 0.004346 -0.002027 0.500000 0.500000 1 0 1.000000
  0 -3.384000 -0.534009 1.615980 -0.999989 0.004262 -0.001979 0.940430 0.733398 1 0 1.000000
  0 -3.384000 -0.498169 1.672430 -0.999999 0.001261 0.000691 0.912598 0.779541 1 0 1.000000
weapon_vm_sn_mike14_scope_lens
  0 -3.384000 -0.000005 1.314040 -0.999988 0.004346 -0.002027 0.500000 0.500000 1 0 1.000000
  0 -3.384000 -0.563575 1.556850 -0.999989 0.004262 -0.001979 0.962891 0.684326 1 0 1.000000
  0 -3.384000 -0.534009 1.615980 -0.999989 0.004262 -0.001979 0.940430 0.733398 1 0 1.000000
weapon_vm_sn_mike14_scope_lens
  0 -3.384000 -0.000005 1.314040 -0.999988 0.004346 -0.002027 0.500000 0.500000 1 0 1.000000
  0 -3.384000 -0.586870 1.494130 -0.999999 0.001299 0.000715 0.979980 0.633301 1 0 1.000000
  0 -3.384000 -0.563575 1.556850 -0.999989 0.004262 -0.001979 0.962891 0.684326 1 0 1.000000
weapon_vm_sn_mike14_scope_lens
  0 -3.384000 -0.000005 1.314040 -0.999988 0.004346 -0.002027 0.500000 0.500000 1 0 1.000000
  0 -3.384000 -0.602102 1.429620 -0.999989 0.004262 -0.001979 0.991699 0.580566 1 0 1.000000
  0 -3.384000 -0.586870 1.494130 -0.999999 0.001299 0.000715 0.979980 0.633301 1 0 1.000000
weapon_vm_sn_mike14_scope_lens
  0 -3.384000 -0.000005 1.314040 -0.999988 0.004346 -0.002027 0.500000 0.500000 1 0 1.000000
  0 -3.384000 -0.611062 1.364210 -0.999989 0.004262 -0.001979 0.997559 0.526855 1 0 1.000000
  0 -3.384000 -0.602102 1.429620 -0.999989 0.004262 -0.001979 0.991699 0.580566 1 0 1.000000
weapon_vm_sn_mike14_scope_lens
  0 -3.384000 -0.000005 1.314040 -0.999988 0.004346 -0.002027 0.500000 0.500000 1 0 1.000000
  0 -3.384000 -0.612854 1.297910 -0.999989 0.004262 -0.001979 0.997559 0.473145 1 0 1.000000
  0 -3.384000 -0.611062 1.364210 -0.999989 0.004262 -0.001979 0.997559 0.526855 1 0 1.000000
weapon_vm_sn_mike14_scope_lens
  0 -3.384000 -0.000005 1.314040 -0.999988 0.004346 -0.002027 0.500000 0.500000 1 0 1.000000
  0 -3.384000 -0.607478 1.231610 -0.999989 0.004262 -0.001979 0.991699 0.419434 1 0 1.000000
  0 -3.384000 -0.612854 1.297910 -0.999989 0.004262 -0.001979 0.997559 0.473145 1 0 1.000000
weapon_vm_sn_mike14_scope_lens
  0 -3.384000 -0.000005 1.314040 -0.999988 0.004346 -0.002027 0.500000 0.500000 1 0 1.000000
  0 -3.384000 -0.594934 1.166200 -0.999989 0.004262 -0.001979 0.979980 0.366699 1 0 1.000000
  0 -3.384000 -0.607478 1.231610 -0.999989 0.004262 -0.001979 0.991699 0.419434 1 0 1.000000
weapon_vm_sn_mike14_scope_lens
  0 -3.384000 -0.000005 1.314040 -0.999988 0.004346 -0.002027 0.500000 0.500000 1 0 1.000000
  0 -3.384000 -0.576119 1.102590 -0.999989 0.004262 -0.001979 0.962891 0.315430 1 0 1.000000
  0 -3.384000 -0.594934 1.166200 -0.999989 0.004262 -0.001979 0.979980 0.366699 1 0 1.000000
weapon_vm_sn_mike14_scope_lens
  0 -3.384000 -0.000005 1.314040 -0.999988 0.004346 -0.002027 0.500000 0.500000 1 0 1.000000
  0 -3.384000 -0.549240 1.041660 -0.999999 0.001258 0.000691 0.939941 0.266602 1 0 1.000000
  0 -3.384000 -0.576119 1.102590 -0.999989 0.004262 -0.001979 0.962891 0.315430 1 0 1.000000
weapon_vm_sn_mike14_scope_lens
  0 -3.384000 -0.516984 0.984317 -0.999990 0.004393 0.000763 0.912109 0.220215 1 0 1.000000
  0 -3.384000 -0.549240 1.041660 -0.999999 0.001258 0.000691 0.939941 0.266602 1 0 1.000000
  0 -3.384000 -0.000005 1.314040 -0.999988 0.004346 -0.002027 0.500000 0.500000 1 0 1.000000
weapon_vm_sn_mike14_scope_lens
  0 -3.384000 -0.516984 0.984317 -0.999990 0.004393 0.000763 0.912109 0.220215 1 0 1.000000
  0 -3.384000 -0.000005 1.314040 -0.999988 0.004346 -0.002027 0.500000 0.500000 1 0 1.000000
  0 -3.384000 -0.478457 0.929662 -0.999990 0.004393 0.000763 0.879883 0.177246 1 0 1.000000
end
