// Created by Crowbar 0.74
version 1
nodes
  0 "tag_scope" -1
end
skeleton
  time 0
    0 0.000000 0.000000 0.000000 0.000000 0.000000 0.000000
end
triangles
attachment_vm_scope_vz_lens
  0 -3.103550 0.552306 1.262660 -0.973784 0.227364 0.007117 0.000000 0.513428 1 0 1.000000
  0 -3.170620 0.270103 1.255290 -0.982623 0.185511 0.006211 0.255859 0.506592 1 0 1.000000
  0 -3.103550 0.547398 1.322370 -0.973890 0.224679 0.032508 0.004398 0.567627 1 0 1.000000
attachment_vm_scope_vz_lens
  0 -3.103550 0.550670 1.202940 -0.973653 0.227231 -0.019109 0.001470 0.459473 1 0 1.000000
  0 -3.170620 0.270103 1.255290 -0.982623 0.185511 0.006211 0.255859 0.506592 1 0 1.000000
  0 -3.103550 0.552306 1.262660 -0.973784 0.227364 0.007117 0.000000 0.513428 1 0 1.000000
attachment_vm_scope_vz_lens
  0 -3.170620 0.269285 1.225850 -0.983037 0.182969 -0.012648 0.256592 0.479980 1 0 1.000000
  0 -3.170620 0.270103 1.255290 -0.982623 0.185511 0.006211 0.255859 0.506592 1 0 1.000000
  0 -3.103550 0.550670 1.202940 -0.973653 0.227231 -0.019109 0.001470 0.459473 1 0 1.000000
attachment_vm_scope_vz_lens
  0 -3.103550 0.542490 1.144050 -0.973533 0.224310 -0.043809 0.008781 0.405762 1 0 1.000000
  0 -3.170620 0.269285 1.225850 -0.983037 0.182969 -0.012648 0.256592 0.479980 1 0 1.000000
  0 -3.103550 0.550670 1.202940 -0.973653 0.227231 -0.019109 0.001470 0.459473 1 0 1.000000
attachment_vm_scope_vz_lens
  0 -3.170620 0.158040 1.028710 -0.983002 0.105228 -0.150443 0.357422 0.301758 1 0 1.000000
  0 -3.170620 0.180943 1.046710 -0.982088 0.124105 -0.141775 0.336914 0.318359 1 0 1.000000
  0 -3.103550 0.322453 0.799681 -0.972942 0.132233 -0.189466 0.208252 0.093750 1 0 1.000000
attachment_vm_scope_vz_lens
  0 -3.103550 0.322453 0.799681 -0.972942 0.132233 -0.189466 0.208252 0.093750 1 0 1.000000
  0 -3.170620 0.180943 1.046710 -0.982088 0.124105 -0.141775 0.336914 0.318359 1 0 1.000000
  0 -3.103550 0.369077 0.837308 -0.973509 0.151917 -0.170886 0.166016 0.127930 1 0 1.000000
attachment_vm_scope_vz_lens
  0 -3.103550 0.369077 0.837308 -0.973509 0.151917 -0.170886 0.166016 0.127930 1 0 1.000000
  0 -3.170620 0.180943 1.046710 -0.982088 0.124105 -0.141775 0.336914 0.318359 1 0 1.000000
  0 -3.103550 0.411612 0.879025 -0.974281 0.166593 -0.151731 0.127686 0.166016 1 0 1.000000
attachment_vm_scope_vz_lens
  0 -3.170620 0.180943 1.046710 -0.982088 0.124105 -0.141775 0.336914 0.318359 1 0 1.000000
  0 -3.170620 0.201392 1.067980 -0.982123 0.137947 -0.128079 0.318115 0.336914 1 0 1.000000
  0 -3.103550 0.411612 0.879025 -0.974281 0.166593 -0.151731 0.127686 0.166016 1 0 1.000000
attachment_vm_scope_vz_lens
  0 -3.170620 0.201392 1.067980 -0.982123 0.137947 -0.128079 0.318115 0.336914 1 0 1.000000
  0 -3.170620 0.219388 1.090060 -0.982092 0.151926 -0.111413 0.301514 0.357422 1 0 1.000000
  0 -3.103550 0.411612 0.879025 -0.974281 0.166593 -0.151731 0.127686 0.166016 1 0 1.000000
attachment_vm_scope_vz_lens
  0 -3.181260 0.000988 1.247930 -0.999974 -0.006936 -0.001752 0.500000 0.500000 1 0 1.000000
  0 -3.170620 0.219388 1.090060 -0.982092 0.151926 -0.111413 0.301514 0.357422 1 0 1.000000
  0 -3.170620 0.201392 1.067980 -0.982123 0.137947 -0.128079 0.318115 0.336914 1 0 1.000000
attachment_vm_scope_vz_lens
  0 -3.181260 0.000988 1.247930 -0.999974 -0.006936 -0.001752 0.500000 0.500000 1 0 1.000000
  0 -3.170620 0.235748 1.115420 -0.982688 0.160528 -0.092494 0.287354 0.379883 1 0 1.000000
  0 -3.170620 0.219388 1.090060 -0.982092 0.151926 -0.111413 0.301514 0.357422 1 0 1.000000
attachment_vm_scope_vz_lens
  0 -3.170620 0.248835 1.140780 -0.982886 0.169117 -0.073040 0.275635 0.403320 1 0 1.000000
  0 -3.170620 0.235748 1.115420 -0.982688 0.160528 -0.092494 0.287354 0.379883 1 0 1.000000
  0 -3.181260 0.000988 1.247930 -0.999974 -0.006936 -0.001752 0.500000 0.500000 1 0 1.000000
attachment_vm_scope_vz_lens
  0 -3.170620 0.235748 1.115420 -0.982688 0.160528 -0.092494 0.287354 0.379883 1 0 1.000000
  0 -3.170620 0.248835 1.140780 -0.982886 0.169117 -0.073040 0.275635 0.403320 1 0 1.000000
  0 -3.103550 0.481141 0.976364 -0.973154 0.199241 -0.115210 0.064575 0.253906 1 0 1.000000
attachment_vm_scope_vz_lens
  0 -3.103550 0.481141 0.976364 -0.973154 0.199241 -0.115210 0.064575 0.253906 1 0 1.000000
  0 -3.170620 0.248835 1.140780 -0.982886 0.169117 -0.073040 0.275635 0.403320 1 0 1.000000
  0 -3.103550 0.507317 1.029530 -0.973406 0.210021 -0.091492 0.040527 0.302246 1 0 1.000000
attachment_vm_scope_vz_lens
  0 -3.170620 0.248835 1.140780 -0.982886 0.169117 -0.073040 0.275635 0.403320 1 0 1.000000
  0 -3.103550 0.528584 1.085970 -0.974583 0.213981 -0.066328 0.021851 0.353027 1 0 1.000000
  0 -3.103550 0.507317 1.029530 -0.973406 0.210021 -0.091492 0.040527 0.302246 1 0 1.000000
attachment_vm_scope_vz_lens
  0 -3.170620 0.248835 1.140780 -0.982886 0.169117 -0.073040 0.275635 0.403320 1 0 1.000000
  0 -3.170620 0.258651 1.168590 -0.983263 0.174886 -0.051081 0.266357 0.428223 1 0 1.000000
  0 -3.103550 0.528584 1.085970 -0.974583 0.213981 -0.066328 0.021851 0.353027 1 0 1.000000
attachment_vm_scope_vz_lens
  0 -3.103550 0.528584 1.085970 -0.974583 0.213981 -0.066328 0.021851 0.353027 1 0 1.000000
  0 -3.170620 0.258651 1.168590 -0.983263 0.174886 -0.051081 0.266357 0.428223 1 0 1.000000
  0 -3.103550 0.542490 1.144050 -0.973533 0.224310 -0.043809 0.008781 0.405762 1 0 1.000000
attachment_vm_scope_vz_lens
  0 -3.170620 0.258651 1.168590 -0.983263 0.174886 -0.051081 0.266357 0.428223 1 0 1.000000
  0 -3.170620 0.265195 1.197220 -0.982564 0.182708 -0.034427 0.260010 0.454102 1 0 1.000000
  0 -3.103550 0.542490 1.144050 -0.973533 0.224310 -0.043809 0.008781 0.405762 1 0 1.000000
attachment_vm_scope_vz_lens
  0 -3.170620 0.265195 1.197220 -0.982564 0.182708 -0.034427 0.260010 0.454102 1 0 1.000000
  0 -3.170620 0.269285 1.225850 -0.983037 0.182969 -0.012648 0.256592 0.479980 1 0 1.000000
  0 -3.103550 0.542490 1.144050 -0.973533 0.224310 -0.043809 0.008781 0.405762 1 0 1.000000
attachment_vm_scope_vz_lens
  0 -3.181260 0.000988 1.247930 -0.999974 -0.006936 -0.001752 0.500000 0.500000 1 0 1.000000
  0 -3.170620 0.269285 1.225850 -0.983037 0.182969 -0.012648 0.256592 0.479980 1 0 1.000000
  0 -3.170620 0.265195 1.197220 -0.982564 0.182708 -0.034427 0.260010 0.454102 1 0 1.000000
attachment_vm_scope_vz_lens
  0 -3.181260 0.000988 1.247930 -0.999974 -0.006936 -0.001752 0.500000 0.500000 1 0 1.000000
  0 -3.170620 0.270103 1.255290 -0.982623 0.185511 0.006211 0.255859 0.506592 1 0 1.000000
  0 -3.170620 0.269285 1.225850 -0.983037 0.182969 -0.012648 0.256592 0.479980 1 0 1.000000
attachment_vm_scope_vz_lens
  0 -3.181260 0.000988 1.247930 -0.999974 -0.006936 -0.001752 0.500000 0.500000 1 0 1.000000
  0 -3.170620 0.267648 1.283920 -0.982803 0.182875 0.025582 0.257813 0.532959 1 0 1.000000
  0 -3.170620 0.270103 1.255290 -0.982623 0.185511 0.006211 0.255859 0.506592 1 0 1.000000
attachment_vm_scope_vz_lens
  0 -3.181260 0.000988 1.247930 -0.999974 -0.006936 -0.001752 0.500000 0.500000 1 0 1.000000
  0 -3.170620 0.180943 1.046710 -0.982088 0.124105 -0.141775 0.336914 0.318359 1 0 1.000000
  0 -3.170620 0.158040 1.028710 -0.983002 0.105228 -0.150443 0.357422 0.301758 1 0 1.000000
attachment_vm_scope_vz_lens
  0 -3.181260 0.000988 1.247930 -0.999974 -0.006936 -0.001752 0.500000 0.500000 1 0 1.000000
  0 -3.170620 0.201392 1.067980 -0.982123 0.137947 -0.128079 0.318115 0.336914 1 0 1.000000
  0 -3.170620 0.180943 1.046710 -0.982088 0.124105 -0.141775 0.336914 0.318359 1 0 1.000000
attachment_vm_scope_vz_lens
  0 -3.181260 0.000988 1.247930 -0.999974 -0.006936 -0.001752 0.500000 0.500000 1 0 1.000000
  0 -3.170620 0.258651 1.168590 -0.983263 0.174886 -0.051081 0.266357 0.428223 1 0 1.000000
  0 -3.170620 0.248835 1.140780 -0.982886 0.169117 -0.073040 0.275635 0.403320 1 0 1.000000
attachment_vm_scope_vz_lens
  0 -3.181260 0.000988 1.247930 -0.999974 -0.006936 -0.001752 0.500000 0.500000 1 0 1.000000
  0 -3.170620 0.265195 1.197220 -0.982564 0.182708 -0.034427 0.260010 0.454102 1 0 1.000000
  0 -3.170620 0.258651 1.168590 -0.983263 0.174886 -0.051081 0.266357 0.428223 1 0 1.000000
attachment_vm_scope_vz_lens
  0 -3.103550 0.411612 0.879025 -0.974281 0.166593 -0.151731 0.127686 0.166016 1 0 1.000000
  0 -3.170620 0.219388 1.090060 -0.982092 0.151926 -0.111413 0.301514 0.357422 1 0 1.000000
  0 -3.103550 0.449240 0.925649 -0.974156 0.182456 -0.133151 0.093750 0.208008 1 0 1.000000
attachment_vm_scope_vz_lens
  0 -3.103550 0.449240 0.925649 -0.974156 0.182456 -0.133151 0.093750 0.208008 1 0 1.000000
  0 -3.170620 0.219388 1.090060 -0.982092 0.151926 -0.111413 0.301514 0.357422 1 0 1.000000
  0 -3.103550 0.481141 0.976364 -0.973154 0.199241 -0.115210 0.064575 0.253906 1 0 1.000000
attachment_vm_scope_vz_lens
  0 -3.170620 0.219388 1.090060 -0.982092 0.151926 -0.111413 0.301514 0.357422 1 0 1.000000
  0 -3.170620 0.235748 1.115420 -0.982688 0.160528 -0.092494 0.287354 0.379883 1 0 1.000000
  0 -3.103550 0.481141 0.976364 -0.973154 0.199241 -0.115210 0.064575 0.253906 1 0 1.000000
attachment_vm_scope_vz_lens
  0 -3.181260 0.000988 1.247930 -0.999974 -0.006936 -0.001752 0.500000 0.500000 1 0 1.000000
  0 -3.170620 0.262741 1.312550 -0.982647 0.180004 0.044763 0.262939 0.559082 1 0 1.000000
  0 -3.170620 0.267648 1.283920 -0.982803 0.182875 0.025582 0.257813 0.532959 1 0 1.000000
attachment_vm_scope_vz_lens
  0 -3.181260 0.000988 1.247930 -0.999974 -0.006936 -0.001752 0.500000 0.500000 1 0 1.000000
  0 -3.170620 0.253742 1.340360 -0.982588 0.174340 0.064230 0.270752 0.584229 1 0 1.000000
  0 -3.170620 0.262741 1.312550 -0.982647 0.180004 0.044763 0.262939 0.559082 1 0 1.000000
attachment_vm_scope_vz_lens
  0 -3.181260 0.000988 1.247930 -0.999974 -0.006936 -0.001752 0.500000 0.500000 1 0 1.000000
  0 -3.170620 -0.156065 1.466330 -0.981815 -0.109512 0.155069 0.642578 0.698486 1 0 1.000000
  0 -3.170620 -0.131526 1.481880 -0.982187 -0.088560 0.165725 0.620117 0.712646 1 0 1.000000
attachment_vm_scope_vz_lens
  0 -3.181260 0.000988 1.247930 -0.999974 -0.006936 -0.001752 0.500000 0.500000 1 0 1.000000
  0 -3.170620 -0.167516 1.037710 -0.981974 -0.115614 -0.149536 0.652832 0.309570 1 0 1.000000
  0 -3.170620 -0.189602 1.057340 -0.981905 -0.131519 -0.136256 0.672852 0.327148 1 0 1.000000
attachment_vm_scope_vz_lens
  0 -3.181260 0.000988 1.247930 -0.999974 -0.006936 -0.001752 0.500000 0.500000 1 0 1.000000
  0 -3.170620 -0.189602 1.057340 -0.981905 -0.131519 -0.136256 0.672852 0.327148 1 0 1.000000
  0 -3.170620 -0.209233 1.078610 -0.982714 -0.143218 -0.117314 0.690430 0.347168 1 0 1.000000
attachment_vm_scope_vz_lens
  0 -3.181260 0.000988 1.247930 -0.999974 -0.006936 -0.001752 0.500000 0.500000 1 0 1.000000
  0 -3.170620 0.051702 0.982908 -0.982717 0.028892 -0.182844 0.453857 0.260254 1 0 1.000000
  0 -3.170620 0.023073 0.978818 -0.982092 0.012088 -0.188011 0.480225 0.256348 1 0 1.000000
attachment_vm_scope_vz_lens
  0 -3.181260 0.000988 1.247930 -0.999974 -0.006936 -0.001752 0.500000 0.500000 1 0 1.000000
  0 -3.170620 0.080331 0.990269 -0.982824 0.050465 -0.177513 0.428223 0.266602 1 0 1.000000
  0 -3.170620 0.051702 0.982908 -0.982717 0.028892 -0.182844 0.453857 0.260254 1 0 1.000000
attachment_vm_scope_vz_lens
  0 -3.181260 0.000988 1.247930 -0.999974 -0.006936 -0.001752 0.500000 0.500000 1 0 1.000000
  0 -3.170620 0.191577 1.438520 -0.982866 0.127138 0.133456 0.327148 0.672852 1 0 1.000000
  0 -3.170620 0.211208 1.416440 -0.982403 0.144008 0.118935 0.309570 0.653076 1 0 1.000000
attachment_vm_scope_vz_lens
  0 -3.181260 0.000988 1.247930 -0.999974 -0.006936 -0.001752 0.500000 0.500000 1 0 1.000000
  0 -3.170620 0.169491 1.457340 -0.982271 0.113198 0.149430 0.346924 0.690430 1 0 1.000000
  0 -3.170620 0.191577 1.438520 -0.982866 0.127138 0.133456 0.327148 0.672852 1 0 1.000000
attachment_vm_scope_vz_lens
  0 -3.170620 0.270103 1.255290 -0.982623 0.185511 0.006211 0.255859 0.506592 1 0 1.000000
  0 -3.170620 0.267648 1.283920 -0.982803 0.182875 0.025582 0.257813 0.532959 1 0 1.000000
  0 -3.103550 0.547398 1.322370 -0.973890 0.224679 0.032508 0.004398 0.567627 1 0 1.000000
attachment_vm_scope_vz_lens
  0 -3.170620 0.267648 1.283920 -0.982803 0.182875 0.025582 0.257813 0.532959 1 0 1.000000
  0 -3.170620 0.262741 1.312550 -0.982647 0.180004 0.044763 0.262939 0.559082 1 0 1.000000
  0 -3.103550 0.547398 1.322370 -0.973890 0.224679 0.032508 0.004398 0.567627 1 0 1.000000
attachment_vm_scope_vz_lens
  0 -3.103550 0.547398 1.322370 -0.973890 0.224679 0.032508 0.004398 0.567627 1 0 1.000000
  0 -3.170620 0.262741 1.312550 -0.982647 0.180004 0.044763 0.262939 0.559082 1 0 1.000000
  0 -3.103550 0.535946 1.380450 -0.973586 0.221683 0.054646 0.014603 0.620605 1 0 1.000000
attachment_vm_scope_vz_lens
  0 -3.103550 0.535946 1.380450 -0.973586 0.221683 0.054646 0.014603 0.620605 1 0 1.000000
  0 -3.170620 0.262741 1.312550 -0.982647 0.180004 0.044763 0.262939 0.559082 1 0 1.000000
  0 -3.103550 0.518768 1.437700 -0.973748 0.213337 0.079381 0.030502 0.672607 1 0 1.000000
attachment_vm_scope_vz_lens
  0 -3.170620 0.262741 1.312550 -0.982647 0.180004 0.044763 0.262939 0.559082 1 0 1.000000
  0 -3.170620 0.253742 1.340360 -0.982588 0.174340 0.064230 0.270752 0.584229 1 0 1.000000
  0 -3.103550 0.518768 1.437700 -0.973748 0.213337 0.079381 0.030502 0.672607 1 0 1.000000
attachment_vm_scope_vz_lens
  0 -3.170620 0.253742 1.340360 -0.982588 0.174340 0.064230 0.270752 0.584229 1 0 1.000000
  0 -3.170620 0.242291 1.367360 -0.982991 0.163591 0.083470 0.281250 0.608643 1 0 1.000000
  0 -3.103550 0.518768 1.437700 -0.973748 0.213337 0.079381 0.030502 0.672607 1 0 1.000000
attachment_vm_scope_vz_lens
  0 -3.181260 0.000988 1.247930 -0.999974 -0.006936 -0.001752 0.500000 0.500000 1 0 1.000000
  0 -3.170620 0.242291 1.367360 -0.982991 0.163591 0.083470 0.281250 0.608643 1 0 1.000000
  0 -3.170620 0.253742 1.340360 -0.982588 0.174340 0.064230 0.270752 0.584229 1 0 1.000000
attachment_vm_scope_vz_lens
  0 -3.181260 0.000988 1.247930 -0.999974 -0.006936 -0.001752 0.500000 0.500000 1 0 1.000000
  0 -3.170620 0.228386 1.392720 -0.982570 0.154805 0.102913 0.294189 0.631592 1 0 1.000000
  0 -3.170620 0.242291 1.367360 -0.982991 0.163591 0.083470 0.281250 0.608643 1 0 1.000000
attachment_vm_scope_vz_lens
  0 -3.181260 0.000988 1.247930 -0.999974 -0.006936 -0.001752 0.500000 0.500000 1 0 1.000000
  0 -3.170620 0.211208 1.416440 -0.982403 0.144008 0.118935 0.309570 0.653076 1 0 1.000000
  0 -3.170620 0.228386 1.392720 -0.982570 0.154805 0.102913 0.294189 0.631592 1 0 1.000000
attachment_vm_scope_vz_lens
  0 -3.170620 0.228386 1.392720 -0.982570 0.154805 0.102913 0.294189 0.631592 1 0 1.000000
  0 -3.170620 0.211208 1.416440 -0.982403 0.144008 0.118935 0.309570 0.653076 1 0 1.000000
  0 -3.103550 0.465600 1.544860 -0.974244 0.188496 0.123762 0.078552 0.769409 1 0 1.000000
attachment_vm_scope_vz_lens
  0 -3.103550 0.465600 1.544860 -0.974244 0.188496 0.123762 0.078552 0.769409 1 0 1.000000
  0 -3.170620 0.211208 1.416440 -0.982403 0.144008 0.118935 0.309570 0.653076 1 0 1.000000
  0 -3.103550 0.431245 1.593120 -0.974231 0.174523 0.142885 0.110168 0.813354 1 0 1.000000
attachment_vm_scope_vz_lens
  0 -3.170620 0.211208 1.416440 -0.982403 0.144008 0.118935 0.309570 0.653076 1 0 1.000000
  0 -3.170620 0.191577 1.438520 -0.982866 0.127138 0.133456 0.327148 0.672852 1 0 1.000000
  0 -3.103550 0.431245 1.593120 -0.974231 0.174523 0.142885 0.110168 0.813354 1 0 1.000000
attachment_vm_scope_vz_lens
  0 -3.103550 0.431245 1.593120 -0.974231 0.174523 0.142885 0.110168 0.813354 1 0 1.000000
  0 -3.170620 0.191577 1.438520 -0.982866 0.127138 0.133456 0.327148 0.672852 1 0 1.000000
  0 -3.103550 0.391164 1.638110 -0.973723 0.160405 0.161659 0.146362 0.853638 1 0 1.000000
attachment_vm_scope_vz_lens
  0 -3.103550 0.391164 1.638110 -0.973723 0.160405 0.161659 0.146362 0.853638 1 0 1.000000
  0 -3.170620 0.191577 1.438520 -0.982866 0.127138 0.133456 0.327148 0.672852 1 0 1.000000
  0 -3.103550 0.346175 1.677370 -0.973084 0.142083 0.181437 0.186646 0.889832 1 0 1.000000
attachment_vm_scope_vz_lens
  0 -3.170620 0.191577 1.438520 -0.982866 0.127138 0.133456 0.327148 0.672852 1 0 1.000000
  0 -3.170620 0.169491 1.457340 -0.982271 0.113198 0.149430 0.346924 0.690430 1 0 1.000000
  0 -3.103550 0.346175 1.677370 -0.973084 0.142083 0.181437 0.186646 0.889832 1 0 1.000000
attachment_vm_scope_vz_lens
  0 -3.170620 0.169491 1.457340 -0.982271 0.113198 0.149430 0.346924 0.690430 1 0 1.000000
  0 -3.170620 0.145770 1.474510 -0.982700 0.097501 0.157465 0.368408 0.705811 1 0 1.000000
  0 -3.103550 0.346175 1.677370 -0.973084 0.142083 0.181437 0.186646 0.889832 1 0 1.000000
attachment_vm_scope_vz_lens
  0 -3.181260 0.000988 1.247930 -0.999974 -0.006936 -0.001752 0.500000 0.500000 1 0 1.000000
  0 -3.170620 0.145770 1.474510 -0.982700 0.097501 0.157465 0.368408 0.705811 1 0 1.000000
  0 -3.170620 0.169491 1.457340 -0.982271 0.113198 0.149430 0.346924 0.690430 1 0 1.000000
attachment_vm_scope_vz_lens
  0 -3.181260 0.000988 1.247930 -0.999974 -0.006936 -0.001752 0.500000 0.500000 1 0 1.000000
  0 -3.170620 0.120412 1.489240 -0.981790 0.082837 0.170959 0.391357 0.718750 1 0 1.000000
  0 -3.170620 0.145770 1.474510 -0.982700 0.097501 0.157465 0.368408 0.705811 1 0 1.000000
attachment_vm_scope_vz_lens
  0 -3.103550 0.518768 1.437700 -0.973748 0.213337 0.079381 0.030502 0.672607 1 0 1.000000
  0 -3.170620 0.242291 1.367360 -0.982991 0.163591 0.083470 0.281250 0.608643 1 0 1.000000
  0 -3.103550 0.495047 1.492510 -0.974050 0.202320 0.101458 0.051910 0.722168 1 0 1.000000
attachment_vm_scope_vz_lens
  0 -3.170620 0.242291 1.367360 -0.982991 0.163591 0.083470 0.281250 0.608643 1 0 1.000000
  0 -3.170620 0.228386 1.392720 -0.982570 0.154805 0.102913 0.294189 0.631592 1 0 1.000000
  0 -3.103550 0.495047 1.492510 -0.974050 0.202320 0.101458 0.051910 0.722168 1 0 1.000000
attachment_vm_scope_vz_lens
  0 -3.103550 0.495047 1.492510 -0.974050 0.202320 0.101458 0.051910 0.722168 1 0 1.000000
  0 -3.170620 0.228386 1.392720 -0.982570 0.154805 0.102913 0.294189 0.631592 1 0 1.000000
  0 -3.103550 0.465600 1.544860 -0.974244 0.188496 0.123762 0.078552 0.769409 1 0 1.000000
attachment_vm_scope_vz_lens
  0 -3.103550 0.346175 1.677370 -0.973084 0.142083 0.181437 0.186646 0.889832 1 0 1.000000
  0 -3.170620 0.145770 1.474510 -0.982700 0.097501 0.157465 0.368408 0.705811 1 0 1.000000
  0 -3.103550 0.297914 1.712550 -0.973653 0.119320 0.194323 0.230591 0.921448 1 0 1.000000
attachment_vm_scope_vz_lens
  0 -3.170620 0.145770 1.474510 -0.982700 0.097501 0.157465 0.368408 0.705811 1 0 1.000000
  0 -3.170620 0.120412 1.489240 -0.981790 0.082837 0.170959 0.391357 0.718750 1 0 1.000000
  0 -3.103550 0.297914 1.712550 -0.973653 0.119320 0.194323 0.230591 0.921448 1 0 1.000000
attachment_vm_scope_vz_lens
  0 -3.103550 0.297914 1.712550 -0.973653 0.119320 0.194323 0.230591 0.921448 1 0 1.000000
  0 -3.170620 0.120412 1.489240 -0.981790 0.082837 0.170959 0.391357 0.718750 1 0 1.000000
  0 -3.103550 0.246381 1.741990 -0.973098 0.099783 0.207661 0.277832 0.948090 1 0 1.000000
attachment_vm_scope_vz_lens
  0 -3.181260 0.000988 1.247930 -0.999974 -0.006936 -0.001752 0.500000 0.500000 1 0 1.000000
  0 -3.170620 0.094237 1.500690 -0.982360 0.060570 0.176919 0.415771 0.729248 1 0 1.000000
  0 -3.170620 0.120412 1.489240 -0.981790 0.082837 0.170959 0.391357 0.718750 1 0 1.000000
attachment_vm_scope_vz_lens
  0 -3.170620 0.120412 1.489240 -0.981790 0.082837 0.170959 0.391357 0.718750 1 0 1.000000
  0 -3.170620 0.094237 1.500690 -0.982360 0.060570 0.176919 0.415771 0.729248 1 0 1.000000
  0 -3.103550 0.246381 1.741990 -0.973098 0.099783 0.207661 0.277832 0.948090 1 0 1.000000
attachment_vm_scope_vz_lens
  0 -3.103550 0.246381 1.741990 -0.973098 0.099783 0.207661 0.277832 0.948090 1 0 1.000000
  0 -3.170620 0.094237 1.500690 -0.982360 0.060570 0.176919 0.415771 0.729248 1 0 1.000000
  0 -3.103550 0.191577 1.765710 -0.972963 0.074662 0.218559 0.327637 0.969498 1 0 1.000000
attachment_vm_scope_vz_lens
  0 -3.103550 0.191577 1.765710 -0.972963 0.074662 0.218559 0.327637 0.969498 1 0 1.000000
  0 -3.170620 0.094237 1.500690 -0.982360 0.060570 0.176919 0.415771 0.729248 1 0 1.000000
  0 -3.103550 0.134318 1.782890 -0.973154 0.052121 0.224173 0.379395 0.985397 1 0 1.000000
attachment_vm_scope_vz_lens
  0 -3.170620 0.094237 1.500690 -0.982360 0.060570 0.176919 0.415771 0.729248 1 0 1.000000
  0 -3.170620 0.065608 1.508870 -0.982368 0.042030 0.182173 0.440918 0.737061 1 0 1.000000
  0 -3.103550 0.134318 1.782890 -0.973154 0.052121 0.224173 0.379395 0.985397 1 0 1.000000
attachment_vm_scope_vz_lens
  0 -3.170620 0.065608 1.508870 -0.982368 0.042030 0.182173 0.440918 0.737061 1 0 1.000000
  0 -3.170620 0.036979 1.514590 -0.982068 0.020372 0.187421 0.467041 0.742188 1 0 1.000000
  0 -3.103550 0.134318 1.782890 -0.973154 0.052121 0.224173 0.379395 0.985397 1 0 1.000000
attachment_vm_scope_vz_lens
  0 -3.181260 0.000988 1.247930 -0.999974 -0.006936 -0.001752 0.500000 0.500000 1 0 1.000000
  0 -3.170620 0.036979 1.514590 -0.982068 0.020372 0.187421 0.467041 0.742188 1 0 1.000000
  0 -3.170620 0.065608 1.508870 -0.982368 0.042030 0.182173 0.440918 0.737061 1 0 1.000000
attachment_vm_scope_vz_lens
  0 -3.181260 0.000988 1.247930 -0.999974 -0.006936 -0.001752 0.500000 0.500000 1 0 1.000000
  0 -3.170620 0.008349 1.517050 -0.982242 -0.001572 0.187613 0.493408 0.744141 1 0 1.000000
  0 -3.170620 0.036979 1.514590 -0.982068 0.020372 0.187421 0.467041 0.742188 1 0 1.000000
attachment_vm_scope_vz_lens
  0 -3.181260 0.000988 1.247930 -0.999974 -0.006936 -0.001752 0.500000 0.500000 1 0 1.000000
  0 -3.170620 -0.021098 1.516230 -0.982214 -0.009425 0.187528 0.520020 0.743408 1 0 1.000000
  0 -3.170620 0.008349 1.517050 -0.982242 -0.001572 0.187613 0.493408 0.744141 1 0 1.000000
attachment_vm_scope_vz_lens
  0 -3.181260 0.000988 1.247930 -0.999974 -0.006936 -0.001752 0.500000 0.500000 1 0 1.000000
  0 -3.170620 -0.049727 1.512140 -0.982276 -0.030712 0.184904 0.545898 0.739990 1 0 1.000000
  0 -3.170620 -0.021098 1.516230 -0.982214 -0.009425 0.187528 0.520020 0.743408 1 0 1.000000
attachment_vm_scope_vz_lens
  0 -3.181260 0.000988 1.247930 -0.999974 -0.006936 -0.001752 0.500000 0.500000 1 0 1.000000
  0 -3.170620 0.065608 1.508870 -0.982368 0.042030 0.182173 0.440918 0.737061 1 0 1.000000
  0 -3.170620 0.094237 1.500690 -0.982360 0.060570 0.176919 0.415771 0.729248 1 0 1.000000
attachment_vm_scope_vz_lens
  0 -3.181260 0.000988 1.247930 -0.999974 -0.006936 -0.001752 0.500000 0.500000 1 0 1.000000
  0 -3.170620 -0.233773 1.380450 -0.982514 -0.160459 0.094437 0.712891 0.620361 1 0 1.000000
  0 -3.170620 -0.218231 1.404990 -0.982160 -0.151827 0.110948 0.698242 0.642578 1 0 1.000000
attachment_vm_scope_vz_lens
  0 -3.181260 0.000988 1.247930 -0.999974 -0.006936 -0.001752 0.500000 0.500000 1 0 1.000000
  0 -3.170620 -0.064451 0.986179 -0.981741 -0.043615 -0.185157 0.559082 0.262695 1 0 1.000000
  0 -3.170620 -0.092262 0.994359 -0.982303 -0.061169 -0.177031 0.584473 0.270508 1 0 1.000000
attachment_vm_scope_vz_lens
  0 -3.181260 0.000988 1.247930 -0.999974 -0.006936 -0.001752 0.500000 0.500000 1 0 1.000000
  0 -3.170620 -0.267310 1.269200 -0.982540 -0.185509 0.014174 0.743652 0.519775 1 0 1.000000
  0 -3.170620 -0.264038 1.298650 -0.982497 -0.182682 0.036418 0.739746 0.546143 1 0 1.000000
attachment_vm_scope_vz_lens
  0 -3.181260 0.000988 1.247930 -0.999974 -0.006936 -0.001752 0.500000 0.500000 1 0 1.000000
  0 -3.170620 -0.218231 1.404990 -0.982160 -0.151827 0.110948 0.698242 0.642578 1 0 1.000000
  0 -3.170620 -0.199417 1.427890 -0.982841 -0.135769 0.124861 0.681641 0.663086 1 0 1.000000
attachment_vm_scope_vz_lens
  0 -3.170620 -0.199417 1.427890 -0.982841 -0.135769 0.124861 0.681641 0.663086 1 0 1.000000
  0 -3.170620 -0.218231 1.404990 -0.982160 -0.151827 0.110948 0.698242 0.642578 1 0 1.000000
  0 -3.103550 -0.409639 1.616020 -0.972863 -0.170558 0.156354 0.872070 0.833984 1 0 1.000000
attachment_vm_scope_vz_lens
  0 -3.103550 -0.409639 1.616020 -0.972863 -0.170558 0.156354 0.872070 0.833984 1 0 1.000000
  0 -3.170620 -0.218231 1.404990 -0.982160 -0.151827 0.110948 0.698242 0.642578 1 0 1.000000
  0 -3.103550 -0.447265 1.569400 -0.973445 -0.185196 0.134564 0.906250 0.791748 1 0 1.000000
attachment_vm_scope_vz_lens
  0 -3.103550 -0.447265 1.569400 -0.973445 -0.185196 0.134564 0.906250 0.791748 1 0 1.000000
  0 -3.170620 -0.218231 1.404990 -0.982160 -0.151827 0.110948 0.698242 0.642578 1 0 1.000000
  0 -3.103550 -0.479166 1.519500 -0.973234 -0.198819 0.115265 0.935547 0.746094 1 0 1.000000
attachment_vm_scope_vz_lens
  0 -3.170620 -0.218231 1.404990 -0.982160 -0.151827 0.110948 0.698242 0.642578 1 0 1.000000
  0 -3.170620 -0.233773 1.380450 -0.982514 -0.160459 0.094437 0.712891 0.620361 1 0 1.000000
  0 -3.103550 -0.479166 1.519500 -0.973234 -0.198819 0.115265 0.935547 0.746094 1 0 1.000000
attachment_vm_scope_vz_lens
  0 -3.170620 -0.233773 1.380450 -0.982514 -0.160459 0.094437 0.712891 0.620361 1 0 1.000000
  0 -3.170620 -0.246860 1.354270 -0.982327 -0.171342 0.075340 0.724609 0.596436 1 0 1.000000
  0 -3.103550 -0.479166 1.519500 -0.973234 -0.198819 0.115265 0.935547 0.746094 1 0 1.000000
attachment_vm_scope_vz_lens
  0 -3.181260 0.000988 1.247930 -0.999974 -0.006936 -0.001752 0.500000 0.500000 1 0 1.000000
  0 -3.170620 -0.246860 1.354270 -0.982327 -0.171342 0.075340 0.724609 0.596436 1 0 1.000000
  0 -3.170620 -0.233773 1.380450 -0.982514 -0.160459 0.094437 0.712891 0.620361 1 0 1.000000
attachment_vm_scope_vz_lens
  0 -3.181260 0.000988 1.247930 -0.999974 -0.006936 -0.001752 0.500000 0.500000 1 0 1.000000
  0 -3.170620 -0.256676 1.326460 -0.982598 -0.177107 0.055981 0.733398 0.571777 1 0 1.000000
  0 -3.170620 -0.246860 1.354270 -0.982327 -0.171342 0.075340 0.724609 0.596436 1 0 1.000000
attachment_vm_scope_vz_lens
  0 -3.181260 0.000988 1.247930 -0.999974 -0.006936 -0.001752 0.500000 0.500000 1 0 1.000000
  0 -3.170620 -0.264038 1.298650 -0.982497 -0.182682 0.036418 0.739746 0.546143 1 0 1.000000
  0 -3.170620 -0.256676 1.326460 -0.982598 -0.177107 0.055981 0.733398 0.571777 1 0 1.000000
attachment_vm_scope_vz_lens
  0 -3.170620 -0.256676 1.326460 -0.982598 -0.177107 0.055981 0.733398 0.571777 1 0 1.000000
  0 -3.170620 -0.264038 1.298650 -0.982497 -0.182682 0.036418 0.739746 0.546143 1 0 1.000000
  0 -3.103550 -0.526609 1.409890 -0.973935 -0.216322 0.068223 0.978027 0.646729 1 0 1.000000
attachment_vm_scope_vz_lens
  0 -3.103550 -0.526609 1.409890 -0.973935 -0.216322 0.068223 0.978027 0.646729 1 0 1.000000
  0 -3.170620 -0.264038 1.298650 -0.982497 -0.182682 0.036418 0.739746 0.546143 1 0 1.000000
  0 -3.103550 -0.540515 1.351820 -0.973518 -0.224473 0.043285 0.991211 0.594238 1 0 1.000000
attachment_vm_scope_vz_lens
  0 -3.103550 -0.540515 1.351820 -0.973518 -0.224473 0.043285 0.991211 0.594238 1 0 1.000000
  0 -3.170620 -0.264038 1.298650 -0.982497 -0.182682 0.036418 0.739746 0.546143 1 0 1.000000
  0 -3.103550 -0.548694 1.292100 -0.973651 -0.227331 0.018024 0.998535 0.540527 1 0 1.000000
attachment_vm_scope_vz_lens
  0 -3.170620 -0.264038 1.298650 -0.982497 -0.182682 0.036418 0.739746 0.546143 1 0 1.000000
  0 -3.170620 -0.267310 1.269200 -0.982540 -0.185509 0.014174 0.743652 0.519775 1 0 1.000000
  0 -3.103550 -0.548694 1.292100 -0.973651 -0.227331 0.018024 0.998535 0.540527 1 0 1.000000
attachment_vm_scope_vz_lens
  0 -3.170620 -0.267310 1.269200 -0.982540 -0.185509 0.014174 0.743652 0.519775 1 0 1.000000
  0 -3.170620 -0.268128 1.240570 -0.982216 -0.187508 -0.009561 0.744141 0.493164 1 0 1.000000
  0 -3.103550 -0.548694 1.292100 -0.973651 -0.227331 0.018024 0.998535 0.540527 1 0 1.000000
attachment_vm_scope_vz_lens
  0 -3.181260 0.000988 1.247930 -0.999974 -0.006936 -0.001752 0.500000 0.500000 1 0 1.000000
  0 -3.170620 -0.268128 1.240570 -0.982216 -0.187508 -0.009561 0.744141 0.493164 1 0 1.000000
  0 -3.170620 -0.267310 1.269200 -0.982540 -0.185509 0.014174 0.743652 0.519775 1 0 1.000000
attachment_vm_scope_vz_lens
  0 -3.181260 0.000988 1.247930 -0.999974 -0.006936 -0.001752 0.500000 0.500000 1 0 1.000000
  0 -3.170620 -0.265674 1.211120 -0.982356 -0.184771 -0.028908 0.742188 0.466797 1 0 1.000000
  0 -3.170620 -0.268128 1.240570 -0.982216 -0.187508 -0.009561 0.744141 0.493164 1 0 1.000000
attachment_vm_scope_vz_lens
  0 -3.181260 0.000988 1.247930 -0.999974 -0.006936 -0.001752 0.500000 0.500000 1 0 1.000000
  0 -3.170620 -0.260766 1.182490 -0.982144 -0.181887 -0.048065 0.737305 0.440918 1 0 1.000000
  0 -3.170620 -0.265674 1.211120 -0.982356 -0.184771 -0.028908 0.742188 0.466797 1 0 1.000000
attachment_vm_scope_vz_lens
  0 -3.170620 -0.265674 1.211120 -0.982356 -0.184771 -0.028908 0.742188 0.466797 1 0 1.000000
  0 -3.170620 -0.260766 1.182490 -0.982144 -0.181887 -0.048065 0.737305 0.440918 1 0 1.000000
  0 -3.103550 -0.545423 1.173500 -0.973353 -0.226583 -0.035263 0.995605 0.432617 1 0 1.000000
attachment_vm_scope_vz_lens
  0 -3.103550 -0.479166 1.519500 -0.973234 -0.198819 0.115265 0.935547 0.746094 1 0 1.000000
  0 -3.170620 -0.246860 1.354270 -0.982327 -0.171342 0.075340 0.724609 0.596436 1 0 1.000000
  0 -3.103550 -0.506160 1.465520 -0.974454 -0.205556 0.090479 0.959473 0.697754 1 0 1.000000
attachment_vm_scope_vz_lens
  0 -3.103550 -0.506160 1.465520 -0.974454 -0.205556 0.090479 0.959473 0.697754 1 0 1.000000
  0 -3.170620 -0.246860 1.354270 -0.982327 -0.171342 0.075340 0.724609 0.596436 1 0 1.000000
  0 -3.103550 -0.526609 1.409890 -0.973935 -0.216322 0.068223 0.978027 0.646729 1 0 1.000000
attachment_vm_scope_vz_lens
  0 -3.170620 -0.246860 1.354270 -0.982327 -0.171342 0.075340 0.724609 0.596436 1 0 1.000000
  0 -3.170620 -0.256676 1.326460 -0.982598 -0.177107 0.055981 0.733398 0.571777 1 0 1.000000
  0 -3.103550 -0.526609 1.409890 -0.973935 -0.216322 0.068223 0.978027 0.646729 1 0 1.000000
attachment_vm_scope_vz_lens
  0 -3.103550 -0.548694 1.292100 -0.973651 -0.227331 0.018024 0.998535 0.540527 1 0 1.000000
  0 -3.170620 -0.268128 1.240570 -0.982216 -0.187508 -0.009561 0.744141 0.493164 1 0 1.000000
  0 -3.103550 -0.550330 1.232390 -0.973899 -0.226928 -0.005007 1.000000 0.486328 1 0 1.000000
attachment_vm_scope_vz_lens
  0 -3.103550 -0.550330 1.232390 -0.973899 -0.226928 -0.005007 1.000000 0.486328 1 0 1.000000
  0 -3.170620 -0.268128 1.240570 -0.982216 -0.187508 -0.009561 0.744141 0.493164 1 0 1.000000
  0 -3.103550 -0.545423 1.173500 -0.973353 -0.226583 -0.035263 0.995605 0.432617 1 0 1.000000
attachment_vm_scope_vz_lens
  0 -3.170620 -0.268128 1.240570 -0.982216 -0.187508 -0.009561 0.744141 0.493164 1 0 1.000000
  0 -3.170620 -0.265674 1.211120 -0.982356 -0.184771 -0.028908 0.742188 0.466797 1 0 1.000000
  0 -3.103550 -0.545423 1.173500 -0.973353 -0.226583 -0.035263 0.995605 0.432617 1 0 1.000000
attachment_vm_scope_vz_lens
  0 -3.181260 0.000988 1.247930 -0.999974 -0.006936 -0.001752 0.500000 0.500000 1 0 1.000000
  0 -3.170620 -0.251768 1.154680 -0.982637 -0.173925 -0.064611 0.729492 0.415527 1 0 1.000000
  0 -3.170620 -0.260766 1.182490 -0.982144 -0.181887 -0.048065 0.737305 0.440918 1 0 1.000000
attachment_vm_scope_vz_lens
  0 -3.103550 -0.320479 1.695370 -0.973369 -0.129694 0.189030 0.791992 0.906250 1 0 1.000000
  0 -3.170620 -0.178968 1.448340 -0.982172 -0.123982 0.141300 0.663086 0.681885 1 0 1.000000
  0 -3.103550 -0.367104 1.658560 -0.973231 -0.151304 0.172998 0.833984 0.872314 1 0 1.000000
attachment_vm_scope_vz_lens
  0 -3.170620 -0.178968 1.448340 -0.982172 -0.123982 0.141300 0.663086 0.681885 1 0 1.000000
  0 -3.170620 -0.199417 1.427890 -0.982841 -0.135769 0.124861 0.681641 0.663086 1 0 1.000000
  0 -3.103550 -0.367104 1.658560 -0.973231 -0.151304 0.172998 0.833984 0.872314 1 0 1.000000
attachment_vm_scope_vz_lens
  0 -3.103550 -0.367104 1.658560 -0.973231 -0.151304 0.172998 0.833984 0.872314 1 0 1.000000
  0 -3.170620 -0.199417 1.427890 -0.982841 -0.135769 0.124861 0.681641 0.663086 1 0 1.000000
  0 -3.103550 -0.409639 1.616020 -0.972863 -0.170558 0.156354 0.872070 0.833984 1 0 1.000000
attachment_vm_scope_vz_lens
  0 -3.103550 -0.545423 1.173500 -0.973353 -0.226583 -0.035263 0.995605 0.432617 1 0 1.000000
  0 -3.170620 -0.260766 1.182490 -0.982144 -0.181887 -0.048065 0.737305 0.440918 1 0 1.000000
  0 -3.103550 -0.534789 1.114600 -0.973407 -0.221018 -0.060248 0.985352 0.379395 1 0 1.000000
attachment_vm_scope_vz_lens
  0 -3.103550 -0.534789 1.114600 -0.973407 -0.221018 -0.060248 0.985352 0.379395 1 0 1.000000
  0 -3.170620 -0.260766 1.182490 -0.982144 -0.181887 -0.048065 0.737305 0.440918 1 0 1.000000
  0 -3.103550 -0.516794 1.057340 -0.973122 -0.214903 -0.082766 0.969727 0.327637 1 0 1.000000
attachment_vm_scope_vz_lens
  0 -3.170620 -0.260766 1.182490 -0.982144 -0.181887 -0.048065 0.737305 0.440918 1 0 1.000000
  0 -3.170620 -0.251768 1.154680 -0.982637 -0.173925 -0.064611 0.729492 0.415527 1 0 1.000000
  0 -3.103550 -0.516794 1.057340 -0.973122 -0.214903 -0.082766 0.969727 0.327637 1 0 1.000000
attachment_vm_scope_vz_lens
  0 -3.170620 -0.251768 1.154680 -0.982637 -0.173925 -0.064611 0.729492 0.415527 1 0 1.000000
  0 -3.170620 -0.240316 1.127690 -0.982405 -0.165396 -0.086749 0.718750 0.391602 1 0 1.000000
  0 -3.103550 -0.516794 1.057340 -0.973122 -0.214903 -0.082766 0.969727 0.327637 1 0 1.000000
attachment_vm_scope_vz_lens
  0 -3.181260 0.000988 1.247930 -0.999974 -0.006936 -0.001752 0.500000 0.500000 1 0 1.000000
  0 -3.170620 -0.240316 1.127690 -0.982405 -0.165396 -0.086749 0.718750 0.391602 1 0 1.000000
  0 -3.170620 -0.251768 1.154680 -0.982637 -0.173925 -0.064611 0.729492 0.415527 1 0 1.000000
attachment_vm_scope_vz_lens
  0 -3.181260 0.000988 1.247930 -0.999974 -0.006936 -0.001752 0.500000 0.500000 1 0 1.000000
  0 -3.170620 -0.226411 1.102330 -0.981964 -0.156481 -0.106119 0.706055 0.368652 1 0 1.000000
  0 -3.170620 -0.240316 1.127690 -0.982405 -0.165396 -0.086749 0.718750 0.391602 1 0 1.000000
attachment_vm_scope_vz_lens
  0 -3.181260 0.000988 1.247930 -0.999974 -0.006936 -0.001752 0.500000 0.500000 1 0 1.000000
  0 -3.170620 -0.209233 1.078610 -0.982714 -0.143218 -0.117314 0.690430 0.347168 1 0 1.000000
  0 -3.170620 -0.226411 1.102330 -0.981964 -0.156481 -0.106119 0.706055 0.368652 1 0 1.000000
attachment_vm_scope_vz_lens
  0 -3.170620 -0.226411 1.102330 -0.981964 -0.156481 -0.106119 0.706055 0.368652 1 0 1.000000
  0 -3.170620 -0.209233 1.078610 -0.982714 -0.143218 -0.117314 0.690430 0.347168 1 0 1.000000
  0 -3.103550 -0.463625 0.950189 -0.973829 -0.190367 -0.124164 0.921387 0.230469 1 0 1.000000
attachment_vm_scope_vz_lens
  0 -3.103550 -0.463625 0.950189 -0.973829 -0.190367 -0.124164 0.921387 0.230469 1 0 1.000000
  0 -3.170620 -0.209233 1.078610 -0.982714 -0.143218 -0.117314 0.690430 0.347168 1 0 1.000000
  0 -3.103550 -0.429269 0.901928 -0.973808 -0.176521 -0.143315 0.889648 0.186523 1 0 1.000000
attachment_vm_scope_vz_lens
  0 -3.103550 -0.429269 0.901928 -0.973808 -0.176521 -0.143315 0.889648 0.186523 1 0 1.000000
  0 -3.170620 -0.209233 1.078610 -0.982714 -0.143218 -0.117314 0.690430 0.347168 1 0 1.000000
  0 -3.103550 -0.389189 0.857757 -0.972941 -0.161395 -0.165338 0.853516 0.146484 1 0 1.000000
attachment_vm_scope_vz_lens
  0 -3.170620 -0.209233 1.078610 -0.982714 -0.143218 -0.117314 0.690430 0.347168 1 0 1.000000
  0 -3.170620 -0.189602 1.057340 -0.981905 -0.131519 -0.136256 0.672852 0.327148 1 0 1.000000
  0 -3.103550 -0.389189 0.857757 -0.972941 -0.161395 -0.165338 0.853516 0.146484 1 0 1.000000
attachment_vm_scope_vz_lens
  0 -3.103550 -0.389189 0.857757 -0.972941 -0.161395 -0.165338 0.853516 0.146484 1 0 1.000000
  0 -3.170620 -0.189602 1.057340 -0.981905 -0.131519 -0.136256 0.672852 0.327148 1 0 1.000000
  0 -3.103550 -0.345018 0.817675 -0.972594 -0.142385 -0.183813 0.813477 0.110352 1 0 1.000000
attachment_vm_scope_vz_lens
  0 -3.170620 -0.189602 1.057340 -0.981905 -0.131519 -0.136256 0.672852 0.327148 1 0 1.000000
  0 -3.170620 -0.167516 1.037710 -0.981974 -0.115614 -0.149536 0.652832 0.309570 1 0 1.000000
  0 -3.103550 -0.345018 0.817675 -0.972594 -0.142385 -0.183813 0.813477 0.110352 1 0 1.000000
attachment_vm_scope_vz_lens
  0 -3.170620 -0.167516 1.037710 -0.981974 -0.115614 -0.149536 0.652832 0.309570 1 0 1.000000
  0 -3.170620 -0.143796 1.020530 -0.982042 -0.098651 -0.160813 0.631348 0.293945 1 0 1.000000
  0 -3.103550 -0.345018 0.817675 -0.972594 -0.142385 -0.183813 0.813477 0.110352 1 0 1.000000
attachment_vm_scope_vz_lens
  0 -3.181260 0.000988 1.247930 -0.999974 -0.006936 -0.001752 0.500000 0.500000 1 0 1.000000
  0 -3.170620 -0.143796 1.020530 -0.982042 -0.098651 -0.160813 0.631348 0.293945 1 0 1.000000
  0 -3.170620 -0.167516 1.037710 -0.981974 -0.115614 -0.149536 0.652832 0.309570 1 0 1.000000
attachment_vm_scope_vz_lens
  0 -3.181260 0.000988 1.247930 -0.999974 -0.006936 -0.001752 0.500000 0.500000 1 0 1.000000
  0 -3.170620 -0.118437 1.006630 -0.982364 -0.079997 -0.169004 0.608398 0.281250 1 0 1.000000
  0 -3.170620 -0.143796 1.020530 -0.982042 -0.098651 -0.160813 0.631348 0.293945 1 0 1.000000
attachment_vm_scope_vz_lens
  0 -3.181260 0.000988 1.247930 -0.999974 -0.006936 -0.001752 0.500000 0.500000 1 0 1.000000
  0 -3.170620 -0.092262 0.994359 -0.982303 -0.061169 -0.177031 0.584473 0.270508 1 0 1.000000
  0 -3.170620 -0.118437 1.006630 -0.982364 -0.079997 -0.169004 0.608398 0.281250 1 0 1.000000
attachment_vm_scope_vz_lens
  0 -3.170620 -0.118437 1.006630 -0.982364 -0.079997 -0.169004 0.608398 0.281250 1 0 1.000000
  0 -3.170620 -0.092262 0.994359 -0.982303 -0.061169 -0.177031 0.584473 0.270508 1 0 1.000000
  0 -3.103550 -0.244406 0.753056 -0.973079 -0.097517 -0.208824 0.722168 0.051758 1 0 1.000000
attachment_vm_scope_vz_lens
  0 -3.103550 -0.345018 0.817675 -0.972594 -0.142385 -0.183813 0.813477 0.110352 1 0 1.000000
  0 -3.170620 -0.143796 1.020530 -0.982042 -0.098651 -0.160813 0.631348 0.293945 1 0 1.000000
  0 -3.103550 -0.295940 0.782503 -0.972861 -0.120672 -0.197433 0.769531 0.078613 1 0 1.000000
attachment_vm_scope_vz_lens
  0 -3.103550 -0.295940 0.782503 -0.972861 -0.120672 -0.197433 0.769531 0.078613 1 0 1.000000
  0 -3.170620 -0.143796 1.020530 -0.982042 -0.098651 -0.160813 0.631348 0.293945 1 0 1.000000
  0 -3.103550 -0.244406 0.753056 -0.973079 -0.097517 -0.208824 0.722168 0.051758 1 0 1.000000
attachment_vm_scope_vz_lens
  0 -3.170620 -0.143796 1.020530 -0.982042 -0.098651 -0.160813 0.631348 0.293945 1 0 1.000000
  0 -3.170620 -0.118437 1.006630 -0.982364 -0.079997 -0.169004 0.608398 0.281250 1 0 1.000000
  0 -3.103550 -0.244406 0.753056 -0.973079 -0.097517 -0.208824 0.722168 0.051758 1 0 1.000000
attachment_vm_scope_vz_lens
  0 -3.103550 -0.516794 1.057340 -0.973122 -0.214903 -0.082766 0.969727 0.327637 1 0 1.000000
  0 -3.170620 -0.240316 1.127690 -0.982405 -0.165396 -0.086749 0.718750 0.391602 1 0 1.000000
  0 -3.103550 -0.493072 1.002540 -0.973364 -0.203922 -0.104773 0.948242 0.277832 1 0 1.000000
attachment_vm_scope_vz_lens
  0 -3.170620 -0.240316 1.127690 -0.982405 -0.165396 -0.086749 0.718750 0.391602 1 0 1.000000
  0 -3.170620 -0.226411 1.102330 -0.981964 -0.156481 -0.106119 0.706055 0.368652 1 0 1.000000
  0 -3.103550 -0.493072 1.002540 -0.973364 -0.203922 -0.104773 0.948242 0.277832 1 0 1.000000
attachment_vm_scope_vz_lens
  0 -3.103550 -0.493072 1.002540 -0.973364 -0.203922 -0.104773 0.948242 0.277832 1 0 1.000000
  0 -3.170620 -0.226411 1.102330 -0.981964 -0.156481 -0.106119 0.706055 0.368652 1 0 1.000000
  0 -3.103550 -0.463625 0.950189 -0.973829 -0.190367 -0.124164 0.921387 0.230469 1 0 1.000000
attachment_vm_scope_vz_lens
  0 -3.103550 -0.244406 0.753056 -0.973079 -0.097517 -0.208824 0.722168 0.051758 1 0 1.000000
  0 -3.170620 -0.092262 0.994359 -0.982303 -0.061169 -0.177031 0.584473 0.270508 1 0 1.000000
  0 -3.103550 -0.189602 0.730152 -0.972713 -0.078095 -0.218472 0.672363 0.030273 1 0 1.000000
attachment_vm_scope_vz_lens
  0 -3.103550 -0.189602 0.730152 -0.972713 -0.078095 -0.218472 0.672363 0.030273 1 0 1.000000
  0 -3.170620 -0.092262 0.994359 -0.982303 -0.061169 -0.177031 0.584473 0.270508 1 0 1.000000
  0 -3.103550 -0.132343 0.712156 -0.972515 -0.051691 -0.227029 0.620605 0.014648 1 0 1.000000
attachment_vm_scope_vz_lens
  0 -3.170620 -0.092262 0.994359 -0.982303 -0.061169 -0.177031 0.584473 0.270508 1 0 1.000000
  0 -3.170620 -0.064451 0.986179 -0.981741 -0.043615 -0.185157 0.559082 0.262695 1 0 1.000000
  0 -3.103550 -0.132343 0.712156 -0.972515 -0.051691 -0.227029 0.620605 0.014648 1 0 1.000000
attachment_vm_scope_vz_lens
  0 -3.170620 -0.064451 0.986179 -0.981741 -0.043615 -0.185157 0.559082 0.262695 1 0 1.000000
  0 -3.170620 -0.035822 0.980454 -0.981455 -0.021990 -0.190426 0.533203 0.257813 1 0 1.000000
  0 -3.103550 -0.132343 0.712156 -0.972515 -0.051691 -0.227029 0.620605 0.014648 1 0 1.000000
attachment_vm_scope_vz_lens
  0 -3.181260 0.000988 1.247930 -0.999974 -0.006936 -0.001752 0.500000 0.500000 1 0 1.000000
  0 -3.170620 -0.035822 0.980454 -0.981455 -0.021990 -0.190426 0.533203 0.257813 1 0 1.000000
  0 -3.170620 -0.064451 0.986179 -0.981741 -0.043615 -0.185157 0.559082 0.262695 1 0 1.000000
attachment_vm_scope_vz_lens
  0 -3.181260 0.000988 1.247930 -0.999974 -0.006936 -0.001752 0.500000 0.500000 1 0 1.000000
  0 -3.170620 -0.006374 0.978000 -0.981681 -0.000077 -0.190531 0.506836 0.255859 1 0 1.000000
  0 -3.170620 -0.035822 0.980454 -0.981455 -0.021990 -0.190426 0.533203 0.257813 1 0 1.000000
attachment_vm_scope_vz_lens
  0 -3.181260 0.000988 1.247930 -0.999974 -0.006936 -0.001752 0.500000 0.500000 1 0 1.000000
  0 -3.170620 0.023073 0.978818 -0.982092 0.012088 -0.188011 0.480225 0.256348 1 0 1.000000
  0 -3.170620 -0.006374 0.978000 -0.981681 -0.000077 -0.190531 0.506836 0.255859 1 0 1.000000
attachment_vm_scope_vz_lens
  0 -3.170620 -0.006374 0.978000 -0.981681 -0.000077 -0.190531 0.506836 0.255859 1 0 1.000000
  0 -3.170620 0.023073 0.978818 -0.982092 0.012088 -0.188011 0.480225 0.256348 1 0 1.000000
  0 -3.103550 0.045976 0.697433 -0.973711 0.013300 -0.227400 0.459473 0.001465 1 0 1.000000
attachment_vm_scope_vz_lens
  0 -3.103550 0.045976 0.697433 -0.973711 0.013300 -0.227400 0.459473 0.001465 1 0 1.000000
  0 -3.170620 0.023073 0.978818 -0.982092 0.012088 -0.188011 0.480225 0.256348 1 0 1.000000
  0 -3.103550 0.104871 0.705613 -0.973712 0.037922 -0.224605 0.405762 0.008789 1 0 1.000000
attachment_vm_scope_vz_lens
  0 -3.170620 0.023073 0.978818 -0.982092 0.012088 -0.188011 0.480225 0.256348 1 0 1.000000
  0 -3.170620 0.051702 0.982908 -0.982717 0.028892 -0.182844 0.453857 0.260254 1 0 1.000000
  0 -3.103550 0.104871 0.705613 -0.973712 0.037922 -0.224605 0.405762 0.008789 1 0 1.000000
attachment_vm_scope_vz_lens
  0 -3.103550 0.104871 0.705613 -0.973712 0.037922 -0.224605 0.405762 0.008789 1 0 1.000000
  0 -3.170620 0.051702 0.982908 -0.982717 0.028892 -0.182844 0.453857 0.260254 1 0 1.000000
  0 -3.103550 0.162947 0.720336 -0.972986 0.064886 -0.221556 0.353271 0.021973 1 0 1.000000
attachment_vm_scope_vz_lens
  0 -3.170620 0.051702 0.982908 -0.982717 0.028892 -0.182844 0.453857 0.260254 1 0 1.000000
  0 -3.170620 0.080331 0.990269 -0.982824 0.050465 -0.177513 0.428223 0.266602 1 0 1.000000
  0 -3.103550 0.162947 0.720336 -0.972986 0.064886 -0.221556 0.353271 0.021973 1 0 1.000000
attachment_vm_scope_vz_lens
  0 -3.170620 0.080331 0.990269 -0.982824 0.050465 -0.177513 0.428223 0.266602 1 0 1.000000
  0 -3.170620 0.107325 1.000080 -0.982643 0.069425 -0.172025 0.403564 0.275391 1 0 1.000000
  0 -3.103550 0.162947 0.720336 -0.972986 0.064886 -0.221556 0.353271 0.021973 1 0 1.000000
attachment_vm_scope_vz_lens
  0 -3.181260 0.000988 1.247930 -0.999974 -0.006936 -0.001752 0.500000 0.500000 1 0 1.000000
  0 -3.170620 0.107325 1.000080 -0.982643 0.069425 -0.172025 0.403564 0.275391 1 0 1.000000
  0 -3.170620 0.080331 0.990269 -0.982824 0.050465 -0.177513 0.428223 0.266602 1 0 1.000000
attachment_vm_scope_vz_lens
  0 -3.181260 0.000988 1.247930 -0.999974 -0.006936 -0.001752 0.500000 0.500000 1 0 1.000000
  0 -3.170620 0.133500 1.013170 -0.982288 0.091072 -0.163758 0.379639 0.287109 1 0 1.000000
  0 -3.170620 0.107325 1.000080 -0.982643 0.069425 -0.172025 0.403564 0.275391 1 0 1.000000
attachment_vm_scope_vz_lens
  0 -3.181260 0.000988 1.247930 -0.999974 -0.006936 -0.001752 0.500000 0.500000 1 0 1.000000
  0 -3.170620 0.158040 1.028710 -0.983002 0.105228 -0.150443 0.357422 0.301758 1 0 1.000000
  0 -3.170620 0.133500 1.013170 -0.982288 0.091072 -0.163758 0.379639 0.287109 1 0 1.000000
attachment_vm_scope_vz_lens
  0 -3.170620 0.133500 1.013170 -0.982288 0.091072 -0.163758 0.379639 0.287109 1 0 1.000000
  0 -3.170620 0.158040 1.028710 -0.983002 0.105228 -0.150443 0.357422 0.301758 1 0 1.000000
  0 -3.103550 0.272557 0.767779 -0.974160 0.108594 -0.198038 0.253906 0.064453 1 0 1.000000
attachment_vm_scope_vz_lens
  0 -3.103550 0.272557 0.767779 -0.974160 0.108594 -0.198038 0.253906 0.064453 1 0 1.000000
  0 -3.170620 0.158040 1.028710 -0.983002 0.105228 -0.150443 0.357422 0.301758 1 0 1.000000
  0 -3.103550 0.322453 0.799681 -0.972942 0.132233 -0.189466 0.208252 0.093750 1 0 1.000000
attachment_vm_scope_vz_lens
  0 -3.103550 0.162947 0.720336 -0.972986 0.064886 -0.221556 0.353271 0.021973 1 0 1.000000
  0 -3.170620 0.107325 1.000080 -0.982643 0.069425 -0.172025 0.403564 0.275391 1 0 1.000000
  0 -3.103550 0.218570 0.740785 -0.974135 0.086405 -0.208796 0.302246 0.040527 1 0 1.000000
attachment_vm_scope_vz_lens
  0 -3.103550 0.218570 0.740785 -0.974135 0.086405 -0.208796 0.302246 0.040527 1 0 1.000000
  0 -3.170620 0.107325 1.000080 -0.982643 0.069425 -0.172025 0.403564 0.275391 1 0 1.000000
  0 -3.103550 0.272557 0.767779 -0.974160 0.108594 -0.198038 0.253906 0.064453 1 0 1.000000
attachment_vm_scope_vz_lens
  0 -3.170620 0.107325 1.000080 -0.982643 0.069425 -0.172025 0.403564 0.275391 1 0 1.000000
  0 -3.170620 0.133500 1.013170 -0.982288 0.091072 -0.163758 0.379639 0.287109 1 0 1.000000
  0 -3.103550 0.272557 0.767779 -0.974160 0.108594 -0.198038 0.253906 0.064453 1 0 1.000000
attachment_vm_scope_vz_lens
  0 -3.103550 -0.013736 0.695797 -0.972648 -0.003735 -0.232254 0.513672 0.000000 1 0 1.000000
  0 -3.170620 -0.006374 0.978000 -0.981681 -0.000077 -0.190531 0.506836 0.255859 1 0 1.000000
  0 -3.103550 0.045976 0.697433 -0.973711 0.013300 -0.227400 0.459473 0.001465 1 0 1.000000
attachment_vm_scope_vz_lens
  0 -3.103550 -0.073449 0.700705 -0.972274 -0.027843 -0.232179 0.567383 0.004395 1 0 1.000000
  0 -3.170620 -0.006374 0.978000 -0.981681 -0.000077 -0.190531 0.506836 0.255859 1 0 1.000000
  0 -3.103550 -0.013736 0.695797 -0.972648 -0.003735 -0.232254 0.513672 0.000000 1 0 1.000000
attachment_vm_scope_vz_lens
  0 -3.170620 -0.035822 0.980454 -0.981455 -0.021990 -0.190426 0.533203 0.257813 1 0 1.000000
  0 -3.170620 -0.006374 0.978000 -0.981681 -0.000077 -0.190531 0.506836 0.255859 1 0 1.000000
  0 -3.103550 -0.073449 0.700705 -0.972274 -0.027843 -0.232179 0.567383 0.004395 1 0 1.000000
attachment_vm_scope_vz_lens
  0 -3.103550 -0.132343 0.712156 -0.972515 -0.051691 -0.227029 0.620605 0.014648 1 0 1.000000
  0 -3.170620 -0.035822 0.980454 -0.981455 -0.021990 -0.190426 0.533203 0.257813 1 0 1.000000
  0 -3.103550 -0.073449 0.700705 -0.972274 -0.027843 -0.232179 0.567383 0.004395 1 0 1.000000
attachment_vm_scope_vz_lens
  0 -3.103550 0.134318 1.782890 -0.973154 0.052121 0.224173 0.379395 0.985397 1 0 1.000000
  0 -3.170620 0.036979 1.514590 -0.982068 0.020372 0.187421 0.467041 0.742188 1 0 1.000000
  0 -3.103550 0.075424 1.794340 -0.972947 0.028767 0.229230 0.432373 0.995602 1 0 1.000000
attachment_vm_scope_vz_lens
  0 -3.170620 0.036979 1.514590 -0.982068 0.020372 0.187421 0.467041 0.742188 1 0 1.000000
  0 -3.170620 0.008349 1.517050 -0.982242 -0.001572 0.187613 0.493408 0.744141 1 0 1.000000
  0 -3.103550 0.075424 1.794340 -0.972947 0.028767 0.229230 0.432373 0.995602 1 0 1.000000
attachment_vm_scope_vz_lens
  0 -3.103550 0.075424 1.794340 -0.972947 0.028767 0.229230 0.432373 0.995602 1 0 1.000000
  0 -3.170620 0.008349 1.517050 -0.982242 -0.001572 0.187613 0.493408 0.744141 1 0 1.000000
  0 -3.103550 0.015711 1.799250 -0.972753 0.001548 0.231839 0.486572 1.000000 1 0 1.000000
attachment_vm_scope_vz_lens
  0 -3.103550 0.015711 1.799250 -0.972753 0.001548 0.231839 0.486572 1.000000 1 0 1.000000
  0 -3.170620 0.008349 1.517050 -0.982242 -0.001572 0.187613 0.493408 0.744141 1 0 1.000000
  0 -3.103550 -0.044001 1.797620 -0.973255 -0.013217 0.229348 0.540527 0.998530 1 0 1.000000
attachment_vm_scope_vz_lens
  0 -3.170620 0.008349 1.517050 -0.982242 -0.001572 0.187613 0.493408 0.744141 1 0 1.000000
  0 -3.170620 -0.021098 1.516230 -0.982214 -0.009425 0.187528 0.520020 0.743408 1 0 1.000000
  0 -3.103550 -0.044001 1.797620 -0.973255 -0.013217 0.229348 0.540527 0.998530 1 0 1.000000
attachment_vm_scope_vz_lens
  0 -3.103550 -0.044001 1.797620 -0.973255 -0.013217 0.229348 0.540527 0.998530 1 0 1.000000
  0 -3.170620 -0.021098 1.516230 -0.982214 -0.009425 0.187528 0.520020 0.743408 1 0 1.000000
  0 -3.103550 -0.102896 1.789440 -0.973168 -0.040276 0.226543 0.594238 0.991219 1 0 1.000000
attachment_vm_scope_vz_lens
  0 -3.170620 -0.021098 1.516230 -0.982214 -0.009425 0.187528 0.520020 0.743408 1 0 1.000000
  0 -3.170620 -0.049727 1.512140 -0.982276 -0.030712 0.184904 0.545898 0.739990 1 0 1.000000
  0 -3.103550 -0.102896 1.789440 -0.973168 -0.040276 0.226543 0.594238 0.991219 1 0 1.000000
attachment_vm_scope_vz_lens
  0 -3.170620 -0.049727 1.512140 -0.982276 -0.030712 0.184904 0.545898 0.739990 1 0 1.000000
  0 -3.170620 -0.078356 1.505600 -0.982472 -0.050342 0.179481 0.571777 0.733643 1 0 1.000000
  0 -3.103550 -0.102896 1.789440 -0.973168 -0.040276 0.226543 0.594238 0.991219 1 0 1.000000
attachment_vm_scope_vz_lens
  0 -3.181260 0.000988 1.247930 -0.999974 -0.006936 -0.001752 0.500000 0.500000 1 0 1.000000
  0 -3.170620 -0.078356 1.505600 -0.982472 -0.050342 0.179481 0.571777 0.733643 1 0 1.000000
  0 -3.170620 -0.049727 1.512140 -0.982276 -0.030712 0.184904 0.545898 0.739990 1 0 1.000000
attachment_vm_scope_vz_lens
  0 -3.181260 0.000988 1.247930 -0.999974 -0.006936 -0.001752 0.500000 0.500000 1 0 1.000000
  0 -3.170620 -0.105351 1.494960 -0.982304 -0.069791 0.173806 0.596680 0.724365 1 0 1.000000
  0 -3.170620 -0.078356 1.505600 -0.982472 -0.050342 0.179481 0.571777 0.733643 1 0 1.000000
attachment_vm_scope_vz_lens
  0 -3.181260 0.000988 1.247930 -0.999974 -0.006936 -0.001752 0.500000 0.500000 1 0 1.000000
  0 -3.170620 -0.131526 1.481880 -0.982187 -0.088560 0.165725 0.620117 0.712646 1 0 1.000000
  0 -3.170620 -0.105351 1.494960 -0.982304 -0.069791 0.173806 0.596680 0.724365 1 0 1.000000
attachment_vm_scope_vz_lens
  0 -3.170620 -0.105351 1.494960 -0.982304 -0.069791 0.173806 0.596680 0.724365 1 0 1.000000
  0 -3.170620 -0.131526 1.481880 -0.982187 -0.088560 0.165725 0.620117 0.712646 1 0 1.000000
  0 -3.103550 -0.217413 1.754260 -0.973008 -0.089226 0.212824 0.697754 0.959473 1 0 1.000000
attachment_vm_scope_vz_lens
  0 -3.103550 -0.217413 1.754260 -0.973008 -0.089226 0.212824 0.697754 0.959473 1 0 1.000000
  0 -3.170620 -0.131526 1.481880 -0.982187 -0.088560 0.165725 0.620117 0.712646 1 0 1.000000
  0 -3.103550 -0.270582 1.728090 -0.973543 -0.110758 0.199868 0.746094 0.935425 1 0 1.000000
attachment_vm_scope_vz_lens
  0 -3.103550 -0.270582 1.728090 -0.973543 -0.110758 0.199868 0.746094 0.935425 1 0 1.000000
  0 -3.170620 -0.131526 1.481880 -0.982187 -0.088560 0.165725 0.620117 0.712646 1 0 1.000000
  0 -3.103550 -0.320479 1.695370 -0.973369 -0.129694 0.189030 0.791992 0.906250 1 0 1.000000
attachment_vm_scope_vz_lens
  0 -3.170620 -0.131526 1.481880 -0.982187 -0.088560 0.165725 0.620117 0.712646 1 0 1.000000
  0 -3.170620 -0.156065 1.466330 -0.981815 -0.109512 0.155069 0.642578 0.698486 1 0 1.000000
  0 -3.103550 -0.320479 1.695370 -0.973369 -0.129694 0.189030 0.791992 0.906250 1 0 1.000000
attachment_vm_scope_vz_lens
  0 -3.170620 -0.156065 1.466330 -0.981815 -0.109512 0.155069 0.642578 0.698486 1 0 1.000000
  0 -3.170620 -0.178968 1.448340 -0.982172 -0.123982 0.141300 0.663086 0.681885 1 0 1.000000
  0 -3.103550 -0.320479 1.695370 -0.973369 -0.129694 0.189030 0.791992 0.906250 1 0 1.000000
attachment_vm_scope_vz_lens
  0 -3.181260 0.000988 1.247930 -0.999974 -0.006936 -0.001752 0.500000 0.500000 1 0 1.000000
  0 -3.170620 -0.178968 1.448340 -0.982172 -0.123982 0.141300 0.663086 0.681885 1 0 1.000000
  0 -3.170620 -0.156065 1.466330 -0.981815 -0.109512 0.155069 0.642578 0.698486 1 0 1.000000
attachment_vm_scope_vz_lens
  0 -3.181260 0.000988 1.247930 -0.999974 -0.006936 -0.001752 0.500000 0.500000 1 0 1.000000
  0 -3.170620 -0.199417 1.427890 -0.982841 -0.135769 0.124861 0.681641 0.663086 1 0 1.000000
  0 -3.170620 -0.178968 1.448340 -0.982172 -0.123982 0.141300 0.663086 0.681885 1 0 1.000000
attachment_vm_scope_vz_lens
  0 -3.103550 -0.102896 1.789440 -0.973168 -0.040276 0.226543 0.594238 0.991219 1 0 1.000000
  0 -3.170620 -0.078356 1.505600 -0.982472 -0.050342 0.179481 0.571777 0.733643 1 0 1.000000
  0 -3.103550 -0.160972 1.774710 -0.973107 -0.063527 0.221420 0.646973 0.978149 1 0 1.000000
attachment_vm_scope_vz_lens
  0 -3.103550 -0.160972 1.774710 -0.973107 -0.063527 0.221420 0.646973 0.978149 1 0 1.000000
  0 -3.170620 -0.078356 1.505600 -0.982472 -0.050342 0.179481 0.571777 0.733643 1 0 1.000000
  0 -3.103550 -0.217413 1.754260 -0.973008 -0.089226 0.212824 0.697754 0.959473 1 0 1.000000
attachment_vm_scope_vz_lens
  0 -3.170620 -0.078356 1.505600 -0.982472 -0.050342 0.179481 0.571777 0.733643 1 0 1.000000
  0 -3.170620 -0.105351 1.494960 -0.982304 -0.069791 0.173806 0.596680 0.724365 1 0 1.000000
  0 -3.103550 -0.217413 1.754260 -0.973008 -0.089226 0.212824 0.697754 0.959473 1 0 1.000000
end
