// Created by Crowbar 0.74
version 1
nodes
  0 "ValveBiped.Bip01_R_Hand" -1
  1 "tag_pistol_offset" 0
  2 "tag_reflex" 1
  3 "tag_barrel_attach" 1
  4 "tag_scope" 3
  5 "tag_brass" 1
  6 "tag_laser_attach" 1
  7 "tag_mag_attach" 1
  8 "tag_stock_attach" 1
  9 "j_trigger" 8
  10 "tag_trigger_hide" 9
  11 "j_golf21_magrel" 1
end
skeleton
  time 0
    0 0.000000 0.000000 0.000000 0.000000 0.000000 -1.570796
    1 -8.781250 0.000000 1.214844 0.000000 0.000000 0.000000
    2 -1.209961 0.000000 1.560547 0.000000 0.000000 0.000000
    3 5.561000 0.000000 1.165000 0.000000 0.000000 0.000000
    4 -6.771000 0.000000 0.396000 0.000000 0.000000 0.000000
    5 1.771000 -0.314000 1.250000 0.000000 0.000000 -1.570796
    6 3.818000 0.000000 -0.014000 0.000000 0.000000 0.000000
    7 -0.470000 0.000000 -3.437000 0.000000 0.000000 0.000000
    8 -2.238000 0.000000 -3.188000 0.000000 0.000000 0.000000
    9 3.319000 0.000000 3.458000 0.000000 0.000000 0.000000
    10 0.000000 0.000000 0.000000 0.000000 0.000000 0.000000
    11 0.533000 0.511000 -0.841000 0.000000 0.000000 0.000000
end
