// Created by Crowbar 0.74
version 1
nodes
  0 "root" -1
end
skeleton
  time 0
    0 0.000000 0.000000 0.000000 0.000000 0.000000 0.000000
end
triangles
weapon_vm_sh_aalpha12_shells
  0 1.569780 -0.017534 -0.407675 -0.103753 0.783112 -0.613164 0.530491 0.284186 1 0 1.000000
  0 1.323585 -0.021617 -0.371231 -0.103753 0.783112 -0.613164 0.472888 0.288525 1 0 1.000000
  0 1.581645 0.104908 -0.253304 -0.103753 0.783112 -0.613164 0.528894 0.244152 1 0 1.000000
weapon_vm_sh_aalpha12_shells
  0 1.434323 0.198706 0.214692 0.027767 -0.774367 -0.632127 0.586351 0.621693 1 0 1.000000
  0 1.569780 0.408822 0.108086 0.225298 -0.552426 -0.802538 0.612489 0.584009 1 0 1.000000
  0 1.589555 0.294156 0.197558 0.261296 -0.565387 -0.782344 0.614343 0.602558 1 0 1.000000
weapon_vm_sh_aalpha12_shells
  0 1.434323 0.198706 0.214692 0.027767 -0.774367 -0.632127 0.586351 0.621693 1 0 1.000000
  0 1.328529 0.348359 0.090027 0.058734 -0.614103 -0.787038 0.564585 0.582213 1 0 1.000000
  0 1.569780 0.408822 0.108086 0.225298 -0.552426 -0.802538 0.612489 0.584009 1 0 1.000000
weapon_vm_sh_aalpha12_shells
  0 1.324575 -0.268916 0.197999 0.083678 0.790169 -0.607150 0.541842 0.700941 1 0 1.000000
  0 1.567804 -0.102503 0.279275 0.102156 0.316678 -0.943016 0.611616 0.680693 1 0 1.000000
  0 1.581645 -0.190007 0.290836 0.302751 0.125263 -0.944802 0.609595 0.715855 1 0 1.000000
weapon_vm_sh_aalpha12_shells
  0 1.324575 -0.016225 0.338103 0.040656 0.214670 -0.975840 0.564026 0.672060 1 0 1.000000
  0 1.567804 -0.102503 0.279275 0.102156 0.316678 -0.943016 0.611616 0.680693 1 0 1.000000
  0 1.324575 -0.268916 0.197999 0.083678 0.790169 -0.607150 0.541842 0.700941 1 0 1.000000
weapon_vm_sh_aalpha12_shells
  0 1.324575 -0.016225 0.338103 0.040656 0.214670 -0.975840 0.564026 0.672060 1 0 1.000000
  0 1.586590 0.103395 0.394894 0.022259 -0.320352 -0.947037 0.619157 0.656254 1 0 1.000000
  0 1.567804 -0.102503 0.279275 0.102156 0.316678 -0.943016 0.611616 0.680693 1 0 1.000000
weapon_vm_sh_aalpha12_shells
  0 1.328529 0.129920 0.312693 0.071936 -0.561567 -0.824299 0.565276 0.643734 1 0 1.000000
  0 1.586590 0.103395 0.394894 0.022259 -0.320352 -0.947037 0.619157 0.656254 1 0 1.000000
  0 1.324575 -0.016225 0.338103 0.040656 0.214670 -0.975840 0.564026 0.672060 1 0 1.000000
weapon_vm_sh_aalpha12_shells
  0 1.328529 0.129920 0.312693 0.071936 -0.561567 -0.824299 0.565276 0.643734 1 0 1.000000
  0 1.434323 0.198706 0.214692 0.027767 -0.774367 -0.632127 0.586351 0.621693 1 0 1.000000
  0 1.586590 0.103395 0.394894 0.022259 -0.320352 -0.947037 0.619157 0.656254 1 0 1.000000
weapon_vm_sh_aalpha12_shells
  0 1.434323 0.198706 0.214692 0.027767 -0.774367 -0.632127 0.586351 0.621693 1 0 1.000000
  0 1.566815 0.183942 0.174472 -0.200418 -0.925856 -0.320348 0.612710 0.618677 1 0 1.000000
  0 1.586590 0.103395 0.394894 0.022259 -0.320352 -0.947037 0.619157 0.656254 1 0 1.000000
weapon_vm_sh_aalpha12_shells
  0 1.572747 0.026427 0.388798 0.966040 -0.187800 0.177478 0.599583 0.493755 1 0 1.000000
  0 1.567804 -0.102503 0.279275 0.966040 -0.187800 0.177478 0.636338 0.497052 1 0 1.000000
  0 1.586590 0.103395 0.394894 0.966040 -0.187800 0.177478 0.584719 0.502349 1 0 1.000000
weapon_vm_sh_aalpha12_shells
  0 1.564837 0.283140 -0.249848 -0.038563 -0.289197 0.956492 0.612222 0.516627 1 0 1.000000
  0 1.330506 0.275067 -0.195990 0.104268 -0.488655 0.866224 0.565005 0.524107 1 0 1.000000
  0 1.318641 0.016622 -0.340356 0.078491 0.008780 0.996876 0.562491 0.465033 1 0 1.000000
weapon_vm_sh_aalpha12_shells
  0 1.564837 0.283140 -0.249848 -0.038563 -0.289197 0.956492 0.612222 0.516627 1 0 1.000000
  0 1.318641 0.016622 -0.340356 0.078491 0.008780 0.996876 0.562491 0.465033 1 0 1.000000
  0 1.581645 0.104908 -0.253304 -0.299707 -0.046740 0.952886 0.614141 0.487812 1 0 1.000000
weapon_vm_sh_aalpha12_shells
  0 1.320620 -0.261758 -0.220664 0.118312 0.722854 0.680797 0.562597 0.403996 1 0 1.000000
  0 1.569780 -0.017534 -0.407675 0.287361 0.380059 0.879192 0.612562 0.457543 1 0 1.000000
  0 1.318641 0.016622 -0.340356 0.078491 0.008780 0.996876 0.562491 0.465033 1 0 1.000000
weapon_vm_sh_aalpha12_shells
  0 1.584611 -0.308560 0.241201 0.105626 0.810482 -0.576162 0.614677 0.311540 1 0 1.000000
  0 1.324575 -0.268916 0.197999 0.083678 0.790169 -0.607150 0.562920 0.316592 1 0 1.000000
  0 1.581645 -0.190007 0.290836 0.302751 0.125263 -0.944802 0.610328 0.288117 1 0 1.000000
weapon_vm_sh_aalpha12_shells
  0 1.324575 -0.268916 0.197999 0.083678 0.790169 -0.607150 0.562920 0.316592 1 0 1.000000
  0 1.584611 -0.308560 0.241201 0.105626 0.810482 -0.576162 0.614677 0.311540 1 0 1.000000
  0 1.329517 -0.325644 -0.089750 0.052486 0.995143 0.083280 0.563906 0.375183 1 0 1.000000
weapon_vm_sh_aalpha12_shells
  0 1.329517 -0.325644 -0.089750 0.052486 0.995143 0.083280 0.563906 0.375183 1 0 1.000000
  0 1.584611 -0.308560 0.241201 0.105626 0.810482 -0.576162 0.614677 0.311540 1 0 1.000000
  0 1.571759 -0.268505 0.023878 -0.222815 0.974743 -0.015144 0.611296 0.350614 1 0 1.000000
weapon_vm_sh_aalpha12_shells
  0 1.329517 -0.325644 -0.089750 0.052486 0.995143 0.083280 0.563906 0.375183 1 0 1.000000
  0 1.571759 -0.268505 0.023878 -0.222815 0.974743 -0.015144 0.611296 0.350614 1 0 1.000000
  0 1.584611 -0.361531 -0.208007 0.078210 0.988266 -0.131198 0.616237 0.389172 1 0 1.000000
weapon_vm_sh_aalpha12_shells
  0 1.584611 -0.361531 -0.208007 0.078210 0.988266 -0.131198 0.616237 0.389172 1 0 1.000000
  0 1.320620 -0.261758 -0.220664 0.118312 0.722854 0.680797 0.562597 0.403996 1 0 1.000000
  0 1.329517 -0.325644 -0.089750 0.052486 0.995143 0.083280 0.563906 0.375183 1 0 1.000000
weapon_vm_sh_aalpha12_shells
  0 -0.287068 0.278508 -0.202352 0.045347 -0.998900 -0.011931 0.526675 0.504048 1 0 1.000000
  0 1.328529 0.348359 0.090027 0.114339 -0.967659 0.224863 0.368610 0.472095 1 0 1.000000
  0 -0.287068 0.258928 0.226205 0.051382 -0.997638 -0.045580 0.526516 0.455708 1 0 1.000000
weapon_vm_sh_aalpha12_shells
  0 -0.287068 0.278508 -0.202352 0.045347 -0.998900 -0.011931 0.526675 0.504048 1 0 1.000000
  0 1.330506 0.275067 -0.195990 -0.007280 -0.968865 0.247481 0.368717 0.504566 1 0 1.000000
  0 1.328529 0.348359 0.090027 0.114339 -0.967659 0.224863 0.368610 0.472095 1 0 1.000000
weapon_vm_sh_aalpha12_shells
  0 -0.287068 0.278508 -0.202352 1.000000 0.000000 0.000000 0.541512 0.620583 1 0 1.000000
  0 -0.287068 -0.331794 -0.091762 1.000000 0.000000 0.000000 0.602675 0.696784 1 0 1.000000
  0 -0.287068 -0.134850 -0.316346 1.000000 0.000000 0.000000 0.556743 0.686437 1 0 1.000000
weapon_vm_sh_aalpha12_shells
  0 -0.287068 0.258928 0.226205 1.000000 0.000000 0.000000 0.602328 0.591027 1 0 1.000000
  0 -0.287068 -0.331794 -0.091762 1.000000 0.000000 0.000000 0.602675 0.696784 1 0 1.000000
  0 -0.287068 0.278508 -0.202352 1.000000 0.000000 0.000000 0.541512 0.620583 1 0 1.000000
weapon_vm_sh_aalpha12_shells
  0 -0.287068 -0.015372 0.343827 1.000000 0.000000 0.000000 0.639244 0.620263 1 0 1.000000
  0 -0.287068 -0.331794 -0.091762 1.000000 0.000000 0.000000 0.602675 0.696784 1 0 1.000000
  0 -0.287068 0.258928 0.226205 1.000000 0.000000 0.000000 0.602328 0.591027 1 0 1.000000
weapon_vm_sh_aalpha12_shells
  0 1.584611 -0.308560 0.241201 0.902729 -0.347481 0.253649 0.581138 0.243493 1 0 1.000000
  0 1.573735 -0.331639 0.248292 0.447320 -0.733370 0.511931 0.583354 0.248857 1 0 1.000000
  0 1.571759 -0.268505 0.023878 0.550824 -0.802156 -0.230519 0.533305 0.249021 1 0 1.000000
weapon_vm_sh_aalpha12_shells
  0 1.285025 0.372961 0.063693 0.028483 0.992244 0.120994 0.465826 0.666420 1 0 1.000000
  0 -0.588632 0.390232 -0.026640 0.039277 0.997986 -0.049804 0.044508 0.688188 1 0 1.000000
  0 -0.621261 0.319667 0.221551 -0.009612 0.842330 0.538876 0.037060 0.650309 1 0 1.000000
weapon_vm_sh_aalpha12_shells
  0 -0.588632 0.390232 -0.026640 0.039277 0.997986 -0.049804 0.044508 0.688188 1 0 1.000000
  0 1.285025 0.372961 0.063693 0.028483 0.992244 0.120994 0.465826 0.666420 1 0 1.000000
  0 1.285025 0.320187 -0.177841 0.002829 0.903047 -0.429532 0.465529 0.724404 1 0 1.000000
weapon_vm_sh_aalpha12_shells
  0 1.285025 0.372961 0.063693 0.028483 0.992244 0.120994 0.465826 0.666420 1 0 1.000000
  0 1.482772 0.284481 -0.265407 0.199475 0.719950 -0.664741 0.511498 0.746165 1 0 1.000000
  0 1.285025 0.320187 -0.177841 0.002829 0.903047 -0.429532 0.465529 0.724404 1 0 1.000000
weapon_vm_sh_aalpha12_shells
  0 -0.588632 0.390232 -0.026640 0.039277 0.997986 -0.049804 0.044508 0.688188 1 0 1.000000
  0 1.285025 0.320187 -0.177841 0.002829 0.903047 -0.429532 0.465529 0.724404 1 0 1.000000
  0 -0.588632 0.288378 -0.263793 0.056395 0.739121 -0.671208 0.044695 0.745012 1 0 1.000000
weapon_vm_sh_aalpha12_shells
  0 -0.588632 0.288378 -0.263793 0.056395 0.739121 -0.671208 0.044695 0.745012 1 0 1.000000
  0 1.285025 0.320187 -0.177841 0.002829 0.903047 -0.429532 0.465529 0.724404 1 0 1.000000
  0 1.260306 0.147238 -0.361993 0.087658 0.385014 -0.918738 0.458877 0.780712 1 0 1.000000
weapon_vm_sh_aalpha12_shells
  0 1.285025 0.320187 -0.177841 0.002829 0.903047 -0.429532 0.465529 0.724404 1 0 1.000000
  0 1.482772 0.284481 -0.265407 0.199475 0.719950 -0.664741 0.511498 0.746165 1 0 1.000000
  0 1.260306 0.147238 -0.361993 0.087658 0.385014 -0.918738 0.458877 0.780712 1 0 1.000000
weapon_vm_sh_aalpha12_shells
  0 1.260306 0.147238 -0.361993 0.087658 0.385014 -0.918738 0.458877 0.780712 1 0 1.000000
  0 1.482772 0.284481 -0.265407 0.199475 0.719950 -0.664741 0.511498 0.746165 1 0 1.000000
  0 1.581645 0.104908 -0.253304 0.302818 0.118535 -0.945648 0.530671 0.785656 1 0 1.000000
weapon_vm_sh_aalpha12_shells
  0 1.564837 0.283140 -0.249848 0.120708 0.815243 -0.566400 0.528589 0.746384 1 0 1.000000
  0 1.581645 0.104908 -0.253304 0.302818 0.118535 -0.945648 0.530671 0.785656 1 0 1.000000
  0 1.482772 0.284481 -0.265407 0.199475 0.719950 -0.664741 0.511498 0.746165 1 0 1.000000
weapon_vm_sh_aalpha12_shells
  0 1.577690 0.258955 -0.117531 0.175680 0.967412 -0.182348 0.534343 0.714474 1 0 1.000000
  0 1.564837 0.283140 -0.249848 0.120708 0.815243 -0.566400 0.528589 0.746384 1 0 1.000000
  0 1.482772 0.284481 -0.265407 0.199475 0.719950 -0.664741 0.511498 0.746165 1 0 1.000000
weapon_vm_sh_aalpha12_shells
  0 1.285025 0.372961 0.063693 0.028483 0.992244 0.120994 0.465826 0.666420 1 0 1.000000
  0 1.577690 0.258955 -0.117531 0.175680 0.967412 -0.182348 0.534343 0.714474 1 0 1.000000
  0 1.482772 0.284481 -0.265407 0.199475 0.719950 -0.664741 0.511498 0.746165 1 0 1.000000
weapon_vm_sh_aalpha12_shells
  0 1.569780 0.408822 0.108086 -0.159254 0.955054 0.250018 0.529770 0.659679 1 0 1.000000
  0 1.577690 0.258955 -0.117531 0.175680 0.967412 -0.182348 0.534343 0.714474 1 0 1.000000
  0 1.285025 0.372961 0.063693 0.028483 0.992244 0.120994 0.465826 0.666420 1 0 1.000000
weapon_vm_sh_aalpha12_shells
  0 1.285025 0.372961 0.063693 0.028483 0.992244 0.120994 0.465826 0.666420 1 0 1.000000
  0 1.589555 0.294156 0.197558 -0.107151 0.730893 0.674028 0.534560 0.631343 1 0 1.000000
  0 1.569780 0.408822 0.108086 -0.159254 0.955054 0.250018 0.529770 0.659679 1 0 1.000000
weapon_vm_sh_aalpha12_shells
  0 1.589555 0.294156 0.197558 -0.107151 0.730893 0.674028 0.534560 0.631343 1 0 1.000000
  0 1.285025 0.372961 0.063693 0.028483 0.992244 0.120994 0.465826 0.666420 1 0 1.000000
  0 1.287001 0.253321 0.281890 -0.003260 0.681193 0.732097 0.464664 0.609477 1 0 1.000000
weapon_vm_sh_aalpha12_shells
  0 1.287001 0.253321 0.281890 -0.003260 0.681193 0.732097 0.464664 0.609477 1 0 1.000000
  0 1.285025 0.372961 0.063693 0.028483 0.992244 0.120994 0.465826 0.666420 1 0 1.000000
  0 -0.621261 0.319667 0.221551 -0.009612 0.842330 0.538876 0.037060 0.650309 1 0 1.000000
weapon_vm_sh_aalpha12_shells
  0 1.287001 0.253321 0.281890 -0.003260 0.681193 0.732097 0.464664 0.609477 1 0 1.000000
  0 -0.621261 0.319667 0.221551 -0.009612 0.842330 0.538876 0.037060 0.650309 1 0 1.000000
  0 -0.588632 0.192484 0.339947 -0.007113 0.414276 0.910124 0.044198 0.593522 1 0 1.000000
weapon_vm_sh_aalpha12_shells
  0 1.253384 0.026001 0.385938 0.022802 -0.021990 0.999498 0.457157 0.554081 1 0 1.000000
  0 1.287001 0.253321 0.281890 -0.003260 0.681193 0.732097 0.464664 0.609477 1 0 1.000000
  0 -0.588632 0.192484 0.339947 -0.007113 0.414276 0.910124 0.044198 0.593522 1 0 1.000000
weapon_vm_sh_aalpha12_shells
  0 1.253384 0.026001 0.385938 0.022802 -0.021990 0.999498 0.457157 0.554081 1 0 1.000000
  0 -0.588632 0.192484 0.339947 -0.007113 0.414276 0.910124 0.044198 0.593522 1 0 1.000000
  0 -0.588632 -0.145591 0.363211 0.000606 -0.381279 0.924460 0.043949 0.517718 1 0 1.000000
weapon_vm_sh_aalpha12_shells
  0 -0.588632 0.288378 -0.263793 0.056395 0.739121 -0.671208 0.044695 0.745012 1 0 1.000000
  0 1.260306 0.147238 -0.361993 0.087658 0.385014 -0.918738 0.458877 0.780712 1 0 1.000000
  0 -0.588632 0.060955 -0.386448 0.060637 0.100124 -0.993125 0.041401 0.782902 1 0 1.000000
weapon_vm_sh_aalpha12_shells
  0 1.586590 0.103395 0.394894 -0.357170 -0.009736 0.933989 0.535085 0.568231 1 0 1.000000
  0 1.287001 0.253321 0.281890 -0.003260 0.681193 0.732097 0.464664 0.609477 1 0 1.000000
  0 1.572747 0.026427 0.388798 -0.104433 -0.202726 0.973651 0.530878 0.551033 1 0 1.000000
weapon_vm_sh_aalpha12_shells
  0 1.287001 0.253321 0.281890 -0.003260 0.681193 0.732097 0.464664 0.609477 1 0 1.000000
  0 1.253384 0.026001 0.385938 0.022802 -0.021990 0.999498 0.457157 0.554081 1 0 1.000000
  0 1.572747 0.026427 0.388798 -0.104433 -0.202726 0.973651 0.530878 0.551033 1 0 1.000000
weapon_vm_sh_aalpha12_shells
  0 1.584611 -0.361531 -0.208007 0.054523 -0.510412 -0.858200 0.534687 0.372796 1 0 1.000000
  0 1.253384 -0.256394 -0.282896 0.041839 -0.622748 -0.781303 0.456962 0.345707 1 0 1.000000
  0 1.431357 -0.147914 -0.276372 0.180147 -0.438094 -0.880693 0.498891 0.326282 1 0 1.000000
weapon_vm_sh_aalpha12_shells
  0 1.584611 -0.361531 -0.208007 0.054523 -0.510412 -0.858200 0.534687 0.372796 1 0 1.000000
  0 1.431357 -0.147914 -0.276372 0.180147 -0.438094 -0.880693 0.498891 0.326282 1 0 1.000000
  0 1.557915 -0.118902 -0.248510 0.296452 -0.530565 -0.794114 0.530630 0.326666 1 0 1.000000
weapon_vm_sh_aalpha12_shells
  0 1.557915 -0.118902 -0.248510 0.296452 -0.530565 -0.794114 0.530630 0.326666 1 0 1.000000
  0 1.431357 -0.147914 -0.276372 0.180147 -0.438094 -0.880693 0.498891 0.326282 1 0 1.000000
  0 1.569780 -0.017534 -0.407675 0.071774 -0.744572 -0.663672 0.530491 0.284186 1 0 1.000000
weapon_vm_sh_aalpha12_shells
  0 1.569780 -0.017534 -0.407675 0.071774 -0.744572 -0.663672 0.530491 0.284186 1 0 1.000000
  0 1.431357 -0.147914 -0.276372 0.180147 -0.438094 -0.880693 0.498891 0.326282 1 0 1.000000
  0 1.323585 -0.021617 -0.371231 0.118323 -0.218118 -0.968723 0.472888 0.288525 1 0 1.000000
weapon_vm_sh_aalpha12_shells
  0 1.431357 -0.147914 -0.276372 0.180147 -0.438094 -0.880693 0.498891 0.326282 1 0 1.000000
  0 1.253384 -0.256394 -0.282896 0.041839 -0.622748 -0.781303 0.456962 0.345707 1 0 1.000000
  0 1.323585 -0.021617 -0.371231 0.118323 -0.218118 -0.968723 0.472888 0.288525 1 0 1.000000
weapon_vm_sh_aalpha12_shells
  0 1.323585 -0.021617 -0.371231 0.118323 -0.218118 -0.968723 0.472888 0.288525 1 0 1.000000
  0 1.253384 -0.256394 -0.282896 0.041839 -0.622748 -0.781303 0.456962 0.345707 1 0 1.000000
  0 -0.588632 -0.264613 -0.288986 0.055985 -0.644658 -0.762418 0.043390 0.347308 1 0 1.000000
weapon_vm_sh_aalpha12_shells
  0 1.253384 -0.256394 -0.282896 0.041839 -0.622748 -0.781303 0.456962 0.345707 1 0 1.000000
  0 -0.621261 -0.384194 -0.060558 0.040843 -0.981651 -0.186258 0.036253 0.404217 1 0 1.000000
  0 -0.588632 -0.264613 -0.288986 0.055985 -0.644658 -0.762418 0.043390 0.347308 1 0 1.000000
weapon_vm_sh_aalpha12_shells
  0 1.253384 -0.256394 -0.282896 0.041839 -0.622748 -0.781303 0.456962 0.345707 1 0 1.000000
  0 1.387853 -0.345095 -0.127080 -0.019000 -0.971039 -0.238163 0.488348 0.387108 1 0 1.000000
  0 -0.621261 -0.384194 -0.060558 0.040843 -0.981651 -0.186258 0.036253 0.404217 1 0 1.000000
weapon_vm_sh_aalpha12_shells
  0 1.387853 -0.345095 -0.127080 -0.019000 -0.971039 -0.238163 0.488348 0.387108 1 0 1.000000
  0 -0.621261 -0.373155 0.111859 0.001093 -0.923100 0.384559 0.036377 0.442058 1 0 1.000000
  0 -0.621261 -0.384194 -0.060558 0.040843 -0.981651 -0.186258 0.036253 0.404217 1 0 1.000000
weapon_vm_sh_aalpha12_shells
  0 1.387853 -0.345095 -0.127080 -0.019000 -0.971039 -0.238163 0.488348 0.387108 1 0 1.000000
  0 1.213835 -0.340556 0.193306 0.084391 -0.872962 0.480432 0.448057 0.459507 1 0 1.000000
  0 -0.621261 -0.373155 0.111859 0.001093 -0.923100 0.384559 0.036377 0.442058 1 0 1.000000
weapon_vm_sh_aalpha12_shells
  0 1.213835 -0.340556 0.193306 0.084391 -0.872962 0.480432 0.448057 0.459507 1 0 1.000000
  0 -0.588632 -0.145591 0.363211 0.000606 -0.381279 0.924460 0.043949 0.517718 1 0 1.000000
  0 -0.621261 -0.373155 0.111859 0.001093 -0.923100 0.384559 0.036377 0.442058 1 0 1.000000
weapon_vm_sh_aalpha12_shells
  0 1.213835 -0.340556 0.193306 0.084391 -0.872962 0.480432 0.448057 0.459507 1 0 1.000000
  0 1.335451 -0.267031 0.240137 -0.017306 -0.587642 0.808936 0.476439 0.477969 1 0 1.000000
  0 -0.588632 -0.145591 0.363211 0.000606 -0.381279 0.924460 0.043949 0.517718 1 0 1.000000
weapon_vm_sh_aalpha12_shells
  0 1.335451 -0.267031 0.240137 -0.017306 -0.587642 0.808936 0.476439 0.477969 1 0 1.000000
  0 1.253384 0.026001 0.385938 0.022802 -0.021990 0.999498 0.457157 0.554081 1 0 1.000000
  0 -0.588632 -0.145591 0.363211 0.000606 -0.381279 0.924460 0.043949 0.517718 1 0 1.000000
weapon_vm_sh_aalpha12_shells
  0 1.479805 -0.111821 0.295288 0.046537 -0.392767 0.918460 0.509772 0.517410 1 0 1.000000
  0 1.253384 0.026001 0.385938 0.022802 -0.021990 0.999498 0.457157 0.554081 1 0 1.000000
  0 1.335451 -0.267031 0.240137 -0.017306 -0.587642 0.808936 0.476439 0.477969 1 0 1.000000
weapon_vm_sh_aalpha12_shells
  0 1.572747 0.026427 0.388798 -0.104433 -0.202726 0.973651 0.530878 0.551033 1 0 1.000000
  0 1.253384 0.026001 0.385938 0.022802 -0.021990 0.999498 0.457157 0.554081 1 0 1.000000
  0 1.479805 -0.111821 0.295288 0.046537 -0.392767 0.918460 0.509772 0.517410 1 0 1.000000
weapon_vm_sh_aalpha12_shells
  0 1.572747 0.026427 0.388798 -0.104433 -0.202726 0.973651 0.530878 0.551033 1 0 1.000000
  0 1.479805 -0.111821 0.295288 0.046537 -0.392767 0.918460 0.509772 0.517410 1 0 1.000000
  0 1.567804 -0.102503 0.279275 0.199512 -0.261118 0.944464 0.530283 0.518563 1 0 1.000000
weapon_vm_sh_aalpha12_shells
  0 1.479805 -0.111821 0.295288 0.046537 -0.392767 0.918460 0.509772 0.517410 1 0 1.000000
  0 1.581645 -0.190007 0.290836 -0.046619 -0.171559 0.984070 0.532173 0.499270 1 0 1.000000
  0 1.567804 -0.102503 0.279275 0.199512 -0.261118 0.944464 0.530283 0.518563 1 0 1.000000
weapon_vm_sh_aalpha12_shells
  0 1.479805 -0.111821 0.295288 0.046537 -0.392767 0.918460 0.509772 0.517410 1 0 1.000000
  0 1.573735 -0.331639 0.248292 0.447320 -0.733370 0.511931 0.531585 0.468998 1 0 1.000000
  0 1.581645 -0.190007 0.290836 -0.046619 -0.171559 0.984070 0.532173 0.499270 1 0 1.000000
weapon_vm_sh_aalpha12_shells
  0 1.584611 -0.361531 -0.208007 0.054523 -0.510412 -0.858200 0.534687 0.372796 1 0 1.000000
  0 1.387853 -0.345095 -0.127080 -0.019000 -0.971039 -0.238163 0.488348 0.387108 1 0 1.000000
  0 1.253384 -0.256394 -0.282896 0.041839 -0.622748 -0.781303 0.456962 0.345707 1 0 1.000000
weapon_vm_sh_aalpha12_shells
  0 1.479805 -0.111821 0.295288 0.046537 -0.392767 0.918460 0.509772 0.517410 1 0 1.000000
  0 1.335451 -0.267031 0.240137 -0.017306 -0.587642 0.808936 0.476439 0.477969 1 0 1.000000
  0 1.573735 -0.331639 0.248292 0.447320 -0.733370 0.511931 0.531585 0.468998 1 0 1.000000
weapon_vm_sh_aalpha12_shells
  0 1.573735 -0.331639 0.248292 0.447320 -0.733370 0.511931 0.531585 0.468998 1 0 1.000000
  0 1.335451 -0.267031 0.240137 -0.017306 -0.587642 0.808936 0.476439 0.477969 1 0 1.000000
  0 1.286014 -0.351904 0.107233 -0.125896 -0.989435 0.071896 0.464599 0.441141 1 0 1.000000
weapon_vm_sh_aalpha12_shells
  0 1.335451 -0.267031 0.240137 -0.017306 -0.587642 0.808936 0.476439 0.477969 1 0 1.000000
  0 1.213835 -0.340556 0.193306 0.084391 -0.872962 0.480432 0.448057 0.459507 1 0 1.000000
  0 1.286014 -0.351904 0.107233 -0.125896 -0.989435 0.071896 0.464599 0.441141 1 0 1.000000
weapon_vm_sh_aalpha12_shells
  0 1.387853 -0.345095 -0.127080 -0.019000 -0.971039 -0.238163 0.488348 0.387108 1 0 1.000000
  0 1.286014 -0.351904 0.107233 -0.125896 -0.989435 0.071896 0.464599 0.441141 1 0 1.000000
  0 1.213835 -0.340556 0.193306 0.084391 -0.872962 0.480432 0.448057 0.459507 1 0 1.000000
weapon_vm_sh_aalpha12_shells
  0 1.387853 -0.345095 -0.127080 -0.019000 -0.971039 -0.238163 0.488348 0.387108 1 0 1.000000
  0 1.573735 -0.331639 0.248292 0.447320 -0.733370 0.511931 0.531585 0.468998 1 0 1.000000
  0 1.286014 -0.351904 0.107233 -0.125896 -0.989435 0.071896 0.464599 0.441141 1 0 1.000000
weapon_vm_sh_aalpha12_shells
  0 1.387853 -0.345095 -0.127080 -0.019000 -0.971039 -0.238163 0.488348 0.387108 1 0 1.000000
  0 1.571759 -0.268505 0.023878 0.550824 -0.802156 -0.230519 0.530454 0.421882 1 0 1.000000
  0 1.573735 -0.331639 0.248292 0.447320 -0.733370 0.511931 0.531585 0.468998 1 0 1.000000
weapon_vm_sh_aalpha12_shells
  0 1.581645 0.104908 -0.253304 0.302818 0.118535 -0.945648 0.528894 0.244152 1 0 1.000000
  0 1.323585 -0.021617 -0.371231 0.118323 -0.218118 -0.968723 0.472888 0.288525 1 0 1.000000
  0 1.260306 0.147238 -0.361993 0.087658 0.385014 -0.918738 0.457140 0.251224 1 0 1.000000
weapon_vm_sh_aalpha12_shells
  0 1.260306 0.147238 -0.361993 0.087658 0.385014 -0.918738 0.457140 0.251224 1 0 1.000000
  0 1.323585 -0.021617 -0.371231 0.118323 -0.218118 -0.968723 0.472888 0.288525 1 0 1.000000
  0 -0.588632 0.060955 -0.386448 0.060637 0.100124 -0.993125 0.043142 0.271625 1 0 1.000000
weapon_vm_sh_aalpha12_shells
  0 1.323585 -0.021617 -0.371231 0.118323 -0.218118 -0.968723 0.472888 0.288525 1 0 1.000000
  0 -0.588632 -0.264613 -0.288986 0.055985 -0.644658 -0.762418 0.043390 0.347308 1 0 1.000000
  0 -0.588632 0.060955 -0.386448 0.060637 0.100124 -0.993125 0.043142 0.271625 1 0 1.000000
weapon_vm_sh_aalpha12_shells
  0 1.573735 -0.331639 0.248292 0.447320 -0.733370 0.511931 0.635762 0.582016 1 0 1.000000
  0 1.584611 -0.308560 0.241201 0.902729 -0.347481 0.253649 0.630399 0.584475 1 0 1.000000
  0 1.581645 -0.190007 0.290836 -0.046619 -0.171559 0.984070 0.603638 0.575773 1 0 1.000000
weapon_vm_sh_aalpha12_shells
  0 -0.287068 0.278508 -0.202352 0.034482 -0.292213 0.955731 0.526675 0.504048 1 0 1.000000
  0 1.318641 0.016622 -0.340356 0.078491 0.008780 0.996876 0.368823 0.536793 1 0 1.000000
  0 1.330506 0.275067 -0.195990 0.104268 -0.488655 0.866224 0.368717 0.504566 1 0 1.000000
weapon_vm_sh_aalpha12_shells
  0 -0.287068 -0.134850 -0.316346 0.031110 0.292648 0.955714 0.526833 0.552144 1 0 1.000000
  0 1.318641 0.016622 -0.340356 0.078491 0.008780 0.996876 0.368823 0.536793 1 0 1.000000
  0 -0.287068 0.278508 -0.202352 0.034482 -0.292213 0.955731 0.526675 0.504048 1 0 1.000000
weapon_vm_sh_aalpha12_shells
  0 -0.287068 -0.134850 -0.316346 0.031110 0.292648 0.955714 0.526833 0.552144 1 0 1.000000
  0 1.320620 -0.261758 -0.220664 0.118312 0.722854 0.680797 0.368928 0.569019 1 0 1.000000
  0 1.318641 0.016622 -0.340356 0.078491 0.008780 0.996876 0.368823 0.536793 1 0 1.000000
weapon_vm_sh_aalpha12_shells
  0 -0.287068 -0.331794 -0.091762 0.052755 0.996611 0.063112 0.526939 0.584369 1 0 1.000000
  0 1.320620 -0.261758 -0.220664 0.118312 0.722854 0.680797 0.368928 0.569019 1 0 1.000000
  0 -0.287068 -0.134850 -0.316346 0.031110 0.292648 0.955714 0.526833 0.552144 1 0 1.000000
weapon_vm_sh_aalpha12_shells
  0 -0.287068 -0.331794 -0.091762 0.052755 0.996611 0.063112 0.526939 0.584369 1 0 1.000000
  0 1.329517 -0.325644 -0.089750 0.052486 0.995143 0.083280 0.368981 0.585133 1 0 1.000000
  0 1.320620 -0.261758 -0.220664 0.118312 0.722854 0.680797 0.368928 0.569019 1 0 1.000000
weapon_vm_sh_aalpha12_shells
  0 -0.287068 -0.331794 -0.091762 0.052755 0.996611 0.063112 0.526939 0.584369 1 0 1.000000
  0 1.324575 -0.268916 0.197999 0.083678 0.790169 -0.607150 0.369086 0.617115 1 0 1.000000
  0 1.329517 -0.325644 -0.089750 0.052486 0.995143 0.083280 0.368981 0.585133 1 0 1.000000
weapon_vm_sh_aalpha12_shells
  0 -0.287068 -0.015372 0.343827 0.051504 0.247610 -0.967490 0.527097 0.632709 1 0 1.000000
  0 1.324575 -0.268916 0.197999 0.083678 0.790169 -0.607150 0.369086 0.617115 1 0 1.000000
  0 -0.287068 -0.331794 -0.091762 0.052755 0.996611 0.063112 0.526939 0.584369 1 0 1.000000
weapon_vm_sh_aalpha12_shells
  0 -1.180886 0.441951 0.070243 0.709794 0.698619 0.090132 0.729136 0.900919 1 0 1.000000
  0 -1.110686 0.360958 0.145195 0.242440 0.846572 0.473856 0.743296 0.845743 1 0 1.000000
  0 -1.180886 0.428510 -0.128145 0.149064 0.955151 -0.255863 0.741832 0.926798 1 0 1.000000
weapon_vm_sh_aalpha12_shells
  0 -1.180886 0.220399 0.389911 0.670153 0.400820 0.624690 0.741343 0.789103 1 0 1.000000
  0 -1.110686 0.360958 0.145195 0.242440 0.846572 0.473856 0.743296 0.845743 1 0 1.000000
  0 -1.180886 0.441951 0.070243 0.709794 0.698619 0.090132 0.729136 0.900919 1 0 1.000000
weapon_vm_sh_aalpha12_shells
  0 -1.180886 0.220399 0.389911 0.670153 0.400820 0.624690 0.741343 0.789103 1 0 1.000000
  0 -1.110686 0.111039 0.372548 0.275082 0.247073 0.929131 0.793101 0.765665 1 0 1.000000
  0 -1.110686 0.360958 0.145195 0.242440 0.846572 0.473856 0.743296 0.845743 1 0 1.000000
weapon_vm_sh_aalpha12_shells
  0 -1.180886 -0.167182 0.414693 0.638633 -0.305963 0.706070 0.836558 0.729044 1 0 1.000000
  0 -1.110686 0.111039 0.372548 0.275082 0.247073 0.929131 0.793101 0.765665 1 0 1.000000
  0 -1.180886 0.220399 0.389911 0.670153 0.400820 0.624690 0.741343 0.789103 1 0 1.000000
weapon_vm_sh_aalpha12_shells
  0 -1.180886 -0.167182 0.414693 0.638633 -0.305963 0.706070 0.836558 0.729044 1 0 1.000000
  0 -1.110686 -0.145195 0.360958 0.480013 -0.325001 0.814839 0.866864 0.756737 1 0 1.000000
  0 -1.110686 0.111039 0.372548 0.275082 0.247073 0.929131 0.793101 0.765665 1 0 1.000000
weapon_vm_sh_aalpha12_shells
  0 -1.180886 -0.167182 0.414693 0.638633 -0.305963 0.706070 0.836558 0.729044 1 0 1.000000
  0 -1.110686 -0.373155 0.111859 0.305525 -0.866728 0.394254 0.942515 0.799845 1 0 1.000000
  0 -1.110686 -0.145195 0.360958 0.480013 -0.325001 0.814839 0.866864 0.756737 1 0 1.000000
weapon_vm_sh_aalpha12_shells
  0 -1.180886 -0.389911 0.220399 0.744836 -0.534660 0.399197 0.960582 0.788614 1 0 1.000000
  0 -1.110686 -0.373155 0.111859 0.305525 -0.866728 0.394254 0.942515 0.799845 1 0 1.000000
  0 -1.180886 -0.167182 0.414693 0.638633 -0.305963 0.706070 0.836558 0.729044 1 0 1.000000
weapon_vm_sh_aalpha12_shells
  0 -1.180886 -0.441951 -0.070244 0.130958 -0.981670 -0.138473 0.979625 0.842814 1 0 1.000000
  0 -1.110686 -0.373155 0.111859 0.305525 -0.866728 0.394254 0.942515 0.799845 1 0 1.000000
  0 -1.180886 -0.389911 0.220399 0.744836 -0.534660 0.399197 0.960582 0.788614 1 0 1.000000
weapon_vm_sh_aalpha12_shells
  0 -1.180886 0.070244 -0.441951 0.825785 -0.100717 -0.554920 0.969571 0.888845 1 0 1.000000
  0 -1.152212 0.167579 -0.416947 0.825785 -0.100717 -0.554920 0.975919 0.867361 1 0 1.000000
  0 -1.180886 -0.221008 -0.389089 0.825785 -0.100717 -0.554920 0.969571 0.954275 1 0 1.000000
weapon_vm_sh_aalpha12_shells
  0 -1.152212 0.167579 -0.416947 0.050622 0.367885 -0.928492 0.072725 0.013529 1 0 1.000000
  0 -0.588632 0.288378 -0.263793 0.056395 0.739121 -0.671208 0.046299 0.192893 1 0 1.000000
  0 -0.588632 0.060955 -0.386448 0.060637 0.100124 -0.993125 0.019712 0.197700 1 0 1.000000
weapon_vm_sh_aalpha12_shells
  0 -1.180886 0.428510 -0.128145 0.149064 0.955151 -0.255863 0.125856 0.013482 1 0 1.000000
  0 -0.588632 0.288378 -0.263793 0.056395 0.739121 -0.671208 0.046299 0.192893 1 0 1.000000
  0 -1.152212 0.167579 -0.416947 0.050622 0.367885 -0.928492 0.072725 0.013529 1 0 1.000000
weapon_vm_sh_aalpha12_shells
  0 -0.588632 0.390232 -0.026640 0.039277 0.997986 -0.049804 0.179190 0.192775 1 0 1.000000
  0 -0.588632 0.288378 -0.263793 0.056395 0.739121 -0.671208 0.046299 0.192893 1 0 1.000000
  0 -1.180886 0.428510 -0.128145 0.149064 0.955151 -0.255863 0.125856 0.013482 1 0 1.000000
weapon_vm_sh_aalpha12_shells
  0 -1.110686 0.360958 0.145195 0.242440 0.846572 0.473856 0.205637 0.013411 1 0 1.000000
  0 -0.588632 0.390232 -0.026640 0.039277 0.997986 -0.049804 0.179190 0.192775 1 0 1.000000
  0 -1.180886 0.428510 -0.128145 0.149064 0.955151 -0.255863 0.125856 0.013482 1 0 1.000000
weapon_vm_sh_aalpha12_shells
  0 -0.621261 0.319667 0.221551 -0.009612 0.842330 0.538876 0.232407 0.192728 1 0 1.000000
  0 -0.588632 0.390232 -0.026640 0.039277 0.997986 -0.049804 0.179190 0.192775 1 0 1.000000
  0 -1.110686 0.360958 0.145195 0.242440 0.846572 0.473856 0.205637 0.013411 1 0 1.000000
weapon_vm_sh_aalpha12_shells
  0 -0.588632 0.192484 0.339947 -0.007113 0.414276 0.910124 0.312018 0.192657 1 0 1.000000
  0 -0.621261 0.319667 0.221551 -0.009612 0.842330 0.538876 0.232407 0.192728 1 0 1.000000
  0 -1.110686 0.360958 0.145195 0.242440 0.846572 0.473856 0.205637 0.013411 1 0 1.000000
weapon_vm_sh_aalpha12_shells
  0 -1.110686 0.111039 0.372548 0.275082 0.247073 0.929131 0.311899 0.013317 1 0 1.000000
  0 -0.588632 0.192484 0.339947 -0.007113 0.414276 0.910124 0.312018 0.192657 1 0 1.000000
  0 -1.110686 0.360958 0.145195 0.242440 0.846572 0.473856 0.205637 0.013411 1 0 1.000000
weapon_vm_sh_aalpha12_shells
  0 -0.588632 -0.145591 0.363211 0.000606 -0.381279 0.924460 0.418279 0.192562 1 0 1.000000
  0 -0.588632 0.192484 0.339947 -0.007113 0.414276 0.910124 0.312018 0.192657 1 0 1.000000
  0 -1.110686 0.111039 0.372548 0.275082 0.247073 0.929131 0.311899 0.013317 1 0 1.000000
weapon_vm_sh_aalpha12_shells
  0 -1.110686 -0.145195 0.360958 0.366386 -0.398691 0.840718 0.391680 0.013246 1 0 1.000000
  0 -0.588632 -0.145591 0.363211 0.000606 -0.381279 0.924460 0.418279 0.192562 1 0 1.000000
  0 -1.110686 0.111039 0.372548 0.275082 0.247073 0.929131 0.311899 0.013317 1 0 1.000000
weapon_vm_sh_aalpha12_shells
  0 -0.621261 -0.373155 0.111859 0.001093 -0.923100 0.384559 0.498061 0.192491 1 0 1.000000
  0 -0.588632 -0.145591 0.363211 0.000606 -0.381279 0.924460 0.418279 0.192562 1 0 1.000000
  0 -1.110686 -0.145195 0.360958 0.366386 -0.398691 0.840718 0.391680 0.013246 1 0 1.000000
weapon_vm_sh_aalpha12_shells
  0 -1.110686 -0.373155 0.111859 0.305525 -0.866728 0.394254 0.497943 0.013151 1 0 1.000000
  0 -0.621261 -0.373155 0.111859 0.001093 -0.923100 0.384559 0.498061 0.192491 1 0 1.000000
  0 -1.110686 -0.145195 0.360958 0.366386 -0.398691 0.840718 0.391680 0.013246 1 0 1.000000
weapon_vm_sh_aalpha12_shells
  0 -0.621261 -0.384194 -0.060558 0.040843 -0.981651 -0.186258 0.551364 0.192444 1 0 1.000000
  0 -0.621261 -0.373155 0.111859 0.001093 -0.923100 0.384559 0.498061 0.192491 1 0 1.000000
  0 -1.110686 -0.373155 0.111859 0.305525 -0.866728 0.394254 0.497943 0.013151 1 0 1.000000
weapon_vm_sh_aalpha12_shells
  0 -1.180886 -0.441951 -0.070244 0.130958 -0.981670 -0.138473 0.604203 0.013057 1 0 1.000000
  0 -0.621261 -0.384194 -0.060558 0.040843 -0.981651 -0.186258 0.551364 0.192444 1 0 1.000000
  0 -1.110686 -0.373155 0.111859 0.305525 -0.866728 0.394254 0.497943 0.013151 1 0 1.000000
weapon_vm_sh_aalpha12_shells
  0 -0.588632 -0.264613 -0.288986 0.055985 -0.644658 -0.762418 0.657628 0.197132 1 0 1.000000
  0 -0.621261 -0.384194 -0.060558 0.040843 -0.981651 -0.186258 0.551364 0.192444 1 0 1.000000
  0 -1.180886 -0.441951 -0.070244 0.130958 -0.981670 -0.138473 0.604203 0.013057 1 0 1.000000
weapon_vm_sh_aalpha12_shells
  0 -1.180886 -0.221008 -0.389089 0.061148 -0.503222 -0.861991 0.657506 0.013009 1 0 1.000000
  0 -0.588632 -0.264613 -0.288986 0.055985 -0.644658 -0.762418 0.657628 0.197132 1 0 1.000000
  0 -1.180886 -0.441951 -0.070244 0.130958 -0.981670 -0.138473 0.604203 0.013057 1 0 1.000000
weapon_vm_sh_aalpha12_shells
  0 -0.588632 0.060955 -0.386448 0.060637 0.100124 -0.993125 0.737063 0.192278 1 0 1.000000
  0 -0.588632 -0.264613 -0.288986 0.055985 -0.644658 -0.762418 0.657628 0.197132 1 0 1.000000
  0 -1.180886 -0.221008 -0.389089 0.061148 -0.503222 -0.861991 0.657506 0.013009 1 0 1.000000
weapon_vm_sh_aalpha12_shells
  0 -1.152212 0.167579 -0.416947 0.050622 0.367885 -0.928492 0.736944 0.012939 1 0 1.000000
  0 -0.588632 0.060955 -0.386448 0.060637 0.100124 -0.993125 0.737063 0.192278 1 0 1.000000
  0 -1.180886 -0.221008 -0.389089 0.061148 -0.503222 -0.861991 0.657506 0.013009 1 0 1.000000
weapon_vm_sh_aalpha12_shells
  0 -1.161111 0.150947 0.060904 -0.999099 -0.035867 -0.022689 0.823975 0.885882 1 0 1.000000
  0 -1.180886 0.220399 0.389911 -0.997707 -0.032725 -0.059243 0.820069 0.961077 1 0 1.000000
  0 -1.180886 0.441951 0.070243 -0.997494 -0.068700 -0.016929 0.759522 0.900530 1 0 1.000000
weapon_vm_sh_aalpha12_shells
  0 -1.161111 0.150947 0.060904 -0.999099 -0.035867 -0.022689 0.823975 0.885882 1 0 1.000000
  0 -1.161111 -0.061513 0.151769 -0.998801 0.028968 -0.039474 0.870362 0.896624 1 0 1.000000
  0 -1.180886 0.220399 0.389911 -0.997707 -0.032725 -0.059243 0.820069 0.961077 1 0 1.000000
weapon_vm_sh_aalpha12_shells
  0 -1.161111 -0.061513 0.151769 -0.998801 0.028968 -0.039474 0.870362 0.896624 1 0 1.000000
  0 -1.180886 -0.167182 0.414693 -0.998047 0.024323 -0.057541 0.905030 0.951311 1 0 1.000000
  0 -1.180886 0.220399 0.389911 -0.997707 -0.032725 -0.059243 0.820069 0.961077 1 0 1.000000
weapon_vm_sh_aalpha12_shells
  0 -1.161111 -0.061513 0.151769 -0.998801 0.028968 -0.039474 0.870362 0.896624 1 0 1.000000
  0 -1.161111 -0.151768 -0.061514 -0.998626 0.045369 0.026234 0.881104 0.850237 1 0 1.000000
  0 -1.180886 -0.167182 0.414693 -0.998047 0.024323 -0.057541 0.905030 0.951311 1 0 1.000000
weapon_vm_sh_aalpha12_shells
  0 -1.161111 -0.151768 -0.061514 -0.998626 0.045369 0.026234 0.881104 0.850237 1 0 1.000000
  0 -1.180886 -0.389911 0.220399 -0.998434 0.047022 -0.030315 0.945557 0.900530 1 0 1.000000
  0 -1.180886 -0.167182 0.414693 -0.998047 0.024323 -0.057541 0.905030 0.951311 1 0 1.000000
weapon_vm_sh_aalpha12_shells
  0 -1.161111 -0.151768 -0.061514 -0.998626 0.045369 0.026234 0.881104 0.850237 1 0 1.000000
  0 -1.180886 -0.441951 -0.070244 -0.997143 0.066898 0.035066 0.945557 0.835589 1 0 1.000000
  0 -1.180886 -0.389911 0.220399 -0.998434 0.047022 -0.030315 0.945557 0.900530 1 0 1.000000
weapon_vm_sh_aalpha12_shells
  0 -1.161111 -0.151768 -0.061514 -0.998626 0.045369 0.026234 0.881104 0.850237 1 0 1.000000
  0 -1.192293 -0.367738 -0.254620 -0.995653 0.072355 0.058654 0.922120 0.798479 1 0 1.000000
  0 -1.180886 -0.441951 -0.070244 -0.997143 0.066898 0.035066 0.945557 0.835589 1 0 1.000000
weapon_vm_sh_aalpha12_shells
  0 -1.161111 -0.151768 -0.061514 -0.998626 0.045369 0.026234 0.881104 0.850237 1 0 1.000000
  0 -1.161111 -0.011191 -0.163618 -0.999041 0.006640 0.043267 0.848877 0.834612 1 0 1.000000
  0 -1.192293 -0.367738 -0.254620 -0.995653 0.072355 0.058654 0.922120 0.798479 1 0 1.000000
weapon_vm_sh_aalpha12_shells
  0 -1.161111 -0.011191 -0.163618 -0.999041 0.006640 0.043267 0.848877 0.834612 1 0 1.000000
  0 -1.180886 -0.221008 -0.389089 -0.997769 0.057383 0.034111 0.885010 0.775042 1 0 1.000000
  0 -1.192293 -0.367738 -0.254620 -0.995653 0.072355 0.058654 0.922120 0.798479 1 0 1.000000
weapon_vm_sh_aalpha12_shells
  0 -1.161111 -0.011191 -0.163618 -0.999041 0.006640 0.043267 0.848877 0.834612 1 0 1.000000
  0 -1.180886 0.070244 -0.441951 -0.997883 -0.010421 0.064195 0.820069 0.775042 1 0 1.000000
  0 -1.180886 -0.221008 -0.389089 -0.997769 0.057383 0.034111 0.885010 0.775042 1 0 1.000000
weapon_vm_sh_aalpha12_shells
  0 -1.161111 -0.011191 -0.163618 -0.999041 0.006640 0.043267 0.848877 0.834612 1 0 1.000000
  0 -1.161111 0.156864 -0.046753 -0.999151 -0.037047 0.018042 0.819092 0.864397 1 0 1.000000
  0 -1.180886 0.070244 -0.441951 -0.997883 -0.010421 0.064195 0.820069 0.775042 1 0 1.000000
weapon_vm_sh_aalpha12_shells
  0 -1.161111 0.156864 -0.046753 -0.999151 -0.037047 0.018042 0.819092 0.864397 1 0 1.000000
  0 -1.180886 0.254621 -0.367739 -0.998084 -0.035515 0.050673 0.782959 0.798479 1 0 1.000000
  0 -1.180886 0.070244 -0.441951 -0.997883 -0.010421 0.064195 0.820069 0.775042 1 0 1.000000
weapon_vm_sh_aalpha12_shells
  0 -1.161111 0.156864 -0.046753 -0.999151 -0.037047 0.018042 0.819092 0.864397 1 0 1.000000
  0 -1.180886 0.428510 -0.128145 -0.997572 -0.065665 0.023214 0.754639 0.857073 1 0 1.000000
  0 -1.180886 0.254621 -0.367739 -0.998084 -0.035515 0.050673 0.782959 0.798479 1 0 1.000000
weapon_vm_sh_aalpha12_shells
  0 -1.161111 0.156864 -0.046753 -0.999151 -0.037047 0.018042 0.819092 0.864397 1 0 1.000000
  0 -1.180886 0.441951 0.070243 -0.997494 -0.068700 -0.016929 0.759522 0.900530 1 0 1.000000
  0 -1.180886 0.428510 -0.128145 -0.997572 -0.065665 0.023214 0.754639 0.857073 1 0 1.000000
weapon_vm_sh_aalpha12_shells
  0 -1.161111 0.156864 -0.046753 -0.999151 -0.037047 0.018042 0.819092 0.864397 1 0 1.000000
  0 -1.161111 0.150947 0.060904 -0.999099 -0.035867 -0.022689 0.823975 0.885882 1 0 1.000000
  0 -1.180886 0.441951 0.070243 -0.997494 -0.068700 -0.016929 0.759522 0.900530 1 0 1.000000
weapon_vm_sh_aalpha12_shells
  0 -1.161111 -0.061513 0.151769 -0.998801 0.028968 -0.039474 0.870362 0.896624 1 0 1.000000
  0 -1.161111 0.150947 0.060904 -0.999099 -0.035867 -0.022689 0.823975 0.885882 1 0 1.000000
  0 -1.161111 0.156864 -0.046753 -0.999151 -0.037047 0.018042 0.819092 0.864397 1 0 1.000000
weapon_vm_sh_aalpha12_shells
  0 -1.161111 -0.011191 -0.163618 -0.999041 0.006640 0.043267 0.848877 0.834612 1 0 1.000000
  0 -1.161111 -0.061513 0.151769 -0.998801 0.028968 -0.039474 0.870362 0.896624 1 0 1.000000
  0 -1.161111 0.156864 -0.046753 -0.999151 -0.037047 0.018042 0.819092 0.864397 1 0 1.000000
weapon_vm_sh_aalpha12_shells
  0 -1.161111 -0.011191 -0.163618 -0.999041 0.006640 0.043267 0.848877 0.834612 1 0 1.000000
  0 -1.161111 -0.151768 -0.061514 -0.998626 0.045369 0.026234 0.881104 0.850237 1 0 1.000000
  0 -1.161111 -0.061513 0.151769 -0.998801 0.028968 -0.039474 0.870362 0.896624 1 0 1.000000
weapon_vm_sh_aalpha12_shells
  0 -1.180886 0.254621 -0.367739 -0.416814 0.339409 -0.843248 0.725044 0.913773 1 0 1.000000
  0 -1.152212 0.167579 -0.416947 -0.416814 0.339409 -0.843248 0.731392 0.935502 1 0 1.000000
  0 -1.180886 0.070244 -0.441951 -0.416814 0.339409 -0.843248 0.725044 0.935502 1 0 1.000000
weapon_vm_sh_aalpha12_shells
  0 -0.287068 -0.015372 0.343827 0.051504 0.247610 -0.967490 0.526411 0.423482 1 0 1.000000
  0 1.324575 -0.016225 0.338103 0.040656 0.214670 -0.975840 0.368453 0.424001 1 0 1.000000
  0 1.324575 -0.268916 0.197999 0.083678 0.790169 -0.607150 0.368400 0.407887 1 0 1.000000
weapon_vm_sh_aalpha12_shells
  0 -0.287068 -0.015372 0.343827 0.051504 0.247610 -0.967490 0.526411 0.423482 1 0 1.000000
  0 1.328529 0.129920 0.312693 0.071936 -0.561567 -0.824299 0.368505 0.439870 1 0 1.000000
  0 1.324575 -0.016225 0.338103 0.040656 0.214670 -0.975840 0.368453 0.424001 1 0 1.000000
weapon_vm_sh_aalpha12_shells
  0 -0.287068 0.258928 0.226205 0.012363 -0.434259 -0.900703 0.526516 0.455708 1 0 1.000000
  0 1.328529 0.129920 0.312693 0.071936 -0.561567 -0.824299 0.368505 0.439870 1 0 1.000000
  0 -0.287068 -0.015372 0.343827 0.051504 0.247610 -0.967490 0.526411 0.423482 1 0 1.000000
weapon_vm_sh_aalpha12_shells
  0 -0.287068 0.258928 0.226205 0.012363 -0.434259 -0.900703 0.526516 0.455708 1 0 1.000000
  0 1.434323 0.198706 0.214692 0.027767 -0.774367 -0.632127 0.368558 0.455982 1 0 1.000000
  0 1.328529 0.129920 0.312693 0.071936 -0.561567 -0.824299 0.368505 0.439870 1 0 1.000000
weapon_vm_sh_aalpha12_shells
  0 -0.287068 0.258928 0.226205 0.012363 -0.434259 -0.900703 0.526516 0.455708 1 0 1.000000
  0 1.328529 0.348359 0.090027 0.058734 -0.614103 -0.787038 0.368610 0.472095 1 0 1.000000
  0 1.434323 0.198706 0.214692 0.027767 -0.774367 -0.632127 0.368558 0.455982 1 0 1.000000
weapon_vm_sh_aalpha12_shells
  0 -1.180886 0.428510 -0.128145 0.822981 0.459747 -0.333669 0.741832 0.926798 1 0 1.000000
  0 -1.152212 0.167579 -0.416947 0.822981 0.459747 -0.333669 0.837046 0.986368 1 0 1.000000
  0 -1.180886 0.254621 -0.367739 0.822981 0.459747 -0.333669 0.782847 0.967325 1 0 1.000000
weapon_vm_sh_aalpha12_shells
  0 1.569780 0.408822 0.108086 0.017324 -0.920173 0.391128 0.612489 0.584009 1 0 1.000000
  0 1.328529 0.348359 0.090027 0.114339 -0.967659 0.224863 0.564585 0.582213 1 0 1.000000
  0 1.330506 0.275067 -0.195990 -0.007280 -0.968865 0.247481 0.565005 0.524107 1 0 1.000000
weapon_vm_sh_aalpha12_shells
  0 1.330506 0.275067 -0.195990 -0.007280 -0.968865 0.247481 0.565005 0.524107 1 0 1.000000
  0 1.577690 0.258955 -0.117531 -0.147739 -0.951440 0.270066 0.613998 0.539571 1 0 1.000000
  0 1.569780 0.408822 0.108086 0.017324 -0.920173 0.391128 0.612489 0.584009 1 0 1.000000
weapon_vm_sh_aalpha12_shells
  0 1.330506 0.275067 -0.195990 -0.007280 -0.968865 0.247481 0.565005 0.524107 1 0 1.000000
  0 1.564837 0.283140 -0.249848 -0.007274 -0.983802 -0.179113 0.612222 0.516627 1 0 1.000000
  0 1.577690 0.258955 -0.117531 -0.147739 -0.951440 0.270066 0.613998 0.539571 1 0 1.000000
weapon_vm_sh_aalpha12_shells
  0 -1.192293 -0.367738 -0.254620 0.968023 -0.206194 -0.142882 0.973277 0.899943 1 0 1.000000
  0 -1.180886 -0.221008 -0.389089 0.968023 -0.206194 -0.142882 0.920543 0.966837 1 0 1.000000
  0 -1.180886 -0.441951 -0.070244 0.968023 -0.206194 -0.142882 0.979625 0.842814 1 0 1.000000
weapon_vm_sh_aalpha12_shells
  0 1.589555 0.294156 0.197558 0.291316 -0.253332 0.922474 0.534560 0.631343 1 0 1.000000
  0 1.287001 0.253321 0.281890 0.291316 -0.253332 0.922474 0.464664 0.609477 1 0 1.000000
  0 1.566815 0.183942 0.174472 0.291316 -0.253332 0.922474 0.532543 0.611818 1 0 1.000000
weapon_vm_sh_aalpha12_shells
  0 1.557915 -0.118902 -0.248510 -0.415420 0.780958 0.466403 0.609857 0.428255 1 0 1.000000
  0 1.569780 -0.017534 -0.407675 -0.415420 0.780957 0.466403 0.612562 0.457543 1 0 1.000000
  0 1.320620 -0.261758 -0.220664 -0.415420 0.780957 0.466403 0.562597 0.403996 1 0 1.000000
weapon_vm_sh_aalpha12_shells
  0 1.387853 -0.345095 -0.127080 0.077022 -0.923861 0.374897 0.488348 0.387108 1 0 1.000000
  0 1.584611 -0.361531 -0.208007 0.077022 -0.923861 0.374897 0.534687 0.372796 1 0 1.000000
  0 1.571759 -0.268505 0.023878 0.077022 -0.923861 0.374897 0.530454 0.421882 1 0 1.000000
weapon_vm_sh_aalpha12_shells
  0 1.557915 -0.118902 -0.248510 0.015581 0.166303 0.985952 0.609857 0.428255 1 0 1.000000
  0 1.320620 -0.261758 -0.220664 0.015581 0.166303 0.985952 0.562597 0.403996 1 0 1.000000
  0 1.584611 -0.361531 -0.208007 0.015581 0.166303 0.985952 0.616237 0.389172 1 0 1.000000
weapon_vm_sh_aalpha12_shells
  0 1.434323 0.198706 0.214692 -0.255907 0.248487 -0.934219 0.586351 0.621693 1 0 1.000000
  0 1.589555 0.294156 0.197558 -0.255907 0.248486 -0.934219 0.614343 0.602558 1 0 1.000000
  0 1.566815 0.183942 0.174472 -0.255907 0.248486 -0.934219 0.612710 0.618677 1 0 1.000000
weapon_vm_sh_aalpha12_shells
  0 1.581645 0.104908 -0.253304 0.058872 -0.784313 0.617566 0.614141 0.487812 1 0 1.000000
  0 1.318641 0.016622 -0.340356 0.058871 -0.784313 0.617566 0.562491 0.465033 1 0 1.000000
  0 1.569780 -0.017534 -0.407675 0.058871 -0.784313 0.617566 0.612562 0.457543 1 0 1.000000
weapon_vm_sh_aalpha12_shells
  0 1.566815 0.183942 0.174472 0.335559 0.894101 0.296620 0.532543 0.611818 1 0 1.000000
  0 1.287001 0.253321 0.281890 0.335559 0.894101 0.296620 0.464664 0.609477 1 0 1.000000
  0 1.586590 0.103395 0.394894 0.335559 0.894101 0.296620 0.535085 0.568231 1 0 1.000000
end
