// Created by Crowbar 0.74
version 1
nodes
  0 "root" -1
end
skeleton
  time 0
    0 0.000000 0.000000 0.000000 0.000000 0.000000 0.000000
end
triangles
weapon_vm_sh_aalpha12_shells
  0 1.569780 -0.017534 -0.407675 -0.103753 0.783112 -0.613164 0.660635 0.289440 1 0 1.000000
  0 1.323585 -0.021617 -0.371231 -0.103753 0.783112 -0.613164 0.587017 0.294229 1 0 1.000000
  0 1.581645 0.104908 -0.253304 -0.103753 0.783112 -0.613164 0.658540 0.245874 1 0 1.000000
weapon_vm_sh_aalpha12_shells
  0 -1.180886 0.220399 0.389911 0.030523 0.375273 0.926412 0.471725 0.195411 1 0 1.000000
  0 -0.621261 0.319667 0.221551 0.080979 0.435311 0.896631 0.554473 0.023647 1 0 1.000000
  0 -1.180886 0.441951 0.070243 0.025571 0.821630 0.569447 0.583707 0.194583 1 0 1.000000
weapon_vm_sh_aalpha12_shells
  0 -0.588632 -0.145591 0.363211 0.014683 0.116450 0.993088 0.358596 0.025095 1 0 1.000000
  0 -0.621261 0.319667 0.221551 0.080979 0.435311 0.896631 0.554473 0.023647 1 0 1.000000
  0 -1.180886 0.220399 0.389911 0.030523 0.375273 0.926412 0.471725 0.195411 1 0 1.000000
weapon_vm_sh_aalpha12_shells
  0 -1.180886 -0.389911 0.220399 -0.121042 -0.265649 0.956441 0.275667 0.196860 1 0 1.000000
  0 -0.588632 -0.145591 0.363211 0.014683 0.116450 0.993088 0.358596 0.025095 1 0 1.000000
  0 -1.180886 0.220399 0.389911 0.030523 0.375273 0.926412 0.471725 0.195411 1 0 1.000000
weapon_vm_sh_aalpha12_shells
  0 -1.161111 -0.151768 -0.061514 -0.998626 0.045369 0.026234 0.881104 0.850237 1 0 1.000000
  0 -1.192293 -0.367738 -0.254620 -0.995653 0.072355 0.058654 0.922120 0.798479 1 0 1.000000
  0 -1.180886 -0.389911 0.220399 -0.998434 0.047022 -0.030315 0.945557 0.900530 1 0 1.000000
weapon_vm_sh_aalpha12_shells
  0 -1.161111 -0.151768 -0.061514 -0.998626 0.045369 0.026234 0.881104 0.850237 1 0 1.000000
  0 -1.152212 0.167579 -0.416947 -0.999991 0.001527 -0.003922 0.817905 0.772878 1 0 1.000000
  0 -1.192293 -0.367738 -0.254620 -0.995653 0.072355 0.058654 0.922120 0.798479 1 0 1.000000
weapon_vm_sh_aalpha12_shells
  0 -1.161111 -0.151768 -0.061514 -0.998626 0.045369 0.026234 0.881104 0.850237 1 0 1.000000
  0 -1.161111 0.150947 0.060904 -0.999099 -0.035867 -0.022689 0.823975 0.885882 1 0 1.000000
  0 -1.152212 0.167579 -0.416947 -0.999991 0.001527 -0.003922 0.817905 0.772878 1 0 1.000000
weapon_vm_sh_aalpha12_shells
  0 -1.161111 0.150947 0.060904 -0.999099 -0.035867 -0.022689 0.823975 0.885882 1 0 1.000000
  0 -1.180886 0.441951 0.070243 -0.997494 -0.068700 -0.016929 0.759522 0.900530 1 0 1.000000
  0 -1.152212 0.167579 -0.416947 -0.999991 0.001527 -0.003922 0.817905 0.772878 1 0 1.000000
weapon_vm_sh_aalpha12_shells
  0 -1.161111 0.150947 0.060904 -0.999099 -0.035867 -0.022689 0.823975 0.885882 1 0 1.000000
  0 -1.180886 0.220399 0.389911 -0.997707 -0.032725 -0.059243 0.820069 0.961077 1 0 1.000000
  0 -1.180886 0.441951 0.070243 -0.997494 -0.068700 -0.016929 0.759522 0.900530 1 0 1.000000
weapon_vm_sh_aalpha12_shells
  0 -1.161111 0.150947 0.060904 -0.999099 -0.035867 -0.022689 0.823975 0.885882 1 0 1.000000
  0 -1.180886 -0.389911 0.220399 -0.998434 0.047022 -0.030315 0.945557 0.900530 1 0 1.000000
  0 -1.180886 0.220399 0.389911 -0.997707 -0.032725 -0.059243 0.820069 0.961077 1 0 1.000000
weapon_vm_sh_aalpha12_shells
  0 -1.161111 0.150947 0.060904 -0.999099 -0.035867 -0.022689 0.823975 0.885882 1 0 1.000000
  0 -1.161111 -0.151768 -0.061514 -0.998626 0.045369 0.026234 0.881104 0.850237 1 0 1.000000
  0 -1.180886 -0.389911 0.220399 -0.998434 0.047022 -0.030315 0.945557 0.900530 1 0 1.000000
weapon_vm_sh_aalpha12_shells
  0 1.335451 -0.267031 0.240137 0.047632 -0.384307 0.921976 0.591817 0.500393 1 0 1.000000
  0 1.584611 -0.308560 0.241201 -0.034920 -0.184341 0.982242 0.662288 0.490565 1 0 1.000000
  0 1.567804 -0.102503 0.279275 0.133919 -0.404348 0.904748 0.660692 0.544508 1 0 1.000000
weapon_vm_sh_aalpha12_shells
  0 1.586590 0.103395 0.394894 0.020247 0.211709 0.977123 0.666898 0.598554 1 0 1.000000
  0 1.335451 -0.267031 0.240137 0.047632 -0.384307 0.921976 0.591817 0.500393 1 0 1.000000
  0 1.567804 -0.102503 0.279275 0.133919 -0.404348 0.904748 0.660692 0.544508 1 0 1.000000
weapon_vm_sh_aalpha12_shells
  0 1.586590 0.103395 0.394894 0.020247 0.211709 0.977123 0.666898 0.598554 1 0 1.000000
  0 1.253384 0.026001 0.385938 -0.002429 -0.153509 0.988144 0.567276 0.583247 1 0 1.000000
  0 1.335451 -0.267031 0.240137 0.047632 -0.384307 0.921976 0.591817 0.500393 1 0 1.000000
weapon_vm_sh_aalpha12_shells
  0 1.335451 -0.267031 0.240137 0.047632 -0.384307 0.921976 0.591817 0.500393 1 0 1.000000
  0 1.253384 0.026001 0.385938 -0.002429 -0.153509 0.988144 0.567276 0.583247 1 0 1.000000
  0 -0.588632 -0.145591 0.363211 0.014683 0.116450 0.993088 0.039091 0.544158 1 0 1.000000
weapon_vm_sh_aalpha12_shells
  0 1.253384 0.026001 0.385938 -0.002429 -0.153509 0.988144 0.567276 0.583247 1 0 1.000000
  0 -0.621261 0.319667 0.221551 0.080979 0.435311 0.896631 0.030469 0.688463 1 0 1.000000
  0 -0.588632 -0.145591 0.363211 0.014683 0.116450 0.993088 0.039091 0.544158 1 0 1.000000
weapon_vm_sh_aalpha12_shells
  0 1.253384 0.026001 0.385938 -0.002429 -0.153509 0.988144 0.567276 0.583247 1 0 1.000000
  0 1.586590 0.103395 0.394894 0.020247 0.211709 0.977123 0.666898 0.598554 1 0 1.000000
  0 -0.621261 0.319667 0.221551 0.080979 0.435311 0.896631 0.030469 0.688463 1 0 1.000000
weapon_vm_sh_aalpha12_shells
  0 1.586590 0.103395 0.394894 0.020247 0.211709 0.977123 0.666898 0.598554 1 0 1.000000
  0 1.285025 0.372961 0.063693 -0.040341 0.756651 0.652573 0.578512 0.705492 1 0 1.000000
  0 -0.621261 0.319667 0.221551 0.080979 0.435311 0.896631 0.030469 0.688463 1 0 1.000000
weapon_vm_sh_aalpha12_shells
  0 1.569780 0.408822 0.108086 -0.196086 0.665492 0.720188 0.660231 0.698081 1 0 1.000000
  0 1.285025 0.372961 0.063693 -0.040341 0.756651 0.652573 0.578512 0.705492 1 0 1.000000
  0 1.586590 0.103395 0.394894 0.020247 0.211709 0.977123 0.666898 0.598554 1 0 1.000000
weapon_vm_sh_aalpha12_shells
  0 1.581645 0.104908 -0.253304 0.392645 0.054829 -0.918054 0.658540 0.245874 1 0 1.000000
  0 1.323585 -0.021617 -0.371231 -0.001663 -0.198442 -0.980111 0.587017 0.294229 1 0 1.000000
  0 1.564837 0.283140 -0.249848 0.211975 0.212157 -0.953969 0.566838 0.253653 1 0 1.000000
weapon_vm_sh_aalpha12_shells
  0 1.564837 0.283140 -0.249848 0.211975 0.212157 -0.953969 0.566838 0.253653 1 0 1.000000
  0 1.323585 -0.021617 -0.371231 -0.001663 -0.198442 -0.980111 0.587017 0.294229 1 0 1.000000
  0 -0.588632 0.060955 -0.386448 -0.003376 -0.260928 -0.965352 0.037720 0.276342 1 0 1.000000
weapon_vm_sh_aalpha12_shells
  0 1.323585 -0.021617 -0.371231 -0.001663 -0.198442 -0.980111 0.587017 0.294229 1 0 1.000000
  0 -0.588632 -0.264613 -0.288986 -0.002404 -0.306849 -0.951755 0.038142 0.358705 1 0 1.000000
  0 -0.588632 0.060955 -0.386448 -0.003376 -0.260928 -0.965352 0.037720 0.276342 1 0 1.000000
weapon_vm_sh_aalpha12_shells
  0 1.323585 -0.021617 -0.371231 -0.001663 -0.198442 -0.980111 0.587017 0.294229 1 0 1.000000
  0 1.387853 -0.345095 -0.127080 -0.169721 -0.614954 -0.770082 0.606913 0.401497 1 0 1.000000
  0 -0.588632 -0.264613 -0.288986 -0.002404 -0.306849 -0.951755 0.038142 0.358705 1 0 1.000000
weapon_vm_sh_aalpha12_shells
  0 1.584611 -0.361531 -0.208007 -0.270201 -0.577443 -0.770422 0.666121 0.385867 1 0 1.000000
  0 1.387853 -0.345095 -0.127080 -0.169721 -0.614954 -0.770082 0.606913 0.401497 1 0 1.000000
  0 1.323585 -0.021617 -0.371231 -0.001663 -0.198442 -0.980111 0.587017 0.294229 1 0 1.000000
weapon_vm_sh_aalpha12_shells
  0 1.584611 -0.361531 -0.208007 -0.270201 -0.577443 -0.770422 0.666121 0.385867 1 0 1.000000
  0 1.323585 -0.021617 -0.371231 -0.001663 -0.198442 -0.980111 0.587017 0.294229 1 0 1.000000
  0 1.569780 -0.017534 -0.407675 -0.118464 -0.502280 -0.856552 0.660635 0.289440 1 0 1.000000
weapon_vm_sh_aalpha12_shells
  0 -1.152212 0.167579 -0.416947 -0.003082 -0.290034 -0.957011 0.023800 0.198722 1 0 1.000000
  0 -0.588632 0.060955 -0.386448 -0.003376 -0.260928 -0.965352 0.022652 0.027578 1 0 1.000000
  0 -1.180886 -0.367738 -0.254620 -0.003978 -0.288900 -0.957351 0.163686 0.197688 1 0 1.000000
weapon_vm_sh_aalpha12_shells
  0 -0.588632 0.060955 -0.386448 -0.003376 -0.260928 -0.965352 0.022652 0.027578 1 0 1.000000
  0 -0.588632 -0.264613 -0.288986 -0.002404 -0.306849 -0.951755 0.106335 0.022394 1 0 1.000000
  0 -1.180886 -0.367738 -0.254620 -0.003978 -0.288900 -0.957351 0.163686 0.197688 1 0 1.000000
weapon_vm_sh_aalpha12_shells
  0 -0.621261 0.319667 0.221551 0.118761 0.915929 -0.383367 0.554473 0.023647 1 0 1.000000
  0 -0.588632 0.060955 -0.386448 0.090975 0.909122 -0.406473 0.778590 0.017426 1 0 1.000000
  0 -1.180886 0.441951 0.070243 0.245255 0.876865 -0.413471 0.583707 0.194583 1 0 1.000000
weapon_vm_sh_aalpha12_shells
  0 -1.180886 0.441951 0.070243 0.245255 0.876865 -0.413471 0.583707 0.194583 1 0 1.000000
  0 -0.588632 0.060955 -0.386448 0.090975 0.909122 -0.406473 0.778590 0.017426 1 0 1.000000
  0 -1.152212 0.167579 -0.416947 0.188406 0.860420 -0.473476 0.723774 0.193548 1 0 1.000000
weapon_vm_sh_aalpha12_shells
  0 -1.180886 -0.367738 -0.254620 0.168772 -0.984583 -0.045958 0.163686 0.197688 1 0 1.000000
  0 -0.588632 -0.264613 -0.288986 0.113455 -0.984819 0.131376 0.106335 0.022394 1 0 1.000000
  0 -1.180886 -0.389911 0.220399 0.260834 -0.963100 0.066365 0.275667 0.196860 1 0 1.000000
weapon_vm_sh_aalpha12_shells
  0 -0.588632 -0.264613 -0.288986 0.113455 -0.984819 0.131376 0.106335 0.022394 1 0 1.000000
  0 -0.588632 -0.145591 0.363211 0.131101 -0.974996 0.179430 0.358596 0.025095 1 0 1.000000
  0 -1.180886 -0.389911 0.220399 0.260834 -0.963100 0.066365 0.275667 0.196860 1 0 1.000000
weapon_vm_sh_aalpha12_shells
  0 -0.621261 0.319667 0.221551 0.118761 0.915929 -0.383367 0.030469 0.688463 1 0 1.000000
  0 1.285025 0.372961 0.063693 -0.071222 0.937675 -0.340137 0.578512 0.705492 1 0 1.000000
  0 -0.588632 0.060955 -0.386448 0.090975 0.909122 -0.406473 0.036200 0.832755 1 0 1.000000
weapon_vm_sh_aalpha12_shells
  0 -0.588632 0.060955 -0.386448 0.090975 0.909122 -0.406473 0.036200 0.832755 1 0 1.000000
  0 1.285025 0.372961 0.063693 -0.071222 0.937675 -0.340137 0.578512 0.705492 1 0 1.000000
  0 1.564837 0.283140 -0.249848 -0.071924 0.940011 -0.333475 0.658842 0.792442 1 0 1.000000
weapon_vm_sh_aalpha12_shells
  0 1.569780 0.408822 0.108086 -0.067188 0.941682 -0.329727 0.660231 0.698081 1 0 1.000000
  0 1.564837 0.283140 -0.249848 -0.071924 0.940011 -0.333475 0.658842 0.792442 1 0 1.000000
  0 1.285025 0.372961 0.063693 -0.071222 0.937675 -0.340137 0.578512 0.705492 1 0 1.000000
weapon_vm_sh_aalpha12_shells
  0 1.387853 -0.345095 -0.127080 -0.063731 -0.984755 0.161851 0.606913 0.401497 1 0 1.000000
  0 -0.588632 -0.145591 0.363211 0.131101 -0.974996 0.179430 0.039091 0.544158 1 0 1.000000
  0 -0.588632 -0.264613 -0.288986 0.113455 -0.984819 0.131376 0.038142 0.358705 1 0 1.000000
weapon_vm_sh_aalpha12_shells
  0 1.387853 -0.345095 -0.127080 -0.063731 -0.984755 0.161851 0.606913 0.401497 1 0 1.000000
  0 1.335451 -0.267031 0.240137 -0.099026 -0.976115 0.193374 0.591817 0.500393 1 0 1.000000
  0 -0.588632 -0.145591 0.363211 0.131101 -0.974996 0.179430 0.039091 0.544158 1 0 1.000000
weapon_vm_sh_aalpha12_shells
  0 1.387853 -0.345095 -0.127080 -0.063731 -0.984755 0.161851 0.606913 0.401497 1 0 1.000000
  0 1.584611 -0.308560 0.241201 -0.123432 -0.978866 0.163052 0.662288 0.490565 1 0 1.000000
  0 1.335451 -0.267031 0.240137 -0.099026 -0.976115 0.193374 0.591817 0.500393 1 0 1.000000
weapon_vm_sh_aalpha12_shells
  0 1.387853 -0.345095 -0.127080 -0.063731 -0.984755 0.161851 0.606913 0.401497 1 0 1.000000
  0 1.584611 -0.361531 -0.208007 -0.034771 -0.992518 0.117039 0.666121 0.385867 1 0 1.000000
  0 1.584611 -0.308560 0.241201 -0.123432 -0.978866 0.163052 0.662288 0.490565 1 0 1.000000
end
