// Created by Crowbar 0.74
version 1
nodes
  0 "root" -1
end
skeleton
  time 0
    0 0.000000 0.000000 0.000000 0.000000 0.000000 0.000000
end
triangles
weapon_vm_sh_charlie725_shell
  0 1.569780 -0.017534 -0.407675 -0.103753 0.783112 -0.613164 0.503418 0.496582 1 0 1.000000
  0 1.323585 -0.021617 -0.371231 -0.103753 0.783112 -0.613164 0.499268 0.438965 1 0 1.000000
  0 1.581645 0.104908 -0.253304 -0.103753 0.783112 -0.613164 0.543457 0.495117 1 0 1.000000
weapon_vm_sh_charlie725_shell
  0 1.434323 0.198706 0.214692 0.027767 -0.774367 -0.632127 0.654785 0.958160 1 0 1.000000
  0 1.569780 0.408822 0.108086 0.225298 -0.552426 -0.802538 0.692383 0.984421 1 0 1.000000
  0 1.589555 0.294156 0.197558 0.261296 -0.565387 -0.782344 0.673828 0.986214 1 0 1.000000
weapon_vm_sh_charlie725_shell
  0 1.434323 0.198706 0.214692 0.027767 -0.774367 -0.632127 0.654785 0.958160 1 0 1.000000
  0 1.328529 0.348359 0.090027 0.058734 -0.614103 -0.787038 0.694336 0.936523 1 0 1.000000
  0 1.569780 0.408822 0.108086 0.225298 -0.552426 -0.802538 0.692383 0.984421 1 0 1.000000
weapon_vm_sh_charlie725_shell
  0 1.324575 -0.268916 0.197999 0.083678 0.790169 -0.607150 0.575684 0.913391 1 0 1.000000
  0 1.567804 -0.102503 0.279275 0.102156 0.316678 -0.943016 0.595703 0.983231 1 0 1.000000
  0 1.537153 -0.189428 0.284900 0.139004 0.095436 -0.985682 0.562988 0.972763 1 0 1.000000
weapon_vm_sh_charlie725_shell
  0 1.324575 -0.016225 0.338103 0.040656 0.214670 -0.975840 0.604492 0.935669 1 0 1.000000
  0 1.567804 -0.102503 0.279275 0.102156 0.316678 -0.943016 0.595703 0.983231 1 0 1.000000
  0 1.324575 -0.268916 0.197999 0.083678 0.790169 -0.607150 0.575684 0.913391 1 0 1.000000
weapon_vm_sh_charlie725_shell
  0 1.324575 -0.016225 0.338103 0.040656 0.214670 -0.975840 0.604492 0.935669 1 0 1.000000
  0 1.586590 0.103395 0.394894 0.022259 -0.320352 -0.947037 0.620117 0.990852 1 0 1.000000
  0 1.567804 -0.102503 0.279275 0.102156 0.316678 -0.943016 0.595703 0.983231 1 0 1.000000
weapon_vm_sh_charlie725_shell
  0 1.328529 0.129920 0.312693 0.071936 -0.561567 -0.824299 0.632813 0.937012 1 0 1.000000
  0 1.586590 0.103395 0.394894 0.022259 -0.320352 -0.947037 0.620117 0.990852 1 0 1.000000
  0 1.324575 -0.016225 0.338103 0.040656 0.214670 -0.975840 0.604492 0.935669 1 0 1.000000
weapon_vm_sh_charlie725_shell
  0 1.328529 0.129920 0.312693 0.071936 -0.561567 -0.824299 0.632813 0.937012 1 0 1.000000
  0 1.434323 0.198706 0.214692 0.027767 -0.774367 -0.632127 0.654785 0.958160 1 0 1.000000
  0 1.586590 0.103395 0.394894 0.022259 -0.320352 -0.947037 0.620117 0.990852 1 0 1.000000
weapon_vm_sh_charlie725_shell
  0 1.434323 0.198706 0.214692 0.027767 -0.774367 -0.632127 0.654785 0.958160 1 0 1.000000
  0 1.566815 0.183942 0.174472 -0.200418 -0.925856 -0.320348 0.657715 0.984528 1 0 1.000000
  0 1.586590 0.103395 0.394894 0.022259 -0.320352 -0.947037 0.620117 0.990852 1 0 1.000000
weapon_vm_sh_charlie725_shell
  0 1.572747 0.026427 0.388798 0.966040 -0.187800 0.177478 0.352051 0.837646 1 0 1.000000
  0 1.567804 -0.102503 0.279275 0.973436 -0.047739 0.223927 0.348633 0.874390 1 0 1.000000
  0 1.586590 0.103395 0.394894 0.966040 -0.187800 0.177478 0.343506 0.822754 1 0 1.000000
weapon_vm_sh_charlie725_shell
  0 1.523310 0.260214 -0.251555 0.120642 -0.332927 0.935203 0.762207 0.975677 1 0 1.000000
  0 1.330506 0.275067 -0.195990 0.104268 -0.488655 0.866224 0.752441 0.937134 1 0 1.000000
  0 1.318641 0.016622 -0.340356 0.078491 0.008780 0.996876 0.811523 0.934814 1 0 1.000000
weapon_vm_sh_charlie725_shell
  0 1.523310 0.260214 -0.251555 0.120642 -0.332927 0.935203 0.762207 0.975677 1 0 1.000000
  0 1.318641 0.016622 -0.340356 0.078491 0.008780 0.996876 0.811523 0.934814 1 0 1.000000
  0 1.581645 0.104908 -0.253304 -0.299707 -0.046740 0.952886 0.788574 0.986389 1 0 1.000000
weapon_vm_sh_charlie725_shell
  0 1.320620 -0.261758 -0.220664 0.118312 0.722854 0.680797 0.872559 0.935120 1 0 1.000000
  0 1.569780 -0.017534 -0.407675 0.287361 0.380059 0.879192 0.818848 0.984909 1 0 1.000000
  0 1.318641 0.016622 -0.340356 0.078491 0.008780 0.996876 0.811523 0.934814 1 0 1.000000
weapon_vm_sh_charlie725_shell
  0 1.584611 -0.308560 0.241201 0.105626 0.810482 -0.576162 0.964844 0.987503 1 0 1.000000
  0 1.324575 -0.268916 0.197999 -0.063907 0.807398 -0.586536 0.959961 0.935730 1 0 1.000000
  0 1.537153 -0.189428 0.284900 0.139004 0.095436 -0.985682 0.986328 0.974792 1 0 1.000000
weapon_vm_sh_charlie725_shell
  0 1.324575 -0.268916 0.197999 -0.063907 0.807398 -0.586536 0.959961 0.935730 1 0 1.000000
  0 1.584611 -0.308560 0.241201 0.105626 0.810482 -0.576162 0.964844 0.987503 1 0 1.000000
  0 1.329517 -0.325644 -0.089750 0.052486 0.995143 0.083280 0.901367 0.936523 1 0 1.000000
weapon_vm_sh_charlie725_shell
  0 1.329517 -0.325644 -0.089750 0.052486 0.995143 0.083280 0.901367 0.936523 1 0 1.000000
  0 1.584611 -0.308560 0.241201 0.105626 0.810482 -0.576162 0.964844 0.987503 1 0 1.000000
  0 1.525288 -0.275082 0.019006 -0.196314 0.975136 0.102810 0.924805 0.975143 1 0 1.000000
weapon_vm_sh_charlie725_shell
  0 1.329517 -0.325644 -0.089750 0.052486 0.995143 0.083280 0.901367 0.936523 1 0 1.000000
  0 1.525288 -0.275082 0.019006 -0.196314 0.975136 0.102810 0.924805 0.975143 1 0 1.000000
  0 1.584611 -0.361531 -0.208007 0.078210 0.988266 -0.131198 0.887207 0.988808 1 0 1.000000
weapon_vm_sh_charlie725_shell
  0 1.584611 -0.361531 -0.208007 0.078210 0.988266 -0.131198 0.887207 0.988808 1 0 1.000000
  0 1.320620 -0.261758 -0.220664 0.118312 0.722854 0.680797 0.872559 0.935120 1 0 1.000000
  0 1.329517 -0.325644 -0.089750 0.052486 0.995143 0.083280 0.901367 0.936523 1 0 1.000000
weapon_vm_sh_charlie725_shell
  0 -0.287068 0.278508 -0.202352 0.045347 -0.998900 -0.011931 0.402588 0.784180 1 0 1.000000
  0 1.328529 0.348359 0.090027 0.114339 -0.967659 0.224863 0.435059 0.626221 1 0 1.000000
  0 -0.287068 0.258928 0.226205 0.051382 -0.997638 -0.045580 0.450928 0.784180 1 0 1.000000
weapon_vm_sh_charlie725_shell
  0 -0.287068 0.278508 -0.202352 0.045347 -0.998900 -0.011931 0.402588 0.784180 1 0 1.000000
  0 1.330506 0.275067 -0.195990 -0.007280 -0.968865 0.247481 0.402588 0.626221 1 0 1.000000
  0 1.328529 0.348359 0.090027 0.114339 -0.967659 0.224863 0.435059 0.626221 1 0 1.000000
weapon_vm_sh_charlie725_shell
  0 -0.287068 0.278508 -0.202352 1.000000 0.000000 0.000000 0.091248 0.885193 1 0 1.000000
  0 -0.287068 -0.331794 -0.091762 1.000000 0.000000 0.000000 0.014847 0.946106 1 0 1.000000
  0 -0.287068 -0.134850 -0.316346 1.000000 0.000000 0.000000 0.025345 0.900208 1 0 1.000000
weapon_vm_sh_charlie725_shell
  0 -0.287068 0.258928 0.226205 1.000000 0.000000 0.000000 0.120605 0.946106 1 0 1.000000
  0 -0.287068 -0.331794 -0.091762 1.000000 0.000000 0.000000 0.014847 0.946106 1 0 1.000000
  0 -0.287068 0.278508 -0.202352 1.000000 0.000000 0.000000 0.091248 0.885193 1 0 1.000000
weapon_vm_sh_charlie725_shell
  0 -0.287068 -0.015372 0.343827 1.000000 0.000000 0.000000 0.091248 0.982925 1 0 1.000000
  0 -0.287068 -0.331794 -0.091762 1.000000 0.000000 0.000000 0.014847 0.946106 1 0 1.000000
  0 -0.287068 0.258928 0.226205 1.000000 0.000000 0.000000 0.120605 0.946106 1 0 1.000000
weapon_vm_sh_charlie725_shell
  0 1.584611 -0.308560 0.241201 0.902729 -0.347481 0.253649 0.543945 0.547363 1 0 1.000000
  0 1.573735 -0.331639 0.248292 0.377399 -0.773844 0.508660 0.538574 0.549561 1 0 1.000000
  0 1.571759 -0.268505 0.023878 0.550824 -0.802156 -0.230519 0.538574 0.499512 1 0 1.000000
weapon_vm_sh_charlie725_shell
  0 1.285025 0.372961 0.063693 -0.077325 0.972523 0.219588 0.121399 0.430664 1 0 1.000000
  0 -0.588632 0.390232 -0.026640 0.039277 0.997986 -0.049804 0.101013 0.009277 1 0 1.000000
  0 -0.621261 0.319667 0.221551 -0.009612 0.842330 0.538876 0.138916 0.001953 1 0 1.000000
weapon_vm_sh_charlie725_shell
  0 -0.588632 0.390232 -0.026640 0.039277 0.997986 -0.049804 0.101013 0.009277 1 0 1.000000
  0 1.285025 0.372961 0.063693 -0.077325 0.972523 0.219588 0.121399 0.430664 1 0 1.000000
  0 1.325562 0.321008 -0.177232 -0.011069 0.888289 -0.459152 0.063416 0.439453 1 0 1.000000
weapon_vm_sh_charlie725_shell
  0 1.285025 0.372961 0.063693 -0.077325 0.972523 0.219588 0.121399 0.430664 1 0 1.000000
  0 1.482772 0.284481 -0.265407 0.199475 0.719950 -0.664741 0.041504 0.476074 1 0 1.000000
  0 1.325562 0.321008 -0.177232 -0.011069 0.888289 -0.459152 0.063416 0.439453 1 0 1.000000
weapon_vm_sh_charlie725_shell
  0 -0.588632 0.390232 -0.026640 0.039277 0.997986 -0.049804 0.101013 0.009277 1 0 1.000000
  0 1.325562 0.321008 -0.177232 -0.011069 0.888289 -0.459152 0.063416 0.439453 1 0 1.000000
  0 -0.588632 0.288378 -0.263793 0.056395 0.739121 -0.671208 0.044189 0.009277 1 0 1.000000
weapon_vm_sh_charlie725_shell
  0 -0.588632 0.288378 -0.263793 0.056395 0.739121 -0.671208 0.044189 0.009277 1 0 1.000000
  0 1.325562 0.321008 -0.177232 -0.011069 0.888289 -0.459152 0.063416 0.439453 1 0 1.000000
  0 1.260306 0.147238 -0.361993 0.172887 0.369061 -0.913183 0.007130 0.423340 1 0 1.000000
weapon_vm_sh_charlie725_shell
  0 1.325562 0.321008 -0.177232 -0.011069 0.888289 -0.459152 0.063416 0.439453 1 0 1.000000
  0 1.482772 0.284481 -0.265407 0.199475 0.719950 -0.664741 0.041504 0.476074 1 0 1.000000
  0 1.260306 0.147238 -0.361993 0.172887 0.369061 -0.913183 0.007130 0.423340 1 0 1.000000
weapon_vm_sh_charlie725_shell
  0 1.260306 0.147238 -0.361993 0.172887 0.369061 -0.913183 0.007130 0.423340 1 0 1.000000
  0 1.482772 0.284481 -0.265407 0.199475 0.719950 -0.664741 0.041504 0.476074 1 0 1.000000
  0 1.581645 0.104908 -0.253304 0.302818 0.118535 -0.945648 0.001950 0.495117 1 0 1.000000
weapon_vm_sh_charlie725_shell
  0 1.564837 0.283140 -0.249848 0.120708 0.815243 -0.566400 0.041229 0.493164 1 0 1.000000
  0 1.581645 0.104908 -0.253304 0.302818 0.118535 -0.945648 0.001950 0.495117 1 0 1.000000
  0 1.482772 0.284481 -0.265407 0.199475 0.719950 -0.664741 0.041504 0.476074 1 0 1.000000
weapon_vm_sh_charlie725_shell
  0 1.535174 0.262000 -0.121642 0.100469 0.994091 -0.041097 0.072083 0.489258 1 0 1.000000
  0 1.564837 0.283140 -0.249848 0.120708 0.815243 -0.566400 0.041229 0.493164 1 0 1.000000
  0 1.482772 0.284481 -0.265407 0.199475 0.719950 -0.664741 0.041504 0.476074 1 0 1.000000
weapon_vm_sh_charlie725_shell
  0 1.285025 0.372961 0.063693 -0.077325 0.972523 0.219588 0.121399 0.430664 1 0 1.000000
  0 1.535174 0.262000 -0.121642 0.100469 0.994091 -0.041097 0.072083 0.489258 1 0 1.000000
  0 1.482772 0.284481 -0.265407 0.199475 0.719950 -0.664741 0.041504 0.476074 1 0 1.000000
weapon_vm_sh_charlie725_shell
  0 1.569780 0.408822 0.108086 -0.159254 0.955054 0.250018 0.127930 0.494629 1 0 1.000000
  0 1.535174 0.262000 -0.121642 0.100469 0.994091 -0.041097 0.072083 0.489258 1 0 1.000000
  0 1.285025 0.372961 0.063693 -0.077325 0.972523 0.219588 0.121399 0.430664 1 0 1.000000
weapon_vm_sh_charlie725_shell
  0 1.285025 0.372961 0.063693 -0.077325 0.972523 0.219588 0.121399 0.430664 1 0 1.000000
  0 1.589555 0.294156 0.197558 -0.107151 0.730893 0.674028 0.156250 0.499512 1 0 1.000000
  0 1.569780 0.408822 0.108086 -0.159254 0.955054 0.250018 0.127930 0.494629 1 0 1.000000
weapon_vm_sh_charlie725_shell
  0 1.589555 0.294156 0.197558 -0.107151 0.730893 0.674028 0.156250 0.499512 1 0 1.000000
  0 1.285025 0.372961 0.063693 -0.077325 0.972523 0.219588 0.121399 0.430664 1 0 1.000000
  0 1.287001 0.253321 0.281890 -0.003260 0.681193 0.732097 0.178345 0.429688 1 0 1.000000
weapon_vm_sh_charlie725_shell
  0 1.287001 0.253321 0.281890 -0.003260 0.681193 0.732097 0.178345 0.429688 1 0 1.000000
  0 1.285025 0.372961 0.063693 -0.077325 0.972523 0.219588 0.121399 0.430664 1 0 1.000000
  0 -0.621261 0.319667 0.221551 -0.009612 0.842330 0.538876 0.138916 0.001953 1 0 1.000000
weapon_vm_sh_charlie725_shell
  0 1.287001 0.253321 0.281890 -0.003260 0.681193 0.732097 0.178345 0.429688 1 0 1.000000
  0 -0.621261 0.319667 0.221551 -0.009612 0.842330 0.538876 0.138916 0.001953 1 0 1.000000
  0 -0.588632 0.192484 0.339947 -0.007113 0.414276 0.910124 0.195679 0.009277 1 0 1.000000
weapon_vm_sh_charlie725_shell
  0 1.213835 0.025817 0.389621 0.051641 0.086953 0.994873 0.233887 0.413574 1 0 1.000000
  0 1.287001 0.253321 0.281890 -0.003260 0.681193 0.732097 0.178345 0.429688 1 0 1.000000
  0 -0.588632 0.192484 0.339947 -0.007113 0.414276 0.910124 0.195679 0.009277 1 0 1.000000
weapon_vm_sh_charlie725_shell
  0 1.213835 0.025817 0.389621 0.051641 0.086953 0.994873 0.233887 0.413574 1 0 1.000000
  0 -0.588632 0.192484 0.339947 -0.007113 0.414276 0.910124 0.195679 0.009277 1 0 1.000000
  0 -0.588632 -0.145591 0.363211 0.000606 -0.381279 0.924460 0.271484 0.009277 1 0 1.000000
weapon_vm_sh_charlie725_shell
  0 -0.588632 0.288378 -0.263793 0.056395 0.739121 -0.671208 0.044189 0.009277 1 0 1.000000
  0 1.260306 0.147238 -0.361993 0.172887 0.369061 -0.913183 0.007130 0.423340 1 0 1.000000
  0 -0.588632 0.060955 -0.386448 0.060637 0.100124 -0.993125 0.006310 0.005859 1 0 1.000000
weapon_vm_sh_charlie725_shell
  0 1.586590 0.103395 0.394894 -0.357170 -0.009736 0.933989 0.219360 0.500244 1 0 1.000000
  0 1.287001 0.253321 0.281890 -0.003260 0.681193 0.732097 0.178345 0.429688 1 0 1.000000
  0 1.532209 0.032122 0.382832 -0.136104 -0.330949 0.933782 0.234863 0.486816 1 0 1.000000
weapon_vm_sh_charlie725_shell
  0 1.287001 0.253321 0.281890 -0.003260 0.681193 0.732097 0.178345 0.429688 1 0 1.000000
  0 1.213835 0.025817 0.389621 0.051641 0.086953 0.994873 0.233887 0.413574 1 0 1.000000
  0 1.532209 0.032122 0.382832 -0.136104 -0.330949 0.933782 0.234863 0.486816 1 0 1.000000
weapon_vm_sh_charlie725_shell
  0 1.584611 -0.361531 -0.208007 0.054523 -0.510412 -0.858200 0.414795 0.500488 1 0 1.000000
  0 1.213835 -0.263791 -0.288377 0.112006 -0.673642 -0.730521 0.441650 0.413574 1 0 1.000000
  0 1.431357 -0.147914 -0.276372 0.180147 -0.438094 -0.880693 0.461426 0.464844 1 0 1.000000
weapon_vm_sh_charlie725_shell
  0 1.584611 -0.361531 -0.208007 0.054523 -0.510412 -0.858200 0.414795 0.500488 1 0 1.000000
  0 1.431357 -0.147914 -0.276372 0.180147 -0.438094 -0.880693 0.461426 0.464844 1 0 1.000000
  0 1.557915 -0.118902 -0.248510 0.296452 -0.530565 -0.794114 0.460938 0.496582 1 0 1.000000
weapon_vm_sh_charlie725_shell
  0 1.557915 -0.118902 -0.248510 0.296452 -0.530565 -0.794114 0.460938 0.496582 1 0 1.000000
  0 1.431357 -0.147914 -0.276372 0.180147 -0.438094 -0.880693 0.461426 0.464844 1 0 1.000000
  0 1.569780 -0.017534 -0.407675 0.071774 -0.744572 -0.663672 0.503418 0.496582 1 0 1.000000
weapon_vm_sh_charlie725_shell
  0 1.569780 -0.017534 -0.407675 0.071774 -0.744572 -0.663672 0.503418 0.496582 1 0 1.000000
  0 1.431357 -0.147914 -0.276372 0.180147 -0.438094 -0.880693 0.461426 0.464844 1 0 1.000000
  0 1.323585 -0.021617 -0.371231 0.149738 -0.145408 -0.977975 0.499268 0.438965 1 0 1.000000
weapon_vm_sh_charlie725_shell
  0 1.431357 -0.147914 -0.276372 0.180147 -0.438094 -0.880693 0.461426 0.464844 1 0 1.000000
  0 1.213835 -0.263791 -0.288377 0.112006 -0.673642 -0.730521 0.441650 0.413574 1 0 1.000000
  0 1.323585 -0.021617 -0.371231 0.149738 -0.145408 -0.977975 0.499268 0.438965 1 0 1.000000
weapon_vm_sh_charlie725_shell
  0 1.323585 -0.021617 -0.371231 0.149738 -0.145408 -0.977975 0.499268 0.438965 1 0 1.000000
  0 1.213835 -0.263791 -0.288377 0.112006 -0.673642 -0.730521 0.441650 0.413574 1 0 1.000000
  0 -0.588632 -0.264613 -0.288986 0.055985 -0.644658 -0.762418 0.441895 0.009277 1 0 1.000000
weapon_vm_sh_charlie725_shell
  0 1.213835 -0.263791 -0.288377 0.112006 -0.673642 -0.730521 0.441650 0.413574 1 0 1.000000
  0 -0.621261 -0.384194 -0.060558 0.040843 -0.981651 -0.186258 0.385010 0.001953 1 0 1.000000
  0 -0.588632 -0.264613 -0.288986 0.055985 -0.644658 -0.762418 0.441895 0.009277 1 0 1.000000
weapon_vm_sh_charlie725_shell
  0 1.213835 -0.263791 -0.288377 0.112006 -0.673642 -0.730521 0.441650 0.413574 1 0 1.000000
  0 1.387853 -0.345095 -0.127080 -0.014979 -0.989298 -0.145138 0.400635 0.454102 1 0 1.000000
  0 -0.621261 -0.384194 -0.060558 0.040843 -0.981651 -0.186258 0.385010 0.001953 1 0 1.000000
weapon_vm_sh_charlie725_shell
  0 1.387853 -0.345095 -0.127080 -0.014979 -0.989298 -0.145138 0.400635 0.454102 1 0 1.000000
  0 -0.621261 -0.373155 0.111859 0.001093 -0.923100 0.384559 0.347168 0.001953 1 0 1.000000
  0 -0.621261 -0.384194 -0.060558 0.040843 -0.981651 -0.186258 0.385010 0.001953 1 0 1.000000
weapon_vm_sh_charlie725_shell
  0 1.387853 -0.345095 -0.127080 -0.014979 -0.989298 -0.145138 0.400635 0.454102 1 0 1.000000
  0 1.213835 -0.340556 0.193306 0.129553 -0.863464 0.487489 0.328369 0.413574 1 0 1.000000
  0 -0.621261 -0.373155 0.111859 0.001093 -0.923100 0.384559 0.347168 0.001953 1 0 1.000000
weapon_vm_sh_charlie725_shell
  0 1.213835 -0.340556 0.193306 0.129553 -0.863464 0.487489 0.328369 0.413574 1 0 1.000000
  0 -0.588632 -0.145591 0.363211 0.000606 -0.381279 0.924460 0.271484 0.009277 1 0 1.000000
  0 -0.621261 -0.373155 0.111859 0.001093 -0.923100 0.384559 0.347168 0.001953 1 0 1.000000
weapon_vm_sh_charlie725_shell
  0 1.213835 -0.340556 0.193306 0.129553 -0.863464 0.487489 0.328369 0.413574 1 0 1.000000
  0 1.335451 -0.267031 0.240137 -0.071408 -0.705538 0.705066 0.309814 0.441895 1 0 1.000000
  0 -0.588632 -0.145591 0.363211 0.000606 -0.381279 0.924460 0.271484 0.009277 1 0 1.000000
weapon_vm_sh_charlie725_shell
  0 1.335451 -0.267031 0.240137 -0.071408 -0.705538 0.705066 0.309814 0.441895 1 0 1.000000
  0 1.213835 0.025817 0.389621 0.051641 0.086953 0.994873 0.233887 0.413574 1 0 1.000000
  0 -0.588632 -0.145591 0.363211 0.000606 -0.381279 0.924460 0.271484 0.009277 1 0 1.000000
weapon_vm_sh_charlie725_shell
  0 1.479805 -0.111821 0.295288 -0.076476 -0.315112 0.945968 0.270264 0.475098 1 0 1.000000
  0 1.213835 0.025817 0.389621 0.051641 0.086953 0.994873 0.233887 0.413574 1 0 1.000000
  0 1.335451 -0.267031 0.240137 -0.071408 -0.705538 0.705066 0.309814 0.441895 1 0 1.000000
weapon_vm_sh_charlie725_shell
  0 1.532209 0.032122 0.382832 -0.136104 -0.330949 0.933782 0.234863 0.486816 1 0 1.000000
  0 1.213835 0.025817 0.389621 0.051641 0.086953 0.994873 0.233887 0.413574 1 0 1.000000
  0 1.479805 -0.111821 0.295288 -0.076476 -0.315112 0.945968 0.270264 0.475098 1 0 1.000000
weapon_vm_sh_charlie725_shell
  0 1.532209 0.032122 0.382832 -0.136104 -0.330949 0.933782 0.234863 0.486816 1 0 1.000000
  0 1.479805 -0.111821 0.295288 -0.076476 -0.315112 0.945968 0.270264 0.475098 1 0 1.000000
  0 1.567804 -0.102503 0.279275 0.199512 -0.261118 0.944464 0.269043 0.495605 1 0 1.000000
weapon_vm_sh_charlie725_shell
  0 1.479805 -0.111821 0.295288 -0.076476 -0.315112 0.945968 0.270264 0.475098 1 0 1.000000
  0 1.535174 -0.193175 0.308860 -0.076153 -0.098933 0.992176 0.288086 0.487793 1 0 1.000000
  0 1.567804 -0.102503 0.279275 0.199512 -0.261118 0.944464 0.269043 0.495605 1 0 1.000000
weapon_vm_sh_charlie725_shell
  0 1.479805 -0.111821 0.295288 -0.076476 -0.315112 0.945968 0.270264 0.475098 1 0 1.000000
  0 1.573735 -0.331639 0.248292 0.377399 -0.773844 0.508660 0.318604 0.497070 1 0 1.000000
  0 1.535174 -0.193175 0.308860 -0.076153 -0.098933 0.992176 0.288086 0.487793 1 0 1.000000
weapon_vm_sh_charlie725_shell
  0 1.584611 -0.361531 -0.208007 0.054523 -0.510412 -0.858200 0.414795 0.500488 1 0 1.000000
  0 1.387853 -0.345095 -0.127080 -0.014979 -0.989298 -0.145138 0.400635 0.454102 1 0 1.000000
  0 1.213835 -0.263791 -0.288377 0.112006 -0.673642 -0.730521 0.441650 0.413574 1 0 1.000000
weapon_vm_sh_charlie725_shell
  0 1.479805 -0.111821 0.295288 -0.076476 -0.315112 0.945968 0.270264 0.475098 1 0 1.000000
  0 1.335451 -0.267031 0.240137 -0.071408 -0.705538 0.705066 0.309814 0.441895 1 0 1.000000
  0 1.573735 -0.331639 0.248292 0.377399 -0.773844 0.508660 0.318604 0.497070 1 0 1.000000
weapon_vm_sh_charlie725_shell
  0 1.573735 -0.331639 0.248292 0.377399 -0.773844 0.508660 0.318604 0.497070 1 0 1.000000
  0 1.335451 -0.267031 0.240137 -0.071408 -0.705538 0.705066 0.309814 0.441895 1 0 1.000000
  0 1.286014 -0.351904 0.107233 -0.125896 -0.989435 0.071896 0.346680 0.430176 1 0 1.000000
weapon_vm_sh_charlie725_shell
  0 1.335451 -0.267031 0.240137 -0.071408 -0.705538 0.705066 0.309814 0.441895 1 0 1.000000
  0 1.213835 -0.340556 0.193306 0.129553 -0.863464 0.487489 0.328369 0.413574 1 0 1.000000
  0 1.286014 -0.351904 0.107233 -0.125896 -0.989435 0.071896 0.346680 0.430176 1 0 1.000000
weapon_vm_sh_charlie725_shell
  0 1.387853 -0.345095 -0.127080 -0.014979 -0.989298 -0.145138 0.400635 0.454102 1 0 1.000000
  0 1.286014 -0.351904 0.107233 -0.125896 -0.989435 0.071896 0.346680 0.430176 1 0 1.000000
  0 1.213835 -0.340556 0.193306 0.129553 -0.863464 0.487489 0.328369 0.413574 1 0 1.000000
weapon_vm_sh_charlie725_shell
  0 1.387853 -0.345095 -0.127080 -0.014979 -0.989298 -0.145138 0.400635 0.454102 1 0 1.000000
  0 1.573735 -0.331639 0.248292 0.377399 -0.773844 0.508660 0.318604 0.497070 1 0 1.000000
  0 1.286014 -0.351904 0.107233 -0.125896 -0.989435 0.071896 0.346680 0.430176 1 0 1.000000
weapon_vm_sh_charlie725_shell
  0 1.387853 -0.345095 -0.127080 -0.014979 -0.989298 -0.145138 0.400635 0.454102 1 0 1.000000
  0 1.571759 -0.268505 0.023878 0.550824 -0.802156 -0.230519 0.365723 0.496094 1 0 1.000000
  0 1.573735 -0.331639 0.248292 0.377399 -0.773844 0.508660 0.318604 0.497070 1 0 1.000000
weapon_vm_sh_charlie725_shell
  0 1.581645 0.104908 -0.253304 0.302818 0.118535 -0.945648 0.543457 0.495117 1 0 1.000000
  0 1.323585 -0.021617 -0.371231 0.149738 -0.145408 -0.977975 0.499268 0.438965 1 0 1.000000
  0 1.260306 0.147238 -0.361993 0.172887 0.369061 -0.913183 0.536621 0.423340 1 0 1.000000
weapon_vm_sh_charlie725_shell
  0 1.260306 0.147238 -0.361993 0.172887 0.369061 -0.913183 0.536621 0.423340 1 0 1.000000
  0 1.323585 -0.021617 -0.371231 0.149738 -0.145408 -0.977975 0.499268 0.438965 1 0 1.000000
  0 -0.588632 0.060955 -0.386448 0.060637 0.100124 -0.993125 0.517578 0.009277 1 0 1.000000
weapon_vm_sh_charlie725_shell
  0 1.323585 -0.021617 -0.371231 0.149738 -0.145408 -0.977975 0.499268 0.438965 1 0 1.000000
  0 -0.588632 -0.264613 -0.288986 0.055985 -0.644658 -0.762418 0.441895 0.009277 1 0 1.000000
  0 -0.588632 0.060955 -0.386448 0.060637 0.100124 -0.993125 0.517578 0.009277 1 0 1.000000
weapon_vm_sh_charlie725_shell
  0 1.573735 -0.331639 0.248292 0.377399 -0.773844 0.508660 0.263672 0.873535 1 0 1.000000
  0 1.584611 -0.308560 0.241201 0.902729 -0.347481 0.253649 0.261230 0.868164 1 0 1.000000
  0 1.581645 -0.190007 0.290836 -0.046619 -0.171559 0.984070 0.270020 0.841431 1 0 1.000000
weapon_vm_sh_charlie725_shell
  0 -0.287068 0.278508 -0.202352 0.034482 -0.292213 0.955731 0.402588 0.784180 1 0 1.000000
  0 1.318641 0.016622 -0.340356 0.078491 0.008780 0.996876 0.370361 0.626221 1 0 1.000000
  0 1.330506 0.275067 -0.195990 0.104268 -0.488655 0.866224 0.402588 0.626221 1 0 1.000000
weapon_vm_sh_charlie725_shell
  0 -0.287068 -0.134850 -0.316346 0.031110 0.292648 0.955714 0.354492 0.784180 1 0 1.000000
  0 1.318641 0.016622 -0.340356 0.078491 0.008780 0.996876 0.370361 0.626221 1 0 1.000000
  0 -0.287068 0.278508 -0.202352 0.034482 -0.292213 0.955731 0.402588 0.784180 1 0 1.000000
weapon_vm_sh_charlie725_shell
  0 -0.287068 -0.134850 -0.316346 0.031110 0.292648 0.955714 0.354492 0.784180 1 0 1.000000
  0 1.320620 -0.261758 -0.220664 0.118312 0.722854 0.680797 0.338135 0.626221 1 0 1.000000
  0 1.318641 0.016622 -0.340356 0.078491 0.008780 0.996876 0.370361 0.626221 1 0 1.000000
weapon_vm_sh_charlie725_shell
  0 -0.287068 -0.331794 -0.091762 0.052755 0.996611 0.063112 0.322266 0.784180 1 0 1.000000
  0 1.320620 -0.261758 -0.220664 0.118312 0.722854 0.680797 0.338135 0.626221 1 0 1.000000
  0 -0.287068 -0.134850 -0.316346 0.031110 0.292648 0.955714 0.354492 0.784180 1 0 1.000000
weapon_vm_sh_charlie725_shell
  0 -0.287068 -0.331794 -0.091762 0.052755 0.996611 0.063112 0.322266 0.784180 1 0 1.000000
  0 1.329517 -0.325644 -0.089750 0.052486 0.995143 0.083280 0.322021 0.626221 1 0 1.000000
  0 1.320620 -0.261758 -0.220664 0.118312 0.722854 0.680797 0.338135 0.626221 1 0 1.000000
weapon_vm_sh_charlie725_shell
  0 -0.287068 -0.331794 -0.091762 0.052755 0.996611 0.063112 0.322266 0.784180 1 0 1.000000
  0 1.324575 -0.268916 0.197999 0.083678 0.790169 -0.607150 0.290039 0.626221 1 0 1.000000
  0 1.329517 -0.325644 -0.089750 0.052486 0.995143 0.083280 0.322021 0.626221 1 0 1.000000
weapon_vm_sh_charlie725_shell
  0 -0.287068 -0.015372 0.343827 0.051504 0.247610 -0.967490 0.273926 0.784180 1 0 1.000000
  0 1.324575 -0.268916 0.197999 0.083678 0.790169 -0.607150 0.290039 0.626221 1 0 1.000000
  0 -0.287068 -0.331794 -0.091762 0.052755 0.996611 0.063112 0.322266 0.784180 1 0 1.000000
weapon_vm_sh_charlie725_shell
  0 -1.180886 0.441951 0.070243 0.709794 0.698619 0.090132 0.547363 0.173828 1 0 1.000000
  0 -1.110686 0.360958 0.145195 0.242440 0.846572 0.473856 0.561523 0.118652 1 0 1.000000
  0 -1.180886 0.428510 -0.128145 0.149064 0.955151 -0.255863 0.560059 0.199707 1 0 1.000000
weapon_vm_sh_charlie725_shell
  0 -1.180886 0.220399 0.389911 0.670153 0.400820 0.624690 0.559570 0.062012 1 0 1.000000
  0 -1.110686 0.360958 0.145195 0.242440 0.846572 0.473856 0.561523 0.118652 1 0 1.000000
  0 -1.180886 0.441951 0.070243 0.709794 0.698619 0.090132 0.547363 0.173828 1 0 1.000000
weapon_vm_sh_charlie725_shell
  0 -1.180886 0.220399 0.389911 0.670153 0.400820 0.624690 0.559570 0.062012 1 0 1.000000
  0 -1.110686 0.111039 0.372548 0.275082 0.247073 0.929131 0.611328 0.038574 1 0 1.000000
  0 -1.110686 0.360958 0.145195 0.242440 0.846572 0.473856 0.561523 0.118652 1 0 1.000000
weapon_vm_sh_charlie725_shell
  0 -1.180886 -0.167182 0.414693 0.638633 -0.305963 0.706070 0.654785 0.001953 1 0 1.000000
  0 -1.110686 0.111039 0.372548 0.275082 0.247073 0.929131 0.611328 0.038574 1 0 1.000000
  0 -1.180886 0.220399 0.389911 0.670153 0.400820 0.624690 0.559570 0.062012 1 0 1.000000
weapon_vm_sh_charlie725_shell
  0 -1.180886 -0.167182 0.414693 0.638633 -0.305963 0.706070 0.654785 0.001953 1 0 1.000000
  0 -1.110686 -0.145195 0.360958 0.480013 -0.325001 0.814839 0.681152 0.022461 1 0 1.000000
  0 -1.110686 0.111039 0.372548 0.275082 0.247073 0.929131 0.611328 0.038574 1 0 1.000000
weapon_vm_sh_charlie725_shell
  0 -1.180886 -0.167182 0.414693 0.638633 -0.305963 0.706070 0.654785 0.001953 1 0 1.000000
  0 -1.110686 -0.373155 0.111859 0.305525 -0.866728 0.394254 0.760742 0.072754 1 0 1.000000
  0 -1.110686 -0.145195 0.360958 0.480013 -0.325001 0.814839 0.681152 0.022461 1 0 1.000000
weapon_vm_sh_charlie725_shell
  0 -1.180886 -0.389911 0.220399 0.744836 -0.534660 0.399197 0.778809 0.061523 1 0 1.000000
  0 -1.110686 -0.373155 0.111859 0.305525 -0.866728 0.394254 0.760742 0.072754 1 0 1.000000
  0 -1.180886 -0.167182 0.414693 0.638633 -0.305963 0.706070 0.654785 0.001953 1 0 1.000000
weapon_vm_sh_charlie725_shell
  0 -1.180886 -0.441951 -0.070244 0.130958 -0.981670 -0.138473 0.797852 0.115723 1 0 1.000000
  0 -1.110686 -0.373155 0.111859 0.305525 -0.866728 0.394254 0.760742 0.072754 1 0 1.000000
  0 -1.180886 -0.389911 0.220399 0.744836 -0.534660 0.399197 0.778809 0.061523 1 0 1.000000
weapon_vm_sh_charlie725_shell
  0 -1.180886 0.070244 -0.441951 0.825785 -0.100717 -0.554920 0.991211 0.170410 1 0 1.000000
  0 -1.152212 0.167579 -0.416947 0.825785 -0.100717 -0.554920 0.997559 0.148926 1 0 1.000000
  0 -1.180886 -0.221008 -0.389089 0.825785 -0.100717 -0.554920 0.991211 0.235840 1 0 1.000000
weapon_vm_sh_charlie725_shell
  0 -1.152212 0.167579 -0.416947 0.050622 0.367885 -0.928492 0.039673 0.504639 1 0 1.000000
  0 -0.588632 0.288378 -0.263793 0.056395 0.739121 -0.671208 0.020828 0.614502 1 0 1.000000
  0 -0.588632 0.060955 -0.386448 0.060637 0.100124 -0.993125 0.001950 0.617432 1 0 1.000000
weapon_vm_sh_charlie725_shell
  0 -1.180886 0.428510 -0.128145 0.149064 0.955151 -0.255863 0.077393 0.504639 1 0 1.000000
  0 -0.588632 0.288378 -0.263793 0.056395 0.739121 -0.671208 0.020828 0.614502 1 0 1.000000
  0 -1.152212 0.167579 -0.416947 0.050622 0.367885 -0.928492 0.039673 0.504639 1 0 1.000000
weapon_vm_sh_charlie725_shell
  0 -0.588632 0.390232 -0.026640 0.039277 0.997986 -0.049804 0.115173 0.614502 1 0 1.000000
  0 -0.588632 0.288378 -0.263793 0.056395 0.739121 -0.671208 0.020828 0.614502 1 0 1.000000
  0 -1.180886 0.428510 -0.128145 0.149064 0.955151 -0.255863 0.077393 0.504639 1 0 1.000000
weapon_vm_sh_charlie725_shell
  0 -1.110686 0.360958 0.145195 0.242440 0.846572 0.473856 0.134033 0.504639 1 0 1.000000
  0 -0.588632 0.390232 -0.026640 0.039277 0.997986 -0.049804 0.115173 0.614502 1 0 1.000000
  0 -1.180886 0.428510 -0.128145 0.149064 0.955151 -0.255863 0.077393 0.504639 1 0 1.000000
weapon_vm_sh_charlie725_shell
  0 -0.621261 0.319667 0.221551 -0.009612 0.842330 0.538876 0.152954 0.614502 1 0 1.000000
  0 -0.588632 0.390232 -0.026640 0.039277 0.997986 -0.049804 0.115173 0.614502 1 0 1.000000
  0 -1.110686 0.360958 0.145195 0.242440 0.846572 0.473856 0.134033 0.504639 1 0 1.000000
weapon_vm_sh_charlie725_shell
  0 -0.588632 0.192484 0.339947 -0.007113 0.414276 0.910124 0.209473 0.614502 1 0 1.000000
  0 -0.621261 0.319667 0.221551 -0.009612 0.842330 0.538876 0.152954 0.614502 1 0 1.000000
  0 -1.110686 0.360958 0.145195 0.242440 0.846572 0.473856 0.134033 0.504639 1 0 1.000000
weapon_vm_sh_charlie725_shell
  0 -1.110686 0.111039 0.372548 0.275082 0.247073 0.929131 0.209473 0.504639 1 0 1.000000
  0 -0.588632 0.192484 0.339947 -0.007113 0.414276 0.910124 0.209473 0.614502 1 0 1.000000
  0 -1.110686 0.360958 0.145195 0.242440 0.846572 0.473856 0.134033 0.504639 1 0 1.000000
weapon_vm_sh_charlie725_shell
  0 -0.588632 -0.145591 0.363211 0.000606 -0.381279 0.924460 0.284912 0.614502 1 0 1.000000
  0 -0.588632 0.192484 0.339947 -0.007113 0.414276 0.910124 0.209473 0.614502 1 0 1.000000
  0 -1.110686 0.111039 0.372548 0.275082 0.247073 0.929131 0.209473 0.504639 1 0 1.000000
weapon_vm_sh_charlie725_shell
  0 -1.110686 -0.145195 0.360958 0.480013 -0.325001 0.814839 0.266113 0.504639 1 0 1.000000
  0 -0.588632 -0.145591 0.363211 0.000606 -0.381279 0.924460 0.284912 0.614502 1 0 1.000000
  0 -1.110686 0.111039 0.372548 0.275082 0.247073 0.929131 0.209473 0.504639 1 0 1.000000
weapon_vm_sh_charlie725_shell
  0 -0.621261 -0.373155 0.111859 0.001093 -0.923100 0.384559 0.341553 0.614502 1 0 1.000000
  0 -0.588632 -0.145591 0.363211 0.000606 -0.381279 0.924460 0.284912 0.614502 1 0 1.000000
  0 -1.110686 -0.145195 0.360958 0.480013 -0.325001 0.814839 0.266113 0.504639 1 0 1.000000
weapon_vm_sh_charlie725_shell
  0 -1.110686 -0.373155 0.111859 0.305525 -0.866728 0.394254 0.341553 0.504639 1 0 1.000000
  0 -0.621261 -0.373155 0.111859 0.001093 -0.923100 0.384559 0.341553 0.614502 1 0 1.000000
  0 -1.110686 -0.145195 0.360958 0.480013 -0.325001 0.814839 0.266113 0.504639 1 0 1.000000
weapon_vm_sh_charlie725_shell
  0 -0.621261 -0.384194 -0.060558 0.040843 -0.981651 -0.186258 0.379395 0.614502 1 0 1.000000
  0 -0.621261 -0.373155 0.111859 0.001093 -0.923100 0.384559 0.341553 0.614502 1 0 1.000000
  0 -1.110686 -0.373155 0.111859 0.305525 -0.866728 0.394254 0.341553 0.504639 1 0 1.000000
weapon_vm_sh_charlie725_shell
  0 -1.180886 -0.441951 -0.070244 0.130958 -0.981670 -0.138473 0.416992 0.504639 1 0 1.000000
  0 -0.621261 -0.384194 -0.060558 0.040843 -0.981651 -0.186258 0.379395 0.614502 1 0 1.000000
  0 -1.110686 -0.373155 0.111859 0.305525 -0.866728 0.394254 0.341553 0.504639 1 0 1.000000
weapon_vm_sh_charlie725_shell
  0 -0.588632 -0.264613 -0.288986 0.055985 -0.644658 -0.762418 0.454834 0.617432 1 0 1.000000
  0 -0.621261 -0.384194 -0.060558 0.040843 -0.981651 -0.186258 0.379395 0.614502 1 0 1.000000
  0 -1.180886 -0.441951 -0.070244 0.130958 -0.981670 -0.138473 0.416992 0.504639 1 0 1.000000
weapon_vm_sh_charlie725_shell
  0 -1.180886 -0.221008 -0.389089 0.061148 -0.503222 -0.861991 0.454834 0.504639 1 0 1.000000
  0 -0.588632 -0.264613 -0.288986 0.055985 -0.644658 -0.762418 0.454834 0.617432 1 0 1.000000
  0 -1.180886 -0.441951 -0.070244 0.130958 -0.981670 -0.138473 0.416992 0.504639 1 0 1.000000
weapon_vm_sh_charlie725_shell
  0 -0.588632 0.060955 -0.386448 0.060637 0.100124 -0.993125 0.511230 0.614502 1 0 1.000000
  0 -0.588632 -0.264613 -0.288986 0.055985 -0.644658 -0.762418 0.454834 0.617432 1 0 1.000000
  0 -1.180886 -0.221008 -0.389089 0.061148 -0.503222 -0.861991 0.454834 0.504639 1 0 1.000000
weapon_vm_sh_charlie725_shell
  0 -1.152212 0.167579 -0.416947 0.050622 0.367885 -0.928492 0.511230 0.504639 1 0 1.000000
  0 -0.588632 0.060955 -0.386448 0.060637 0.100124 -0.993125 0.511230 0.614502 1 0 1.000000
  0 -1.180886 -0.221008 -0.389089 0.061148 -0.503222 -0.861991 0.454834 0.504639 1 0 1.000000
weapon_vm_sh_charlie725_shell
  0 -1.161111 0.150947 0.060904 -0.999099 -0.035867 -0.022689 0.871582 0.117676 1 0 1.000000
  0 -1.180886 0.220399 0.389911 -0.997707 -0.032725 -0.059243 0.867676 0.192871 1 0 1.000000
  0 -1.180886 0.441951 0.070243 -0.997494 -0.068700 -0.016929 0.807129 0.132324 1 0 1.000000
weapon_vm_sh_charlie725_shell
  0 -1.161111 0.150947 0.060904 -0.999099 -0.035867 -0.022689 0.871582 0.117676 1 0 1.000000
  0 -1.161111 -0.061513 0.151769 -0.998801 0.028968 -0.039474 0.917969 0.128418 1 0 1.000000
  0 -1.180886 0.220399 0.389911 -0.997707 -0.032725 -0.059243 0.867676 0.192871 1 0 1.000000
weapon_vm_sh_charlie725_shell
  0 -1.161111 -0.061513 0.151769 -0.998801 0.028968 -0.039474 0.917969 0.128418 1 0 1.000000
  0 -1.180886 -0.167182 0.414693 -0.998047 0.024323 -0.057541 0.952637 0.183105 1 0 1.000000
  0 -1.180886 0.220399 0.389911 -0.997707 -0.032725 -0.059243 0.867676 0.192871 1 0 1.000000
weapon_vm_sh_charlie725_shell
  0 -1.161111 -0.061513 0.151769 -0.998801 0.028968 -0.039474 0.917969 0.128418 1 0 1.000000
  0 -1.161111 -0.151768 -0.061514 -0.998626 0.045369 0.026234 0.928711 0.082031 1 0 1.000000
  0 -1.180886 -0.167182 0.414693 -0.998047 0.024323 -0.057541 0.952637 0.183105 1 0 1.000000
weapon_vm_sh_charlie725_shell
  0 -1.161111 -0.151768 -0.061514 -0.998626 0.045369 0.026234 0.928711 0.082031 1 0 1.000000
  0 -1.180886 -0.389911 0.220399 -0.998434 0.047022 -0.030315 0.993164 0.132324 1 0 1.000000
  0 -1.180886 -0.167182 0.414693 -0.998047 0.024323 -0.057541 0.952637 0.183105 1 0 1.000000
weapon_vm_sh_charlie725_shell
  0 -1.161111 -0.151768 -0.061514 -0.998626 0.045369 0.026234 0.928711 0.082031 1 0 1.000000
  0 -1.180886 -0.441951 -0.070244 -0.997143 0.066898 0.035066 0.993164 0.067383 1 0 1.000000
  0 -1.180886 -0.389911 0.220399 -0.998434 0.047022 -0.030315 0.993164 0.132324 1 0 1.000000
weapon_vm_sh_charlie725_shell
  0 -1.161111 -0.151768 -0.061514 -0.998626 0.045369 0.026234 0.928711 0.082031 1 0 1.000000
  0 -1.192293 -0.367738 -0.254620 -0.995653 0.072355 0.058654 0.969727 0.030273 1 0 1.000000
  0 -1.180886 -0.441951 -0.070244 -0.997143 0.066898 0.035066 0.993164 0.067383 1 0 1.000000
weapon_vm_sh_charlie725_shell
  0 -1.161111 -0.151768 -0.061514 -0.998626 0.045369 0.026234 0.928711 0.082031 1 0 1.000000
  0 -1.161111 -0.011191 -0.163618 -0.999041 0.006640 0.043267 0.896484 0.066406 1 0 1.000000
  0 -1.192293 -0.367738 -0.254620 -0.995653 0.072355 0.058654 0.969727 0.030273 1 0 1.000000
weapon_vm_sh_charlie725_shell
  0 -1.161111 -0.011191 -0.163618 -0.999041 0.006640 0.043267 0.896484 0.066406 1 0 1.000000
  0 -1.180886 -0.221008 -0.389089 -0.997769 0.057383 0.034111 0.932617 0.006836 1 0 1.000000
  0 -1.192293 -0.367738 -0.254620 -0.995653 0.072355 0.058654 0.969727 0.030273 1 0 1.000000
weapon_vm_sh_charlie725_shell
  0 -1.161111 -0.011191 -0.163618 -0.999041 0.006640 0.043267 0.896484 0.066406 1 0 1.000000
  0 -1.180886 0.070244 -0.441951 -0.997883 -0.010421 0.064195 0.867676 0.006836 1 0 1.000000
  0 -1.180886 -0.221008 -0.389089 -0.997769 0.057383 0.034111 0.932617 0.006836 1 0 1.000000
weapon_vm_sh_charlie725_shell
  0 -1.161111 -0.011191 -0.163618 -0.999041 0.006640 0.043267 0.896484 0.066406 1 0 1.000000
  0 -1.161111 0.156864 -0.046753 -0.999151 -0.037047 0.018042 0.866699 0.096191 1 0 1.000000
  0 -1.180886 0.070244 -0.441951 -0.997883 -0.010421 0.064195 0.867676 0.006836 1 0 1.000000
weapon_vm_sh_charlie725_shell
  0 -1.161111 0.156864 -0.046753 -0.999151 -0.037047 0.018042 0.866699 0.096191 1 0 1.000000
  0 -1.180886 0.254621 -0.367739 -0.998084 -0.035515 0.050673 0.830566 0.030273 1 0 1.000000
  0 -1.180886 0.070244 -0.441951 -0.997883 -0.010421 0.064195 0.867676 0.006836 1 0 1.000000
weapon_vm_sh_charlie725_shell
  0 -1.161111 0.156864 -0.046753 -0.999151 -0.037047 0.018042 0.866699 0.096191 1 0 1.000000
  0 -1.180886 0.428510 -0.128145 -0.997572 -0.065665 0.023214 0.802246 0.088867 1 0 1.000000
  0 -1.180886 0.254621 -0.367739 -0.998084 -0.035515 0.050673 0.830566 0.030273 1 0 1.000000
weapon_vm_sh_charlie725_shell
  0 -1.161111 0.156864 -0.046753 -0.999151 -0.037047 0.018042 0.866699 0.096191 1 0 1.000000
  0 -1.180886 0.441951 0.070243 -0.997494 -0.068700 -0.016929 0.807129 0.132324 1 0 1.000000
  0 -1.180886 0.428510 -0.128145 -0.997572 -0.065665 0.023214 0.802246 0.088867 1 0 1.000000
weapon_vm_sh_charlie725_shell
  0 -1.161111 0.156864 -0.046753 -0.999151 -0.037047 0.018042 0.866699 0.096191 1 0 1.000000
  0 -1.161111 0.150947 0.060904 -0.999099 -0.035867 -0.022689 0.871582 0.117676 1 0 1.000000
  0 -1.180886 0.441951 0.070243 -0.997494 -0.068700 -0.016929 0.807129 0.132324 1 0 1.000000
weapon_vm_sh_charlie725_shell
  0 -1.161111 -0.061513 0.151769 -0.998801 0.028968 -0.039474 0.917969 0.128418 1 0 1.000000
  0 -1.161111 0.150947 0.060904 -0.999099 -0.035867 -0.022689 0.871582 0.117676 1 0 1.000000
  0 -1.161111 0.156864 -0.046753 -0.999151 -0.037047 0.018042 0.866699 0.096191 1 0 1.000000
weapon_vm_sh_charlie725_shell
  0 -1.161111 -0.011191 -0.163618 -0.999041 0.006640 0.043267 0.896484 0.066406 1 0 1.000000
  0 -1.161111 -0.061513 0.151769 -0.998801 0.028968 -0.039474 0.917969 0.128418 1 0 1.000000
  0 -1.161111 0.156864 -0.046753 -0.999151 -0.037047 0.018042 0.866699 0.096191 1 0 1.000000
weapon_vm_sh_charlie725_shell
  0 -1.161111 -0.011191 -0.163618 -0.999041 0.006640 0.043267 0.896484 0.066406 1 0 1.000000
  0 -1.161111 -0.151768 -0.061514 -0.998626 0.045369 0.026234 0.928711 0.082031 1 0 1.000000
  0 -1.161111 -0.061513 0.151769 -0.998801 0.028968 -0.039474 0.917969 0.128418 1 0 1.000000
weapon_vm_sh_charlie725_shell
  0 -1.180886 0.254621 -0.367739 -0.416814 0.339409 -0.843248 0.991211 0.736328 1 0 1.000000
  0 -1.180886 0.166361 -0.415302 -0.534797 0.313527 -0.784661 0.991211 0.758057 1 0 1.000000
  0 -1.180886 0.070244 -0.441951 -0.416814 0.339409 -0.843248 0.991211 0.758057 1 0 1.000000
weapon_vm_sh_charlie725_shell
  0 -0.287068 -0.015372 0.343827 0.051504 0.247610 -0.967490 0.483154 0.784180 1 0 1.000000
  0 1.324575 -0.016225 0.338103 0.040656 0.214670 -0.975840 0.483154 0.626221 1 0 1.000000
  0 1.324575 -0.268916 0.197999 0.083678 0.790169 -0.607150 0.499268 0.626221 1 0 1.000000
weapon_vm_sh_charlie725_shell
  0 -0.287068 -0.015372 0.343827 0.051504 0.247610 -0.967490 0.483154 0.784180 1 0 1.000000
  0 1.328529 0.129920 0.312693 0.071936 -0.561567 -0.824299 0.467285 0.626221 1 0 1.000000
  0 1.324575 -0.016225 0.338103 0.040656 0.214670 -0.975840 0.483154 0.626221 1 0 1.000000
weapon_vm_sh_charlie725_shell
  0 -0.287068 0.258928 0.226205 0.012363 -0.434259 -0.900703 0.450928 0.784180 1 0 1.000000
  0 1.328529 0.129920 0.312693 0.071936 -0.561567 -0.824299 0.467285 0.626221 1 0 1.000000
  0 -0.287068 -0.015372 0.343827 0.051504 0.247610 -0.967490 0.483154 0.784180 1 0 1.000000
weapon_vm_sh_charlie725_shell
  0 -0.287068 0.258928 0.226205 0.012363 -0.434259 -0.900703 0.450928 0.784180 1 0 1.000000
  0 1.434323 0.198706 0.214692 0.027767 -0.774367 -0.632127 0.451172 0.626221 1 0 1.000000
  0 1.328529 0.129920 0.312693 0.071936 -0.561567 -0.824299 0.467285 0.626221 1 0 1.000000
weapon_vm_sh_charlie725_shell
  0 -0.287068 0.258928 0.226205 0.012363 -0.434259 -0.900703 0.450928 0.784180 1 0 1.000000
  0 1.328529 0.348359 0.090027 0.058734 -0.614103 -0.787038 0.435059 0.626221 1 0 1.000000
  0 1.434323 0.198706 0.214692 0.027767 -0.774367 -0.632127 0.451172 0.626221 1 0 1.000000
weapon_vm_sh_charlie725_shell
  0 -1.180886 0.428510 -0.128145 0.822981 0.459747 -0.333669 0.560059 0.199707 1 0 1.000000
  0 -1.152212 0.167579 -0.416947 0.822981 0.459747 -0.333669 0.655273 0.259277 1 0 1.000000
  0 -1.180886 0.254621 -0.367739 0.822981 0.459747 -0.333669 0.601074 0.240234 1 0 1.000000
weapon_vm_sh_charlie725_shell
  0 1.569780 0.408822 0.108086 0.017324 -0.920173 0.391128 0.692383 0.984421 1 0 1.000000
  0 1.328529 0.348359 0.090027 0.114339 -0.967659 0.224863 0.694336 0.936523 1 0 1.000000
  0 1.330506 0.275067 -0.195990 -0.007280 -0.968865 0.247481 0.752441 0.937134 1 0 1.000000
weapon_vm_sh_charlie725_shell
  0 1.330506 0.275067 -0.195990 -0.007280 -0.968865 0.247481 0.752441 0.937134 1 0 1.000000
  0 1.577690 0.258955 -0.117531 -0.147739 -0.951440 0.270066 0.736816 0.986076 1 0 1.000000
  0 1.569780 0.408822 0.108086 0.017324 -0.920173 0.391128 0.692383 0.984421 1 0 1.000000
weapon_vm_sh_charlie725_shell
  0 1.330506 0.275067 -0.195990 -0.007280 -0.968865 0.247481 0.752441 0.937134 1 0 1.000000
  0 1.564837 0.283140 -0.249848 -0.007274 -0.983802 -0.179113 0.759766 0.984375 1 0 1.000000
  0 1.577690 0.258955 -0.117531 -0.147739 -0.951440 0.270066 0.736816 0.986076 1 0 1.000000
weapon_vm_sh_charlie725_shell
  0 -1.192293 -0.367738 -0.254620 0.968023 -0.206194 -0.142882 0.791504 0.172852 1 0 1.000000
  0 -1.180886 -0.221008 -0.389089 0.968023 -0.206194 -0.142882 0.738770 0.239746 1 0 1.000000
  0 -1.180886 -0.441951 -0.070244 0.968023 -0.206194 -0.142882 0.797852 0.115723 1 0 1.000000
weapon_vm_sh_charlie725_shell
  0 1.589555 0.294156 0.197558 0.291316 -0.253332 0.922474 0.156250 0.499512 1 0 1.000000
  0 1.287001 0.253321 0.281890 0.291316 -0.253332 0.922474 0.178345 0.429688 1 0 1.000000
  0 1.566815 0.183942 0.174472 0.291316 -0.253332 0.922474 0.175781 0.497559 1 0 1.000000
weapon_vm_sh_charlie725_shell
  0 1.557915 -0.118902 -0.248510 -0.415420 0.780958 0.466403 0.848145 0.982300 1 0 1.000000
  0 1.569780 -0.017534 -0.407675 -0.415420 0.780957 0.466403 0.818848 0.984909 1 0 1.000000
  0 1.320620 -0.261758 -0.220664 -0.415420 0.780957 0.466403 0.872559 0.935120 1 0 1.000000
weapon_vm_sh_charlie725_shell
  0 1.387853 -0.345095 -0.127080 0.077022 -0.923861 0.374897 0.400635 0.454102 1 0 1.000000
  0 1.584611 -0.361531 -0.208007 0.077022 -0.923861 0.374897 0.414795 0.500488 1 0 1.000000
  0 1.571759 -0.268505 0.023878 0.077022 -0.923861 0.374897 0.365723 0.496094 1 0 1.000000
weapon_vm_sh_charlie725_shell
  0 1.557915 -0.118902 -0.248510 0.015581 0.166303 0.985952 0.848145 0.982300 1 0 1.000000
  0 1.320620 -0.261758 -0.220664 0.015581 0.166303 0.985952 0.872559 0.935120 1 0 1.000000
  0 1.584611 -0.361531 -0.208007 0.015581 0.166303 0.985952 0.887207 0.988808 1 0 1.000000
weapon_vm_sh_charlie725_shell
  0 1.434323 0.198706 0.214692 -0.255907 0.248487 -0.934219 0.654785 0.958160 1 0 1.000000
  0 1.589555 0.294156 0.197558 -0.255907 0.248486 -0.934219 0.673828 0.986214 1 0 1.000000
  0 1.566815 0.183942 0.174472 -0.255907 0.248486 -0.934219 0.657715 0.984528 1 0 1.000000
weapon_vm_sh_charlie725_shell
  0 1.581645 0.104908 -0.253304 0.058872 -0.784313 0.617566 0.788574 0.986389 1 0 1.000000
  0 1.318641 0.016622 -0.340356 0.058871 -0.784313 0.617566 0.811523 0.934814 1 0 1.000000
  0 1.569780 -0.017534 -0.407675 0.058871 -0.784313 0.617566 0.818848 0.984909 1 0 1.000000
weapon_vm_sh_charlie725_shell
  0 1.566815 0.183942 0.174472 0.335559 0.894101 0.296620 0.175781 0.497559 1 0 1.000000
  0 1.287001 0.253321 0.281890 0.335559 0.894101 0.296620 0.178345 0.429688 1 0 1.000000
  0 1.586590 0.103395 0.394894 0.335559 0.894101 0.296620 0.219360 0.500244 1 0 1.000000
end
