// Created by Crowbar 0.74
version 1
nodes
  0 "tag_rail_attach" -1
  1 "j_slide" 0
  2 "tag_flash_attachment" 0
  3 "tag_silencer" 0
  4 "tag_tip" 0
  5 "tag_sight_on" 1
end
skeleton
  time 0
    0 0.000000 0.000000 0.000000 0.000000 0.000000 -1.570796
    1 0.000000 -0.001000 0.000000 0.000000 0.000000 0.000000
    2 4.280000 0.000000 0.133000 0.000000 0.000000 0.000000
    3 3.708000 0.000000 0.135000 0.000000 0.000000 0.000000
    4 4.051000 0.000000 0.133000 0.000000 0.000000 0.000000
    5 -3.252000 0.000000 0.540000 0.000000 0.000000 0.000000
end
