// Created by Crowbar 0.74
version 1
nodes
  0 "tag_origin" -1
  1 "tag_sync" 0
  2 "tag_view" 0
  3 "tag_ads" 2
  4 "tag_torso" 3
  5 "j_mainroot" 4
  6 "j_hip_le" 5
  7 "j_hiptwist_le" 6
  8 "j_knee_le" 6
  9 "j_ankle_le" 8
  10 "j_ball_le" 9
  11 "j_kneedq_le" 8
  12 "j_hip_proc_le" 6
  13 "j_hip_ri" 5
  14 "j_hiptwist_ri" 13
  15 "tag_stowed_thigh" 14
  16 "j_knee_ri" 13
  17 "j_ankle_ri" 16
  18 "j_ball_ri" 17
  19 "j_kneedq_ri" 16
  20 "j_hip_proc_ri" 13
  21 "j_spinelower" 5
  22 "j_spineupper" 21
  23 "j_spine4" 22
  24 "j_chest" 23
  25 "j_clavicle_le" 23
  26 "j_shoulder_le" 25
  27 "j_shouldertwist_le" 26
  28 "j_elbow_le" 26
  29 "j_wristfronttwist1_le" 28
  30 "j_proc_wristfronttwist1_le" 29
  31 "tag_wrist_attach_le" 30
  32 "j_wrist_le" 28
  33 "tag_weapon_left" 32
  34 "tag_accessory_left" 32
  35 "j_metaindex_le_1" 32
  36 "j_index_le_1" 35
  37 "j_index_le_2" 36
  38 "j_index_le_3" 37
  39 "j_index_le_4" 38
  40 "j_indexbulge_le_1" 36
  41 "j_proc_index_le_1" 36
  42 "j_metamid_le_1" 32
  43 "j_mid_le_1" 42
  44 "j_mid_le_2" 43
  45 "j_mid_le_3" 44
  46 "j_proc_mid_le_1" 43
  47 "j_metapinky_le_1" 32
  48 "j_pinky_le_1" 47
  49 "j_pinky_le_2" 48
  50 "j_pinky_le_3" 49
  51 "j_proc_pinky_le_1" 48
  52 "j_webbing_le_3" 47
  53 "j_metaring_le_1" 32
  54 "j_ring_le_1" 53
  55 "j_ring_le_2" 54
  56 "j_ring_le_3" 55
  57 "j_proc_ring_le_1" 54
  58 "j_thumb_le_1" 32
  59 "j_thumb_le_2" 58
  60 "j_thumb_le_3" 59
  61 "j_thumb_le_4" 60
  62 "j_webbing_le_2" 58
  63 "j_webbing_le_1" 32
  64 "j_proc_metaindex_le_1" 32
  65 "j_proc_metaindex_le_2" 64
  66 "j_proc_metaknuckle_le_1" 32
  67 "j_proc_knuckle_le_1" 66
  68 "j_proc_idle_knuckle_le_1" 66
  69 "j_proc_orient_knuckle_le_1" 66
  70 "j_proc_metapinky_le_1" 32
  71 "j_proc_metapinky_le_2" 70
  72 "j_shield_le" 28
  73 "j_elbowdq_le" 28
  74 "j_clavicle_ri" 23
  75 "j_shoulder_ri" 74
  76 "j_shouldertwist_ri" 75
  77 "j_elbow_ri" 75
  78 "j_shield_ri" 77
  79 "j_wrist_ri" 77
  80 "j_gun" 79
  81 "tag_weapon_right" 79
  82 "tag_accessory_right" 79
  83 "j_metaindex_ri_1" 79
  84 "j_index_ri_1" 83
  85 "j_index_ri_2" 84
  86 "j_index_ri_3" 85
  87 "j_index_ri_4" 86
  88 "j_indexbulge_ri_1" 84
  89 "j_proc_index_ri_1" 84
  90 "j_metamid_ri_1" 79
  91 "j_mid_ri_1" 90
  92 "j_mid_ri_2" 91
  93 "j_mid_ri_3" 92
  94 "j_proc_mid_ri_1" 91
  95 "j_metapinky_ri_1" 79
  96 "j_pinky_ri_1" 95
  97 "j_pinky_ri_2" 96
  98 "j_pinky_ri_3" 97
  99 "j_proc_pinky_ri_1" 96
  100 "j_webbing_ri_3" 95
  101 "j_metaring_ri_1" 79
  102 "j_ring_ri_1" 101
  103 "j_ring_ri_2" 102
  104 "j_ring_ri_3" 103
  105 "j_proc_ring_ri_1" 102
  106 "j_thumb_ri_1" 79
  107 "j_thumb_ri_2" 106
  108 "j_thumb_ri_3" 107
  109 "j_thumb_ri_4" 108
  110 "j_webbing_ri_2" 106
  111 "j_webbing_ri_1" 79
  112 "tag_knife_attach2" 79
  113 "j_proc_metaindex_ri_1" 79
  114 "j_proc_metaindex_ri_2" 113
  115 "j_proc_metaknuckle_ri_1" 79
  116 "j_proc_knuckle_ri_1" 115
  117 "j_proc_idle_knuckle_ri_1" 115
  118 "j_proc_orient_knuckle_ri_1" 115
  119 "j_proc_metapinky_ri_1" 79
  120 "j_proc_metapinky_ri_2" 119
  121 "j_wristfronttwist1_ri" 77
  122 "j_elbowdq_ri" 77
  123 "j_neck" 23
  124 "j_head" 123
  125 "j_head_end" 124
  126 "j_helmet" 125
  127 "j_visor" 126
  128 "j_visor_inner" 126
  129 "j_nvg" 124
  130 "j_eyeball_le" 124
  131 "j_eyeball_ri" 124
  132 "j_jaw" 124
  133 "tag_carry_attach" 23
  134 "j_proc_spineupper" 22
  135 "j_proc_spinelower" 21
  136 "j_groinprotector" 5
  137 "j_crotch" 5
  138 "tag_weapon" 4
  139 "tag_cambone" 2
  140 "tag_camera" 139
  141 "tag_player" 140
  142 "tag_playerhelmet" 140
  143 "tag_camera_scripted" 0
end
skeleton
  time 0
    0 0.000000 0.000000 0.000000 0.000000 0.000000 -1.570796
    1 0.000000 0.000000 0.000000 0.000000 0.000000 0.000000
    2 -0.106000 0.000000 64.320000 0.000000 0.000000 0.000000
    3 0.000000 0.000000 0.000000 0.000000 0.000000 0.000000
    4 -0.904000 0.000000 -11.806000 0.000000 0.000000 0.000000
    5 0.000000 0.000000 -14.313999 0.000000 -1.570796 1.570857
    6 -0.000004 0.000000 -4.867001 -3.141536 0.008733 -3.128659
    7 1.000084 -0.000035 -0.000006 -0.000001 0.000000 0.000000
    8 17.162516 -0.000502 -0.000089 -0.000002 0.000007 0.119202
    9 17.749378 0.295627 0.000031 0.000003 0.000000 -1.158947
    10 5.413525 0.000321 -0.000001 0.000000 0.000000 -0.518062
    11 0.017891 0.299792 0.000001 0.000002 -0.000002 -0.059575
    12 9.999886 -0.000360 -0.000052 -0.000001 0.000008 -0.000004
    13 -0.000004 0.000000 4.867001 -3.141536 0.008733 -3.128659
    14 1.000088 -0.000035 -0.000005 -0.000001 0.000000 0.000000
    15 12.283571 1.581384 -4.696066 1.462269 -0.086723 0.090179
    16 17.162523 -0.000502 -0.000088 -0.000002 0.000007 0.119202
    17 17.749376 0.295627 0.000031 0.000003 0.000000 -1.158947
    18 5.413525 0.000321 -0.000002 0.000000 0.000000 -0.518062
    19 0.017891 0.299792 0.000000 0.000002 -0.000002 -0.059575
    20 9.499840 0.000158 -0.000048 -0.000001 0.000008 -0.000008
    21 3.532997 -0.000001 0.000000 0.000000 0.000000 0.000000
    22 6.250000 -0.000002 0.000000 0.000000 0.000000 0.000000
    23 4.530998 -0.000001 0.000000 0.000000 0.000000 0.000000
    24 0.000000 0.000000 0.000000 0.000000 0.000000 0.000000
    25 5.036999 -0.021001 -1.943001 -1.156924 1.547415 -1.157004
    26 5.784616 -0.000033 0.000275 -0.074832 0.826786 -0.247858
    27 0.500221 0.000135 -0.000057 0.000000 0.000000 0.000000
    28 11.530249 -0.000258 0.000198 0.000002 -0.000003 -0.819718
    29 10.600056 -0.000347 -0.000656 0.000001 0.000000 0.000000
    30 -1.145530 0.000135 0.000675 0.000001 0.000000 0.000001
    31 -0.857690 0.104073 0.104687 0.023540 0.163924 0.013632
    32 11.041280 -0.000351 -0.000671 0.000001 0.000000 0.000004
    33 -18.909933 -8.427547 0.000511 0.812874 -0.123457 -0.568485
    34 -9.580931 -27.862165 -37.184597 0.812861 -0.123460 -0.568481
    35 0.610302 -0.939543 0.070286 -1.655302 -0.140059 -0.175595
    36 2.619616 0.000137 0.000406 0.201605 -0.020144 0.350097
    37 1.867863 -0.000065 -0.000531 0.000010 0.000015 0.463054
    38 0.920004 -0.000298 -0.000410 -0.000010 0.000006 0.632320
    39 0.599491 0.400701 0.000245 0.000000 0.000000 0.000000
    40 1.200454 0.398911 -0.000746 -0.009458 0.016100 0.007121
    41 0.000110 0.099682 -0.000888 -0.120033 -0.021920 -0.209621
    42 0.639947 -0.199158 0.060173 -1.665962 -0.131389 -0.066413
    43 2.659566 0.000118 -0.000837 0.027387 -0.033320 0.477851
    44 2.008788 -0.000095 -0.000248 0.000006 -0.000003 0.978400
    45 1.099686 -0.000430 0.000120 0.000010 0.000008 0.463691
    46 0.000221 0.098995 0.000204 -0.018830 0.010839 -0.239220
    47 0.600187 1.080254 -0.339485 -1.738110 0.020767 0.107408
    48 2.199737 0.000526 0.000137 -0.000002 0.000019 0.628156
    49 1.179323 0.000225 -0.000666 -0.000017 -0.000008 0.743197
    50 0.680130 -0.001229 0.000450 -0.000012 -0.000011 0.546283
    51 -0.000195 0.099627 -0.000029 0.000003 -0.000024 -0.314097
    52 0.599430 0.958706 -0.300680 -0.174551 -0.000006 0.000008
    53 0.609757 0.400162 -0.009403 -1.762270 -0.061631 0.042964
    54 2.560415 -0.000153 0.000029 0.002469 -0.050636 0.521456
    55 1.708748 0.000713 -0.000208 0.000009 0.000008 0.829232
    56 1.019989 -0.000792 -0.000206 -0.000008 -0.000007 0.566724
    57 0.000132 0.100433 0.000322 -0.010910 0.023151 -0.260851
    58 0.629725 -0.690050 -0.229774 0.087264 0.607388 -1.183293
    59 2.099438 0.000484 -0.000412 -0.242425 0.290019 0.541648
    60 1.290007 -0.000226 0.000595 0.000000 0.000000 0.367119
    61 0.599888 0.400181 -0.000034 0.000000 0.000000 0.000000
    62 0.999546 0.000379 -1.210197 0.000000 0.000000 0.000000
    63 2.299663 -2.499996 -0.599487 0.892007 0.221537 -0.527296
    64 0.649932 -0.548304 0.093651 -1.665919 -0.131394 -0.112064
    65 1.899121 0.000420 -0.000446 0.027392 -0.033301 0.477842
    66 0.657075 0.008390 0.040367 -1.665951 -0.131403 -0.000018
    67 1.799662 -0.000240 0.000231 0.027391 -0.033316 0.477846
    68 1.799662 -0.000240 0.000231 0.027391 -0.033316 0.477846
    69 1.799662 -0.000240 0.000231 0.027391 -0.033316 0.477846
    70 0.665780 0.747213 -0.029190 -1.665942 -0.131402 0.094968
    71 1.900310 -0.000141 -0.000511 0.027387 -0.033309 0.477843
    72 3.999439 -0.000536 -0.000343 0.000002 0.000000 0.000001
    73 0.119207 -0.275761 -0.000149 0.000002 0.000001 0.409861
    74 5.037998 -0.021001 1.943000 1.156387 -1.547409 -1.156466
    75 5.784618 -0.000029 -0.000187 0.074837 -0.826797 -0.247856
    76 0.500225 0.000134 0.000061 -0.000001 0.000000 -0.000001
    77 11.529516 -0.000345 -0.000843 -0.000004 -0.000011 -0.819718
    78 3.999898 0.000017 0.000988 -0.000001 -0.000001 -0.000001
    79 11.041275 -0.000389 0.000565 -0.000001 0.000002 -0.000004
    80 -18.909424 -8.427082 0.000290 2.328717 0.123464 -0.568480
    81 -18.909424 -8.427082 0.000290 2.328717 0.123464 -0.568480
    82 7.228302 7.928223 -3.925659 2.328718 0.123468 -0.568475
    83 0.610307 -0.939537 -0.070297 1.655305 0.140067 -0.175589
    84 2.619612 0.000134 -0.000401 -0.201606 0.020139 0.350096
    85 1.867866 -0.000061 0.000525 -0.000006 0.000005 0.463052
    86 0.919384 0.000408 0.000090 -0.000001 0.000001 0.632324
    87 0.600399 0.399635 -0.000462 0.000000 0.000016 -3.141592
    88 1.200061 0.399933 -0.000153 0.009457 -0.016086 0.007123
    89 0.000596 0.100353 0.000324 0.120029 0.021927 -0.209621
    90 0.639946 -0.199154 -0.060188 1.665965 0.131396 -0.066412
    91 2.659900 0.000778 0.000162 -0.027382 0.033311 0.477848
    92 2.008775 -0.000893 -0.000387 0.000001 0.000000 0.978403
    93 1.100357 0.000002 0.000462 -0.000002 0.000006 0.463687
    94 0.000223 0.098999 -0.000214 0.018822 -0.010833 -0.239220
    95 0.600181 1.080261 0.339470 1.738108 -0.020761 0.107420
    96 2.199741 0.000526 -0.000122 0.000003 -0.000001 0.628154
    97 1.180090 0.000381 0.000086 -0.000002 0.000000 0.743197
    98 0.679462 -0.000811 0.000175 0.000003 -0.000007 0.546287
    99 -0.000196 0.099627 0.000032 0.000003 -0.000001 -0.314097
    100 0.599962 0.959274 0.300076 0.174555 0.000000 0.000006
    101 0.610216 0.400730 0.010071 1.762273 0.061637 0.042968
    102 2.560411 -0.000149 -0.000029 -0.002470 0.050634 0.521453
    103 1.708750 0.000721 0.000200 -0.000003 0.000005 0.829230
    104 1.019806 -0.000019 -0.000395 0.000000 -0.000003 0.566725
    105 -0.000582 0.100140 0.000315 0.010908 -0.023132 -0.260849
    106 0.630194 -0.689476 0.230446 -0.087274 -0.607379 -1.183282
    107 2.099335 -0.000095 -0.000393 0.242425 -0.290022 0.541646
    108 1.290598 0.000366 -0.000050 -0.000005 -0.000014 0.367119
    109 0.599892 0.400181 0.000031 0.000000 -0.000014 3.141593
    110 0.999439 -0.000200 1.209381 0.000000 0.000000 0.000000
    111 2.300138 -2.499422 0.600132 -0.892005 -0.221509 -0.527310
    112 2.762360 0.116940 1.523952 1.629483 0.064143 1.743800
    113 0.650393 -0.547731 -0.092983 1.665917 0.131404 -0.112062
    114 1.899436 -0.000320 -0.000153 -0.027387 0.033312 0.477843
    115 0.657069 0.008394 -0.040386 1.665950 0.131412 -0.000013
    116 1.799662 -0.000244 -0.000237 -0.027385 0.033311 0.477847
    117 1.799662 -0.000244 -0.000237 -0.027385 0.033311 0.477847
    118 1.799662 -0.000244 -0.000237 -0.027385 0.033311 0.477847
    119 0.665775 0.747221 0.029186 1.665942 0.131411 0.094976
    120 1.900725 0.000542 -0.000072 -0.027385 0.033312 0.477845
    121 10.600054 -0.000378 0.000549 -0.000002 0.000002 -0.000004
    122 0.119663 -0.275200 0.000828 0.000005 0.000001 0.409859
    123 8.823002 -0.000002 0.000000 0.000000 -0.000004 -0.294105
    124 3.116970 -0.000429 -0.000013 0.000001 0.000004 0.294105
    125 6.233002 -0.000003 0.000000 0.000000 0.000000 0.000000
    126 1.598000 -0.000001 0.000000 0.000000 0.000000 -0.000001
    127 -4.481003 -0.202000 0.000000 0.000000 0.000000 0.000000
    128 -5.516998 -0.291000 -0.001000 0.000000 0.000000 0.000000
    129 6.241989 -6.380005 0.000000 0.000000 0.000000 0.000000
    130 3.512001 -3.547003 -1.066000 0.000000 1.570796 0.000000
    131 3.456001 -3.517004 1.169000 0.000000 1.570796 0.000000
    132 -0.171997 -0.106000 -0.902000 1.570713 1.029175 -3.134551
    133 9.904995 -5.486003 -6.443001 1.570796 0.000000 3.141592
    134 -0.000004 0.000000 0.000000 0.000000 0.000000 0.000000
    135 0.000000 0.000000 0.000000 0.000000 0.000000 0.000000
    136 3.999989 -6.500003 0.000000 0.000000 0.000006 0.000982
    137 -6.500004 0.000001 0.000000 0.000000 1.570796 0.000000
    138 14.188001 0.000000 0.141998 0.000000 0.000000 0.000000
    139 0.000000 0.000000 0.000000 0.000000 0.000000 0.000000
    140 0.000000 0.000000 0.000000 0.000000 0.000000 0.000000
    141 0.106000 0.000000 -64.320000 0.000000 0.000000 0.000000
    142 0.000000 0.000000 0.000000 0.000000 0.000000 0.000000
    143 -0.106000 0.000000 64.320000 0.000000 0.000000 0.000000
end
