// Created by Crowbar 0.74
version 1
nodes
  0 "tag_origin" -1
  1 "tag_view" 0
  2 "tag_ads" 1
  3 "tag_torso" 2
  4 "j_mainroot" 3
  5 "j_spinelower" 4
  6 "j_spineupper" 5
  7 "j_clavicle_le" 6
  8 "j_clavicle_ri" 6
  9 "j_shoulder_le" 7
  10 "j_teres_le" 7
  11 "j_shoulder_ri" 8
  12 "j_teres_ri" 8
  13 "j_shouldertwist_le" 9
  14 "j_elbow_le" 9
  15 "ValveBiped.Bip01_L_UpperArm" 9
  16 "j_shouldertwist_ri" 11
  17 "j_elbow_ri" 11
  18 "ValveBiped.Bip01_R_UpperArm" 11
  19 "j_wristfronttwist1_le" 14
  20 "j_elbowdq_le" 14
  21 "j_wrist_le" 14
  22 "ValveBiped.Bip01_L_Forearm" 14
  23 "j_wristfronttwist1_ri" 17
  24 "j_elbowdq_ri" 17
  25 "j_wrist_ri" 17
  26 "ValveBiped.Bip01_R_Forearm" 17
  27 "j_metaindex_le_1" 21
  28 "j_metamid_le_1" 21
  29 "j_metapinky_le_1" 21
  30 "j_metaring_le_1" 21
  31 "j_thumb_le_1" 21
  32 "ValveBiped.Bip01_L_Hand" 21
  33 "j_metaindex_ri_1" 25
  34 "j_metamid_ri_1" 25
  35 "j_metapinky_ri_1" 25
  36 "j_metaring_ri_1" 25
  37 "j_thumb_ri_1" 25
  38 "ValveBiped.Bip01_R_Hand" 25
  39 "j_index_le_1" 27
  40 "j_mid_le_1" 28
  41 "j_pinky_le_1" 29
  42 "j_webbing_le_3" 29
  43 "j_ring_le_1" 30
  44 "j_thumb_le_2" 31
  45 "j_webbing_le_2" 31
  46 "ValveBiped.Bip01_L_Finger0" 31
  47 "j_index_ri_1" 33
  48 "j_mid_ri_1" 34
  49 "j_pinky_ri_1" 35
  50 "j_webbing_ri_3" 35
  51 "j_ring_ri_1" 36
  52 "j_thumb_ri_2" 37
  53 "j_webbing_ri_2" 37
  54 "ValveBiped.Bip01_R_Finger0" 37
  55 "j_index_le_2" 39
  56 "j_indexbulge_le_1" 39
  57 "j_proc_index_le_1" 39
  58 "ValveBiped.Bip01_L_Finger1" 39
  59 "j_mid_le_2" 40
  60 "j_proc_mid_le_1" 40
  61 "ValveBiped.Bip01_L_Finger2" 40
  62 "j_pinky_le_2" 41
  63 "j_proc_pinky_le_1" 41
  64 "ValveBiped.Bip01_L_Finger4" 41
  65 "j_ring_le_2" 43
  66 "j_proc_ring_le_1" 43
  67 "ValveBiped.Bip01_L_Finger3" 43
  68 "j_thumb_le_3" 44
  69 "ValveBiped.Bip01_L_Finger01" 44
  70 "j_index_ri_2" 47
  71 "j_indexbulge_ri_1" 47
  72 "j_proc_index_ri_1" 47
  73 "ValveBiped.Bip01_R_Finger1" 47
  74 "j_mid_ri_2" 48
  75 "j_proc_mid_ri_1" 48
  76 "ValveBiped.Bip01_R_Finger2" 48
  77 "j_pinky_ri_2" 49
  78 "j_proc_pinky_ri_1" 49
  79 "ValveBiped.Bip01_R_Finger4" 49
  80 "j_ring_ri_2" 51
  81 "j_proc_ring_ri_1" 51
  82 "ValveBiped.Bip01_R_Finger3" 51
  83 "j_thumb_ri_3" 52
  84 "ValveBiped.Bip01_R_Finger01" 52
  85 "j_index_le_3" 55
  86 "ValveBiped.Bip01_L_Finger11" 55
  87 "j_mid_le_3" 59
  88 "ValveBiped.Bip01_L_Finger21" 59
  89 "j_pinky_le_3" 62
  90 "ValveBiped.Bip01_L_Finger41" 62
  91 "j_ring_le_3" 65
  92 "ValveBiped.Bip01_L_Finger31" 65
  93 "ValveBiped.Bip01_L_Finger02" 68
  94 "j_index_ri_3" 70
  95 "ValveBiped.Bip01_R_Finger11" 70
  96 "j_mid_ri_3" 74
  97 "ValveBiped.Bip01_R_Finger21" 74
  98 "j_pinky_ri_3" 77
  99 "ValveBiped.Bip01_R_Finger41" 77
  100 "j_ring_ri_3" 80
  101 "ValveBiped.Bip01_R_Finger31" 80
  102 "ValveBiped.Bip01_R_Finger02" 83
  103 "ValveBiped.Bip01_L_Finger12" 85
  104 "ValveBiped.Bip01_L_Finger22" 87
  105 "ValveBiped.Bip01_L_Finger42" 89
  106 "ValveBiped.Bip01_L_Finger32" 91
  107 "ValveBiped.Bip01_R_Finger12" 94
  108 "ValveBiped.Bip01_R_Finger22" 96
  109 "ValveBiped.Bip01_R_Finger42" 98
  110 "ValveBiped.Bip01_R_Finger32" 100
  111 "tag_pistol_offset" -1
  112 "j_gun" -1
  113 "j_cylinder" 111
  114 "j_hammer" 111
  115 "tag_align_gun" 111
  116 "tag_barrel_attach" 111
  117 "tag_flash" 116
  118 "tag_brass" 111
  119 "tag_frontend_show" 111
  120 "tag_mag_attach" 111
  121 "j_mag1" 120
  122 "tag_reflex" 111
  123 "tag_scope" 111
  124 "tag_sight_on" 111
  125 "tag_stock_attach" 111
  126 "j_trigger" 125
  127 "tag_trigger_hide" 126
  128 "j_b_top" 111
  129 "j_b_01" 128
  130 "j_b_02" 128
  131 "j_b_03" 128
  132 "j_b_04" 128
  133 "j_b_05" 128
  134 "j_b_06" 128
  135 "j_cylinder_ejector" 111
  136 "j_cylinder_hinge" 111
  137 "j_cylinder_rel" 111
  138 "tag_stock_hide" 111
  139 "j_b_loader" 121
  140 "j_b_loader_top" 121
  141 "j_b_loader_01" 140
  142 "j_b_loader_02" 140
  143 "j_b_loader_03" 140
  144 "j_b_loader_04" 140
  145 "j_b_loader_05" 140
  146 "j_b_loader_06" 140
  147 "tag_rail" 111
  148 "tag_sync" 0
  149 "tag_camera_scripted" 0
  150 "tag_cambone" 1
  151 "tag_camera" 150
  152 "tag_weapon" 3
  153 "tag_player" 151
  154 "tag_playerhelmet" 151
  155 "j_hip_le" 4
  156 "j_hip_ri" 4
  157 "j_groinprotector" 4
  158 "j_crotch" 4
  159 "j_hiptwist_le" 155
  160 "j_knee_le" 155
  161 "j_hip_proc_le" 155
  162 "j_hiptwist_ri" 156
  163 "j_knee_ri" 156
  164 "j_hip_proc_ri" 156
  165 "j_proc_spinelower" 5
  166 "j_ankle_le" 160
  167 "j_kneedq_le" 160
  168 "tag_stowed_thigh" 162
  169 "j_ankle_ri" 163
  170 "j_kneedq_ri" 163
  171 "j_neck" 6
  172 "j_spine4" 6
  173 "j_proc_spineupper" 6
  174 "j_ball_le" 166
  175 "j_ball_ri" 169
  176 "tag_carry_attach" 7
  177 "j_head" 171
  178 "j_chest" 172
  179 "j_eyeball_le" 177
  180 "j_eyeball_ri" 177
  181 "j_head_end" 177
  182 "j_jaw" 177
  183 "j_nvg" 177
  184 "j_shield_le" 14
  185 "j_shield_ri" 17
  186 "j_helmet" 181
  187 "j_proc_wristfronttwist1_le" 19
  188 "j_webbing_le_1" 21
  189 "tag_weapon_left" 21
  190 "tag_accessory_left" 21
  191 "j_proc_metaindex_le_1" 21
  192 "j_proc_metaknuckle_le_1" 21
  193 "j_proc_metapinky_le_1" 21
  194 "j_webbing_ri_1" 25
  195 "tag_weapon_right" 25
  196 "tag_knife_attach2" 25
  197 "tag_accessory_right" 25
  198 "j_proc_metaindex_ri_1" 25
  199 "j_proc_metaknuckle_ri_1" 25
  200 "j_proc_metapinky_ri_1" 25
  201 "j_visor" 186
  202 "j_visor_inner" 186
  203 "tag_wrist_attach_le" 187
  204 "j_proc_metaindex_le_2" 191
  205 "j_proc_knuckle_le_1" 192
  206 "j_proc_idle_knuckle_le_1" 192
  207 "j_proc_orient_knuckle_le_1" 192
  208 "j_proc_metapinky_le_2" 193
  209 "j_proc_metaindex_ri_2" 198
  210 "j_proc_knuckle_ri_1" 199
  211 "j_proc_idle_knuckle_ri_1" 199
  212 "j_proc_orient_knuckle_ri_1" 199
  213 "j_proc_metapinky_ri_2" 200
  214 "j_thumb_le_4" 68
  215 "j_thumb_ri_4" 83
  216 "j_index_le_4" 85
  217 "j_index_ri_4" 94
end
skeleton
  time 0
    0 0.000000 0.000000 0.000000 0.000000 0.000000 -1.570796
    111 0.000000 0.000000 0.000000 0.000000 0.000000 -1.570796
    112 0.000000 0.000000 0.000000 0.000000 0.000000 -1.570796
end
