// Created by Crowbar 0.74
version 1
nodes
  0 "tag_origin" -1
  1 "tag_sync" 0
  2 "tag_view" 0
  3 "tag_ads" 2
  4 "tag_torso" 3
  5 "j_mainroot" 4
  6 "j_hip_le" 5
  7 "j_hiptwist_le" 6
  8 "j_knee_le" 6
  9 "j_ankle_le" 8
  10 "j_ball_le" 9
  11 "j_kneedq_le" 8
  12 "j_hip_proc_le" 6
  13 "j_hip_ri" 5
  14 "j_hiptwist_ri" 13
  15 "tag_stowed_thigh" 14
  16 "j_knee_ri" 13
  17 "j_ankle_ri" 16
  18 "j_ball_ri" 17
  19 "j_kneedq_ri" 16
  20 "j_hip_proc_ri" 13
  21 "j_spinelower" 5
  22 "j_spineupper" 21
  23 "j_spine4" 22
  24 "j_chest" 23
  25 "j_clavicle_le" 23
  26 "j_shoulder_le" 25
  27 "j_shouldertwist_le" 26
  28 "j_elbow_le" 26
  29 "j_wristfronttwist1_le" 28
  30 "j_proc_wristfronttwist1_le" 29
  31 "tag_wrist_attach_le" 30
  32 "j_wrist_le" 28
  33 "tag_weapon_left" 32
  34 "tag_accessory_left" 32
  35 "j_metaindex_le_1" 32
  36 "j_index_le_1" 35
  37 "j_index_le_2" 36
  38 "j_index_le_3" 37
  39 "j_index_le_4" 38
  40 "j_indexbulge_le_1" 36
  41 "j_proc_index_le_1" 36
  42 "j_metamid_le_1" 32
  43 "j_mid_le_1" 42
  44 "j_mid_le_2" 43
  45 "j_mid_le_3" 44
  46 "j_proc_mid_le_1" 43
  47 "j_metapinky_le_1" 32
  48 "j_pinky_le_1" 47
  49 "j_pinky_le_2" 48
  50 "j_pinky_le_3" 49
  51 "j_proc_pinky_le_1" 48
  52 "j_webbing_le_3" 47
  53 "j_metaring_le_1" 32
  54 "j_ring_le_1" 53
  55 "j_ring_le_2" 54
  56 "j_ring_le_3" 55
  57 "j_proc_ring_le_1" 54
  58 "j_thumb_le_1" 32
  59 "j_thumb_le_2" 58
  60 "j_thumb_le_3" 59
  61 "j_thumb_le_4" 60
  62 "j_webbing_le_2" 58
  63 "j_webbing_le_1" 32
  64 "j_proc_knuckle_le_1" 32
  65 "j_proc_metaindex_le_1" 32
  66 "j_proc_metaindex_le_2" 65
  67 "j_proc_metaknuckle_le_1" 32
  68 "j_proc_idle_knuckle_le_1" 67
  69 "j_proc_orient_knuckle_le_1" 67
  70 "j_proc_metapinky_le_1" 32
  71 "j_proc_metapinky_le_2" 70
  72 "j_shield_le" 28
  73 "j_elbowdq_le" 28
  74 "j_teres_le" 25
  75 "j_clavicle_ri" 23
  76 "j_shoulder_ri" 75
  77 "j_shouldertwist_ri" 76
  78 "j_elbow_ri" 76
  79 "j_shield_ri" 78
  80 "j_wrist_ri" 78
  81 "j_gun" 80
  82 "tag_weapon_right" 80
  83 "tag_accessory_right" 80
  84 "j_metaindex_ri_1" 80
  85 "j_index_ri_1" 84
  86 "j_index_ri_2" 85
  87 "j_index_ri_3" 86
  88 "j_index_ri_4" 87
  89 "j_indexbulge_ri_1" 85
  90 "j_proc_index_ri_1" 85
  91 "j_metamid_ri_1" 80
  92 "j_mid_ri_1" 91
  93 "j_mid_ri_2" 92
  94 "j_mid_ri_3" 93
  95 "j_proc_mid_ri_1" 92
  96 "j_metapinky_ri_1" 80
  97 "j_pinky_ri_1" 96
  98 "j_pinky_ri_2" 97
  99 "j_pinky_ri_3" 98
  100 "j_proc_pinky_ri_1" 97
  101 "j_webbing_ri_3" 96
  102 "j_metaring_ri_1" 80
  103 "j_ring_ri_1" 102
  104 "j_ring_ri_2" 103
  105 "j_ring_ri_3" 104
  106 "j_proc_ring_ri_1" 103
  107 "j_thumb_ri_1" 80
  108 "j_thumb_ri_2" 107
  109 "j_thumb_ri_3" 108
  110 "j_thumb_ri_4" 109
  111 "j_webbing_ri_2" 107
  112 "j_webbing_ri_1" 80
  113 "tag_knife_attach2" 80
  114 "j_proc_knuckle_ri_1" 80
  115 "j_proc_metaindex_ri_1" 80
  116 "j_proc_metaindex_ri_2" 115
  117 "j_proc_metaknuckle_ri_1" 80
  118 "j_proc_idle_knuckle_ri_1" 117
  119 "j_proc_orient_knuckle_ri_1" 117
  120 "j_proc_metapinky_ri_1" 80
  121 "j_proc_metapinky_ri_2" 120
  122 "j_wristfronttwist1_ri" 78
  123 "j_elbowdq_ri" 78
  124 "j_teres_ri" 75
  125 "j_neck" 23
  126 "j_head" 125
  127 "j_head_end" 126
  128 "j_helmet" 127
  129 "j_visor" 128
  130 "j_visor_inner" 128
  131 "j_nvg" 126
  132 "j_eyeball_le" 126
  133 "j_eyeball_ri" 126
  134 "j_jaw" 126
  135 "j_proc_spine4" 23
  136 "tag_carry_attach" 135
  137 "j_proc_spineupper" 22
  138 "j_proc_spinelower" 21
  139 "j_groinprotector" 5
  140 "j_crotch" 5
  141 "tag_weapon" 4
  142 "tag_cambone" 2
  143 "tag_camera" 142
  144 "tag_player" 143
  145 "tag_playerhelmet" 143
  146 "tag_camera_scripted" 0
end
skeleton
  time 0
    0 0.000000 0.000000 0.000000 0.000000 0.000000 -1.570796
    1 0.000000 0.000000 0.000000 0.000000 0.000000 0.000000
    2 -0.113420 0.000000 68.822403 0.000000 0.000000 0.000000
    3 0.000000 0.000000 0.000000 0.000000 0.000000 0.000000
    4 -0.967280 0.000000 -12.632420 0.000000 0.000000 0.000000
    5 0.000000 0.000000 -15.315979 0.000000 -1.570796 1.570857
    6 0.000000 0.000000 -5.207690 -3.141536 0.008715 -3.128641
    7 1.070095 -0.000018 0.000015 0.000000 0.000000 0.000000
    8 18.363962 -0.000206 0.000234 -0.000002 -0.000011 0.119310
    9 18.991863 0.314615 0.000024 0.000001 -0.000002 -1.159049
    10 5.792477 0.000416 -0.000004 -0.000001 0.000000 -0.518048
    11 0.019148 0.320778 -0.000002 0.000001 -0.000004 -0.059663
    12 10.699900 -0.000193 0.000138 0.000000 -0.000016 -0.000024
    13 0.000000 0.000000 5.207690 -3.141536 0.008715 -3.128641
    14 1.070099 -0.000018 0.000014 0.000000 0.000000 0.000000
    15 13.143496 1.692317 -5.024563 1.462268 -0.086739 0.090198
    16 18.363966 -0.000205 0.000235 -0.000002 -0.000011 0.119310
    17 18.991863 0.314615 0.000025 0.000001 -0.000002 -1.159049
    18 5.792476 0.000416 -0.000004 -0.000001 0.000000 -0.518050
    19 0.019148 0.320778 -0.000002 0.000001 -0.000004 -0.059663
    20 10.164848 0.000352 0.000132 0.000000 -0.000016 0.000037
    21 3.780312 -0.000001 0.000000 0.000000 0.000000 0.000000
    22 6.687500 -0.000002 0.000000 0.000000 0.000000 0.000000
    23 4.848167 -0.000002 0.000000 0.000000 0.000000 0.000000
    24 0.000000 0.000000 0.000000 0.000000 0.000000 0.000000
    25 5.389591 -0.022472 -2.079014 -1.156901 1.547420 -1.156979
    26 6.189537 -0.000064 0.000294 -0.074806 0.826774 -0.247840
    27 0.535233 0.000137 -0.000061 0.000000 0.000000 0.000000
    28 12.337353 -0.000433 0.000072 -0.000008 -0.000001 -0.819730
    29 11.342065 -0.000364 -0.000687 -0.000002 -0.000001 0.000008
    30 6.047449 20.873287 -48.041359 0.812876 -0.123366 -0.568558
    31 -0.261737 0.023319 0.114907 0.023419 0.097196 0.012081
    32 11.814170 -0.000380 -0.000710 -0.000001 -0.000001 0.000000
    33 -20.233589 -9.017555 0.000580 0.812870 -0.123458 -0.568480
    34 -10.251490 -29.812668 -39.787434 0.812858 -0.123459 -0.568478
    35 0.653027 -1.005301 0.075207 -1.655311 -0.140055 -0.175587
    36 2.802987 0.000137 0.000423 0.201617 -0.020122 0.350088
    37 1.998613 -0.000053 -0.000532 -0.000008 -0.000008 0.463065
    38 0.984411 -0.000320 -0.000443 -0.000008 -0.000008 0.632326
    39 0.641468 0.428749 0.000246 0.000000 0.000001 0.000000
    40 1.284483 0.426842 -0.000782 -0.009468 0.016059 0.007139
    41 0.000117 0.106659 -0.000952 -0.120043 -0.021935 -0.209612
    42 0.684743 -0.213093 0.064388 -1.665969 -0.131393 -0.066421
    43 2.845741 0.000122 -0.000858 0.027384 -0.033347 0.477857
    44 2.149402 -0.000118 -0.000290 0.000022 0.000018 0.978387
    45 1.176666 -0.000453 0.000149 0.000005 0.000007 0.463691
    46 0.000237 0.105919 0.000221 -0.018827 0.010860 -0.239229
    47 0.642189 1.155880 -0.363247 -1.738112 0.020768 0.107412
    48 2.353713 0.000557 0.000145 0.000000 0.000011 0.628159
    49 1.261871 0.000237 -0.000725 -0.000016 -0.000014 0.743203
    50 0.727745 -0.001322 0.000477 0.000005 0.000005 0.546273
    51 -0.000212 0.106600 -0.000032 0.000001 -0.000031 -0.314098
    52 0.641386 1.025814 -0.321728 -0.174553 -0.000010 0.000012
    53 0.652436 0.428179 -0.010056 -1.762279 -0.061627 0.042964
    54 2.739641 -0.000175 0.000031 0.002482 -0.050631 0.521449
    55 1.828362 0.000771 -0.000195 -0.000006 0.000004 0.829235
    56 1.091400 -0.000851 -0.000221 -0.000006 -0.000006 0.566724
    57 0.000153 0.107468 0.000349 -0.010907 0.023152 -0.260855
    58 0.673808 -0.738354 -0.245850 0.087259 0.607382 -1.183287
    59 2.246399 0.000509 -0.000446 -0.242425 0.290019 0.541644
    60 1.380302 -0.000241 0.000641 0.000011 -0.000001 0.367122
    61 0.641880 0.428192 -0.000038 0.000000 0.000000 0.000000
    62 1.069516 0.000408 -1.294914 0.000000 0.000001 0.000000
    63 2.460647 -2.674982 -0.641434 0.891989 0.221534 -0.527293
    64 2.612063 0.009251 0.295712 -1.631656 0.347415 -0.011164
    65 6.962809 19.422283 -48.160042 -0.838290 -0.131068 -0.742263
    66 2.032061 0.000440 -0.000466 0.027389 -0.033312 0.477839
    67 7.171148 19.824203 -47.768669 -0.836663 -0.212964 -0.666067
    68 1.925639 -0.000281 0.000257 0.027368 -0.033302 0.477837
    69 1.925639 -0.000281 0.000257 0.027368 -0.033302 0.477837
    70 7.446373 20.357346 -47.248505 -0.840331 -0.282345 -0.600369
    71 2.033341 -0.000092 -0.000547 0.027380 -0.033309 0.477870
    72 4.279404 -0.000566 -0.000359 -0.000002 -0.000001 0.000001
    73 0.127554 -0.295063 -0.000153 -0.000006 0.000004 0.409859
    74 6.419812 -0.000431 -4.279945 -0.000001 0.000000 -0.000010
    75 5.390659 -0.022472 2.079010 1.156405 -1.547404 -1.156482
    76 6.189540 -0.000004 -0.000191 0.074814 -0.826817 -0.247863
    77 0.535252 0.000148 0.000050 0.000019 0.000000 0.000018
    78 12.336592 -0.000272 -0.001137 0.000010 0.000010 -0.819705
    79 4.279894 -0.000002 0.001003 -0.000009 0.000017 -0.000009
    80 11.814160 -0.000481 0.000458 -0.000009 0.000011 -0.000008
    81 -20.233099 -9.016968 0.000389 2.328708 0.123464 -0.568484
    82 -20.233099 -9.016968 0.000389 2.328708 0.123464 -0.568484
    83 7.734278 8.483200 -4.200478 2.328715 0.123471 -0.568477
    84 0.653032 -1.005301 -0.075230 1.655295 0.140074 -0.175589
    85 2.802985 0.000153 -0.000422 -0.201608 0.020138 0.350093
    86 1.998612 -0.000050 0.000572 0.000008 -0.000006 0.463062
    87 0.983742 0.000435 0.000093 0.000003 -0.000001 0.632327
    88 0.642426 0.427607 -0.000507 0.000000 -0.000007 3.141592
    89 1.284066 0.427940 -0.000154 0.009476 -0.016090 0.007134
    90 0.000636 0.107380 0.000347 0.120048 0.021924 -0.209608
    91 0.684742 -0.213093 -0.064407 1.665965 0.131403 -0.066410
    92 2.846092 0.000835 0.000174 -0.027381 0.033308 0.477852
    93 2.149390 -0.000954 -0.000412 -0.000003 0.000008 0.978392
    94 1.177387 0.000012 0.000502 0.000010 -0.000011 0.463701
    95 0.000238 0.105930 -0.000221 0.018813 -0.010832 -0.239224
    96 0.642199 1.155878 0.363232 1.738110 -0.020756 0.107419
    97 2.353719 0.000557 -0.000132 0.000001 0.000000 0.628155
    98 1.262705 0.000401 0.000080 0.000005 -0.000008 0.743203
    99 0.727020 -0.000875 0.000187 -0.000003 0.000004 0.546279
    100 -0.000208 0.106596 0.000031 0.000003 -0.000002 -0.314096
    101 0.641956 1.026421 0.321079 0.174558 0.000000 0.000010
    102 0.652936 0.428785 0.010777 1.762282 0.061638 0.042968
    103 2.739649 -0.000175 -0.000032 -0.002482 0.050638 0.521448
    104 1.828356 0.000771 0.000225 0.000000 0.000000 0.829233
    105 1.091194 -0.000025 -0.000427 0.000002 -0.000005 0.566725
    106 -0.000626 0.107147 0.000343 0.010920 -0.023132 -0.260844
    107 0.674311 -0.737740 0.246578 -0.087276 -0.607392 -1.183272
    108 2.246290 -0.000118 -0.000450 0.242431 -0.290002 0.541635
    109 1.380947 0.000396 -0.000050 -0.000009 -0.000032 0.367127
    110 0.641895 0.428195 0.000015 0.000000 -0.000031 -3.141592
    111 1.069422 -0.000207 1.294025 0.000000 -0.000001 0.000000
    112 2.461153 -2.674387 0.642136 -0.892011 -0.221586 -0.527214
    113 2.955741 0.125128 1.630630 1.629489 0.064147 1.743799
    114 2.612069 0.009247 -0.295746 1.631656 -0.347401 -0.011166
    115 7.402840 20.272293 47.452160 -2.260805 0.112084 -0.395145
    116 2.032400 -0.000327 -0.000170 -0.027371 0.033305 0.477860
    117 7.207457 19.863234 47.841793 -2.281088 0.032725 -0.473096
    118 1.925639 -0.000259 -0.000249 -0.027396 0.033317 0.477847
    119 1.925639 -0.000259 -0.000249 -0.027396 0.033317 0.477847
    120 6.947873 19.320072 48.359650 -2.293456 -0.035629 -0.537884
    121 2.033787 0.000638 -0.000077 -0.027400 0.033319 0.477870
    122 11.342059 -0.000460 0.000443 -0.000008 0.000023 -0.000004
    123 0.128042 -0.294464 0.000889 0.000005 0.000023 0.409850
    124 6.419746 -0.000368 4.280064 0.000002 0.000000 0.000006
    125 9.440617 -0.000003 0.000000 0.000000 -0.000013 -0.294114
    126 3.335159 -0.000435 -0.000043 0.000004 0.000012 0.294114
    127 6.669312 -0.000003 0.000000 0.000000 0.000000 0.000000
    128 1.709862 -0.000001 0.000000 0.000000 0.000000 0.000000
    129 -4.794670 -0.216138 0.000000 0.000000 0.000000 0.000000
    130 -5.903191 -0.311367 -0.001070 0.000000 0.000000 0.000000
    131 6.678932 -6.826602 0.000000 0.000000 0.000000 0.000000
    132 3.757843 -3.795291 -1.140619 0.000000 1.570796 0.000000
    133 3.697922 -3.763195 1.250831 0.000000 1.570796 0.000000
    134 -0.184036 -0.113420 -0.965140 1.570712 1.029179 -3.134553
    135 0.000000 0.000000 0.000000 0.000000 0.000000 0.000000
    136 10.598347 -5.870024 -6.894015 1.570796 0.000000 3.141592
    137 -51.341816 -1.080696 0.000067 -1.570796 -0.000061 -1.570796
    138 0.000000 0.000000 0.000000 0.000000 0.000000 0.000000
    139 4.279995 -6.955002 0.000000 0.000000 0.000014 0.000990
    140 -6.955002 0.000001 0.000000 0.000000 1.570796 0.000000
    141 15.181162 0.000000 0.151939 0.000000 0.000000 0.000000
    142 0.000000 0.000000 0.000000 0.000000 0.000000 0.000000
    143 0.000000 0.000000 0.000000 0.000000 0.000000 0.000000
    144 0.113420 0.000000 -68.822403 0.000000 0.000000 0.000000
    145 0.000000 0.000000 0.000000 0.000000 0.000000 0.000000
    146 -0.113420 0.000000 68.822403 0.000000 0.000000 0.000000
end
