// Created by Crowbar 0.74
version 1
nodes
  0 "j_gun" -1
  1 "tag_pistol_offset" 0
  2 "tag_barrel_attach" 1
  3 "j_slide" 2
  4 "tag_silencer" 2
  5 "tag_barrel_hide" 1
  6 "tag_flash_attachment" 2
  7 "tag_sight_on" 3
end
skeleton
  time 0
    0 0.000000 0.000000 0.000000 0.000000 0.000000 -1.570796
    1 -9.663000 0.000000 2.005000 0.000000 0.000000 0.000000
    2 1.149000 0.000000 0.627000 0.000000 0.000000 0.000000
    3 1.108000 0.000000 0.153000 0.000000 0.000000 0.000000
    4 4.294000 0.000000 0.136000 0.000000 0.000000 0.000000
    5 1.149000 0.000000 0.627000 0.000000 0.000000 0.000000
    6 4.294000 0.000000 0.136000 0.000000 0.000000 0.000000
    7 0.283000 0.000000 0.660000 0.000000 0.000000 0.000000
end
