// Created by Crowbar 0.74
version 1
nodes
  0 "tag_origin" -1
  1 "tag_sync" 0
  2 "tag_view" 0
  3 "tag_ads" 2
  4 "tag_torso" 3
  5 "j_mainroot" 4
  6 "j_hip_le" 5
  7 "j_hiptwist_le" 6
  8 "j_knee_le" 6
  9 "j_ankle_le" 8
  10 "j_ball_le" 9
  11 "j_kneedq_le" 8
  12 "j_hip_proc_le" 6
  13 "j_hip_ri" 5
  14 "j_hiptwist_ri" 13
  15 "tag_stowed_thigh" 14
  16 "j_knee_ri" 13
  17 "j_ankle_ri" 16
  18 "j_ball_ri" 17
  19 "j_kneedq_ri" 16
  20 "j_hip_proc_ri" 13
  21 "j_spinelower" 5
  22 "j_spineupper" 21
  23 "j_spine4" 22
  24 "j_chest" 23
  25 "j_clavicle_le" 23
  26 "j_shoulder_le" 25
  27 "j_shouldertwist_le" 26
  28 "j_elbow_le" 26
  29 "j_wristfronttwist1_le" 28
  30 "j_proc_wristfronttwist1_le" 29
  31 "tag_wrist_attach_le" 30
  32 "j_wrist_le" 28
  33 "tag_weapon_left" 32
  34 "tag_accessory_left" 32
  35 "j_metaindex_le_1" 32
  36 "j_index_le_1" 35
  37 "j_index_le_2" 36
  38 "j_index_le_3" 37
  39 "j_index_le_4" 38
  40 "j_indexbulge_le_1" 36
  41 "j_proc_index_le_1" 36
  42 "j_metamid_le_1" 32
  43 "j_mid_le_1" 42
  44 "j_mid_le_2" 43
  45 "j_mid_le_3" 44
  46 "j_proc_mid_le_1" 43
  47 "j_metapinky_le_1" 32
  48 "j_pinky_le_1" 47
  49 "j_pinky_le_2" 48
  50 "j_pinky_le_3" 49
  51 "j_proc_pinky_le_1" 48
  52 "j_webbing_le_3" 47
  53 "j_metaring_le_1" 32
  54 "j_ring_le_1" 53
  55 "j_ring_le_2" 54
  56 "j_ring_le_3" 55
  57 "j_proc_ring_le_1" 54
  58 "j_thumb_le_1" 32
  59 "j_thumb_le_2" 58
  60 "j_thumb_le_3" 59
  61 "j_thumb_le_4" 60
  62 "j_webbing_le_2" 58
  63 "j_webbing_le_1" 32
  64 "j_proc_knuckle_le_1" 32
  65 "j_proc_metaindex_le_1" 32
  66 "j_proc_metaindex_le_2" 65
  67 "j_proc_metaknuckle_le_1" 32
  68 "j_proc_idle_knuckle_le_1" 67
  69 "j_proc_orient_knuckle_le_1" 67
  70 "j_proc_metapinky_le_1" 32
  71 "j_proc_metapinky_le_2" 70
  72 "j_shield_le" 28
  73 "j_elbowdq_le" 28
  74 "j_teres_le" 25
  75 "j_clavicle_ri" 23
  76 "j_shoulder_ri" 75
  77 "j_shouldertwist_ri" 76
  78 "j_elbow_ri" 76
  79 "j_shield_ri" 78
  80 "j_wrist_ri" 78
  81 "j_gun" 80
  82 "tag_weapon_right" 80
  83 "tag_accessory_right" 80
  84 "j_metaindex_ri_1" 80
  85 "j_index_ri_1" 84
  86 "j_index_ri_2" 85
  87 "j_index_ri_3" 86
  88 "j_index_ri_4" 87
  89 "j_indexbulge_ri_1" 85
  90 "j_proc_index_ri_1" 85
  91 "j_metamid_ri_1" 80
  92 "j_mid_ri_1" 91
  93 "j_mid_ri_2" 92
  94 "j_mid_ri_3" 93
  95 "j_proc_mid_ri_1" 92
  96 "j_metapinky_ri_1" 80
  97 "j_pinky_ri_1" 96
  98 "j_pinky_ri_2" 97
  99 "j_pinky_ri_3" 98
  100 "j_proc_pinky_ri_1" 97
  101 "j_webbing_ri_3" 96
  102 "j_metaring_ri_1" 80
  103 "j_ring_ri_1" 102
  104 "j_ring_ri_2" 103
  105 "j_ring_ri_3" 104
  106 "j_proc_ring_ri_1" 103
  107 "j_thumb_ri_1" 80
  108 "j_thumb_ri_2" 107
  109 "j_thumb_ri_3" 108
  110 "j_thumb_ri_4" 109
  111 "j_webbing_ri_2" 107
  112 "j_webbing_ri_1" 80
  113 "tag_knife_attach2" 80
  114 "j_proc_knuckle_ri_1" 80
  115 "j_proc_metaindex_ri_1" 80
  116 "j_proc_metaindex_ri_2" 115
  117 "j_proc_metaknuckle_ri_1" 80
  118 "j_proc_idle_knuckle_ri_1" 117
  119 "j_proc_orient_knuckle_ri_1" 117
  120 "j_proc_metapinky_ri_1" 80
  121 "j_proc_metapinky_ri_2" 120
  122 "j_wristfronttwist1_ri" 78
  123 "j_elbowdq_ri" 78
  124 "j_teres_ri" 75
  125 "j_neck" 23
  126 "j_head" 125
  127 "j_head_end" 126
  128 "j_helmet" 127
  129 "j_visor" 128
  130 "j_visor_inner" 128
  131 "j_nvg" 126
  132 "j_eyeball_le" 126
  133 "j_eyeball_ri" 126
  134 "j_jaw" 126
  135 "j_proc_spine4" 23
  136 "tag_carry_attach" 135
  137 "j_proc_spineupper" 22
  138 "j_proc_spinelower" 21
  139 "j_groinprotector" 5
  140 "j_crotch" 5
  141 "tag_weapon" 4
  142 "tag_cambone" 2
  143 "tag_camera" 142
  144 "tag_player" 143
  145 "tag_playerhelmet" 143
  146 "tag_camera_scripted" 0
end
skeleton
  time 0
    0 0.000000 0.000000 0.000000 0.000000 0.000000 -1.570796
    1 0.000000 0.000000 0.000000 0.000000 0.000000 0.000000
    2 -0.106000 0.000000 64.320000 0.000000 0.000000 0.000000
    3 0.000000 0.000000 0.000000 0.000000 0.000000 0.000000
    4 -0.904000 0.000000 -11.806000 0.000000 0.000000 0.000000
    5 0.000000 0.000000 -14.313999 0.000000 -1.570796 1.570857
    6 0.000000 0.000000 -4.867000 -3.141536 0.008715 -3.128641
    7 1.000084 -0.000017 0.000013 0.000000 0.000000 0.000000
    8 17.162579 -0.000192 0.000219 -0.000002 -0.000011 0.119310
    9 17.749403 0.294033 0.000023 0.000001 -0.000002 -1.159049
    10 5.413529 0.000389 -0.000004 -0.000001 0.000000 -0.518048
    11 0.017895 0.299793 -0.000002 0.000001 -0.000004 -0.059663
    12 9.999905 -0.000180 0.000129 0.000000 -0.000016 -0.000024
    13 0.000000 0.000000 4.867000 -3.141536 0.008715 -3.128641
    14 1.000088 -0.000017 0.000013 0.000000 0.000000 0.000000
    15 12.283638 1.581605 -4.695852 1.462268 -0.086739 0.090198
    16 17.162580 -0.000192 0.000219 -0.000002 -0.000011 0.119310
    17 17.749403 0.294033 0.000023 0.000001 -0.000002 -1.159049
    18 5.413528 0.000389 -0.000004 -0.000001 0.000000 -0.518050
    19 0.017895 0.299793 -0.000002 0.000001 -0.000004 -0.059663
    20 9.499851 0.000329 0.000123 0.000000 -0.000016 0.000037
    21 3.533001 -0.000001 0.000000 0.000000 0.000000 0.000000
    22 6.250000 -0.000002 0.000000 0.000000 0.000000 0.000000
    23 4.530998 -0.000002 0.000000 0.000000 0.000000 0.000000
    24 0.000000 0.000000 0.000000 0.000000 0.000000 0.000000
    25 5.036999 -0.021002 -1.943003 -1.156901 1.547420 -1.156979
    26 5.784613 -0.000060 0.000278 -0.074806 0.826774 -0.247840
    27 0.500217 0.000128 -0.000061 0.000000 0.000000 0.000000
    28 11.530233 -0.000405 0.000065 -0.000008 -0.000001 -0.819730
    29 10.600061 -0.000341 -0.000641 -0.000002 -0.000001 0.000008
    30 5.651818 19.507744 -44.898464 0.812876 -0.123366 -0.568558
    31 -0.244614 0.021793 0.107390 0.023419 0.097196 0.012081
    32 11.041282 -0.000353 -0.000656 -0.000001 -0.000001 0.000000
    33 -18.909895 -8.427620 0.000546 0.812870 -0.123458 -0.568480
    34 -9.580832 -27.862307 -37.184517 0.812858 -0.123459 -0.568478
    35 0.610306 -0.939531 0.070290 -1.655311 -0.140055 -0.175587
    36 2.619613 0.000130 0.000399 0.201617 -0.020122 0.350088
    37 1.867861 -0.000053 -0.000496 -0.000008 -0.000008 0.463065
    38 0.920010 -0.000298 -0.000414 -0.000008 -0.000008 0.632326
    39 0.599506 0.400698 0.000233 0.000000 0.000001 0.000000
    40 1.200450 0.398918 -0.000730 -0.009468 0.016059 0.007139
    41 0.000109 0.099678 -0.000887 -0.120043 -0.021935 -0.209612
    42 0.639948 -0.199152 0.060173 -1.665969 -0.131393 -0.066421
    43 2.659571 0.000111 -0.000807 0.027384 -0.033347 0.477857
    44 2.008786 -0.000111 -0.000269 0.000022 0.000018 0.978387
    45 1.099693 -0.000422 0.000141 0.000005 0.000007 0.463691
    46 0.000221 0.098991 0.000208 -0.018827 0.010860 -0.239229
    47 0.600178 1.080263 -0.339485 -1.738112 0.020768 0.107412
    48 2.199734 0.000519 0.000134 0.000000 0.000011 0.628159
    49 1.179325 0.000221 -0.000675 -0.000016 -0.000014 0.743203
    50 0.680130 -0.001237 0.000444 0.000005 0.000005 0.546273
    51 -0.000202 0.099627 -0.000034 0.000001 -0.000031 -0.314098
    52 0.599426 0.958702 -0.300684 -0.174553 -0.000010 0.000012
    53 0.609751 0.400167 -0.009399 -1.762279 -0.061627 0.042964
    54 2.560412 -0.000160 0.000032 0.002482 -0.050631 0.521449
    55 1.708746 0.000725 -0.000181 -0.000006 0.000004 0.829235
    56 1.020000 -0.000793 -0.000206 -0.000006 -0.000006 0.566724
    57 0.000137 0.100441 0.000326 -0.010907 0.023152 -0.260855
    58 0.629726 -0.690046 -0.229767 0.087259 0.607382 -1.183287
    59 2.099436 0.000475 -0.000420 -0.242425 0.290019 0.541644
    60 1.290005 -0.000226 0.000595 0.000011 -0.000001 0.367122
    61 0.599890 0.400180 -0.000038 0.000000 0.000000 0.000000
    62 0.999546 0.000378 -1.210201 0.000000 0.000001 0.000000
    63 2.299668 -2.499983 -0.599472 0.891989 0.221534 -0.527293
    64 2.441180 0.008648 0.276371 -1.631656 0.347415 -0.011164
    65 6.507300 18.151670 -45.009384 -0.838290 -0.131068 -0.742263
    66 1.899122 0.000411 -0.000435 0.027389 -0.033312 0.477839
    67 6.702008 18.527292 -44.643608 -0.836663 -0.212964 -0.666067
    68 1.799663 -0.000263 0.000240 0.027368 -0.033302 0.477837
    69 1.799663 -0.000263 0.000240 0.027368 -0.033302 0.477837
    70 6.959225 19.025557 -44.157471 -0.840331 -0.282345 -0.600369
    71 1.900319 -0.000086 -0.000511 0.027380 -0.033309 0.477870
    72 3.999445 -0.000526 -0.000340 -0.000002 -0.000001 0.000001
    73 0.119207 -0.275761 -0.000137 -0.000006 0.000004 0.409859
    74 5.999825 -0.000403 -3.999947 -0.000001 0.000000 -0.000010
    75 5.037998 -0.021002 1.943000 1.156405 -1.547404 -1.156482
    76 5.784616 -0.000004 -0.000175 0.074814 -0.826817 -0.247863
    77 0.500233 0.000138 0.000050 0.000019 0.000000 0.000018
    78 11.529522 -0.000254 -0.001057 0.000010 0.000010 -0.819705
    79 3.999899 0.000000 0.000927 -0.000009 0.000017 -0.000009
    80 11.041269 -0.000450 0.000420 -0.000009 0.000011 -0.000008
    81 -18.909433 -8.427076 0.000362 2.328708 0.123464 -0.568484
    82 -18.909433 -8.427076 0.000362 2.328708 0.123464 -0.568484
    83 7.228298 7.928225 -3.925682 2.328715 0.123471 -0.568477
    84 0.610312 -0.939535 -0.070305 1.655295 0.140074 -0.175589
    85 2.619611 0.000145 -0.000397 -0.201608 0.020138 0.350093
    86 1.867866 -0.000050 0.000534 0.000008 -0.000006 0.463062
    87 0.919384 0.000408 0.000088 0.000003 -0.000001 0.632327
    88 0.600395 0.399632 -0.000475 0.000000 -0.000007 3.141592
    89 1.200061 0.399940 -0.000147 0.009476 -0.016090 0.007134
    90 0.000593 0.100349 0.000325 0.120048 0.021924 -0.209608
    91 0.639947 -0.199156 -0.060192 1.665965 0.131403 -0.066410
    92 2.659899 0.000778 0.000166 -0.027381 0.033308 0.477852
    93 2.008773 -0.000896 -0.000385 -0.000003 0.000008 0.978392
    94 1.100361 0.000010 0.000469 0.000010 -0.000011 0.463701
    95 0.000221 0.098999 -0.000208 0.018813 -0.010832 -0.239224
    96 0.600186 1.080259 0.339470 1.738110 -0.020756 0.107419
    97 2.199737 0.000526 -0.000122 0.000001 0.000000 0.628155
    98 1.180098 0.000376 0.000074 0.000005 -0.000008 0.743203
    99 0.679459 -0.000820 0.000175 -0.000003 0.000004 0.546279
    100 -0.000191 0.099627 0.000031 0.000003 -0.000002 -0.314096
    101 0.599958 0.959274 0.300074 0.174558 0.000000 0.000010
    102 0.610223 0.400734 0.010071 1.762282 0.061638 0.042968
    103 2.560420 -0.000172 -0.000029 -0.002482 0.050638 0.521448
    104 1.708748 0.000725 0.000212 0.000000 0.000000 0.829233
    105 1.019810 -0.000022 -0.000399 0.000002 -0.000005 0.566725
    106 -0.000580 0.100136 0.000319 0.010920 -0.023132 -0.260844
    107 0.630199 -0.689476 0.230446 -0.087276 -0.607392 -1.183272
    108 2.099339 -0.000114 -0.000427 0.242431 -0.290002 0.541635
    109 1.290604 0.000368 -0.000050 -0.000009 -0.000032 0.367127
    110 0.599895 0.400182 0.000015 0.000000 -0.000031 -3.141592
    111 0.999457 -0.000197 1.209373 0.000000 -0.000001 0.000000
    112 2.300145 -2.499426 0.600124 -0.892011 -0.221586 -0.527214
    113 2.762376 0.116941 1.523956 1.629489 0.064147 1.743799
    114 2.441189 0.008640 -0.276398 1.631656 -0.347401 -0.011166
    115 6.918546 18.946070 44.347813 -2.260805 0.112084 -0.395145
    116 1.899439 -0.000306 -0.000159 -0.027371 0.033305 0.477860
    117 6.735942 18.563766 44.711956 -2.281088 0.032725 -0.473096
    118 1.799662 -0.000242 -0.000233 -0.027396 0.033317 0.477847
    119 1.799662 -0.000242 -0.000233 -0.027396 0.033317 0.477847
    120 6.493342 18.056145 45.195934 -2.293456 -0.035629 -0.537884
    121 1.900735 0.000596 -0.000072 -0.027400 0.033319 0.477870
    122 10.600052 -0.000427 0.000404 -0.000008 0.000023 -0.000004
    123 0.119661 -0.275202 0.000824 0.000005 0.000023 0.409850
    124 5.999763 -0.000344 4.000057 0.000002 0.000000 0.000006
    125 8.823002 -0.000003 0.000000 0.000000 -0.000013 -0.294114
    126 3.116970 -0.000408 -0.000040 0.000004 0.000012 0.294114
    127 6.233002 -0.000003 0.000000 0.000000 0.000000 0.000000
    128 1.598000 -0.000001 0.000000 0.000000 0.000000 0.000000
    129 -4.481003 -0.201998 0.000000 0.000000 0.000000 0.000000
    130 -5.516998 -0.290997 -0.001000 0.000000 0.000000 0.000000
    131 6.241997 -6.380002 0.000000 0.000000 0.000000 0.000000
    132 3.512001 -3.547001 -1.065999 0.000000 1.570796 0.000000
    133 3.456001 -3.517004 1.169001 0.000000 1.570796 0.000000
    134 -0.171997 -0.106000 -0.902000 1.570712 1.029179 -3.134553
    135 0.000000 0.000000 0.000000 0.000000 0.000000 0.000000
    136 9.904999 -5.486004 -6.443005 1.570796 0.000000 3.141592
    137 -47.983002 -1.009996 0.000063 -1.570796 -0.000061 -1.570796
    138 0.000000 0.000000 0.000000 0.000000 0.000000 0.000000
    139 3.999992 -6.500002 0.000000 0.000000 0.000014 0.000990
    140 -6.500000 0.000001 0.000000 0.000000 1.570796 0.000000
    141 14.188001 0.000000 0.141998 0.000000 0.000000 0.000000
    142 0.000000 0.000000 0.000000 0.000000 0.000000 0.000000
    143 0.000000 0.000000 0.000000 0.000000 0.000000 0.000000
    144 0.106000 0.000000 -64.320000 0.000000 0.000000 0.000000
    145 0.000000 0.000000 0.000000 0.000000 0.000000 0.000000
    146 -0.106000 0.000000 64.320000 0.000000 0.000000 0.000000
end
