// Created by Crowbar 0.74
version 1
nodes
  0 "tag_barrel_attach" -1
  1 "j_barrel" 0
  2 "j_slide" 0
  3 "tag_flash_attachment" 1
  4 "tag_silencer" 1
  5 "tag_reflex" 2
end
skeleton
  time 0
    0 0.000000 0.000000 0.000000 0.000000 0.000000 -1.570796
    1 -1.912000 0.003000 0.278000 0.000000 0.000000 0.000000
    2 -3.830000 0.003000 0.015000 0.000000 0.000000 0.000000
    3 2.930000 0.000000 -0.278000 0.000000 0.000000 0.000000
    4 2.931000 0.000000 -0.283000 0.000000 0.000000 0.000000
    5 -2.941000 -0.003000 0.381000 0.000000 0.000000 0.000000
end
